<?xml version="1.0" encoding="UTF-8" standalone="no"?>
<svg
   xmlns:dc="http://purl.org/dc/elements/1.1/"
   xmlns:cc="http://creativecommons.org/ns#"
   xmlns:rdf="http://www.w3.org/1999/02/22-rdf-syntax-ns#"
   xmlns:svg="http://www.w3.org/2000/svg"
   xmlns="http://www.w3.org/2000/svg"
   xmlns:sodipodi="http://sodipodi.sourceforge.net/DTD/sodipodi-0.dtd"
   xmlns:inkscape="http://www.inkscape.org/namespaces/inkscape"
   height="1080"
   width="1440"
   sodipodi:docname="asciidoctor-04.svg"
   inkscape:version="0.91 r13725"
   id="svg2"
   xml:space="preserve"
   enable-background="new 0 0 100 100"
   viewBox="0 0 1440 1080"
   y="0px"
   x="0px"
   version="1.1"><sodipodi:namedview
     inkscape:current-layer="svg2"
     inkscape:window-maximized="1"
     inkscape:window-y="0"
     inkscape:window-x="0"
     inkscape:cy="543.68804"
     inkscape:cx="42.046188"
     inkscape:zoom="0.944"
     showgrid="false"
     id="namedview16"
     inkscape:window-height="1406"
     inkscape:window-width="2560"
     inkscape:pageshadow="2"
     inkscape:pageopacity="0"
     guidetolerance="10"
     gridtolerance="10"
     objecttolerance="10"
     borderopacity="1"
     bordercolor="#666666"
     pagecolor="#ffffff"
     showguides="false" /><metadata
     id="metadata20"><rdf:RDF><cc:Work
         rdf:about=""><dc:format>image/svg+xml</dc:format><dc:type
           rdf:resource="http://purl.org/dc/dcmitype/StillImage" /><dc:title /></cc:Work></rdf:RDF></metadata><defs
     id="defs18"><clipPath
       clipPathUnits="userSpaceOnUse"
       id="clipPath4522"><rect
         style="fill:#226699;fill-opacity:1;stroke:none"
         id="rect4524"
         width="1116.6582"
         height="588.78345"
         x="3620.6797"
         y="1153.7546" /></clipPath><radialGradient
       gradientUnits="userSpaceOnUse"
       r="78.326784"
       fy="19.524991"
       fx="106.73546"
       gradientTransform="scale(1.2320179,0.81167652)"
       cy="19.524991"
       cx="106.73546"
       id="r"><stop
         stop-color="#f06b59"
         id="stop3165" /><stop
         offset="1"
         stop-color="#df2227"
         id="stop3167" /></radialGradient><radialGradient
       gradientUnits="userSpaceOnUse"
       fy="108.80645"
       fx="122.26707"
       gradientTransform="scale(0.92838267,1.077142)"
       r="122.76932"
       cy="108.80645"
       cx="122.26707"
       id="g"><stop
         offset="0.65"
         stop-color="#4cb749"
         id="stop3170" /><stop
         offset="1"
         stop-color="#388b41"
         id="stop3172" /></radialGradient><radialGradient
       gradientUnits="userSpaceOnUse"
       fy="102.2451"
       fx="187.90098"
       gradientTransform="scale(0.86406979,1.1573139)"
       r="111.5125"
       cy="102.2451"
       cx="187.90098"
       id="y"><stop
         offset="0.6"
         stop-color="#FCD209"
         id="stop3175" /><stop
         offset="0.7"
         stop-color="#f7c616"
         id="stop3177" /><stop
         offset="1"
         stop-color="#bc821e"
         id="stop3179" /></radialGradient><radialGradient
       gradientUnits="userSpaceOnUse"
       fy="78.099998"
       fx="127.5"
       r="99"
       cy="78.099998"
       cx="127.5"
       spreadMethod="pad"
       id="cf"><stop
         offset="0.1"
         stop-color="#7FB3DF"
         id="stop3182" /><stop
         offset="0.9"
         stop-color="#0F5B94"
         id="stop3184" /></radialGradient><radialGradient
       gradientUnits="userSpaceOnUse"
       fy="78.099998"
       fx="127.5"
       id="cb"
       r="99"
       cy="78.099998"
       cx="127.5"><stop
         offset="0"
         stop-color="#F6F0EE"
         id="stop3187" /><stop
         offset="1"
         stop-color="#ddd"
         id="stop3189" /></radialGradient><clipPath
       id="clipPath3858"
       clipPathUnits="userSpaceOnUse"><path
         inkscape:connector-curvature="0"
         id="path3860"
         d="m 396.03854,-957.67135 0.32555,-1.84982 c 0.17787,-1.01669 0.93607,-3.7676 1.68701,-6.11165 0.7509,-2.34405 1.58344,-6.17974 1.86458,-8.5238 0.48888,-4.07658 1.1063,-7.91359 1.59822,-9.94441 1.24167,-5.12642 2.16342,-17.96397 2.53046,-35.27907 0.16847,-7.9437 0.34219,-15.7216 0.3848,-17.2843 0.29541,-10.7974 0.2766,-15.7022 -0.1627,-31.4907 -0.27182,-9.7669 -0.59568,-30.7567 -0.71033,-46.6441 -0.21749,-30.1434 -0.34278,-33.9341 -1.50943,-45.2235 -1.52579,-14.7652 -2.10523,-22.4822 -2.5453,-33.9915 -0.25173,-6.5837 -0.58297,-12.1766 -0.7399,-12.4306 -0.31495,-0.5097 -0.34545,-16.0836 -0.0591,-28.6346 0.1178,-5.168 0.52478,-10.0196 1.13944,-13.5404 0.81164,-4.6489 0.89225,-6.1637 0.50319,-9.9444 -0.64924,-6.3078 0.15372,-20.0747 1.19863,-20.466 0.29629,-0.111 1.71953,-0.033 3.15201,0.1776 6.90237,1.0128 12.88171,1.366 27.93909,1.6278 8.98551,0.1562 18.25513,0.432 20.59918,0.6215 2.34408,0.1897 7.13871,0.1759 10.65475,-0.029 3.51606,-0.2055 9.16307,-0.2416 12.54892,-0.089 11.20168,0.5058 35.36389,0.4125 45.22346,-0.1776 5.33925,-0.3195 13.64996,-0.7907 18.46821,-1.0506 4.81831,-0.26 11.74395,-0.9145 15.39019,-1.4503 3.64629,-0.5357 8.12132,-1.1803 9.94443,-1.4354 6.28729,-0.8798 68.53983,-1.356 93.28817,-0.7103 17.23555,0.4497 21.53664,0.4736 47.59117,0.3107 10.32801,-0.065 18.5457,0.1124 21.3095,0.444 2.59099,0.3109 14.94065,0.6163 29.12296,0.7251 13.5434,0.1039 31.23022,0.3571 39.30416,0.5623 18.56812,0.4722 23.7916,0.471 40.72478,-0.015 9.37287,-0.2688 15.31792,-0.2237 18.74941,0.1333 5.89255,0.6129 35.94236,0.7254 42.81135,0.1627 2.60448,-0.2133 10.01083,-0.3895 16.45567,-0.3848 6.44483,0.01 11.77216,-0.1418 11.83859,-0.3255 0.0665,-0.1838 0.88501,-0.1563 1.83498,0.059 0.95012,0.2157 3.72029,0.2223 6.15608,0.015 2.43586,-0.2076 6.25078,-0.5021 8.4646,-0.6512 16.01826,-1.0788 34.62009,-2.5161 45.69701,-3.5367 2.6045,-0.2401 11.66097,-0.4513 20.12557,-0.4736 8.4646,-0.022 17.5211,-0.133 20.1256,-0.2367 2.6046,-0.1039 5.8433,0.021 7.2068,0.2663 1.5326,0.2759 3.4078,0.2709 4.8982,0 1.4546,-0.2645 3.094,-0.2594 4.1436,0 0.9567,0.2364 3.2859,0.4233 5.1793,0.4143 4.079,-0.019 3.6878,-0.5729 5.727,8.0355 1.8446,7.7871 2.4984,13.9158 2.353,22.2713 -0.066,3.7676 -0.1001,17.2933 -0.074,30.0553 0.042,20.939 0.1368,23.8276 1.0211,29.5965 0.5389,3.5161 1.2044,9.2697 1.4798,12.7857 0.2755,3.5161 0.934,8.95 1.4651,12.0754 0.5309,3.1254 1.4936,8.7724 2.1309,12.5489 0.6372,3.7765 1.7912,10.2759 2.5748,14.4431 1.36,7.2318 2.8503,16.9999 4.4543,29.3598 0.7864,6.0583 1.24,10.0029 2.4714,21.3094 0.4254,3.9068 1.0792,8.7014 1.4502,10.6548 0.371,1.9533 0.9803,8.3462 1.3615,14.2063 0.3811,5.8601 0.9204,14.1708 1.1986,18.4682 0.2781,4.2974 0.5743,15.4032 0.6511,24.6835 0.076,9.2803 0.2476,17.0582 0.3847,17.2843 0.2291,0.3776 0.5161,4.2521 1.0952,14.85749 0.1208,2.21382 0.3511,7.70102 0.5179,12.19375 l 0.3108,8.16865 -4.2176,0 c -2.3216,0 -4.9798,0.23459 -5.8897,0.51796 -0.9099,0.28323 -5.052,0.57966 -9.2193,0.6659 -9.8387,0.20367 -19.0647,0.57876 -33.3849,1.37622 -6.3809,0.35534 -11.9747,0.66513 -12.4305,0.68075 -4.2692,0.1461 -9.0519,0.092 -13.5256,-0.16288 -3.12157,-0.17774 -5.59057,-0.12541 -5.91927,0.13323 -0.8238,0.64822 -2.1501,0.52322 -2.4417,-0.23678 -0.3346,-0.87194 -5.4606,-0.66348 -5.4606,0.222 0,0.32708 0.2131,0.59194 0.4736,0.59194 0.2604,0 0.4735,0.24979 0.4735,0.56232 0,0.44196 -0.1351,0.44196 -0.5771,0 -0.3126,-0.31253 -1.1117,-0.59122 -1.7758,-0.62152 -0.8026,-0.0364 -0.9207,-0.12237 -0.37,-0.26636 0.4558,-0.11915 0.8287,-0.4057 0.8287,-0.6363 1e-4,-0.23176 -5.4558,-0.44125 -12.19371,-0.45878 -6.70658,-0.0175 -15.17715,-0.0336 -18.82345,-0.0446 -3.64621,-0.0102 -10.35873,-0.008 -14.91659,0.0153 -4.55786,0.0238 -12.01618,-0.29791 -16.57404,-0.71031 -14.26197,-1.2906 -15.62695,-1.33743 -15.62695,-0.68073 0,0.45276 -0.16136,0.46317 -0.6659,0.0446 -0.72615,-0.60262 -4.61403,-0.82484 -5.44577,-0.31078 -0.28815,0.17783 -0.76999,0.1622 -1.08024,-0.0293 -0.62779,-0.38797 -0.33267,-0.37503 -18.14272,-1.15426 -7.03214,-0.30767 -14.38393,-0.63393 -16.33728,-0.72514 -11.77197,-0.54954 -29.11776,-0.5966 -29.72966,-0.0888 -0.42611,0.35361 -0.77089,0.37705 -0.9767,0.0739 -0.17548,-0.25843 -1.16316,-0.44514 -2.20495,-0.41437 -1.04176,0.0308 -4.93075,0.0992 -8.6422,0.14797 -6.36636,0.0839 -6.74799,0.14151 -6.74799,1.02111 5e-5,0.64127 -0.22836,0.84172 -0.72509,0.65111 -0.56253,-0.21588 -0.60727,-0.4293 -0.17758,-0.94708 0.468,-0.56376 -0.13915,-0.64488 -4.01034,-0.57715 -2.59403,0.0454 -4.55787,0.27044 -4.55787,0.53273 0,0.28518 -0.22636,0.28731 -0.59193,-0.0152 -0.32551,-0.26903 -1.37905,-0.64951 -2.33808,-0.82871 -1.60617,-0.30011 -1.71924,-0.23472 -1.47983,0.68068 0.14288,0.54657 0.0398,0.9915 -0.222,0.9915 -0.26186,0 -0.45033,-0.37291 -0.41435,-0.8287 0.0608,-0.76708 -0.86633,-0.84419 -12.46012,-0.96186 -11.04661,-0.11221 -12.57652,-0.0431 -12.94846,0.6215 -0.38541,0.68866 -0.49216,0.69301 -1.25786,0 -0.66519,-0.60199 -1.10767,-0.64621 -2.14579,-0.25156 -0.77433,0.2944 -1.5185,0.32356 -1.83497,0.0739 -0.29388,-0.23185 -3.28099,-0.44419 -6.62962,-0.47354 -5.40408,-0.0475 -6.02167,0.0255 -5.49013,0.66593 0.42122,0.50755 0.45603,0.86095 0.10356,1.21347 -0.35252,0.35245 -0.59179,0.21128 -0.81389,-0.48833 -0.19116,-0.60244 -0.72077,-0.99733 -1.34662,-1.00628 -11.20699,-0.16406 -40.04265,0.39116 -40.68041,0.78427 -0.18379,0.1134 -0.19369,0.54919 -0.0293,0.9767 0.22433,0.58459 0.0929,0.70221 -0.50314,0.47354 -0.51928,-0.19925 -0.78432,-0.056 -0.78432,0.39953 0,0.38254 -0.21305,0.69554 -0.47354,0.69554 -0.6623,0 -0.59098,-1.11695 0.11829,-1.84975 0.48256,-0.49832 -0.0208,-0.55517 -2.72288,-0.32562 -4.76598,0.40499 -22.8807,1.61711 -24.97944,1.67223 -2.74665,0.0722 -3.17559,0.0715 -7.22154,-0.14795 -4.03925,-0.21906 -8.38722,0.0946 -8.07979,0.59192 0.10219,0.16541 -0.5999,0.21972 -1.55385,0.1183 -1.84526,-0.19603 -10.73794,-0.0835 -15.46419,0.19235 -1.5627,0.0912 -5.93114,0.29189 -9.70766,0.45877 -3.77652,0.16694 -7.03161,0.46965 -7.23632,0.6659 -0.20471,0.19605 -1.37291,0.21429 -2.58971,0.0299 -2.22855,-0.33821 -10.11833,-0.19979 -16.69244,0.29597 -1.95337,0.14745 -5.33283,0.23451 -7.5027,0.19236 -3.14095,-0.0608 -4.12271,0.0917 -4.839,0.7399 -0.74024,0.66987 -1.029,0.70416 -1.62785,0.20718 -0.54122,-0.44921 -1.85469,-0.52393 -5.10537,-0.28119 -4.35652,0.32543 -5.06787,0.34 -7.08839,0.20723 -0.93866,-0.0617 -3.85739,0.0741 -17.63952,0.81386 -1.82313,0.0978 -9.92069,0.284 -17.99467,0.39953 -17.66358,0.25279 -27.67194,0.63664 -30.5436,1.1987 -2.31785,0.45366 -21.43516,0.3027 -22.21214,-0.17758 -0.43652,-0.26974 -7.88063,-0.0589 -14.25074,0.41434 -1.43243,0.10644 -6.33367,0.32462 -10.89152,0.47354 -4.55788,0.14898 -11.07114,0.37823 -14.47264,0.51792 -3.40158,0.13982 -12.45812,0.34376 -20.12564,0.444 -8.90201,0.11626 -16.25067,0.46536 -20.33285,0.96187 -3.51603,0.42766 -10.01546,0.94755 -14.4431,1.16907 -4.76029,0.23815 -9.11458,0.72282 -10.65474,1.16905 -1.43243,0.41507 -3.33455,0.88378 -4.21749,1.05066 l -1.59819,0.31078 z"
         style="fill:#992222;fill-opacity:1" /></clipPath><clipPath
       id="clipPath4522-1"
       clipPathUnits="userSpaceOnUse"><rect
         y="1153.7546"
         x="3620.6797"
         height="588.78345"
         width="1116.6582"
         id="rect4524-7"
         style="fill:#226699;fill-opacity:1;stroke:none" /></clipPath><clipPath
       id="clipPath4522-2"
       clipPathUnits="userSpaceOnUse"><rect
         y="1153.7546"
         x="3620.6797"
         height="588.78345"
         width="1116.6582"
         id="rect4524-0"
         style="fill:#226699;fill-opacity:1;stroke:none" /></clipPath><clipPath
       id="clipPath4522-6"
       clipPathUnits="userSpaceOnUse"><rect
         y="1153.7546"
         x="3620.6797"
         height="588.78345"
         width="1116.6582"
         id="rect4524-4"
         style="fill:#226699;fill-opacity:1;stroke:none" /></clipPath><clipPath
       id="clipPath3858-6"
       clipPathUnits="userSpaceOnUse"><path
         inkscape:connector-curvature="0"
         id="path3860-6"
         d="m 396.03854,-957.67135 0.32555,-1.84982 c 0.17787,-1.01669 0.93607,-3.7676 1.68701,-6.11165 0.7509,-2.34405 1.58344,-6.17974 1.86458,-8.5238 0.48888,-4.07658 1.1063,-7.91359 1.59822,-9.94441 1.24167,-5.12642 2.16342,-17.96397 2.53046,-35.27907 0.16847,-7.9437 0.34219,-15.7216 0.3848,-17.2843 0.29541,-10.7974 0.2766,-15.7022 -0.1627,-31.4907 -0.27182,-9.7669 -0.59568,-30.7567 -0.71033,-46.6441 -0.21749,-30.1434 -0.34278,-33.9341 -1.50943,-45.2235 -1.52579,-14.7652 -2.10523,-22.4822 -2.5453,-33.9915 -0.25173,-6.5837 -0.58297,-12.1766 -0.7399,-12.4306 -0.31495,-0.5097 -0.34545,-16.0836 -0.0591,-28.6346 0.1178,-5.168 0.52478,-10.0196 1.13944,-13.5404 0.81164,-4.6489 0.89225,-6.1637 0.50319,-9.9444 -0.64924,-6.3078 0.15372,-20.0747 1.19863,-20.466 0.29629,-0.111 1.71953,-0.033 3.15201,0.1776 6.90237,1.0128 12.88171,1.366 27.93909,1.6278 8.98551,0.1562 18.25513,0.432 20.59918,0.6215 2.34408,0.1897 7.13871,0.1759 10.65475,-0.029 3.51606,-0.2055 9.16307,-0.2416 12.54892,-0.089 11.20168,0.5058 35.36389,0.4125 45.22346,-0.1776 5.33925,-0.3195 13.64996,-0.7907 18.46821,-1.0506 4.81831,-0.26 11.74395,-0.9145 15.39019,-1.4503 3.64629,-0.5357 8.12132,-1.1803 9.94443,-1.4354 6.28729,-0.8798 68.53983,-1.356 93.28817,-0.7103 17.23555,0.4497 21.53664,0.4736 47.59117,0.3107 10.32801,-0.065 18.5457,0.1124 21.3095,0.444 2.59099,0.3109 14.94065,0.6163 29.12296,0.7251 13.5434,0.1039 31.23022,0.3571 39.30416,0.5623 18.56812,0.4722 23.7916,0.471 40.72478,-0.015 9.37287,-0.2688 15.31792,-0.2237 18.74941,0.1333 5.89255,0.6129 35.94236,0.7254 42.81135,0.1627 2.60448,-0.2133 10.01083,-0.3895 16.45567,-0.3848 6.44483,0.01 11.77216,-0.1418 11.83859,-0.3255 0.0665,-0.1838 0.88501,-0.1563 1.83498,0.059 0.95012,0.2157 3.72029,0.2223 6.15608,0.015 2.43586,-0.2076 6.25078,-0.5021 8.4646,-0.6512 16.01826,-1.0788 34.62009,-2.5161 45.69701,-3.5367 2.6045,-0.2401 11.66097,-0.4513 20.12557,-0.4736 8.4646,-0.022 17.5211,-0.133 20.1256,-0.2367 2.6046,-0.1039 5.8433,0.021 7.2068,0.2663 1.5326,0.2759 3.4078,0.2709 4.8982,0 1.4546,-0.2645 3.094,-0.2594 4.1436,0 0.9567,0.2364 3.2859,0.4233 5.1793,0.4143 4.079,-0.019 3.6878,-0.5729 5.727,8.0355 1.8446,7.7871 2.4984,13.9158 2.353,22.2713 -0.066,3.7676 -0.1001,17.2933 -0.074,30.0553 0.042,20.939 0.1368,23.8276 1.0211,29.5965 0.5389,3.5161 1.2044,9.2697 1.4798,12.7857 0.2755,3.5161 0.934,8.95 1.4651,12.0754 0.5309,3.1254 1.4936,8.7724 2.1309,12.5489 0.6372,3.7765 1.7912,10.2759 2.5748,14.4431 1.36,7.2318 2.8503,16.9999 4.4543,29.3598 0.7864,6.0583 1.24,10.0029 2.4714,21.3094 0.4254,3.9068 1.0792,8.7014 1.4502,10.6548 0.371,1.9533 0.9803,8.3462 1.3615,14.2063 0.3811,5.8601 0.9204,14.1708 1.1986,18.4682 0.2781,4.2974 0.5743,15.4032 0.6511,24.6835 0.076,9.2803 0.2476,17.0582 0.3847,17.2843 0.2291,0.3776 0.5161,4.2521 1.0952,14.85749 0.1208,2.21382 0.3511,7.70102 0.5179,12.19375 l 0.3108,8.16865 -4.2176,0 c -2.3216,0 -4.9798,0.23459 -5.8897,0.51796 -0.9099,0.28323 -5.052,0.57966 -9.2193,0.6659 -9.8387,0.20367 -19.0647,0.57876 -33.3849,1.37622 -6.3809,0.35534 -11.9747,0.66513 -12.4305,0.68075 -4.2692,0.1461 -9.0519,0.092 -13.5256,-0.16288 -3.12157,-0.17774 -5.59057,-0.12541 -5.91927,0.13323 -0.8238,0.64822 -2.1501,0.52322 -2.4417,-0.23678 -0.3346,-0.87194 -5.4606,-0.66348 -5.4606,0.222 0,0.32708 0.2131,0.59194 0.4736,0.59194 0.2604,0 0.4735,0.24979 0.4735,0.56232 0,0.44196 -0.1351,0.44196 -0.5771,0 -0.3126,-0.31253 -1.1117,-0.59122 -1.7758,-0.62152 -0.8026,-0.0364 -0.9207,-0.12237 -0.37,-0.26636 0.4558,-0.11915 0.8287,-0.4057 0.8287,-0.6363 1e-4,-0.23176 -5.4558,-0.44125 -12.19371,-0.45878 -6.70658,-0.0175 -15.17715,-0.0336 -18.82345,-0.0446 -3.64621,-0.0102 -10.35873,-0.008 -14.91659,0.0153 -4.55786,0.0238 -12.01618,-0.29791 -16.57404,-0.71031 -14.26197,-1.2906 -15.62695,-1.33743 -15.62695,-0.68073 0,0.45276 -0.16136,0.46317 -0.6659,0.0446 -0.72615,-0.60262 -4.61403,-0.82484 -5.44577,-0.31078 -0.28815,0.17783 -0.76999,0.1622 -1.08024,-0.0293 -0.62779,-0.38797 -0.33267,-0.37503 -18.14272,-1.15426 -7.03214,-0.30767 -14.38393,-0.63393 -16.33728,-0.72514 -11.77197,-0.54954 -29.11776,-0.5966 -29.72966,-0.0888 -0.42611,0.35361 -0.77089,0.37705 -0.9767,0.0739 -0.17548,-0.25843 -1.16316,-0.44514 -2.20495,-0.41437 -1.04176,0.0308 -4.93075,0.0992 -8.6422,0.14797 -6.36636,0.0839 -6.74799,0.14151 -6.74799,1.02111 5e-5,0.64127 -0.22836,0.84172 -0.72509,0.65111 -0.56253,-0.21588 -0.60727,-0.4293 -0.17758,-0.94708 0.468,-0.56376 -0.13915,-0.64488 -4.01034,-0.57715 -2.59403,0.0454 -4.55787,0.27044 -4.55787,0.53273 0,0.28518 -0.22636,0.28731 -0.59193,-0.0152 -0.32551,-0.26903 -1.37905,-0.64951 -2.33808,-0.82871 -1.60617,-0.30011 -1.71924,-0.23472 -1.47983,0.68068 0.14288,0.54657 0.0398,0.9915 -0.222,0.9915 -0.26186,0 -0.45033,-0.37291 -0.41435,-0.8287 0.0608,-0.76708 -0.86633,-0.84419 -12.46012,-0.96186 -11.04661,-0.11221 -12.57652,-0.0431 -12.94846,0.6215 -0.38541,0.68866 -0.49216,0.69301 -1.25786,0 -0.66519,-0.60199 -1.10767,-0.64621 -2.14579,-0.25156 -0.77433,0.2944 -1.5185,0.32356 -1.83497,0.0739 -0.29388,-0.23185 -3.28099,-0.44419 -6.62962,-0.47354 -5.40408,-0.0475 -6.02167,0.0255 -5.49013,0.66593 0.42122,0.50755 0.45603,0.86095 0.10356,1.21347 -0.35252,0.35245 -0.59179,0.21128 -0.81389,-0.48833 -0.19116,-0.60244 -0.72077,-0.99733 -1.34662,-1.00628 -11.20699,-0.16406 -40.04265,0.39116 -40.68041,0.78427 -0.18379,0.1134 -0.19369,0.54919 -0.0293,0.9767 0.22433,0.58459 0.0929,0.70221 -0.50314,0.47354 -0.51928,-0.19925 -0.78432,-0.056 -0.78432,0.39953 0,0.38254 -0.21305,0.69554 -0.47354,0.69554 -0.6623,0 -0.59098,-1.11695 0.11829,-1.84975 0.48256,-0.49832 -0.0208,-0.55517 -2.72288,-0.32562 -4.76598,0.40499 -22.8807,1.61711 -24.97944,1.67223 -2.74665,0.0722 -3.17559,0.0715 -7.22154,-0.14795 -4.03925,-0.21906 -8.38722,0.0946 -8.07979,0.59192 0.10219,0.16541 -0.5999,0.21972 -1.55385,0.1183 -1.84526,-0.19603 -10.73794,-0.0835 -15.46419,0.19235 -1.5627,0.0912 -5.93114,0.29189 -9.70766,0.45877 -3.77652,0.16694 -7.03161,0.46965 -7.23632,0.6659 -0.20471,0.19605 -1.37291,0.21429 -2.58971,0.0299 -2.22855,-0.33821 -10.11833,-0.19979 -16.69244,0.29597 -1.95337,0.14745 -5.33283,0.23451 -7.5027,0.19236 -3.14095,-0.0608 -4.12271,0.0917 -4.839,0.7399 -0.74024,0.66987 -1.029,0.70416 -1.62785,0.20718 -0.54122,-0.44921 -1.85469,-0.52393 -5.10537,-0.28119 -4.35652,0.32543 -5.06787,0.34 -7.08839,0.20723 -0.93866,-0.0617 -3.85739,0.0741 -17.63952,0.81386 -1.82313,0.0978 -9.92069,0.284 -17.99467,0.39953 -17.66358,0.25279 -27.67194,0.63664 -30.5436,1.1987 -2.31785,0.45366 -21.43516,0.3027 -22.21214,-0.17758 -0.43652,-0.26974 -7.88063,-0.0589 -14.25074,0.41434 -1.43243,0.10644 -6.33367,0.32462 -10.89152,0.47354 -4.55788,0.14898 -11.07114,0.37823 -14.47264,0.51792 -3.40158,0.13982 -12.45812,0.34376 -20.12564,0.444 -8.90201,0.11626 -16.25067,0.46536 -20.33285,0.96187 -3.51603,0.42766 -10.01546,0.94755 -14.4431,1.16907 -4.76029,0.23815 -9.11458,0.72282 -10.65474,1.16905 -1.43243,0.41507 -3.33455,0.88378 -4.21749,1.05066 l -1.59819,0.31078 z"
         style="fill:#992222;fill-opacity:1" /></clipPath><clipPath
       id="clipPath4522-8"
       clipPathUnits="userSpaceOnUse"><rect
         y="1153.7546"
         x="3620.6797"
         height="588.78345"
         width="1116.6582"
         id="rect4524-8"
         style="fill:#226699;fill-opacity:1;stroke:none" /></clipPath><filter
       id="filter3207"
       inkscape:label="Roughen"
       style="color-interpolation-filters:sRGB;"><feTurbulence
         id="feTurbulence3209"
         result="turbulence"
         baseFrequency="0.013 0.013"
         seed="1"
         numOctaves="5"
         type="fractalNoise" /><feDisplacementMap
         id="feDisplacementMap3211"
         xChannelSelector="R"
         yChannelSelector="G"
         scale="6.6"
         in2="turbulence"
         in="SourceGraphic" /></filter><filter
       id="filter3261"
       inkscape:label="Roughen"
       style="color-interpolation-filters:sRGB;"><feTurbulence
         id="feTurbulence3263"
         result="turbulence"
         baseFrequency="0.013 0.013"
         seed="1"
         numOctaves="5"
         type="fractalNoise" /><feDisplacementMap
         id="feDisplacementMap3265"
         xChannelSelector="R"
         yChannelSelector="G"
         scale="6.6"
         in2="turbulence"
         in="SourceGraphic" /></filter></defs><path
     id="path3249"
     style="fill:none;fill-rule:evenodd;stroke:#1185e9;stroke-width:8;stroke-linecap:round;stroke-linejoin:round;stroke-miterlimit:4;stroke-dasharray:none;stroke-opacity:1"
     d="m 717.59535,230.3677 -21.88845,40.2372 m 24.28017,-40.95835 31.35619,33.39052 m -27.9757,270.36971 c 0,0 -2.74884,-26.78968 -6.48824,-46.43396 -4.8166,-25.30288 1.18388,-37.23432 0.44505,-62.87609 -0.73883,-25.64176 -14.16356,-42.83513 0.92103,-77.23776 18.04984,-41.16539 5.79597,-81.42057 4.3998,-81.22709"
     inkscape:connector-curvature="0"
     sodipodi:nodetypes="cccccsssc" /><g
     id="g3580"
     transform="matrix(1.441274,0,0,1.441274,-66.977339,-1681.1426)"><path
       style="fill:#1185e9;fill-opacity:1"
       id="path3442"
       d="m 539.58661,1219.294 c -0.9409,-1.0489 -1.87028,-2.221 -2.70714,-3.2753 -0.39467,-0.4983 -0.77232,-0.9734 -1.12548,-1.4052 l -0.026,-0.031 c 0.51722,-1.4731 0.81284,-2.6786 0.87887,-3.5841 0.16756,-2.3064 -0.09,-3.7921 -0.78683,-4.5408 -0.47071,-0.5068 -1.1775,-0.6834 -1.84228,-0.4598 -0.4762,0.1596 -1.12097,0.5873 -1.48962,1.7167 -0.54923,1.6838 -0.28312,4.6655 1.27854,7.1316 -0.6968,1.8248 -1.66821,3.9215 -2.74116,5.918 -2.04335,0.7163 -3.67204,1.6581 -4.84104,2.8006 -1.52713,1.4907 -2.14789,2.9702 -1.7037,4.0587 0.27361,0.6743 0.90638,1.0764 1.69221,1.0764 0.54723,0 1.13898,-0.1976 1.71171,-0.5706 1.44611,-0.9454 3.3344,-4.0952 4.34733,-5.9206 2.09538,-0.6542 4.16425,-0.9219 5.21569,-1.0234 0.4757,-0.045 0.9479,-0.082 1.40259,-0.1086 1.84027,1.9433 3.34541,2.9682 4.73199,3.2238 0.27912,0.053 0.55823,0.078 0.83084,0.078 1.12998,0 2.06387,-0.4508 2.49956,-1.2055 0.32863,-0.5703 0.32213,-1.2355 -0.0185,-1.8257 -0.76933,-1.3321 -3.0913,-2.0655 -6.53825,-2.0655 -0.24811,6e-4 -0.50421,0.012 -0.76933,0.012 z m -12.66132,7.3692 c -0.27361,0.1785 -0.55473,0.285 -0.75281,0.285 -0.0375,0 -0.063,-0.012 -0.0775,-0.012 -0.0345,-0.1745 0.0895,-0.9294 1.31253,-2.1244 0.57426,-0.5612 1.30056,-1.0735 2.16041,-1.5267 -1.08495,1.7458 -2.06136,2.9938 -2.6426,3.3735 z m 7.22654,-18.4054 c 0.12755,-0.3906 0.28562,-0.5672 0.38416,-0.6002 0.002,-5e-4 0.004,0 0.006,0 0.0951,0.1074 0.4992,0.7188 0.31812,3.2169 -0.0315,0.4357 -0.13754,0.9864 -0.31613,1.6407 -0.58424,-1.5047 -0.74481,-3.1764 -0.39266,-4.2553 z m 3.12681,11.1853 c -0.9314,0.09 -2.34999,0.2741 -3.93265,0.6488 0.61376,-1.2255 1.18199,-2.4676 1.65669,-3.6185 0.16458,0.2061 0.33314,0.4176 0.50422,0.6342 0.57273,0.7219 1.21601,1.5331 1.88279,2.3255 l -0.11105,0.012 z m 8.09789,2.7802 c 0.026,0.045 0.0256,0.063 0.019,0.075 -0.0736,0.1276 -0.40616,0.3302 -0.98491,0.3302 -0.16156,0 -0.33364,-0.017 -0.51121,-0.049 -0.72231,-0.1335 -1.56466,-0.6327 -2.56858,-1.5231 2.72414,0.1302 3.82511,0.7869 4.04569,1.1676 z"
       inkscape:connector-curvature="0" /><g
       transform="translate(170.55085,0)"
       id="g3557"><path
         style="clip-rule:evenodd;fill:#454545;fill-opacity:1;fill-rule:evenodd"
         inkscape:connector-curvature="0"
         d="m 414.51907,1235.1035 -6.881,-5.086 -0.07,0 0,-12.702 -0.004,0 -22.053,-21.58 -0.012,0.011 -42.133,0 0,34.301 -6.934,5.239 0,27.159 0,1.545 1.546,0 5.388,0 0,21.721 64.202,0 0,-21.72 5.387,0 1.547,0 0,-1.545 0,-7.414 0.017,-19.929 z m -11.318,-17.793 -17.719,-0.02 0.018,-17.282 17.701,17.302 z m -20.791,-18.472 -0.023,21.54 22.089,0.025 0,14.715 -58.019,0 0,-36.28 35.953,0 z m 22.066,83.781 -58.019,0 0,-18.628 58.019,0 0,18.628 z m 6.934,-21.722 -71.886,0 0,-22.687 71.885,0 0,22.687 z"
         id="path3559" /><text
         sodipodi:linespacing="125%"
         id="text3561"
         y="1255.8042"
         x="374.34796"
         style="font-style:normal;font-weight:normal;font-size:21.23206139px;line-height:125%;font-family:sans-serif;letter-spacing:0px;word-spacing:0px;fill:#1185e9;fill-opacity:1;stroke:none;stroke-width:1px;stroke-linecap:butt;stroke-linejoin:miter;stroke-opacity:1"
         xml:space="preserve"><tspan
           style="font-style:normal;font-variant:normal;font-weight:normal;font-stretch:normal;font-family:'Operator Mono';-inkscape-font-specification:'Operator Mono';text-align:center;text-anchor:middle;fill:#1185e9;fill-opacity:1"
           y="1255.8042"
           x="374.34796"
           id="tspan3563"
           sodipodi:role="line">PDF</tspan></text>
</g></g><g
     id="g3614"
     transform="matrix(0.91723839,0,0,0.91723839,427.5294,-117.7695)"
     style="fill:#454545;fill-opacity:1"><path
       style="fill:#1185e9;fill-opacity:1"
       d="m 374.80945,815.57074 a 15.159039,15.159039 0 1 1 15.15904,-15.15904 15.159039,15.159039 0 0 1 -15.15904,15.15904 z m 32.1832,-6.07155 -1.13098,-1.01193 -1.23018,-0.89287 -1.07145,-0.69446 -0.63494,-0.41667 -0.3373,-0.31747 -0.15874,-0.39683 0,-0.63494 0,-1.07145 0,-1.36907 0,-1.50797 0,-1.56749 0,-1.5675 0,-1.50796 0,-1.36908 0,-1.07145 0,-0.63493 0.15874,-0.39684 0.3373,-0.31746 0.63494,-0.41668 1.07145,-0.69446 1.23018,-0.89287 1.13098,-1.01193 0.83335,-1.09129 0.31746,-1.13097 0,-1.17066 -0.39683,-1.21035 -0.55557,-1.23018 -0.61509,-1.21034 -0.69446,-1.05161 -0.85319,-0.79367 -1.07145,-0.45636 -1.36907,0 -1.48813,0.25795 -1.46828,0.41667 -1.21035,0.39683 -0.7143,0.2381 -0.45635,0 -0.39684,-0.11905 -0.61509,-0.25794 -0.81351,-0.69446 -1.01192,-0.91271 -1.11114,-1.01193 -1.21034,-1.01192 -1.25003,-0.9524 -1.23018,-0.87304 -1.11113,-0.77382 -0.87304,-0.63494 -0.4762,-0.43651 -0.19841,-0.377 0,-0.45635 0,-0.75399 0.11905,-1.26986 0,-1.50797 0,-1.50797 -0.33731,-1.32939 -0.67462,-0.9524 -0.97224,-0.65478 -1.1905,-0.45636 -1.30955,-0.31746 -1.30955,-0.27779 -1.26987,-0.11905 -1.15082,0.17858 -1.03176,0.55557 -0.87304,1.05161 -0.73414,1.32939 -0.59525,1.40876 -0.43652,1.1905 -0.25794,0.7143 -0.2381,0.39683 -0.33731,0.2381 -0.61509,0.17858 -1.05161,0.19841 -1.34923,0.21826 -1.48813,0.25794 -1.54765,0.29763 -1.52781,0.39683 -1.44844,0.41668 -1.30955,0.37699 -1.03177,0.27778 -0.63493,0.0992 -0.41668,0 -0.37699,-0.29763 -0.55556,-0.53572 -0.91272,-0.89288 -1.13098,-1.01192 -1.23018,-0.87303 -1.17066,-0.65478 -1.17066,0 -1.11113,0.35715 -1.09129,0.65478 -1.07145,0.8135 -1.03177,0.8532 -0.87303,0.91271 -0.59525,1.01193 -0.19842,1.15082 0.27778,1.32939 0.57541,1.40876 0.73414,1.32939 0.65478,1.09129 0.39683,0.65478 0.17858,0.43651 0,0.41668 -0.2381,0.59525 -0.49605,0.9524 -0.67461,1.1905 -0.73414,1.30955 -0.7143,1.40876 -0.63494,1.4286 -0.57541,1.38892 -0.51588,1.26986 -0.41668,0.99209 -0.31746,0.55556 -0.31747,0.27779 -0.43652,0.13889 -0.75398,0 -1.26987,0.15873 -1.48812,0.25794 -1.46829,0.41668 -1.21034,0.61509 -0.77382,0.87304 -0.41668,1.09129 -0.17857,1.26986 0,2.69847 0.17857,1.26987 0.41668,1.09129 0.77382,0.87303 1.21034,0.6151 1.46829,0.41667 1.48812,0.25794 1.26987,0.15874 0.75398,0 0.43652,0.13889 0.31747,0.27778 0.31746,0.55557 0.41668,0.99208 0.51588,1.26987 0.57541,1.38892 0.63494,1.4286 0.7143,1.40876 0.73414,1.30955 0.67461,1.1905 0.49605,0.9524 0.2381,0.59525 0,0.41667 -0.17858,0.43652 -0.39683,0.65478 -0.65478,1.09129 -0.73414,1.32939 -0.57541,1.40876 -0.27778,1.32939 0.19842,1.15082 0.59525,1.01192 0.87303,0.91272 1.03177,0.85319 1.07145,0.81351 1.09129,0.65478 1.11113,0.35715 1.17066,0 1.25003,-0.55557 1.23018,-0.87303 1.13098,-1.01193 0.91271,-0.89287 0.55557,-0.53573 0.37699,-0.25794 0.41668,0 0.63493,0.0992 1.03177,0.27778 1.30955,0.37699 1.44844,0.41668 1.52781,0.39683 1.54765,0.29763 1.48813,0.25794 1.34923,0.21826 1.05161,0.19841 0.61509,0.17858 0.33731,0.2381 0.2381,0.39683 0.25794,0.7143 0.43652,1.1905 0.59525,1.40876 0.73414,1.32939 0.87303,1.05161 1.03177,0.55557 1.15082,0.17857 1.26986,-0.11905 1.30955,-0.27778 1.30956,-0.31747 1.1905,-0.45636 0.97224,-0.65477 0.67461,-0.9524 0.33731,-1.32939 0,-1.50797 0,-1.50797 -0.11905,-1.26986 0,-0.75399 0,-0.45636 0.19842,-0.37699 0.4762,-0.43652 0.87303,-0.63493 1.11114,-0.77382 1.23018,-0.87304 1.25003,-0.9524 1.21034,-1.01192 1.11113,-1.01193 1.01193,-0.91272 0.73414,-0.5754 0.51588,-0.377 0.39684,-0.11905 0.45636,0 0.7143,0.2381 1.21034,0.39684 1.46828,0.41667 1.48813,0.25794 1.36907,0 1.07145,-0.45635 0.8532,-0.79367 0.69445,-1.05161 0.6151,-1.21034 0.55556,-1.23019 0.39684,-1.21034 0,-1.17066 -0.31747,-1.13097 z"
       id="path3604"
       inkscape:connector-curvature="0" /><path
       d="m 361.13854,870.75044 a 14.365372,14.365372 0 1 1 14.36537,-14.36537 14.365372,14.365372 0 0 1 -14.36537,14.36537 z m 27.16325,-18.96864 -0.29762,-1.56749 -0.43652,-1.6667 -0.51589,-1.60718 -0.61509,-1.48813 -0.63493,-1.1905 -0.65478,-0.8135 -0.61509,-0.47621 -0.63493,0 -0.65478,0.19842 -0.65477,0.33731 -0.65478,0.35715 -0.67461,0.27778 -0.73415,0.11905 -0.8135,-0.15873 -0.87304,-0.57541 -0.91272,-0.85319 -0.9524,-0.97224 -0.99208,-1.01193 -1.05161,-0.93256 -1.03177,-0.89287 -0.89287,-0.87304 -0.57541,-0.79366 -0.19842,-0.79367 0,-0.75398 0.19842,-0.61509 0.31747,-0.65478 0.29762,-0.67462 0.17858,-0.65477 0,-0.63494 -0.41668,-0.61509 -0.85319,-0.59525 -1.23018,-0.57541 -1.50797,-0.53572 -1.6667,-0.45636 -1.68654,-0.35715 -1.5675,-0.19842 -1.34923,0 -1.03177,0 -0.65477,0.35715 -0.35715,0.53573 -0.13889,0.67462 0,0.73414 0,0.73414 0,0.73414 -0.25795,0.7143 -0.53572,0.61509 -0.93256,0.45636 -1.1905,0.35715 -1.30955,0.33731 -1.36908,0.35715 -1.34923,0.43652 -1.28971,0.43651 -1.1905,0.35715 -1.03177,0.11905 -0.79366,-0.21825 -0.59525,-0.45636 -0.4762,-0.55557 -0.41668,-0.61509 -0.43652,-0.59525 -0.49604,-0.4762 -0.59525,-0.25794 -0.73414,0 -0.9524,0.43651 -1.11113,0.77383 -1.21035,1.05161 -1.23018,1.21034 -1.15082,1.28971 -0.97224,1.26987 -0.7143,1.15081 -0.39683,0.97224 0,0.73415 0.29762,0.57541 0.51589,0.45635 0.61509,0.39684 0.63493,0.37699 0.57541,0.43652 0.4762,0.5754 0.25794,0.77383 0,1.03177 -0.27778,1.21034 -0.37699,1.30955 -0.377,1.36907 -0.27778,1.38892 -0.25794,1.32939 -0.29763,1.21035 -0.41667,0.9524 -0.59525,0.57541 -0.69446,0.29762 -0.7143,0.11905 -0.73414,0 -0.73414,0 -0.65478,0.17858 -0.51588,0.37699 -0.33731,0.67461 0,1.03177 0.11905,1.34924 0.29762,1.56749 0.43652,1.6667 0.53573,1.64686 0.61509,1.48812 0.63493,1.1905 0.65478,0.81351 0.63493,0.37699 0.63493,0 0.65478,-0.19841 0.65477,-0.33731 0.65478,-0.35715 0.67462,-0.27779 0.73414,-0.11905 0.81351,0.15874 0.87303,0.57541 0.91272,0.85319 0.9524,0.97224 0.99208,1.01193 1.05161,0.93255 1.03177,0.89288 0.89287,0.87303 0.63494,0.83335 0.19841,0.79367 0,0.75398 -0.25794,0.69446 -0.31746,0.65478 -0.29763,0.67462 -0.17857,0.65477 0,0.63493 0.41667,0.6151 0.85319,0.59525 1.23019,0.5754 1.50796,0.53573 1.6667,0.45636 1.68655,0.35715 1.58733,0.21826 1.34923,0 1.03177,-0.13889 0.65478,-0.35715 0.35715,-0.53573 0.13889,-0.67462 0,-0.73414 0,-0.41667 0,-0.73415 0.25794,-0.7143 0.39683,-0.53572 0.93256,-0.45636 1.1905,-0.35715 1.30955,-0.33731 1.36908,-0.35715 1.34923,-0.43652 1.28971,-0.43651 1.21034,-0.35715 1.03177,-0.11905 0.79367,0.21826 0.59525,0.45635 0.4762,0.55557 0.41667,0.61509 0.43652,0.59525 0.49604,0.4762 0.59525,0.25795 0.73414,0 0.9524,-0.43652 1.11114,-0.77383 1.21034,-1.05161 1.23018,-1.21034 1.15082,-1.28971 0.97224,-1.26986 0.7143,-1.15082 0.25795,-1.07145 0,-0.79367 -0.29763,-0.57541 -0.51588,-0.45636 -0.6151,-0.39683 -0.55556,-0.37699 -0.57541,-0.43652 -0.4762,-0.57541 -0.25794,-0.77382 0,-1.03177 0.27778,-1.21034 0.43652,-1.30955 0.37699,-1.36908 0.27778,-1.38891 0.25794,-1.3294 0.29763,-1.21034 0.41667,-0.9524 0.59526,-0.57541 0.69445,-0.29762 0.7143,-0.13889 0.73415,0 0.73414,0 0.65477,-0.17858 0.51589,-0.37699 0.33731,-0.67462 0,-1.03176 z M 286.61321,822.77327 a 23.135392,23.135392 0 1 1 23.13539,-23.13539 23.135392,23.135392 0 0 1 -23.13539,23.13539 z m 56.35035,-15.3773 -0.89287,-0.13889 -1.38892,-0.2381 -1.60717,-0.33731 -1.70639,-0.53572 -1.36907,-0.87304 -0.81351,-1.17066 -0.45636,-1.36907 0,-1.4286 0,-3.23419 0,-1.52781 0.35715,-1.40876 0.81351,-1.17066 1.44844,-0.81351 1.70638,-0.53572 1.60718,-0.33731 1.32939,-0.21826 0.87304,-0.17858 0.51588,-0.2381 0.21826,-0.41667 0,-0.69446 -0.0595,-1.13098 -0.25794,-1.38891 -0.35715,-1.64686 -0.43652,-1.76591 -0.49604,-1.74607 -0.51588,-1.60717 -0.4762,-1.3294 -0.41668,-1.01192 -0.33731,-0.59525 -0.39683,-0.25794 -0.55557,0 -0.85319,0.29762 -1.25002,0.4762 -1.54765,0.51589 -1.74607,0.37699 -1.6667,0 -1.28971,-0.61509 -1.01193,-1.03177 -0.83335,-1.26987 -0.79366,-1.28971 -0.81351,-1.34923 -0.69446,-1.28971 -0.39683,-1.40876 0.11905,-1.4286 0.85319,-1.4286 1.21034,-1.32939 1.21034,-1.09129 1.03177,-0.83336 0.67462,-0.5754 0.31746,-0.45636 0,-0.45636 -0.35715,-0.59525 -0.69446,-0.89288 -0.91271,-1.09129 -1.07145,-1.23018 -1.26987,-1.30955 -1.30955,-1.26987 -1.25003,-1.13098 -1.09129,-0.91271 -0.87303,-0.65478 -0.59525,-0.35715 -0.45636,0 -0.45636,0.31747 -0.57541,0.67462 -0.83335,1.03176 -1.09129,1.21035 -1.32939,1.21034 -1.4286,0.85319 -1.32939,0.11905 -1.40876,-0.39683 -1.36908,-0.67462 -1.34923,-0.81351 -1.36908,-0.77382 -1.26987,-0.83336 -1.17065,-1.01192 -0.6151,-1.28971 0,-1.6667 0.377,-1.74607 0.51588,-1.54765 0.4762,-1.25002 0.29762,-0.8532 0,-0.55556 -0.25794,-0.39684 -0.59525,-0.3373 -1.01192,-0.41668 -1.17066,-0.4762 -1.60718,-0.51588 -1.76591,-0.51589 -1.76591,-0.43651 -1.64685,-0.35715 -1.38892,-0.25795 -1.07145,-0.13889 -0.67462,0 -0.41667,0.21826 -0.2381,0.51588 -0.15874,0.87304 -0.21826,1.32939 -0.3373,1.60718 -0.53573,1.70638 -0.81351,1.44844 -1.17066,0.81351 -1.40876,0.35715 -1.52781,0 -3.0953,0 -1.52781,0 -1.40875,-0.35715 -1.17066,-0.81351 -0.81351,-1.44844 -0.53573,-1.70638 -0.49604,-1.60718 -0.21826,-1.32939 -0.15873,-0.87304 -0.2381,-0.51588 -0.41668,-0.21826 -0.69445,0 -1.07145,0.13889 -1.38892,0.25795 -1.64686,0.35715 -1.76591,0.43651 -1.74607,0.49605 -1.60717,0.51588 -1.3294,0.4762 -1.01192,0.41667 -0.59525,0.33731 -0.25794,0.39684 0,0.55556 0.29762,0.85319 0.4762,1.25003 0.51589,1.54765 0.37699,1.74607 0,1.6667 -0.61509,1.28971 -1.03177,1.01192 -1.26987,0.83335 -1.36907,0.77383 -1.34924,0.81351 -1.36907,0.67461 -1.40876,0.39684 -1.26987,-0.17858 -1.4286,-0.85319 -1.32939,-1.13097 -1.09129,-1.21035 -0.83335,-1.03176 -0.57541,-0.67462 -0.45636,-0.31747 -0.45636,0 -0.59525,0.35715 -0.87303,0.65478 -1.0913,0.91271 -1.25002,1.13098 -1.30955,1.26987 -1.26987,1.30955 -1.13097,1.25002 -0.91272,1.0913 -0.65478,0.87303 -0.35715,0.59525 0,0.45636 0.31747,0.45636 0.67462,0.5754 1.03176,0.83336 1.21035,1.09129 1.21034,1.32939 0.85319,1.4286 0.11905,1.4286 -0.39683,1.40876 -0.67462,1.36908 -0.81351,1.34923 -0.77382,1.36907 -0.83335,1.26987 -1.01193,1.03177 -1.28971,0.61509 -1.6667,0 -1.84527,-0.39683 -1.54766,-0.51589 -1.25002,-0.4762 -0.85319,-0.29762 -0.55557,0 -0.39683,0.25794 -0.33731,0.59525 -0.41668,1.01193 -0.4762,1.32939 -0.51588,1.60717 -0.49604,1.74607 -0.43652,1.76591 -0.35715,1.64686 -0.25794,1.38892 -0.0397,1.01192 0,0.69446 0.21825,0.41668 0.51589,0.2381 0.87303,0.17857 1.32939,0.21826 1.60718,0.33731 1.70638,0.53572 1.44845,0.81351 0.8135,1.17066 0.35715,1.40876 0,1.52781 0,3.21435 0,1.52781 -0.35715,1.40876 -0.83335,1.03176 -1.44844,0.81351 -1.70638,0.53573 -1.60718,0.33731 -1.32939,0.29762 -0.87303,0.17858 -0.51589,0.2381 -0.19841,0.35715 0,0.69445 0.13889,1.07146 0.25794,1.38891 0.35715,1.64686 0.43652,1.76591 0.49604,1.74607 0.51588,1.60717 0.4762,1.3294 0.41668,1.01192 0.33731,0.59525 0.39683,0.25794 0.55557,0 0.85319,-0.29762 1.25002,-0.4762 1.44845,-0.55557 1.74606,-0.37699 1.6667,0 1.28971,0.61509 1.01193,1.03177 0.83335,1.26987 0.77382,1.36907 0.81351,1.34923 0.67462,1.36908 0.39683,1.40876 -0.11905,1.4286 -0.85319,1.4286 -1.21034,1.32939 -1.07145,1.01193 -1.03177,0.83335 -0.67462,0.57541 -0.27778,0.57541 0,0.45635 0.35715,0.59525 0.65478,0.87304 0.91271,1.09129 1.13098,1.25003 1.26987,1.30955 1.30955,1.26986 1.25002,1.13098 1.09129,0.91272 0.87304,0.65477 0.59525,0.35715 0.45636,0 0.45635,-0.31747 0.57541,-0.67461 0.83335,-1.03177 1.0913,-1.21034 1.32939,-1.21034 1.4286,-0.8532 1.4286,-0.11905 1.40876,0.39684 1.36907,0.67461 1.34924,0.81351 1.36907,0.77383 1.26987,0.79366 1.03177,1.01193 0.61509,1.28971 0,1.6667 -0.37699,1.74607 -0.51589,1.54765 -0.4762,1.25002 -0.29762,0.8532 0,0.55556 0.25794,0.39684 0.59525,0.3373 1.01193,0.41668 1.32939,0.4762 1.60717,0.51588 1.74607,0.49604 1.76591,0.43652 1.64686,0.35715 1.38892,0.25794 1.07145,0.1389 0.69445,0 0.41668,-0.21826 0.2381,-0.51589 0.15873,-0.87303 0.21826,-1.32939 0.33731,-1.60718 0.53573,-1.70638 0.8135,-1.44844 1.17066,-0.81351 1.40876,-0.35715 1.52781,0 3.15483,0 1.52781,0 1.40875,0.35715 1.17066,0.81351 0.81351,1.44844 0.53573,1.70638 0.33731,1.60718 0.21825,1.32939 0.15874,0.87303 0.2381,0.51589 0.41667,0.21826 0.69446,0 1.07145,-0.1389 1.38892,-0.25794 1.64686,-0.35715 1.76591,-0.43652 1.74606,-0.49604 1.60718,-0.51588 1.32939,-0.4762 1.01193,-0.41668 0.59525,-0.3373 0.25794,-0.39684 0,-0.55556 -0.29763,-0.8532 -0.4762,-1.25002 -0.51588,-1.54765 -0.59525,-1.74607 0,-1.6667 0.61509,-1.28971 1.03177,-1.01193 1.26987,-0.83335 1.36907,-0.77382 1.34924,-0.81351 1.36907,-0.67462 1.40876,-0.39683 1.4286,0.11905 1.4286,0.85319 1.32939,1.21034 1.0913,1.21035 0.83335,1.03176 0.5754,0.67462 0.45636,0.31747 0.45636,0 0.59525,-0.35715 0.87304,-0.65478 1.09129,-0.91272 1.25002,-1.13097 1.30955,-1.26987 1.26987,-1.30955 1.13098,-1.25002 0.91271,-1.0913 0.65478,-0.87303 0.35715,-0.59525 0,-0.41667 -0.31747,-0.45636 -0.79367,-0.63494 -0.93255,-0.89287 -1.21035,-1.09129 -1.21034,-1.3294 -0.85319,-1.4286 -0.11905,-1.4286 0.39683,-1.40876 0.67462,-1.36907 0.81351,-1.34924 0.77382,-1.36907 0.83335,-1.26987 1.01193,-1.03177 1.28971,-0.61509 1.6667,0 1.74607,0.37699 1.54765,0.51589 1.25002,0.4762 0.85319,0.29762 0.55557,0 0.39683,-0.25794 0.33731,-0.59525 0.41668,-1.01192 0.4762,-1.3294 0.51588,-1.60717 0.49604,-1.74607 0.43652,-1.76591 0.35715,-1.64686 0.25794,-1.38891 0.13889,-1.07146 0,-0.69445 -0.21825,-0.41668 z"
       id="path3591"
       inkscape:connector-curvature="0"
       style="fill:#454545;fill-opacity:1" /></g><text
     xml:space="preserve"
     style="font-style:normal;font-weight:normal;font-size:61.97226334px;line-height:125%;font-family:sans-serif;letter-spacing:0px;word-spacing:0px;fill:#1185e9;fill-opacity:1;stroke:none;stroke-width:1px;stroke-linecap:butt;stroke-linejoin:miter;stroke-opacity:1;"
     x="719.71069"
     y="776.18829"
     id="text3493-8"
     sodipodi:linespacing="125%"><tspan
       sodipodi:role="line"
       id="tspan3495-9"
       x="719.71069"
       y="776.18829"
       style="font-style:normal;font-variant:normal;font-weight:normal;font-stretch:normal;font-family:'Operator Mono';-inkscape-font-specification:'Operator Mono';text-align:center;text-anchor:middle;fill:#1185e9;fill-opacity:1;">asciidoctor</tspan></text>
<rect
     ry="27.083494"
     y="530.49591"
     x="501.28409"
     height="287.00812"
     width="437.43185"
     id="rect3727"
     style="opacity:1;fill:none;fill-opacity:1;stroke:#ffffff;stroke-width:14;stroke-linecap:round;stroke-linejoin:round;stroke-miterlimit:4;stroke-dasharray:none;stroke-dashoffset:0;stroke-opacity:1" /><rect
     style="opacity:1;fill:none;fill-opacity:1;stroke:#454545;stroke-width:8;stroke-linecap:round;stroke-linejoin:round;stroke-miterlimit:4;stroke-dasharray:none;stroke-dashoffset:0;stroke-opacity:1"
     id="rect3725"
     width="437.43185"
     height="287.00812"
     x="501.28409"
     y="530.49591"
     ry="27.083494" /><g
     id="g3528"
     transform="matrix(1.5713188,0,0,1.5713188,130.00445,-968.20191)"><path
       style="clip-rule:evenodd;fill:#454545;fill-opacity:1;fill-rule:evenodd"
       inkscape:connector-curvature="0"
       d="m 414.51907,1235.1035 -6.881,-5.086 -0.07,0 0,-12.702 -0.004,0 -22.053,-21.58 -0.012,0.011 -42.133,0 0,34.301 -6.934,5.239 0,27.159 0,1.545 1.546,0 5.388,0 0,21.721 64.202,0 0,-21.72 5.387,0 1.547,0 0,-1.545 0,-7.414 0.017,-19.929 z m -11.318,-17.793 -17.719,-0.02 0.018,-17.282 17.701,17.302 z m -20.791,-18.472 -0.023,21.54 22.089,0.025 0,14.715 -58.019,0 0,-36.28 35.953,0 z m 22.066,83.781 -58.019,0 0,-18.628 58.019,0 0,18.628 z m 6.934,-21.722 -71.886,0 0,-22.687 71.885,0 0,22.687 z"
       id="path3395" /><text
       sodipodi:linespacing="125%"
       id="text3493"
       y="1255.8042"
       x="374.34796"
       style="font-style:normal;font-weight:normal;font-size:21.23206139px;line-height:125%;font-family:sans-serif;letter-spacing:0px;word-spacing:0px;fill:#1185e9;fill-opacity:1;stroke:none;stroke-width:1px;stroke-linecap:butt;stroke-linejoin:miter;stroke-opacity:1"
       xml:space="preserve"><tspan
         style="font-style:normal;font-variant:normal;font-weight:normal;font-stretch:normal;font-family:'Operator Mono';-inkscape-font-specification:'Operator Mono';text-align:center;text-anchor:middle;fill:#1185e9;fill-opacity:1"
         y="1255.8042"
         x="374.34796"
         id="tspan3495"
         sodipodi:role="line">ADOC</tspan></text>
</g><path
     sodipodi:nodetypes="cccccc"
     inkscape:connector-curvature="0"
     d="m 716.46779,842.75712 -13.0093,23.91478 m 14.43081,-24.34339 18.63639,19.84549 m -19.67155,26.43901 c 3.28482,-13.52084 3.44481,-25.01179 2.61501,-24.8968"
     style="fill:none;fill-rule:evenodd;stroke:#1185e9;stroke-width:5.80243587;stroke-linecap:round;stroke-linejoin:round;stroke-miterlimit:4;stroke-dasharray:none;stroke-opacity:1"
     id="path3620" /><g
     transform="matrix(1.5713188,0,0,1.5713188,-112.07175,-968.20191)"
     id="g3683"><path
       id="path3685"
       d="m 414.51907,1235.1035 -6.881,-5.086 -0.07,0 0,-12.702 -0.004,0 -22.053,-21.58 -0.012,0.011 -42.133,0 0,34.301 -6.934,5.239 0,27.159 0,1.545 1.546,0 5.388,0 0,21.721 64.202,0 0,-21.72 5.387,0 1.547,0 0,-1.545 0,-7.414 0.017,-19.929 z m -11.318,-17.793 -17.719,-0.02 0.018,-17.282 17.701,17.302 z m -20.791,-18.472 -0.023,21.54 22.089,0.025 0,14.715 -58.019,0 0,-36.28 35.953,0 z m 22.066,83.781 -58.019,0 0,-18.628 58.019,0 0,18.628 z m 6.934,-21.722 -71.886,0 0,-22.687 71.885,0 0,22.687 z"
       inkscape:connector-curvature="0"
       style="clip-rule:evenodd;fill:#454545;fill-opacity:1;fill-rule:evenodd" /><text
       xml:space="preserve"
       style="font-style:normal;font-weight:normal;font-size:21.23206139px;line-height:125%;font-family:sans-serif;letter-spacing:0px;word-spacing:0px;fill:#1185e9;fill-opacity:1;stroke:none;stroke-width:1px;stroke-linecap:butt;stroke-linejoin:miter;stroke-opacity:1"
       x="374.34796"
       y="1255.8042"
       id="text3687"
       sodipodi:linespacing="125%"><tspan
         sodipodi:role="line"
         id="tspan3689"
         x="374.34796"
         y="1255.8042"
         style="font-style:normal;font-variant:normal;font-weight:normal;font-stretch:normal;font-family:'Operator Mono';-inkscape-font-specification:'Operator Mono';text-align:center;text-anchor:middle;fill:#1185e9;fill-opacity:1">ADOC</tspan></text>
</g><path
     id="path3691"
     style="fill:none;fill-rule:evenodd;stroke:#1185e9;stroke-width:5.80243587;stroke-linecap:round;stroke-linejoin:round;stroke-miterlimit:4;stroke-dasharray:none;stroke-opacity:1"
     d="m 621.67679,977.84172 -23.91478,-13.0093 m 24.34339,14.43081 -19.84549,18.63639 M 575.8209,978.22807 c 13.52084,3.28482 25.01179,3.44481 24.8968,2.61501"
     inkscape:connector-curvature="0"
     sodipodi:nodetypes="cccccc" /><path
     sodipodi:nodetypes="cccccc"
     inkscape:connector-curvature="0"
     d="m 818.31584,984.8988 23.91478,13.0093 m -24.34339,-14.43081 19.84549,-18.63639 m 26.43901,19.67155 c -13.52084,-3.28482 -25.01179,-3.44481 -24.8968,-2.61501"
     style="fill:none;fill-rule:evenodd;stroke:#1185e9;stroke-width:5.80243587;stroke-linecap:round;stroke-linejoin:round;stroke-miterlimit:4;stroke-dasharray:none;stroke-opacity:1"
     id="path3703" /><g
     id="g3695"
     transform="matrix(1.5713188,0,0,1.5713188,372.08081,-968.20191)"><path
       style="clip-rule:evenodd;fill:#454545;fill-opacity:1;fill-rule:evenodd"
       inkscape:connector-curvature="0"
       d="m 414.51907,1235.1035 -6.881,-5.086 -0.07,0 0,-12.702 -0.004,0 -22.053,-21.58 -0.012,0.011 -42.133,0 0,34.301 -6.934,5.239 0,27.159 0,1.545 1.546,0 5.388,0 0,21.721 64.202,0 0,-21.72 5.387,0 1.547,0 0,-1.545 0,-7.414 0.017,-19.929 z m -11.318,-17.793 -17.719,-0.02 0.018,-17.282 17.701,17.302 z m -20.791,-18.472 -0.023,21.54 22.089,0.025 0,14.715 -58.019,0 0,-36.28 35.953,0 z m 22.066,83.781 -58.019,0 0,-18.628 58.019,0 0,18.628 z m 6.934,-21.722 -71.886,0 0,-22.687 71.885,0 0,22.687 z"
       id="path3697" /><text
       sodipodi:linespacing="125%"
       id="text3699"
       y="1255.8042"
       x="374.34796"
       style="font-style:normal;font-weight:normal;font-size:21.23206139px;line-height:125%;font-family:sans-serif;letter-spacing:0px;word-spacing:0px;fill:#1185e9;fill-opacity:1;stroke:none;stroke-width:1px;stroke-linecap:butt;stroke-linejoin:miter;stroke-opacity:1"
       xml:space="preserve"><tspan
         style="font-style:normal;font-variant:normal;font-weight:normal;font-stretch:normal;font-family:'Operator Mono';-inkscape-font-specification:'Operator Mono';text-align:center;text-anchor:middle;fill:#1185e9;fill-opacity:1"
         y="1255.8042"
         x="374.34796"
         id="tspan3701"
         sodipodi:role="line">JAVA</tspan></text>
</g></svg>