<?xml version="1.0" encoding="UTF-8" standalone="no"?>
<svg
   xmlns:dc="http://purl.org/dc/elements/1.1/"
   xmlns:cc="http://creativecommons.org/ns#"
   xmlns:rdf="http://www.w3.org/1999/02/22-rdf-syntax-ns#"
   xmlns:svg="http://www.w3.org/2000/svg"
   xmlns="http://www.w3.org/2000/svg"
   xmlns:sodipodi="http://sodipodi.sourceforge.net/DTD/sodipodi-0.dtd"
   xmlns:inkscape="http://www.inkscape.org/namespaces/inkscape"
   height="1080"
   width="1440"
   sodipodi:docname="asciidoctor-ast-1.svg"
   inkscape:version="0.91 r13725"
   id="svg2"
   xml:space="preserve"
   enable-background="new 0 0 100 100"
   viewBox="0 0 1440 1080"
   y="0px"
   x="0px"
   version="1.1"><sodipodi:namedview
     inkscape:current-layer="svg2"
     inkscape:window-maximized="1"
     inkscape:window-y="0"
     inkscape:window-x="0"
     inkscape:cy="517.86199"
     inkscape:cx="733.28794"
     inkscape:zoom="1.3350176"
     showgrid="false"
     id="namedview16"
     inkscape:window-height="1406"
     inkscape:window-width="2560"
     inkscape:pageshadow="2"
     inkscape:pageopacity="0"
     guidetolerance="10"
     gridtolerance="10"
     objecttolerance="10"
     borderopacity="1"
     bordercolor="#666666"
     pagecolor="#ffffff"
     showguides="false" /><metadata
     id="metadata20"><rdf:RDF><cc:Work
         rdf:about=""><dc:format>image/svg+xml</dc:format><dc:type
           rdf:resource="http://purl.org/dc/dcmitype/StillImage" /><dc:title /></cc:Work></rdf:RDF></metadata><defs
     id="defs18"><clipPath
       clipPathUnits="userSpaceOnUse"
       id="clipPath4522"><rect
         style="fill:#226699;fill-opacity:1;stroke:none"
         id="rect4524"
         width="1116.6582"
         height="588.78345"
         x="3620.6797"
         y="1153.7546" /></clipPath><radialGradient
       gradientUnits="userSpaceOnUse"
       r="78.326784"
       fy="19.524991"
       fx="106.73546"
       gradientTransform="scale(1.2320179,0.81167652)"
       cy="19.524991"
       cx="106.73546"
       id="r"><stop
         stop-color="#f06b59"
         id="stop3165" /><stop
         offset="1"
         stop-color="#df2227"
         id="stop3167" /></radialGradient><radialGradient
       gradientUnits="userSpaceOnUse"
       fy="108.80645"
       fx="122.26707"
       gradientTransform="scale(0.92838267,1.077142)"
       r="122.76932"
       cy="108.80645"
       cx="122.26707"
       id="g"><stop
         offset="0.65"
         stop-color="#4cb749"
         id="stop3170" /><stop
         offset="1"
         stop-color="#388b41"
         id="stop3172" /></radialGradient><radialGradient
       gradientUnits="userSpaceOnUse"
       fy="102.2451"
       fx="187.90098"
       gradientTransform="scale(0.86406979,1.1573139)"
       r="111.5125"
       cy="102.2451"
       cx="187.90098"
       id="y"><stop
         offset="0.6"
         stop-color="#FCD209"
         id="stop3175" /><stop
         offset="0.7"
         stop-color="#f7c616"
         id="stop3177" /><stop
         offset="1"
         stop-color="#bc821e"
         id="stop3179" /></radialGradient><radialGradient
       gradientUnits="userSpaceOnUse"
       fy="78.099998"
       fx="127.5"
       r="99"
       cy="78.099998"
       cx="127.5"
       spreadMethod="pad"
       id="cf"><stop
         offset="0.1"
         stop-color="#7FB3DF"
         id="stop3182" /><stop
         offset="0.9"
         stop-color="#0F5B94"
         id="stop3184" /></radialGradient><radialGradient
       gradientUnits="userSpaceOnUse"
       fy="78.099998"
       fx="127.5"
       id="cb"
       r="99"
       cy="78.099998"
       cx="127.5"><stop
         offset="0"
         stop-color="#F6F0EE"
         id="stop3187" /><stop
         offset="1"
         stop-color="#ddd"
         id="stop3189" /></radialGradient><clipPath
       id="clipPath3858"
       clipPathUnits="userSpaceOnUse"><path
         inkscape:connector-curvature="0"
         id="path3860"
         d="m 396.03854,-957.67135 0.32555,-1.84982 c 0.17787,-1.01669 0.93607,-3.7676 1.68701,-6.11165 0.7509,-2.34405 1.58344,-6.17974 1.86458,-8.5238 0.48888,-4.07658 1.1063,-7.91359 1.59822,-9.94441 1.24167,-5.12642 2.16342,-17.96397 2.53046,-35.27907 0.16847,-7.9437 0.34219,-15.7216 0.3848,-17.2843 0.29541,-10.7974 0.2766,-15.7022 -0.1627,-31.4907 -0.27182,-9.7669 -0.59568,-30.7567 -0.71033,-46.6441 -0.21749,-30.1434 -0.34278,-33.9341 -1.50943,-45.2235 -1.52579,-14.7652 -2.10523,-22.4822 -2.5453,-33.9915 -0.25173,-6.5837 -0.58297,-12.1766 -0.7399,-12.4306 -0.31495,-0.5097 -0.34545,-16.0836 -0.0591,-28.6346 0.1178,-5.168 0.52478,-10.0196 1.13944,-13.5404 0.81164,-4.6489 0.89225,-6.1637 0.50319,-9.9444 -0.64924,-6.3078 0.15372,-20.0747 1.19863,-20.466 0.29629,-0.111 1.71953,-0.033 3.15201,0.1776 6.90237,1.0128 12.88171,1.366 27.93909,1.6278 8.98551,0.1562 18.25513,0.432 20.59918,0.6215 2.34408,0.1897 7.13871,0.1759 10.65475,-0.029 3.51606,-0.2055 9.16307,-0.2416 12.54892,-0.089 11.20168,0.5058 35.36389,0.4125 45.22346,-0.1776 5.33925,-0.3195 13.64996,-0.7907 18.46821,-1.0506 4.81831,-0.26 11.74395,-0.9145 15.39019,-1.4503 3.64629,-0.5357 8.12132,-1.1803 9.94443,-1.4354 6.28729,-0.8798 68.53983,-1.356 93.28817,-0.7103 17.23555,0.4497 21.53664,0.4736 47.59117,0.3107 10.32801,-0.065 18.5457,0.1124 21.3095,0.444 2.59099,0.3109 14.94065,0.6163 29.12296,0.7251 13.5434,0.1039 31.23022,0.3571 39.30416,0.5623 18.56812,0.4722 23.7916,0.471 40.72478,-0.015 9.37287,-0.2688 15.31792,-0.2237 18.74941,0.1333 5.89255,0.6129 35.94236,0.7254 42.81135,0.1627 2.60448,-0.2133 10.01083,-0.3895 16.45567,-0.3848 6.44483,0.01 11.77216,-0.1418 11.83859,-0.3255 0.0665,-0.1838 0.88501,-0.1563 1.83498,0.059 0.95012,0.2157 3.72029,0.2223 6.15608,0.015 2.43586,-0.2076 6.25078,-0.5021 8.4646,-0.6512 16.01826,-1.0788 34.62009,-2.5161 45.69701,-3.5367 2.6045,-0.2401 11.66097,-0.4513 20.12557,-0.4736 8.4646,-0.022 17.5211,-0.133 20.1256,-0.2367 2.6046,-0.1039 5.8433,0.021 7.2068,0.2663 1.5326,0.2759 3.4078,0.2709 4.8982,0 1.4546,-0.2645 3.094,-0.2594 4.1436,0 0.9567,0.2364 3.2859,0.4233 5.1793,0.4143 4.079,-0.019 3.6878,-0.5729 5.727,8.0355 1.8446,7.7871 2.4984,13.9158 2.353,22.2713 -0.066,3.7676 -0.1001,17.2933 -0.074,30.0553 0.042,20.939 0.1368,23.8276 1.0211,29.5965 0.5389,3.5161 1.2044,9.2697 1.4798,12.7857 0.2755,3.5161 0.934,8.95 1.4651,12.0754 0.5309,3.1254 1.4936,8.7724 2.1309,12.5489 0.6372,3.7765 1.7912,10.2759 2.5748,14.4431 1.36,7.2318 2.8503,16.9999 4.4543,29.3598 0.7864,6.0583 1.24,10.0029 2.4714,21.3094 0.4254,3.9068 1.0792,8.7014 1.4502,10.6548 0.371,1.9533 0.9803,8.3462 1.3615,14.2063 0.3811,5.8601 0.9204,14.1708 1.1986,18.4682 0.2781,4.2974 0.5743,15.4032 0.6511,24.6835 0.076,9.2803 0.2476,17.0582 0.3847,17.2843 0.2291,0.3776 0.5161,4.2521 1.0952,14.85749 0.1208,2.21382 0.3511,7.70102 0.5179,12.19375 l 0.3108,8.16865 -4.2176,0 c -2.3216,0 -4.9798,0.23459 -5.8897,0.51796 -0.9099,0.28323 -5.052,0.57966 -9.2193,0.6659 -9.8387,0.20367 -19.0647,0.57876 -33.3849,1.37622 -6.3809,0.35534 -11.9747,0.66513 -12.4305,0.68075 -4.2692,0.1461 -9.0519,0.092 -13.5256,-0.16288 -3.12157,-0.17774 -5.59057,-0.12541 -5.91927,0.13323 -0.8238,0.64822 -2.1501,0.52322 -2.4417,-0.23678 -0.3346,-0.87194 -5.4606,-0.66348 -5.4606,0.222 0,0.32708 0.2131,0.59194 0.4736,0.59194 0.2604,0 0.4735,0.24979 0.4735,0.56232 0,0.44196 -0.1351,0.44196 -0.5771,0 -0.3126,-0.31253 -1.1117,-0.59122 -1.7758,-0.62152 -0.8026,-0.0364 -0.9207,-0.12237 -0.37,-0.26636 0.4558,-0.11915 0.8287,-0.4057 0.8287,-0.6363 1e-4,-0.23176 -5.4558,-0.44125 -12.19371,-0.45878 -6.70658,-0.0175 -15.17715,-0.0336 -18.82345,-0.0446 -3.64621,-0.0102 -10.35873,-0.008 -14.91659,0.0153 -4.55786,0.0238 -12.01618,-0.29791 -16.57404,-0.71031 -14.26197,-1.2906 -15.62695,-1.33743 -15.62695,-0.68073 0,0.45276 -0.16136,0.46317 -0.6659,0.0446 -0.72615,-0.60262 -4.61403,-0.82484 -5.44577,-0.31078 -0.28815,0.17783 -0.76999,0.1622 -1.08024,-0.0293 -0.62779,-0.38797 -0.33267,-0.37503 -18.14272,-1.15426 -7.03214,-0.30767 -14.38393,-0.63393 -16.33728,-0.72514 -11.77197,-0.54954 -29.11776,-0.5966 -29.72966,-0.0888 -0.42611,0.35361 -0.77089,0.37705 -0.9767,0.0739 -0.17548,-0.25843 -1.16316,-0.44514 -2.20495,-0.41437 -1.04176,0.0308 -4.93075,0.0992 -8.6422,0.14797 -6.36636,0.0839 -6.74799,0.14151 -6.74799,1.02111 5e-5,0.64127 -0.22836,0.84172 -0.72509,0.65111 -0.56253,-0.21588 -0.60727,-0.4293 -0.17758,-0.94708 0.468,-0.56376 -0.13915,-0.64488 -4.01034,-0.57715 -2.59403,0.0454 -4.55787,0.27044 -4.55787,0.53273 0,0.28518 -0.22636,0.28731 -0.59193,-0.0152 -0.32551,-0.26903 -1.37905,-0.64951 -2.33808,-0.82871 -1.60617,-0.30011 -1.71924,-0.23472 -1.47983,0.68068 0.14288,0.54657 0.0398,0.9915 -0.222,0.9915 -0.26186,0 -0.45033,-0.37291 -0.41435,-0.8287 0.0608,-0.76708 -0.86633,-0.84419 -12.46012,-0.96186 -11.04661,-0.11221 -12.57652,-0.0431 -12.94846,0.6215 -0.38541,0.68866 -0.49216,0.69301 -1.25786,0 -0.66519,-0.60199 -1.10767,-0.64621 -2.14579,-0.25156 -0.77433,0.2944 -1.5185,0.32356 -1.83497,0.0739 -0.29388,-0.23185 -3.28099,-0.44419 -6.62962,-0.47354 -5.40408,-0.0475 -6.02167,0.0255 -5.49013,0.66593 0.42122,0.50755 0.45603,0.86095 0.10356,1.21347 -0.35252,0.35245 -0.59179,0.21128 -0.81389,-0.48833 -0.19116,-0.60244 -0.72077,-0.99733 -1.34662,-1.00628 -11.20699,-0.16406 -40.04265,0.39116 -40.68041,0.78427 -0.18379,0.1134 -0.19369,0.54919 -0.0293,0.9767 0.22433,0.58459 0.0929,0.70221 -0.50314,0.47354 -0.51928,-0.19925 -0.78432,-0.056 -0.78432,0.39953 0,0.38254 -0.21305,0.69554 -0.47354,0.69554 -0.6623,0 -0.59098,-1.11695 0.11829,-1.84975 0.48256,-0.49832 -0.0208,-0.55517 -2.72288,-0.32562 -4.76598,0.40499 -22.8807,1.61711 -24.97944,1.67223 -2.74665,0.0722 -3.17559,0.0715 -7.22154,-0.14795 -4.03925,-0.21906 -8.38722,0.0946 -8.07979,0.59192 0.10219,0.16541 -0.5999,0.21972 -1.55385,0.1183 -1.84526,-0.19603 -10.73794,-0.0835 -15.46419,0.19235 -1.5627,0.0912 -5.93114,0.29189 -9.70766,0.45877 -3.77652,0.16694 -7.03161,0.46965 -7.23632,0.6659 -0.20471,0.19605 -1.37291,0.21429 -2.58971,0.0299 -2.22855,-0.33821 -10.11833,-0.19979 -16.69244,0.29597 -1.95337,0.14745 -5.33283,0.23451 -7.5027,0.19236 -3.14095,-0.0608 -4.12271,0.0917 -4.839,0.7399 -0.74024,0.66987 -1.029,0.70416 -1.62785,0.20718 -0.54122,-0.44921 -1.85469,-0.52393 -5.10537,-0.28119 -4.35652,0.32543 -5.06787,0.34 -7.08839,0.20723 -0.93866,-0.0617 -3.85739,0.0741 -17.63952,0.81386 -1.82313,0.0978 -9.92069,0.284 -17.99467,0.39953 -17.66358,0.25279 -27.67194,0.63664 -30.5436,1.1987 -2.31785,0.45366 -21.43516,0.3027 -22.21214,-0.17758 -0.43652,-0.26974 -7.88063,-0.0589 -14.25074,0.41434 -1.43243,0.10644 -6.33367,0.32462 -10.89152,0.47354 -4.55788,0.14898 -11.07114,0.37823 -14.47264,0.51792 -3.40158,0.13982 -12.45812,0.34376 -20.12564,0.444 -8.90201,0.11626 -16.25067,0.46536 -20.33285,0.96187 -3.51603,0.42766 -10.01546,0.94755 -14.4431,1.16907 -4.76029,0.23815 -9.11458,0.72282 -10.65474,1.16905 -1.43243,0.41507 -3.33455,0.88378 -4.21749,1.05066 l -1.59819,0.31078 z"
         style="fill:#992222;fill-opacity:1" /></clipPath><clipPath
       id="clipPath4522-1"
       clipPathUnits="userSpaceOnUse"><rect
         y="1153.7546"
         x="3620.6797"
         height="588.78345"
         width="1116.6582"
         id="rect4524-7"
         style="fill:#226699;fill-opacity:1;stroke:none" /></clipPath><clipPath
       id="clipPath4522-2"
       clipPathUnits="userSpaceOnUse"><rect
         y="1153.7546"
         x="3620.6797"
         height="588.78345"
         width="1116.6582"
         id="rect4524-0"
         style="fill:#226699;fill-opacity:1;stroke:none" /></clipPath><clipPath
       id="clipPath4522-6"
       clipPathUnits="userSpaceOnUse"><rect
         y="1153.7546"
         x="3620.6797"
         height="588.78345"
         width="1116.6582"
         id="rect4524-4"
         style="fill:#226699;fill-opacity:1;stroke:none" /></clipPath><clipPath
       id="clipPath3858-6"
       clipPathUnits="userSpaceOnUse"><path
         inkscape:connector-curvature="0"
         id="path3860-6"
         d="m 396.03854,-957.67135 0.32555,-1.84982 c 0.17787,-1.01669 0.93607,-3.7676 1.68701,-6.11165 0.7509,-2.34405 1.58344,-6.17974 1.86458,-8.5238 0.48888,-4.07658 1.1063,-7.91359 1.59822,-9.94441 1.24167,-5.12642 2.16342,-17.96397 2.53046,-35.27907 0.16847,-7.9437 0.34219,-15.7216 0.3848,-17.2843 0.29541,-10.7974 0.2766,-15.7022 -0.1627,-31.4907 -0.27182,-9.7669 -0.59568,-30.7567 -0.71033,-46.6441 -0.21749,-30.1434 -0.34278,-33.9341 -1.50943,-45.2235 -1.52579,-14.7652 -2.10523,-22.4822 -2.5453,-33.9915 -0.25173,-6.5837 -0.58297,-12.1766 -0.7399,-12.4306 -0.31495,-0.5097 -0.34545,-16.0836 -0.0591,-28.6346 0.1178,-5.168 0.52478,-10.0196 1.13944,-13.5404 0.81164,-4.6489 0.89225,-6.1637 0.50319,-9.9444 -0.64924,-6.3078 0.15372,-20.0747 1.19863,-20.466 0.29629,-0.111 1.71953,-0.033 3.15201,0.1776 6.90237,1.0128 12.88171,1.366 27.93909,1.6278 8.98551,0.1562 18.25513,0.432 20.59918,0.6215 2.34408,0.1897 7.13871,0.1759 10.65475,-0.029 3.51606,-0.2055 9.16307,-0.2416 12.54892,-0.089 11.20168,0.5058 35.36389,0.4125 45.22346,-0.1776 5.33925,-0.3195 13.64996,-0.7907 18.46821,-1.0506 4.81831,-0.26 11.74395,-0.9145 15.39019,-1.4503 3.64629,-0.5357 8.12132,-1.1803 9.94443,-1.4354 6.28729,-0.8798 68.53983,-1.356 93.28817,-0.7103 17.23555,0.4497 21.53664,0.4736 47.59117,0.3107 10.32801,-0.065 18.5457,0.1124 21.3095,0.444 2.59099,0.3109 14.94065,0.6163 29.12296,0.7251 13.5434,0.1039 31.23022,0.3571 39.30416,0.5623 18.56812,0.4722 23.7916,0.471 40.72478,-0.015 9.37287,-0.2688 15.31792,-0.2237 18.74941,0.1333 5.89255,0.6129 35.94236,0.7254 42.81135,0.1627 2.60448,-0.2133 10.01083,-0.3895 16.45567,-0.3848 6.44483,0.01 11.77216,-0.1418 11.83859,-0.3255 0.0665,-0.1838 0.88501,-0.1563 1.83498,0.059 0.95012,0.2157 3.72029,0.2223 6.15608,0.015 2.43586,-0.2076 6.25078,-0.5021 8.4646,-0.6512 16.01826,-1.0788 34.62009,-2.5161 45.69701,-3.5367 2.6045,-0.2401 11.66097,-0.4513 20.12557,-0.4736 8.4646,-0.022 17.5211,-0.133 20.1256,-0.2367 2.6046,-0.1039 5.8433,0.021 7.2068,0.2663 1.5326,0.2759 3.4078,0.2709 4.8982,0 1.4546,-0.2645 3.094,-0.2594 4.1436,0 0.9567,0.2364 3.2859,0.4233 5.1793,0.4143 4.079,-0.019 3.6878,-0.5729 5.727,8.0355 1.8446,7.7871 2.4984,13.9158 2.353,22.2713 -0.066,3.7676 -0.1001,17.2933 -0.074,30.0553 0.042,20.939 0.1368,23.8276 1.0211,29.5965 0.5389,3.5161 1.2044,9.2697 1.4798,12.7857 0.2755,3.5161 0.934,8.95 1.4651,12.0754 0.5309,3.1254 1.4936,8.7724 2.1309,12.5489 0.6372,3.7765 1.7912,10.2759 2.5748,14.4431 1.36,7.2318 2.8503,16.9999 4.4543,29.3598 0.7864,6.0583 1.24,10.0029 2.4714,21.3094 0.4254,3.9068 1.0792,8.7014 1.4502,10.6548 0.371,1.9533 0.9803,8.3462 1.3615,14.2063 0.3811,5.8601 0.9204,14.1708 1.1986,18.4682 0.2781,4.2974 0.5743,15.4032 0.6511,24.6835 0.076,9.2803 0.2476,17.0582 0.3847,17.2843 0.2291,0.3776 0.5161,4.2521 1.0952,14.85749 0.1208,2.21382 0.3511,7.70102 0.5179,12.19375 l 0.3108,8.16865 -4.2176,0 c -2.3216,0 -4.9798,0.23459 -5.8897,0.51796 -0.9099,0.28323 -5.052,0.57966 -9.2193,0.6659 -9.8387,0.20367 -19.0647,0.57876 -33.3849,1.37622 -6.3809,0.35534 -11.9747,0.66513 -12.4305,0.68075 -4.2692,0.1461 -9.0519,0.092 -13.5256,-0.16288 -3.12157,-0.17774 -5.59057,-0.12541 -5.91927,0.13323 -0.8238,0.64822 -2.1501,0.52322 -2.4417,-0.23678 -0.3346,-0.87194 -5.4606,-0.66348 -5.4606,0.222 0,0.32708 0.2131,0.59194 0.4736,0.59194 0.2604,0 0.4735,0.24979 0.4735,0.56232 0,0.44196 -0.1351,0.44196 -0.5771,0 -0.3126,-0.31253 -1.1117,-0.59122 -1.7758,-0.62152 -0.8026,-0.0364 -0.9207,-0.12237 -0.37,-0.26636 0.4558,-0.11915 0.8287,-0.4057 0.8287,-0.6363 1e-4,-0.23176 -5.4558,-0.44125 -12.19371,-0.45878 -6.70658,-0.0175 -15.17715,-0.0336 -18.82345,-0.0446 -3.64621,-0.0102 -10.35873,-0.008 -14.91659,0.0153 -4.55786,0.0238 -12.01618,-0.29791 -16.57404,-0.71031 -14.26197,-1.2906 -15.62695,-1.33743 -15.62695,-0.68073 0,0.45276 -0.16136,0.46317 -0.6659,0.0446 -0.72615,-0.60262 -4.61403,-0.82484 -5.44577,-0.31078 -0.28815,0.17783 -0.76999,0.1622 -1.08024,-0.0293 -0.62779,-0.38797 -0.33267,-0.37503 -18.14272,-1.15426 -7.03214,-0.30767 -14.38393,-0.63393 -16.33728,-0.72514 -11.77197,-0.54954 -29.11776,-0.5966 -29.72966,-0.0888 -0.42611,0.35361 -0.77089,0.37705 -0.9767,0.0739 -0.17548,-0.25843 -1.16316,-0.44514 -2.20495,-0.41437 -1.04176,0.0308 -4.93075,0.0992 -8.6422,0.14797 -6.36636,0.0839 -6.74799,0.14151 -6.74799,1.02111 5e-5,0.64127 -0.22836,0.84172 -0.72509,0.65111 -0.56253,-0.21588 -0.60727,-0.4293 -0.17758,-0.94708 0.468,-0.56376 -0.13915,-0.64488 -4.01034,-0.57715 -2.59403,0.0454 -4.55787,0.27044 -4.55787,0.53273 0,0.28518 -0.22636,0.28731 -0.59193,-0.0152 -0.32551,-0.26903 -1.37905,-0.64951 -2.33808,-0.82871 -1.60617,-0.30011 -1.71924,-0.23472 -1.47983,0.68068 0.14288,0.54657 0.0398,0.9915 -0.222,0.9915 -0.26186,0 -0.45033,-0.37291 -0.41435,-0.8287 0.0608,-0.76708 -0.86633,-0.84419 -12.46012,-0.96186 -11.04661,-0.11221 -12.57652,-0.0431 -12.94846,0.6215 -0.38541,0.68866 -0.49216,0.69301 -1.25786,0 -0.66519,-0.60199 -1.10767,-0.64621 -2.14579,-0.25156 -0.77433,0.2944 -1.5185,0.32356 -1.83497,0.0739 -0.29388,-0.23185 -3.28099,-0.44419 -6.62962,-0.47354 -5.40408,-0.0475 -6.02167,0.0255 -5.49013,0.66593 0.42122,0.50755 0.45603,0.86095 0.10356,1.21347 -0.35252,0.35245 -0.59179,0.21128 -0.81389,-0.48833 -0.19116,-0.60244 -0.72077,-0.99733 -1.34662,-1.00628 -11.20699,-0.16406 -40.04265,0.39116 -40.68041,0.78427 -0.18379,0.1134 -0.19369,0.54919 -0.0293,0.9767 0.22433,0.58459 0.0929,0.70221 -0.50314,0.47354 -0.51928,-0.19925 -0.78432,-0.056 -0.78432,0.39953 0,0.38254 -0.21305,0.69554 -0.47354,0.69554 -0.6623,0 -0.59098,-1.11695 0.11829,-1.84975 0.48256,-0.49832 -0.0208,-0.55517 -2.72288,-0.32562 -4.76598,0.40499 -22.8807,1.61711 -24.97944,1.67223 -2.74665,0.0722 -3.17559,0.0715 -7.22154,-0.14795 -4.03925,-0.21906 -8.38722,0.0946 -8.07979,0.59192 0.10219,0.16541 -0.5999,0.21972 -1.55385,0.1183 -1.84526,-0.19603 -10.73794,-0.0835 -15.46419,0.19235 -1.5627,0.0912 -5.93114,0.29189 -9.70766,0.45877 -3.77652,0.16694 -7.03161,0.46965 -7.23632,0.6659 -0.20471,0.19605 -1.37291,0.21429 -2.58971,0.0299 -2.22855,-0.33821 -10.11833,-0.19979 -16.69244,0.29597 -1.95337,0.14745 -5.33283,0.23451 -7.5027,0.19236 -3.14095,-0.0608 -4.12271,0.0917 -4.839,0.7399 -0.74024,0.66987 -1.029,0.70416 -1.62785,0.20718 -0.54122,-0.44921 -1.85469,-0.52393 -5.10537,-0.28119 -4.35652,0.32543 -5.06787,0.34 -7.08839,0.20723 -0.93866,-0.0617 -3.85739,0.0741 -17.63952,0.81386 -1.82313,0.0978 -9.92069,0.284 -17.99467,0.39953 -17.66358,0.25279 -27.67194,0.63664 -30.5436,1.1987 -2.31785,0.45366 -21.43516,0.3027 -22.21214,-0.17758 -0.43652,-0.26974 -7.88063,-0.0589 -14.25074,0.41434 -1.43243,0.10644 -6.33367,0.32462 -10.89152,0.47354 -4.55788,0.14898 -11.07114,0.37823 -14.47264,0.51792 -3.40158,0.13982 -12.45812,0.34376 -20.12564,0.444 -8.90201,0.11626 -16.25067,0.46536 -20.33285,0.96187 -3.51603,0.42766 -10.01546,0.94755 -14.4431,1.16907 -4.76029,0.23815 -9.11458,0.72282 -10.65474,1.16905 -1.43243,0.41507 -3.33455,0.88378 -4.21749,1.05066 l -1.59819,0.31078 z"
         style="fill:#992222;fill-opacity:1" /></clipPath><clipPath
       id="clipPath4522-8"
       clipPathUnits="userSpaceOnUse"><rect
         y="1153.7546"
         x="3620.6797"
         height="588.78345"
         width="1116.6582"
         id="rect4524-8"
         style="fill:#226699;fill-opacity:1;stroke:none" /></clipPath><filter
       id="filter3207"
       inkscape:label="Roughen"
       style="color-interpolation-filters:sRGB;"><feTurbulence
         id="feTurbulence3209"
         result="turbulence"
         baseFrequency="0.013 0.013"
         seed="1"
         numOctaves="5"
         type="fractalNoise" /><feDisplacementMap
         id="feDisplacementMap3211"
         xChannelSelector="R"
         yChannelSelector="G"
         scale="6.6"
         in2="turbulence"
         in="SourceGraphic" /></filter><filter
       id="filter3261"
       inkscape:label="Roughen"
       style="color-interpolation-filters:sRGB;"><feTurbulence
         id="feTurbulence3263"
         result="turbulence"
         baseFrequency="0.013 0.013"
         seed="1"
         numOctaves="5"
         type="fractalNoise" /><feDisplacementMap
         id="feDisplacementMap3265"
         xChannelSelector="R"
         yChannelSelector="G"
         scale="6.6"
         in2="turbulence"
         in="SourceGraphic" /></filter></defs><path
     id="path3249"
     style="fill:none;fill-rule:evenodd;stroke:#1185e9;stroke-width:8;stroke-linecap:round;stroke-linejoin:round;stroke-miterlimit:4;stroke-dasharray:none;stroke-opacity:1"
     d="m 717.59535,230.3677 -21.88845,40.2372 m 24.28017,-40.95835 31.35619,33.39052 m -27.9757,270.36971 c 0,0 -2.74884,-26.78968 -6.48824,-46.43396 -4.8166,-25.30288 1.18388,-37.23432 0.44505,-62.87609 -0.73883,-25.64176 -14.16356,-42.83513 0.92103,-77.23776 18.04984,-41.16539 5.79597,-81.42057 4.3998,-81.22709"
     inkscape:connector-curvature="0"
     sodipodi:nodetypes="cccccsssc" /><path
     sodipodi:nodetypes="cccccsssc"
     inkscape:connector-curvature="0"
     d="m 930.72915,286.19007 -39.07457,23.90222 m 41.50642,-23.3309 10.46001,44.59515 M 784.20846,551.51571 c 0,0 11.01429,-24.57495 17.59802,-43.45711 8.48013,-24.32123 19.64242,-31.65393 31.82347,-54.22977 12.18103,-22.57581 9.15155,-44.17808 39.4165,-66.42934 36.21432,-26.62536 45.72977,-67.61429 44.42389,-68.14482"
     style="fill:none;fill-rule:evenodd;stroke:#1185e9;stroke-width:8;stroke-linecap:round;stroke-linejoin:round;stroke-miterlimit:4;stroke-dasharray:none;stroke-opacity:1"
     id="path3338" /><path
     id="path3346"
     style="fill:none;fill-rule:evenodd;stroke:#1185e9;stroke-width:8;stroke-linecap:round;stroke-linejoin:round;stroke-miterlimit:4;stroke-dasharray:none;stroke-opacity:1"
     d="m 1087.2924,439.1142 -45.7908,1.16263 m 47.611,0.54808 -13.2388,43.85052 M 827.73882,595.63262 c 0,0 21.82613,-15.7754 36.96889,-28.83597 19.50462,-16.82274 32.83779,-17.59187 54.67482,-31.05261 21.83698,-13.46073 30.0145,-33.68356 67.35039,-37.82126 44.67518,-4.95106 73.41028,-35.69081 72.54468,-36.80319"
     inkscape:connector-curvature="0"
     sodipodi:nodetypes="cccccsssc" /><path
     sodipodi:nodetypes="cccccsssc"
     inkscape:connector-curvature="0"
     d="m 350.65251,439.1142 45.79067,1.16263 m -47.61105,0.54808 13.23893,43.85052 m 248.1349,110.95719 c 0,0 -21.82613,-15.7754 -36.96888,-28.83597 -19.50463,-16.82274 -32.8378,-17.59187 -54.67482,-31.05261 -21.83699,-13.46073 -30.01452,-33.68356 -67.35036,-37.82126 -44.6752,-4.95106 -73.41028,-35.69081 -72.54464,-36.80319"
     style="fill:none;fill-rule:evenodd;stroke:#1185e9;stroke-width:8;stroke-linecap:round;stroke-linejoin:round;stroke-miterlimit:4;stroke-dasharray:none;stroke-opacity:1"
     id="path3354" /><path
     id="path3362"
     style="fill:none;fill-rule:evenodd;stroke:#1185e9;stroke-width:8;stroke-linecap:round;stroke-linejoin:round;stroke-miterlimit:4;stroke-dasharray:none;stroke-opacity:1"
     d="m 516.57168,286.19007 39.07456,23.90222 m -41.50643,-23.3309 -10.46,44.59515 m 159.41255,220.15917 c 0,0 -11.0143,-24.57495 -17.59802,-43.45711 -8.48014,-24.32123 -19.64243,-31.65393 -31.82347,-54.22977 -12.18103,-22.57581 -9.15156,-44.17808 -39.41651,-66.42934 -36.21431,-26.62536 -45.72976,-67.61429 -44.42389,-68.14482"
     inkscape:connector-curvature="0"
     sodipodi:nodetypes="cccccsssc" /><path
     inkscape:connector-curvature="0"
     d="m 301.33847,396.43645 -2.56114,0 0,-61.84218 2.56114,0 c 3.79921,0 6.88785,-3.09009 6.88785,-6.88785 0,-3.79775 -3.09009,-6.88786 -6.88785,-6.88786 l -54.55221,0 0,-4.9277 c 0,-1.19482 -0.96854,-2.16193 -2.16191,-2.16193 -1.19482,0 -2.16192,0.96711 -2.16192,2.16193 l 0,4.92627 -54.5522,0 c -3.79776,0 -6.88785,3.0901 -6.88785,6.88785 0,3.79776 3.09009,6.88784 6.88785,6.88784 l 2.56402,0 0,61.84218 -2.56402,0 c -3.79776,0 -6.88785,3.0901 -6.88785,6.88787 0,3.79774 3.09009,6.88783 6.88785,6.88783 l 51.17099,0 -38.45463,35.38038 c -0.87919,0.80856 -0.93539,2.17633 -0.12683,3.05407 0.42661,0.46264 1.00744,0.69758 1.59116,0.69758 0.52318,0 1.0478,-0.1888 1.46289,-0.57074 l 38.90862,-35.79548 0,34.20431 c 0,1.19337 0.9671,2.16191 2.16192,2.16191 1.19337,0 2.16191,-0.96854 2.16191,-2.16191 l 0,-34.20431 38.90863,35.79548 c 0.41508,0.38339 0.93971,0.57074 1.46433,0.57074 0.58228,0 1.16599,-0.23494 1.59119,-0.69758 0.80997,-0.87774 0.75088,-2.24694 -0.12685,-3.05407 l -38.45607,-35.37894 51.17098,0 c 3.79921,0 6.88785,-3.09009 6.88785,-6.88785 0,-3.79776 -3.09009,-6.88784 -6.88785,-6.88784 z m -113.42824,-66.166 c -1.4139,0 -2.56403,-1.15014 -2.56403,-2.56403 0,-1.41389 1.15013,-2.56403 2.56403,-2.56403 l 113.42824,0 c 1.4139,0 2.56404,1.15014 2.56404,2.56403 0,1.41389 -1.15014,2.56403 -2.56404,2.56403 z m 106.54184,4.32382 0,61.84218 -99.65257,0 0,-61.84218 z m 6.8864,71.29405 -113.42824,0 c -1.4139,0 -2.56403,-1.15014 -2.56403,-2.56403 0,-1.41387 1.15013,-2.56403 2.56403,-2.56403 l 113.42824,0 c 1.4139,0 2.56404,1.15016 2.56404,2.56403 0,1.41389 -1.15014,2.56403 -2.56404,2.56403 z"
     id="path3419"
     sodipodi:nodetypes="sccssscssscsssccssscccsccsssccscccsssssssssscccccsssssss"
     style="fill:#454545;fill-opacity:1" /><g
     id="g3533"
     transform="matrix(1.441274,0,0,1.441274,-95.622972,-1607.6024)"><path
       id="path3535"
       d="m 414.51907,1235.1035 -6.881,-5.086 -0.07,0 0,-12.702 -0.004,0 -22.053,-21.58 -0.012,0.011 -42.133,0 0,34.301 -6.934,5.239 0,27.159 0,1.545 1.546,0 5.388,0 0,21.721 64.202,0 0,-21.72 5.387,0 1.547,0 0,-1.545 0,-7.414 0.017,-19.929 z m -11.318,-17.793 -17.719,-0.02 0.018,-17.282 17.701,17.302 z m -20.791,-18.472 -0.023,21.54 22.089,0.025 0,14.715 -58.019,0 0,-36.28 35.953,0 z m 22.066,83.781 -58.019,0 0,-18.628 58.019,0 0,18.628 z m 6.934,-21.722 -71.886,0 0,-22.687 71.885,0 0,22.687 z"
       inkscape:connector-curvature="0"
       style="clip-rule:evenodd;fill:#454545;fill-opacity:1;fill-rule:evenodd" /><text
       xml:space="preserve"
       style="font-style:normal;font-weight:normal;font-size:21.23206139px;line-height:125%;font-family:sans-serif;letter-spacing:0px;word-spacing:0px;fill:#1185e9;fill-opacity:1;stroke:none;stroke-width:1px;stroke-linecap:butt;stroke-linejoin:miter;stroke-opacity:1"
       x="374.96368"
       y="1255.8042"
       id="text3537"
       sodipodi:linespacing="125%"><tspan
         sodipodi:role="line"
         id="tspan3539"
         x="374.96368"
         y="1255.8042"
         style="font-style:normal;font-variant:normal;font-weight:normal;font-stretch:normal;font-family:'Operator Mono';-inkscape-font-specification:'Operator Mono';text-align:center;text-anchor:middle;fill:#1185e9;fill-opacity:1">EPUB</tspan></text>
</g><g
     transform="matrix(1.441274,0,0,1.441274,654.20504,-1406.6865)"
     id="g3541"><path
       style="clip-rule:evenodd;fill:#454545;fill-opacity:1;fill-rule:evenodd"
       inkscape:connector-curvature="0"
       d="m 414.51907,1235.1035 -6.881,-5.086 -0.07,0 0,-12.702 -0.004,0 -22.053,-21.58 -0.012,0.011 -42.133,0 0,34.301 -6.934,5.239 0,27.159 0,1.545 1.546,0 5.388,0 0,21.721 64.202,0 0,-21.72 5.387,0 1.547,0 0,-1.545 0,-7.414 0.017,-19.929 z m -11.318,-17.793 -17.719,-0.02 0.018,-17.282 17.701,17.302 z m -20.791,-18.472 -0.023,21.54 22.089,0.025 0,14.715 -58.019,0 0,-36.28 35.953,0 z m 22.066,83.781 -58.019,0 0,-18.628 58.019,0 0,18.628 z m 6.934,-21.722 -71.886,0 0,-22.687 71.885,0 0,22.687 z"
       id="path3543" /><text
       sodipodi:linespacing="125%"
       id="text3545"
       y="1254.2932"
       x="375.09094"
       style="font-style:normal;font-weight:normal;font-size:16.35787964px;line-height:125%;font-family:sans-serif;letter-spacing:0px;word-spacing:0px;fill:#1185e9;fill-opacity:1;stroke:none;stroke-width:1px;stroke-linecap:butt;stroke-linejoin:miter;stroke-opacity:1"
       xml:space="preserve"><tspan
         style="font-style:normal;font-variant:normal;font-weight:normal;font-stretch:normal;font-family:'Operator Mono';-inkscape-font-specification:'Operator Mono';text-align:center;text-anchor:middle;fill:#1185e9;fill-opacity:1"
         y="1254.2932"
         x="375.09094"
         id="tspan3547"
         sodipodi:role="line">DOCBOOK</tspan></text>
</g><g
     transform="matrix(1.441274,0,0,1.441274,453.28923,-1607.6024)"
     id="g3549"><path
       style="clip-rule:evenodd;fill:#454545;fill-opacity:1;fill-rule:evenodd"
       inkscape:connector-curvature="0"
       d="m 414.51907,1235.1035 -6.881,-5.086 -0.07,0 0,-12.702 -0.004,0 -22.053,-21.58 -0.012,0.011 -42.133,0 0,34.301 -6.934,5.239 0,27.159 0,1.545 1.546,0 5.388,0 0,21.721 64.202,0 0,-21.72 5.387,0 1.547,0 0,-1.545 0,-7.414 0.017,-19.929 z m -11.318,-17.793 -17.719,-0.02 0.018,-17.282 17.701,17.302 z m -20.791,-18.472 -0.023,21.54 22.089,0.025 0,14.715 -58.019,0 0,-36.28 35.953,0 z m 22.066,83.781 -58.019,0 0,-18.628 58.019,0 0,18.628 z m 6.934,-21.722 -71.886,0 0,-22.687 71.885,0 0,22.687 z"
       id="path3551" /><text
       sodipodi:linespacing="125%"
       id="text3553"
       y="1255.8042"
       x="374.96368"
       style="font-style:normal;font-weight:normal;font-size:21.23206139px;line-height:125%;font-family:sans-serif;letter-spacing:0px;word-spacing:0px;fill:#1185e9;fill-opacity:1;stroke:none;stroke-width:1px;stroke-linecap:butt;stroke-linejoin:miter;stroke-opacity:1"
       xml:space="preserve"><tspan
         style="font-style:normal;font-variant:normal;font-weight:normal;font-stretch:normal;font-family:'Operator Mono';-inkscape-font-specification:'Operator Mono';text-align:center;text-anchor:middle;fill:#1185e9;fill-opacity:1"
         y="1255.8042"
         x="374.96368"
         id="tspan3555"
         sodipodi:role="line">HTML</tspan></text>
</g><g
     id="g3580"
     transform="matrix(1.441274,0,0,1.441274,-66.977339,-1681.1426)"><path
       style="fill:#1185e9;fill-opacity:1"
       id="path3442"
       d="m 539.58661,1219.294 c -0.9409,-1.0489 -1.87028,-2.221 -2.70714,-3.2753 -0.39467,-0.4983 -0.77232,-0.9734 -1.12548,-1.4052 l -0.026,-0.031 c 0.51722,-1.4731 0.81284,-2.6786 0.87887,-3.5841 0.16756,-2.3064 -0.09,-3.7921 -0.78683,-4.5408 -0.47071,-0.5068 -1.1775,-0.6834 -1.84228,-0.4598 -0.4762,0.1596 -1.12097,0.5873 -1.48962,1.7167 -0.54923,1.6838 -0.28312,4.6655 1.27854,7.1316 -0.6968,1.8248 -1.66821,3.9215 -2.74116,5.918 -2.04335,0.7163 -3.67204,1.6581 -4.84104,2.8006 -1.52713,1.4907 -2.14789,2.9702 -1.7037,4.0587 0.27361,0.6743 0.90638,1.0764 1.69221,1.0764 0.54723,0 1.13898,-0.1976 1.71171,-0.5706 1.44611,-0.9454 3.3344,-4.0952 4.34733,-5.9206 2.09538,-0.6542 4.16425,-0.9219 5.21569,-1.0234 0.4757,-0.045 0.9479,-0.082 1.40259,-0.1086 1.84027,1.9433 3.34541,2.9682 4.73199,3.2238 0.27912,0.053 0.55823,0.078 0.83084,0.078 1.12998,0 2.06387,-0.4508 2.49956,-1.2055 0.32863,-0.5703 0.32213,-1.2355 -0.0185,-1.8257 -0.76933,-1.3321 -3.0913,-2.0655 -6.53825,-2.0655 -0.24811,6e-4 -0.50421,0.012 -0.76933,0.012 z m -12.66132,7.3692 c -0.27361,0.1785 -0.55473,0.285 -0.75281,0.285 -0.0375,0 -0.063,-0.012 -0.0775,-0.012 -0.0345,-0.1745 0.0895,-0.9294 1.31253,-2.1244 0.57426,-0.5612 1.30056,-1.0735 2.16041,-1.5267 -1.08495,1.7458 -2.06136,2.9938 -2.6426,3.3735 z m 7.22654,-18.4054 c 0.12755,-0.3906 0.28562,-0.5672 0.38416,-0.6002 0.002,-5e-4 0.004,0 0.006,0 0.0951,0.1074 0.4992,0.7188 0.31812,3.2169 -0.0315,0.4357 -0.13754,0.9864 -0.31613,1.6407 -0.58424,-1.5047 -0.74481,-3.1764 -0.39266,-4.2553 z m 3.12681,11.1853 c -0.9314,0.09 -2.34999,0.2741 -3.93265,0.6488 0.61376,-1.2255 1.18199,-2.4676 1.65669,-3.6185 0.16458,0.2061 0.33314,0.4176 0.50422,0.6342 0.57273,0.7219 1.21601,1.5331 1.88279,2.3255 l -0.11105,0.012 z m 8.09789,2.7802 c 0.026,0.045 0.0256,0.063 0.019,0.075 -0.0736,0.1276 -0.40616,0.3302 -0.98491,0.3302 -0.16156,0 -0.33364,-0.017 -0.51121,-0.049 -0.72231,-0.1335 -1.56466,-0.6327 -2.56858,-1.5231 2.72414,0.1302 3.82511,0.7869 4.04569,1.1676 z"
       inkscape:connector-curvature="0" /><g
       transform="translate(170.55085,0)"
       id="g3557"><path
         style="clip-rule:evenodd;fill:#454545;fill-opacity:1;fill-rule:evenodd"
         inkscape:connector-curvature="0"
         d="m 414.51907,1235.1035 -6.881,-5.086 -0.07,0 0,-12.702 -0.004,0 -22.053,-21.58 -0.012,0.011 -42.133,0 0,34.301 -6.934,5.239 0,27.159 0,1.545 1.546,0 5.388,0 0,21.721 64.202,0 0,-21.72 5.387,0 1.547,0 0,-1.545 0,-7.414 0.017,-19.929 z m -11.318,-17.793 -17.719,-0.02 0.018,-17.282 17.701,17.302 z m -20.791,-18.472 -0.023,21.54 22.089,0.025 0,14.715 -58.019,0 0,-36.28 35.953,0 z m 22.066,83.781 -58.019,0 0,-18.628 58.019,0 0,18.628 z m 6.934,-21.722 -71.886,0 0,-22.687 71.885,0 0,22.687 z"
         id="path3559" /><text
         sodipodi:linespacing="125%"
         id="text3561"
         y="1255.8042"
         x="374.34796"
         style="font-style:normal;font-weight:normal;font-size:21.23206139px;line-height:125%;font-family:sans-serif;letter-spacing:0px;word-spacing:0px;fill:#1185e9;fill-opacity:1;stroke:none;stroke-width:1px;stroke-linecap:butt;stroke-linejoin:miter;stroke-opacity:1"
         xml:space="preserve"><tspan
           style="font-style:normal;font-variant:normal;font-weight:normal;font-stretch:normal;font-family:'Operator Mono';-inkscape-font-specification:'Operator Mono';text-align:center;text-anchor:middle;fill:#1185e9;fill-opacity:1"
           y="1255.8042"
           x="374.34796"
           id="tspan3563"
           sodipodi:role="line">PDF</tspan></text>
</g></g><text
     xml:space="preserve"
     style="font-style:normal;font-weight:normal;font-size:61.97226334px;line-height:125%;font-family:sans-serif;letter-spacing:0px;word-spacing:0px;fill:#1185e9;fill-opacity:1;stroke:none;stroke-width:1px;stroke-linecap:butt;stroke-linejoin:miter;stroke-opacity:1;"
     x="719.71069"
     y="776.18829"
     id="text3493-8"
     sodipodi:linespacing="125%"><tspan
       sodipodi:role="line"
       id="tspan3495-9"
       x="719.71069"
       y="776.18829"
       style="font-style:normal;font-variant:normal;font-weight:normal;font-stretch:normal;font-family:'Operator Mono';-inkscape-font-specification:'Operator Mono';text-align:center;text-anchor:middle;fill:#1185e9;fill-opacity:1;">asciidoctor</tspan></text>
<rect
     ry="27.083494"
     y="530.49591"
     x="501.28409"
     height="287.00812"
     width="437.43185"
     id="rect3727"
     style="opacity:1;fill:none;fill-opacity:1;stroke:#ffffff;stroke-width:14;stroke-linecap:round;stroke-linejoin:round;stroke-miterlimit:4;stroke-dasharray:none;stroke-dashoffset:0;stroke-opacity:1" /><rect
     style="opacity:1;fill:none;fill-opacity:1;stroke:#454545;stroke-width:8;stroke-linecap:round;stroke-linejoin:round;stroke-miterlimit:4;stroke-dasharray:none;stroke-dashoffset:0;stroke-opacity:1"
     id="rect3725"
     width="437.43185"
     height="287.00812"
     x="501.28409"
     y="530.49591"
     ry="27.083494" /><g
     id="g3528"
     transform="matrix(1.5713188,0,0,1.5713188,130.00445,-968.20191)"><path
       style="clip-rule:evenodd;fill:#454545;fill-opacity:1;fill-rule:evenodd"
       inkscape:connector-curvature="0"
       d="m 414.51907,1235.1035 -6.881,-5.086 -0.07,0 0,-12.702 -0.004,0 -22.053,-21.58 -0.012,0.011 -42.133,0 0,34.301 -6.934,5.239 0,27.159 0,1.545 1.546,0 5.388,0 0,21.721 64.202,0 0,-21.72 5.387,0 1.547,0 0,-1.545 0,-7.414 0.017,-19.929 z m -11.318,-17.793 -17.719,-0.02 0.018,-17.282 17.701,17.302 z m -20.791,-18.472 -0.023,21.54 22.089,0.025 0,14.715 -58.019,0 0,-36.28 35.953,0 z m 22.066,83.781 -58.019,0 0,-18.628 58.019,0 0,18.628 z m 6.934,-21.722 -71.886,0 0,-22.687 71.885,0 0,22.687 z"
       id="path3395" /><text
       sodipodi:linespacing="125%"
       id="text3493"
       y="1255.8042"
       x="374.34796"
       style="font-style:normal;font-weight:normal;font-size:21.23206139px;line-height:125%;font-family:sans-serif;letter-spacing:0px;word-spacing:0px;fill:#1185e9;fill-opacity:1;stroke:none;stroke-width:1px;stroke-linecap:butt;stroke-linejoin:miter;stroke-opacity:1"
       xml:space="preserve"><tspan
         style="font-style:normal;font-variant:normal;font-weight:normal;font-stretch:normal;font-family:'Operator Mono';-inkscape-font-specification:'Operator Mono';text-align:center;text-anchor:middle;fill:#1185e9;fill-opacity:1"
         y="1255.8042"
         x="374.34796"
         id="tspan3495"
         sodipodi:role="line">ADOC</tspan></text>
</g><path
     sodipodi:nodetypes="cccccc"
     inkscape:connector-curvature="0"
     d="m 716.46779,842.75712 -13.0093,23.91478 m 14.43081,-24.34339 18.63639,19.84549 m -19.67155,26.43901 c 3.28482,-13.52084 3.44481,-25.01179 2.61501,-24.8968"
     style="fill:none;fill-rule:evenodd;stroke:#1185e9;stroke-width:5.80243587;stroke-linecap:round;stroke-linejoin:round;stroke-miterlimit:4;stroke-dasharray:none;stroke-opacity:1"
     id="path3620" /><g
     transform="matrix(1.5713188,0,0,1.5713188,-112.07175,-968.20191)"
     id="g3683"><path
       id="path3685"
       d="m 414.51907,1235.1035 -6.881,-5.086 -0.07,0 0,-12.702 -0.004,0 -22.053,-21.58 -0.012,0.011 -42.133,0 0,34.301 -6.934,5.239 0,27.159 0,1.545 1.546,0 5.388,0 0,21.721 64.202,0 0,-21.72 5.387,0 1.547,0 0,-1.545 0,-7.414 0.017,-19.929 z m -11.318,-17.793 -17.719,-0.02 0.018,-17.282 17.701,17.302 z m -20.791,-18.472 -0.023,21.54 22.089,0.025 0,14.715 -58.019,0 0,-36.28 35.953,0 z m 22.066,83.781 -58.019,0 0,-18.628 58.019,0 0,18.628 z m 6.934,-21.722 -71.886,0 0,-22.687 71.885,0 0,22.687 z"
       inkscape:connector-curvature="0"
       style="clip-rule:evenodd;fill:#454545;fill-opacity:1;fill-rule:evenodd" /><text
       xml:space="preserve"
       style="font-style:normal;font-weight:normal;font-size:21.23206139px;line-height:125%;font-family:sans-serif;letter-spacing:0px;word-spacing:0px;fill:#1185e9;fill-opacity:1;stroke:none;stroke-width:1px;stroke-linecap:butt;stroke-linejoin:miter;stroke-opacity:1"
       x="374.34796"
       y="1255.8042"
       id="text3687"
       sodipodi:linespacing="125%"><tspan
         sodipodi:role="line"
         id="tspan3689"
         x="374.34796"
         y="1255.8042"
         style="font-style:normal;font-variant:normal;font-weight:normal;font-stretch:normal;font-family:'Operator Mono';-inkscape-font-specification:'Operator Mono';text-align:center;text-anchor:middle;fill:#1185e9;fill-opacity:1">ADOC</tspan></text>
</g><path
     id="path3691"
     style="fill:none;fill-rule:evenodd;stroke:#1185e9;stroke-width:5.80243587;stroke-linecap:round;stroke-linejoin:round;stroke-miterlimit:4;stroke-dasharray:none;stroke-opacity:1"
     d="m 621.67679,977.84172 -23.91478,-13.0093 m 24.34339,14.43081 -19.84549,18.63639 M 575.8209,978.22807 c 13.52084,3.28482 25.01179,3.44481 24.8968,2.61501"
     inkscape:connector-curvature="0"
     sodipodi:nodetypes="cccccc" /><path
     sodipodi:nodetypes="cccccc"
     inkscape:connector-curvature="0"
     d="m 818.31584,984.8988 23.91478,13.0093 m -24.34339,-14.43081 19.84549,-18.63639 m 26.43901,19.67155 c -13.52084,-3.28482 -25.01179,-3.44481 -24.8968,-2.61501"
     style="fill:none;fill-rule:evenodd;stroke:#1185e9;stroke-width:5.80243587;stroke-linecap:round;stroke-linejoin:round;stroke-miterlimit:4;stroke-dasharray:none;stroke-opacity:1"
     id="path3703" /><g
     style="font-style:normal;font-weight:normal;font-size:49.96564865px;line-height:125%;font-family:sans-serif;letter-spacing:0px;word-spacing:0px;fill:#1185e9;fill-opacity:1;stroke:none;stroke-width:1px;stroke-linecap:butt;stroke-linejoin:miter;stroke-opacity:1"
     id="text3273"><path
       d="m 253.85871,353.02143 q 0.63433,0 1.24426,0.34157 1.46384,0.9027 1.46384,2.43972 -0.0244,1.58583 -1.24426,3.09846 l -4.09875,5.05024 -0.0488,0 -3.87917,-4.63549 q -1.51263,-1.65901 -1.51263,-3.51321 -0.0244,-0.51234 0.21957,-1.12227 0.9271,-1.65902 2.46413,-1.65902 1.00029,0.0244 1.781,0.80511 0.68313,0.78072 0.9271,1.97618 l 0.0244,0 q 0,-0.34156 0.31716,-1.04908 0.85391,-1.73221 2.34214,-1.73221 z m -18.44435,0 q 1.48824,0 2.34214,1.73221 0.31716,0.70752 0.31716,1.04908 l 0.0244,0 q 0.24398,-1.19546 0.9271,-1.97618 0.78071,-0.78071 1.781,-0.80511 1.53703,0 2.46413,1.65902 0.24397,0.60993 0.21957,1.12227 0,1.8542 -1.51263,3.51321 l -3.87917,4.63549 -0.0488,0 -4.09875,-5.05024 q -1.21986,-1.51263 -1.24426,-3.09846 0,-1.53702 1.46384,-2.43972 0.60993,-0.34157 1.24426,-0.34157 z m -12.68659,11.46673 q 0,-9.10019 6.41649,-15.51668 6.41648,-6.44088 15.49228,-6.44088 9.10018,0 15.49227,6.44088 6.39209,6.41649 6.39209,15.51668 0,9.07579 -6.39209,15.46788 -6.39209,6.39209 -15.49227,6.39209 -9.0758,0 -15.49228,-6.39209 -6.41649,-6.39209 -6.41649,-15.46788 z m 3.29363,0 q 0,7.70954 5.4406,13.15014 5.46499,5.4162 13.17454,5.4162 7.73394,0 13.15013,-5.4162 5.4406,-5.4406 5.4406,-13.15014 0,-7.73394 -5.4406,-13.19893 -5.41619,-5.465 -13.15013,-5.465 -7.70955,0 -13.17454,5.465 -5.4406,5.46499 -5.4406,13.19893 z m 5.75776,6.85564 2.80569,-1.73221 q 0.68313,1.07348 1.65902,2.00058 3.46441,3.46441 8.39267,3.46441 4.92825,0 8.39266,-3.46441 0.9515,-0.9515 1.65902,-2.02498 l 2.80569,1.75661 q -0.9027,1.39064 -2.12257,2.61051 -4.4403,4.41591 -10.7348,4.41591 -6.2945,0 -10.73481,-4.41591 -1.21987,-1.24426 -2.12257,-2.61051 z"
       style="font-style:normal;font-variant:normal;font-weight:normal;font-stretch:normal;font-family:'Operator Mono';-inkscape-font-specification:'Operator Mono';fill:#1185e9;fill-opacity:1"
       id="path3276" /></g><g
     id="g3695"
     transform="matrix(1.5713188,0,0,1.5713188,372.08081,-968.20191)"><path
       style="clip-rule:evenodd;fill:#454545;fill-opacity:1;fill-rule:evenodd"
       inkscape:connector-curvature="0"
       d="m 414.51907,1235.1035 -6.881,-5.086 -0.07,0 0,-12.702 -0.004,0 -22.053,-21.58 -0.012,0.011 -42.133,0 0,34.301 -6.934,5.239 0,27.159 0,1.545 1.546,0 5.388,0 0,21.721 64.202,0 0,-21.72 5.387,0 1.547,0 0,-1.545 0,-7.414 0.017,-19.929 z m -11.318,-17.793 -17.719,-0.02 0.018,-17.282 17.701,17.302 z m -20.791,-18.472 -0.023,21.54 22.089,0.025 0,14.715 -58.019,0 0,-36.28 35.953,0 z m 22.066,83.781 -58.019,0 0,-18.628 58.019,0 0,18.628 z m 6.934,-21.722 -71.886,0 0,-22.687 71.885,0 0,22.687 z"
       id="path3697" /><text
       sodipodi:linespacing="125%"
       id="text3699"
       y="1255.8042"
       x="374.34796"
       style="font-style:normal;font-weight:normal;font-size:21.23206139px;line-height:125%;font-family:sans-serif;letter-spacing:0px;word-spacing:0px;fill:#1185e9;fill-opacity:1;stroke:none;stroke-width:1px;stroke-linecap:butt;stroke-linejoin:miter;stroke-opacity:1"
       xml:space="preserve"><tspan
         style="font-style:normal;font-variant:normal;font-weight:normal;font-stretch:normal;font-family:'Operator Mono';-inkscape-font-specification:'Operator Mono';text-align:center;text-anchor:middle;fill:#1185e9;fill-opacity:1"
         y="1255.8042"
         x="374.34796"
         id="tspan3701"
         sodipodi:role="line">JAVA</tspan></text>
</g><g
     id="g3277"
     transform="matrix(2.634954,0,0,2.634954,638.31645,547.17264)" /><text
     sodipodi:linespacing="125%"
     id="text3274"
     y="691.48822"
     x="722.72211"
     style="font-style:normal;font-weight:normal;font-size:118.62385559px;line-height:125%;font-family:sans-serif;letter-spacing:0px;word-spacing:0px;fill:#0ca961;fill-opacity:1;stroke:none;stroke-width:1px;stroke-linecap:butt;stroke-linejoin:miter;stroke-opacity:1;"
     xml:space="preserve"><tspan
       style="font-style:normal;font-variant:normal;font-weight:normal;font-stretch:normal;font-family:'Operator Mono';-inkscape-font-specification:'Operator Mono';text-align:center;text-anchor:middle;fill:#0ca961;fill-opacity:1;"
       y="691.48822"
       x="722.72211"
       id="tspan3276"
       sodipodi:role="line">AST</tspan></text>
</svg>