<?xml version="1.0" encoding="UTF-8" standalone="no"?>
<svg
   xmlns:dc="http://purl.org/dc/elements/1.1/"
   xmlns:cc="http://creativecommons.org/ns#"
   xmlns:rdf="http://www.w3.org/1999/02/22-rdf-syntax-ns#"
   xmlns:svg="http://www.w3.org/2000/svg"
   xmlns="http://www.w3.org/2000/svg"
   xmlns:sodipodi="http://sodipodi.sourceforge.net/DTD/sodipodi-0.dtd"
   xmlns:inkscape="http://www.inkscape.org/namespaces/inkscape"
   version="1.1"
   x="0px"
   y="0px"
   viewBox="0 0 150 150"
   enable-background="new 0 0 100 100"
   xml:space="preserve"
   id="svg2"
   inkscape:version="0.91 r13725"
   sodipodi:docname="book-longevity.svg"
   width="150"
   height="150"
   inkscape:export-filename="/home/hsablonniere/dev/presentation-documentation-as-code/src/images/book-longevity.png"
   inkscape:export-xdpi="480"
   inkscape:export-ydpi="480"><metadata
     id="metadata26"><rdf:RDF><cc:Work
         rdf:about=""><dc:format>image/svg+xml</dc:format><dc:type
           rdf:resource="http://purl.org/dc/dcmitype/StillImage" /><dc:title></dc:title></cc:Work></rdf:RDF></metadata><defs
     id="defs24"><filter
       style="color-interpolation-filters:sRGB;"
       inkscape:label="Roughen"
       id="filter3207"><feTurbulence
         type="fractalNoise"
         numOctaves="5"
         seed="1"
         baseFrequency="0.013 0.013"
         result="turbulence"
         id="feTurbulence3209" /><feDisplacementMap
         in="SourceGraphic"
         in2="turbulence"
         scale="6.6"
         yChannelSelector="G"
         xChannelSelector="R"
         id="feDisplacementMap3211" /></filter><filter
       style="color-interpolation-filters:sRGB;"
       inkscape:label="Roughen"
       id="filter3261"><feTurbulence
         type="fractalNoise"
         numOctaves="5"
         seed="1"
         baseFrequency="0.013 0.013"
         result="turbulence"
         id="feTurbulence3263" /><feDisplacementMap
         in="SourceGraphic"
         in2="turbulence"
         scale="6.6"
         yChannelSelector="G"
         xChannelSelector="R"
         id="feDisplacementMap3265" /></filter></defs><sodipodi:namedview
     pagecolor="#ffffff"
     bordercolor="#666666"
     borderopacity="1"
     objecttolerance="10"
     gridtolerance="10"
     guidetolerance="10"
     inkscape:pageopacity="0"
     inkscape:pageshadow="2"
     inkscape:window-width="2560"
     inkscape:window-height="1406"
     id="namedview22"
     showgrid="false"
     inkscape:zoom="5.3400704"
     inkscape:cx="-19.796969"
     inkscape:cy="52.875537"
     inkscape:window-x="0"
     inkscape:window-y="0"
     inkscape:window-maximized="1"
     inkscape:current-layer="g4" /><g
     id="g4"
     transform="translate(-1.6692215e-6,25)"><g
       style="fill:#454545;fill-opacity:1;filter:url(#filter3207)"
       transform="matrix(1.217225,0,0,1.217225,14.397846,-10.862371)"
       id="g6"><path
         sodipodi:nodetypes="cccccccccccccccccccccccccccccccccccccccc"
         style="fill:#454545;fill-opacity:1"
         inkscape:connector-curvature="0"
         id="path8"
         d="m 93.658,78.219 c 0.206,1.972 0.534,3.932 0.737,5.905 0.118,1.179 -0.517,2.284 -1.377,3.042 0.001,1.447 0.463,2.861 0.403,4.314 -0.22,1.9 -2.029,3.314 -3.873,3.458 -22.853,1.684 -45.706,3.353 -68.559,5.029 -1.274,0.152 -2.599,-0.21 -3.623,-0.982 C 16.521,98.378 15.893,97.44 15.743,96.402 12.338,70.211 8.926,44.023 5.517,17.835 5.145,15.926 5.098,13.97 5.237,12.034 5.394,10.248 5.778,8.416 6.807,6.913 7.63,5.726 9.046,5.015 10.483,4.989 18.055,4.509 25.615,3.896 33.182,3.364 47.675,2.298 62.17,1.233 76.664,0.18 c 1.297,-0.053 2.619,-0.368 3.9,-0.012 1.535,0.413 2.977,1.577 3.322,3.186 0.304,2.205 0.578,4.414 0.869,6.621 M 78.16,1.954 C 56.138,3.585 34.11,5.183 12.088,6.807 11.27,6.903 10.389,6.793 9.643,7.21 8.94,7.572 8.395,8.326 8.455,9.139 c 3.473,26.721 6.957,53.44 10.435,80.159 0.128,1.004 1.008,1.762 1.962,1.973 0.684,0.191 1.386,-0.025 2.08,-0.025 22.213,-1.63 44.427,-3.259 66.641,-4.887 0.523,-0.035 1.074,-0.06 1.536,-0.34 0.763,-0.389 1.319,-1.256 1.148,-2.127 C 88.793,57.245 85.309,30.6 81.854,3.952 81.783,3.225 81.282,2.591 80.653,2.247 79.896,1.818 78.993,1.854 78.16,1.954 Z m 11.569,86.299 c -11.04,0.778 -22.077,1.602 -33.114,2.41 -11.433,0.852 -22.868,1.66 -34.299,2.526 -1.152,-0.023 -2.125,1.057 -2.203,2.164 -0.134,1.335 1.075,2.695 2.441,2.568 21.854,-1.609 43.71,-3.207 65.564,-4.811 0.633,-0.046 1.303,-0.03 1.876,-0.342 0.731,-0.364 1.318,-1.146 1.208,-1.995 -0.119,-0.84 -0.197,-1.684 -0.338,-2.518 -0.321,-0.181 -0.765,0.016 -1.135,-0.002 z" /></g><text
       transform="matrix(1.0033288,-0.06570279,0.13202025,0.98803691,0,0)"
       sodipodi:linespacing="125%"
       id="text3196"
       y="47.525532"
       x="68.975708"
       style="font-style:normal;font-weight:normal;font-size:16.75802803px;line-height:125%;font-family:sans-serif;letter-spacing:0px;word-spacing:0px;fill:#1185e9;fill-opacity:1;stroke:none;stroke-width:1px;stroke-linecap:butt;stroke-linejoin:miter;stroke-opacity:1"
       xml:space="preserve"><tspan
         style="font-style:normal;font-variant:normal;font-weight:500;font-stretch:normal;font-family:'Futura PT';-inkscape-font-specification:'Futura PT Medium';text-align:center;text-anchor:middle;fill:#1185e9;fill-opacity:1"
         y="47.525532"
         x="68.975708"
         id="tspan3198"
         sodipodi:role="line">Longevity</tspan></text>
</g><path
     id="path3250"
     style="fill:none;fill-rule:evenodd;stroke:#1185e9;stroke-width:2;stroke-linecap:round;stroke-linejoin:round;stroke-miterlimit:4;stroke-dasharray:none;stroke-opacity:1;filter:url(#filter3261)"
     d="m 125.35605,40.052601 5.99033,-4.497119 M 12.437806,98.897273 19.240131,95.760943 M 131.32166,49.559448 138.12399,46.423124 M 7.1768367,84.582942 14.532948,83.170222 m 118.874222,-19.709205 7.35612,-1.412719 m -134.8333566,7.07042 7.4282286,0.964146 m 118.789368,7.58909 7.42823,0.964148 M 8.4950998,51.165463 15.475903,53.881441 M 87.314564,4.2492186 86.274549,11.667205 M 68.219774,138.89657 67.179759,146.31455 M 46.246306,7.313667 48.7605,14.369656 m 52.479,123.135304 2.51419,7.05598 M 67.924035,3.8252302 68.767433,11.268136 m 17.708511,129.338344 0.843397,7.4429" /></svg>