<?xml version="1.0" encoding="UTF-8" standalone="no"?>
<svg
   xmlns:dc="http://purl.org/dc/elements/1.1/"
   xmlns:cc="http://creativecommons.org/ns#"
   xmlns:rdf="http://www.w3.org/1999/02/22-rdf-syntax-ns#"
   xmlns:svg="http://www.w3.org/2000/svg"
   xmlns="http://www.w3.org/2000/svg"
   xmlns:sodipodi="http://sodipodi.sourceforge.net/DTD/sodipodi-0.dtd"
   xmlns:inkscape="http://www.inkscape.org/namespaces/inkscape"
   version="1.1"
   x="0px"
   y="0px"
   viewBox="0 0 1440 1080"
   enable-background="new 0 0 100 100"
   xml:space="preserve"
   id="svg2"
   inkscape:version="0.91 r13725"
   sodipodi:docname="brain.svg"
   width="1440"
   height="1080"><sodipodi:namedview
     pagecolor="#ffffff"
     bordercolor="#666666"
     borderopacity="1"
     objecttolerance="10"
     gridtolerance="10"
     guidetolerance="10"
     inkscape:pageopacity="0"
     inkscape:pageshadow="2"
     inkscape:window-width="2560"
     inkscape:window-height="1406"
     id="namedview16"
     showgrid="false"
     inkscape:zoom="0.6675088"
     inkscape:cx="233.99313"
     inkscape:cy="398.53107"
     inkscape:window-x="0"
     inkscape:window-y="0"
     inkscape:window-maximized="1"
     inkscape:current-layer="svg2" /><metadata
     id="metadata20"><rdf:RDF><cc:Work
         rdf:about=""><dc:format>image/svg+xml</dc:format><dc:type
           rdf:resource="http://purl.org/dc/dcmitype/StillImage" /><dc:title /></cc:Work></rdf:RDF></metadata><defs
     id="defs18" /><path
     inkscape:connector-curvature="0"
     id="path3215"
     d="m 917.90254,561.99153 -10.06356,-55.08475 -30.72034,-48.19915 -53.49576,-32.83899 -70.44491,-25.42372 -32.30933,-2.64831 1.58899,34.95763 6.35593,31.77966 16.41949,25.95339 21.18644,22.24576 11.12288,32.83898 27.01271,4.23729 34.42797,11.65254 19.59746,16.4195 23.30508,20.12711 13.77119,12.71187 z"
     style="fill:#2179c5;fill-rule:evenodd;stroke:none;stroke-width:1px;stroke-linecap:butt;stroke-linejoin:miter;stroke-opacity:1;fill-opacity:1" /><g
     transform="matrix(8.1179781,0,0,8.1179781,308.38716,-7429.6417)"
     id="g3207"
     style="fill:#454545;fill-opacity:1"><path
       d="m 82.789,997.851 c -0.648,-0.926 -1.261,-1.801 -1.625,-2.421 -1.381,-2.356 -1.493,-2.652 -0.951,-5.362 0.499,-2.497 -0.188,-4.83 -0.915,-7.299 -0.219,-0.744 -0.443,-1.506 -0.642,-2.297 l -0.098,-0.405 C 74.564,963.36 59.721,959.662 47.972,959.5 c -0.212,-0.003 -0.421,-0.004 -0.63,-0.004 -25.576,0 -32.106,21.715 -32.37,29.39 -0.248,7.162 3.577,16.229 6.239,20.103 2.536,3.689 4.469,11.196 4.7,18.255 0.226,6.868 -8.209,20.588 -8.294,20.726 -0.29,0.47 -0.146,1.086 0.324,1.377 0.164,0.102 0.346,0.149 0.525,0.149 0.335,0 0.662,-0.168 0.852,-0.474 0.36,-0.584 8.837,-14.374 8.591,-21.844 -0.242,-7.403 -2.318,-15.349 -5.05,-19.322 -2.513,-3.654 -6.121,-12.188 -5.89,-18.901 0.01,-0.276 1.747,-27.459 30.344,-27.459 0.208,0 0.421,0.002 0.631,0.005 16.057,0.221 25.702,6.624 28.669,19.031 l 0.104,0.426 c 0.204,0.817 0.436,1.606 0.662,2.376 0.685,2.323 1.275,4.329 0.873,6.342 -0.655,3.272 -0.421,4.022 1.188,6.767 0.404,0.689 1.039,1.597 1.712,2.557 1.283,1.831 3.223,4.598 3.289,5.725 0.076,1.294 -0.29,1.719 -1.957,2.275 -1.217,0.405 -2.028,1.062 -2.413,1.949 -0.245,0.567 -0.417,1.505 0.156,2.747 0.188,0.408 0.222,0.772 0.099,1.08 -0.131,0.329 -0.448,0.614 -0.87,0.783 l -1.172,0.469 0.724,1.033 c 0.757,1.081 0.757,1.405 -0.006,2.168 -1.613,1.613 -1.083,3.021 -0.798,3.775 l 0.08,0.22 c 0.169,0.508 0.537,3.903 -1.063,4.746 -0.865,0.455 -3.258,0.761 -5.369,1.032 -3.157,0.404 -6.141,0.786 -7.401,1.81 -2.31,1.877 -3.366,5.594 -2.692,9.469 0.193,1.113 -0.078,2.1 -0.454,3.469 -0.421,1.534 -0.945,3.438 -0.988,6.246 -0.01,0.551 0.431,1.004 0.983,1.004 0.006,0 0.011,0 0.016,0 0.546,0 0.991,-0.428 1,-0.975 0.039,-2.555 0.506,-4.244 0.917,-5.743 0.411,-1.497 0.766,-2.789 0.496,-4.343 -0.552,-3.175 0.227,-6.147 1.983,-7.575 0.818,-0.665 4.041,-1.078 6.395,-1.38 2.607,-0.334 4.86,-0.622 6.046,-1.246 2.812,-1.48 2.394,-6.051 2.028,-7.148 -0.031,-0.094 -0.067,-0.191 -0.106,-0.293 -0.232,-0.615 -0.36,-0.954 0.341,-1.655 1.425,-1.425 1.328,-2.698 0.785,-3.81 0.442,-0.357 0.779,-0.806 0.983,-1.317 0.229,-0.575 0.392,-1.504 -0.141,-2.658 -0.212,-0.459 -0.258,-0.834 -0.137,-1.115 0.186,-0.428 0.76,-0.696 1.21,-0.847 1.695,-0.565 3.49,-1.409 3.32,-4.289 -0.091,-1.572 -1.569,-3.792 -3.647,-6.755 z"
       id="path4"
       inkscape:connector-curvature="0"
       style="fill:#454545;fill-opacity:1" /><path
       d="m 63.644,998.355 c -0.041,-0.195 -0.013,-0.261 0.277,-0.637 0.313,-0.405 0.784,-1.018 0.684,-1.961 -0.059,-0.554 -0.228,-1.209 -0.511,-1.886 0.844,0.013 1.833,-0.029 2.681,-0.22 1.028,-0.231 1.648,-0.515 2.146,-0.743 0.403,-0.185 0.722,-0.33 1.207,-0.435 1.38,-0.296 4.163,-1.787 4.658,-4.052 0.175,-0.796 0.129,-1.366 0.036,-1.778 0.918,-0.734 1.543,-2.13 0.936,-4.208 -0.313,-1.071 -0.458,-1.825 -0.573,-2.431 -0.122,-0.637 -0.218,-1.139 -0.449,-1.611 -0.044,-0.092 -0.112,-0.278 -0.209,-0.534 -0.19,-0.5 -0.468,-1.23 -0.834,-2.059 -0.051,-0.284 -0.168,-0.527 -0.338,-0.734 -0.992,-2.076 -2.499,-4.521 -4.599,-5.684 -1.632,-0.904 -2.058,-1.346 -2.399,-1.7 -0.472,-0.488 -0.846,-0.82 -2.063,-1.31 l -1.296,-0.527 c -3.411,-1.396 -6.341,-2.563 -7.646,-2.718 -0.879,-0.104 -1.967,-0.056 -3.018,-0.009 -0.813,0.036 -1.655,0.072 -2.093,0.012 -0.749,-0.102 -1.732,0.073 -2.688,0.244 -0.657,0.118 -1.403,0.257 -1.756,0.219 -0.142,-0.013 -0.303,-0.032 -0.483,-0.054 -1.176,-0.138 -3.145,-0.371 -5.881,0.168 -2.282,0.451 -3.205,1.2 -3.814,1.696 -0.129,0.104 -0.306,0.248 -0.363,0.264 -0.531,0.148 -5.121,1.481 -6.833,3.858 -1.478,1.066 -4.214,5.085 -4.243,5.129 -0.313,0.468 -0.827,1.447 -1.372,2.485 -0.528,1.006 -1.127,2.146 -1.433,2.597 -0.827,1.218 -1.844,4.225 -2.136,5.116 -0.068,0.208 -0.165,0.44 -0.272,0.702 -0.515,1.253 -1.285,3.194 -0.923,5.953 0.005,0.017 0.002,0.036 0.008,0.053 0.094,0.688 0.238,1.412 0.497,2.205 l 0.439,1.362 c 0.198,0.619 0.38,1.174 0.558,1.702 0.005,0.014 0.009,0.027 0.014,0.041 0.88,2.604 1.625,4.117 3.337,4.663 0.937,0.298 1.662,0.261 2.243,0.23 0.012,0 0.021,0 0.033,0 0.442,1.341 1.833,4.248 5.755,5.042 1.789,0.362 3.084,0.475 3.998,0.539 0.476,1.084 0.694,3.542 0.695,5.147 0,0.553 0.448,1 1,1 0.553,0 1,-0.448 1,-1 0,-0.442 -0.019,-1.832 -0.216,-3.284 0.269,0.142 0.564,0.219 0.884,0.219 0.2,0 0.41,-0.028 0.629,-0.084 0.586,-0.148 1.036,-0.613 1.463,-1.178 -0.147,1.041 -0.248,2.358 -0.269,4.068 -0.009,0.555 0.433,0.769 0.985,0.769 0.005,0 0.009,0 0.013,0 0.547,0 0.993,-0.193 1,-0.741 0.033,-2.664 0.395,-5.15 0.789,-5.813 0.722,-0.164 1.33,-0.583 1.728,-1.193 0.443,-0.679 0.593,-1.57 0.418,-2.268 -0.003,-0.028 -0.001,-0.054 -0.006,-0.082 0.017,-0.058 0.13,-0.237 0.389,-0.37 0.231,-0.118 0.608,-0.213 1.088,0 0.398,0.172 0.801,0.388 1.211,0.605 1.355,0.721 2.893,1.535 4.679,1.221 0.504,-0.088 0.878,-0.024 1.351,0.056 1.088,0.186 2.318,0.394 4.825,-0.996 3.657,-2.028 5.493,-3.047 5.062,-5.06 z M 52.422,965.117 c 0.927,-0.041 1.976,-0.088 2.694,-0.003 1.141,0.135 4.885,1.667 7.123,2.582 l 1.307,0.532 c 0.909,0.365 1.073,0.535 1.37,0.843 0.412,0.428 0.977,1.012 2.87,2.062 0.879,0.487 1.646,1.309 2.304,2.244 -0.195,-0.106 -0.365,-0.214 -0.449,-0.328 -0.897,-1.216 -1.887,-1.803 -2.913,-1.741 -0.775,0.044 -1.361,0.444 -1.758,0.832 -0.45,-0.194 -0.932,-0.294 -1.414,-0.265 -0.078,-0.145 -0.175,-0.364 -0.252,-0.539 -0.416,-0.946 -1.046,-2.377 -2.722,-3.225 -1.421,-0.718 -2.123,-0.657 -2.772,-0.521 -0.218,0.043 -0.306,0.063 -0.878,-0.366 -1.471,-1.101 -3.106,-0.617 -4.298,-0.265 -0.375,0.111 -0.93,0.274 -1.047,0.273 -0.751,-0.549 -0.054,-2.025 -0.026,-2.083 0.275,-0.008 0.558,-0.019 0.861,-0.032 z m -7.344,0.409 c 0.2,0.023 0.378,0.045 0.536,0.06 0.617,0.056 1.433,-0.09 2.292,-0.243 0.501,-0.089 1.079,-0.19 1.535,-0.227 -0.348,1.178 -0.373,2.749 0.964,3.729 0.835,0.614 1.833,0.317 2.797,0.032 1.126,-0.334 1.91,-0.518 2.531,-0.052 1.089,0.813 1.713,0.88 2.48,0.724 0.286,-0.06 0.556,-0.113 1.467,0.348 1.036,0.523 1.438,1.438 1.794,2.245 0.341,0.774 0.848,1.943 2.149,1.737 0.594,-0.093 1.188,0.423 1.403,0.984 0.199,0.526 0.062,0.945 -0.411,1.245 -1.131,0.722 -3.248,0.406 -5.101,-1.582 -0.377,-0.405 -1.011,-0.426 -1.413,-0.05 -0.404,0.376 -0.427,1.009 -0.05,1.413 1.717,1.843 3.605,2.567 5.21,2.567 0.935,0 1.773,-0.245 2.426,-0.659 1.269,-0.806 1.743,-2.236 1.208,-3.645 -0.097,-0.255 -0.229,-0.487 -0.375,-0.707 0.105,-0.076 0.216,-0.137 0.326,-0.143 0.319,10e-4 0.743,0.335 1.185,0.933 0.587,0.795 1.631,1.18 2.552,1.52 0.364,0.134 0.876,0.326 1.11,0.477 0.432,0.941 0.755,1.79 0.962,2.337 0.129,0.339 0.224,0.584 0.282,0.703 0.114,0.232 0.181,0.581 0.281,1.108 0.117,0.614 0.278,1.454 0.618,2.616 0.369,1.263 0.026,1.824 -0.244,2.061 -0.272,-0.114 -0.683,-0.583 -0.84,-1.901 -0.159,-1.341 -0.663,-2.342 -1.497,-2.976 -1.084,-0.825 -2.291,-0.666 -2.423,-0.647 -0.546,0.084 -0.92,0.595 -0.836,1.141 0.084,0.546 0.594,0.918 1.141,0.836 0.004,0 0.5,-0.048 0.908,0.263 0.386,0.293 0.628,0.838 0.721,1.62 0.181,1.523 0.688,2.603 1.508,3.207 0.185,0.136 0.365,0.226 0.54,0.299 0.074,0.208 0.153,0.477 0.017,1.096 -0.247,1.129 -2.038,2.291 -3.125,2.524 -0.699,0.149 -1.167,0.364 -1.62,0.571 -0.477,0.219 -0.928,0.425 -1.753,0.61 -1.167,0.262 -2.782,0.167 -3.513,0.103 -0.449,-0.531 -0.98,-1.032 -1.625,-1.456 -0.042,-0.028 -0.084,-0.055 -0.127,-0.082 1.457,-0.536 2.927,-1.581 3.504,-3.469 0.162,-0.528 -0.136,-1.087 -0.664,-1.248 -0.53,-0.164 -1.088,0.137 -1.248,0.664 -0.474,1.548 -1.982,2.175 -3.116,2.413 0.413,-0.754 0.743,-1.668 0.342,-2.539 -0.23,-0.503 -0.826,-0.729 -1.329,-0.497 -0.501,0.231 -0.723,0.819 -0.492,1.32 0.054,0.266 -0.458,1.073 -0.65,1.377 -0.059,0.092 -0.111,0.18 -0.165,0.269 -0.687,-0.077 -1.414,-0.022 -2.221,0.266 -0.716,0.253 -1.521,0.136 -2.312,-0.175 0.35,-0.039 0.671,-0.252 0.815,-0.6 0.158,-0.378 0.065,-0.799 -0.201,-1.077 -0.013,-0.161 0.002,-0.614 0.351,-1.556 1.038,-2.81 -0.791,-7.006 -2.49,-8.153 -0.741,-0.5 -1.764,-0.625 -2.665,-0.734 -0.361,-0.044 -0.864,-0.105 -1.159,-0.188 0.814,-2.158 -0.008,-3.956 -2.268,-4.942 -0.133,-0.059 -0.267,-0.159 -0.389,-0.292 -1.297,-1.415 -3.261,-1.497 -4.629,-0.951 -0.584,0.233 -1.017,0.336 -1.269,0.346 0.109,-0.135 0.248,-0.285 0.349,-0.394 0.541,-0.588 1.666,-1.811 0.618,-3.003 -0.415,-0.471 -0.939,-0.781 -1.476,-1.001 0.346,-0.138 0.775,-0.268 1.303,-0.383 1.386,0.328 1.873,1.214 2.163,1.753 0.148,0.276 0.289,0.543 0.605,0.712 0.929,0.494 1.769,0.155 2.271,-0.054 0.147,-0.06 0.366,-0.129 0.439,-0.129 10e-4,0 0.003,0 0.005,0 0.063,0 0.096,0.109 0.18,0.472 0.139,0.599 0.349,1.48 1.417,2.143 0.21,0.13 0.479,0.425 0.763,0.736 0.803,0.881 2.023,2.221 4.219,2.221 0.643,0 1.369,-0.114 2.192,-0.39 0.524,-0.175 0.807,-0.741 0.632,-1.265 -0.175,-0.524 -0.741,-0.809 -1.265,-0.632 -2.403,0.801 -3.325,-0.21 -4.3,-1.281 -0.381,-0.418 -0.741,-0.813 -1.188,-1.09 -0.348,-0.215 -0.408,-0.423 -0.522,-0.915 -0.115,-0.499 -0.29,-1.252 -1.07,-1.739 -0.905,-0.564 -1.759,-0.21 -2.268,10e-4 -0.197,0.082 -0.322,0.129 -0.407,0.15 -0.143,-0.263 -0.365,-0.642 -0.705,-1.038 0.945,-0.003 1.712,0.083 2.31,0.153 z m -5.877,40.851 c -0.245,0.353 -0.654,0.941 -0.778,1.027 -0.042,0.011 -0.074,0.017 -0.091,0.022 -0.047,-0.069 -0.137,-0.244 -0.264,-0.674 -0.36,-1.227 -1.438,-1.299 -2.685,-1.382 -0.919,-0.061 -2.179,-0.145 -4.061,-0.526 -1.854,-0.375 -2.941,-1.385 -3.568,-2.312 1.581,0.446 3.45,-0.171 4.763,-0.616 0.309,-0.104 0.583,-0.198 0.806,-0.258 1.39,-0.373 2.581,-0.439 3.108,-0.17 0.402,0.205 1.157,0.404 2.456,0.738 1.211,0.313 3.649,0.944 4.227,1.32 -0.003,0.175 -0.047,0.373 -0.164,0.553 -0.127,0.194 -0.313,0.247 -0.567,0.287 -0.081,0.013 -0.188,0.03 -0.309,0.07 -0.141,0.01 -0.292,0.014 -0.462,0.01 -1.06,-0.069 -1.744,0.953 -2.411,1.913 z m 23.135,-9.879 c -0.332,0.431 -0.888,1.152 -0.647,2.276 0.037,0.173 -0.138,0.4 -0.44,0.66 0.176,-1.129 -0.071,-1.712 -0.34,-2.211 -0.133,-0.247 -0.178,-0.33 -0.069,-0.807 0.229,-0.999 0.021,-1.967 -0.584,-2.726 -0.679,-0.851 -1.854,-1.4 -2.996,-1.4 -0.553,0 -1,0.447 -1,1 0,0.553 0.447,1 1,1 0.539,0 1.128,0.267 1.433,0.647 0.227,0.285 0.292,0.623 0.198,1.033 -0.256,1.117 -0.023,1.679 0.259,2.202 0.138,0.255 0.213,0.395 0.124,0.961 -0.223,1.408 -0.235,1.438 -1.711,2.557 -1.854,1.018 -2.607,0.894 -3.47,0.747 -0.56,-0.094 -1.19,-0.203 -2.034,-0.054 -1.109,0.194 -2.219,-0.396 -3.392,-1.019 -0.459,-0.244 -0.91,-0.486 -1.355,-0.68 -1.403,-0.604 -2.676,-0.165 -3.4,0.458 -0.148,0.128 -0.27,0.269 -0.382,0.413 -0.891,-0.388 -2.207,-0.768 -4.141,-1.267 -0.812,-0.209 -1.821,-0.47 -2.049,-0.585 -0.977,-0.496 -2.316,-0.434 -3.504,-0.213 0.047,-0.312 -0.036,-0.638 -0.282,-0.872 -0.008,-0.008 -0.795,-0.799 -0.471,-1.982 0.107,-0.236 0.199,-0.5 0.296,-0.811 0.092,-0.297 0.273,-0.884 0.424,-1.11 0.276,-10e-4 0.905,0.119 1.334,0.206 0.558,0.114 1.194,0.241 1.81,0.268 0.475,1.249 1.501,2.218 2.984,2.767 0.313,0.116 1.118,0.386 1.825,0.386 0.361,0 0.697,-0.07 0.929,-0.269 0.42,-0.358 0.47,-0.99 0.11,-1.409 -0.252,-0.296 -0.637,-0.409 -0.993,-0.323 -0.315,-0.028 -2.259,-0.271 -2.928,-1.714 0.165,-0.154 0.315,-0.334 0.429,-0.571 0.136,-0.283 0.217,-0.644 0.268,-1.021 0.775,0.401 1.612,0.585 2.555,0.368 1.973,-0.456 4.396,-0.832 5.664,0.303 0.004,0.004 0.01,0.005 0.014,0.009 0.005,0.004 0.006,0.01 0.011,0.014 1.525,1.274 0.889,2.734 0.807,2.905 -0.245,0.489 -0.05,1.087 0.438,1.337 0.146,0.075 0.302,0.11 0.455,0.11 0.363,0 0.714,-0.198 0.891,-0.544 0.527,-1.029 0.933,-3.471 -1.308,-5.344 -0.011,-0.009 -0.024,-0.01 -0.035,-0.019 -1.942,-1.682 -4.82,-1.308 -7.387,-0.716 -1.116,0.255 -2.152,-0.755 -3.732,-2.457 -0.402,-0.433 -0.813,-0.867 -1.243,-1.291 -1.278,-1.262 -1.219,-2.584 -1.136,-4.438 0.025,-0.584 0.052,-1.148 0.035,-1.763 -0.079,-2.81 -1.895,-3.509 -2.845,-3.509 -0.003,0 -0.006,0 -0.009,0 -0.549,0 -0.995,0.374 -1,0.923 -0.005,0.553 0.439,0.936 0.991,0.94 0.008,0 0.817,0.025 0.86,1.635 0.016,0.565 -0.01,1.116 -0.033,1.653 -0.058,1.293 -0.108,2.613 0.369,3.894 -0.005,0.025 -0.008,0.038 -0.013,0.064 -0.3,1.601 -0.747,2.666 -1.951,2.666 -0.357,0 -0.778,-0.122 -1.224,-0.252 -0.922,-0.27 -2.066,-0.603 -3.329,-0.034 -0.519,0.232 -0.899,0.647 -1.101,1.199 -0.565,1.556 0.496,3.886 0.714,4.337 0.173,0.356 0.529,0.564 0.9,0.564 0.146,0 0.294,-0.032 0.435,-0.1 0.497,-0.24 0.705,-0.838 0.466,-1.335 -0.59,-1.225 -0.832,-2.605 -0.595,-2.842 0.563,-0.252 1.108,-0.115 1.95,0.13 0.561,0.163 1.141,0.332 1.783,0.332 1.981,0 2.945,-1.312 3.436,-2.54 0.367,0.368 0.725,0.748 1.07,1.12 0.374,0.403 0.752,0.806 1.139,1.186 0.044,0.527 0.019,1.375 -0.081,1.611 -0.273,0.162 -1.439,-0.074 -1.997,-0.188 -0.948,-0.194 -1.77,-0.362 -2.438,-0.14 -0.985,0.325 -1.344,1.481 -1.632,2.41 -0.069,0.221 -0.163,0.523 -0.212,0.612 -0.021,0.037 -0.023,0.078 -0.038,0.116 -0.016,0.038 -0.044,0.067 -0.055,0.108 -0.013,0.045 -0.012,0.085 -0.023,0.13 -0.002,0.013 -0.005,0.025 -0.007,0.038 -0.471,1.953 0.586,3.334 0.937,3.721 -0.065,0.022 -0.124,0.041 -0.192,0.064 -1.139,0.386 -3.045,1.031 -3.947,0.438 -1.195,-0.781 -2.099,-0.737 -2.893,-0.693 -0.505,0.027 -0.944,0.049 -1.533,-0.14 -0.813,-0.259 -1.306,-1.231 -1.987,-3.215 0.052,-0.314 0.179,-0.66 0.277,-0.72 0,10e-4 0.091,-0.014 0.313,0.087 0.504,0.231 1.097,0.011 1.326,-0.49 0.231,-0.502 0.012,-1.096 -0.49,-1.326 -1.004,-0.463 -1.731,-0.251 -2.165,0.009 -0.018,0.011 -0.031,0.026 -0.048,0.037 l -0.279,-0.863 c -0.146,-0.446 -0.25,-0.867 -0.33,-1.271 0.512,0.633 1.373,1.125 2.347,1.125 0.018,0 0.034,0 0.051,0 1.039,0 1.937,-0.573 2.462,-1.31 0.316,-0.443 0.549,-1.177 0.795,-1.818 0.711,-1.849 1.147,-2.589 2.009,-2.385 0.54,0.124 1.075,-0.202 1.2,-0.741 0.124,-0.538 -0.211,-1.059 -0.749,-1.184 -2.701,-0.621 -3.717,2.067 -4.327,3.654 -0.19,0.495 -0.387,1.073 -0.556,1.309 -0.148,0.207 -0.477,0.475 -0.861,0.475 -0.007,0 -0.015,0 -0.022,0 -0.426,0 -0.734,-0.284 -0.818,-0.395 -0.593,-0.789 -1.219,-1.079 -1.678,-1.103 0.094,-1.206 0.43,-2.161 0.737,-2.919 0.288,0.315 0.673,0.558 1.204,0.558 0.118,0 0.242,-0.011 0.373,-0.036 1.588,-0.302 1.777,-1.698 1.915,-2.719 0.111,-0.82 0.227,-1.668 0.833,-2.448 1.344,-1.727 2.393,-1.69 3.352,-1.506 0.705,0.139 1.146,-0.164 1.344,-0.357 0.664,-0.646 0.497,-1.656 0.32,-2.727 -0.066,-0.404 -0.149,-0.908 -0.122,-1.122 0.138,-1.077 1.655,-2.551 2.328,-2.788 0.916,1.621 2.052,1.769 2.277,1.781 l 0.197,-0.005 c 4.651,-0.197 5.319,0.481 5.412,0.695 0.374,0.863 0.885,1.264 1.295,1.589 0.486,0.387 0.871,0.683 1.214,2.045 0.434,1.726 0.107,2.327 -0.003,2.475 -0.043,0.057 -0.156,0.175 -0.497,0.189 -0.552,0.024 -0.979,0.422 -0.955,0.974 0.023,0.538 0.465,0.819 0.997,0.819 0.015,0 0.03,0 0.045,0 0.832,0 1.546,-0.264 2.013,-0.889 0.688,-0.925 0.803,-2.193 0.339,-4.039 -0.47,-1.867 -1.144,-2.523 -1.91,-3.132 -0.329,-0.262 -0.527,-0.419 -0.702,-0.822 -0.823,-1.899 -3.987,-2.04 -7.287,-1.902 -0.107,-0.048 -0.426,-0.236 -0.765,-0.894 -0.36,-0.699 -1.07,-1.03 -1.888,-0.885 -1.68,0.296 -3.861,2.712 -4.096,4.534 -0.064,0.504 0.031,1.086 0.133,1.701 0.033,0.199 0.078,0.469 0.105,0.706 -1.351,-0.142 -3.022,0.14 -4.726,2.33 -0.938,1.206 -1.11,2.479 -1.236,3.408 -0.037,0.272 -0.088,0.65 -0.193,0.871 -0.053,-0.123 -0.104,-0.267 -0.139,-0.363 -0.062,-0.173 -0.141,-0.386 -0.25,-0.591 0.486,-1.341 1.02,-2.625 1.392,-3.174 0.37,-0.545 0.942,-1.636 1.549,-2.79 0.497,-0.946 1.011,-1.924 1.265,-2.305 1.069,-1.6 3.18,-4.309 3.762,-4.627 l 0.375,-0.345 c 0.887,-1.387 3.858,-2.638 5.708,-3.167 0.532,-0.013 1.755,0.086 2.427,0.637 -0.114,0.152 -0.298,0.351 -0.422,0.486 -0.5,0.543 -1.122,1.219 -1.031,2.086 0.036,0.342 0.203,0.838 0.794,1.257 1.139,0.81 2.591,0.229 3.37,-0.083 0.734,-0.292 1.761,-0.266 2.413,0.445 0.313,0.342 0.671,0.602 1.063,0.772 1.527,0.667 1.571,1.473 1.169,2.478 -0.311,0.774 -0.144,1.33 0.051,1.659 0.516,0.872 1.659,1.012 2.766,1.146 0.645,0.078 1.446,0.176 1.788,0.407 1.085,0.732 2.398,4 1.733,5.802 -0.706,1.909 -0.503,2.885 -0.147,3.393 -0.554,-0.341 -1.079,-0.749 -1.528,-1.175 -0.807,-0.767 -1.511,-1.102 -2.183,-1.26 1.435,-2.047 0.837,-3.572 0.746,-3.775 -0.221,-0.488 -0.777,-0.692 -1.274,-0.497 -0.497,0.199 -0.741,0.775 -0.564,1.281 0.017,0.048 0.369,1.158 -1.441,2.852 -0.472,0.073 -0.995,0.256 -1.569,0.467 -0.988,0.362 -2.218,0.808 -2.923,0.478 -0.318,-0.15 -0.563,-0.481 -0.751,-1.014 -0.558,-1.585 -0.605,-3.036 -0.644,-4.202 -0.046,-1.396 -0.098,-2.98 -1.616,-3.265 -0.549,-0.103 -1.065,0.256 -1.167,0.798 -0.094,0.499 0.201,0.981 0.671,1.135 0.076,0.267 0.098,0.912 0.113,1.398 0.041,1.233 0.096,2.924 0.756,4.8 0.369,1.048 0.97,1.773 1.785,2.158 1.466,0.69 3.128,0.082 4.464,-0.408 0.423,-0.155 1.068,-0.392 1.26,-0.381 0.207,0.01 0.401,0.016 0.587,0.021 1.034,0.027 1.506,0.04 2.373,0.864 2.299,2.182 4.896,3.052 6.947,2.316 0.695,-0.247 1.269,-0.259 1.916,-0.051 l 0.035,0.01 c 0.003,10e-4 0.008,10e-4 0.012,0.002 0.662,0.223 1.406,0.677 2.435,1.353 1.777,1.169 2.418,3.033 2.517,3.949 0.011,0.13 -0.031,0.208 -0.282,0.534 z"
       id="path6"
       inkscape:connector-curvature="0"
       style="fill:#454545;fill-opacity:1" /><path
       d="m 53.526,974.652 c -0.01,-0.451 -0.325,-0.854 -0.785,-0.955 -0.537,-0.117 -1.073,0.223 -1.191,0.762 -0.085,0.386 -0.156,1.734 2.474,2.88 1.664,0.726 1.664,0.728 1.647,2.841 -0.022,2.778 2.366,3.029 4.285,3.226 1.969,0.203 4.201,0.443 5.686,2.613 0.595,0.871 1.488,1.137 2.14,1.316 0.223,0.062 0.56,0.195 0.623,0.251 0,0 0.018,0.126 0.018,0.241 -0.003,0.552 0.442,1.173 0.995,1.173 10e-4,0 0.003,0 0.004,0 0.551,0 0.998,-0.614 1,-1.165 0.007,-1.721 -1.371,-2.268 -2.111,-2.471 -0.519,-0.143 -0.846,-0.242 -1.019,-0.495 -2.007,-2.936 -4.969,-3.24 -7.132,-3.463 -2.282,-0.234 -2.496,-0.426 -2.489,-1.216 0.023,-3.017 -0.322,-3.586 -2.849,-4.687 -0.953,-0.415 -1.229,-0.749 -1.296,-0.851 z"
       id="path8"
       inkscape:connector-curvature="0"
       style="fill:#454545;fill-opacity:1" /><path
       d="m 53.767,995.917 c -0.358,-0.419 -0.99,-0.468 -1.41,-0.109 -0.419,0.358 -0.469,0.99 -0.109,1.41 0.432,0.505 0.865,1.184 0.963,1.495 -0.237,0.516 -0.072,0.902 0.059,1.098 0.392,0.588 1.045,0.482 1.357,0.429 0.455,-0.075 0.703,-0.078 0.884,0.097 0.194,0.188 0.444,0.281 0.695,0.281 0.262,0 0.522,-0.102 0.719,-0.305 0.384,-0.396 0.373,-1.03 -0.023,-1.414 -0.57,-0.552 -1.226,-0.696 -1.764,-0.706 -0.219,-0.785 -0.803,-1.611 -1.371,-2.276 z"
       id="path10"
       inkscape:connector-curvature="0"
       style="fill:#454545;fill-opacity:1" /></g><text
     sodipodi:linespacing="125%"
     id="text3217"
     y="176.44666"
     x="811.37115"
     style="font-style:normal;font-weight:normal;font-size:147.08283997px;line-height:125%;font-family:sans-serif;letter-spacing:0px;word-spacing:0px;fill:#2179c5;fill-opacity:1;stroke:none;stroke-width:1px;stroke-linecap:butt;stroke-linejoin:miter;stroke-opacity:1;"
     xml:space="preserve"><tspan
       style="font-style:normal;font-variant:normal;font-weight:normal;font-stretch:normal;font-family:'Just Another Hand';-inkscape-font-specification:'Just Another Hand';fill:#2179c5;fill-opacity:1;"
       y="176.44666"
       x="811.37115"
       id="tspan3219"
       sodipodi:role="line">Zone F.A.L.P.I.E</tspan></text>
<path
     id="path3249"
     style="fill:none;fill-rule:evenodd;stroke:#2179c5;stroke-width:15;stroke-linecap:round;stroke-linejoin:round;stroke-miterlimit:4;stroke-dasharray:none;stroke-opacity:1"
     d="m 922.4589,413.90786 46.21217,-6.9603 m -48.27121,5.45825 7.86507,-46.06681 M 1165.4661,222.66592 c 0,0 -10.7649,29.7881 -19.9465,48.00748 -9.1816,18.21938 -15.7896,44.02645 -36.1976,60.41219 -20.408,16.38574 -43.8751,29.29939 -82.154,27.41103 -38.27891,-1.88836 -80.14272,28.57768 -79.12585,29.59455" /></svg>