<?xml version="1.0" encoding="UTF-8" standalone="no"?>
<svg
   xmlns:dc="http://purl.org/dc/elements/1.1/"
   xmlns:cc="http://creativecommons.org/ns#"
   xmlns:rdf="http://www.w3.org/1999/02/22-rdf-syntax-ns#"
   xmlns:svg="http://www.w3.org/2000/svg"
   xmlns="http://www.w3.org/2000/svg"
   xmlns:sodipodi="http://sodipodi.sourceforge.net/DTD/sodipodi-0.dtd"
   xmlns:inkscape="http://www.inkscape.org/namespaces/inkscape"
   version="1.1"
   x="0px"
   y="0px"
   viewBox="0 0 1440 1080"
   enable-background="new 0 0 100 100"
   xml:space="preserve"
   id="svg2"
   inkscape:version="0.91 r13725"
   sodipodi:docname="brain-falpie.svg"
   width="1440"
   height="1080"><sodipodi:namedview
     pagecolor="#ffffff"
     bordercolor="#666666"
     borderopacity="1"
     objecttolerance="10"
     gridtolerance="10"
     guidetolerance="10"
     inkscape:pageopacity="0"
     inkscape:pageshadow="2"
     inkscape:window-width="2560"
     inkscape:window-height="1406"
     id="namedview16"
     showgrid="false"
     inkscape:zoom="0.944"
     inkscape:cx="706.8861"
     inkscape:cy="585.1604"
     inkscape:window-x="0"
     inkscape:window-y="1440"
     inkscape:window-maximized="1"
     inkscape:current-layer="svg2" /><metadata
     id="metadata20"><rdf:RDF><cc:Work
         rdf:about=""><dc:format>image/svg+xml</dc:format><dc:type
           rdf:resource="http://purl.org/dc/dcmitype/StillImage" /><dc:title></dc:title></cc:Work></rdf:RDF></metadata><defs
     id="defs18" /><path
     style="fill:#454545;fill-opacity:1"
     inkscape:connector-curvature="0"
     id="path4"
     d="m 1036.9189,627.90767 c -5.7998,-8.28794 -11.2863,-16.11942 -14.5442,-21.66858 -12.3603,-21.08682 -13.3627,-23.7361 -8.5117,-47.9913 4.4662,-22.3488 -1.6826,-43.22975 -8.1895,-65.32795 -1.9601,-6.659 -3.965,-13.47909 -5.74605,-20.55875 l -0.87713,-3.62485 c -35.74734,-149.532 -168.59605,-182.63006 -273.75265,-184.08 -1.89746,-0.0269 -3.76806,-0.0358 -5.63867,-0.0358 -228.91185,0 -287.35706,194.35489 -289.71992,263.04814 -2.21966,64.10176 32.01509,145.25378 55.84067,179.92709 22.69787,33.0175 39.99872,100.20711 42.06623,163.38699 2.02275,61.47039 -73.47269,184.26797 -74.23346,185.50307 -2.59557,4.2067 -1.30673,9.72 2.89989,12.3246 1.46783,0.9129 3.09679,1.3335 4.69888,1.3335 2.99834,0 5.92508,-1.5037 7.62562,-4.2424 3.22209,-5.227 79.09345,-128.65104 76.89169,-195.50949 -2.16597,-66.25877 -20.7467,-137.37754 -45.19882,-172.93692 -22.492,-32.70426 -54.78454,-109.08577 -52.71703,-169.16887 0.0895,-2.47027 15.63611,-245.7652 271.5867,-245.7652 1.86165,0 3.76806,0.0179 5.64761,0.0448 143.71433,1.978 230.03959,59.28652 256.59501,170.3324 l 0.93083,3.81281 c 1.82584,7.31236 3.9023,14.37411 5.92507,21.26582 6.13092,20.79145 11.41158,38.74567 7.81357,56.76254 -5.86241,29.28526 -3.76806,35.99795 10.63296,60.56642 3.6159,6.16673 9.2993,14.29356 15.3228,22.88581 11.4832,16.38793 28.8467,41.1533 29.4374,51.24025 0.6802,11.58163 -2.5956,15.38549 -17.5157,20.36184 -10.8924,3.62485 -18.1511,9.50517 -21.5969,17.44406 -2.1928,5.07479 -3.7323,13.47013 1.3962,24.58635 1.6827,3.65172 1.987,6.90961 0.8861,9.66629 -1.1725,2.94463 -4.0097,5.49546 -7.7867,7.00806 l -10.48975,4.19767 6.47995,9.24561 c 6.7754,9.67523 6.7754,12.57512 -0.054,19.40416 -14.43673,14.43677 -9.69309,27.03875 -7.14227,33.78724 l 0.71602,1.96906 c 1.5126,4.54673 4.80625,34.93286 -9.51412,42.47793 -7.74198,4.07237 -29.15996,6.81114 -48.05395,9.23666 -28.25597,3.61592 -54.96355,7.03492 -66.24087,16.19998 -20.67511,16.79964 -30.12659,50.06775 -24.09411,84.75001 1.7274,9.96161 -0.69812,18.79554 -4.06341,31.04844 -3.76806,13.7298 -8.458,30.771 -8.84286,55.9034 -0.0895,4.9316 3.85756,8.986 8.79811,8.986 0.0537,0 0.0985,0 0.1432,0 4.88684,0 8.8697,-3.8307 8.95025,-8.7265 0.34906,-22.8679 4.52884,-37.9849 8.2074,-51.4013 3.67855,-13.3986 6.85589,-24.9623 4.43933,-38.87103 -4.94055,-28.41707 2.03171,-55.01725 17.74836,-67.79821 7.32131,-5.95193 36.16801,-9.64838 57.23692,-12.35136 23.33333,-2.9894 43.49826,-5.56707 54.11326,-11.15203 25.16814,-13.24638 21.42694,-54.15803 18.15114,-63.97646 -0.2775,-0.84132 -0.5997,-1.70949 -0.9487,-2.62243 -2.0765,-5.50441 -3.2221,-8.53855 3.052,-14.81267 12.7541,-12.75413 11.8859,-24.14781 7.026,-34.1005 3.956,-3.19524 6.9722,-7.21391 8.7981,-11.7875 2.0496,-5.14639 3.5085,-13.46119 -1.262,-23.78978 -1.8975,-4.10817 -2.3092,-7.46452 -1.2262,-9.97955 1.6647,-3.8307 6.8022,-6.22937 10.8298,-7.58086 15.1707,-5.0569 31.2364,-12.61092 29.7149,-38.38767 -0.8145,-14.0698 -14.043,-33.93939 -32.6416,-60.459 z" /><path
     id="path3249"
     style="fill:none;fill-rule:evenodd;stroke:#1185e9;stroke-width:15;stroke-linecap:round;stroke-linejoin:round;stroke-miterlimit:4;stroke-dasharray:none;stroke-opacity:1"
     d="m 1022.4589,413.90786 46.2122,-6.9603 m -48.2712,5.45825 7.865,-46.06681 m 237.2012,-143.67308 c 0,0 -10.7649,29.7881 -19.9465,48.00748 -9.1816,18.21938 -15.7896,44.02645 -36.1976,60.41219 -20.408,16.38574 -43.8751,29.29939 -82.154,27.41103 -38.2789,-1.88836 -80.1427,28.57768 -79.1258,29.59455"
     inkscape:connector-curvature="0" /><path
     inkscape:connector-curvature="0"
     id="path3438"
     style="font-style:normal;font-weight:normal;font-size:medium;line-height:125%;font-family:sans-serif;letter-spacing:0px;word-spacing:0px;fill:#1185e9;fill-opacity:1;stroke:none;stroke-width:1px;stroke-linecap:butt;stroke-linejoin:miter;stroke-opacity:1"
     d="m 576.8514,78.774472 q 0,2.154534 -1.14909,3.375436 -1.14908,1.220903 -2.87271,1.795445 -1.72363,0.574543 -3.66271,0.718178 -1.93908,0.143636 -3.51907,0.143636 -3.15998,0 -6.31997,-0.07182 -3.15998,-0.07182 -6.31996,-0.07182 -1.50818,0 -3.01635,0 -1.50817,0 -3.01635,0.143636 -0.57454,1.220902 -0.71817,2.513622 -0.14364,1.220903 -0.14364,2.513623 0,6.750873 0.50272,13.358112 0.50273,6.60724 1.07727,13.35811 4.30907,-0.35909 8.61814,-0.86181 4.30906,-0.50273 8.76177,-1.14909 0.57454,0 1.07726,-0.0718 0.50273,-0.0718 1.07727,-0.0718 2.87271,0 2.87271,3.15998 0,0.86181 -0.21545,1.72363 -0.14364,0.86181 -0.50273,1.72362 -0.50272,1.43636 -1.6518,2.15454 -1.14909,0.64636 -2.58545,0.93363 -1.43635,0.21545 -3.01634,0.21545 -1.50818,-0.0718 -2.65726,0 l -11.20358,0.43091 q 0.43091,6.82269 0.93363,13.50174 0.50273,6.67906 1.07727,13.50175 0.57454,5.17088 0.93363,10.41358 0.43091,5.2427 1.22091,10.41358 l 0,1.14908 q 0,1.65181 -0.93364,2.22636 -0.93363,0.50272 -2.36998,0.50272 -2.65726,0 -5.02725,-0.86181 -1.57999,-0.57455 -2.36999,-1.36454 -0.78999,-0.86181 -1.14908,-1.86726 -0.28727,-1.07727 -0.35909,-2.29817 -0.0718,-1.22091 -0.14363,-2.65726 -0.64637,-10.84449 -1.43636,-21.54534 -0.79,-10.77267 -1.43636,-21.68897 -0.4309,-8.0436 -0.93363,-15.94355 -0.50272,-7.89996 -0.50272,-15.943557 0,-4.23725 0.50272,-7.181779 0.57454,-3.016347 2.08272,-4.88361 1.50817,-1.867263 4.30907,-2.729076 2.80089,-0.861814 7.32541,-0.861814 4.66816,0 9.2645,0.07182 4.59633,0.07182 9.26449,0.07182 1.65181,0 3.15998,-0.07182 1.50818,-0.143635 3.01635,0.215454 0.86181,0.143635 1.50817,0.502724 0.64637,0.287271 0.64637,1.364538 z" /><path
     inkscape:connector-curvature="0"
     id="path3440"
     style="font-style:normal;font-variant:normal;font-weight:normal;font-stretch:normal;font-size:medium;line-height:125%;font-family:'Just Another Hand';-inkscape-font-specification:'Just Another Hand';letter-spacing:0px;word-spacing:0px;fill:#454545;fill-opacity:1;stroke:none;stroke-width:1px;stroke-linecap:butt;stroke-linejoin:miter;stroke-opacity:1"
     d="m 588.27042,116.04791 q 0,1.2209 -0.57454,1.79544 -0.50272,0.50273 -1.93908,0.50273 -0.64636,0 -2.0109,-0.14364 -1.36453,-0.21545 -2.80089,-0.57454 -1.36454,-0.35909 -2.44181,-1.00545 -1.00544,-0.64636 -1.00544,-1.57999 0,-0.28727 0.21545,-1.57999 0.21545,-1.36454 0.50272,-2.87272 0.35909,-1.50817 0.57455,-2.72907 0.28727,-1.2209 0.4309,-1.36454 l 0,0.0718 q 0.35909,-0.57454 0.86182,-0.71818 0.50272,-0.14364 1.00545,-0.14364 0.64636,0 1.6518,0.21546 1.07727,0.14363 2.08272,0.50272 1.07727,0.28727 1.93908,0.79 0.86181,0.50272 1.07727,1.07727 0.21545,0.57454 0.21545,1.57999 0.0718,0.93363 0,1.72362 0,0.28727 -0.0718,0.71818 0,0.35909 0,0.57454 0,0.35909 0,0.71818 0.0718,0.35909 0.14364,0.71818 0.0718,0.35909 0.0718,0.79 0.0718,0.4309 0.0718,0.93363 z m 2.65726,57.23878 q 0,1.65181 -0.78999,2.36998 -0.71818,0.64636 -2.36999,0.64636 -0.86181,0 -1.93908,-0.21545 -1.00545,-0.21545 -2.0109,-0.57454 -1.00545,-0.43091 -1.86726,-1.00545 -0.86181,-0.57454 -1.29272,-1.29272 -0.28727,-0.43091 -0.50273,-2.65726 -0.21545,-2.22635 -0.35908,-5.52997 -0.0718,-3.30362 -0.21546,-7.39723 -0.0718,-4.09362 -0.14363,-8.25905 0,-4.16543 0,-8.11541 0,-3.94998 0,-6.89451 l 0,-5.52997 q 0,-0.71817 0,-1.43635 0.0718,-0.71818 0.28727,-1.2209 0.28727,-0.57455 0.78999,-0.93364 0.57455,-0.35908 1.57999,-0.35908 3.15999,0 4.59634,1.79544 1.50818,1.72363 1.86727,4.66816 0.35908,4.38088 0.50272,8.76177 0.21545,4.30906 0.35909,8.76177 0.14363,4.02179 0.21545,7.97177 0.14364,3.87816 0.50273,7.75632 0.0718,0.79 0.14363,1.50818 0.0718,0.71818 0.21546,1.43635 0.14363,1.43636 0.28727,2.87272 0.14363,1.36453 0.14363,2.87271 z" /><path
     inkscape:connector-curvature="0"
     id="path3442"
     style="font-style:normal;font-variant:normal;font-weight:normal;font-stretch:normal;font-size:medium;line-height:125%;font-family:'Just Another Hand';-inkscape-font-specification:'Just Another Hand';letter-spacing:0px;word-spacing:0px;fill:#454545;fill-opacity:1;stroke:none;stroke-width:1px;stroke-linecap:butt;stroke-linejoin:miter;stroke-opacity:1"
     d="m 604.21398,177.59576 q -1.07727,0 -2.36999,-0.28728 -1.2209,-0.28727 -2.36998,-0.93363 -1.07727,-0.64636 -1.86727,-1.57999 -0.71817,-1.00545 -0.71817,-2.36999 0,-2.01089 0.14363,-3.94997 0.21545,-2.0109 0.43091,-3.94998 l 0,0.0718 0.4309,-4.81179 q 0.21546,-2.58544 0.35909,-5.6736 0.14364,-3.08817 0.21546,-6.24815 0.14363,-3.2318 0.21545,-6.31997 0.0718,-3.08816 0.0718,-5.6736 0,-1.50818 -0.0718,-3.01635 0,-1.57999 0,-3.15998 -0.0718,-1.36454 -0.0718,-3.01635 0,-1.72363 0,-3.15998 0,-1.50818 0.35909,-2.44181 0.43091,-1.00545 2.29817,-1.00545 1.65181,0 3.44726,0.86182 1.86726,0.86181 2.58544,2.4418 l -0.0718,0 q 0.35909,0.79 0.50272,2.58544 0.21546,1.72363 0.28727,3.08817 1.22091,-1.86727 2.72908,-3.94998 1.57999,-2.08272 3.37544,-3.80634 1.79544,-1.79545 3.80634,-2.94453 2.0109,-1.14909 4.30907,-1.14909 3.01634,0 4.59634,1.50817 1.57999,1.50818 2.29816,3.80635 0.71818,2.22635 0.79,4.81179 0.0718,2.51362 0.0718,4.59634 l 0,0.57454 q 0,0.86181 -0.0718,1.72363 0,0.78999 -0.28727,1.50817 -0.21545,0.64636 -0.86181,1.07727 -0.57455,0.43091 -1.65181,0.43091 -1.14909,0 -2.44181,-0.28728 -1.29272,-0.35908 -2.4418,-1.00544 -1.07727,-0.64636 -1.86727,-1.58 -0.78999,-1.00545 -0.86181,-2.29817 0,-0.57454 0,-1.14908 0,-0.57454 0.0718,-1.14908 0,-0.35909 0,-0.86182 0.0718,-0.57454 0.0718,-1.07727 -2.29817,2.29817 -4.09362,5.67361 -1.72363,3.37544 -3.15998,7.18178 -1.36454,3.80634 -2.36999,7.6845 -1.00545,3.80635 -1.72363,6.89451 l 0,0.21545 q -0.21545,2.22636 -0.28727,4.38089 -0.0718,2.15453 -0.14363,4.4527 -0.0718,2.58544 -0.21546,5.2427 -0.0718,2.65726 -0.35908,5.17088 -0.14364,1.36454 -0.86182,2.08272 -0.64636,0.79 -2.22635,0.79 z" /><path
     inkscape:connector-curvature="0"
     id="path3444"
     style="font-style:normal;font-variant:normal;font-weight:normal;font-stretch:normal;font-size:medium;line-height:125%;font-family:'Just Another Hand';-inkscape-font-specification:'Just Another Hand';letter-spacing:0px;word-spacing:0px;fill:#454545;fill-opacity:1;stroke:none;stroke-width:1px;stroke-linecap:butt;stroke-linejoin:miter;stroke-opacity:1"
     d="m 660.66278,163.30401 q 0,2.15454 -1.22091,4.45271 -1.14908,2.29817 -3.01634,4.23725 -1.86726,1.86726 -4.30907,3.08816 -2.36999,1.2209 -4.73997,1.2209 -3.37544,0 -5.81725,-1.29272 -2.4418,-1.36453 -4.23725,-3.59088 -1.79544,-2.29817 -2.94452,-5.17089 -1.07727,-2.87271 -1.72363,-5.88906 -0.64636,-3.08816 -0.93363,-6.10451 -0.21546,-3.08816 -0.21546,-5.60179 0,-2.15453 0.21546,-5.09906 0.28727,-2.94453 0.86181,-6.10451 0.64636,-3.15998 1.72363,-6.24815 1.07726,-3.08816 2.65726,-5.52997 1.65181,-2.4418 3.87816,-3.94998 2.29817,-1.50817 5.2427,-1.50817 2.29816,0 4.09361,0.93363 1.86726,0.93363 3.08816,2.51362 1.29273,1.50818 1.93909,3.51907 0.71817,2.0109 0.71817,4.16544 0,2.80089 -1.29272,6.10451 -1.29272,3.30362 -3.37543,6.39178 -2.0109,3.08817 -4.59634,5.60179 -2.51362,2.44181 -5.02725,3.73453 0.14364,1.29272 0.57454,3.80634 0.43091,2.4418 1.14909,4.88361 0.79,2.4418 1.79544,4.23725 1.07727,1.79544 2.51363,1.79544 0.71817,0 1.2209,-0.4309 0.57454,-0.43091 1.00545,-1.14909 0.43091,-0.71818 0.71818,-1.57999 0.35909,-0.86181 0.64636,-1.65181 l 0.4309,-1.00545 q 0.14364,-0.21545 0.14364,-0.28727 0.0718,-0.0718 0.14363,-0.21545 0.50273,-0.93363 0.93364,-1.72363 0.50272,-0.79 1.36453,-1.36454 l -0.0718,0 q 0.28727,-0.28727 0.57454,-0.28727 0.35909,-0.0718 0.64636,-0.0718 0.78999,0 1.72363,0.50273 0.93363,0.50272 1.72362,1.29272 0.79,0.71818 1.29272,1.65181 0.50273,0.86181 0.50273,1.72362 z m -14.21993,-31.67164 q 0,-0.71818 -0.0718,-1.50818 -0.0718,-0.78999 -0.35909,-1.36453 -1.00545,1.2209 -1.79545,2.94453 -0.71818,1.6518 -1.2209,3.51907 -0.50272,1.79544 -0.86181,3.6627 -0.28727,1.86727 -0.43091,3.44726 1.86726,-2.22635 3.30362,-5.02725 1.43635,-2.87271 1.43635,-5.6736 z" /><path
     inkscape:connector-curvature="0"
     id="path3446"
     style="font-style:normal;font-variant:normal;font-weight:normal;font-stretch:normal;font-size:medium;line-height:125%;font-family:'Just Another Hand';-inkscape-font-specification:'Just Another Hand';letter-spacing:0px;word-spacing:0px;fill:#454545;fill-opacity:1;stroke:none;stroke-width:1px;stroke-linecap:butt;stroke-linejoin:miter;stroke-opacity:1"
     d="m 692.40622,87.177154 q 0,0.789996 -0.71817,1.364538 -0.64636,0.502725 -1.58,0.861813 -0.93363,0.287272 -1.86726,0.430907 -0.93363,0.143636 -1.43635,0.143636 -1.65181,0 -3.08817,-0.502725 -1.43635,-0.574542 -3.08816,-0.64636 -2.36999,0.64636 -4.23725,2.872712 -1.86727,2.226351 -2.94453,6.463601 -1.07727,4.237254 -1.22091,10.629034 -0.14363,6.39178 0.93364,15.44083 4.52452,-0.93364 8.40268,-1.58 3.94998,-0.71817 6.10451,-0.71817 1.72363,0 2.36999,0.93363 0.64636,0.93363 0.64636,2.36998 0,1.43636 -0.28727,2.65726 -0.28728,1.2209 -1.50818,2.0109 l -15.00992,2.29817 q 0.35909,3.01635 0.57455,6.10451 0.28727,3.01635 0.57454,5.96088 1.14908,9.33631 1.93908,15.29719 0.86181,5.96088 1.36454,9.55177 0.57454,3.51907 0.86181,5.09906 0.35909,1.50817 0.50272,2.08271 0.14364,0.50273 0.14364,0.43091 0.0718,-0.0718 0.0718,0.14364 0,1.50817 -0.93363,2.08271 -0.93363,0.64636 -2.22635,0.64636 -1.00545,0 -2.15454,-0.21545 -1.07727,-0.14364 -2.15453,-0.50272 -1.07727,-0.35909 -1.93908,-1.00545 -0.86182,-0.64636 -1.22091,-1.58 -0.57454,-4.8836 -1.36453,-9.33631 -0.79,-4.4527 -1.36454,-9.26449 -0.57454,-5.67361 -1.29272,-12.06539 -0.64636,-6.39179 -1.07727,-12.20903 -0.28727,0.0718 -0.57454,0.0718 -0.28727,-0.0718 -0.64636,-0.0718 -1.14909,0 -1.93908,-0.50272 -0.71818,-0.57454 -0.71818,-2.0109 0,-1.65181 0.79,-3.01635 0.86181,-1.36454 2.51362,-1.79544 -0.21545,-3.94998 -0.50273,-8.76177 -0.28727,-4.8118 -0.21545,-9.76722 0.0718,-5.02725 0.79,-9.695405 0.78999,-4.739974 2.72907,-8.330864 1.93908,-3.662707 5.31452,-5.889059 3.37544,-2.226352 8.68995,-2.226352 1.07727,0 3.01635,0.359089 2.0109,0.359089 4.0218,1.149085 2.01089,0.718178 3.44725,1.795445 1.50817,1.077267 1.50817,2.441805 z" /><path
     inkscape:connector-curvature="0"
     id="path3448"
     style="font-style:normal;font-variant:normal;font-weight:normal;font-stretch:normal;font-size:medium;line-height:125%;font-family:'Just Another Hand';-inkscape-font-specification:'Just Another Hand';letter-spacing:0px;word-spacing:0px;fill:#454545;fill-opacity:1;stroke:none;stroke-width:1px;stroke-linecap:butt;stroke-linejoin:miter;stroke-opacity:1"
     d="m 723.0006,147.00138 q 0,6.24814 -1.07727,12.49629 -1.00545,6.17633 -4.23725,11.7063 -1.00545,1.65181 -2.29817,3.2318 -1.29272,1.50818 -2.87271,2.72908 -1.50818,1.29272 -3.37544,2.0109 -1.79544,0.78999 -3.80634,0.78999 -3.15998,0 -5.52997,-1.50817 -2.29817,-1.43636 -4.0218,-3.80634 -1.65181,-2.44181 -2.80089,-5.45816 -1.07727,-3.08816 -1.72363,-6.24814 -0.57454,-3.23181 -0.86181,-6.24815 -0.21546,-3.01635 -0.21546,-5.31452 0,-2.58544 0.21546,-5.6736 0.21545,-3.08817 0.71818,-6.31997 0.57454,-3.2318 1.43635,-6.39178 0.93363,-3.15999 2.36999,-5.88906 1.43635,-2.8009 3.44725,-4.95543 2.0109,-2.22635 4.66816,-3.51907 l 0,0.0718 q 2.29817,-1.2209 4.59634,-1.2209 1.43635,0 2.22635,0.64636 0.79,0.57454 0.71818,2.0109 3.94998,0.71818 6.39178,3.80634 2.44181,3.08817 3.73453,7.18178 1.36453,4.09362 1.79544,8.40268 0.50273,4.30907 0.50273,7.46906 z m -16.23083,-17.95445 q -1.2209,0 -2.29817,-0.93363 -1.36453,2.08271 -2.29816,4.81179 -0.93364,2.65726 -1.50818,5.52997 -0.50272,2.80089 -0.71818,5.6736 -0.21545,2.87272 -0.21545,5.38634 0,2.08271 0.21545,5.38633 0.21546,3.2318 0.79,6.53542 0.64636,3.30362 1.72363,6.17633 1.14908,2.87271 2.94453,4.23725 2.22635,-1.29272 3.6627,-4.09361 1.50818,-2.87271 2.36999,-6.24815 0.86181,-3.37544 1.14909,-6.82269 0.35908,-3.44725 0.35908,-5.88906 0,-1.79544 -0.21545,-4.66816 -0.21545,-2.87271 -0.71818,-5.81724 -0.50272,-3.01634 -1.43635,-5.60179 -0.86182,-2.58544 -2.22635,-3.87816 -0.64636,0.21546 -1.58,0.21546 z" /><path
     inkscape:connector-curvature="0"
     id="path3450"
     style="font-style:normal;font-variant:normal;font-weight:normal;font-stretch:normal;font-size:medium;line-height:125%;font-family:'Just Another Hand';-inkscape-font-specification:'Just Another Hand';letter-spacing:0px;word-spacing:0px;fill:#454545;fill-opacity:1;stroke:none;stroke-width:1px;stroke-linecap:butt;stroke-linejoin:miter;stroke-opacity:1"
     d="m 758.76588,173.93305 q 0,0.86181 -0.64636,1.36454 -0.57455,0.4309 -1.36454,0.64636 -0.79,0.21545 -1.65181,0.28727 -0.86181,0.0718 -1.36454,0.0718 -1.07727,0 -1.93908,-0.0718 -0.86181,-0.0718 -1.65181,-0.35909 -0.71818,-0.28727 -1.36454,-0.86182 -0.64636,-0.57454 -1.29272,-1.57999 -1.2209,-2.22635 -2.29817,-4.59634 -1.00544,-2.36998 -2.01089,-4.66815 -0.50273,-1.29272 -0.86182,-2.08272 -0.28727,-0.78999 -0.86181,-2.0109 -1.57999,4.09362 -3.2318,7.97178 -1.57999,3.87816 -3.30362,7.75632 -0.50272,1.00545 -1.14908,1.93908 -0.57455,1.00545 -2.08272,1.00545 -0.79,0 -1.93908,-0.50272 -1.07727,-0.43091 -2.15454,-1.22091 -1.00544,-0.71818 -1.79544,-1.65181 -0.71818,-0.93363 -0.71818,-1.86726 0,-0.71818 0.28727,-1.43635 0.28727,-0.79 0.64636,-1.50818 l -0.0718,0 q 2.72907,-5.88906 5.09906,-11.56266 2.4418,-5.74543 4.81179,-11.56267 -0.50272,-1.14908 -1.43635,-3.51907 -0.86182,-2.36999 -1.93909,-5.2427 -1.07726,-2.87271 -2.22635,-6.03269 -1.14908,-3.15999 -2.08271,-5.88906 -0.86182,-2.8009 -1.50818,-4.88361 -0.57454,-2.15454 -0.57454,-3.01635 0,-1.43636 0.86181,-1.79544 0.93364,-0.43091 2.08272,-0.43091 2.29817,0 3.94998,0.93363 1.72363,0.93363 2.65726,3.15998 0.35909,0.93363 0.71818,2.0109 0.4309,1.00545 0.71817,2.0109 l 0.64636,1.79544 q 0.86182,2.29817 1.50818,4.16544 0.71818,1.86726 1.72362,4.09361 1.79545,-4.59634 3.30362,-9.47995 1.57999,-4.95543 2.29817,-9.91085 l 0.21546,-1.93908 q 0,-1.00545 0.28727,-2.15454 0.35909,-1.00545 0.78999,-1.50817 0.50273,-0.50273 1.72363,-0.50273 1.14908,0 2.22635,0.35909 1.07727,0.35909 1.93908,1.07727 0.86182,0.64636 1.36454,1.65181 0.57454,0.93363 0.57454,2.22635 0,2.0109 -0.50272,4.73998 -0.43091,2.65725 -1.22091,5.6736 -0.78999,2.94453 -1.79544,6.10451 -0.93363,3.15999 -2.0109,6.17633 -1.00545,2.94453 -2.0109,5.60179 -0.93363,2.58544 -1.65181,4.52452 l 4.38089,9.2645 q 1.29272,2.72907 2.65726,5.6736 1.43635,2.94453 2.58544,5.45816 1.14908,2.4418 1.86726,4.16543 0.79,1.72362 0.79,1.93908 z" /><path
     inkscape:connector-curvature="0"
     id="path3452"
     style="font-style:normal;font-weight:normal;font-size:medium;line-height:125%;font-family:sans-serif;letter-spacing:0px;word-spacing:0px;fill:#1185e9;fill-opacity:1;stroke:none;stroke-width:1px;stroke-linecap:butt;stroke-linejoin:miter;stroke-opacity:1"
     d="m 835.75453,136.94688 q 0,1.50818 -1.07727,3.15999 -1.07726,1.65181 -2.36998,2.4418 -0.35909,0.21546 -1.2209,0.43091 -0.86182,0.21545 -1.86727,0.43091 -0.93363,0.14363 -1.86726,0.35908 -0.86181,0.14364 -1.36454,0.21546 l 1.72363,10.62903 q 0.78999,4.95543 1.14908,9.98267 0.43091,4.95543 1.86727,9.83904 0.14363,0.43091 0.28727,0.79 0.14363,0.35909 0.14363,0.93363 0,0.93363 -0.57454,1.43636 -0.50272,0.50272 -1.29272,0.71817 -0.71818,0.28727 -1.57999,0.35909 -0.86181,0.0718 -1.57999,0.0718 l -1.00545,0 q -2.22635,0 -3.44726,-0.35909 -1.14908,-0.35909 -1.79544,-1.2209 -0.64636,-0.86182 -0.86181,-2.15454 -0.21546,-1.36453 -0.50273,-3.30361 -1.72363,-13.14266 -3.87816,-26.28532 -4.4527,0.57455 -8.97722,1.07727 -4.45271,0.50273 -8.97723,0.93363 l -2.29817,14.07629 q -0.14363,1.29272 -0.4309,3.51907 -0.21546,2.22635 -0.57455,4.59634 -0.28727,2.29817 -0.71817,4.30907 -0.35909,2.0109 -0.86182,2.94453 -0.4309,0.86181 -0.78999,1.2209 -0.35909,0.35909 -1.36454,0.35909 -1.29272,0 -2.58544,-0.50273 -1.2209,-0.4309 -2.22635,-1.29272 -0.93363,-0.78999 -1.50818,-1.93908 -0.57454,-1.14908 -0.57454,-2.58544 0,-1.43635 0.28727,-2.87271 0.35909,-1.43635 0.57454,-2.87271 0.79,-4.73997 1.43636,-9.40813 0.64636,-4.73998 1.43636,-9.40813 -0.50273,-0.0718 -1.14909,-0.21546 -0.64636,-0.21545 -1.29272,-0.50272 -0.57454,-0.28727 -1.00545,-0.71818 -0.43091,-0.4309 -0.43091,-1.00545 0,-0.71818 0.50273,-1.29272 0.57454,-0.64636 1.29272,-1.14908 0.79,-0.57454 1.57999,-0.93363 0.79,-0.43091 1.36454,-0.64636 1.50817,-10.05449 2.87271,-20.03717 1.36454,-9.98267 2.44181,-20.1808 0.28727,-2.729074 0.50272,-5.529968 0.21545,-2.800894 0.43091,-5.601788 0.28727,-2.800893 0.64636,-5.52997 0.4309,-2.729076 1.14908,-5.458152 0.64636,-2.58544 2.15454,-4.165432 1.50817,-1.579991 4.4527,-1.579991 0.86181,0 1.65181,0.143635 0.86181,0.143636 1.50817,0.574543 1.86726,0.933631 3.87816,5.099063 2.0109,4.165432 4.0218,10.126309 2.0109,5.889059 3.80634,12.783571 1.86726,6.8945 3.37544,13.35811 1.50817,6.4636 2.58544,11.7063 1.07727,5.17088 1.57999,7.6845 1.50817,-0.21545 3.01635,-0.35909 1.50817,-0.21545 3.01634,-0.21545 0.71818,0 1.65181,0.0718 0.93364,0.0718 1.72363,0.43091 0.86181,0.28727 1.36454,0.93363 0.57454,0.57455 0.57454,1.57999 z m -22.55079,-0.57454 q -1.86726,-10.19812 -4.09361,-20.1808 -2.15453,-10.05449 -5.09906,-20.037162 -1.29272,10.844482 -2.8009,21.545342 -1.50817,10.70085 -3.2318,21.4017 3.87816,-0.57454 7.61269,-1.2209 3.80634,-0.71818 7.61268,-1.50818 z" /><path
     inkscape:connector-curvature="0"
     id="path3454"
     style="font-style:normal;font-weight:normal;font-size:medium;line-height:125%;font-family:sans-serif;letter-spacing:0px;word-spacing:0px;fill:#1185e9;fill-opacity:1;stroke:none;stroke-width:1px;stroke-linecap:butt;stroke-linejoin:miter;stroke-opacity:1"
     d="m 901.89873,165.96127 q 0,1.65181 -1.79545,3.15999 -1.72363,1.50817 -4.52452,2.80089 -2.72908,1.2209 -6.10451,2.29817 -3.30362,1.00545 -6.53542,1.72363 -3.15998,0.71817 -5.81724,1.07726 -2.65726,0.43091 -3.94998,0.43091 -2.44181,0 -4.52452,-0.57454 -2.0109,-0.57455 -3.51907,-1.72363 -1.50818,-1.2209 -2.36999,-3.08816 -0.79,-1.86727 -0.79,-4.52453 0,-19.17535 0.14364,-38.20706 0.14363,-19.03172 0.14363,-38.350703 0,-3.016347 -0.14363,-5.960877 -0.14364,-2.944529 -0.14364,-5.960877 0,-0.718178 0.0718,-1.651809 0.0718,-1.005449 0.35909,-1.795445 0.28727,-0.861813 0.86181,-1.436356 0.57455,-0.574542 1.58,-0.574542 1.00544,0 2.08271,0.287271 1.14909,0.287271 2.08272,0.861814 1.00545,0.574542 1.72362,1.436356 0.79,0.789995 1.14909,1.867262 0.35909,1.29272 0.28727,2.800894 0,1.436356 0,2.94453 0.35909,19.103532 0.50272,37.919792 0.21546,18.81626 0.21546,37.9198 0,2.15453 0,4.30906 0.0718,2.15454 0.28727,4.30907 1.93908,-0.0718 4.73997,-0.64636 2.8009,-0.57454 5.60179,-1.43635 2.87271,-0.93364 5.38634,-2.08272 2.51362,-1.14908 3.94997,-2.4418 0.64636,-0.64636 1.36454,-1.29273 0.71818,-0.71817 1.79545,-0.71817 0.93363,0 1.93908,0.64636 1.07726,0.64636 1.93908,1.65181 0.86181,0.93363 1.43635,2.01089 0.57455,1.07727 0.57455,2.0109 z" /><path
     inkscape:connector-curvature="0"
     id="path3456"
     style="font-style:normal;font-variant:normal;font-weight:normal;font-stretch:normal;font-size:medium;line-height:125%;font-family:'Just Another Hand';-inkscape-font-specification:'Just Another Hand';letter-spacing:0px;word-spacing:0px;fill:#454545;fill-opacity:1;stroke:none;stroke-width:1px;stroke-linecap:butt;stroke-linejoin:miter;stroke-opacity:1"
     d="m 933.42677,175.51304 q 0,1.43636 -0.71818,1.93908 -0.71818,0.57454 -2.0109,0.57454 -3.37544,0 -4.88361,-1.79544 -1.43636,-1.79545 -2.15453,-4.73998 -0.21546,-1.00545 -0.43091,-2.0109 -0.21545,-1.07726 -0.35909,-2.08271 -0.14364,-0.93363 -0.28727,-1.29272 -0.14364,-0.35909 -0.28727,-1.36454 -0.86182,2.08272 -2.15454,4.38089 -1.2209,2.22635 -2.87271,4.16543 -1.65181,1.86726 -3.73452,3.08816 -2.0109,1.22091 -4.45271,1.22091 -2.58544,0 -4.30906,-1.22091 -1.72363,-1.29272 -2.72908,-3.15998 -0.93363,-1.93908 -1.36454,-4.23725 -0.35909,-2.29817 -0.35909,-4.38089 0,-4.88361 0.93363,-10.55721 1.00545,-5.74542 2.72908,-11.41903 1.72363,-5.74542 4.0218,-10.98812 2.29817,-5.31452 5.02724,-9.2645 l 0,0.0718 0.43091,-0.64636 q 0.78999,-1.07727 1.79544,-2.29817 1.07727,-1.29272 2.51363,-1.29272 1.36453,0 2.36998,1.2209 1.00545,1.14909 1.43636,2.44181 1.86726,0.35909 3.01635,0.93363 1.14908,0.50272 1.79544,1.29272 0.64636,0.79 0.86182,1.86726 0.21545,1.00545 0.21545,2.22635 0,0.50273 0,1.07727 0,0.57454 -0.0718,1.14909 -0.0718,0.57454 -0.0718,1.36453 0,0.79 0,1.43636 0,0.71818 0.21546,1.86726 0.28727,1.14909 0.57454,2.36999 l 0.50272,2.65726 q 0.35909,2.08271 0.57455,4.73997 0.28727,2.65726 0.64636,5.31452 0.28727,2.72907 0.57454,5.31451 0.28727,2.51363 0.57454,4.66816 l 1.72363,10.62903 0.21545,1.22091 q 0.14364,0.93363 0.28727,1.72362 0.21546,0.79 0.21546,1.79545 z m -16.44628,-41.29523 q 0,-0.14364 -0.0718,-0.43091 -0.0718,-0.35909 -0.14363,-0.71818 -1.65181,3.51908 -2.94453,7.68451 -1.2209,4.09361 -2.08272,8.40268 -0.78999,4.23725 -1.2209,8.54632 -0.35909,4.23725 -0.35909,8.04359 0,0.35909 0,0.64636 0,0.28727 0.0718,0.57454 l 0,0.0718 q 1.72363,-2.65726 2.94453,-6.96633 1.29272,-4.38088 2.15453,-9.12086 0.86182,-4.81179 1.2209,-9.26449 0.43091,-4.52452 0.43091,-7.46905 z" /><path
     inkscape:connector-curvature="0"
     id="path3458"
     style="font-style:normal;font-weight:normal;font-size:medium;line-height:125%;font-family:sans-serif;letter-spacing:0px;word-spacing:0px;fill:#1185e9;fill-opacity:1;stroke:none;stroke-width:1px;stroke-linecap:butt;stroke-linejoin:miter;stroke-opacity:1"
     d="m 1006.4654,99.170725 q 0,7.109965 -2.2981,14.291745 -2.2264,7.18178 -6.31999,13.42992 -4.02179,6.24815 -9.6954,11.13176 -5.67361,4.88361 -12.42448,7.39723 0.43091,5.96088 1.00545,11.84994 0.57454,5.88906 1.57999,11.84994 0.21546,1.07726 0.43091,2.22635 0.28727,1.14908 0.28727,2.36998 0,1.86727 -0.93363,2.51363 -0.93363,0.64636 -2.65726,0.64636 -1.2209,0 -2.94453,-0.28727 -1.72363,-0.28728 -2.94453,-0.86182 -1.43635,-0.78999 -1.93908,-1.57999 -0.43091,-0.86181 -0.64636,-2.29817 -1.2209,-6.10451 -1.50817,-12.20902 -0.21546,-6.10452 -0.64636,-12.20903 -1.43636,-0.14363 -2.36999,-0.71818 -0.93363,-0.64636 -0.93363,-2.15453 0,-1.43636 0.78999,-3.01635 0.86182,-1.57999 1.93909,-2.4418 -0.64636,-13.35811 -0.57455,-26.50077 0.14364,-13.142654 0,-26.500763 -0.35909,0.143636 -0.64636,0.215453 -0.28727,0.07182 -0.64636,0.07182 -0.78999,0 -1.29272,-0.359089 -0.50272,-0.430907 -0.86181,-1.005449 -0.28727,-0.574542 -0.43091,-1.220902 -0.14363,-0.718178 -0.14363,-1.292721 0,-2.154533 1.07726,-3.088165 1.07727,-1.005449 2.94453,-1.795445 0,-0.789995 0,-1.795444 0.0718,-1.077267 0.28727,-1.939081 0.28728,-0.933631 0.86182,-1.508173 0.57454,-0.646361 1.72362,-0.646361 1.86727,0 3.59089,0.718178 1.72363,0.718178 2.58544,2.441805 2.51363,-0.430906 4.88361,-0.789995 2.36999,-0.359089 4.88361,-0.359089 5.67361,0 10.12631,1.93908 4.45271,1.867263 7.54089,5.314517 3.0881,3.375436 4.6681,8.043593 1.6518,4.668156 1.6518,10.126308 z m -10.77262,-1.29272 q 0,-3.303618 -0.86181,-6.17633 -0.86182,-2.94453 -2.58545,-5.027246 -1.72362,-2.154533 -4.38088,-3.375436 -2.65726,-1.220902 -6.24815,-1.220902 -1.93908,0 -3.94998,0.287271 -1.93908,0.287271 -3.80634,0.861813 0,13.142656 0.14364,26.069855 0.21545,12.92721 1.00544,25.92623 4.59634,-2.36999 8.40269,-6.60724 3.80634,-4.23725 6.53542,-9.33631 2.72907,-5.17088 4.23724,-10.70085 1.50818,-5.60179 1.50818,-10.700855 z" /><path
     inkscape:connector-curvature="0"
     id="path3460"
     style="font-style:normal;font-variant:normal;font-weight:normal;font-stretch:normal;font-size:medium;line-height:125%;font-family:'Just Another Hand';-inkscape-font-specification:'Just Another Hand';letter-spacing:0px;word-spacing:0px;fill:#454545;fill-opacity:1;stroke:none;stroke-width:1px;stroke-linecap:butt;stroke-linejoin:miter;stroke-opacity:1"
     d="m 1029.1598,178.52939 q 0,1.00545 -0.5027,1.65181 -0.5027,0.64636 -1.2927,1.00544 -0.7182,0.43091 -1.6518,0.57455 -0.8618,0.21545 -1.58,0.21545 -2.5136,0 -4.3809,-1.43636 -1.8673,-1.43635 -3.2318,-3.73452 -1.3645,-2.22635 -2.2263,-5.09906 -0.8619,-2.94453 -1.4364,-5.81725 -0.5745,-2.94452 -0.8618,-5.60178 -0.2873,-2.72908 -0.4309,-4.66816 -0.6464,-6.67905 -0.9337,-13.57356 -0.2154,-6.89451 -0.2154,-13.64538 0,-18.45718 1.2927,-36.55526 0,-0.287271 0,-0.64636 0.072,-0.359089 0.072,-0.718178 0.072,-1.508173 0.1437,-3.447254 0.072,-2.010898 0.2154,-3.949978 0.1437,-1.939081 0.2873,-3.519072 0.2154,-1.651809 0.5027,-2.29817 l 0,0.07182 q 0.2873,-1.005449 0.79,-1.508173 0.5027,-0.502725 1.7236,-0.502725 2.5855,0 4.3809,1.723627 1.7955,1.723627 1.7955,4.309068 0,0.574542 -0.072,1.149084 0,0.502725 -0.072,1.005449 -0.072,0.502725 -0.1436,1.00545 0,0.430906 0,0.789995 -0.2155,2.800894 -0.3591,5.601788 -0.072,2.729076 -0.2154,5.52997 -0.3591,6.176329 -0.5746,12.352659 -0.1436,6.10451 -0.1436,12.35266 0,2.65726 0.072,6.96633 0.072,4.30906 0.2873,9.40813 0.2154,5.02724 0.5745,10.41358 0.4309,5.38633 1.0773,10.26994 0.6463,4.88361 1.5082,8.83359 0.9336,3.94998 2.1545,6.10451 0.6463,0.28727 1.2209,0.93363 0.6463,0.57455 1.0773,1.36454 0.5027,0.71818 0.79,1.50818 0.359,0.86181 0.359,1.57999 z" /><path
     inkscape:connector-curvature="0"
     id="path3462"
     style="font-style:normal;font-variant:normal;font-weight:normal;font-stretch:normal;font-size:medium;line-height:125%;font-family:'Just Another Hand';-inkscape-font-specification:'Just Another Hand';letter-spacing:0px;word-spacing:0px;fill:#454545;fill-opacity:1;stroke:none;stroke-width:1px;stroke-linecap:butt;stroke-linejoin:miter;stroke-opacity:1"
     d="m 1061.5497,175.51304 q 0,1.43636 -0.7182,1.93908 -0.7182,0.57454 -2.0109,0.57454 -3.3754,0 -4.8836,-1.79544 -1.4364,-1.79545 -2.1545,-4.73998 -0.2155,-1.00545 -0.4309,-2.0109 -0.2155,-1.07726 -0.3591,-2.08271 -0.1437,-0.93363 -0.2873,-1.29272 -0.1436,-0.35909 -0.2873,-1.36454 -0.8618,2.08272 -2.1545,4.38089 -1.2209,2.22635 -2.8727,4.16543 -1.6518,1.86726 -3.7345,3.08816 -2.0109,1.22091 -4.4527,1.22091 -2.5855,0 -4.3091,-1.22091 -1.7236,-1.29272 -2.7291,-3.15998 -0.9336,-1.93908 -1.3645,-4.23725 -0.3591,-2.29817 -0.3591,-4.38089 0,-4.88361 0.9336,-10.55721 1.0055,-5.74542 2.7291,-11.41903 1.7236,-5.74542 4.0218,-10.98812 2.2982,-5.31452 5.0272,-9.2645 l 0,0.0718 0.4309,-0.64636 q 0.79,-1.07727 1.7955,-2.29817 1.0773,-1.29272 2.5136,-1.29272 1.3645,0 2.37,1.2209 1.0054,1.14909 1.4364,2.44181 1.8672,0.35909 3.0163,0.93363 1.1491,0.50272 1.7954,1.29272 0.6464,0.79 0.8619,1.86726 0.2154,1.00545 0.2154,2.22635 0,0.50273 0,1.07727 0,0.57454 -0.072,1.14909 -0.072,0.57454 -0.072,1.36453 0,0.79 0,1.43636 0,0.71818 0.2154,1.86726 0.2873,1.14909 0.5746,2.36999 l 0.5027,2.65726 q 0.3591,2.08271 0.5745,4.73997 0.2873,2.65726 0.6464,5.31452 0.2873,2.72907 0.5745,5.31451 0.2873,2.51363 0.5746,4.66816 l 1.7236,10.62903 0.2155,1.22091 q 0.1436,0.93363 0.2872,1.72362 0.2155,0.79 0.2155,1.79545 z m -16.4463,-41.29523 q 0,-0.14364 -0.072,-0.43091 -0.072,-0.35909 -0.1436,-0.71818 -1.6518,3.51908 -2.9446,7.68451 -1.2209,4.09361 -2.0827,8.40268 -0.79,4.23725 -1.2209,8.54632 -0.3591,4.23725 -0.3591,8.04359 0,0.35909 0,0.64636 0,0.28727 0.072,0.57454 l 0,0.0718 q 1.7237,-2.65726 2.9446,-6.96633 1.2927,-4.38088 2.1545,-9.12086 0.8618,-4.81179 1.2209,-9.26449 0.4309,-4.52452 0.4309,-7.46905 z" /><path
     inkscape:connector-curvature="0"
     id="path3464"
     style="font-style:normal;font-variant:normal;font-weight:normal;font-stretch:normal;font-size:medium;line-height:125%;font-family:'Just Another Hand';-inkscape-font-specification:'Just Another Hand';letter-spacing:0px;word-spacing:0px;fill:#454545;fill-opacity:1;stroke:none;stroke-width:1px;stroke-linecap:butt;stroke-linejoin:miter;stroke-opacity:1"
     d="m 1094.4422,160.35948 q 0,1.50818 -0.5027,3.08817 -0.5027,1.57999 -1.1491,3.01635 -0.8618,2.08271 -2.0827,4.09361 -1.2209,1.93908 -2.8009,3.51907 -1.58,1.50818 -3.5909,2.44181 -2.0109,0.93363 -4.5245,0.93363 -4.4527,0 -7.3972,-2.22635 -2.9446,-2.22635 -4.6682,-5.60179 -1.7236,-3.37544 -2.4418,-7.39723 -0.6464,-4.0218 -0.6464,-7.61269 0,-2.65726 0.2155,-6.24815 0.2154,-3.6627 0.79,-7.54086 0.6463,-3.87817 1.7954,-7.68451 1.2209,-3.80634 3.0882,-6.75087 1.8673,-3.01635 4.5245,-4.88361 2.7291,-1.86726 6.4636,-1.86726 0.79,0 2.2982,0.28727 1.5082,0.28727 2.9445,0.86181 1.5082,0.50273 2.5855,1.43636 1.149,0.86181 1.149,2.0109 0,1.07726 -1.0054,1.6518 -0.9336,0.57455 -2.2982,0.86182 -1.2927,0.21545 -2.7291,0.28727 -1.3645,0 -2.2263,0 l -1.2927,0 q -2.0109,1.79544 -3.3036,5.31452 -1.2928,3.44725 -2.0109,7.39723 -0.7182,3.94998 -1.0055,7.82814 -0.2873,3.80634 -0.2873,6.24815 0,3.44725 0.5028,6.82269 0.5745,3.30361 2.2263,6.24814 0.3591,0.64636 1.0055,1.50818 0.7181,0.78999 1.5799,0.78999 0.6464,0 1.2928,-1.07726 0.7181,-1.07727 1.2927,-2.51363 0.5745,-1.43635 0.9336,-2.80089 0.3591,-1.36454 0.5027,-2.0109 0.072,-0.28727 0.072,-0.64636 0,-0.35909 0,-0.71818 0,-0.64636 0,-1.2209 0.072,-0.64636 0.2154,-1.00545 0.5027,-1.2209 1.2927,-1.65181 0.8619,-0.4309 2.0828,-0.4309 1.0772,0 2.2981,0.28727 1.2209,0.28727 2.2982,0.93363 1.0773,0.64636 1.7954,1.65181 0.7182,1.00545 0.7182,2.36998 z" /><path
     inkscape:connector-curvature="0"
     id="path3466"
     style="font-style:normal;font-variant:normal;font-weight:normal;font-stretch:normal;font-size:medium;line-height:125%;font-family:'Just Another Hand';-inkscape-font-specification:'Just Another Hand';letter-spacing:0px;word-spacing:0px;fill:#454545;fill-opacity:1;stroke:none;stroke-width:1px;stroke-linecap:butt;stroke-linejoin:miter;stroke-opacity:1"
     d="m 1125.4675,163.30401 q 0,2.15454 -1.2209,4.45271 -1.1491,2.29817 -3.0163,4.23725 -1.8673,1.86726 -4.3091,3.08816 -2.37,1.2209 -4.74,1.2209 -3.3754,0 -5.8172,-1.29272 -2.4418,-1.36453 -4.2373,-3.59088 -1.7954,-2.29817 -2.9445,-5.17089 -1.0773,-2.87271 -1.7236,-5.88906 -0.6464,-3.08816 -0.9336,-6.10451 -0.2155,-3.08816 -0.2155,-5.60179 0,-2.15453 0.2155,-5.09906 0.2872,-2.94453 0.8618,-6.10451 0.6463,-3.15998 1.7236,-6.24815 1.0773,-3.08816 2.6573,-5.52997 1.6518,-2.4418 3.8781,-3.94998 2.2982,-1.50817 5.2427,-1.50817 2.2982,0 4.0936,0.93363 1.8673,0.93363 3.0882,2.51362 1.2927,1.50818 1.9391,3.51907 0.7182,2.0109 0.7182,4.16544 0,2.80089 -1.2928,6.10451 -1.2927,3.30362 -3.3754,6.39178 -2.0109,3.08817 -4.5963,5.60179 -2.5137,2.44181 -5.0273,3.73453 0.1436,1.29272 0.5746,3.80634 0.4309,2.4418 1.149,4.88361 0.79,2.4418 1.7955,4.23725 1.0772,1.79544 2.5136,1.79544 0.7182,0 1.2209,-0.4309 0.5746,-0.43091 1.0055,-1.14909 0.4309,-0.71818 0.7181,-1.57999 0.3591,-0.86181 0.6464,-1.65181 l 0.4309,-1.00545 q 0.1436,-0.21545 0.1436,-0.28727 0.072,-0.0718 0.1437,-0.21545 0.5027,-0.93363 0.9336,-1.72363 0.5027,-0.79 1.3645,-1.36454 l -0.072,0 q 0.2873,-0.28727 0.5746,-0.28727 0.3591,-0.0718 0.6463,-0.0718 0.79,0 1.7237,0.50273 0.9336,0.50272 1.7236,1.29272 0.79,0.71818 1.2927,1.65181 0.5027,0.86181 0.5027,1.72362 z m -14.2199,-31.67164 q 0,-0.71818 -0.072,-1.50818 -0.072,-0.78999 -0.3591,-1.36453 -1.0055,1.2209 -1.7954,2.94453 -0.7182,1.6518 -1.221,3.51907 -0.5027,1.79544 -0.8618,3.6627 -0.2872,1.86727 -0.4309,3.44726 1.8673,-2.22635 3.3036,-5.02725 1.4364,-2.87271 1.4364,-5.6736 z" /><path
     inkscape:connector-curvature="0"
     id="path3468"
     style="font-style:normal;font-variant:normal;font-weight:normal;font-stretch:normal;font-size:medium;line-height:125%;font-family:'Just Another Hand';-inkscape-font-specification:'Just Another Hand';letter-spacing:0px;word-spacing:0px;fill:#454545;fill-opacity:1;stroke:none;stroke-width:1px;stroke-linecap:butt;stroke-linejoin:miter;stroke-opacity:1"
     d="m 1182.3472,174.22032 q 0,0.78999 -0.3591,1.36454 -0.3591,0.50272 -0.9336,0.86181 -0.5027,0.28727 -1.1491,0.43091 -0.5745,0.14363 -1.1491,0.14363 -0.8618,0 -1.8672,-0.21545 -1.0055,-0.21545 -2.0109,-0.57454 -1.0055,-0.43091 -1.8673,-1.00545 -0.79,-0.64636 -1.2209,-1.43636 -0.4309,-0.78999 -0.6464,-1.93908 -0.1436,-1.2209 -0.2872,-2.4418 -0.7182,1.72362 -1.7237,3.37543 -0.9336,1.65181 -2.2981,2.94453 -1.3646,1.22091 -3.0882,1.93908 -1.6518,0.79 -3.7345,0.79 -3.6627,0 -5.9609,-1.72363 -2.2264,-1.72363 -3.5191,-4.30907 -1.2209,-2.65725 -1.6518,-5.74542 -0.3591,-3.15998 -0.3591,-6.03269 0,-2.36999 0.2155,-5.38634 0.2154,-3.01635 0.5745,-6.17633 0.3591,-3.15998 0.8618,-6.10451 0.5028,-3.01635 1.0773,-5.31452 0.7182,-2.65726 1.7236,-5.81724 1.0773,-3.2318 2.6573,-5.96088 1.6518,-2.80089 4.0218,-4.73997 2.37,-1.93908 5.6736,-2.15453 -0.2155,-5.81725 -0.6464,-10.70085 -0.3591,-4.95543 -0.79,-10.126314 l -0.7181,-7.971775 -0.2873,-2.872712 q -0.1436,-1.149084 -0.2155,-2.298169 -0.072,-1.220902 -0.072,-2.369987 0,-1.651809 0.8618,-2.298169 0.9337,-0.646361 2.37,-0.646361 3.16,0 4.8118,0.933632 1.6518,0.933631 2.2982,2.513622 0.7182,1.579992 0.79,3.734526 0.072,2.082716 0.072,4.524521 0,1.579991 0.3591,3.590889 l 0.3591,2.657259 0.5745,7.325418 q 0.1436,1.72362 0.2873,3.44725 0.1436,1.72363 0.2873,3.44725 l 1.5081,15.44083 2.8727,28.87075 0.2155,2.65726 q 0.2873,2.94453 0.5027,6.10451 0.2873,3.15999 1.0055,6.24815 0.2154,0.79 0.3591,1.50818 0.2154,0.71817 0.2154,1.50817 z m -16.7335,-42.01341 q 0,-0.79 -0.072,-1.72363 0,-1.00545 0,-1.86726 l 0,-1.93908 q -0.5027,0.71818 -1.2927,2.0109 -0.79,1.2209 -1.2209,2.22635 -1.1491,2.51362 -2.0827,6.4636 -0.9336,3.87816 -1.6518,8.18723 -0.6464,4.23725 -1.0054,8.33086 -0.3591,4.0218 -0.3591,6.75088 0,1.00545 0,2.29817 0.072,1.29272 0.2872,2.65725 0.2155,1.29272 0.6464,2.51363 0.4309,1.2209 1.1491,2.01089 1.0772,-1.36453 1.9391,-4.16543 0.8618,-2.87271 1.4363,-6.4636 0.6464,-3.66271 1.0773,-7.6845 0.4309,-4.0218 0.6463,-7.75632 0.2873,-3.80635 0.3591,-6.89451 0.1437,-3.15999 0.1437,-4.95543 z" /><path
     inkscape:connector-curvature="0"
     id="path3470"
     style="font-style:normal;font-variant:normal;font-weight:normal;font-stretch:normal;font-size:medium;line-height:125%;font-family:'Just Another Hand';-inkscape-font-specification:'Just Another Hand';letter-spacing:0px;word-spacing:0px;fill:#454545;fill-opacity:1;stroke:none;stroke-width:1px;stroke-linecap:butt;stroke-linejoin:miter;stroke-opacity:1"
     d="m 1194.0535,86.530794 q 0,4.955427 -0.1436,9.910855 -0.1436,4.955431 -0.1436,9.910851 0,0.79 -0.072,1.50818 0,0.71818 -0.2154,1.36454 -0.2155,0.57454 -0.7182,0.93363 -0.5027,0.35909 -1.4363,0.35909 -2.37,0 -4.2373,-1.22091 -1.8673,-1.2209 -2.2263,-3.80634 -0.2155,-1.86726 -0.2873,-3.59089 0,-1.72363 -0.1437,-3.590888 -0.359,-3.447254 -0.7181,-6.894508 -0.2873,-3.447254 -0.2873,-6.894508 0,-1.436356 0.5745,-2.226352 0.6464,-0.789996 2.1546,-0.789996 1.2209,0 2.5854,0.215454 1.4364,0.215453 2.5855,0.789995 1.2209,0.502725 1.939,1.508174 0.79,0.933631 0.79,2.513623 z" /><path
     inkscape:connector-curvature="0"
     id="path3472"
     style="font-style:normal;font-weight:normal;font-size:medium;line-height:125%;font-family:sans-serif;letter-spacing:0px;word-spacing:0px;fill:#1185e9;fill-opacity:1;stroke:none;stroke-width:1px;stroke-linecap:butt;stroke-linejoin:miter;stroke-opacity:1"
     d="m 1243.1769,166.10491 q 0,2.08271 -1.0773,3.94998 -1.0773,1.79544 -2.9445,2.65726 -0.5746,0.28727 -2.8009,0.57454 -2.2264,0.21545 -4.8118,0.4309 -2.5855,0.21546 -4.9554,0.43091 -2.2982,0.21545 -3.2318,0.28727 -0.2155,1.2209 -1.1491,1.72363 -0.9337,0.43091 -2.0109,0.43091 -1.2209,0 -2.8009,-0.35909 -1.58,-0.35909 -2.8009,-0.79 -3.2318,0.43091 -6.5354,0.93363 -3.3037,0.50273 -6.6791,0.50273 -2.5854,0 -2.5854,-2.44181 0,-2.4418 1.3645,-3.73452 1.3645,-1.29272 3.3036,-1.93908 1.9391,-0.64636 4.1655,-0.86182 2.2263,-0.21545 3.9499,-0.50272 -0.3591,-20.39625 -0.79,-40.50524 -0.3591,-20.10898 -0.3591,-40.505232 -2.9445,0.215454 -5.7454,0.430907 -2.8009,0.143636 -5.6018,0.143636 -0.5745,0 -1.2209,0 -0.6463,-0.07182 -1.2209,-0.215454 -0.5027,-0.215453 -0.8618,-0.574542 -0.4309,-0.430907 -0.4309,-1.220903 0,-1.364538 0.5746,-2.369987 0.5745,-1.077267 1.5081,-1.723627 1.0055,-0.718178 2.1546,-1.149085 1.149,-0.430906 2.37,-0.64636 3.0881,-0.574542 6.2481,-0.933631 3.2318,-0.430907 6.3918,-0.789996 3.2318,-0.430906 6.3918,-0.861813 3.2318,-0.430907 6.3917,-1.149085 3.0164,-0.64636 6.0327,-1.651809 3.0164,-1.077267 6.1764,-1.077267 1.7236,0 2.2981,1.29272 0.5746,1.220903 0.5746,2.729076 0,1.220903 -0.2873,2.369987 -0.2154,1.077267 -1.0054,2.082716 -0.4309,0.574543 -1.9391,1.149085 -1.4364,0.502725 -3.5191,0.933631 -2.0109,0.430907 -4.3809,0.861814 -2.2981,0.359089 -4.5245,0.718178 -2.1545,0.287271 -3.95,0.502724 -1.7954,0.215454 -2.6572,0.287272 0.79,9.982673 1.0772,19.965345 0.3591,9.98267 0.5746,19.96535 0.2154,9.98267 0.4309,19.96534 0.2154,9.98268 0.79,19.96535 4.0936,-0.64636 8.259,-1.2209 4.1655,-0.64636 8.4027,-0.64636 1.2209,0 2.2982,0.57454 1.1491,0.50272 1.1491,2.0109 z" /><path
     inkscape:connector-curvature="0"
     id="path3474"
     style="font-style:normal;font-variant:normal;font-weight:normal;font-stretch:normal;font-size:medium;line-height:125%;font-family:'Just Another Hand';-inkscape-font-specification:'Just Another Hand';letter-spacing:0px;word-spacing:0px;fill:#454545;fill-opacity:1;stroke:none;stroke-width:1px;stroke-linecap:butt;stroke-linejoin:miter;stroke-opacity:1"
     d="m 1246.0496,168.69035 q 0,-0.71818 0.5027,-1.07727 0.5027,-0.4309 1.2209,-0.57454 0.79,-0.21545 1.5082,-0.21545 0.79,0 1.3645,0 0.7182,0 1.6518,0.0718 1.0055,0 1.8673,0.28728 0.8618,0.21545 1.4363,0.78999 0.6464,0.50273 0.6464,1.43636 0,0.35909 -0.072,1.57999 0,1.14908 -0.072,2.51362 0,1.36454 -0.072,2.51362 0,1.07727 -0.072,1.14909 -0.5745,0.78999 -1.5081,0.86181 -0.8619,0.14364 -1.6519,0.14364 -2.2263,0 -3.3036,-0.21546 -1.0772,-0.21545 -1.58,-0.86181 -0.5027,-0.64636 -0.6463,-1.79544 -0.072,-1.14909 -0.3591,-3.01635 -0.2155,-0.86181 -0.5746,-1.72363 -0.2872,-0.86181 -0.2872,-1.86726 z" /><path
     inkscape:connector-curvature="0"
     id="path3476"
     style="font-style:normal;font-weight:normal;font-size:medium;line-height:125%;font-family:sans-serif;letter-spacing:0px;word-spacing:0px;fill:#1185e9;fill-opacity:1;stroke:none;stroke-width:1px;stroke-linecap:butt;stroke-linejoin:miter;stroke-opacity:1"
     d="m 1314.4919,160.79039 q 0,1.2209 -1.0054,2.36999 -0.9336,1.14908 -2.2982,2.22635 -1.3645,1.07727 -2.8009,2.0109 -1.4363,0.86181 -2.37,1.43635 -2.4418,1.58 -4.8836,2.94453 -2.37,1.36454 -4.9554,2.36999 -2.5136,1.00545 -5.2427,1.57999 -2.6573,0.57454 -5.6018,0.57454 l -1.1491,0.14364 q -2.37,0 -4.7399,-0.50272 -2.2982,-0.57455 -4.3091,-1.65181 -2.0109,-1.14909 -3.5909,-2.87271 -1.58,-1.72363 -2.4418,-4.16544 -0.6464,-1.93908 -1.0055,-4.59634 -0.359,-2.65725 -0.5745,-5.52997 -0.1436,-2.87271 -0.2873,-5.60178 -0.072,-2.8009 -0.1436,-4.95543 -1.0773,-21.97625 -1.7236,-43.95249 -0.1437,-2.51362 -0.2155,-5.027246 -0.072,-2.513623 -0.072,-5.027246 0,-4.309067 0.5027,-7.325415 0.5027,-3.016347 2.0109,-4.955427 1.5082,-1.939081 4.3091,-2.800894 2.8727,-0.861814 7.5409,-0.861814 4.6681,0 9.3363,0.07182 4.7399,0.07182 9.4799,0.07182 1.4364,0 2.8727,-0.07182 1.4364,-0.143635 2.8727,0.215454 0.8619,0.143635 1.5082,0.502724 0.6464,0.287271 0.6464,1.364538 0,2.585441 -1.7236,3.878161 -1.7237,1.220902 -4.0937,1.651809 -2.37,0.430907 -4.9554,0.430907 -2.5136,-0.07182 -4.1654,-0.07182 l -9.3363,0 q -1.4364,0 -2.8727,0 -1.4364,0 -2.8728,0.143636 -0.4309,1.077267 -0.5745,2.226351 -0.1436,1.149085 -0.1436,2.369987 0,7.82814 0.3591,15.440825 0.4309,7.61269 0.7899,15.44083 4.4527,-0.35909 8.8336,-0.86182 4.3809,-0.50272 8.8336,-1.14908 0.6464,0 1.1491,-0.0718 0.5746,-0.0718 1.1491,-0.0718 1.5082,0 2.0827,0.79 0.6464,0.78999 0.6464,2.22635 0,1.00545 -0.1437,1.86726 -0.072,0.86182 -0.4309,1.72363 -0.5027,1.43636 -1.6518,2.08272 -1.1491,0.64636 -2.5854,0.93363 -1.4364,0.21545 -3.0164,0.21545 -1.5081,0 -2.6572,0.0718 -3.0164,0.14363 -5.9609,0.21545 -2.8727,0.0718 -5.8172,0.21545 0.072,1.50818 0.2154,4.52453 0.1436,3.01634 0.2873,6.82269 0.2154,3.73452 0.4309,7.75632 0.2873,4.02179 0.5745,7.61268 0.2873,3.51908 0.6464,6.17633 0.3591,2.65726 0.7182,3.59089 0.79,1.50818 1.7954,2.0109 1.0055,0.43091 2.6573,0.43091 2.6572,0 5.6018,-1.00545 2.9445,-1.07727 5.7454,-2.65726 2.8009,-1.65181 5.3145,-3.59089 2.5854,-1.93908 4.4527,-3.80634 0.79,-0.64636 1.58,-1.29272 0.79,-0.71818 1.8673,-0.71818 1.0772,0 2.0827,0.64636 1.0054,0.64636 1.7954,1.65181 0.79,0.93363 1.2209,2.08272 0.5027,1.14908 0.5027,2.08271 z" /><path
     inkscape:connector-curvature="0"
     id="path3478"
     style="font-style:normal;font-variant:normal;font-weight:normal;font-stretch:normal;font-size:medium;line-height:125%;font-family:'Just Another Hand';-inkscape-font-specification:'Just Another Hand';letter-spacing:0px;word-spacing:0px;fill:#454545;fill-opacity:1;stroke:none;stroke-width:1px;stroke-linecap:butt;stroke-linejoin:miter;stroke-opacity:1"
     d="m 1315.2819,168.69035 q 0,-0.71818 0.5028,-1.07727 0.5027,-0.4309 1.2209,-0.57454 0.79,-0.21545 1.5081,-0.21545 0.79,0 1.3646,0 0.7181,0 1.6518,0.0718 1.0054,0 1.8672,0.28728 0.8619,0.21545 1.4364,0.78999 0.6464,0.50273 0.6464,1.43636 0,0.35909 -0.072,1.57999 0,1.14908 -0.072,2.51362 0,1.36454 -0.072,2.51362 0,1.07727 -0.072,1.14909 -0.5746,0.78999 -1.5082,0.86181 -0.8618,0.14364 -1.6518,0.14364 -2.2263,0 -3.3036,-0.21546 -1.0773,-0.21545 -1.58,-0.86181 -0.5027,-0.64636 -0.6464,-1.79544 -0.072,-1.14909 -0.3591,-3.01635 -0.2154,-0.86181 -0.5745,-1.72363 -0.2873,-0.86181 -0.2873,-1.86726 z" /></svg>