<?xml version="1.0" encoding="UTF-8" standalone="no"?>
<svg
   xmlns:dc="http://purl.org/dc/elements/1.1/"
   xmlns:cc="http://creativecommons.org/ns#"
   xmlns:rdf="http://www.w3.org/1999/02/22-rdf-syntax-ns#"
   xmlns:svg="http://www.w3.org/2000/svg"
   xmlns="http://www.w3.org/2000/svg"
   xmlns:sodipodi="http://sodipodi.sourceforge.net/DTD/sodipodi-0.dtd"
   xmlns:inkscape="http://www.inkscape.org/namespaces/inkscape"
   height="1080"
   width="1440"
   sodipodi:docname="brain.svg"
   inkscape:version="0.91 r13725"
   id="svg2"
   xml:space="preserve"
   enable-background="new 0 0 100 100"
   viewBox="0 0 1440 1080"
   y="0px"
   x="0px"
   version="1.1"><sodipodi:namedview
     inkscape:current-layer="svg2"
     inkscape:window-maximized="1"
     inkscape:window-y="0"
     inkscape:window-x="0"
     inkscape:cy="546.01563"
     inkscape:cx="585.50484"
     inkscape:zoom="0.944"
     showgrid="false"
     id="namedview16"
     inkscape:window-height="1406"
     inkscape:window-width="2560"
     inkscape:pageshadow="2"
     inkscape:pageopacity="0"
     guidetolerance="10"
     gridtolerance="10"
     objecttolerance="10"
     borderopacity="1"
     bordercolor="#666666"
     pagecolor="#ffffff"
     showguides="false" /><metadata
     id="metadata20"><rdf:RDF><cc:Work
         rdf:about=""><dc:format>image/svg+xml</dc:format><dc:type
           rdf:resource="http://purl.org/dc/dcmitype/StillImage" /><dc:title></dc:title></cc:Work></rdf:RDF></metadata><defs
     id="defs18" /><path
     style="fill:#454545;fill-opacity:1"
     inkscape:connector-curvature="0"
     id="path4"
     d="m 1036.9189,627.90767 c -5.7998,-8.28794 -11.2863,-16.11942 -14.5442,-21.66858 -12.3603,-21.08682 -13.3627,-23.7361 -8.5117,-47.9913 4.4662,-22.3488 -1.6826,-43.22975 -8.1895,-65.32795 -1.9601,-6.659 -3.965,-13.47909 -5.74605,-20.55875 l -0.87713,-3.62485 C 963.30298,319.20424 830.45427,286.10619 725.29767,284.65625 c -1.89746,-0.0269 -3.76806,-0.0358 -5.63867,-0.0358 -228.91185,0 -287.35706,194.35488 -289.71992,263.04813 -2.21966,64.10176 32.01509,145.25378 55.84067,179.92709 22.69787,33.0175 39.99872,100.20711 42.06623,163.38699 2.02275,61.47039 -73.47269,184.26794 -74.23346,185.50304 -2.59557,4.2067 -1.30673,9.72 2.89989,12.3246 1.46783,0.9129 3.09679,1.3335 4.69888,1.3335 2.99834,0 5.92508,-1.5037 7.62562,-4.2424 3.22209,-5.227 79.09345,-128.65101 76.89169,-195.50946 -2.16597,-66.25877 -20.7467,-137.37754 -45.19882,-172.93692 -22.492,-32.70426 -54.78454,-109.08577 -52.71703,-169.16887 0.0895,-2.47027 15.63611,-245.76519 271.5867,-245.76519 1.86165,0 3.76806,0.0179 5.64761,0.0448 143.71433,1.978 230.03959,59.28651 256.59501,170.33239 l 0.93083,3.81281 c 1.82584,7.31236 3.9023,14.37411 5.92507,21.26582 6.13092,20.79145 11.41158,38.74567 7.81357,56.76254 -5.86241,29.28526 -3.76806,35.99795 10.63296,60.56642 3.6159,6.16673 9.2993,14.29356 15.3228,22.88581 11.4832,16.38793 28.8467,41.1533 29.4374,51.24025 0.6802,11.58163 -2.5956,15.38549 -17.5157,20.36184 -10.8924,3.62485 -18.1511,9.50517 -21.5969,17.44406 -2.1928,5.07479 -3.7323,13.47013 1.3962,24.58635 1.6827,3.65172 1.987,6.90961 0.8861,9.66629 -1.1725,2.94463 -4.0097,5.49546 -7.7867,7.00806 l -10.48975,4.19767 6.47995,9.24561 c 6.7754,9.67523 6.7754,12.57512 -0.054,19.40416 -14.43673,14.43677 -9.69309,27.03875 -7.14227,33.78724 l 0.71602,1.96906 c 1.5126,4.54673 4.80625,34.93286 -9.51412,42.47793 -7.74198,4.07237 -29.15996,6.81114 -48.05395,9.23666 -28.25597,3.61592 -54.96355,7.03492 -66.24087,16.19998 -20.67511,16.79964 -30.12659,50.06775 -24.09411,84.75001 1.7274,9.96161 -0.69812,18.79558 -4.06341,31.04848 -3.76806,13.7298 -8.458,30.771 -8.84286,55.9034 -0.0895,4.9316 3.85756,8.986 8.79811,8.986 0.0537,0 0.0985,0 0.1432,0 4.88684,0 8.8697,-3.8307 8.95025,-8.7265 0.34906,-22.8679 4.52884,-37.9849 8.2074,-51.4013 3.67855,-13.3986 6.85589,-24.9623 4.43933,-38.87107 -4.94055,-28.41707 2.03171,-55.01725 17.74836,-67.79821 7.32131,-5.95193 36.16801,-9.64838 57.23692,-12.35136 23.33333,-2.9894 43.49826,-5.56707 54.11326,-11.15203 25.16814,-13.24638 21.42694,-54.15803 18.15114,-63.97646 -0.2775,-0.84132 -0.5997,-1.70949 -0.9487,-2.62243 -2.0765,-5.50441 -3.2221,-8.53855 3.052,-14.81267 12.7541,-12.75413 11.8859,-24.14781 7.026,-34.1005 3.956,-3.19524 6.9722,-7.21391 8.7981,-11.7875 2.0496,-5.14639 3.5085,-13.46119 -1.262,-23.78978 -1.8975,-4.10817 -2.3092,-7.46452 -1.2262,-9.97955 1.6647,-3.8307 6.8022,-6.22937 10.8298,-7.58086 15.1707,-5.0569 31.2364,-12.61092 29.7149,-38.38767 -0.8145,-14.0698 -14.043,-33.93939 -32.6416,-60.459 z" /><g
     id="g3223"
     transform="matrix(0.88289097,0,0,0.88289097,111.04701,16.28912)"><path
       style="fill:#1185e9;fill-opacity:1;fill-rule:evenodd;stroke:none;stroke-width:1px;stroke-linecap:butt;stroke-linejoin:miter;stroke-opacity:1"
       d="m 917.90254,561.99153 -10.06356,-55.08475 -30.72034,-48.19915 -53.49576,-32.83899 -70.44491,-25.42372 -32.30933,-2.64831 1.58899,34.95763 6.35593,31.77966 16.41949,25.95339 21.18644,22.24576 11.12288,32.83898 27.01271,4.23729 34.42797,11.65254 19.59746,16.4195 23.30508,20.12711 13.77119,12.71187 z"
       id="path3215"
       inkscape:connector-curvature="0" /><path
       d="m 825.04776,674.98233 c -0.33284,-1.58301 -0.10554,-2.1188 2.24868,-5.17116 2.54093,-3.28778 6.36449,-8.2641 5.5527,-15.91935 -0.47897,-4.49736 -1.8509,-9.81464 -4.14829,-15.31051 6.85157,0.10554 14.88025,-0.23542 21.7643,-1.78595 8.34528,-1.87526 13.37843,-4.18076 17.42118,-6.03166 3.27154,-1.50183 5.86118,-2.67893 9.7984,-3.53132 11.20281,-2.40292 33.79514,-14.50683 37.81354,-32.89405 1.42065,-6.46191 1.04722,-11.08916 0.29225,-14.43376 7.4523,-5.9586 12.52604,-17.2913 7.59842,-34.16046 -2.54092,-8.69435 -3.71803,-14.81531 -4.6516,-19.7348 -0.99039,-5.17115 -1.76972,-9.24638 -3.64497,-13.07806 -0.35719,-0.74686 -0.90921,-2.2568 -1.69666,-4.335 -1.54241,-4.05899 -3.79921,-9.98512 -6.77039,-16.71492 -0.41402,-2.30551 -1.36382,-4.27817 -2.74388,-5.9586 -8.05303,-16.85292 -20.28682,-36.70137 -37.33458,-46.14258 -13.24854,-7.33866 -16.7068,-10.9268 -19.47503,-13.80057 -3.83168,-3.96157 -6.86781,-6.65674 -16.74739,-10.63455 l -10.5209,-4.27817 c -27.69042,-11.3327 -51.47609,-20.80638 -62.07006,-22.06467 -7.1357,-0.84427 -15.96806,-0.4546 -24.50005,-0.0731 -6.59992,0.29225 -13.43526,0.5845 -16.99093,0.0974 -6.08037,-0.82804 -14.06034,0.59261 -21.82113,1.98078 -5.33351,0.95793 -11.38952,2.08632 -14.25517,1.77784 -1.15275,-0.10553 -2.45974,-0.25977 -3.92098,-0.43837 -9.54674,-1.12028 -25.53104,-3.01177 -47.74183,1.36382 -18.52523,3.66121 -26.01812,9.74157 -30.96197,13.76809 -1.04722,0.84427 -2.4841,2.01326 -2.94682,2.14315 -4.31065,1.20146 -41.57217,12.02272 -55.47015,31.31916 -11.99837,8.65376 -34.20916,41.27992 -34.44458,41.63711 -2.54093,3.79921 -6.71357,11.74671 -11.13787,20.17317 -4.28629,8.16669 -9.14896,17.42118 -11.63306,21.08239 -6.71357,9.8877 -14.96955,34.29846 -17.34,41.53158 -0.55202,1.68854 -1.33947,3.57191 -2.20809,5.69882 -4.18076,10.17182 -10.4316,25.92882 -7.49289,48.32632 0.0406,0.13801 0.0162,0.29225 0.0649,0.43025 0.76309,5.58517 1.93208,11.46259 4.03464,17.90015 l 3.56379,11.05668 c 1.60736,5.02503 3.08483,9.53051 4.52983,13.8168 0.0406,0.11365 0.0731,0.21919 0.11365,0.33284 7.14382,21.13921 13.19172,33.42171 27.08969,37.85413 7.60655,2.41916 13.49208,2.11879 18.20863,1.86714 0.0974,0 0.17048,0 0.26789,0 3.58815,10.8862 14.88026,34.48517 46.71897,40.93084 14.52306,2.93871 25.03584,3.85604 32.45567,4.37559 3.86416,8.79989 5.63388,28.75388 5.642,41.78323 0,4.48925 3.63685,8.11798 8.11798,8.11798 4.48924,0 8.11797,-3.63685 8.11797,-8.11798 0,-3.58814 -0.15424,-14.87213 -1.75348,-26.65944 2.18374,1.15276 4.57854,1.77784 7.17629,1.77784 1.6236,0 3.32837,-0.2273 5.10621,-0.68191 4.75714,-1.20146 8.41023,-4.97632 11.8766,-9.56298 -1.19334,8.45082 -2.01325,19.1422 -2.18373,33.02394 -0.0731,4.50548 3.51508,6.24272 7.99621,6.24272 0.0406,0 0.0731,0 0.10553,0 4.44053,0 8.06115,-1.56677 8.11798,-6.01542 0.26789,-21.62629 3.2066,-41.80759 6.40508,-47.18981 5.86118,-1.33134 10.79691,-4.73278 14.02787,-9.68474 3.59626,-5.51211 4.81396,-12.74523 3.39331,-18.41158 -0.0243,-0.2273 -0.008,-0.43837 -0.0487,-0.66567 0.138,-0.47084 1.05533,-1.92396 3.15789,-3.00365 1.87525,-0.95792 4.93573,-1.72913 8.83236,0 3.23095,1.39629 6.5025,3.14977 9.83087,4.91137 10.99986,5.85307 23.48531,12.4611 37.98402,9.91205 4.09146,-0.71438 7.12759,-0.19483 10.96739,0.45461 8.83236,1.50995 18.81747,3.19848 39.16924,-8.0855 29.68745,-16.46326 44.59206,-24.73548 41.09321,-41.07697 z M 733.94781,405.15697 c 7.52536,-0.33284 16.04112,-0.71438 21.86983,-0.0244 9.26261,1.09592 39.65632,13.53267 57.82436,20.96062 l 10.6102,4.31876 c 7.37924,2.96306 8.71059,4.34312 11.12163,6.84346 3.3446,3.47449 7.93126,8.21539 23.29859,16.73927 7.13571,3.95345 13.3622,10.62643 18.70383,18.21674 -1.58301,-0.86051 -2.96307,-1.73725 -3.64498,-2.6627 -7.28182,-9.87146 -15.31862,-14.63671 -23.64767,-14.1334 -6.29143,0.35719 -11.04857,3.60438 -14.2714,6.75416 -3.65309,-1.57489 -7.56596,-2.38669 -11.47882,-2.15126 -0.63321,-1.17711 -1.42065,-2.95495 -2.04573,-4.37559 -3.37708,-7.67961 -8.49141,-19.29644 -22.09714,-26.18048 -11.53565,-5.82871 -17.23447,-5.33352 -22.50304,-4.22947 -1.76972,0.34907 -2.4841,0.51143 -7.12758,-2.97118 -11.94155,-8.93789 -25.21444,-5.00879 -34.89107,-2.15126 -3.04424,0.90109 -7.54972,2.22432 -8.49952,2.2162 -6.09661,-4.45677 -0.43837,-16.4389 -0.21107,-16.90974 2.23244,-0.0649 4.52983,-0.15425 6.98958,-0.25978 z m -59.61843,3.32025 c 1.62359,0.18672 3.06859,0.36531 4.35123,0.48708 5.0088,0.45461 11.63307,-0.73062 18.60641,-1.97267 4.06711,-0.7225 8.7593,-1.54241 12.4611,-1.84278 -2.82506,9.56298 -3.02801,22.31632 7.82573,30.27194 6.77851,4.98444 14.88025,2.5734 22.70598,0.25978 9.14084,-2.71141 15.50534,-4.20512 20.5466,-0.42214 8.84048,6.59992 13.9061,7.14382 20.13259,5.87742 2.32174,-0.48708 4.51359,-0.91733 11.90907,2.82506 8.41023,4.2457 11.67366,11.67365 14.56366,18.22486 2.76823,6.28331 6.88404,15.77323 17.44553,14.10092 4.82208,-0.75497 9.64416,3.43391 11.38952,7.98809 1.61548,4.27006 0.50332,7.67149 -3.33649,10.10689 -9.18143,5.86118 -26.36719,3.2959 -41.4098,-12.84264 -3.06048,-3.28779 -8.20728,-3.45826 -11.4707,-0.4059 -3.27967,3.05236 -3.46638,8.19104 -0.4059,11.4707 13.93857,14.96143 29.26531,20.83885 42.29466,20.83885 7.59031,0 14.39318,-1.9889 19.69422,-5.34975 10.30171,-6.54309 14.14963,-18.1518 9.80651,-29.59003 -0.78744,-2.07008 -1.85901,-3.95345 -3.04424,-5.73941 0.85239,-0.61696 1.75349,-1.11216 2.64646,-1.16087 2.58964,0.008 6.03166,2.71952 9.61981,7.57407 4.76525,6.4538 13.24042,9.57922 20.71708,12.33933 2.95494,1.08781 7.11135,2.64646 9.01095,3.87228 3.50697,7.63901 6.12908,14.53118 7.8095,18.97171 1.04722,2.752 1.81843,4.7409 2.28927,5.70694 0.92545,1.88337 1.46935,4.71655 2.28115,8.99472 0.9498,4.98444 2.2568,11.80354 5.01691,21.23663 2.99553,10.25301 0.21107,14.80719 -1.98079,16.73115 -2.20809,-0.92545 -5.54457,-4.73278 -6.8191,-15.43227 -1.29076,-10.88621 -5.38222,-19.01231 -12.15261,-24.15911 -8.79989,-6.69733 -18.59829,-5.40657 -19.66986,-5.25233 -4.43242,0.68191 -7.46854,4.8302 -6.78663,9.26262 0.68191,4.43241 4.82208,7.4523 9.26261,6.78662 0.0325,0 4.05899,-0.38966 7.37113,2.13503 3.13354,2.37857 5.09809,6.80287 5.85306,13.15113 1.46935,12.36368 5.58517,21.13109 12.24191,26.03435 1.50183,1.10405 2.96306,1.83467 4.38371,2.42728 0.60073,1.68854 1.24205,3.87227 0.138,8.8973 -2.00514,9.1652 -16.54444,18.59829 -25.36868,20.48978 -5.67447,1.20958 -9.47368,2.95494 -13.15112,4.63537 -3.87228,1.77783 -7.53349,3.45014 -14.23082,4.95196 -9.47368,2.12691 -22.58421,1.3557 -28.51846,0.83615 -3.64497,-4.31064 -7.95561,-8.37775 -13.19171,-11.81977 -0.34096,-0.22731 -0.68191,-0.44649 -1.03098,-0.66568 11.82789,-4.35123 23.76132,-12.83452 28.44539,-28.16126 1.31511,-4.2863 -1.10404,-8.82425 -5.39034,-10.13124 -4.30252,-1.33135 -8.83236,1.11216 -10.13123,5.39034 -3.84792,12.56663 -16.08983,17.6566 -25.29562,19.58868 3.35272,-6.12096 6.03166,-13.54079 2.77635,-20.61155 -1.86714,-4.08334 -6.70545,-5.918 -10.7888,-4.03463 -4.0671,1.87525 -5.86929,6.64862 -3.99404,10.71573 0.43837,2.15938 -3.71804,8.71059 -5.27669,11.17845 -0.47896,0.74686 -0.90109,1.46124 -1.33946,2.18374 -5.57705,-0.62508 -11.47882,-0.17859 -18.03003,2.15938 -5.81248,2.05385 -12.34745,1.10405 -18.76877,-1.42064 2.84129,-0.3166 5.44716,-2.04573 6.61615,-4.87079 1.28264,-3.0686 0.52767,-6.48626 -1.63171,-8.74306 -0.10553,-1.307 0.0162,-4.98444 2.84941,-12.63158 8.42646,-22.81152 -6.42132,-56.87455 -20.21377,-66.18587 -6.01542,-4.05899 -14.32011,-5.07374 -21.63441,-5.9586 -2.93059,-0.35719 -7.01393,-0.85239 -9.40873,-1.52618 6.60803,-17.51859 -0.0649,-32.11472 -18.41158,-40.11905 -1.07969,-0.47896 -2.1675,-1.29075 -3.15789,-2.37045 -10.52902,-11.48693 -26.47273,-12.15261 -37.57812,-7.72019 -4.7409,1.89149 -8.25599,2.72764 -10.30172,2.80882 0.88486,-1.09593 2.01326,-2.31363 2.83318,-3.19849 4.39182,-4.77337 13.52455,-14.70165 5.01691,-24.37828 -3.36896,-3.82357 -7.62278,-6.34014 -11.98214,-8.1261 2.80882,-1.12028 6.29144,-2.17562 10.57773,-3.10919 11.25152,2.6627 15.20497,9.85523 17.55919,14.23082 1.20146,2.24056 2.34609,4.40806 4.91137,5.78 7.5416,4.01028 14.36071,1.25829 18.43593,-0.43837 1.19334,-0.48708 2.97118,-1.04722 3.56379,-1.04722 0.008,0 0.0244,0 0.0406,0 0.51144,0 0.77933,0.88486 1.46124,3.83169 1.1284,4.86267 2.83317,12.0146 11.50317,17.39682 1.70478,1.05534 3.88852,3.45014 6.19402,5.97484 6.51874,7.15193 16.42267,18.03002 34.24975,18.03002 5.21986,0 11.11351,-0.92544 17.79461,-3.16601 4.25382,-1.42064 6.55121,-6.01542 5.13056,-10.26924 -1.42065,-4.25382 -6.01542,-6.56744 -10.26924,-5.13056 -19.5075,6.5025 -26.99228,-1.70478 -34.90731,-10.39913 -3.09295,-3.39332 -6.01542,-6.59992 -9.64416,-8.8486 -2.82505,-1.74536 -3.31213,-3.4339 -4.23758,-7.42795 -0.93357,-4.05087 -2.35421,-10.16371 -8.68624,-14.11716 -7.34677,-4.57854 -14.27952,-1.70478 -18.41157,0.008 -1.59924,0.66567 -2.61399,1.04722 -3.30402,1.21769 -1.16087,-2.13502 -2.96306,-5.21174 -5.72317,-8.42646 7.67149,-0.0243 13.89798,0.67379 18.75253,1.24205 z m -47.70936,331.62753 c -1.98891,2.86564 -5.30916,7.63901 -6.31579,8.33716 -0.34095,0.0893 -0.60073,0.13801 -0.73873,0.1786 -0.38155,-0.56015 -1.11217,-1.98079 -2.14315,-5.47152 -2.92247,-9.96076 -11.67365,-10.54526 -21.79677,-11.21905 -7.46042,-0.49519 -17.68908,-1.1771 -32.96711,-4.27005 -15.05073,-3.04425 -23.87497,-11.2434 -28.96495,-18.76877 12.83453,3.62062 28.00703,-1.38817 38.66593,-5.00067 2.50846,-0.84427 4.73279,-1.60736 6.54309,-2.09444 11.28399,-3.02801 20.95251,-3.56379 25.23068,-1.38006 3.26343,1.66419 9.3925,3.27966 19.93775,5.99107 9.83088,2.54093 29.62251,7.66337 34.3147,10.71573 -0.0244,1.42065 -0.38155,3.02801 -1.33135,4.48924 -1.03098,1.57489 -2.54093,2.00514 -4.60289,2.32986 -0.65756,0.10554 -1.52618,0.24354 -2.50846,0.56826 -1.14463,0.0812 -2.37045,0.11365 -3.75051,0.0812 -8.60505,-0.56014 -14.15775,7.73643 -19.57244,15.52969 z m 187.80942,-80.19751 c -2.69517,3.49885 -7.20876,9.35191 -5.25233,18.47652 0.30037,1.40441 -1.12028,3.24719 -3.57191,5.35786 1.42876,-9.16519 -0.57638,-13.89797 -2.76011,-17.94885 -1.07969,-2.00514 -1.445,-2.67893 -0.56014,-6.5512 1.85901,-8.10986 0.17048,-15.96807 -4.7409,-22.12961 -5.51211,-6.9084 -15.05073,-11.36517 -24.32146,-11.36517 -4.48925,0 -8.11798,3.62874 -8.11798,8.11798 0,4.48924 3.62873,8.11798 8.11798,8.11798 4.37559,0 9.15708,2.1675 11.63306,5.25233 1.84278,2.31362 2.37045,5.0575 1.60736,8.38587 -2.0782,9.06778 -0.18672,13.63008 2.10255,17.87579 1.12029,2.07008 1.72913,3.2066 1.00663,7.80137 -1.81031,11.43012 -1.90772,11.67366 -13.88986,20.75767 -15.05073,8.2641 -21.16357,7.25748 -28.16938,6.06413 -4.54607,-0.76309 -9.66039,-1.64795 -16.51197,-0.43837 -9.00284,1.57489 -18.01379,-3.21472 -27.53618,-8.27222 -3.72615,-1.98078 -7.38736,-3.94534 -10.99986,-5.52022 -11.38952,-4.90326 -21.72371,-1.33947 -27.60113,3.71803 -1.20146,1.0391 -2.19185,2.18374 -3.10106,3.35273 -7.23312,-3.14978 -17.91638,-6.23461 -33.61655,-10.28548 -6.5918,-1.69666 -14.78284,-3.81545 -16.63374,-4.74902 -7.93126,-4.02652 -18.80124,-3.5232 -28.44539,-1.72913 0.38154,-2.53281 -0.29225,-5.17927 -2.28927,-7.07888 -0.0649,-0.0649 -6.4538,-6.48626 -3.82357,-16.08983 0.86862,-1.91584 1.61548,-4.05899 2.40292,-6.58368 0.74685,-2.41104 2.21621,-7.17629 3.44202,-9.01095 2.24057,-0.008 7.34677,0.96604 10.82939,1.6723 4.52983,0.92545 9.69286,1.95643 14.69354,2.17562 3.85604,10.13935 12.18508,18.00567 24.22404,22.46244 2.54093,0.94169 9.0759,3.13354 14.81531,3.13354 2.93059,0 5.65823,-0.56826 7.54161,-2.18373 3.40955,-2.90624 3.81544,-8.0368 0.89297,-11.43823 -2.04573,-2.40293 -5.17115,-3.32026 -8.06115,-2.62211 -2.55716,-0.22731 -18.33851,-2.19997 -23.76944,-13.91422 1.33947,-1.25016 2.55716,-2.7114 3.48261,-4.63536 1.10405,-2.29739 1.7616,-5.22798 2.17562,-8.28846 6.29143,3.25531 13.08618,4.74902 20.74144,2.98742 16.01677,-3.7018 35.68663,-6.75416 45.98022,2.45975 0.0325,0.0325 0.0812,0.0406 0.11366,0.0731 0.0406,0.0325 0.0487,0.0812 0.0893,0.11365 12.37992,10.3423 7.21689,22.19455 6.55121,23.58273 -1.9889,3.96969 -0.4059,8.82424 3.55568,10.85373 1.18522,0.60885 2.45162,0.89298 3.69368,0.89298 2.94682,0 5.79623,-1.60736 7.23311,-4.41618 4.27818,-8.3534 7.57408,-28.1775 -10.61831,-43.38248 -0.0893,-0.0731 -0.19483,-0.0812 -0.28413,-0.15424 -15.76511,-13.65444 -39.12865,-10.61831 -59.9675,-5.81247 -9.05967,2.07009 -17.46989,-6.12907 -30.2963,-19.94587 -3.26343,-3.51509 -6.59992,-7.03829 -10.09065,-10.48031 -10.37477,-10.24489 -9.89581,-20.97686 -9.22202,-36.02759 0.20295,-4.7409 0.42214,-9.31944 0.28413,-14.31199 -0.64132,-22.81152 -15.38357,-28.48599 -23.09565,-28.48599 -0.0243,0 -0.0487,0 -0.0731,0 -4.45677,0 -8.07739,3.03613 -8.11798,7.4929 -0.0406,4.48924 3.5638,7.59842 8.04492,7.6309 0.0649,0 6.63239,0.20294 6.98146,13.27289 0.12989,4.58666 -0.0812,9.05966 -0.26789,13.41902 -0.47085,10.49654 -0.87674,21.21227 2.99553,31.6114 -0.0406,0.20295 -0.0649,0.30849 -0.10553,0.51955 -2.4354,12.99689 -6.06413,21.64253 -15.83818,21.64253 -2.89812,0 -6.31579,-0.99039 -9.9364,-2.04573 -7.48478,-2.19185 -16.77175,-4.89514 -27.02475,-0.27601 -4.21323,1.88337 -7.29806,5.25233 -8.9379,9.73346 -4.58665,12.63157 4.02652,31.54646 5.79624,35.20767 1.40441,2.89 4.29441,4.57854 7.30618,4.57854 1.18523,0 2.38669,-0.25978 3.53132,-0.8118 4.03464,-1.94831 5.72318,-6.80286 3.78298,-10.8375 -4.78961,-9.94452 -6.75416,-21.14733 -4.8302,-23.07129 4.57042,-2.04573 8.99472,-0.93357 15.83006,1.05533 4.55418,1.32323 9.26261,2.69517 14.47435,2.69517 16.08172,0 23.90745,-10.65079 27.89338,-20.61966 2.97929,2.98741 5.88553,6.07225 8.68623,9.09213 3.03613,3.27155 6.10472,6.54309 9.24638,9.62793 0.35719,4.27817 0.15424,11.16222 -0.65756,13.07806 -2.2162,1.31511 -11.68177,-0.60073 -16.2116,-1.52618 -7.69584,-1.57489 -14.36882,-2.93871 -19.79163,-1.13652 -7.99621,2.63834 -10.91056,12.02273 -13.24854,19.56433 -0.56014,1.79407 -1.32323,4.2457 -1.72101,4.9682 -0.17048,0.30037 -0.18671,0.6332 -0.30848,0.94169 -0.12989,0.30848 -0.35719,0.5439 -0.44649,0.87674 -0.10554,0.36531 -0.0974,0.69003 -0.18672,1.05534 -0.0162,0.10553 -0.0406,0.20294 -0.0568,0.30848 -3.82357,15.85441 4.75713,27.06534 7.60654,30.20699 -0.52766,0.1786 -1.00663,0.33284 -1.55865,0.51956 -9.24638,3.13354 -24.71924,8.36963 -32.04166,3.55567 -9.70098,-6.34014 -17.03963,-5.98295 -23.48531,-5.62576 -4.09958,0.21919 -7.66337,0.39778 -12.44486,-1.13652 -6.59991,-2.10255 -10.60208,-9.99323 -16.13042,-26.0993 0.42213,-2.54904 1.45312,-5.35786 2.24868,-5.84494 0,0.008 0.73873,-0.11365 2.54093,0.70626 4.09146,1.87526 8.90542,0.0893 10.76443,-3.9778 1.87526,-4.07523 0.0974,-8.89731 -3.9778,-10.76444 -8.15045,-3.75863 -14.05222,-2.03762 -17.57543,0.0731 -0.14612,0.0893 -0.25165,0.21107 -0.38966,0.30036 l -2.26492,-7.00581 c -1.18522,-3.62062 -2.02949,-7.03829 -2.67893,-10.31795 4.15641,5.13868 11.14599,9.13272 19.0529,9.13272 0.14612,0 0.27601,0 0.41401,0 8.43458,0 15.72453,-4.6516 19.98646,-10.63455 2.56529,-3.59626 4.45677,-9.55486 6.4538,-14.75848 5.77188,-15.01014 9.31132,-21.01745 16.30902,-19.36138 4.3837,1.00663 8.72682,-1.63983 9.74157,-6.01542 1.00663,-4.36747 -1.71289,-8.59694 -6.08037,-9.61169 -21.92666,-5.04126 -30.17452,16.77986 -35.12649,29.66309 -1.54241,4.0184 -3.14166,8.71059 -4.51359,10.62644 -1.20146,1.68042 -3.87228,3.85604 -6.98958,3.85604 -0.0568,0 -0.12177,0 -0.1786,0 -3.45826,0 -5.95859,-2.30551 -6.6405,-3.2066 -4.81397,-6.40509 -9.89582,-8.7593 -13.62197,-8.95413 0.76309,-9.79029 3.49073,-17.54295 5.98295,-23.69638 2.33798,2.55716 5.4634,4.52983 9.77404,4.52983 0.95793,0 1.96455,-0.0893 3.02801,-0.29225 12.89135,-2.45163 14.42565,-13.78432 15.54593,-22.07278 0.90109,-6.65674 1.84278,-13.54079 6.76227,-19.87281 10.91057,-14.01975 19.42633,-13.71938 27.21147,-12.22568 5.72317,1.1284 9.3032,-1.33134 10.91056,-2.89811 5.39034,-5.24422 4.03463,-13.44338 2.59775,-22.13773 -0.53578,-3.27966 -1.20958,-7.37112 -0.99039,-9.10837 1.12028,-8.74306 13.43525,-20.70896 18.89865,-22.63292 7.43607,13.15924 16.65809,14.3607 18.48464,14.45811 l 1.59924,-0.0406 c 37.75672,-1.59924 43.17952,3.90475 43.9345,5.642 3.03612,7.00581 7.18441,10.26112 10.51278,12.89947 3.94534,3.14165 7.07076,5.54458 9.85522,16.60126 3.52321,14.01163 0.86863,18.89054 -0.0243,20.092 -0.34907,0.46272 -1.2664,1.42064 -4.03464,1.5343 -4.48112,0.19483 -7.9475,3.42578 -7.75266,7.90691 0.18671,4.36747 3.77486,6.64862 8.09362,6.64862 0.12177,0 0.24354,0 0.36531,0 6.75416,0 12.55039,-2.14315 16.34149,-7.21688 5.58517,-7.50913 6.51874,-17.80273 2.75199,-32.78852 -3.81545,-15.15626 -9.28696,-20.48165 -15.50533,-25.4255 -2.67082,-2.12691 -4.27818,-3.40144 -5.69883,-6.67298 -6.68109,-15.41604 -32.36637,-16.56068 -59.1557,-15.4404 -0.86863,-0.38966 -3.45826,-1.91584 -6.21025,-7.25747 -2.92248,-5.67446 -8.68624,-8.36152 -15.32675,-7.18441 -13.6382,2.40292 -31.34351,22.01596 -33.25124,36.80691 -0.51955,4.09147 0.25166,8.81613 1.0797,13.80868 0.26789,1.61548 0.6332,3.80734 0.85238,5.7313 -10.96739,-1.15276 -24.53253,1.13651 -38.36556,18.91489 -7.61467,9.79028 -9.01096,20.12446 -10.03382,27.66607 -0.30037,2.20809 -0.71438,5.27668 -1.56677,7.07075 -0.43026,-0.99851 -0.84427,-2.1675 -1.1284,-2.94682 -0.50332,-1.40441 -1.14464,-3.13354 -2.0295,-4.79773 3.94534,-10.8862 8.28034,-21.30969 11.30023,-25.76646 3.00365,-4.4243 7.64714,-13.28101 12.57475,-22.64916 4.03463,-7.6796 8.20727,-15.61899 10.26924,-18.71194 8.67812,-12.98876 25.81517,-34.98036 30.53983,-37.56188 l 3.04425,-2.8007 c 7.20064,-11.25964 31.31915,-21.41523 46.33741,-25.70964 4.31877,-0.10553 14.24706,0.69815 19.70234,5.17115 -0.92545,1.23393 -2.41916,2.84941 -3.42579,3.94534 -4.05899,4.40806 -9.10837,9.89581 -8.36963,16.9341 0.29224,2.77635 1.64794,6.80287 6.44567,10.2043 9.24638,6.57556 21.03368,1.85902 27.35759,-0.67379 5.95859,-2.37045 14.29576,-2.15939 19.58868,3.6125 2.54092,2.77635 5.44716,4.88702 8.62941,6.26708 12.39615,5.41469 12.75334,11.95778 9.48991,20.11635 -2.52469,6.28331 -1.16898,10.79691 0.41402,13.46772 4.18888,7.07888 13.46773,8.2154 22.45433,9.3032 5.23609,0.63321 11.73859,1.42877 14.51494,3.30402 8.80801,5.94236 19.46691,32.47191 14.06846,47.10051 -5.73129,15.49722 -4.08334,23.42037 -1.19334,27.5443 -4.49736,-2.76823 -8.7593,-6.08037 -12.40427,-9.53862 -6.55121,-6.22649 -12.26627,-8.94602 -17.72155,-10.22866 11.6493,-16.6175 6.79475,-28.99741 6.05601,-30.64536 -1.79407,-3.96158 -6.30767,-5.61764 -10.3423,-4.03464 -4.03464,1.61548 -6.01542,6.29143 -4.57854,10.39913 0.138,0.38966 2.99553,9.40062 -11.69801,23.15247 -3.83168,0.59262 -8.07739,2.07821 -12.73711,3.7911 -8.02056,2.93871 -18.00567,6.55933 -23.72885,3.88039 -2.58151,-1.21769 -4.57042,-3.90474 -6.0966,-8.23163 -4.52983,-12.86699 -4.91137,-24.64618 -5.22798,-34.11174 -0.37342,-11.3327 -0.79556,-24.19157 -13.11865,-26.5052 -4.45677,-0.83615 -8.64564,2.0782 -9.47368,6.47815 -0.76309,4.05087 1.63171,7.96373 5.44716,9.2139 0.61697,2.1675 0.79557,7.4036 0.91734,11.34894 0.33283,10.00946 0.77932,23.73696 6.13719,38.96629 2.99553,8.50764 7.87444,14.39318 14.49059,17.5186 11.90095,5.6014 25.39303,0.66567 36.23865,-3.31214 3.43391,-1.25828 8.67,-3.18224 10.22866,-3.09295 1.68042,0.0812 3.2553,0.12989 4.76525,0.17048 8.39399,0.21919 12.22567,0.32472 19.26396,7.01393 18.66323,17.71343 39.74562,24.77607 56.39559,18.80124 5.642,-2.00514 10.30172,-2.10255 15.55405,-0.41402 l 0.28413,0.0812 c 0.0244,0.008 0.0649,0.008 0.0974,0.0162 5.3741,1.81031 11.41387,5.49587 19.76727,10.98362 14.42565,9.48992 19.62927,24.62183 20.43295,32.0579 0.0893,1.05534 -0.25165,1.68854 -2.28927,4.335 z"
       id="path6"
       inkscape:connector-curvature="0"
       style="fill:#454545;fill-opacity:1" /><path
       d="m 742.91006,482.56189 c -0.0812,-3.66121 -2.63835,-6.93275 -6.37262,-7.75267 -4.35935,-0.9498 -8.71059,1.81031 -9.66851,6.1859 -0.69003,3.13354 -1.2664,14.07658 20.08388,23.37978 13.50831,5.89365 13.50831,5.90989 13.37031,23.06317 -0.1786,22.55175 19.20713,24.58936 34.78553,26.1886 15.9843,1.64795 34.10363,3.59627 46.15883,21.21228 4.8302,7.07076 12.07955,9.23014 17.37247,10.68326 1.81031,0.50331 4.54607,1.583 5.0575,2.03761 0,0 0.14613,1.02287 0.14613,1.95643 -0.0244,4.48113 3.58814,9.52239 8.07738,9.52239 0.008,0 0.0244,0 0.0325,0 4.473,0 8.10174,-4.98444 8.11797,-9.45744 0.0568,-13.97104 -11.12974,-18.41158 -17.13705,-20.05953 -4.21323,-1.16087 -6.86781,-1.96455 -8.27222,-4.0184 -16.29278,-23.83438 -40.33823,-26.30225 -57.89742,-28.11255 -18.52522,-1.89961 -20.26247,-3.45826 -20.20564,-9.87147 0.18671,-24.49194 -2.61399,-29.11107 -23.12812,-38.04896 -7.73644,-3.36896 -9.977,-6.08037 -10.5209,-6.9084 z"
       id="path8"
       inkscape:connector-curvature="0"
       style="fill:#454545;fill-opacity:1" /><path
       d="m 744.86649,655.1907 c -2.90624,-3.40144 -8.0368,-3.79922 -11.44635,-0.88486 -3.40143,2.90623 -3.80733,8.03679 -0.88486,11.44634 3.50697,4.09958 7.02205,9.61169 7.81761,12.13638 -1.92396,4.18888 -0.58449,7.32242 0.47896,8.91354 3.18225,4.77337 8.48329,3.91287 11.0161,3.48261 3.69368,-0.60884 5.70694,-0.6332 7.17629,0.78745 1.57489,1.52618 3.60438,2.28115 5.642,2.28115 2.12691,0 4.23758,-0.82803 5.83682,-2.47598 3.11731,-3.21472 3.02801,-8.36152 -0.18671,-11.47882 -4.62725,-4.48113 -9.95264,-5.65012 -14.32011,-5.7313 -1.77784,-6.37261 -6.51874,-13.07806 -11.12975,-18.47651 z"
       id="path10"
       inkscape:connector-curvature="0"
       style="fill:#454545;fill-opacity:1" /></g><path
     id="path3249"
     style="fill:none;fill-rule:evenodd;stroke:#1185e9;stroke-width:15;stroke-linecap:round;stroke-linejoin:round;stroke-miterlimit:4;stroke-dasharray:none;stroke-opacity:1"
     d="m 1022.4589,413.90786 46.2122,-6.9603 m -48.2712,5.45825 7.865,-46.06681 m 237.2012,-143.67308 c 0,0 -10.7649,29.78811 -19.9465,48.00749 -9.1816,18.21938 -15.7896,44.02645 -36.1976,60.41218 -20.408,16.38574 -43.8751,29.29939 -82.154,27.41103 -38.2789,-1.88836 -80.1427,28.57768 -79.1258,29.59455"
     inkscape:connector-curvature="0" /><text
     xml:space="preserve"
     style="font-style:normal;font-weight:normal;font-size:130.82252502px;line-height:125%;font-family:sans-serif;letter-spacing:0px;word-spacing:0px;fill:#454545;fill-opacity:1;stroke:none;stroke-width:1px;stroke-linecap:butt;stroke-linejoin:miter;stroke-opacity:1"
     x="154.48415"
     y="129.97466"
     id="text3355"
     sodipodi:linespacing="125%"><tspan
       sodipodi:role="line"
       id="tspan3357"
       x="154.48415"
       y="129.97466"
       style="font-style:normal;font-variant:normal;font-weight:normal;font-stretch:normal;font-family:'Just Another Hand';-inkscape-font-specification:'Just Another Hand';fill:#454545;fill-opacity:1"><tspan
   style="fill:#0082ff"
   id="tspan3359">F</tspan><tspan
   style="fill:none"
   id="tspan3389">irefox </tspan><tspan
   style="fill:#0082ff"
   id="tspan3361">I</tspan><tspan
   style="fill:none"
   id="tspan3391">nstead of </tspan><tspan
   style="fill:#0082ff"
   id="tspan3363">I</tspan><tspan
   style="fill:none"
   id="tspan3393">nternet </tspan><tspan
   style="fill:#0082ff"
   id="tspan3365">E</tspan><tspan
   style="fill:none"
   id="tspan3395">xplorer </tspan>Zone <tspan
   style="font-size:64.99999762%;baseline-shift:super;fill:#0082ff"
   id="tspan3372">*</tspan></tspan></text>
<text
     sodipodi:linespacing="125%"
     id="text3705"
     y="129.97466"
     x="185.60278"
     style="font-style:normal;font-weight:normal;font-size:130.82252502px;line-height:125%;font-family:sans-serif;letter-spacing:0px;word-spacing:0px;fill:#454545;fill-opacity:1;stroke:none;stroke-width:1px;stroke-linecap:butt;stroke-linejoin:miter;stroke-opacity:1"
     xml:space="preserve"><tspan
       style="font-style:normal;font-variant:normal;font-weight:normal;font-stretch:normal;font-family:'Just Another Hand';-inkscape-font-specification:'Just Another Hand';fill:#454545;fill-opacity:1"
       y="129.97466"
       x="185.60278"
       id="tspan3707"
       sodipodi:role="line">.</tspan></text>
<text
     xml:space="preserve"
     style="font-style:normal;font-weight:normal;font-size:130.82252502px;line-height:125%;font-family:sans-serif;letter-spacing:0px;word-spacing:0px;fill:#454545;fill-opacity:1;stroke:none;stroke-width:1px;stroke-linecap:butt;stroke-linejoin:miter;stroke-opacity:1"
     x="425.60278"
     y="129.97466"
     id="text3727"
     sodipodi:linespacing="125%"><tspan
       sodipodi:role="line"
       id="tspan3729"
       x="425.60278"
       y="129.97466"
       style="font-style:normal;font-variant:normal;font-weight:normal;font-stretch:normal;font-family:'Just Another Hand';-inkscape-font-specification:'Just Another Hand';fill:#454545;fill-opacity:1">.</tspan></text>
<text
     sodipodi:linespacing="125%"
     id="text3731"
     y="129.97466"
     x="745.60278"
     style="font-style:normal;font-weight:normal;font-size:130.82252502px;line-height:125%;font-family:sans-serif;letter-spacing:0px;word-spacing:0px;fill:#454545;fill-opacity:1;stroke:none;stroke-width:1px;stroke-linecap:butt;stroke-linejoin:miter;stroke-opacity:1"
     xml:space="preserve"><tspan
       style="font-style:normal;font-variant:normal;font-weight:normal;font-stretch:normal;font-family:'Just Another Hand';-inkscape-font-specification:'Just Another Hand';fill:#454545;fill-opacity:1"
       y="129.97466"
       x="745.60278"
       id="tspan3733"
       sodipodi:role="line">.</tspan></text>
<text
     xml:space="preserve"
     style="font-style:normal;font-weight:normal;font-size:130.82252502px;line-height:125%;font-family:sans-serif;letter-spacing:0px;word-spacing:0px;fill:#454545;fill-opacity:1;stroke:none;stroke-width:1px;stroke-linecap:butt;stroke-linejoin:miter;stroke-opacity:1"
     x="1015.6028"
     y="129.97466"
     id="text3735"
     sodipodi:linespacing="125%"><tspan
       sodipodi:role="line"
       id="tspan3737"
       x="1015.6028"
       y="129.97466"
       style="font-style:normal;font-variant:normal;font-weight:normal;font-stretch:normal;font-family:'Just Another Hand';-inkscape-font-specification:'Just Another Hand';fill:#454545;fill-opacity:1">.</tspan></text>
</svg>