<?xml version="1.0" encoding="UTF-8" standalone="no"?>
<svg
   xmlns:dc="http://purl.org/dc/elements/1.1/"
   xmlns:cc="http://creativecommons.org/ns#"
   xmlns:rdf="http://www.w3.org/1999/02/22-rdf-syntax-ns#"
   xmlns:svg="http://www.w3.org/2000/svg"
   xmlns="http://www.w3.org/2000/svg"
   xmlns:sodipodi="http://sodipodi.sourceforge.net/DTD/sodipodi-0.dtd"
   xmlns:inkscape="http://www.inkscape.org/namespaces/inkscape"
   version="1.1"
   x="0px"
   y="0px"
   viewBox="0 0 1440 1080"
   enable-background="new 0 0 100 100"
   xml:space="preserve"
   id="svg2"
   inkscape:version="0.91 r13725"
   sodipodi:docname="brain-falpie.svg"
   width="1440"
   height="1080"><sodipodi:namedview
     pagecolor="#ffffff"
     bordercolor="#666666"
     borderopacity="1"
     objecttolerance="10"
     gridtolerance="10"
     guidetolerance="10"
     inkscape:pageopacity="0"
     inkscape:pageshadow="2"
     inkscape:window-width="2560"
     inkscape:window-height="1406"
     id="namedview16"
     showgrid="false"
     inkscape:zoom="0.944"
     inkscape:cx="975.42424"
     inkscape:cy="576.68582"
     inkscape:window-x="0"
     inkscape:window-y="0"
     inkscape:window-maximized="1"
     inkscape:current-layer="svg2" /><metadata
     id="metadata20"><rdf:RDF><cc:Work
         rdf:about=""><dc:format>image/svg+xml</dc:format><dc:type
           rdf:resource="http://purl.org/dc/dcmitype/StillImage" /><dc:title></dc:title></cc:Work></rdf:RDF></metadata><defs
     id="defs18" /><path
     style="fill:#454545;fill-opacity:1"
     inkscape:connector-curvature="0"
     id="path4"
     d="m 1036.9189,627.90767 c -5.7998,-8.28794 -11.2863,-16.11942 -14.5442,-21.66858 -12.3603,-21.08682 -13.3627,-23.7361 -8.5117,-47.9913 4.4662,-22.3488 -1.6826,-43.22975 -8.1895,-65.32795 -1.9601,-6.659 -3.965,-13.47909 -5.74605,-20.55875 l -0.87713,-3.62485 c -35.74734,-149.532 -168.59605,-182.63006 -273.75265,-184.08 -1.89746,-0.0269 -3.76806,-0.0358 -5.63867,-0.0358 -228.91185,0 -287.35706,194.35489 -289.71992,263.04814 -2.21966,64.10176 32.01509,145.25378 55.84067,179.92709 22.69787,33.0175 39.99872,100.20711 42.06623,163.38699 2.02275,61.47039 -73.47269,184.26797 -74.23346,185.50307 -2.59557,4.2067 -1.30673,9.72 2.89989,12.3246 1.46783,0.9129 3.09679,1.3335 4.69888,1.3335 2.99834,0 5.92508,-1.5037 7.62562,-4.2424 3.22209,-5.227 79.09345,-128.65104 76.89169,-195.50949 -2.16597,-66.25877 -20.7467,-137.37754 -45.19882,-172.93692 -22.492,-32.70426 -54.78454,-109.08577 -52.71703,-169.16887 0.0895,-2.47027 15.63611,-245.7652 271.5867,-245.7652 1.86165,0 3.76806,0.0179 5.64761,0.0448 143.71433,1.978 230.03959,59.28652 256.59501,170.3324 l 0.93083,3.81281 c 1.82584,7.31236 3.9023,14.37411 5.92507,21.26582 6.13092,20.79145 11.41158,38.74567 7.81357,56.76254 -5.86241,29.28526 -3.76806,35.99795 10.63296,60.56642 3.6159,6.16673 9.2993,14.29356 15.3228,22.88581 11.4832,16.38793 28.8467,41.1533 29.4374,51.24025 0.6802,11.58163 -2.5956,15.38549 -17.5157,20.36184 -10.8924,3.62485 -18.1511,9.50517 -21.5969,17.44406 -2.1928,5.07479 -3.7323,13.47013 1.3962,24.58635 1.6827,3.65172 1.987,6.90961 0.8861,9.66629 -1.1725,2.94463 -4.0097,5.49546 -7.7867,7.00806 l -10.48975,4.19767 6.47995,9.24561 c 6.7754,9.67523 6.7754,12.57512 -0.054,19.40416 -14.43673,14.43677 -9.69309,27.03875 -7.14227,33.78724 l 0.71602,1.96906 c 1.5126,4.54673 4.80625,34.93286 -9.51412,42.47793 -7.74198,4.07237 -29.15996,6.81114 -48.05395,9.23666 -28.25597,3.61592 -54.96355,7.03492 -66.24087,16.19998 -20.67511,16.79964 -30.12659,50.06775 -24.09411,84.75001 1.7274,9.96161 -0.69812,18.79554 -4.06341,31.04844 -3.76806,13.7298 -8.458,30.771 -8.84286,55.9034 -0.0895,4.9316 3.85756,8.986 8.79811,8.986 0.0537,0 0.0985,0 0.1432,0 4.88684,0 8.8697,-3.8307 8.95025,-8.7265 0.34906,-22.8679 4.52884,-37.9849 8.2074,-51.4013 3.67855,-13.3986 6.85589,-24.9623 4.43933,-38.87103 -4.94055,-28.41707 2.03171,-55.01725 17.74836,-67.79821 7.32131,-5.95193 36.16801,-9.64838 57.23692,-12.35136 23.33333,-2.9894 43.49826,-5.56707 54.11326,-11.15203 25.16814,-13.24638 21.42694,-54.15803 18.15114,-63.97646 -0.2775,-0.84132 -0.5997,-1.70949 -0.9487,-2.62243 -2.0765,-5.50441 -3.2221,-8.53855 3.052,-14.81267 12.7541,-12.75413 11.8859,-24.14781 7.026,-34.1005 3.956,-3.19524 6.9722,-7.21391 8.7981,-11.7875 2.0496,-5.14639 3.5085,-13.46119 -1.262,-23.78978 -1.8975,-4.10817 -2.3092,-7.46452 -1.2262,-9.97955 1.6647,-3.8307 6.8022,-6.22937 10.8298,-7.58086 15.1707,-5.0569 31.2364,-12.61092 29.7149,-38.38767 -0.8145,-14.0698 -14.043,-33.93939 -32.6416,-60.459 z" /><path
     id="path3249"
     style="fill:none;fill-rule:evenodd;stroke:#1185e9;stroke-width:15;stroke-linecap:round;stroke-linejoin:round;stroke-miterlimit:4;stroke-dasharray:none;stroke-opacity:1"
     d="m 1022.4589,413.90786 46.2122,-6.9603 m -48.2712,5.45825 7.865,-46.06681 m 237.2012,-143.67308 c 0,0 -10.7649,29.7881 -19.9465,48.00748 -9.1816,18.21938 -15.7896,44.02645 -36.1976,60.41219 -20.408,16.38574 -43.8751,29.29939 -82.154,27.41103 -38.2789,-1.88836 -80.1427,28.57768 -79.1258,29.59455"
     inkscape:connector-curvature="0" /><text
     xml:space="preserve"
     style="font-style:normal;font-weight:normal;font-size:130.82252502px;line-height:125%;font-family:sans-serif;letter-spacing:0px;word-spacing:0px;fill:#454545;fill-opacity:1;stroke:none;stroke-width:1px;stroke-linecap:butt;stroke-linejoin:miter;stroke-opacity:1"
     x="154.48415"
     y="129.97464"
     id="text3355"
     sodipodi:linespacing="125%"><tspan
       sodipodi:role="line"
       id="tspan3357"
       x="154.48415"
       y="129.97464"
       style="font-style:normal;font-variant:normal;font-weight:normal;font-stretch:normal;font-family:'Just Another Hand';-inkscape-font-specification:'Just Another Hand';fill:#454545;fill-opacity:1"><tspan
   style="fill:#0082ff"
   id="tspan3359">F</tspan>irefox <tspan
   style="fill:#0082ff"
   id="tspan3361">I</tspan>nstead of <tspan
   style="fill:#0082ff"
   id="tspan3363">I</tspan>nternet <tspan
   style="fill:#0082ff"
   id="tspan3365">E</tspan>xplorer Zone</tspan></text>
</svg>