<?xml version="1.0" encoding="UTF-8" standalone="no"?>
<svg
   xmlns:dc="http://purl.org/dc/elements/1.1/"
   xmlns:cc="http://creativecommons.org/ns#"
   xmlns:rdf="http://www.w3.org/1999/02/22-rdf-syntax-ns#"
   xmlns:svg="http://www.w3.org/2000/svg"
   xmlns="http://www.w3.org/2000/svg"
   xmlns:sodipodi="http://sodipodi.sourceforge.net/DTD/sodipodi-0.dtd"
   xmlns:inkscape="http://www.inkscape.org/namespaces/inkscape"
   version="1.1"
   x="0px"
   y="0px"
   viewBox="0 0 1440 1080"
   enable-background="new 0 0 100 100"
   xml:space="preserve"
   id="svg2"
   inkscape:version="0.91 r13725"
   sodipodi:docname="brain-falpie.svg"
   width="1440"
   height="1080"><sodipodi:namedview
     pagecolor="#ffffff"
     bordercolor="#666666"
     borderopacity="1"
     objecttolerance="10"
     gridtolerance="10"
     guidetolerance="10"
     inkscape:pageopacity="0"
     inkscape:pageshadow="2"
     inkscape:window-width="2560"
     inkscape:window-height="1406"
     id="namedview16"
     showgrid="false"
     inkscape:zoom="0.6675088"
     inkscape:cx="830.48691"
     inkscape:cy="501.13958"
     inkscape:window-x="0"
     inkscape:window-y="0"
     inkscape:window-maximized="1"
     inkscape:current-layer="svg2" /><metadata
     id="metadata20"><rdf:RDF><cc:Work
         rdf:about=""><dc:format>image/svg+xml</dc:format><dc:type
           rdf:resource="http://purl.org/dc/dcmitype/StillImage" /><dc:title /></cc:Work></rdf:RDF></metadata><defs
     id="defs18" /><path
     inkscape:connector-curvature="0"
     id="path3215"
     d="m 917.90254,561.99153 -10.06356,-55.08475 -30.72034,-48.19915 -53.49576,-32.83899 -70.44491,-25.42372 -32.30933,-2.64831 1.58899,34.95763 6.35593,31.77966 16.41949,25.95339 21.18644,22.24576 11.12288,32.83898 27.01271,4.23729 34.42797,11.65254 19.59746,16.4195 23.30508,20.12711 13.77119,12.71187 z"
     style="fill:#1185e9;fill-rule:evenodd;stroke:none;stroke-width:1px;stroke-linecap:butt;stroke-linejoin:miter;stroke-opacity:1;fill-opacity:1" /><g
     transform="matrix(8.1179781,0,0,8.1179781,308.38716,-7429.6417)"
     id="g3207"
     style="fill:#454545;fill-opacity:1"><path
       d="m 82.789,997.851 c -0.648,-0.926 -1.261,-1.801 -1.625,-2.421 -1.381,-2.356 -1.493,-2.652 -0.951,-5.362 0.499,-2.497 -0.188,-4.83 -0.915,-7.299 -0.219,-0.744 -0.443,-1.506 -0.642,-2.297 l -0.098,-0.405 C 74.564,963.36 59.721,959.662 47.972,959.5 c -0.212,-0.003 -0.421,-0.004 -0.63,-0.004 -25.576,0 -32.106,21.715 -32.37,29.39 -0.248,7.162 3.577,16.229 6.239,20.103 2.536,3.689 4.469,11.196 4.7,18.255 0.226,6.868 -8.209,20.588 -8.294,20.726 -0.29,0.47 -0.146,1.086 0.324,1.377 0.164,0.102 0.346,0.149 0.525,0.149 0.335,0 0.662,-0.168 0.852,-0.474 0.36,-0.584 8.837,-14.374 8.591,-21.844 -0.242,-7.403 -2.318,-15.349 -5.05,-19.322 -2.513,-3.654 -6.121,-12.188 -5.89,-18.901 0.01,-0.276 1.747,-27.459 30.344,-27.459 0.208,0 0.421,0.002 0.631,0.005 16.057,0.221 25.702,6.624 28.669,19.031 l 0.104,0.426 c 0.204,0.817 0.436,1.606 0.662,2.376 0.685,2.323 1.275,4.329 0.873,6.342 -0.655,3.272 -0.421,4.022 1.188,6.767 0.404,0.689 1.039,1.597 1.712,2.557 1.283,1.831 3.223,4.598 3.289,5.725 0.076,1.294 -0.29,1.719 -1.957,2.275 -1.217,0.405 -2.028,1.062 -2.413,1.949 -0.245,0.567 -0.417,1.505 0.156,2.747 0.188,0.408 0.222,0.772 0.099,1.08 -0.131,0.329 -0.448,0.614 -0.87,0.783 l -1.172,0.469 0.724,1.033 c 0.757,1.081 0.757,1.405 -0.006,2.168 -1.613,1.613 -1.083,3.021 -0.798,3.775 l 0.08,0.22 c 0.169,0.508 0.537,3.903 -1.063,4.746 -0.865,0.455 -3.258,0.761 -5.369,1.032 -3.157,0.404 -6.141,0.786 -7.401,1.81 -2.31,1.877 -3.366,5.594 -2.692,9.469 0.193,1.113 -0.078,2.1 -0.454,3.469 -0.421,1.534 -0.945,3.438 -0.988,6.246 -0.01,0.551 0.431,1.004 0.983,1.004 0.006,0 0.011,0 0.016,0 0.546,0 0.991,-0.428 1,-0.975 0.039,-2.555 0.506,-4.244 0.917,-5.743 0.411,-1.497 0.766,-2.789 0.496,-4.343 -0.552,-3.175 0.227,-6.147 1.983,-7.575 0.818,-0.665 4.041,-1.078 6.395,-1.38 2.607,-0.334 4.86,-0.622 6.046,-1.246 2.812,-1.48 2.394,-6.051 2.028,-7.148 -0.031,-0.094 -0.067,-0.191 -0.106,-0.293 -0.232,-0.615 -0.36,-0.954 0.341,-1.655 1.425,-1.425 1.328,-2.698 0.785,-3.81 0.442,-0.357 0.779,-0.806 0.983,-1.317 0.229,-0.575 0.392,-1.504 -0.141,-2.658 -0.212,-0.459 -0.258,-0.834 -0.137,-1.115 0.186,-0.428 0.76,-0.696 1.21,-0.847 1.695,-0.565 3.49,-1.409 3.32,-4.289 -0.091,-1.572 -1.569,-3.792 -3.647,-6.755 z"
       id="path4"
       inkscape:connector-curvature="0"
       style="fill:#454545;fill-opacity:1" /><path
       d="m 63.644,998.355 c -0.041,-0.195 -0.013,-0.261 0.277,-0.637 0.313,-0.405 0.784,-1.018 0.684,-1.961 -0.059,-0.554 -0.228,-1.209 -0.511,-1.886 0.844,0.013 1.833,-0.029 2.681,-0.22 1.028,-0.231 1.648,-0.515 2.146,-0.743 0.403,-0.185 0.722,-0.33 1.207,-0.435 1.38,-0.296 4.163,-1.787 4.658,-4.052 0.175,-0.796 0.129,-1.366 0.036,-1.778 0.918,-0.734 1.543,-2.13 0.936,-4.208 -0.313,-1.071 -0.458,-1.825 -0.573,-2.431 -0.122,-0.637 -0.218,-1.139 -0.449,-1.611 -0.044,-0.092 -0.112,-0.278 -0.209,-0.534 -0.19,-0.5 -0.468,-1.23 -0.834,-2.059 -0.051,-0.284 -0.168,-0.527 -0.338,-0.734 -0.992,-2.076 -2.499,-4.521 -4.599,-5.684 -1.632,-0.904 -2.058,-1.346 -2.399,-1.7 -0.472,-0.488 -0.846,-0.82 -2.063,-1.31 l -1.296,-0.527 c -3.411,-1.396 -6.341,-2.563 -7.646,-2.718 -0.879,-0.104 -1.967,-0.056 -3.018,-0.009 -0.813,0.036 -1.655,0.072 -2.093,0.012 -0.749,-0.102 -1.732,0.073 -2.688,0.244 -0.657,0.118 -1.403,0.257 -1.756,0.219 -0.142,-0.013 -0.303,-0.032 -0.483,-0.054 -1.176,-0.138 -3.145,-0.371 -5.881,0.168 -2.282,0.451 -3.205,1.2 -3.814,1.696 -0.129,0.104 -0.306,0.248 -0.363,0.264 -0.531,0.148 -5.121,1.481 -6.833,3.858 -1.478,1.066 -4.214,5.085 -4.243,5.129 -0.313,0.468 -0.827,1.447 -1.372,2.485 -0.528,1.006 -1.127,2.146 -1.433,2.597 -0.827,1.218 -1.844,4.225 -2.136,5.116 -0.068,0.208 -0.165,0.44 -0.272,0.702 -0.515,1.253 -1.285,3.194 -0.923,5.953 0.005,0.017 0.002,0.036 0.008,0.053 0.094,0.688 0.238,1.412 0.497,2.205 l 0.439,1.362 c 0.198,0.619 0.38,1.174 0.558,1.702 0.005,0.014 0.009,0.027 0.014,0.041 0.88,2.604 1.625,4.117 3.337,4.663 0.937,0.298 1.662,0.261 2.243,0.23 0.012,0 0.021,0 0.033,0 0.442,1.341 1.833,4.248 5.755,5.042 1.789,0.362 3.084,0.475 3.998,0.539 0.476,1.084 0.694,3.542 0.695,5.147 0,0.553 0.448,1 1,1 0.553,0 1,-0.448 1,-1 0,-0.442 -0.019,-1.832 -0.216,-3.284 0.269,0.142 0.564,0.219 0.884,0.219 0.2,0 0.41,-0.028 0.629,-0.084 0.586,-0.148 1.036,-0.613 1.463,-1.178 -0.147,1.041 -0.248,2.358 -0.269,4.068 -0.009,0.555 0.433,0.769 0.985,0.769 0.005,0 0.009,0 0.013,0 0.547,0 0.993,-0.193 1,-0.741 0.033,-2.664 0.395,-5.15 0.789,-5.813 0.722,-0.164 1.33,-0.583 1.728,-1.193 0.443,-0.679 0.593,-1.57 0.418,-2.268 -0.003,-0.028 -0.001,-0.054 -0.006,-0.082 0.017,-0.058 0.13,-0.237 0.389,-0.37 0.231,-0.118 0.608,-0.213 1.088,0 0.398,0.172 0.801,0.388 1.211,0.605 1.355,0.721 2.893,1.535 4.679,1.221 0.504,-0.088 0.878,-0.024 1.351,0.056 1.088,0.186 2.318,0.394 4.825,-0.996 3.657,-2.028 5.493,-3.047 5.062,-5.06 z M 52.422,965.117 c 0.927,-0.041 1.976,-0.088 2.694,-0.003 1.141,0.135 4.885,1.667 7.123,2.582 l 1.307,0.532 c 0.909,0.365 1.073,0.535 1.37,0.843 0.412,0.428 0.977,1.012 2.87,2.062 0.879,0.487 1.646,1.309 2.304,2.244 -0.195,-0.106 -0.365,-0.214 -0.449,-0.328 -0.897,-1.216 -1.887,-1.803 -2.913,-1.741 -0.775,0.044 -1.361,0.444 -1.758,0.832 -0.45,-0.194 -0.932,-0.294 -1.414,-0.265 -0.078,-0.145 -0.175,-0.364 -0.252,-0.539 -0.416,-0.946 -1.046,-2.377 -2.722,-3.225 -1.421,-0.718 -2.123,-0.657 -2.772,-0.521 -0.218,0.043 -0.306,0.063 -0.878,-0.366 -1.471,-1.101 -3.106,-0.617 -4.298,-0.265 -0.375,0.111 -0.93,0.274 -1.047,0.273 -0.751,-0.549 -0.054,-2.025 -0.026,-2.083 0.275,-0.008 0.558,-0.019 0.861,-0.032 z m -7.344,0.409 c 0.2,0.023 0.378,0.045 0.536,0.06 0.617,0.056 1.433,-0.09 2.292,-0.243 0.501,-0.089 1.079,-0.19 1.535,-0.227 -0.348,1.178 -0.373,2.749 0.964,3.729 0.835,0.614 1.833,0.317 2.797,0.032 1.126,-0.334 1.91,-0.518 2.531,-0.052 1.089,0.813 1.713,0.88 2.48,0.724 0.286,-0.06 0.556,-0.113 1.467,0.348 1.036,0.523 1.438,1.438 1.794,2.245 0.341,0.774 0.848,1.943 2.149,1.737 0.594,-0.093 1.188,0.423 1.403,0.984 0.199,0.526 0.062,0.945 -0.411,1.245 -1.131,0.722 -3.248,0.406 -5.101,-1.582 -0.377,-0.405 -1.011,-0.426 -1.413,-0.05 -0.404,0.376 -0.427,1.009 -0.05,1.413 1.717,1.843 3.605,2.567 5.21,2.567 0.935,0 1.773,-0.245 2.426,-0.659 1.269,-0.806 1.743,-2.236 1.208,-3.645 -0.097,-0.255 -0.229,-0.487 -0.375,-0.707 0.105,-0.076 0.216,-0.137 0.326,-0.143 0.319,10e-4 0.743,0.335 1.185,0.933 0.587,0.795 1.631,1.18 2.552,1.52 0.364,0.134 0.876,0.326 1.11,0.477 0.432,0.941 0.755,1.79 0.962,2.337 0.129,0.339 0.224,0.584 0.282,0.703 0.114,0.232 0.181,0.581 0.281,1.108 0.117,0.614 0.278,1.454 0.618,2.616 0.369,1.263 0.026,1.824 -0.244,2.061 -0.272,-0.114 -0.683,-0.583 -0.84,-1.901 -0.159,-1.341 -0.663,-2.342 -1.497,-2.976 -1.084,-0.825 -2.291,-0.666 -2.423,-0.647 -0.546,0.084 -0.92,0.595 -0.836,1.141 0.084,0.546 0.594,0.918 1.141,0.836 0.004,0 0.5,-0.048 0.908,0.263 0.386,0.293 0.628,0.838 0.721,1.62 0.181,1.523 0.688,2.603 1.508,3.207 0.185,0.136 0.365,0.226 0.54,0.299 0.074,0.208 0.153,0.477 0.017,1.096 -0.247,1.129 -2.038,2.291 -3.125,2.524 -0.699,0.149 -1.167,0.364 -1.62,0.571 -0.477,0.219 -0.928,0.425 -1.753,0.61 -1.167,0.262 -2.782,0.167 -3.513,0.103 -0.449,-0.531 -0.98,-1.032 -1.625,-1.456 -0.042,-0.028 -0.084,-0.055 -0.127,-0.082 1.457,-0.536 2.927,-1.581 3.504,-3.469 0.162,-0.528 -0.136,-1.087 -0.664,-1.248 -0.53,-0.164 -1.088,0.137 -1.248,0.664 -0.474,1.548 -1.982,2.175 -3.116,2.413 0.413,-0.754 0.743,-1.668 0.342,-2.539 -0.23,-0.503 -0.826,-0.729 -1.329,-0.497 -0.501,0.231 -0.723,0.819 -0.492,1.32 0.054,0.266 -0.458,1.073 -0.65,1.377 -0.059,0.092 -0.111,0.18 -0.165,0.269 -0.687,-0.077 -1.414,-0.022 -2.221,0.266 -0.716,0.253 -1.521,0.136 -2.312,-0.175 0.35,-0.039 0.671,-0.252 0.815,-0.6 0.158,-0.378 0.065,-0.799 -0.201,-1.077 -0.013,-0.161 0.002,-0.614 0.351,-1.556 1.038,-2.81 -0.791,-7.006 -2.49,-8.153 -0.741,-0.5 -1.764,-0.625 -2.665,-0.734 -0.361,-0.044 -0.864,-0.105 -1.159,-0.188 0.814,-2.158 -0.008,-3.956 -2.268,-4.942 -0.133,-0.059 -0.267,-0.159 -0.389,-0.292 -1.297,-1.415 -3.261,-1.497 -4.629,-0.951 -0.584,0.233 -1.017,0.336 -1.269,0.346 0.109,-0.135 0.248,-0.285 0.349,-0.394 0.541,-0.588 1.666,-1.811 0.618,-3.003 -0.415,-0.471 -0.939,-0.781 -1.476,-1.001 0.346,-0.138 0.775,-0.268 1.303,-0.383 1.386,0.328 1.873,1.214 2.163,1.753 0.148,0.276 0.289,0.543 0.605,0.712 0.929,0.494 1.769,0.155 2.271,-0.054 0.147,-0.06 0.366,-0.129 0.439,-0.129 10e-4,0 0.003,0 0.005,0 0.063,0 0.096,0.109 0.18,0.472 0.139,0.599 0.349,1.48 1.417,2.143 0.21,0.13 0.479,0.425 0.763,0.736 0.803,0.881 2.023,2.221 4.219,2.221 0.643,0 1.369,-0.114 2.192,-0.39 0.524,-0.175 0.807,-0.741 0.632,-1.265 -0.175,-0.524 -0.741,-0.809 -1.265,-0.632 -2.403,0.801 -3.325,-0.21 -4.3,-1.281 -0.381,-0.418 -0.741,-0.813 -1.188,-1.09 -0.348,-0.215 -0.408,-0.423 -0.522,-0.915 -0.115,-0.499 -0.29,-1.252 -1.07,-1.739 -0.905,-0.564 -1.759,-0.21 -2.268,10e-4 -0.197,0.082 -0.322,0.129 -0.407,0.15 -0.143,-0.263 -0.365,-0.642 -0.705,-1.038 0.945,-0.003 1.712,0.083 2.31,0.153 z m -5.877,40.851 c -0.245,0.353 -0.654,0.941 -0.778,1.027 -0.042,0.011 -0.074,0.017 -0.091,0.022 -0.047,-0.069 -0.137,-0.244 -0.264,-0.674 -0.36,-1.227 -1.438,-1.299 -2.685,-1.382 -0.919,-0.061 -2.179,-0.145 -4.061,-0.526 -1.854,-0.375 -2.941,-1.385 -3.568,-2.312 1.581,0.446 3.45,-0.171 4.763,-0.616 0.309,-0.104 0.583,-0.198 0.806,-0.258 1.39,-0.373 2.581,-0.439 3.108,-0.17 0.402,0.205 1.157,0.404 2.456,0.738 1.211,0.313 3.649,0.944 4.227,1.32 -0.003,0.175 -0.047,0.373 -0.164,0.553 -0.127,0.194 -0.313,0.247 -0.567,0.287 -0.081,0.013 -0.188,0.03 -0.309,0.07 -0.141,0.01 -0.292,0.014 -0.462,0.01 -1.06,-0.069 -1.744,0.953 -2.411,1.913 z m 23.135,-9.879 c -0.332,0.431 -0.888,1.152 -0.647,2.276 0.037,0.173 -0.138,0.4 -0.44,0.66 0.176,-1.129 -0.071,-1.712 -0.34,-2.211 -0.133,-0.247 -0.178,-0.33 -0.069,-0.807 0.229,-0.999 0.021,-1.967 -0.584,-2.726 -0.679,-0.851 -1.854,-1.4 -2.996,-1.4 -0.553,0 -1,0.447 -1,1 0,0.553 0.447,1 1,1 0.539,0 1.128,0.267 1.433,0.647 0.227,0.285 0.292,0.623 0.198,1.033 -0.256,1.117 -0.023,1.679 0.259,2.202 0.138,0.255 0.213,0.395 0.124,0.961 -0.223,1.408 -0.235,1.438 -1.711,2.557 -1.854,1.018 -2.607,0.894 -3.47,0.747 -0.56,-0.094 -1.19,-0.203 -2.034,-0.054 -1.109,0.194 -2.219,-0.396 -3.392,-1.019 -0.459,-0.244 -0.91,-0.486 -1.355,-0.68 -1.403,-0.604 -2.676,-0.165 -3.4,0.458 -0.148,0.128 -0.27,0.269 -0.382,0.413 -0.891,-0.388 -2.207,-0.768 -4.141,-1.267 -0.812,-0.209 -1.821,-0.47 -2.049,-0.585 -0.977,-0.496 -2.316,-0.434 -3.504,-0.213 0.047,-0.312 -0.036,-0.638 -0.282,-0.872 -0.008,-0.008 -0.795,-0.799 -0.471,-1.982 0.107,-0.236 0.199,-0.5 0.296,-0.811 0.092,-0.297 0.273,-0.884 0.424,-1.11 0.276,-10e-4 0.905,0.119 1.334,0.206 0.558,0.114 1.194,0.241 1.81,0.268 0.475,1.249 1.501,2.218 2.984,2.767 0.313,0.116 1.118,0.386 1.825,0.386 0.361,0 0.697,-0.07 0.929,-0.269 0.42,-0.358 0.47,-0.99 0.11,-1.409 -0.252,-0.296 -0.637,-0.409 -0.993,-0.323 -0.315,-0.028 -2.259,-0.271 -2.928,-1.714 0.165,-0.154 0.315,-0.334 0.429,-0.571 0.136,-0.283 0.217,-0.644 0.268,-1.021 0.775,0.401 1.612,0.585 2.555,0.368 1.973,-0.456 4.396,-0.832 5.664,0.303 0.004,0.004 0.01,0.005 0.014,0.009 0.005,0.004 0.006,0.01 0.011,0.014 1.525,1.274 0.889,2.734 0.807,2.905 -0.245,0.489 -0.05,1.087 0.438,1.337 0.146,0.075 0.302,0.11 0.455,0.11 0.363,0 0.714,-0.198 0.891,-0.544 0.527,-1.029 0.933,-3.471 -1.308,-5.344 -0.011,-0.009 -0.024,-0.01 -0.035,-0.019 -1.942,-1.682 -4.82,-1.308 -7.387,-0.716 -1.116,0.255 -2.152,-0.755 -3.732,-2.457 -0.402,-0.433 -0.813,-0.867 -1.243,-1.291 -1.278,-1.262 -1.219,-2.584 -1.136,-4.438 0.025,-0.584 0.052,-1.148 0.035,-1.763 -0.079,-2.81 -1.895,-3.509 -2.845,-3.509 -0.003,0 -0.006,0 -0.009,0 -0.549,0 -0.995,0.374 -1,0.923 -0.005,0.553 0.439,0.936 0.991,0.94 0.008,0 0.817,0.025 0.86,1.635 0.016,0.565 -0.01,1.116 -0.033,1.653 -0.058,1.293 -0.108,2.613 0.369,3.894 -0.005,0.025 -0.008,0.038 -0.013,0.064 -0.3,1.601 -0.747,2.666 -1.951,2.666 -0.357,0 -0.778,-0.122 -1.224,-0.252 -0.922,-0.27 -2.066,-0.603 -3.329,-0.034 -0.519,0.232 -0.899,0.647 -1.101,1.199 -0.565,1.556 0.496,3.886 0.714,4.337 0.173,0.356 0.529,0.564 0.9,0.564 0.146,0 0.294,-0.032 0.435,-0.1 0.497,-0.24 0.705,-0.838 0.466,-1.335 -0.59,-1.225 -0.832,-2.605 -0.595,-2.842 0.563,-0.252 1.108,-0.115 1.95,0.13 0.561,0.163 1.141,0.332 1.783,0.332 1.981,0 2.945,-1.312 3.436,-2.54 0.367,0.368 0.725,0.748 1.07,1.12 0.374,0.403 0.752,0.806 1.139,1.186 0.044,0.527 0.019,1.375 -0.081,1.611 -0.273,0.162 -1.439,-0.074 -1.997,-0.188 -0.948,-0.194 -1.77,-0.362 -2.438,-0.14 -0.985,0.325 -1.344,1.481 -1.632,2.41 -0.069,0.221 -0.163,0.523 -0.212,0.612 -0.021,0.037 -0.023,0.078 -0.038,0.116 -0.016,0.038 -0.044,0.067 -0.055,0.108 -0.013,0.045 -0.012,0.085 -0.023,0.13 -0.002,0.013 -0.005,0.025 -0.007,0.038 -0.471,1.953 0.586,3.334 0.937,3.721 -0.065,0.022 -0.124,0.041 -0.192,0.064 -1.139,0.386 -3.045,1.031 -3.947,0.438 -1.195,-0.781 -2.099,-0.737 -2.893,-0.693 -0.505,0.027 -0.944,0.049 -1.533,-0.14 -0.813,-0.259 -1.306,-1.231 -1.987,-3.215 0.052,-0.314 0.179,-0.66 0.277,-0.72 0,10e-4 0.091,-0.014 0.313,0.087 0.504,0.231 1.097,0.011 1.326,-0.49 0.231,-0.502 0.012,-1.096 -0.49,-1.326 -1.004,-0.463 -1.731,-0.251 -2.165,0.009 -0.018,0.011 -0.031,0.026 -0.048,0.037 l -0.279,-0.863 c -0.146,-0.446 -0.25,-0.867 -0.33,-1.271 0.512,0.633 1.373,1.125 2.347,1.125 0.018,0 0.034,0 0.051,0 1.039,0 1.937,-0.573 2.462,-1.31 0.316,-0.443 0.549,-1.177 0.795,-1.818 0.711,-1.849 1.147,-2.589 2.009,-2.385 0.54,0.124 1.075,-0.202 1.2,-0.741 0.124,-0.538 -0.211,-1.059 -0.749,-1.184 -2.701,-0.621 -3.717,2.067 -4.327,3.654 -0.19,0.495 -0.387,1.073 -0.556,1.309 -0.148,0.207 -0.477,0.475 -0.861,0.475 -0.007,0 -0.015,0 -0.022,0 -0.426,0 -0.734,-0.284 -0.818,-0.395 -0.593,-0.789 -1.219,-1.079 -1.678,-1.103 0.094,-1.206 0.43,-2.161 0.737,-2.919 0.288,0.315 0.673,0.558 1.204,0.558 0.118,0 0.242,-0.011 0.373,-0.036 1.588,-0.302 1.777,-1.698 1.915,-2.719 0.111,-0.82 0.227,-1.668 0.833,-2.448 1.344,-1.727 2.393,-1.69 3.352,-1.506 0.705,0.139 1.146,-0.164 1.344,-0.357 0.664,-0.646 0.497,-1.656 0.32,-2.727 -0.066,-0.404 -0.149,-0.908 -0.122,-1.122 0.138,-1.077 1.655,-2.551 2.328,-2.788 0.916,1.621 2.052,1.769 2.277,1.781 l 0.197,-0.005 c 4.651,-0.197 5.319,0.481 5.412,0.695 0.374,0.863 0.885,1.264 1.295,1.589 0.486,0.387 0.871,0.683 1.214,2.045 0.434,1.726 0.107,2.327 -0.003,2.475 -0.043,0.057 -0.156,0.175 -0.497,0.189 -0.552,0.024 -0.979,0.422 -0.955,0.974 0.023,0.538 0.465,0.819 0.997,0.819 0.015,0 0.03,0 0.045,0 0.832,0 1.546,-0.264 2.013,-0.889 0.688,-0.925 0.803,-2.193 0.339,-4.039 -0.47,-1.867 -1.144,-2.523 -1.91,-3.132 -0.329,-0.262 -0.527,-0.419 -0.702,-0.822 -0.823,-1.899 -3.987,-2.04 -7.287,-1.902 -0.107,-0.048 -0.426,-0.236 -0.765,-0.894 -0.36,-0.699 -1.07,-1.03 -1.888,-0.885 -1.68,0.296 -3.861,2.712 -4.096,4.534 -0.064,0.504 0.031,1.086 0.133,1.701 0.033,0.199 0.078,0.469 0.105,0.706 -1.351,-0.142 -3.022,0.14 -4.726,2.33 -0.938,1.206 -1.11,2.479 -1.236,3.408 -0.037,0.272 -0.088,0.65 -0.193,0.871 -0.053,-0.123 -0.104,-0.267 -0.139,-0.363 -0.062,-0.173 -0.141,-0.386 -0.25,-0.591 0.486,-1.341 1.02,-2.625 1.392,-3.174 0.37,-0.545 0.942,-1.636 1.549,-2.79 0.497,-0.946 1.011,-1.924 1.265,-2.305 1.069,-1.6 3.18,-4.309 3.762,-4.627 l 0.375,-0.345 c 0.887,-1.387 3.858,-2.638 5.708,-3.167 0.532,-0.013 1.755,0.086 2.427,0.637 -0.114,0.152 -0.298,0.351 -0.422,0.486 -0.5,0.543 -1.122,1.219 -1.031,2.086 0.036,0.342 0.203,0.838 0.794,1.257 1.139,0.81 2.591,0.229 3.37,-0.083 0.734,-0.292 1.761,-0.266 2.413,0.445 0.313,0.342 0.671,0.602 1.063,0.772 1.527,0.667 1.571,1.473 1.169,2.478 -0.311,0.774 -0.144,1.33 0.051,1.659 0.516,0.872 1.659,1.012 2.766,1.146 0.645,0.078 1.446,0.176 1.788,0.407 1.085,0.732 2.398,4 1.733,5.802 -0.706,1.909 -0.503,2.885 -0.147,3.393 -0.554,-0.341 -1.079,-0.749 -1.528,-1.175 -0.807,-0.767 -1.511,-1.102 -2.183,-1.26 1.435,-2.047 0.837,-3.572 0.746,-3.775 -0.221,-0.488 -0.777,-0.692 -1.274,-0.497 -0.497,0.199 -0.741,0.775 -0.564,1.281 0.017,0.048 0.369,1.158 -1.441,2.852 -0.472,0.073 -0.995,0.256 -1.569,0.467 -0.988,0.362 -2.218,0.808 -2.923,0.478 -0.318,-0.15 -0.563,-0.481 -0.751,-1.014 -0.558,-1.585 -0.605,-3.036 -0.644,-4.202 -0.046,-1.396 -0.098,-2.98 -1.616,-3.265 -0.549,-0.103 -1.065,0.256 -1.167,0.798 -0.094,0.499 0.201,0.981 0.671,1.135 0.076,0.267 0.098,0.912 0.113,1.398 0.041,1.233 0.096,2.924 0.756,4.8 0.369,1.048 0.97,1.773 1.785,2.158 1.466,0.69 3.128,0.082 4.464,-0.408 0.423,-0.155 1.068,-0.392 1.26,-0.381 0.207,0.01 0.401,0.016 0.587,0.021 1.034,0.027 1.506,0.04 2.373,0.864 2.299,2.182 4.896,3.052 6.947,2.316 0.695,-0.247 1.269,-0.259 1.916,-0.051 l 0.035,0.01 c 0.003,10e-4 0.008,10e-4 0.012,0.002 0.662,0.223 1.406,0.677 2.435,1.353 1.777,1.169 2.418,3.033 2.517,3.949 0.011,0.13 -0.031,0.208 -0.282,0.534 z"
       id="path6"
       inkscape:connector-curvature="0"
       style="fill:#454545;fill-opacity:1" /><path
       d="m 53.526,974.652 c -0.01,-0.451 -0.325,-0.854 -0.785,-0.955 -0.537,-0.117 -1.073,0.223 -1.191,0.762 -0.085,0.386 -0.156,1.734 2.474,2.88 1.664,0.726 1.664,0.728 1.647,2.841 -0.022,2.778 2.366,3.029 4.285,3.226 1.969,0.203 4.201,0.443 5.686,2.613 0.595,0.871 1.488,1.137 2.14,1.316 0.223,0.062 0.56,0.195 0.623,0.251 0,0 0.018,0.126 0.018,0.241 -0.003,0.552 0.442,1.173 0.995,1.173 10e-4,0 0.003,0 0.004,0 0.551,0 0.998,-0.614 1,-1.165 0.007,-1.721 -1.371,-2.268 -2.111,-2.471 -0.519,-0.143 -0.846,-0.242 -1.019,-0.495 -2.007,-2.936 -4.969,-3.24 -7.132,-3.463 -2.282,-0.234 -2.496,-0.426 -2.489,-1.216 0.023,-3.017 -0.322,-3.586 -2.849,-4.687 -0.953,-0.415 -1.229,-0.749 -1.296,-0.851 z"
       id="path8"
       inkscape:connector-curvature="0"
       style="fill:#454545;fill-opacity:1" /><path
       d="m 53.767,995.917 c -0.358,-0.419 -0.99,-0.468 -1.41,-0.109 -0.419,0.358 -0.469,0.99 -0.109,1.41 0.432,0.505 0.865,1.184 0.963,1.495 -0.237,0.516 -0.072,0.902 0.059,1.098 0.392,0.588 1.045,0.482 1.357,0.429 0.455,-0.075 0.703,-0.078 0.884,0.097 0.194,0.188 0.444,0.281 0.695,0.281 0.262,0 0.522,-0.102 0.719,-0.305 0.384,-0.396 0.373,-1.03 -0.023,-1.414 -0.57,-0.552 -1.226,-0.696 -1.764,-0.706 -0.219,-0.785 -0.803,-1.611 -1.371,-2.276 z"
       id="path10"
       inkscape:connector-curvature="0"
       style="fill:#454545;fill-opacity:1" /></g><path
     id="path3249"
     style="fill:none;fill-rule:evenodd;stroke:#1185e9;stroke-width:15;stroke-linecap:round;stroke-linejoin:round;stroke-miterlimit:4;stroke-dasharray:none;stroke-opacity:1"
     d="m 922.4589,413.90786 46.21217,-6.9603 m -48.27121,5.45825 7.86507,-46.06681 M 1165.4661,222.66592 c 0,0 -10.7649,29.7881 -19.9465,48.00748 -9.1816,18.21938 -15.7896,44.02645 -36.1976,60.41219 -20.408,16.38574 -43.8751,29.29939 -82.154,27.41103 -38.27891,-1.88836 -80.14272,28.57768 -79.12585,29.59455" /><path
     inkscape:connector-curvature="0"
     id="path3438"
     style="font-style:normal;font-weight:normal;font-size:medium;line-height:125%;font-family:sans-serif;letter-spacing:0px;word-spacing:0px;fill:#1185e9;fill-opacity:1;stroke:none;stroke-width:1px;stroke-linecap:butt;stroke-linejoin:miter;stroke-opacity:1"
     d="m 576.8514,78.774472 q 0,2.154534 -1.14909,3.375436 -1.14908,1.220903 -2.87271,1.795445 -1.72363,0.574543 -3.66271,0.718178 -1.93908,0.143636 -3.51907,0.143636 -3.15998,0 -6.31997,-0.07182 -3.15998,-0.07182 -6.31996,-0.07182 -1.50818,0 -3.01635,0 -1.50817,0 -3.01635,0.143636 -0.57454,1.220902 -0.71817,2.513622 -0.14364,1.220903 -0.14364,2.513623 0,6.750873 0.50272,13.358112 0.50273,6.60724 1.07727,13.35811 4.30907,-0.35909 8.61814,-0.86181 4.30906,-0.50273 8.76177,-1.14909 0.57454,0 1.07726,-0.0718 0.50273,-0.0718 1.07727,-0.0718 2.87271,0 2.87271,3.15998 0,0.86181 -0.21545,1.72363 -0.14364,0.86181 -0.50273,1.72362 -0.50272,1.43636 -1.6518,2.15454 -1.14909,0.64636 -2.58545,0.93363 -1.43635,0.21545 -3.01634,0.21545 -1.50818,-0.0718 -2.65726,0 l -11.20358,0.43091 q 0.43091,6.82269 0.93363,13.50174 0.50273,6.67906 1.07727,13.50175 0.57454,5.17088 0.93363,10.41358 0.43091,5.2427 1.22091,10.41358 l 0,1.14908 q 0,1.65181 -0.93364,2.22636 -0.93363,0.50272 -2.36998,0.50272 -2.65726,0 -5.02725,-0.86181 -1.57999,-0.57455 -2.36999,-1.36454 -0.78999,-0.86181 -1.14908,-1.86726 -0.28727,-1.07727 -0.35909,-2.29817 -0.0718,-1.22091 -0.14363,-2.65726 -0.64637,-10.84449 -1.43636,-21.54534 -0.79,-10.77267 -1.43636,-21.68897 -0.4309,-8.0436 -0.93363,-15.94355 -0.50272,-7.89996 -0.50272,-15.943557 0,-4.23725 0.50272,-7.181779 0.57454,-3.016347 2.08272,-4.88361 1.50817,-1.867263 4.30907,-2.729076 2.80089,-0.861814 7.32541,-0.861814 4.66816,0 9.2645,0.07182 4.59633,0.07182 9.26449,0.07182 1.65181,0 3.15998,-0.07182 1.50818,-0.143635 3.01635,0.215454 0.86181,0.143635 1.50817,0.502724 0.64637,0.287271 0.64637,1.364538 z" /><path
     inkscape:connector-curvature="0"
     id="path3440"
     style="font-style:normal;font-variant:normal;font-weight:normal;font-stretch:normal;font-size:medium;line-height:125%;font-family:'Just Another Hand';-inkscape-font-specification:'Just Another Hand';letter-spacing:0px;word-spacing:0px;fill:#454545;fill-opacity:1;stroke:none;stroke-width:1px;stroke-linecap:butt;stroke-linejoin:miter;stroke-opacity:1"
     d="m 588.27042,116.04791 q 0,1.2209 -0.57454,1.79544 -0.50272,0.50273 -1.93908,0.50273 -0.64636,0 -2.0109,-0.14364 -1.36453,-0.21545 -2.80089,-0.57454 -1.36454,-0.35909 -2.44181,-1.00545 -1.00544,-0.64636 -1.00544,-1.57999 0,-0.28727 0.21545,-1.57999 0.21545,-1.36454 0.50272,-2.87272 0.35909,-1.50817 0.57455,-2.72907 0.28727,-1.2209 0.4309,-1.36454 l 0,0.0718 q 0.35909,-0.57454 0.86182,-0.71818 0.50272,-0.14364 1.00545,-0.14364 0.64636,0 1.6518,0.21546 1.07727,0.14363 2.08272,0.50272 1.07727,0.28727 1.93908,0.79 0.86181,0.50272 1.07727,1.07727 0.21545,0.57454 0.21545,1.57999 0.0718,0.93363 0,1.72362 0,0.28727 -0.0718,0.71818 0,0.35909 0,0.57454 0,0.35909 0,0.71818 0.0718,0.35909 0.14364,0.71818 0.0718,0.35909 0.0718,0.79 0.0718,0.4309 0.0718,0.93363 z m 2.65726,57.23878 q 0,1.65181 -0.78999,2.36998 -0.71818,0.64636 -2.36999,0.64636 -0.86181,0 -1.93908,-0.21545 -1.00545,-0.21545 -2.0109,-0.57454 -1.00545,-0.43091 -1.86726,-1.00545 -0.86181,-0.57454 -1.29272,-1.29272 -0.28727,-0.43091 -0.50273,-2.65726 -0.21545,-2.22635 -0.35908,-5.52997 -0.0718,-3.30362 -0.21546,-7.39723 -0.0718,-4.09362 -0.14363,-8.25905 0,-4.16543 0,-8.11541 0,-3.94998 0,-6.89451 l 0,-5.52997 q 0,-0.71817 0,-1.43635 0.0718,-0.71818 0.28727,-1.2209 0.28727,-0.57455 0.78999,-0.93364 0.57455,-0.35908 1.57999,-0.35908 3.15999,0 4.59634,1.79544 1.50818,1.72363 1.86727,4.66816 0.35908,4.38088 0.50272,8.76177 0.21545,4.30906 0.35909,8.76177 0.14363,4.02179 0.21545,7.97177 0.14364,3.87816 0.50273,7.75632 0.0718,0.79 0.14363,1.50818 0.0718,0.71818 0.21546,1.43635 0.14363,1.43636 0.28727,2.87272 0.14363,1.36453 0.14363,2.87271 z" /><path
     inkscape:connector-curvature="0"
     id="path3442"
     style="font-style:normal;font-variant:normal;font-weight:normal;font-stretch:normal;font-size:medium;line-height:125%;font-family:'Just Another Hand';-inkscape-font-specification:'Just Another Hand';letter-spacing:0px;word-spacing:0px;fill:#454545;fill-opacity:1;stroke:none;stroke-width:1px;stroke-linecap:butt;stroke-linejoin:miter;stroke-opacity:1"
     d="m 604.21398,177.59576 q -1.07727,0 -2.36999,-0.28728 -1.2209,-0.28727 -2.36998,-0.93363 -1.07727,-0.64636 -1.86727,-1.57999 -0.71817,-1.00545 -0.71817,-2.36999 0,-2.01089 0.14363,-3.94997 0.21545,-2.0109 0.43091,-3.94998 l 0,0.0718 0.4309,-4.81179 q 0.21546,-2.58544 0.35909,-5.6736 0.14364,-3.08817 0.21546,-6.24815 0.14363,-3.2318 0.21545,-6.31997 0.0718,-3.08816 0.0718,-5.6736 0,-1.50818 -0.0718,-3.01635 0,-1.57999 0,-3.15998 -0.0718,-1.36454 -0.0718,-3.01635 0,-1.72363 0,-3.15998 0,-1.50818 0.35909,-2.44181 0.43091,-1.00545 2.29817,-1.00545 1.65181,0 3.44726,0.86182 1.86726,0.86181 2.58544,2.4418 l -0.0718,0 q 0.35909,0.79 0.50272,2.58544 0.21546,1.72363 0.28727,3.08817 1.22091,-1.86727 2.72908,-3.94998 1.57999,-2.08272 3.37544,-3.80634 1.79544,-1.79545 3.80634,-2.94453 2.0109,-1.14909 4.30907,-1.14909 3.01634,0 4.59634,1.50817 1.57999,1.50818 2.29816,3.80635 0.71818,2.22635 0.79,4.81179 0.0718,2.51362 0.0718,4.59634 l 0,0.57454 q 0,0.86181 -0.0718,1.72363 0,0.78999 -0.28727,1.50817 -0.21545,0.64636 -0.86181,1.07727 -0.57455,0.43091 -1.65181,0.43091 -1.14909,0 -2.44181,-0.28728 -1.29272,-0.35908 -2.4418,-1.00544 -1.07727,-0.64636 -1.86727,-1.58 -0.78999,-1.00545 -0.86181,-2.29817 0,-0.57454 0,-1.14908 0,-0.57454 0.0718,-1.14908 0,-0.35909 0,-0.86182 0.0718,-0.57454 0.0718,-1.07727 -2.29817,2.29817 -4.09362,5.67361 -1.72363,3.37544 -3.15998,7.18178 -1.36454,3.80634 -2.36999,7.6845 -1.00545,3.80635 -1.72363,6.89451 l 0,0.21545 q -0.21545,2.22636 -0.28727,4.38089 -0.0718,2.15453 -0.14363,4.4527 -0.0718,2.58544 -0.21546,5.2427 -0.0718,2.65726 -0.35908,5.17088 -0.14364,1.36454 -0.86182,2.08272 -0.64636,0.79 -2.22635,0.79 z" /><path
     inkscape:connector-curvature="0"
     id="path3444"
     style="font-style:normal;font-variant:normal;font-weight:normal;font-stretch:normal;font-size:medium;line-height:125%;font-family:'Just Another Hand';-inkscape-font-specification:'Just Another Hand';letter-spacing:0px;word-spacing:0px;fill:#454545;fill-opacity:1;stroke:none;stroke-width:1px;stroke-linecap:butt;stroke-linejoin:miter;stroke-opacity:1"
     d="m 660.66278,163.30401 q 0,2.15454 -1.22091,4.45271 -1.14908,2.29817 -3.01634,4.23725 -1.86726,1.86726 -4.30907,3.08816 -2.36999,1.2209 -4.73997,1.2209 -3.37544,0 -5.81725,-1.29272 -2.4418,-1.36453 -4.23725,-3.59088 -1.79544,-2.29817 -2.94452,-5.17089 -1.07727,-2.87271 -1.72363,-5.88906 -0.64636,-3.08816 -0.93363,-6.10451 -0.21546,-3.08816 -0.21546,-5.60179 0,-2.15453 0.21546,-5.09906 0.28727,-2.94453 0.86181,-6.10451 0.64636,-3.15998 1.72363,-6.24815 1.07726,-3.08816 2.65726,-5.52997 1.65181,-2.4418 3.87816,-3.94998 2.29817,-1.50817 5.2427,-1.50817 2.29816,0 4.09361,0.93363 1.86726,0.93363 3.08816,2.51362 1.29273,1.50818 1.93909,3.51907 0.71817,2.0109 0.71817,4.16544 0,2.80089 -1.29272,6.10451 -1.29272,3.30362 -3.37543,6.39178 -2.0109,3.08817 -4.59634,5.60179 -2.51362,2.44181 -5.02725,3.73453 0.14364,1.29272 0.57454,3.80634 0.43091,2.4418 1.14909,4.88361 0.79,2.4418 1.79544,4.23725 1.07727,1.79544 2.51363,1.79544 0.71817,0 1.2209,-0.4309 0.57454,-0.43091 1.00545,-1.14909 0.43091,-0.71818 0.71818,-1.57999 0.35909,-0.86181 0.64636,-1.65181 l 0.4309,-1.00545 q 0.14364,-0.21545 0.14364,-0.28727 0.0718,-0.0718 0.14363,-0.21545 0.50273,-0.93363 0.93364,-1.72363 0.50272,-0.79 1.36453,-1.36454 l -0.0718,0 q 0.28727,-0.28727 0.57454,-0.28727 0.35909,-0.0718 0.64636,-0.0718 0.78999,0 1.72363,0.50273 0.93363,0.50272 1.72362,1.29272 0.79,0.71818 1.29272,1.65181 0.50273,0.86181 0.50273,1.72362 z m -14.21993,-31.67164 q 0,-0.71818 -0.0718,-1.50818 -0.0718,-0.78999 -0.35909,-1.36453 -1.00545,1.2209 -1.79545,2.94453 -0.71818,1.6518 -1.2209,3.51907 -0.50272,1.79544 -0.86181,3.6627 -0.28727,1.86727 -0.43091,3.44726 1.86726,-2.22635 3.30362,-5.02725 1.43635,-2.87271 1.43635,-5.6736 z" /><path
     inkscape:connector-curvature="0"
     id="path3446"
     style="font-style:normal;font-variant:normal;font-weight:normal;font-stretch:normal;font-size:medium;line-height:125%;font-family:'Just Another Hand';-inkscape-font-specification:'Just Another Hand';letter-spacing:0px;word-spacing:0px;fill:#454545;fill-opacity:1;stroke:none;stroke-width:1px;stroke-linecap:butt;stroke-linejoin:miter;stroke-opacity:1"
     d="m 692.40622,87.177154 q 0,0.789996 -0.71817,1.364538 -0.64636,0.502725 -1.58,0.861813 -0.93363,0.287272 -1.86726,0.430907 -0.93363,0.143636 -1.43635,0.143636 -1.65181,0 -3.08817,-0.502725 -1.43635,-0.574542 -3.08816,-0.64636 -2.36999,0.64636 -4.23725,2.872712 -1.86727,2.226351 -2.94453,6.463601 -1.07727,4.237254 -1.22091,10.629034 -0.14363,6.39178 0.93364,15.44083 4.52452,-0.93364 8.40268,-1.58 3.94998,-0.71817 6.10451,-0.71817 1.72363,0 2.36999,0.93363 0.64636,0.93363 0.64636,2.36998 0,1.43636 -0.28727,2.65726 -0.28728,1.2209 -1.50818,2.0109 l -15.00992,2.29817 q 0.35909,3.01635 0.57455,6.10451 0.28727,3.01635 0.57454,5.96088 1.14908,9.33631 1.93908,15.29719 0.86181,5.96088 1.36454,9.55177 0.57454,3.51907 0.86181,5.09906 0.35909,1.50817 0.50272,2.08271 0.14364,0.50273 0.14364,0.43091 0.0718,-0.0718 0.0718,0.14364 0,1.50817 -0.93363,2.08271 -0.93363,0.64636 -2.22635,0.64636 -1.00545,0 -2.15454,-0.21545 -1.07727,-0.14364 -2.15453,-0.50272 -1.07727,-0.35909 -1.93908,-1.00545 -0.86182,-0.64636 -1.22091,-1.58 -0.57454,-4.8836 -1.36453,-9.33631 -0.79,-4.4527 -1.36454,-9.26449 -0.57454,-5.67361 -1.29272,-12.06539 -0.64636,-6.39179 -1.07727,-12.20903 -0.28727,0.0718 -0.57454,0.0718 -0.28727,-0.0718 -0.64636,-0.0718 -1.14909,0 -1.93908,-0.50272 -0.71818,-0.57454 -0.71818,-2.0109 0,-1.65181 0.79,-3.01635 0.86181,-1.36454 2.51362,-1.79544 -0.21545,-3.94998 -0.50273,-8.76177 -0.28727,-4.8118 -0.21545,-9.76722 0.0718,-5.02725 0.79,-9.695405 0.78999,-4.739974 2.72907,-8.330864 1.93908,-3.662707 5.31452,-5.889059 3.37544,-2.226352 8.68995,-2.226352 1.07727,0 3.01635,0.359089 2.0109,0.359089 4.0218,1.149085 2.01089,0.718178 3.44725,1.795445 1.50817,1.077267 1.50817,2.441805 z" /><path
     inkscape:connector-curvature="0"
     id="path3448"
     style="font-style:normal;font-variant:normal;font-weight:normal;font-stretch:normal;font-size:medium;line-height:125%;font-family:'Just Another Hand';-inkscape-font-specification:'Just Another Hand';letter-spacing:0px;word-spacing:0px;fill:#454545;fill-opacity:1;stroke:none;stroke-width:1px;stroke-linecap:butt;stroke-linejoin:miter;stroke-opacity:1"
     d="m 723.0006,147.00138 q 0,6.24814 -1.07727,12.49629 -1.00545,6.17633 -4.23725,11.7063 -1.00545,1.65181 -2.29817,3.2318 -1.29272,1.50818 -2.87271,2.72908 -1.50818,1.29272 -3.37544,2.0109 -1.79544,0.78999 -3.80634,0.78999 -3.15998,0 -5.52997,-1.50817 -2.29817,-1.43636 -4.0218,-3.80634 -1.65181,-2.44181 -2.80089,-5.45816 -1.07727,-3.08816 -1.72363,-6.24814 -0.57454,-3.23181 -0.86181,-6.24815 -0.21546,-3.01635 -0.21546,-5.31452 0,-2.58544 0.21546,-5.6736 0.21545,-3.08817 0.71818,-6.31997 0.57454,-3.2318 1.43635,-6.39178 0.93363,-3.15999 2.36999,-5.88906 1.43635,-2.8009 3.44725,-4.95543 2.0109,-2.22635 4.66816,-3.51907 l 0,0.0718 q 2.29817,-1.2209 4.59634,-1.2209 1.43635,0 2.22635,0.64636 0.79,0.57454 0.71818,2.0109 3.94998,0.71818 6.39178,3.80634 2.44181,3.08817 3.73453,7.18178 1.36453,4.09362 1.79544,8.40268 0.50273,4.30907 0.50273,7.46906 z m -16.23083,-17.95445 q -1.2209,0 -2.29817,-0.93363 -1.36453,2.08271 -2.29816,4.81179 -0.93364,2.65726 -1.50818,5.52997 -0.50272,2.80089 -0.71818,5.6736 -0.21545,2.87272 -0.21545,5.38634 0,2.08271 0.21545,5.38633 0.21546,3.2318 0.79,6.53542 0.64636,3.30362 1.72363,6.17633 1.14908,2.87271 2.94453,4.23725 2.22635,-1.29272 3.6627,-4.09361 1.50818,-2.87271 2.36999,-6.24815 0.86181,-3.37544 1.14909,-6.82269 0.35908,-3.44725 0.35908,-5.88906 0,-1.79544 -0.21545,-4.66816 -0.21545,-2.87271 -0.71818,-5.81724 -0.50272,-3.01634 -1.43635,-5.60179 -0.86182,-2.58544 -2.22635,-3.87816 -0.64636,0.21546 -1.58,0.21546 z" /><path
     inkscape:connector-curvature="0"
     id="path3450"
     style="font-style:normal;font-variant:normal;font-weight:normal;font-stretch:normal;font-size:medium;line-height:125%;font-family:'Just Another Hand';-inkscape-font-specification:'Just Another Hand';letter-spacing:0px;word-spacing:0px;fill:#454545;fill-opacity:1;stroke:none;stroke-width:1px;stroke-linecap:butt;stroke-linejoin:miter;stroke-opacity:1"
     d="m 758.76588,173.93305 q 0,0.86181 -0.64636,1.36454 -0.57455,0.4309 -1.36454,0.64636 -0.79,0.21545 -1.65181,0.28727 -0.86181,0.0718 -1.36454,0.0718 -1.07727,0 -1.93908,-0.0718 -0.86181,-0.0718 -1.65181,-0.35909 -0.71818,-0.28727 -1.36454,-0.86182 -0.64636,-0.57454 -1.29272,-1.57999 -1.2209,-2.22635 -2.29817,-4.59634 -1.00544,-2.36998 -2.01089,-4.66815 -0.50273,-1.29272 -0.86182,-2.08272 -0.28727,-0.78999 -0.86181,-2.0109 -1.57999,4.09362 -3.2318,7.97178 -1.57999,3.87816 -3.30362,7.75632 -0.50272,1.00545 -1.14908,1.93908 -0.57455,1.00545 -2.08272,1.00545 -0.79,0 -1.93908,-0.50272 -1.07727,-0.43091 -2.15454,-1.22091 -1.00544,-0.71818 -1.79544,-1.65181 -0.71818,-0.93363 -0.71818,-1.86726 0,-0.71818 0.28727,-1.43635 0.28727,-0.79 0.64636,-1.50818 l -0.0718,0 q 2.72907,-5.88906 5.09906,-11.56266 2.4418,-5.74543 4.81179,-11.56267 -0.50272,-1.14908 -1.43635,-3.51907 -0.86182,-2.36999 -1.93909,-5.2427 -1.07726,-2.87271 -2.22635,-6.03269 -1.14908,-3.15999 -2.08271,-5.88906 -0.86182,-2.8009 -1.50818,-4.88361 -0.57454,-2.15454 -0.57454,-3.01635 0,-1.43636 0.86181,-1.79544 0.93364,-0.43091 2.08272,-0.43091 2.29817,0 3.94998,0.93363 1.72363,0.93363 2.65726,3.15998 0.35909,0.93363 0.71818,2.0109 0.4309,1.00545 0.71817,2.0109 l 0.64636,1.79544 q 0.86182,2.29817 1.50818,4.16544 0.71818,1.86726 1.72362,4.09361 1.79545,-4.59634 3.30362,-9.47995 1.57999,-4.95543 2.29817,-9.91085 l 0.21546,-1.93908 q 0,-1.00545 0.28727,-2.15454 0.35909,-1.00545 0.78999,-1.50817 0.50273,-0.50273 1.72363,-0.50273 1.14908,0 2.22635,0.35909 1.07727,0.35909 1.93908,1.07727 0.86182,0.64636 1.36454,1.65181 0.57454,0.93363 0.57454,2.22635 0,2.0109 -0.50272,4.73998 -0.43091,2.65725 -1.22091,5.6736 -0.78999,2.94453 -1.79544,6.10451 -0.93363,3.15999 -2.0109,6.17633 -1.00545,2.94453 -2.0109,5.60179 -0.93363,2.58544 -1.65181,4.52452 l 4.38089,9.2645 q 1.29272,2.72907 2.65726,5.6736 1.43635,2.94453 2.58544,5.45816 1.14908,2.4418 1.86726,4.16543 0.79,1.72362 0.79,1.93908 z" /><path
     inkscape:connector-curvature="0"
     id="path3452"
     style="font-style:normal;font-weight:normal;font-size:medium;line-height:125%;font-family:sans-serif;letter-spacing:0px;word-spacing:0px;fill:#1185e9;fill-opacity:1;stroke:none;stroke-width:1px;stroke-linecap:butt;stroke-linejoin:miter;stroke-opacity:1"
     d="m 835.75453,136.94688 q 0,1.50818 -1.07727,3.15999 -1.07726,1.65181 -2.36998,2.4418 -0.35909,0.21546 -1.2209,0.43091 -0.86182,0.21545 -1.86727,0.43091 -0.93363,0.14363 -1.86726,0.35908 -0.86181,0.14364 -1.36454,0.21546 l 1.72363,10.62903 q 0.78999,4.95543 1.14908,9.98267 0.43091,4.95543 1.86727,9.83904 0.14363,0.43091 0.28727,0.79 0.14363,0.35909 0.14363,0.93363 0,0.93363 -0.57454,1.43636 -0.50272,0.50272 -1.29272,0.71817 -0.71818,0.28727 -1.57999,0.35909 -0.86181,0.0718 -1.57999,0.0718 l -1.00545,0 q -2.22635,0 -3.44726,-0.35909 -1.14908,-0.35909 -1.79544,-1.2209 -0.64636,-0.86182 -0.86181,-2.15454 -0.21546,-1.36453 -0.50273,-3.30361 -1.72363,-13.14266 -3.87816,-26.28532 -4.4527,0.57455 -8.97722,1.07727 -4.45271,0.50273 -8.97723,0.93363 l -2.29817,14.07629 q -0.14363,1.29272 -0.4309,3.51907 -0.21546,2.22635 -0.57455,4.59634 -0.28727,2.29817 -0.71817,4.30907 -0.35909,2.0109 -0.86182,2.94453 -0.4309,0.86181 -0.78999,1.2209 -0.35909,0.35909 -1.36454,0.35909 -1.29272,0 -2.58544,-0.50273 -1.2209,-0.4309 -2.22635,-1.29272 -0.93363,-0.78999 -1.50818,-1.93908 -0.57454,-1.14908 -0.57454,-2.58544 0,-1.43635 0.28727,-2.87271 0.35909,-1.43635 0.57454,-2.87271 0.79,-4.73997 1.43636,-9.40813 0.64636,-4.73998 1.43636,-9.40813 -0.50273,-0.0718 -1.14909,-0.21546 -0.64636,-0.21545 -1.29272,-0.50272 -0.57454,-0.28727 -1.00545,-0.71818 -0.43091,-0.4309 -0.43091,-1.00545 0,-0.71818 0.50273,-1.29272 0.57454,-0.64636 1.29272,-1.14908 0.79,-0.57454 1.57999,-0.93363 0.79,-0.43091 1.36454,-0.64636 1.50817,-10.05449 2.87271,-20.03717 1.36454,-9.98267 2.44181,-20.1808 0.28727,-2.729074 0.50272,-5.529968 0.21545,-2.800894 0.43091,-5.601788 0.28727,-2.800893 0.64636,-5.52997 0.4309,-2.729076 1.14908,-5.458152 0.64636,-2.58544 2.15454,-4.165432 1.50817,-1.579991 4.4527,-1.579991 0.86181,0 1.65181,0.143635 0.86181,0.143636 1.50817,0.574543 1.86726,0.933631 3.87816,5.099063 2.0109,4.165432 4.0218,10.126309 2.0109,5.889059 3.80634,12.783571 1.86726,6.8945 3.37544,13.35811 1.50817,6.4636 2.58544,11.7063 1.07727,5.17088 1.57999,7.6845 1.50817,-0.21545 3.01635,-0.35909 1.50817,-0.21545 3.01634,-0.21545 0.71818,0 1.65181,0.0718 0.93364,0.0718 1.72363,0.43091 0.86181,0.28727 1.36454,0.93363 0.57454,0.57455 0.57454,1.57999 z m -22.55079,-0.57454 q -1.86726,-10.19812 -4.09361,-20.1808 -2.15453,-10.05449 -5.09906,-20.037162 -1.29272,10.844482 -2.8009,21.545342 -1.50817,10.70085 -3.2318,21.4017 3.87816,-0.57454 7.61269,-1.2209 3.80634,-0.71818 7.61268,-1.50818 z" /><path
     inkscape:connector-curvature="0"
     id="path3454"
     style="font-style:normal;font-weight:normal;font-size:medium;line-height:125%;font-family:sans-serif;letter-spacing:0px;word-spacing:0px;fill:#1185e9;fill-opacity:1;stroke:none;stroke-width:1px;stroke-linecap:butt;stroke-linejoin:miter;stroke-opacity:1"
     d="m 901.89873,165.96127 q 0,1.65181 -1.79545,3.15999 -1.72363,1.50817 -4.52452,2.80089 -2.72908,1.2209 -6.10451,2.29817 -3.30362,1.00545 -6.53542,1.72363 -3.15998,0.71817 -5.81724,1.07726 -2.65726,0.43091 -3.94998,0.43091 -2.44181,0 -4.52452,-0.57454 -2.0109,-0.57455 -3.51907,-1.72363 -1.50818,-1.2209 -2.36999,-3.08816 -0.79,-1.86727 -0.79,-4.52453 0,-19.17535 0.14364,-38.20706 0.14363,-19.03172 0.14363,-38.350703 0,-3.016347 -0.14363,-5.960877 -0.14364,-2.944529 -0.14364,-5.960877 0,-0.718178 0.0718,-1.651809 0.0718,-1.005449 0.35909,-1.795445 0.28727,-0.861813 0.86181,-1.436356 0.57455,-0.574542 1.58,-0.574542 1.00544,0 2.08271,0.287271 1.14909,0.287271 2.08272,0.861814 1.00545,0.574542 1.72362,1.436356 0.79,0.789995 1.14909,1.867262 0.35909,1.29272 0.28727,2.800894 0,1.436356 0,2.94453 0.35909,19.103532 0.50272,37.919792 0.21546,18.81626 0.21546,37.9198 0,2.15453 0,4.30906 0.0718,2.15454 0.28727,4.30907 1.93908,-0.0718 4.73997,-0.64636 2.8009,-0.57454 5.60179,-1.43635 2.87271,-0.93364 5.38634,-2.08272 2.51362,-1.14908 3.94997,-2.4418 0.64636,-0.64636 1.36454,-1.29273 0.71818,-0.71817 1.79545,-0.71817 0.93363,0 1.93908,0.64636 1.07726,0.64636 1.93908,1.65181 0.86181,0.93363 1.43635,2.01089 0.57455,1.07727 0.57455,2.0109 z" /><path
     inkscape:connector-curvature="0"
     id="path3456"
     style="font-style:normal;font-variant:normal;font-weight:normal;font-stretch:normal;font-size:medium;line-height:125%;font-family:'Just Another Hand';-inkscape-font-specification:'Just Another Hand';letter-spacing:0px;word-spacing:0px;fill:#454545;fill-opacity:1;stroke:none;stroke-width:1px;stroke-linecap:butt;stroke-linejoin:miter;stroke-opacity:1"
     d="m 933.42677,175.51304 q 0,1.43636 -0.71818,1.93908 -0.71818,0.57454 -2.0109,0.57454 -3.37544,0 -4.88361,-1.79544 -1.43636,-1.79545 -2.15453,-4.73998 -0.21546,-1.00545 -0.43091,-2.0109 -0.21545,-1.07726 -0.35909,-2.08271 -0.14364,-0.93363 -0.28727,-1.29272 -0.14364,-0.35909 -0.28727,-1.36454 -0.86182,2.08272 -2.15454,4.38089 -1.2209,2.22635 -2.87271,4.16543 -1.65181,1.86726 -3.73452,3.08816 -2.0109,1.22091 -4.45271,1.22091 -2.58544,0 -4.30906,-1.22091 -1.72363,-1.29272 -2.72908,-3.15998 -0.93363,-1.93908 -1.36454,-4.23725 -0.35909,-2.29817 -0.35909,-4.38089 0,-4.88361 0.93363,-10.55721 1.00545,-5.74542 2.72908,-11.41903 1.72363,-5.74542 4.0218,-10.98812 2.29817,-5.31452 5.02724,-9.2645 l 0,0.0718 0.43091,-0.64636 q 0.78999,-1.07727 1.79544,-2.29817 1.07727,-1.29272 2.51363,-1.29272 1.36453,0 2.36998,1.2209 1.00545,1.14909 1.43636,2.44181 1.86726,0.35909 3.01635,0.93363 1.14908,0.50272 1.79544,1.29272 0.64636,0.79 0.86182,1.86726 0.21545,1.00545 0.21545,2.22635 0,0.50273 0,1.07727 0,0.57454 -0.0718,1.14909 -0.0718,0.57454 -0.0718,1.36453 0,0.79 0,1.43636 0,0.71818 0.21546,1.86726 0.28727,1.14909 0.57454,2.36999 l 0.50272,2.65726 q 0.35909,2.08271 0.57455,4.73997 0.28727,2.65726 0.64636,5.31452 0.28727,2.72907 0.57454,5.31451 0.28727,2.51363 0.57454,4.66816 l 1.72363,10.62903 0.21545,1.22091 q 0.14364,0.93363 0.28727,1.72362 0.21546,0.79 0.21546,1.79545 z m -16.44628,-41.29523 q 0,-0.14364 -0.0718,-0.43091 -0.0718,-0.35909 -0.14363,-0.71818 -1.65181,3.51908 -2.94453,7.68451 -1.2209,4.09361 -2.08272,8.40268 -0.78999,4.23725 -1.2209,8.54632 -0.35909,4.23725 -0.35909,8.04359 0,0.35909 0,0.64636 0,0.28727 0.0718,0.57454 l 0,0.0718 q 1.72363,-2.65726 2.94453,-6.96633 1.29272,-4.38088 2.15453,-9.12086 0.86182,-4.81179 1.2209,-9.26449 0.43091,-4.52452 0.43091,-7.46905 z" /><path
     inkscape:connector-curvature="0"
     id="path3458"
     style="font-style:normal;font-weight:normal;font-size:medium;line-height:125%;font-family:sans-serif;letter-spacing:0px;word-spacing:0px;fill:#1185e9;fill-opacity:1;stroke:none;stroke-width:1px;stroke-linecap:butt;stroke-linejoin:miter;stroke-opacity:1"
     d="m 1006.4654,99.170725 q 0,7.109965 -2.2981,14.291745 -2.2264,7.18178 -6.31999,13.42992 -4.02179,6.24815 -9.6954,11.13176 -5.67361,4.88361 -12.42448,7.39723 0.43091,5.96088 1.00545,11.84994 0.57454,5.88906 1.57999,11.84994 0.21546,1.07726 0.43091,2.22635 0.28727,1.14908 0.28727,2.36998 0,1.86727 -0.93363,2.51363 -0.93363,0.64636 -2.65726,0.64636 -1.2209,0 -2.94453,-0.28727 -1.72363,-0.28728 -2.94453,-0.86182 -1.43635,-0.78999 -1.93908,-1.57999 -0.43091,-0.86181 -0.64636,-2.29817 -1.2209,-6.10451 -1.50817,-12.20902 -0.21546,-6.10452 -0.64636,-12.20903 -1.43636,-0.14363 -2.36999,-0.71818 -0.93363,-0.64636 -0.93363,-2.15453 0,-1.43636 0.78999,-3.01635 0.86182,-1.57999 1.93909,-2.4418 -0.64636,-13.35811 -0.57455,-26.50077 0.14364,-13.142654 0,-26.500763 -0.35909,0.143636 -0.64636,0.215453 -0.28727,0.07182 -0.64636,0.07182 -0.78999,0 -1.29272,-0.359089 -0.50272,-0.430907 -0.86181,-1.005449 -0.28727,-0.574542 -0.43091,-1.220902 -0.14363,-0.718178 -0.14363,-1.292721 0,-2.154533 1.07726,-3.088165 1.07727,-1.005449 2.94453,-1.795445 0,-0.789995 0,-1.795444 0.0718,-1.077267 0.28727,-1.939081 0.28728,-0.933631 0.86182,-1.508173 0.57454,-0.646361 1.72362,-0.646361 1.86727,0 3.59089,0.718178 1.72363,0.718178 2.58544,2.441805 2.51363,-0.430906 4.88361,-0.789995 2.36999,-0.359089 4.88361,-0.359089 5.67361,0 10.12631,1.93908 4.45271,1.867263 7.54089,5.314517 3.0881,3.375436 4.6681,8.043593 1.6518,4.668156 1.6518,10.126308 z m -10.77262,-1.29272 q 0,-3.303618 -0.86181,-6.17633 -0.86182,-2.94453 -2.58545,-5.027246 -1.72362,-2.154533 -4.38088,-3.375436 -2.65726,-1.220902 -6.24815,-1.220902 -1.93908,0 -3.94998,0.287271 -1.93908,0.287271 -3.80634,0.861813 0,13.142656 0.14364,26.069855 0.21545,12.92721 1.00544,25.92623 4.59634,-2.36999 8.40269,-6.60724 3.80634,-4.23725 6.53542,-9.33631 2.72907,-5.17088 4.23724,-10.70085 1.50818,-5.60179 1.50818,-10.700855 z" /><path
     inkscape:connector-curvature="0"
     id="path3460"
     style="font-style:normal;font-variant:normal;font-weight:normal;font-stretch:normal;font-size:medium;line-height:125%;font-family:'Just Another Hand';-inkscape-font-specification:'Just Another Hand';letter-spacing:0px;word-spacing:0px;fill:#454545;fill-opacity:1;stroke:none;stroke-width:1px;stroke-linecap:butt;stroke-linejoin:miter;stroke-opacity:1"
     d="m 1029.1598,178.52939 q 0,1.00545 -0.5027,1.65181 -0.5027,0.64636 -1.2927,1.00544 -0.7182,0.43091 -1.6518,0.57455 -0.8618,0.21545 -1.58,0.21545 -2.5136,0 -4.3809,-1.43636 -1.8673,-1.43635 -3.2318,-3.73452 -1.3645,-2.22635 -2.2263,-5.09906 -0.8619,-2.94453 -1.4364,-5.81725 -0.5745,-2.94452 -0.8618,-5.60178 -0.2873,-2.72908 -0.4309,-4.66816 -0.6464,-6.67905 -0.9337,-13.57356 -0.2154,-6.89451 -0.2154,-13.64538 0,-18.45718 1.2927,-36.55526 0,-0.287271 0,-0.64636 0.072,-0.359089 0.072,-0.718178 0.072,-1.508173 0.1437,-3.447254 0.072,-2.010898 0.2154,-3.949978 0.1437,-1.939081 0.2873,-3.519072 0.2154,-1.651809 0.5027,-2.29817 l 0,0.07182 q 0.2873,-1.005449 0.79,-1.508173 0.5027,-0.502725 1.7236,-0.502725 2.5855,0 4.3809,1.723627 1.7955,1.723627 1.7955,4.309068 0,0.574542 -0.072,1.149084 0,0.502725 -0.072,1.005449 -0.072,0.502725 -0.1436,1.00545 0,0.430906 0,0.789995 -0.2155,2.800894 -0.3591,5.601788 -0.072,2.729076 -0.2154,5.52997 -0.3591,6.176329 -0.5746,12.352659 -0.1436,6.10451 -0.1436,12.35266 0,2.65726 0.072,6.96633 0.072,4.30906 0.2873,9.40813 0.2154,5.02724 0.5745,10.41358 0.4309,5.38633 1.0773,10.26994 0.6463,4.88361 1.5082,8.83359 0.9336,3.94998 2.1545,6.10451 0.6463,0.28727 1.2209,0.93363 0.6463,0.57455 1.0773,1.36454 0.5027,0.71818 0.79,1.50818 0.359,0.86181 0.359,1.57999 z" /><path
     inkscape:connector-curvature="0"
     id="path3462"
     style="font-style:normal;font-variant:normal;font-weight:normal;font-stretch:normal;font-size:medium;line-height:125%;font-family:'Just Another Hand';-inkscape-font-specification:'Just Another Hand';letter-spacing:0px;word-spacing:0px;fill:#454545;fill-opacity:1;stroke:none;stroke-width:1px;stroke-linecap:butt;stroke-linejoin:miter;stroke-opacity:1"
     d="m 1061.5497,175.51304 q 0,1.43636 -0.7182,1.93908 -0.7182,0.57454 -2.0109,0.57454 -3.3754,0 -4.8836,-1.79544 -1.4364,-1.79545 -2.1545,-4.73998 -0.2155,-1.00545 -0.4309,-2.0109 -0.2155,-1.07726 -0.3591,-2.08271 -0.1437,-0.93363 -0.2873,-1.29272 -0.1436,-0.35909 -0.2873,-1.36454 -0.8618,2.08272 -2.1545,4.38089 -1.2209,2.22635 -2.8727,4.16543 -1.6518,1.86726 -3.7345,3.08816 -2.0109,1.22091 -4.4527,1.22091 -2.5855,0 -4.3091,-1.22091 -1.7236,-1.29272 -2.7291,-3.15998 -0.9336,-1.93908 -1.3645,-4.23725 -0.3591,-2.29817 -0.3591,-4.38089 0,-4.88361 0.9336,-10.55721 1.0055,-5.74542 2.7291,-11.41903 1.7236,-5.74542 4.0218,-10.98812 2.2982,-5.31452 5.0272,-9.2645 l 0,0.0718 0.4309,-0.64636 q 0.79,-1.07727 1.7955,-2.29817 1.0773,-1.29272 2.5136,-1.29272 1.3645,0 2.37,1.2209 1.0054,1.14909 1.4364,2.44181 1.8672,0.35909 3.0163,0.93363 1.1491,0.50272 1.7954,1.29272 0.6464,0.79 0.8619,1.86726 0.2154,1.00545 0.2154,2.22635 0,0.50273 0,1.07727 0,0.57454 -0.072,1.14909 -0.072,0.57454 -0.072,1.36453 0,0.79 0,1.43636 0,0.71818 0.2154,1.86726 0.2873,1.14909 0.5746,2.36999 l 0.5027,2.65726 q 0.3591,2.08271 0.5745,4.73997 0.2873,2.65726 0.6464,5.31452 0.2873,2.72907 0.5745,5.31451 0.2873,2.51363 0.5746,4.66816 l 1.7236,10.62903 0.2155,1.22091 q 0.1436,0.93363 0.2872,1.72362 0.2155,0.79 0.2155,1.79545 z m -16.4463,-41.29523 q 0,-0.14364 -0.072,-0.43091 -0.072,-0.35909 -0.1436,-0.71818 -1.6518,3.51908 -2.9446,7.68451 -1.2209,4.09361 -2.0827,8.40268 -0.79,4.23725 -1.2209,8.54632 -0.3591,4.23725 -0.3591,8.04359 0,0.35909 0,0.64636 0,0.28727 0.072,0.57454 l 0,0.0718 q 1.7237,-2.65726 2.9446,-6.96633 1.2927,-4.38088 2.1545,-9.12086 0.8618,-4.81179 1.2209,-9.26449 0.4309,-4.52452 0.4309,-7.46905 z" /><path
     inkscape:connector-curvature="0"
     id="path3464"
     style="font-style:normal;font-variant:normal;font-weight:normal;font-stretch:normal;font-size:medium;line-height:125%;font-family:'Just Another Hand';-inkscape-font-specification:'Just Another Hand';letter-spacing:0px;word-spacing:0px;fill:#454545;fill-opacity:1;stroke:none;stroke-width:1px;stroke-linecap:butt;stroke-linejoin:miter;stroke-opacity:1"
     d="m 1094.4422,160.35948 q 0,1.50818 -0.5027,3.08817 -0.5027,1.57999 -1.1491,3.01635 -0.8618,2.08271 -2.0827,4.09361 -1.2209,1.93908 -2.8009,3.51907 -1.58,1.50818 -3.5909,2.44181 -2.0109,0.93363 -4.5245,0.93363 -4.4527,0 -7.3972,-2.22635 -2.9446,-2.22635 -4.6682,-5.60179 -1.7236,-3.37544 -2.4418,-7.39723 -0.6464,-4.0218 -0.6464,-7.61269 0,-2.65726 0.2155,-6.24815 0.2154,-3.6627 0.79,-7.54086 0.6463,-3.87817 1.7954,-7.68451 1.2209,-3.80634 3.0882,-6.75087 1.8673,-3.01635 4.5245,-4.88361 2.7291,-1.86726 6.4636,-1.86726 0.79,0 2.2982,0.28727 1.5082,0.28727 2.9445,0.86181 1.5082,0.50273 2.5855,1.43636 1.149,0.86181 1.149,2.0109 0,1.07726 -1.0054,1.6518 -0.9336,0.57455 -2.2982,0.86182 -1.2927,0.21545 -2.7291,0.28727 -1.3645,0 -2.2263,0 l -1.2927,0 q -2.0109,1.79544 -3.3036,5.31452 -1.2928,3.44725 -2.0109,7.39723 -0.7182,3.94998 -1.0055,7.82814 -0.2873,3.80634 -0.2873,6.24815 0,3.44725 0.5028,6.82269 0.5745,3.30361 2.2263,6.24814 0.3591,0.64636 1.0055,1.50818 0.7181,0.78999 1.5799,0.78999 0.6464,0 1.2928,-1.07726 0.7181,-1.07727 1.2927,-2.51363 0.5745,-1.43635 0.9336,-2.80089 0.3591,-1.36454 0.5027,-2.0109 0.072,-0.28727 0.072,-0.64636 0,-0.35909 0,-0.71818 0,-0.64636 0,-1.2209 0.072,-0.64636 0.2154,-1.00545 0.5027,-1.2209 1.2927,-1.65181 0.8619,-0.4309 2.0828,-0.4309 1.0772,0 2.2981,0.28727 1.2209,0.28727 2.2982,0.93363 1.0773,0.64636 1.7954,1.65181 0.7182,1.00545 0.7182,2.36998 z" /><path
     inkscape:connector-curvature="0"
     id="path3466"
     style="font-style:normal;font-variant:normal;font-weight:normal;font-stretch:normal;font-size:medium;line-height:125%;font-family:'Just Another Hand';-inkscape-font-specification:'Just Another Hand';letter-spacing:0px;word-spacing:0px;fill:#454545;fill-opacity:1;stroke:none;stroke-width:1px;stroke-linecap:butt;stroke-linejoin:miter;stroke-opacity:1"
     d="m 1125.4675,163.30401 q 0,2.15454 -1.2209,4.45271 -1.1491,2.29817 -3.0163,4.23725 -1.8673,1.86726 -4.3091,3.08816 -2.37,1.2209 -4.74,1.2209 -3.3754,0 -5.8172,-1.29272 -2.4418,-1.36453 -4.2373,-3.59088 -1.7954,-2.29817 -2.9445,-5.17089 -1.0773,-2.87271 -1.7236,-5.88906 -0.6464,-3.08816 -0.9336,-6.10451 -0.2155,-3.08816 -0.2155,-5.60179 0,-2.15453 0.2155,-5.09906 0.2872,-2.94453 0.8618,-6.10451 0.6463,-3.15998 1.7236,-6.24815 1.0773,-3.08816 2.6573,-5.52997 1.6518,-2.4418 3.8781,-3.94998 2.2982,-1.50817 5.2427,-1.50817 2.2982,0 4.0936,0.93363 1.8673,0.93363 3.0882,2.51362 1.2927,1.50818 1.9391,3.51907 0.7182,2.0109 0.7182,4.16544 0,2.80089 -1.2928,6.10451 -1.2927,3.30362 -3.3754,6.39178 -2.0109,3.08817 -4.5963,5.60179 -2.5137,2.44181 -5.0273,3.73453 0.1436,1.29272 0.5746,3.80634 0.4309,2.4418 1.149,4.88361 0.79,2.4418 1.7955,4.23725 1.0772,1.79544 2.5136,1.79544 0.7182,0 1.2209,-0.4309 0.5746,-0.43091 1.0055,-1.14909 0.4309,-0.71818 0.7181,-1.57999 0.3591,-0.86181 0.6464,-1.65181 l 0.4309,-1.00545 q 0.1436,-0.21545 0.1436,-0.28727 0.072,-0.0718 0.1437,-0.21545 0.5027,-0.93363 0.9336,-1.72363 0.5027,-0.79 1.3645,-1.36454 l -0.072,0 q 0.2873,-0.28727 0.5746,-0.28727 0.3591,-0.0718 0.6463,-0.0718 0.79,0 1.7237,0.50273 0.9336,0.50272 1.7236,1.29272 0.79,0.71818 1.2927,1.65181 0.5027,0.86181 0.5027,1.72362 z m -14.2199,-31.67164 q 0,-0.71818 -0.072,-1.50818 -0.072,-0.78999 -0.3591,-1.36453 -1.0055,1.2209 -1.7954,2.94453 -0.7182,1.6518 -1.221,3.51907 -0.5027,1.79544 -0.8618,3.6627 -0.2872,1.86727 -0.4309,3.44726 1.8673,-2.22635 3.3036,-5.02725 1.4364,-2.87271 1.4364,-5.6736 z" /><path
     inkscape:connector-curvature="0"
     id="path3468"
     style="font-style:normal;font-variant:normal;font-weight:normal;font-stretch:normal;font-size:medium;line-height:125%;font-family:'Just Another Hand';-inkscape-font-specification:'Just Another Hand';letter-spacing:0px;word-spacing:0px;fill:#454545;fill-opacity:1;stroke:none;stroke-width:1px;stroke-linecap:butt;stroke-linejoin:miter;stroke-opacity:1"
     d="m 1182.3472,174.22032 q 0,0.78999 -0.3591,1.36454 -0.3591,0.50272 -0.9336,0.86181 -0.5027,0.28727 -1.1491,0.43091 -0.5745,0.14363 -1.1491,0.14363 -0.8618,0 -1.8672,-0.21545 -1.0055,-0.21545 -2.0109,-0.57454 -1.0055,-0.43091 -1.8673,-1.00545 -0.79,-0.64636 -1.2209,-1.43636 -0.4309,-0.78999 -0.6464,-1.93908 -0.1436,-1.2209 -0.2872,-2.4418 -0.7182,1.72362 -1.7237,3.37543 -0.9336,1.65181 -2.2981,2.94453 -1.3646,1.22091 -3.0882,1.93908 -1.6518,0.79 -3.7345,0.79 -3.6627,0 -5.9609,-1.72363 -2.2264,-1.72363 -3.5191,-4.30907 -1.2209,-2.65725 -1.6518,-5.74542 -0.3591,-3.15998 -0.3591,-6.03269 0,-2.36999 0.2155,-5.38634 0.2154,-3.01635 0.5745,-6.17633 0.3591,-3.15998 0.8618,-6.10451 0.5028,-3.01635 1.0773,-5.31452 0.7182,-2.65726 1.7236,-5.81724 1.0773,-3.2318 2.6573,-5.96088 1.6518,-2.80089 4.0218,-4.73997 2.37,-1.93908 5.6736,-2.15453 -0.2155,-5.81725 -0.6464,-10.70085 -0.3591,-4.95543 -0.79,-10.126314 l -0.7181,-7.971775 -0.2873,-2.872712 q -0.1436,-1.149084 -0.2155,-2.298169 -0.072,-1.220902 -0.072,-2.369987 0,-1.651809 0.8618,-2.298169 0.9337,-0.646361 2.37,-0.646361 3.16,0 4.8118,0.933632 1.6518,0.933631 2.2982,2.513622 0.7182,1.579992 0.79,3.734526 0.072,2.082716 0.072,4.524521 0,1.579991 0.3591,3.590889 l 0.3591,2.657259 0.5745,7.325418 q 0.1436,1.72362 0.2873,3.44725 0.1436,1.72363 0.2873,3.44725 l 1.5081,15.44083 2.8727,28.87075 0.2155,2.65726 q 0.2873,2.94453 0.5027,6.10451 0.2873,3.15999 1.0055,6.24815 0.2154,0.79 0.3591,1.50818 0.2154,0.71817 0.2154,1.50817 z m -16.7335,-42.01341 q 0,-0.79 -0.072,-1.72363 0,-1.00545 0,-1.86726 l 0,-1.93908 q -0.5027,0.71818 -1.2927,2.0109 -0.79,1.2209 -1.2209,2.22635 -1.1491,2.51362 -2.0827,6.4636 -0.9336,3.87816 -1.6518,8.18723 -0.6464,4.23725 -1.0054,8.33086 -0.3591,4.0218 -0.3591,6.75088 0,1.00545 0,2.29817 0.072,1.29272 0.2872,2.65725 0.2155,1.29272 0.6464,2.51363 0.4309,1.2209 1.1491,2.01089 1.0772,-1.36453 1.9391,-4.16543 0.8618,-2.87271 1.4363,-6.4636 0.6464,-3.66271 1.0773,-7.6845 0.4309,-4.0218 0.6463,-7.75632 0.2873,-3.80635 0.3591,-6.89451 0.1437,-3.15999 0.1437,-4.95543 z" /><path
     inkscape:connector-curvature="0"
     id="path3470"
     style="font-style:normal;font-variant:normal;font-weight:normal;font-stretch:normal;font-size:medium;line-height:125%;font-family:'Just Another Hand';-inkscape-font-specification:'Just Another Hand';letter-spacing:0px;word-spacing:0px;fill:#454545;fill-opacity:1;stroke:none;stroke-width:1px;stroke-linecap:butt;stroke-linejoin:miter;stroke-opacity:1"
     d="m 1194.0535,86.530794 q 0,4.955427 -0.1436,9.910855 -0.1436,4.955431 -0.1436,9.910851 0,0.79 -0.072,1.50818 0,0.71818 -0.2154,1.36454 -0.2155,0.57454 -0.7182,0.93363 -0.5027,0.35909 -1.4363,0.35909 -2.37,0 -4.2373,-1.22091 -1.8673,-1.2209 -2.2263,-3.80634 -0.2155,-1.86726 -0.2873,-3.59089 0,-1.72363 -0.1437,-3.590888 -0.359,-3.447254 -0.7181,-6.894508 -0.2873,-3.447254 -0.2873,-6.894508 0,-1.436356 0.5745,-2.226352 0.6464,-0.789996 2.1546,-0.789996 1.2209,0 2.5854,0.215454 1.4364,0.215453 2.5855,0.789995 1.2209,0.502725 1.939,1.508174 0.79,0.933631 0.79,2.513623 z" /><path
     inkscape:connector-curvature="0"
     id="path3472"
     style="font-style:normal;font-weight:normal;font-size:medium;line-height:125%;font-family:sans-serif;letter-spacing:0px;word-spacing:0px;fill:#1185e9;fill-opacity:1;stroke:none;stroke-width:1px;stroke-linecap:butt;stroke-linejoin:miter;stroke-opacity:1"
     d="m 1243.1769,166.10491 q 0,2.08271 -1.0773,3.94998 -1.0773,1.79544 -2.9445,2.65726 -0.5746,0.28727 -2.8009,0.57454 -2.2264,0.21545 -4.8118,0.4309 -2.5855,0.21546 -4.9554,0.43091 -2.2982,0.21545 -3.2318,0.28727 -0.2155,1.2209 -1.1491,1.72363 -0.9337,0.43091 -2.0109,0.43091 -1.2209,0 -2.8009,-0.35909 -1.58,-0.35909 -2.8009,-0.79 -3.2318,0.43091 -6.5354,0.93363 -3.3037,0.50273 -6.6791,0.50273 -2.5854,0 -2.5854,-2.44181 0,-2.4418 1.3645,-3.73452 1.3645,-1.29272 3.3036,-1.93908 1.9391,-0.64636 4.1655,-0.86182 2.2263,-0.21545 3.9499,-0.50272 -0.3591,-20.39625 -0.79,-40.50524 -0.3591,-20.10898 -0.3591,-40.505232 -2.9445,0.215454 -5.7454,0.430907 -2.8009,0.143636 -5.6018,0.143636 -0.5745,0 -1.2209,0 -0.6463,-0.07182 -1.2209,-0.215454 -0.5027,-0.215453 -0.8618,-0.574542 -0.4309,-0.430907 -0.4309,-1.220903 0,-1.364538 0.5746,-2.369987 0.5745,-1.077267 1.5081,-1.723627 1.0055,-0.718178 2.1546,-1.149085 1.149,-0.430906 2.37,-0.64636 3.0881,-0.574542 6.2481,-0.933631 3.2318,-0.430907 6.3918,-0.789996 3.2318,-0.430906 6.3918,-0.861813 3.2318,-0.430907 6.3917,-1.149085 3.0164,-0.64636 6.0327,-1.651809 3.0164,-1.077267 6.1764,-1.077267 1.7236,0 2.2981,1.29272 0.5746,1.220903 0.5746,2.729076 0,1.220903 -0.2873,2.369987 -0.2154,1.077267 -1.0054,2.082716 -0.4309,0.574543 -1.9391,1.149085 -1.4364,0.502725 -3.5191,0.933631 -2.0109,0.430907 -4.3809,0.861814 -2.2981,0.359089 -4.5245,0.718178 -2.1545,0.287271 -3.95,0.502724 -1.7954,0.215454 -2.6572,0.287272 0.79,9.982673 1.0772,19.965345 0.3591,9.98267 0.5746,19.96535 0.2154,9.98267 0.4309,19.96534 0.2154,9.98268 0.79,19.96535 4.0936,-0.64636 8.259,-1.2209 4.1655,-0.64636 8.4027,-0.64636 1.2209,0 2.2982,0.57454 1.1491,0.50272 1.1491,2.0109 z" /><path
     inkscape:connector-curvature="0"
     id="path3474"
     style="font-style:normal;font-variant:normal;font-weight:normal;font-stretch:normal;font-size:medium;line-height:125%;font-family:'Just Another Hand';-inkscape-font-specification:'Just Another Hand';letter-spacing:0px;word-spacing:0px;fill:#454545;fill-opacity:1;stroke:none;stroke-width:1px;stroke-linecap:butt;stroke-linejoin:miter;stroke-opacity:1"
     d="m 1246.0496,168.69035 q 0,-0.71818 0.5027,-1.07727 0.5027,-0.4309 1.2209,-0.57454 0.79,-0.21545 1.5082,-0.21545 0.79,0 1.3645,0 0.7182,0 1.6518,0.0718 1.0055,0 1.8673,0.28728 0.8618,0.21545 1.4363,0.78999 0.6464,0.50273 0.6464,1.43636 0,0.35909 -0.072,1.57999 0,1.14908 -0.072,2.51362 0,1.36454 -0.072,2.51362 0,1.07727 -0.072,1.14909 -0.5745,0.78999 -1.5081,0.86181 -0.8619,0.14364 -1.6519,0.14364 -2.2263,0 -3.3036,-0.21546 -1.0772,-0.21545 -1.58,-0.86181 -0.5027,-0.64636 -0.6463,-1.79544 -0.072,-1.14909 -0.3591,-3.01635 -0.2155,-0.86181 -0.5746,-1.72363 -0.2872,-0.86181 -0.2872,-1.86726 z" /><path
     inkscape:connector-curvature="0"
     id="path3476"
     style="font-style:normal;font-weight:normal;font-size:medium;line-height:125%;font-family:sans-serif;letter-spacing:0px;word-spacing:0px;fill:#1185e9;fill-opacity:1;stroke:none;stroke-width:1px;stroke-linecap:butt;stroke-linejoin:miter;stroke-opacity:1"
     d="m 1314.4919,160.79039 q 0,1.2209 -1.0054,2.36999 -0.9336,1.14908 -2.2982,2.22635 -1.3645,1.07727 -2.8009,2.0109 -1.4363,0.86181 -2.37,1.43635 -2.4418,1.58 -4.8836,2.94453 -2.37,1.36454 -4.9554,2.36999 -2.5136,1.00545 -5.2427,1.57999 -2.6573,0.57454 -5.6018,0.57454 l -1.1491,0.14364 q -2.37,0 -4.7399,-0.50272 -2.2982,-0.57455 -4.3091,-1.65181 -2.0109,-1.14909 -3.5909,-2.87271 -1.58,-1.72363 -2.4418,-4.16544 -0.6464,-1.93908 -1.0055,-4.59634 -0.359,-2.65725 -0.5745,-5.52997 -0.1436,-2.87271 -0.2873,-5.60178 -0.072,-2.8009 -0.1436,-4.95543 -1.0773,-21.97625 -1.7236,-43.95249 -0.1437,-2.51362 -0.2155,-5.027246 -0.072,-2.513623 -0.072,-5.027246 0,-4.309067 0.5027,-7.325415 0.5027,-3.016347 2.0109,-4.955427 1.5082,-1.939081 4.3091,-2.800894 2.8727,-0.861814 7.5409,-0.861814 4.6681,0 9.3363,0.07182 4.7399,0.07182 9.4799,0.07182 1.4364,0 2.8727,-0.07182 1.4364,-0.143635 2.8727,0.215454 0.8619,0.143635 1.5082,0.502724 0.6464,0.287271 0.6464,1.364538 0,2.585441 -1.7236,3.878161 -1.7237,1.220902 -4.0937,1.651809 -2.37,0.430907 -4.9554,0.430907 -2.5136,-0.07182 -4.1654,-0.07182 l -9.3363,0 q -1.4364,0 -2.8727,0 -1.4364,0 -2.8728,0.143636 -0.4309,1.077267 -0.5745,2.226351 -0.1436,1.149085 -0.1436,2.369987 0,7.82814 0.3591,15.440825 0.4309,7.61269 0.7899,15.44083 4.4527,-0.35909 8.8336,-0.86182 4.3809,-0.50272 8.8336,-1.14908 0.6464,0 1.1491,-0.0718 0.5746,-0.0718 1.1491,-0.0718 1.5082,0 2.0827,0.79 0.6464,0.78999 0.6464,2.22635 0,1.00545 -0.1437,1.86726 -0.072,0.86182 -0.4309,1.72363 -0.5027,1.43636 -1.6518,2.08272 -1.1491,0.64636 -2.5854,0.93363 -1.4364,0.21545 -3.0164,0.21545 -1.5081,0 -2.6572,0.0718 -3.0164,0.14363 -5.9609,0.21545 -2.8727,0.0718 -5.8172,0.21545 0.072,1.50818 0.2154,4.52453 0.1436,3.01634 0.2873,6.82269 0.2154,3.73452 0.4309,7.75632 0.2873,4.02179 0.5745,7.61268 0.2873,3.51908 0.6464,6.17633 0.3591,2.65726 0.7182,3.59089 0.79,1.50818 1.7954,2.0109 1.0055,0.43091 2.6573,0.43091 2.6572,0 5.6018,-1.00545 2.9445,-1.07727 5.7454,-2.65726 2.8009,-1.65181 5.3145,-3.59089 2.5854,-1.93908 4.4527,-3.80634 0.79,-0.64636 1.58,-1.29272 0.79,-0.71818 1.8673,-0.71818 1.0772,0 2.0827,0.64636 1.0054,0.64636 1.7954,1.65181 0.79,0.93363 1.2209,2.08272 0.5027,1.14908 0.5027,2.08271 z" /><path
     inkscape:connector-curvature="0"
     id="path3478"
     style="font-style:normal;font-variant:normal;font-weight:normal;font-stretch:normal;font-size:medium;line-height:125%;font-family:'Just Another Hand';-inkscape-font-specification:'Just Another Hand';letter-spacing:0px;word-spacing:0px;fill:#454545;fill-opacity:1;stroke:none;stroke-width:1px;stroke-linecap:butt;stroke-linejoin:miter;stroke-opacity:1"
     d="m 1315.2819,168.69035 q 0,-0.71818 0.5028,-1.07727 0.5027,-0.4309 1.2209,-0.57454 0.79,-0.21545 1.5081,-0.21545 0.79,0 1.3646,0 0.7181,0 1.6518,0.0718 1.0054,0 1.8672,0.28728 0.8619,0.21545 1.4364,0.78999 0.6464,0.50273 0.6464,1.43636 0,0.35909 -0.072,1.57999 0,1.14908 -0.072,2.51362 0,1.36454 -0.072,2.51362 0,1.07727 -0.072,1.14909 -0.5746,0.78999 -1.5082,0.86181 -0.8618,0.14364 -1.6518,0.14364 -2.2263,0 -3.3036,-0.21546 -1.0773,-0.21545 -1.58,-0.86181 -0.5027,-0.64636 -0.6464,-1.79544 -0.072,-1.14909 -0.3591,-3.01635 -0.2154,-0.86181 -0.5745,-1.72363 -0.2873,-0.86181 -0.2873,-1.86726 z" /></svg>