<?xml version="1.0" encoding="UTF-8" standalone="no"?>
<svg
   xmlns:dc="http://purl.org/dc/elements/1.1/"
   xmlns:cc="http://creativecommons.org/ns#"
   xmlns:rdf="http://www.w3.org/1999/02/22-rdf-syntax-ns#"
   xmlns:svg="http://www.w3.org/2000/svg"
   xmlns="http://www.w3.org/2000/svg"
   xmlns:sodipodi="http://sodipodi.sourceforge.net/DTD/sodipodi-0.dtd"
   xmlns:inkscape="http://www.inkscape.org/namespaces/inkscape"
   viewBox="0 0 1000 600"
   version="1.1"
   id="svg2"
   inkscape:version="0.91 r13725"
   sodipodi:docname="businessmen-pointing.svg"
   width="1000"
   height="600">
  <metadata
     id="metadata69">
    <rdf:RDF>
      <cc:Work
         rdf:about="">
        <dc:format>image/svg+xml</dc:format>
        <dc:type
           rdf:resource="http://purl.org/dc/dcmitype/StillImage" />
        <dc:title></dc:title>
      </cc:Work>
    </rdf:RDF>
  </metadata>
  <defs
     id="defs67" />
  <sodipodi:namedview
     pagecolor="#ffffff"
     bordercolor="#666666"
     borderopacity="1"
     objecttolerance="10"
     gridtolerance="10"
     guidetolerance="10"
     inkscape:pageopacity="0"
     inkscape:pageshadow="2"
     inkscape:window-width="2560"
     inkscape:window-height="1406"
     id="namedview65"
     showgrid="false"
     inkscape:zoom="1.1125147"
     inkscape:cx="324.46474"
     inkscape:cy="402.06192"
     inkscape:window-x="0"
     inkscape:window-y="0"
     inkscape:window-maximized="1"
     inkscape:current-layer="svg2" />
  <rect
     id="rect5"
     style="fill:#9cd7cf;fill-opacity:1;stroke:none"
     height="600"
     width="1000"
     y="0"
     x="0" />
  <g
     id="g3231"
     transform="translate(199.87173,0)">
    <path
       style="fill:#709c99;fill-opacity:1;fill-rule:nonzero;stroke:none"
       d="m 271.25781,506.62891 c 0,4.18359 -40.98828,7.57812 -91.55469,7.57812 -50.5625,0 -91.550776,-3.39453 -91.550776,-7.57812 0,-4.1875 40.988276,-7.57813 91.550776,-7.57813 50.56641,0 91.55469,3.39063 91.55469,7.57813"
       id="path7"
       inkscape:connector-curvature="0" />
    <path
       style="fill:#709c99;fill-opacity:1;fill-rule:nonzero;stroke:none"
       d="m 536.10547,507.98828 c 0,4.18359 -40.99219,7.57422 -91.55469,7.57422 -50.5625,0 -91.55469,-3.39063 -91.55469,-7.57422 0,-4.1875 40.99219,-7.58203 91.55469,-7.58203 50.5625,0 91.55469,3.39453 91.55469,7.58203"
       id="path9"
       inkscape:connector-curvature="0" />
    <path
       style="fill:#709c99;fill-opacity:1;fill-rule:nonzero;stroke:none"
       d="m 327.79687,505.0625 c 0,2.15625 -9.5,3.90234 -21.21484,3.90234 -11.71875,0 -21.21484,-1.74609 -21.21484,-3.90234 0,-2.15625 9.49609,-3.90234 21.21484,-3.90234 11.71484,0 21.21484,1.74609 21.21484,3.90234"
       id="path11"
       inkscape:connector-curvature="0" />
    <path
       style="fill:#193a59;fill-opacity:1;fill-rule:nonzero;stroke:none"
       d="m 299.85937,505.0625 13.44532,0 0,-395.45703 -13.44532,0 z m 0,0"
       id="path13"
       inkscape:connector-curvature="0" />
    <path
       style="fill:#f05e51;fill-opacity:1;fill-rule:nonzero;stroke:none"
       d="m 299.85937,231.61719 -133,8.75 -28.97265,-27.16016 29.27344,-27.16406 132.69921,9.35547 0,36.21875"
       id="path15"
       inkscape:connector-curvature="0" />
    <path
       style="fill:#f05e51;fill-opacity:1;fill-rule:nonzero;stroke:none"
       d="m 313.30469,181.00781 133,8.75 28.97265,-27.16015 -29.27343,-27.16407 -132.69922,9.35547 0,36.21875"
       id="path17"
       inkscape:connector-curvature="0" />
    <path
       style="fill:#fdd999;fill-opacity:1;fill-rule:nonzero;stroke:none"
       d="m 393.22266,397.90625 c 0,0 -26.51954,-64.00781 33.28515,-77.17578 0,0 79.55078,-32.04297 79.55078,62.43359 l -112.83593,14.74219"
       id="path19"
       inkscape:connector-curvature="0" />
    <path
       style="fill:#141411;fill-opacity:1;fill-rule:nonzero;stroke:none"
       d="m 489.00391,314.92187 c 0,0 0,-0.004 0.004,-0.004 4.0625,-6.8711 7.10938,-17.42578 4.4961,-19.92969 -4.81641,-4.61719 -9.54297,5.44141 -14.77344,10.49219 l -0.004,0 c -0.21484,-0.15625 -0.42578,-0.3086 -0.63672,-0.46094 0.79297,-1.01172 1.5586,-2.12109 2.26953,-3.32422 4.06641,-6.87109 4.76954,-13.83594 1.71094,-15.78125 -6.19531,-3.95312 -9.57031,7.88672 -16.42578,12.14063 -51.9375,-5.48828 -83.39453,32.91797 -83.39453,32.91797 -27.06641,25.60156 10.97266,66.93359 10.97266,66.93359 2.59765,-1.77344 5.46484,-7.51172 8.15234,-14.47266 -0.71875,-0.17968 -1.4375,-0.47265 -2.12109,-0.89453 -2.92188,-1.80469 -4.12891,-5.14844 -2.69532,-7.46875 1.42969,-2.32031 4.96094,-2.73828 7.88282,-0.93359 0.0664,0.0391 0.11718,0.0898 0.17968,0.13281 4.14063,-12.58594 7.25782,-25.375 7.25782,-25.375 22.05468,-1.66797 64.0039,-24.26953 64.0039,-24.26953 9.51172,1.69922 25.01563,23.08594 25.01563,23.08594 0.22656,-14.28516 -5.22266,-25.01563 -11.89453,-32.78907"
       id="path21"
       inkscape:connector-curvature="0" />
    <path
       style="fill:#1e1c1c;fill-opacity:1;fill-rule:nonzero;stroke:none"
       d="m 429.73437,367.59375 c -1.32031,0 -2.84765,-0.20703 -4.58203,-0.625 l 0.51172,-2.13281 c 3.83203,0.92187 6.37891,0.73437 7.36328,-0.53907 1.39063,-1.79296 -0.18359,-5.71875 -0.90625,-7.08203 l 1.9375,-1.03125 c 0.33594,0.62891 3.20313,6.22657 0.70703,9.45703 -1.00781,1.30079 -2.6914,1.95313 -5.03125,1.95313"
       id="path23"
       inkscape:connector-curvature="0" />
    <path
       style="fill:#1e1c1c;fill-opacity:1;fill-rule:nonzero;stroke:none"
       d="m 471.19141,353.56641 c -0.0937,0 -0.1875,0 -0.28516,-0.008 -4.05859,-0.20312 -6.82422,-4.82812 -6.94141,-5.02343 l 1.89063,-1.11329 c 0.0234,0.0391 2.28906,3.8086 5.16797,3.94532 1.51953,0.0703 3.03906,-0.91407 4.52343,-2.9375 l 1.76954,1.29687 c -1.8711,2.55078 -3.92969,3.83985 -6.125,3.83985"
       id="path25"
       inkscape:connector-curvature="0" />
    <path
       style="fill:#1e1c1c;fill-opacity:1;fill-rule:nonzero;stroke:none"
       d="m 445.25391,376.62891 -0.25,-0.5 c -1.03907,-2.07813 0.9414,-5.33204 1.02734,-5.46875 l 0.93359,0.57421 c -0.42968,0.69532 -1.34375,2.57813 -1.14062,3.88672 2.19531,-0.97656 10.09765,-3.91797 17.85547,0.28125 l -0.52344,0.96485 c -8.42578,-4.5625 -17.32031,-0.043 -17.41016,0.004 l -0.49218,0.25782"
       id="path27"
       inkscape:connector-curvature="0" />
    <path
       style="fill:#fdd999;fill-opacity:1;fill-rule:nonzero;stroke:none"
       d="m 570.80859,366.98047 c -1.4375,-4.08203 -18.94922,1.34375 -18.94922,1.34375 l 0,0.004 c -6.35156,0.69532 -12.11718,3.32813 -12.11718,3.32813 0,0 6.71875,7.35937 6.47656,25.03516 25.10937,-6.23829 21.27344,-20.03516 21.27344,-20.03516 -0.67969,-2.28125 -1.76563,-3.98828 -3.11328,-5.26172 7.51953,-2.45312 6.42968,-4.41406 6.42968,-4.41406"
       id="path29"
       inkscape:connector-curvature="0" />
    <path
       style="fill:#fdd999;fill-opacity:1;fill-rule:nonzero;stroke:none"
       d="m 390.14844,446.45703 c 0,0 6.125,9.50391 3.07422,16.64453 0,0 -10.33204,12.61719 -18.83594,10.42188 0,0 -8.77735,-3.5625 -3.29297,-8.77735 l -4.39063,-6.03515 23.44532,-12.25391"
       id="path31"
       inkscape:connector-curvature="0" />
    <path
       style="fill:#faf8d9;fill-opacity:1;fill-rule:nonzero;stroke:none"
       d="m 546.21875,396.69141 c 0.24219,-17.67579 -6.47656,-25.03516 -6.47656,-25.03516 -7.19141,0.82422 -27.92188,9.13672 -33.72657,11.50781 -59.05468,-0.10156 -112.79296,14.74219 -112.79296,14.74219 0,0 -34.53125,16.8125 -36.17579,30.4375 0,0 -4.05078,16.00391 9.65625,30.36719 l 23.44532,-12.25391 -5.88672,-11.0625 c 0,0 5.35547,-2.73437 9.85547,-5.23047 -0.23047,18.35938 -0.89453,37.60156 -0.89453,37.60156 l -6.76563,35.38672 c 0,0 7.67969,9.60157 41.42188,5.48438 0,0 5.80859,-18.58985 7.17578,-30.38672 8.73437,0.73437 16.9375,0.57422 24.39062,-0.10547 1.34766,11.79297 7.19141,30.49219 7.19141,30.49219 23.51172,6.03515 38.35156,-3.24219 38.35156,-3.24219 l -3.69531,-37.62891 -0.22266,-0.61718 c 4.64453,-16.72657 6.27344,-34.1875 6.59375,-48.83203 l 38.55469,-21.625"
       id="path33"
       inkscape:connector-curvature="0" />
    <path
       style="fill:#f05e51;fill-opacity:1;fill-rule:nonzero;stroke:none"
       d="m 485.76172,431.82812 4.93359,-13.4414 c 0,0 -11.98828,-26.05078 -23.55078,-33.32422 -3.48437,0.33203 -6.90234,0.69531 -10.23828,1.08594 0,0 13.21484,13.85937 13.76562,39.91797 l 15.08985,5.76171"
       id="path35"
       inkscape:connector-curvature="0" />
    <path
       style="fill:#fdd999;fill-opacity:1;fill-rule:nonzero;stroke:none"
       d="m 100.58594,378.51172 c 0,0 0,-83.39453 95.09765,-57.78906 0,0 74.98047,17.1875 27.79688,77.17187 0,0 -111.92188,-21.57812 -122.89453,-19.38281"
       id="path37"
       inkscape:connector-curvature="0" />
    <path
       style="fill:#141411;fill-opacity:1;fill-rule:nonzero;stroke:none"
       d="m 195.68359,320.72266 c -40.96093,-11.03125 -64.26953,-1.82813 -77.54296,12.21093 5.58203,-3.51953 11.42187,-6.18359 15.73046,-5.6289 0,0 46.08203,19.38672 82.29297,19.38672 0,0 -0.32812,14.61718 2.14844,28.14453 0.0898,-0.0352 0.18359,-0.0703 0.28125,-0.10547 3.53516,-1.12891 7.10937,0.17187 7.98828,2.91406 0.87891,2.73828 -1.27344,5.88281 -4.80859,7.01563 -0.30078,0.0976 -0.60157,0.16796 -0.90625,0.23046 1.35156,3.8711 3.07812,7.20704 5.30078,9.4375 41.48437,-57.09765 -30.48438,-73.60546 -30.48438,-73.60546"
       id="path39"
       inkscape:connector-curvature="0" />
    <path
       style="fill:#faf8d9;fill-opacity:1;fill-rule:nonzero;stroke:none"
       d="m 231.89453,461.72266 -2.69922,-20.47266 -1.45312,-11.01563 11.30859,1.3125 -9.85547,9.70313 c 5.53125,0.65234 22.9961,9.22266 22.9961,9.22266 10.42578,-10.14844 12.34375,-25.55469 12.34375,-25.55469 -0.27344,-21.99219 -41.05469,-27.02344 -41.05469,-27.02344 0,0 -102.77734,-22.49219 -122.89453,-19.38281 l -31.636721,-29.8125 c 0,0 -21.125,7.73437 -25.511719,29.51953 l 52.484375,37.55078 c -0.488281,15.81641 0.960937,34.16406 7.589845,49.79297 0,0 15.72656,37.30469 20.11719,40.59766 0,0 15.35937,5.48437 34.74609,-2.5586 0,0 -4.40234,-22.02344 -7.23047,-32.57422 11.94531,0.6875 24.99219,0.87891 37.71094,-0.004 8.14844,9.04297 23.07031,32.12109 30.83203,34.03906 6.65625,1.64844 19.61328,1.56641 29.89844,-3.29297 1.55468,-0.73437 -7.78907,-25.88672 -17.69141,-40.04687"
       id="path41"
       inkscape:connector-curvature="0" />
    <path
       style="fill:#fdd999;fill-opacity:1;fill-rule:nonzero;stroke:none"
       d="m 68.949219,348.69922 c 0,0 -27.796875,-19.38281 -32.734375,-18.83203 0,0 -3.109375,-0.36719 -4.9375,2.375 0,0 -1.648438,2.19531 1.644531,5.66797 l 5.667969,4.57421 c 0,0 -23.621094,15.36329 4.847656,35.73438 4.386719,-21.78516 25.511719,-29.51953 25.511719,-29.51953"
       id="path43"
       inkscape:connector-curvature="0" />
    <path
       style="fill:#fdd999;fill-opacity:1;fill-rule:nonzero;stroke:none"
       d="m 231.69531,460.21094 c 0,0 13.1836,4.43359 20.4961,-9.73828 0,0 -17.46485,-8.57032 -22.9961,-9.22266 0,0 -10.68359,12.69922 2.5,18.96094"
       id="path45"
       inkscape:connector-curvature="0" />
    <path
       style="fill:#1e1c1c;fill-opacity:1;fill-rule:nonzero;stroke:none"
       d="m 134.90625,358.07422 c -1.41016,0 -2.64844,-0.33985 -3.70313,-1.01953 -3.75781,-2.42188 -3.55859,-8.15625 -3.55078,-8.39844 l 2.19532,0.0898 c -0.004,0.0469 -0.15235,4.73438 2.55078,6.46485 1.83593,1.18359 4.6875,0.80859 8.47265,-1.10547 l 0.99219,1.95703 c -2.64844,1.33984 -4.97656,2.01172 -6.95703,2.01172"
       id="path47"
       inkscape:connector-curvature="0" />
    <path
       style="fill:#1e1c1c;fill-opacity:1;fill-rule:nonzero;stroke:none"
       d="m 175.98437,366.23828 c -1.41015,0 -2.64453,-0.33984 -3.69921,-1.01953 -3.75782,-2.42188 -3.5625,-8.15625 -3.55079,-8.39844 l 2.19141,0.0899 c 0,0.0469 -0.14844,4.73437 2.55078,6.46875 1.83985,1.17968 4.69141,0.80468 8.47656,-1.10938 l 0.99219,1.96094 c -2.65234,1.33594 -4.97656,2.00781 -6.96094,2.00781"
       id="path49"
       inkscape:connector-curvature="0" />
    <path
       style="fill:#1e1c1c;fill-opacity:1;fill-rule:nonzero;stroke:none"
       d="m 157.73047,374.78125 c -6.52344,-6.00391 -16.05469,-2.13281 -16.15235,-2.09375 l -0.42187,-1.01172 c 0.10156,-0.043 10.28125,-4.17187 17.31641,2.29688 l -0.74219,0.80859"
       id="path51"
       inkscape:connector-curvature="0" />
    <path
       style="fill:#f05e51;fill-opacity:1;fill-rule:nonzero;stroke:none"
       d="m 140.00391,381.9375 c -4.33594,6.40625 -17.41797,27.17969 -15.27735,41.5625 l 10.33203,13.16406 12.71094,-12.43359 c 0,0 -5.76172,-32.45703 0.81641,-40.90625 -2.90625,-0.48438 -5.77344,-0.94922 -8.58203,-1.38672"
       id="path53"
       inkscape:connector-curvature="0" />
    <path
       style="fill:#1e1c1c;fill-opacity:1;fill-rule:nonzero;stroke:none"
       d="m 160.55078,378.64062 -0.69141,-0.85156 c 1.6836,-1.375 0.45704,-5.30469 -0.15625,-6.70312 l 1.00391,-0.44141 c 0.10547,0.23828 2.51563,5.81641 -0.15625,7.99609"
       id="path55"
       inkscape:connector-curvature="0" />
    <path
       style="fill:#141411;fill-opacity:1;fill-rule:nonzero;stroke:none"
       d="m 549.78516,362.30078 -0.57032,-0.82422 c 0.35547,-0.24609 8.8086,-5.99609 17.44922,-2.94922 l -0.32812,0.94532 c -8.16797,-2.88282 -16.46875,2.76953 -16.55078,2.82812"
       id="path57"
       inkscape:connector-curvature="0" />
    <path
       style="fill:#141411;fill-opacity:1;fill-rule:nonzero;stroke:none"
       d="m 549.77734,356.59766 -0.55859,-0.82813 c 0.23437,-0.15625 5.74609,-3.82031 12.19922,-2.69531 l -0.17188,0.98437 c -6.05078,-1.05078 -11.41406,2.50391 -11.46875,2.53907"
       id="path59"
       inkscape:connector-curvature="0" />
    <path
       style="fill:#141411;fill-opacity:1;fill-rule:nonzero;stroke:none"
       d="m 60.355469,335.72656 c -4.847657,-3.8789 -11.234375,-5.375 -11.296875,-5.39062 l 0.222656,-0.97266 c 0.269531,0.0625 6.667969,1.55469 11.699219,5.57813 l -0.625,0.78515"
       id="path61"
       inkscape:connector-curvature="0" />
    <path
       style="fill:#141411;fill-opacity:1;fill-rule:nonzero;stroke:none"
       d="m 66.613281,332.91016 c -1.835937,-2.21485 -5.945312,-2.5586 -5.984375,-2.5625 l 0.07813,-0.9961 c 0.183594,0.0117 4.566407,0.37891 6.679688,2.92188 l -0.773438,0.63672"
       id="path63"
       inkscape:connector-curvature="0" />
  </g>
</svg>
