<?xml version="1.0" encoding="UTF-8" standalone="no"?>
<svg
   xmlns:dc="http://purl.org/dc/elements/1.1/"
   xmlns:cc="http://creativecommons.org/ns#"
   xmlns:rdf="http://www.w3.org/1999/02/22-rdf-syntax-ns#"
   xmlns:svg="http://www.w3.org/2000/svg"
   xmlns="http://www.w3.org/2000/svg"
   xmlns:sodipodi="http://sodipodi.sourceforge.net/DTD/sodipodi-0.dtd"
   xmlns:inkscape="http://www.inkscape.org/namespaces/inkscape"
   width="299px"
   height="68px"
   viewBox="0 0 299 68"
   version="1.1"
   id="svg2"
   inkscape:version="0.91 r13725"
   sodipodi:docname="clever-cloud-dark.svg">
  <metadata
     id="metadata19">
    <rdf:RDF>
      <cc:Work
         rdf:about="">
        <dc:format>image/svg+xml</dc:format>
        <dc:type
           rdf:resource="http://purl.org/dc/dcmitype/StillImage" />
      </cc:Work>
    </rdf:RDF>
  </metadata>
  <sodipodi:namedview
     pagecolor="#ffffff"
     bordercolor="#666666"
     borderopacity="1"
     objecttolerance="10"
     gridtolerance="10"
     guidetolerance="10"
     inkscape:pageopacity="0"
     inkscape:pageshadow="2"
     inkscape:window-width="2560"
     inkscape:window-height="1406"
     id="namedview17"
     showgrid="false"
     inkscape:zoom="6.4798414"
     inkscape:cx="165.85952"
     inkscape:cy="24.497588"
     inkscape:window-x="0"
     inkscape:window-y="1512"
     inkscape:window-maximized="1"
     inkscape:current-layer="000-Company" />
  <!-- Generator: Sketch 46.2 (44496) - http://www.bohemiancoding.com/sketch -->
  <title
     id="title4">Group 3</title>
  <desc
     id="desc6">Created with Sketch.</desc>
  <defs
     id="defs8" />
  <g
     id="Page-1"
     stroke="none"
     stroke-width="1"
     fill="none"
     fill-rule="evenodd">
    <g
       id="000-Company"
       transform="translate(-57.000000, -430.000000)"
       fill="#333333">
      <g
         id="clever-cloud-black"
         transform="translate(11.411597,408.30448)"
         style="fill:#454545;fill-opacity:1">
        <g
           id="Group-3"
           transform="translate(46,22)"
           style="fill:#454545;fill-opacity:1">
          <path
             d="m 33.525133,22.929817 4.980523,0 c 0.356325,0 1.040065,-0.252727 1.407535,-0.67706 0.666673,-0.76685 1.142121,-2.094623 0.673291,-3.498319 -0.729717,-2.177479 -2.188455,-2.721415 -4.468865,-2.086303 -0.272729,-0.999123 -0.729369,-3.085427 -3.828664,-2.541143 -2.184971,0.383078 -2.279713,3.266392 -1.915028,3.629362 -3.555935,-0.06795 -4.14772,2.889901 -3.555935,4.265169 0.274123,0.635806 1.238952,0.908294 1.60294,0.908294 l 3.775309,0 0.510969,0.813617 0.817925,-0.813617 z M 3.9520353,0.20298507 l 59.3757567,0 c 2.182649,0 3.952036,1.76938653 3.952036,3.95203533 l 0,59.0810036 c 0,2.182649 -1.769387,3.952036 -3.952036,3.952036 l -59.3757567,0 0,0 C 1.7693865,67.18806 0,65.418673 0,63.236024 l 0,-59.0810036 0,0 C 0,1.9723716 1.7693865,0.20298507 3.9520353,0.20298507 l 0,0 z M 32.940683,25.090171 l -1.066885,0 c 0,0 -0.123651,0.08251 -0.0822,0.204539 l 0.04006,0.122377 0.124697,1.634583 c 0,0 -0.164753,0.08216 -0.206202,0.367824 -0.04075,0.286009 0.287707,1.062913 0.287707,1.062913 0,0 -0.08151,12.111512 -0.08151,12.145833 -0.02403,3.392236 -4.777819,5.516673 -4.665662,9.598797 0.08185,2.995637 2.74715,3.271939 5.156087,3.271939 1.98713,0 5.261975,0.295369 5.971838,-2.091503 1.465356,-4.923163 -4.466426,-6.868368 -4.492898,-10.779233 0,-0.03432 -0.0815,-12.145833 -0.0815,-12.145833 0,0 0.328459,-0.776904 0.287707,-1.062913 C 34.090472,27.133832 33.92572,27.05167 33.92572,27.05167 l 0.124,-1.634583 0.04075,-0.122377 c 0.04145,-0.12203 -0.08255,-0.204539 -0.08255,-0.204539 l -1.067233,0 z"
             id="Combined-Shape"
             style="fill:#454545;fill-opacity:1;fill-rule:nonzero"
             inkscape:connector-curvature="0" />
          <path
             d="m 206.87021,36.893983 c 0,-1.312032 0.22784,-2.55248 0.68354,-3.721381 0.45569,-1.168901 1.09726,-2.188692 1.9247,-3.059404 0.82745,-0.870712 1.81678,-1.556536 2.96801,-2.057494 1.15123,-0.500957 2.42236,-0.751432 3.81343,-0.751432 1.77482,0 3.32176,0.399567 4.64088,1.198714 1.31912,0.799146 2.31444,1.878574 2.98599,3.238316 l -2.3744,0.751433 c -0.52765,-0.954205 -1.26514,-1.699667 -2.21251,-2.236407 -0.94737,-0.53674 -1.99665,-0.805106 -3.14788,-0.805106 -0.95936,0 -1.85275,0.190838 -2.6802,0.57252 -0.82745,0.381682 -1.54696,0.900523 -2.15855,1.556539 -0.61159,0.656016 -1.09126,1.437259 -1.43903,2.343754 -0.34777,0.906494 -0.52165,1.896467 -0.52165,2.969948 0,1.049625 0.17988,2.039598 0.53964,2.969948 0.35976,0.930349 0.85142,1.735447 1.475,2.415318 0.62359,0.679871 1.34909,1.216604 2.17654,1.610213 0.82745,0.39361 1.70885,0.590411 2.64422,0.590411 0.5996,0 1.1932,-0.08349 1.78081,-0.250477 0.5876,-0.166986 1.13323,-0.39957 1.63689,-0.697759 0.50367,-0.298189 0.93537,-0.638119 1.29513,-1.019801 0.35976,-0.381682 0.61159,-0.787213 0.75549,-1.216605 l 2.41038,0.71565 c -0.26382,0.667943 -0.64756,1.282203 -1.15122,1.842799 -0.50367,0.560595 -1.09726,1.049618 -1.7808,1.467082 -0.68355,0.417465 -1.43903,0.739504 -2.26648,0.966128 -0.82745,0.226624 -1.68486,0.339934 -2.57227,0.339934 -1.36709,0 -2.62623,-0.256439 -3.77746,-0.769324 -1.15123,-0.512885 -2.14655,-1.216601 -2.98599,-2.111168 -0.83944,-0.894567 -1.493,-1.926286 -1.96068,-3.095186 -0.46769,-1.168901 -0.70153,-2.421277 -0.70153,-3.757163 z m 21.15377,-16.746212 2.44636,0 0,21.898892 c 0,0.691799 0.19187,1.234495 0.57561,1.628104 0.38374,0.39361 0.92338,0.590411 1.61891,0.590411 0.26383,0 0.57561,-0.03578 0.93537,-0.107347 0.35976,-0.07156 0.69553,-0.166984 1.00732,-0.28626 l 0.43171,1.968038 c -0.45569,0.190841 -1.01331,0.345896 -1.67287,0.465172 -0.65956,0.119276 -1.22917,0.178913 -1.70885,0.178913 -1.12725,0 -2.01464,-0.316076 -2.66221,-0.948237 -0.64757,-0.63216 -0.97135,-1.52075 -0.97135,-2.665796 l 0,-22.72189 z m 17.66412,26.479053 c -1.36708,0 -2.61423,-0.256439 -3.74148,-0.769324 -1.12725,-0.512885 -2.10458,-1.210637 -2.93203,-2.093277 -0.82745,-0.882639 -1.46901,-1.908394 -1.9247,-3.077295 -0.4557,-1.168901 -0.68354,-2.397421 -0.68354,-3.685598 0,-1.312032 0.23384,-2.552479 0.70152,-3.72138 0.46769,-1.168901 1.11525,-2.194656 1.9427,-3.077295 0.82744,-0.88264 1.80478,-1.586356 2.93203,-2.111168 1.12724,-0.524813 2.3624,-0.787215 3.7055,-0.787215 1.34311,0 2.58426,0.262402 3.7235,0.787215 1.13924,0.524812 2.12257,1.228528 2.95002,2.111168 0.82744,0.882639 1.475,1.908394 1.94269,3.077295 0.46769,1.168901 0.70153,2.409348 0.70153,3.72138 0,1.288177 -0.22785,2.516697 -0.68354,3.685598 -0.4557,1.168901 -1.09726,2.194656 -1.92471,3.077295 -0.82745,0.88264 -1.81078,1.580392 -2.95001,2.093277 -1.13924,0.512885 -2.39239,0.769324 -3.75948,0.769324 z m -6.79942,-9.589711 c 0,1.049625 0.17987,2.021707 0.53963,2.916274 0.35976,0.894567 0.84543,1.681774 1.45702,2.361645 0.61159,0.679871 1.3311,1.21064 2.15855,1.592321 0.82745,0.381682 1.70885,0.57252 2.64422,0.57252 0.93538,0 1.81678,-0.196801 2.64423,-0.590411 0.82744,-0.393609 1.55295,-0.930342 2.17653,-1.610213 0.62359,-0.679871 1.11525,-1.473041 1.47501,-2.379536 0.35976,-0.906495 0.53964,-1.88454 0.53964,-2.934165 0,-1.025771 -0.17988,-1.997852 -0.53964,-2.916274 -0.35976,-0.918423 -0.85142,-1.717557 -1.47501,-2.397428 -0.62358,-0.679871 -1.34909,-1.216603 -2.17653,-1.610213 -0.82745,-0.393609 -1.70885,-0.590411 -2.64423,-0.590411 -0.93537,0 -1.81077,0.196802 -2.62623,0.590411 -0.81546,0.39361 -1.53497,0.936306 -2.15855,1.628104 -0.62358,0.691799 -1.11525,1.496897 -1.47501,2.415319 -0.35976,0.918422 -0.53963,1.902431 -0.53963,2.952057 z m 26.08246,9.589711 c -2.03864,0 -3.55561,-0.673897 -4.55094,-2.021712 -0.99534,-1.347814 -1.493,-3.357578 -1.493,-6.029352 l 0,-10.949446 2.44635,0 0,10.520056 c 0,4.222357 1.45101,6.333503 4.35308,6.333503 0.71952,0 1.42703,-0.119273 2.12257,-0.357825 0.69554,-0.238551 1.3371,-0.584445 1.92471,-1.037692 0.5876,-0.453247 1.11524,-0.98998 1.58293,-1.610213 0.46769,-0.620233 0.84543,-1.323949 1.13324,-2.111168 l 0,-11.736661 2.44635,0 0,15.493824 c 0,0.667944 0.28781,1.00191 0.86342,1.00191 l 0,2.146951 c -0.2878,0.04771 -0.52164,0.07156 -0.70152,0.07156 l -0.37775,0 c -0.57562,-0.02386 -1.0433,-0.226621 -1.40306,-0.608303 -0.35976,-0.381682 -0.53963,-0.894559 -0.53963,-1.538648 l 0,-2.14695 c -0.81546,1.455163 -1.9247,2.5823 -3.32777,3.381447 -1.40306,0.799146 -2.89604,1.198714 -4.47898,1.198714 z m 23.20439,0 c -1.29513,0 -2.49432,-0.268366 -3.59758,-0.805107 -1.10326,-0.53674 -2.05062,-1.246419 -2.84209,-2.129059 -0.79147,-0.882639 -1.40905,-1.90243 -1.85275,-3.059404 -0.44371,-1.156973 -0.66556,-2.367602 -0.66556,-3.631924 0,-1.312032 0.21586,-2.558443 0.64757,-3.739271 0.43171,-1.180829 1.02531,-2.212547 1.7808,-3.095187 0.7555,-0.882639 1.65488,-1.580391 2.69819,-2.093276 1.0433,-0.512886 2.18852,-0.769324 3.43569,-0.769324 1.58294,0 2.98598,0.411494 4.20917,1.234496 1.22318,0.823002 2.18253,1.818938 2.87806,2.987839 l 0,-11.378836 2.44636,0 0,22.972367 c 0,0.667944 0.2878,1.00191 0.86341,1.00191 l 0,2.146951 c -0.35975,0.07156 -0.64756,0.107347 -0.86341,0.107347 -0.57562,0 -1.07928,-0.184874 -1.51099,-0.554629 -0.43171,-0.369754 -0.64756,-0.817031 -0.64756,-1.341844 l 0,-1.824907 c -0.74351,1.216611 -1.75082,2.182729 -3.02197,2.898383 -1.27115,0.715653 -2.59025,1.073475 -3.95734,1.073475 z m 0.53964,-2.146951 c 0.5996,0 1.24116,-0.119273 1.9247,-0.357825 0.68355,-0.238551 1.32511,-0.566554 1.92471,-0.984018 0.5996,-0.417465 1.10925,-0.906488 1.52897,-1.467083 0.41972,-0.560595 0.67754,-1.162928 0.77348,-1.807016 l 0,-5.760984 c -0.23984,-0.644088 -0.5876,-1.246421 -1.0433,-1.807016 -0.45569,-0.560595 -0.97734,-1.055582 -1.56495,-1.484974 -0.5876,-0.429392 -1.21717,-0.763359 -1.88873,-1.00191 -0.67155,-0.238551 -1.3311,-0.357825 -1.97866,-0.357825 -1.00733,0 -1.91871,0.214693 -2.73417,0.644085 -0.81545,0.429392 -1.51697,0.995943 -2.10458,1.699669 -0.58761,0.703726 -1.0373,1.508824 -1.34909,2.415319 -0.31179,0.906495 -0.46769,1.83683 -0.46769,2.791035 0,1.001915 0.17988,1.956106 0.53964,2.862601 0.35976,0.906494 0.85142,1.699665 1.47501,2.379536 0.62358,0.679871 1.36108,1.222567 2.21251,1.628104 0.85143,0.405537 1.76881,0.608302 2.75215,0.608302 z"
             id="cloud"
             style="fill:#454545;fill-opacity:1"
             inkscape:connector-curvature="0" />
          <path
             d="m 87.151692,36.893983 c 0,-1.312032 0.227844,-2.55248 0.68354,-3.721381 0.455696,-1.168901 1.097258,-2.188692 1.924706,-3.059404 0.827447,-0.870712 1.816772,-1.556536 2.968004,-2.057494 1.151231,-0.500957 2.422364,-0.751432 3.813435,-0.751432 1.774815,0 3.32176,0.399567 4.640883,1.198714 1.31912,0.799146 2.31444,1.878574 2.98599,3.238316 l -2.3744,0.751433 c -0.52765,-0.954205 -1.26515,-1.699667 -2.212517,-2.236407 -0.947368,-0.53674 -1.996652,-0.805106 -3.147883,-0.805106 -0.95936,0 -1.85275,0.190838 -2.680198,0.57252 -0.827448,0.381682 -1.546957,0.900523 -2.158548,1.556539 -0.611592,0.656016 -1.091265,1.437259 -1.439033,2.343754 -0.347767,0.906494 -0.521649,1.896467 -0.521649,2.969948 0,1.049625 0.179878,2.039598 0.539637,2.969948 0.35976,0.930349 0.851425,1.735447 1.475008,2.415318 0.623584,0.679871 1.349089,1.216604 2.176537,1.610213 0.827447,0.39361 1.708846,0.590411 2.644221,0.590411 0.5996,0 1.193195,-0.08349 1.780803,-0.250477 0.587608,-0.166986 1.133235,-0.39957 1.636899,-0.697759 0.503663,-0.298189 0.935373,-0.638119 1.295133,-1.019801 0.35976,-0.381682 0.61158,-0.787213 0.75549,-1.216605 l 2.41038,0.71565 c -0.26383,0.667943 -0.64757,1.282203 -1.15123,1.842799 -0.50366,0.560595 -1.09726,1.049618 -1.7808,1.467082 -0.68354,0.417465 -1.439029,0.739504 -2.266477,0.966128 -0.827448,0.226624 -1.684862,0.339934 -2.57227,0.339934 -1.367088,0 -2.626228,-0.256439 -3.77746,-0.769324 -1.151231,-0.512885 -2.146552,-1.216601 -2.985992,-2.111168 -0.839439,-0.894567 -1.492993,-1.926286 -1.960681,-3.095186 -0.467688,-1.168901 -0.701528,-2.421277 -0.701528,-3.757163 z m 21.153778,-16.746212 2.44635,0 0,21.898892 c 0,0.691799 0.19187,1.234495 0.57561,1.628104 0.38375,0.39361 0.92338,0.590411 1.61891,0.590411 0.26383,0 0.57562,-0.03578 0.93538,-0.107347 0.35976,-0.07156 0.69553,-0.166984 1.00732,-0.28626 l 0.43171,1.968038 c -0.4557,0.190841 -1.01332,0.345896 -1.67288,0.465172 -0.65956,0.119276 -1.22917,0.178913 -1.70885,0.178913 -1.12725,0 -2.01464,-0.316076 -2.66221,-0.948237 -0.64757,-0.63216 -0.97134,-1.52075 -0.97134,-2.665796 l 0,-22.72189 z m 17.77204,26.479053 c -1.36708,0 -2.62023,-0.256439 -3.75947,-0.769324 -1.13924,-0.512885 -2.12856,-1.216601 -2.968,-2.111168 -0.83944,-0.894567 -1.49299,-1.926286 -1.96068,-3.095186 -0.46769,-1.168901 -0.70153,-2.421277 -0.70153,-3.757163 0,-1.312032 0.23384,-2.546516 0.70153,-3.703489 0.46769,-1.156974 1.11524,-2.170801 1.94269,-3.041513 0.82745,-0.870712 1.81677,-1.5625 2.96801,-2.075385 1.15123,-0.512886 2.39838,-0.769324 3.74148,-0.769324 1.36709,0 2.62023,0.256438 3.75947,0.769324 1.13924,0.512885 2.11657,1.210637 2.93203,2.093276 0.81545,0.88264 1.45102,1.896467 1.90672,3.041513 0.45569,1.145046 0.68354,2.361639 0.68354,3.649815 l 0,0.57252 c 0,0.190841 -0.012,0.322042 -0.036,0.393608 l -16.04521,0 c 0.072,1.001915 0.30579,1.926287 0.70153,2.773144 0.39574,0.846857 0.90539,1.580391 1.52897,2.200624 0.62358,0.620233 1.3371,1.103292 2.14056,1.449191 0.80347,0.3459 1.66088,0.518847 2.57227,0.518847 0.5996,0 1.19919,-0.08349 1.79879,-0.250478 0.5996,-0.166986 1.15122,-0.393606 1.65489,-0.679868 0.50366,-0.286261 0.95935,-0.638119 1.36708,-1.055583 0.40773,-0.417465 0.71951,-0.876669 0.93537,-1.377627 l 2.12257,0.57252 c -0.28781,0.691799 -0.69553,1.317986 -1.22317,1.878582 -0.52765,0.560595 -1.13923,1.049618 -1.83477,1.467082 -0.69554,0.417465 -1.46301,0.739504 -2.30245,0.966128 -0.83944,0.226624 -1.71484,0.339934 -2.62624,0.339934 z m 6.90736,-10.663186 c -0.0719,-1.001916 -0.30579,-1.91436 -0.70153,-2.737362 -0.39574,-0.823002 -0.89939,-1.532681 -1.51098,-2.129059 -0.6116,-0.596378 -1.31911,-1.061546 -2.12258,-1.395518 -0.80346,-0.333971 -1.66087,-0.500955 -2.57227,-0.500955 -0.91139,0 -1.7748,0.166984 -2.59025,0.500955 -0.81546,0.333972 -1.52897,0.79914 -2.14056,1.395518 -0.6116,0.596378 -1.10326,1.312021 -1.47501,2.14695 -0.37175,0.83493 -0.5936,1.741411 -0.66555,2.719471 l 13.77873,0 z m 11.22445,10.305361 -7.62687,-18.642685 2.51831,0 6.43966,16.388387 6.47565,-16.388387 2.3744,0 -7.62687,18.642685 -2.55428,0 z m 21.00987,0.357825 c -1.36709,0 -2.62023,-0.256439 -3.75947,-0.769324 -1.13924,-0.512885 -2.12857,-1.216601 -2.968,-2.111168 -0.83944,-0.894567 -1.493,-1.926286 -1.96069,-3.095186 -0.46768,-1.168901 -0.70152,-2.421277 -0.70152,-3.757163 0,-1.312032 0.23384,-2.546516 0.70152,-3.703489 0.46769,-1.156974 1.11525,-2.170801 1.9427,-3.041513 0.82745,-0.870712 1.81677,-1.5625 2.968,-2.075385 1.15123,-0.512886 2.39838,-0.769324 3.74149,-0.769324 1.36708,0 2.62023,0.256438 3.75947,0.769324 1.13924,0.512885 2.11657,1.210637 2.93203,2.093276 0.81545,0.88264 1.45102,1.896467 1.90671,3.041513 0.4557,1.145046 0.68354,2.361639 0.68354,3.649815 l 0,0.57252 c 0,0.190841 -0.012,0.322042 -0.036,0.393608 l -16.04521,0 c 0.0719,1.001915 0.30579,1.926287 0.70153,2.773144 0.39573,0.846857 0.90538,1.580391 1.52897,2.200624 0.62358,0.620233 1.33709,1.103292 2.14056,1.449191 0.80346,0.3459 1.66088,0.518847 2.57227,0.518847 0.5996,0 1.19919,-0.08349 1.79879,-0.250478 0.5996,-0.166986 1.15122,-0.393606 1.65489,-0.679868 0.50366,-0.286261 0.95935,-0.638119 1.36708,-1.055583 0.40773,-0.417465 0.71951,-0.876669 0.93537,-1.377627 l 2.12257,0.57252 c -0.28781,0.691799 -0.69553,1.317986 -1.22318,1.878582 -0.52765,0.560595 -1.13923,1.049618 -1.83476,1.467082 -0.69554,0.417465 -1.46302,0.739504 -2.30246,0.966128 -0.83943,0.226624 -1.71484,0.339934 -2.62623,0.339934 z m 6.90736,-10.663186 c -0.072,-1.001916 -0.3058,-1.91436 -0.70153,-2.737362 -0.39574,-0.823002 -0.89939,-1.532681 -1.51099,-2.129059 -0.61159,-0.596378 -1.31911,-1.061546 -2.12257,-1.395518 -0.80346,-0.333971 -1.66088,-0.500955 -2.57227,-0.500955 -0.91139,0 -1.7748,0.166984 -2.59026,0.500955 -0.81545,0.333972 -1.52897,0.79914 -2.14056,1.395518 -0.61159,0.596378 -1.10325,1.312021 -1.47501,2.14695 -0.37175,0.83493 -0.5936,1.741411 -0.66555,2.719471 l 13.77874,0 z m 15.46959,-6.190374 c -1.65489,0.04771 -3.09391,0.500951 -4.31709,1.359736 -1.22319,0.858784 -2.0866,2.039595 -2.59026,3.542468 l 0,11.593531 -2.44636,0 0,-18.642685 2.30245,0 0,4.472813 c 0.69554,-1.431307 1.6309,-2.552481 2.80612,-3.363555 1.17521,-0.811074 2.43435,-1.216605 3.77746,-1.216605 0.19187,0 0.34776,0.01193 0.46768,0.03578 l 0,2.218515 z"
             id="clever"
             style="fill:#454545;fill-opacity:1"
             inkscape:connector-curvature="0" />
        </g>
      </g>
    </g>
  </g>
</svg>
