<?xml version="1.0" encoding="UTF-8" standalone="no"?>
<!-- Created with Inkscape (http://www.inkscape.org/) -->

<svg
   xmlns:dc="http://purl.org/dc/elements/1.1/"
   xmlns:cc="http://creativecommons.org/ns#"
   xmlns:rdf="http://www.w3.org/1999/02/22-rdf-syntax-ns#"
   xmlns:svg="http://www.w3.org/2000/svg"
   xmlns="http://www.w3.org/2000/svg"
   xmlns:sodipodi="http://sodipodi.sourceforge.net/DTD/sodipodi-0.dtd"
   xmlns:inkscape="http://www.inkscape.org/namespaces/inkscape"
   height="1080mm"
   width="1440mm"
   viewBox="0 0 5102.3623 3826.7716"
   id="svg2"
   version="1.1"
   inkscape:version="0.91 r13725"
   sodipodi:docname="collaboration.svg">
  <defs
     id="defs8" />
  <sodipodi:namedview
     pagecolor="#ffffff"
     bordercolor="#666666"
     borderopacity="1"
     objecttolerance="10"
     gridtolerance="10"
     guidetolerance="10"
     inkscape:pageopacity="0"
     inkscape:pageshadow="2"
     inkscape:window-width="2560"
     inkscape:window-height="1406"
     id="namedview6"
     showgrid="false"
     inkscape:zoom="0.22425739"
     inkscape:cx="1661.6019"
     inkscape:cy="2162.3329"
     inkscape:window-x="0"
     inkscape:window-y="0"
     inkscape:window-maximized="1"
     inkscape:current-layer="g3201" />
  <metadata
     id="metadata4">
    <rdf:RDF>
      <cc:Work
         rdf:about="">
        <dc:format>image/svg+xml</dc:format>
        <dc:type
           rdf:resource="http://purl.org/dc/dcmitype/StillImage" />
        <dc:title />
      </cc:Work>
    </rdf:RDF>
  </metadata>
  <g
     id="g3228"
     transform="matrix(16.521996,0,0,16.521996,4083.7463,1131.2961)"
     style="fill:#454545;fill-opacity:1">
    <path
       id="path3216"
       d="m 2.6408133,52.623077 c -1.0541438,0 -1.90921503,-0.854288 -1.90921503,-1.909215 0,-0.540004 0.22572,-1.027496 0.58702873,-1.374698 -1.40447999,0.308798 -2.4946763,1.131735 -2.6694525,2.12553 -0.034485,0.19437 -0.203775,0.330743 -0.3942263,0.330743 -0.023513,0 -0.046241,-0.0016 -0.069754,-0.0063 -0.1167788,-0.02038 -0.7845338,-0.557246 -0.9647963,-0.686565 -0.1802625,-0.129319 -1.3652925,-0.991444 -1.3652925,-0.991444 0,0 3.90464256,-1.926457 6.4330201,-1.776761 1.2712425,0.07524 2.004049,0.264907 2.3512503,0.424792 1.17876,0.418523 2.0902612,1.177193 2.442165,2.123179 0.077591,0.20691 -0.028999,0.438116 -0.2359088,0.514924 -0.20691,0.07681 -0.4381162,-0.029 -0.5149237,-0.235909 C 6.033667,50.361928 5.149597,49.717686 4.030402,49.407321 c 0.3205537,0.341715 0.5188425,0.799425 0.5188425,1.304943 0,1.056495 -0.8542875,1.910783 -1.9084315,1.910783 z m 8.1039757,5.715105 c 1.156815,-0.08308 1.803408,0.05329 2.03775,0.427928 0.165371,0.264907 0.186532,1.37313 -0.101888,2.13807 -0.123832,0.329175 -0.248449,0.430278 -0.286852,0.442035 -0.22572,0.0674 -0.353472,0.305662 -0.285285,0.530598 0.05565,0.184182 0.224936,0.303312 0.408333,0.303312 0.04075,0 0.08229,-0.0063 0.123049,-0.01803 0.35739,-0.107373 0.63954,-0.430278 0.838613,-0.957742 0.325256,-0.863693 0.405982,-2.283064 0.02665,-2.89047 -0.542355,-0.866044 -1.73052,-0.903664 -2.820716,-0.826073 -0.235125,0.01724 -0.411469,0.221018 -0.39501,0.455359 0.01646,0.235125 0.218666,0.410685 0.455359,0.39501 z M 22.117001,48.335964 c -1.271242,0.07524 -2.004049,0.264908 -2.35125,0.424793 -1.17876,0.418522 -2.090261,1.177192 -2.442165,2.123179 -0.07759,0.20691 0.029,0.438116 0.235909,0.514923 0.207694,0.07759 0.438116,-0.029 0.514924,-0.235908 0.311148,-0.838613 1.268107,-1.506368 2.464893,-1.797139 -0.34485,0.345634 -0.55803,0.822154 -0.55803,1.34805 0,1.054927 0.855072,1.909215 1.909215,1.909215 1.054144,0 1.908432,-0.854288 1.908432,-1.909215 0,-0.521194 -0.209261,-0.993795 -0.548625,-1.337861 1.326105,0.334661 2.33871,1.133302 2.506432,2.088693 0.03449,0.19437 0.203775,0.330743 0.394227,0.330743 0.02351,0 0.04624,-0.0016 0.06975,-0.0063 0.116779,-0.02038 0.784534,-0.557246 0.964797,-0.686565 0.180262,-0.129319 1.365292,-0.991444 1.365292,-0.991444 0,0 -3.905426,-1.92489 -6.433804,-1.775194 z m 18.969102,7.269282 c -0.247665,4.063744 0.825288,11.771925 -3.174972,17.724506 -4.001043,5.951798 -13.282995,7.910389 -14.343408,8.00052 3.21024,-2.247011 2.709423,-3.445365 1.65528,-4.001827 -0.851153,0.763372 -1.743844,1.457775 -2.674939,2.065965 -3.218862,2.099666 -6.858597,3.21024 -10.526547,3.21024 -3.6844084,0 -7.3390347,-1.119195 -10.5688687,-3.238455 -0.91385253,-0.599569 -1.79086879,-1.283783 -2.6279138,-2.033831 0.347985,1.200705 1.11762751,2.610671 1.51969127,2.924171 C -3.0711568,79.618562 -13.316337,76.743767 -15.365059,66.10828 -17.413782,55.472792 -16.277344,46.149302 -14.064818,37.589968 -11.852292,29.030634 -8.1772881,19.707144 0.62108952,15.050885 9.4194674,10.394627 18.740606,12.404162 20.472694,13.096213 c 1.156815,0.463196 1.591012,1.438965 1.751681,2.03775 2.008751,-0.591731 5.308339,-0.851936 9.444971,2.810527 4.136633,3.662464 6.361699,10.260072 8.111029,17.334983 1.748546,7.074911 1.553393,16.262029 1.305728,20.325773 z M 30.001526,41.144274 c -0.575272,-2.805825 -1.98759,-9.884655 -4.867087,-12.69048 -0.731239,-0.711645 -1.773626,-1.395075 -3.03468,-2.00013 -1.225785,2.656913 -4.660178,9.212198 -10.43328,13.595712 -2.8473642,2.161582 -5.8781254,3.56136 -8.617332,4.881195 1.4389653,0.247665 2.7133428,0.772777 3.5887916,1.509502 0.16929,0.142643 0.191235,0.395794 0.048592,0.5643 -0.1426425,0.16929 -0.39501,0.191235 -0.5643,0.04859 C 5.1198143,46.209648 3.4958841,45.677481 1.705799,45.58735 c -3.752595,1.873163 -6.7441688,3.812944 -7.5718088,7.804583 -0.2625563,-1.342564 -1.5847425,-2.876363 -1.7579513,-4.080203 -0.22572,3.333289 -0.34485,7.998953 0.3581738,11.429427 0.8440987,4.11939 1.6568475,7.146232 3.4571213,10.336878 1.7548162,2.692965 3.92893876,4.932139 6.3993188,6.552934 2.8238515,1.852002 6.0309565,2.898308 9.4316472,2.898308 3.385016,0 6.578014,-1.036901 9.39246,-2.873228 2.330089,-1.520475 4.396054,-3.591926 6.099143,-6.074846 0.933446,-1.664685 1.685846,-3.522956 2.177257,-5.620271 1.098034,-4.68369 0.774345,-11.192734 0.912285,-13.552606 0.13794,-2.359087 -0.02665,-8.45823 -0.60192,-11.264055 z m -7.125855,3.696165 c -2.18196,0 -4.22598,0.623865 -5.469007,1.669388 -0.16929,0.142642 -0.191235,0.395794 -0.04859,0.5643 0.142643,0.16929 0.395794,0.191235 0.565084,0.04859 1.102736,-0.927176 2.953954,-1.481287 4.952516,-1.481287 3.189863,0 5.883612,1.452289 5.883612,3.171052 0,0.221018 0.179478,0.400497 0.400496,0.400497 0.221801,0 0.400496,-0.179479 0.400496,-0.400497 7.84e-4,-2.227417 -2.935927,-3.972045 -6.684604,-3.972045 z m -2.29482,21.759252 c 0.148913,0.226504 0.18183,0.510221 0.08856,0.764156 -0.02116,0.05643 -2.161583,5.672783 -8.618115,5.672783 -6.4408577,0 -8.5812792,-5.195479 -8.6690592,-5.416497 -0.10032,-0.252367 -0.074456,-0.536868 0.069754,-0.767291 C 3.596201,66.62242 3.840731,66.475075 4.1111247,66.454697 l 8.2638603,-0.615244 c 0.03527,-0.0031 0.07054,-0.0031 0.10659,-0.0016 l 7.431517,0.380902 c 0.270394,0.01411 0.518843,0.155183 0.667755,0.380903 z m -2.083207,1.254 -6.049767,-0.309581 -6.8781897,0.511788 c 0.8887725,1.287702 2.849715,3.275292 6.4816127,3.275292 3.629546,0 5.577949,-2.131017 6.446344,-3.477499 z"
       inkscape:connector-curvature="0"
       style="fill:#454545;fill-opacity:1" />
  </g>
  <g
     id="g3247"
     transform="matrix(12.949114,0,0,12.949114,135.83413,1265.9309)"
     style="fill:#454545;fill-opacity:1">
    <path
       id="path3235"
       d="m 83.401,63.508 c -0.626,2.761 -2.264,5.747 -5.077,6.302 -0.358,1.328 -0.777,2.63 -1.246,3.879 -0.034,0.089 -0.151,0.381 -0.151,0.381 C 74.174,81.174 69.566,87.104 63.951,90.768 59.706,93.536 54.906,95 50.07,95 45.211,95 40.392,93.523 36.132,90.729 30.551,87.069 25.967,81.16 23.222,74.091 L 23.179,73.983 C 23.146,73.902 23.114,73.822 23.083,73.74 22.607,72.48 22.185,71.171 21.824,69.836 18.921,69.358 17.237,66.316 16.6,63.507 15.968,62.389 14.653,59.636 14.955,56.51 c 0.366,-3.796 1.867,-5.663 3.605,-6.516 -0.872,-2.549 -1.636,-5.528 -1.884,-7.4 -0.4,-3.021 0.926,-17.2 4.987,-22.981 4.061,-5.781 5.303,-7.964 10.583,-11.993 5.278,-4.027 16.652,-2.853 20.261,-0.22 0.956,0.698 1.458,1.687 1.678,2.788 1.53,-1.069 2.77,-2.598 6.195,-2.739 3.946,-0.163 16.397,5.382 19.379,12.668 2.983,7.286 4.709,20.503 2.891,26.405 -0.356,1.156 -0.795,2.32 -1.269,3.444 1.763,0.839 3.295,2.706 3.665,6.545 0.302,3.125 -1.013,5.879 -1.645,6.997 z M 80.244,52.467 c -1.189,2.449 -2.382,4.475 -2.977,5.446 0.262,-3.955 0.318,-6.324 0.468,-7.157 0.267,-1.485 -2.169,-4.992 -3.15,-7.669 -0.98,-2.678 1.504,-7.044 -0.699,-7.913 -2.203,-0.869 -3.836,-1.894 -5.651,-6.491 -1.815,-4.598 -6.328,-7.84 -11.487,-6.056 -5.158,1.785 -7.776,1.644 -8.897,1.583 -3.962,-0.213 -5.498,-2.358 -12.132,-1.028 -1.477,0.296 -2.828,0.842 -4.04,1.547 -1.343,1.118 -2.477,2.422 -2.868,3.727 -0.93,3.112 0.183,5.514 0.183,5.514 0,0 -1.48,-1.586 -2.235,-3.764 -0.563,2.992 0.982,7.414 0.982,7.414 0,0 -1.814,-1.932 -2.926,-4.382 -0.092,0.344 -0.157,0.67 -0.19,0.971 -0.368,3.354 -1.487,17.17 -0.94,20.95 0.089,0.616 0.237,1.362 0.42,2.186 -0.961,-0.544 -2.903,-1.793 -3.913,-3.5 -0.206,-0.349 -0.421,-0.786 -0.638,-1.274 -1.152,0.698 -1.679,2.137 -1.878,4.201 -0.29,2.999 1.507,5.727 1.507,5.727 0,0 0.859,4.665 3.443,4.665 0.477,0 0.899,-0.073 1.272,-0.205 0.139,0.553 0.278,1.106 0.429,1.648 0.367,1.431 0.805,2.821 1.312,4.162 0.042,0.112 0.088,0.22 0.132,0.33 2.555,6.579 6.725,11.972 11.861,15.341 3.724,2.443 7.954,3.822 12.437,3.822 4.464,0 8.675,-1.368 12.386,-3.789 5.166,-3.37 9.359,-8.786 11.921,-15.397 0.046,-0.119 0.095,-0.234 0.14,-0.354 0.497,-1.321 0.927,-2.689 1.289,-4.095 0.15,-0.536 0.287,-1.084 0.426,-1.631 0.341,0.105 0.718,0.167 1.141,0.167 2.584,0 3.443,-4.665 3.443,-4.665 0,0 1.797,-2.729 1.507,-5.727 -0.21,-2.176 -0.788,-3.655 -2.078,-4.304 z m -20.07,25.304 c 0.576,-0.277 0.819,-0.969 0.542,-1.546 -0.277,-0.576 -0.969,-0.819 -1.546,-0.542 -3.5,1.682 -7.398,2.328 -11.276,1.868 -2.474,-0.294 -4.841,-1.021 -7.033,-2.161 -0.569,-0.296 -1.267,-0.074 -1.562,0.493 -0.295,0.567 -0.074,1.267 0.493,1.561 2.441,1.269 5.075,2.079 7.828,2.405 0.904,0.107 1.808,0.161 2.71,0.161 3.404,10e-4 6.763,-0.758 9.844,-2.239 z M 37.916,50.19 c -1.619,0 -2.931,1.312 -2.931,2.93 0,1.619 1.312,2.931 2.931,2.931 1.618,0 2.931,-1.312 2.931,-2.931 0,-1.619 -1.313,-2.93 -2.931,-2.93 z m 24.237,0 c -1.619,0 -2.931,1.312 -2.931,2.93 0,1.619 1.312,2.931 2.931,2.931 1.619,0 2.93,-1.312 2.93,-2.931 0,-1.619 -1.311,-2.93 -2.93,-2.93 z M 28.19,50.043 c 0.677,-3.032 4.254,-5.385 8.503,-5.595 2.436,-0.12 4.745,0.465 6.508,1.645 0.425,0.285 1.001,0.171 1.286,-0.255 0.284,-0.425 0.171,-1.001 -0.255,-1.286 -2.092,-1.4 -4.803,-2.096 -7.631,-1.956 -5.067,0.25 -9.366,3.212 -10.221,7.043 -0.112,0.5 0.203,0.995 0.703,1.107 0.068,0.015 0.136,0.023 0.203,0.023 0.425,-10e-4 0.807,-0.294 0.904,-0.726 z m 44.771,1.186 c 0.493,-0.136 0.784,-0.646 0.648,-1.14 -1.042,-3.784 -5.481,-6.531 -10.555,-6.531 -2.832,0 -5.505,0.827 -7.526,2.329 -0.411,0.305 -0.496,0.886 -0.191,1.297 0.306,0.411 0.886,0.496 1.297,0.191 1.703,-1.266 3.983,-1.963 6.42,-1.963 4.255,0 7.942,2.174 8.767,5.169 0.113,0.411 0.486,0.681 0.893,0.681 0.082,0 0.164,-0.011 0.247,-0.033 z M 54.697,66.164 c 0.875,-1.643 0.753,-3.741 -0.304,-5.22 -0.31,-0.434 -0.912,-0.534 -1.346,-0.224 -0.434,0.31 -0.534,0.913 -0.224,1.346 0.516,0.723 0.79,2.029 0.171,3.191 -0.444,0.833 -2.312,2.949 -5.029,1.9 -1.114,-0.696 -1.554,-1.021 -1.557,-1.024 -0.427,-0.32 -1.031,-0.234 -1.351,0.192 -0.32,0.426 -0.234,1.031 0.192,1.351 0.02,0.015 0.513,0.383 1.77,1.165 0.047,0.029 0.096,0.054 0.147,0.075 0.793,0.322 1.552,0.459 2.264,0.459 2.55,0 4.498,-1.768 5.267,-3.211 z"
       inkscape:connector-curvature="0"
       style="fill:#454545;fill-opacity:1" />
  </g>
  <g
     id="g3201"
     transform="matrix(0.71664324,0,0,0.71664324,722.89442,257.04509)">
    <g
       style="fill:#2179c5;fill-opacity:1"
       transform="matrix(67.668744,0,0,67.668744,1739.1562,95.11802)"
       id="g3270">
      <g
         style="fill:#2179c5;fill-opacity:1"
         id="g3254">
        <path
           style="fill:#2179c5;fill-opacity:1"
           inkscape:connector-curvature="0"
           d="m 14.5,16 c 1.379,0 2.5,-1.122 2.5,-2.5 l 0,-9 C 17,3.122 15.879,2 14.5,2 L 2.5,2 C 1.121,2 0,3.122 0,4.5 l 0,9 C 0,14.878 1.121,16 2.5,16 l 1.5,0 0,2.5 c 0,0.189 0.107,0.362 0.276,0.447 C 4.347,18.982 4.424,19 4.5,19 4.606,19 4.712,18.966 4.8,18.9 L 8.667,16 14.5,16 Z M 8.2,15.1 5,17.5 5,15.5 C 5,15.224 4.776,15 4.5,15 l -2,0 C 1.673,15 1,14.327 1,13.5 l 0,-9 C 1,3.673 1.673,3 2.5,3 l 12,0 C 15.327,3 16,3.673 16,4.5 l 0,9 c 0,0.827 -0.673,1.5 -1.5,1.5 l -6,0 c -0.109,0 -0.214,0.035 -0.3,0.1 z"
           id="path3256" />
        <path
           style="fill:#2179c5;fill-opacity:1"
           inkscape:connector-curvature="0"
           d="m 21.5,4.999 -3,0 c -0.276,0 -0.5,0.224 -0.5,0.5 0,0.276 0.224,0.5 0.5,0.5 l 3,0 c 0.827,0 1.5,0.673 1.5,1.5 l 0,9 c 0,0.827 -0.673,1.5 -1.5,1.5 l -2,0 c -0.276,0 -0.5,0.224 -0.5,0.5 l 0,2 -3.2,-2.4 c -0.086,-0.065 -0.192,-0.1 -0.3,-0.1 l -6,0 C 9.19,17.999 8.889,17.901 8.629,17.715 8.407,17.554 8.093,17.605 7.932,17.83 7.771,18.055 7.822,18.367 8.047,18.528 8.477,18.837 8.979,19 9.5,19 l 5.833,0 3.867,2.9 c 0.088,0.066 0.194,0.1 0.3,0.1 0.076,0 0.153,-0.018 0.224,-0.054 C 19.893,21.861 20,21.688 20,21.499 l 0,-2.5 1.5,0 c 1.379,0 2.5,-1.122 2.5,-2.5 l 0,-9 c 0,-1.378 -1.121,-2.5 -2.5,-2.5 z"
           id="path3258" />
      </g>
    </g>
    <text
       sodipodi:linespacing="125%"
       id="text3277"
       y="891.61896"
       x="2314.4065"
       style="font-style:normal;font-weight:normal;font-size:131.56494141px;line-height:125%;font-family:sans-serif;letter-spacing:0px;word-spacing:0px;fill:#454545;fill-opacity:1;stroke:none;stroke-width:1px;stroke-linecap:butt;stroke-linejoin:miter;stroke-opacity:1"
       xml:space="preserve"><tspan
         style="font-style:normal;font-variant:normal;font-weight:500;font-stretch:normal;font-size:592.04229736px;font-family:'Futura PT';-inkscape-font-specification:'Futura PT Medium';text-align:center;text-anchor:middle;fill:#454545;fill-opacity:1"
         y="891.61896"
         x="2314.4065"
         id="tspan3279"
         sodipodi:role="line">??</tspan></text>
  </g>
</svg>
