<?xml version="1.0" encoding="UTF-8" standalone="no"?>
<!-- Created with Inkscape (http://www.inkscape.org/) -->

<svg
   xmlns:dc="http://purl.org/dc/elements/1.1/"
   xmlns:cc="http://creativecommons.org/ns#"
   xmlns:rdf="http://www.w3.org/1999/02/22-rdf-syntax-ns#"
   xmlns:svg="http://www.w3.org/2000/svg"
   xmlns="http://www.w3.org/2000/svg"
   xmlns:sodipodi="http://sodipodi.sourceforge.net/DTD/sodipodi-0.dtd"
   xmlns:inkscape="http://www.inkscape.org/namespaces/inkscape"
   height="1080mm"
   width="1440mm"
   viewBox="0 0 5102.3623 3826.7716"
   id="svg2"
   version="1.1"
   inkscape:version="0.91 r13725"
   sodipodi:docname="collaboration.svg">
  <defs
     id="defs8" />
  <sodipodi:namedview
     pagecolor="#ffffff"
     bordercolor="#666666"
     borderopacity="1"
     objecttolerance="10"
     gridtolerance="10"
     guidetolerance="10"
     inkscape:pageopacity="0"
     inkscape:pageshadow="2"
     inkscape:window-width="2560"
     inkscape:window-height="1406"
     id="namedview6"
     showgrid="false"
     inkscape:zoom="0.22425739"
     inkscape:cx="2335.9542"
     inkscape:cy="1339.3085"
     inkscape:window-x="0"
     inkscape:window-y="0"
     inkscape:window-maximized="1"
     inkscape:current-layer="svg2" />
  <metadata
     id="metadata4">
    <rdf:RDF>
      <cc:Work
         rdf:about="">
        <dc:format>image/svg+xml</dc:format>
        <dc:type
           rdf:resource="http://purl.org/dc/dcmitype/StillImage" />
        <dc:title></dc:title>
      </cc:Work>
    </rdf:RDF>
  </metadata>
  <g
     id="g3478"
     transform="matrix(2.841925,0,0,2.843128,497.91349,-7011.8787)"
     style="fill:#454545;fill-opacity:1">
    <path
       style="opacity:1;fill:#454545;fill-opacity:1;stroke:none;stroke-width:15;stroke-linecap:round;stroke-linejoin:round;stroke-miterlimit:4;stroke-dasharray:none;stroke-dashoffset:0;stroke-opacity:1"
       d="m 1331.3301,2927.3027 c -66.2861,8e-4 -133.5442,33.1205 -168.377,90.5332 -18.9903,30.6543 -26.7606,67.253 -25.1747,103.0564 -0.7144,47.7246 -9.8743,95.1906 -26.7452,139.9475 -2.7453,8.7973 -7.7764,19.2546 -3.0547,28.1211 8.6323,10.1822 23.4012,10.2139 35.5489,12.3994 10.8329,0.9461 22.2536,3.0029 32.8593,0.6709 3.5887,-8.0989 0.399,-17.2905 1.5254,-25.8261 0.087,-49.8004 -0.1745,-99.9061 0.1309,-149.5156 41.6136,-5.848 80.4693,-25.7845 111.2747,-54.0992 18.9562,-16.4181 37.2677,-38.0675 63.6816,-41.1749 17.2281,-1.9274 34.0204,6.8478 44.4562,20.2715 19.2986,22.0219 35.0303,48.8878 61.7312,63.1044 9.5622,5.3923 19.9486,9.2846 30.6531,11.6911 0.1959,57.8782 -0.3917,115.8739 0.2937,173.6786 4.0853,5.9487 12.2249,1.738 18.0755,2.5011 17.0742,-1.4469 36.0714,-1.392 50.4531,-11.9687 7.094,-9.0344 0.3734,-21.038 -2.2022,-30.4638 -11.8574,-33.5326 -21.4954,-68.2181 -24.3401,-103.7372 -2.7391,-24.1974 -1.3206,-48.7617 -3.842,-73.0185 -7.5887,-57.2776 -46.4299,-108.1469 -97.8852,-133.5794 -30.5019,-15.5253 -64.8903,-23.0378 -99.0625,-22.5918 z"
       id="path3439"
       inkscape:connector-curvature="0" />
    <path
       inkscape:connector-curvature="0"
       id="path5115"
       d="m 1397.8605,3155.2375 a 15.996362,15.996362 0 0 1 -15.9964,15.9964 15.996362,15.996362 0 0 1 -15.9964,-15.9964 15.996362,15.996362 0 0 1 15.9964,-15.9964 15.996362,15.996362 0 0 1 15.9964,15.9964 z"
       style="fill:#454545;fill-opacity:1;stroke:#000000;stroke-width:0.35179973" />
    <path
       inkscape:connector-curvature="0"
       id="path4516"
       d="m 1301.8823,3155.2375 a 15.996362,15.996362 0 0 1 -15.9964,15.9964 15.996362,15.996362 0 0 1 -15.9963,-15.9964 15.996362,15.996362 0 0 1 15.9963,-15.9964 15.996362,15.996362 0 0 1 15.9964,15.9964 z"
       style="fill:#454545;fill-opacity:1;stroke:#000000;stroke-width:0.35179973" />
    <path
       style="fill:#454545;fill-opacity:1;stroke:none;stroke-width:0.35179973"
       id="path4518"
       d="m 1565.5039,3249.1595 c -9.4285,-27.0534 -23.6762,-67.9377 -23.6762,-141.9111 10e-4,-52.2596 -21.5927,-100.8335 -60.8026,-136.7745 -38.8212,-35.5847 -91.0789,-55.1818 -147.1491,-55.1818 -116.6083,0 -207.9527,84.3167 -207.9527,191.9563 0,73.9734 -14.2478,114.8577 -23.6753,141.9111 -4.8885,14.0271 -8.421,24.1615 -8.3165,34.2149 0.33,31.8257 60.2812,31.8257 79.9809,31.8267 4.1172,0 8.0323,-1.6451 11.0043,-4.4804 14.1345,12.5919 32.5619,20.4768 52.9801,20.4768 l 0,31.9927 191.9564,0 0,-31.9927 c 20.4201,0 38.8505,-7.8859 52.985,-20.4797 -0.093,-0.09 -0.2247,-0.12 -0.3163,-0.2118 3.0003,3.0032 7.0716,4.6952 11.3167,4.6952 19.7006,-10e-4 79.6509,-10e-4 79.9808,-31.8268 0.1041,-10.0534 -3.4269,-20.1878 -8.3155,-34.2149 z m -151.6471,98.0343 -159.9636,0 0,-15.9963 159.9636,0 0,15.9963 z m -175.96,-31.9927 c -19.2007,0 -36.2505,-8.6767 -47.9881,-22.1121 l 0,-156.358 c 59.3283,-11.8791 92.4438,-41.764 117.0876,-64.0011 20.8557,-18.8199 33.5022,-29.4669 50.8742,-29.4669 17.9578,0 27.4078,11.1927 43.9139,32.641 16.6065,21.5791 36.889,47.9354 76.0588,59.8106 0,34.8212 0,132.1282 -9e-4,157.3734 -11.7376,13.4364 -28.7884,22.1131 -47.9891,22.1131 l -191.9564,0 z m 255.9418,-15.9963 10e-4,-175.96 c -79.9818,-15.9964 -79.9818,-95.9782 -135.9691,-95.9782 -55.9873,0 -71.9836,79.9818 -183.9581,95.9782 l 0,175.96 c 0,0 -63.8195,0 -63.9855,-15.9964 -0.2381,-23.0358 31.9927,-63.9855 31.9927,-175.96 0,-98.6729 84.3246,-175.96 191.9564,-175.96 107.6318,0 191.9563,77.2871 191.9553,175.96 0,111.9746 32.232,152.9242 31.9927,175.96 -0.1659,15.9954 -63.9854,15.9964 -63.9854,15.9964 z"
       inkscape:connector-curvature="0" />
    <path
       style="fill:none;fill-opacity:1;fill-rule:evenodd;stroke:#454545;stroke-width:17.5899868;stroke-linecap:round;stroke-linejoin:round;stroke-miterlimit:4;stroke-dasharray:none;stroke-opacity:1"
       d="m 1269.5061,3235.0123 c 0,0 30.1091,23.2139 64.3026,23.2139 34.1934,0 64.3025,-23.2139 64.3025,-23.2139"
       id="path4188-6"
       inkscape:connector-curvature="0"
       sodipodi:nodetypes="czc" />
  </g>
  <path
     style="opacity:1;fill:#ffffff;fill-opacity:1;stroke:#0082ff;stroke-width:50;stroke-linecap:round;stroke-linejoin:round;stroke-miterlimit:4;stroke-dasharray:none;stroke-dashoffset:0;stroke-opacity:1"
     d="m 3551.3679,915.62811 c 2.1307,60.02094 -39.1976,108.20959 -64.2866,156.63479 -30.6789,30.9356 -55.5754,78.7532 -111.7499,110.5692 -46.8561,32.722 -90.6245,42.4222 -137.4176,56.5513 -13.0556,6.3842 -27.9435,196.7943 -27.3526,188.412 -7.9074,2.673 -101.9081,-123.7958 -131.7142,-125.0005 -39.5538,16.7966 -83.1635,10.5169 -135.27,22.4751 -43.7294,12.9519 -75.2674,-5.5963 -129.507,-0.6654 -61.9092,8.3364 -127.6429,-3.6713 -186.4633,-20.1058 -64.1413,-0.3616 -132.7964,-23.8904 -180.1064,-39.4384 -55.2656,-23.3686 -134.2285,-44.9145 -175.9173,-69.7563 -50.7949,-30.7471 -99.365,-57.9689 -143.2062,-98.9328 -36.2546,-46.0035 -61.4637,-131.5795 -61.5801,-182.9172 -8.2758,-60.78657 16.7738,-111.23212 66.2591,-167.46629 33.952,-33.96961 82.8728,-84.41476 136.6376,-110.60428 55.6941,-33.32387 105.0591,-43.40695 169.0017,-70.66517 60.287,-23.82443 117.086,-18.75907 188.3538,-25.31298 55.8588,-16.06097 115.9193,-7.15664 173.3125,-13.41475 55.6109,3.9729 117.3889,9.42287 182.0398,11.95041 55.0126,7.14211 133.2729,2.85625 182.0456,24.68341 65.4704,11.19141 136.0438,42.60657 177.8511,73.35171 55.4578,25.16554 91.1614,88.44781 129.2585,122.64143 38.4228,43.93479 59.3911,108.34894 67.7199,168.53446 -5.1811,6.58537 0.1834,5.12288 8.2151,2.85294"
     id="path4195"
     inkscape:connector-curvature="0"
     sodipodi:nodetypes="sscsssss" />
  <path
     style="opacity:1;fill:#ffffff;fill-opacity:1;stroke:none;stroke-width:50;stroke-linecap:round;stroke-linejoin:round;stroke-miterlimit:4;stroke-dasharray:none;stroke-dashoffset:0;stroke-opacity:1"
     d="m 2432.3164,276.37402 c -100.7852,8.03966 -201.7255,14.01374 -302.5608,21.3894 -33.8968,3.04388 -67.5824,9.74145 -99.7045,21.52402 -60.5294,13.21032 -119.4341,35.53613 -172.4919,68.97999 -28.696,18.55958 -59.3893,34.65814 -83.7443,59.56804 -33.9435,33.42541 -61.0142,73.48679 -93.9138,107.8951 -35.4718,40.04846 -55.8691,91.9609 -69.3955,143.9982 -3.6743,12.89791 -5.7721,27.74415 -9.23,39.75357 -10.313,-2.72367 -19.5444,8.7043 -17.2594,19.0439 0.069,53.05211 25.7377,100.94651 51.5737,144.87566 12.2751,22.73299 24.2567,45.92898 41.4961,65.0915 30.8584,38.4814 60.4241,79.6729 101.4783,107.0883 36.9397,25.9454 77.1024,47.0783 119.8393,60.3644 15.8174,4.8131 31.6691,9.5207 47.326,14.8912 9.9246,32.1501 10.9607,66.2592 16.0702,99.427 4.5553,39.8675 6.2333,80.192 12.6571,119.7847 6.8689,10.9005 23.0926,6.4053 29.1788,-3.1484 43.3433,-45.4119 78.2695,-100.6786 129.1082,-137.4322 9.3689,-0.9361 17.1666,6.6306 26.5173,6.862 47.6641,11.0572 97.5373,7.7932 144.5254,22.1573 47.7704,7.5135 95.3055,-12.2757 142.8647,-3.216 69.2111,7.9847 138.466,-7.4474 205.2764,-24.226 20.7777,-2.8031 41.9495,-3.0456 62.6262,-7.3369 86.0855,-14.5955 166.227,-52.1246 248.3093,-81.122 46.4151,-17.037 92.1974,-37.1391 133.201,-65.8911 48.329,-30.8113 98.0706,-61.6777 136.7508,-105.56167 27.205,-38.48659 43.4894,-84.08862 55.8609,-129.78104 11.4272,-46.6633 17.6166,-95.3406 13.5967,-143.47718 -8.5685,-65.02076 -46.3756,-120.98043 -89.2036,-166.95545 -35.2093,-37.65041 -72.4555,-73.78018 -114.3887,-103.15787 -59.6149,-41.12205 -127.1472,-66.95272 -194.2041,-91.35678 -33.3463,-13.59054 -66.5978,-28.89028 -102.448,-33.59501 -51.0414,-8.52729 -103.1358,-6.01958 -154.1582,-13.56547 -66.048,-16.56135 -134.5857,-8.45538 -201.582,-14.04325 -4.6572,0.39069 -9.3143,0.78136 -13.9716,1.17204 z"
     id="path4197"
     inkscape:connector-curvature="0" />
  <path
     sodipodi:nodetypes="sscsssss"
     inkscape:connector-curvature="0"
     id="path6165"
     d="m 1725.3888,755.62811 c -2.1307,60.02094 39.1976,108.20959 64.2866,156.63479 30.6789,30.9356 55.5754,78.7532 111.7499,110.5692 46.8561,32.722 90.6245,42.4222 137.4176,56.5513 13.0556,6.3842 27.9435,196.7943 27.3526,188.412 7.9074,2.673 101.9081,-123.7958 131.7142,-125.0005 39.5538,16.7966 83.1635,10.5169 135.27,22.4751 43.7294,12.9519 75.2674,-5.5963 129.507,-0.6654 61.9092,8.3364 127.6429,-3.6713 186.4633,-20.1058 64.1413,-0.3616 132.7964,-23.8904 180.1064,-39.4384 55.2656,-23.3686 134.2285,-44.9145 175.9173,-69.7563 50.7949,-30.7471 99.365,-57.9689 143.2062,-98.9328 36.2546,-46.0035 61.4637,-131.5795 61.5801,-182.9172 8.2758,-60.78657 -16.7738,-111.23212 -66.2591,-167.46629 -33.952,-33.96961 -82.8728,-84.41476 -136.6376,-110.60428 -55.6941,-33.32387 -105.0591,-43.40695 -169.0017,-70.66517 -60.287,-23.82443 -117.086,-18.75907 -188.3538,-25.31298 -55.8588,-16.06097 -115.9193,-7.15664 -173.3125,-13.41475 -55.6109,3.9729 -117.3889,9.42287 -182.0398,11.95041 -55.0126,7.14211 -133.2729,2.85625 -182.0456,24.68341 -65.4704,11.19141 -136.0438,42.60657 -177.8511,73.35171 -55.4578,25.16554 -91.1614,88.44781 -129.2585,122.64143 -38.4228,43.93479 -59.3911,108.34894 -67.7199,168.53446 5.1811,6.58537 -0.1834,5.12288 -8.2151,2.85294"
     style="opacity:1;fill:#ffffff;fill-opacity:1;stroke:#0082ff;stroke-width:50;stroke-linecap:round;stroke-linejoin:round;stroke-miterlimit:4;stroke-dasharray:none;stroke-dashoffset:0;stroke-opacity:1" />
  <text
     sodipodi:linespacing="125%"
     id="text3277"
     y="898.49573"
     x="2461.4983"
     style="font-style:normal;font-weight:normal;font-size:94.28512573px;line-height:125%;font-family:sans-serif;letter-spacing:0px;word-spacing:0px;fill:#454545;fill-opacity:1;stroke:none;stroke-width:1px;stroke-linecap:butt;stroke-linejoin:miter;stroke-opacity:1"
     xml:space="preserve"><tspan
       style="font-style:normal;font-variant:normal;font-weight:500;font-stretch:normal;font-size:424.28311157px;font-family:'Futura PT';-inkscape-font-specification:'Futura PT Medium';text-align:center;text-anchor:middle;fill:#454545;fill-opacity:1"
       y="898.49573"
       x="2461.4983"
       id="tspan3279"
       sodipodi:role="line">??</tspan></text>
  <g
     id="g4294"
     transform="translate(-1e-5,-1210.7284)">
    <path
       style="opacity:1;fill:#454545;fill-opacity:1;stroke:none;stroke-width:15;stroke-linecap:round;stroke-linejoin:round;stroke-miterlimit:4;stroke-dasharray:none;stroke-dashoffset:0;stroke-opacity:1"
       d="m 773.40674,2521.5433 c -190.18611,0 -383.5076,96.0767 -481.33351,262.3399 -73.39172,123.7969 -93.23094,284.2125 -33.066,417.251 5.86755,10.169 15.50125,32.3821 29.22409,20.918 25.15879,-23.124 40.2406,-55.3182 55.33426,-85.4715 24.60553,-55.2264 36.62776,-115.4956 39.3096,-175.7298 94.03523,49.0502 204.50469,43.3281 305.71195,24.8191 142.74736,-25.1097 281.42805,-79.8933 427.92657,-77.2836 52.0739,2.6862 103.6387,32.6246 123.6126,81.9065 30.6927,63.8115 27.6276,136.0886 29.9679,204.8662 7.7973,15.7708 26.1908,3.3136 31.8662,-7.513 39.7016,-59.0637 37.0237,-134.4831 33.4093,-202.584 -14.7942,-164.7598 -120.9774,-314.6757 -266.0662,-391.6932 -90.13286,-49.2577 -193.38571,-73.1849 -295.89676,-71.8256 z"
       id="path3455"
       inkscape:connector-curvature="0" />
    <path
       id="path4470-3"
       d="m 1283.3637,3237.8131 c 6.9479,0 13.912,-1.5933 20.3274,-4.8023 16.5589,-8.2832 70.5903,-47.1758 70.5903,-199.856 0,-306.0329 -259.5906,-545.7558 -590.9851,-545.7558 -331.39372,0 -590.98507,239.7229 -590.98507,545.7558 0,131.3619 48.76516,201.352 54.32559,208.8997 7.85798,10.6677 19.97518,17.374 33.18214,18.3706 1.14067,0.085 2.28059,0.1279 3.41631,0.1279 l -0.003,0 0,181.9187 c 0,125.588 101.76768,227.3982 227.30304,227.3982 l 0,90.9593 545.52379,0 0,-90.9593 c 125.5353,0 227.3023,-101.8102 227.3023,-227.3982 0,0 0,-204.6583 0,-204.6583 z m -272.7651,477.536 -454.60392,0 0,-45.4795 454.60392,0 0,45.4795 z m 227.3017,-272.8777 c 0,100.3112 -81.5726,181.9187 -181.8418,181.9187 l -545.52374,0 c -100.26917,0 -181.84242,-81.6075 -181.84242,-181.9187 l 0,-210.6846 c 23.77125,-29.9239 72.36954,-103.5979 86.81189,-221.2386 35.41609,12.8882 79.17245,22.6066 140.49045,22.6066 98.07062,0 197.36887,-24.4165 293.39439,-48.0281 89.78622,-22.0792 174.59473,-42.9313 252.13003,-42.9313 114.6473,0 136.3812,87.9113 136.3812,250.1382 l 0,250.1378 z m 45.4606,-250.1378 c 0,-112.3448 0,-295.618 -181.8418,-295.618 -169.1446,0 -363.68269,90.9594 -545.52442,90.9594 -90.92123,0 -136.38183,-22.7399 -181.84174,-45.4796 0,181.9184 -90.92122,272.8778 -90.92122,272.8778 0,0 -45.45989,-61.713 -45.45989,-181.9184 0,-280.5394 239.64373,-500.2763 545.52447,-500.2763 305.8815,0 545.5245,219.7369 545.5245,500.2763 0,136.4388 -45.4599,159.1788 -45.4599,159.1788 z"
       inkscape:connector-curvature="0"
       style="fill:#454545;fill-opacity:1;stroke:none" />
    <path
       inkscape:connector-curvature="0"
       id="path5132"
       d="m 962.48899,3169.5936 a 45.460396,45.479639 0 0 1 -45.46062,45.4796 45.460396,45.479639 0 0 1 -45.45989,-45.4796 45.460396,45.479639 0 0 1 45.45989,-45.4798 45.460396,45.479639 0 0 1 45.46062,45.4798 z"
       style="fill:#454545;fill-opacity:1;stroke:none" />
    <path
       inkscape:connector-curvature="0"
       id="path4476"
       d="m 689.72674,3169.5936 a 45.460396,45.479639 0 0 1 -45.45988,45.4796 45.460396,45.479639 0 0 1 -45.46063,-45.4796 45.460396,45.479639 0 0 1 45.46063,-45.4798 45.460396,45.479639 0 0 1 45.45988,45.4798 z"
       style="fill:#454545;fill-opacity:1;stroke:none" />
    <path
       style="fill:none;fill-opacity:1;fill-rule:evenodd;stroke:#454545;stroke-width:50.00000381;stroke-linecap:round;stroke-linejoin:round;stroke-miterlimit:4;stroke-dasharray:none;stroke-opacity:1"
       d="m 597.90173,3350.9153 c 0,0 63.42637,102.3526 182.74317,102.3526 119.3168,0 182.74288,-102.3526 182.74288,-102.3526"
       id="path4188"
       inkscape:connector-curvature="0"
       sodipodi:nodetypes="czc" />
  </g>
</svg>
