<?xml version="1.0" encoding="UTF-8" standalone="no"?>
<!-- Created with Inkscape (http://www.inkscape.org/) -->

<svg
   xmlns:dc="http://purl.org/dc/elements/1.1/"
   xmlns:cc="http://creativecommons.org/ns#"
   xmlns:rdf="http://www.w3.org/1999/02/22-rdf-syntax-ns#"
   xmlns:svg="http://www.w3.org/2000/svg"
   xmlns="http://www.w3.org/2000/svg"
   xmlns:sodipodi="http://sodipodi.sourceforge.net/DTD/sodipodi-0.dtd"
   xmlns:inkscape="http://www.inkscape.org/namespaces/inkscape"
   height="1080"
   width="1440"
   viewBox="0 0 1440 1080"
   id="svg2"
   version="1.1"
   inkscape:version="0.91 r13725"
   sodipodi:docname="dangers.svg"
   inkscape:export-filename="/home/hsablonniere/dev/presentation-documentation-as-code/src/images/word-document.png"
   inkscape:export-xdpi="90"
   inkscape:export-ydpi="90">
  <defs
     id="defs8" />
  <sodipodi:namedview
     pagecolor="#ffffff"
     bordercolor="#666666"
     borderopacity="1"
     objecttolerance="10"
     gridtolerance="10"
     guidetolerance="10"
     inkscape:pageopacity="0"
     inkscape:pageshadow="2"
     inkscape:window-width="2560"
     inkscape:window-height="1406"
     id="namedview6"
     showgrid="false"
     inkscape:zoom="0.63429568"
     inkscape:cx="604.34304"
     inkscape:cy="792.58246"
     inkscape:window-x="0"
     inkscape:window-y="0"
     inkscape:window-maximized="1"
     inkscape:current-layer="g3210"
     units="px" />
  <metadata
     id="metadata4">
    <rdf:RDF>
      <cc:Work
         rdf:about="">
        <dc:format>image/svg+xml</dc:format>
        <dc:type
           rdf:resource="http://purl.org/dc/dcmitype/StillImage" />
        <dc:title />
      </cc:Work>
    </rdf:RDF>
  </metadata>
  <g
     id="g3407"
     transform="matrix(9.4485459,1.1464724,-1.1464724,9.4485459,46.102226,254.35417)"
     style="fill:#454545;fill-opacity:1">
    <path
       id="path3395"
       d="m 72.136,10.95 c 0,0.275 -0.013,0.551 -0.038,0.826 -0.158,1.966 -0.888,3.679 -2.188,5.138 -0.067,0.083 -0.141,0.162 -0.226,0.237 -0.058,0.066 -0.116,0.125 -0.175,0.176 -0.025,0.024 -0.041,0.045 -0.05,0.062 -0.2,0.2 -0.403,0.388 -0.612,0.563 -0.834,0.691 -1.738,1.208 -2.714,1.55 -0.933,0.316 -1.934,0.466 -3.001,0.45 -0.958,0.016 -1.862,-0.104 -2.713,-0.363 -0.091,-0.034 -0.184,-0.063 -0.275,-0.087 -0.992,-0.342 -1.912,-0.867 -2.763,-1.575 -0.2,-0.167 -0.396,-0.347 -0.588,-0.538 -0.017,-0.017 -0.033,-0.038 -0.049,-0.062 -0.143,-0.134 -0.276,-0.271 -0.401,-0.413 -0.658,-0.733 -1.172,-1.525 -1.538,-2.376 -0.2,-0.466 -0.354,-0.95 -0.462,-1.451 -0.15,-0.683 -0.222,-1.396 -0.213,-2.138 -0.009,-0.733 0.063,-1.442 0.213,-2.125 0.107,-0.5 0.262,-0.984 0.462,-1.45 0.441,-1.018 1.088,-1.956 1.939,-2.814 0.091,-0.099 0.183,-0.191 0.273,-0.274 1.692,-1.567 3.727,-2.351 6.103,-2.351 2.175,-0.025 4.084,0.646 5.727,2.013 0.134,0.109 0.262,0.221 0.387,0.338 0.092,0.083 0.185,0.175 0.275,0.274 1.785,1.777 2.66,3.907 2.627,6.39 z M 66.521,4.286 C 66.363,4.211 66.201,4.136 66.034,4.061 64.308,3.327 62.575,3.311 60.832,4.011 60.624,4.095 60.42,4.186 60.22,4.286 58.804,5.019 57.774,6.149 57.132,7.675 l -1.101,2.563 c -0.309,0.75 -0.226,1.4 0.25,1.95 0.066,0.059 0.287,0.258 0.662,0.6 0.184,0.176 0.33,0.338 0.438,0.488 0.059,0.067 0.1,0.137 0.126,0.212 0.24,0.359 0.391,0.688 0.449,0.988 0.092,0.601 -0.055,1.354 -0.438,2.263 l 1,0.413 0.45,-1.063 c 0.041,-0.091 0.108,-0.158 0.199,-0.2 0.093,-0.033 0.188,-0.029 0.289,0.014 0.091,0.041 0.157,0.107 0.199,0.199 0.033,0.092 0.033,0.188 0,0.288 l -0.462,1.063 0.799,0.338 0.451,-1.063 c 0.042,-0.092 0.107,-0.163 0.2,-0.213 0.092,-0.033 0.187,-0.029 0.287,0.013 0.092,0.042 0.155,0.108 0.188,0.2 0.033,0.058 0.046,0.121 0.037,0.188 0,0.033 -0.008,0.067 -0.024,0.1 l -0.449,1.063 0.649,0.275 0.463,-1.063 c 0.025,-0.059 0.049,-0.104 0.075,-0.138 0.033,-0.024 0.07,-0.045 0.112,-0.062 0.1,-0.034 0.196,-0.029 0.287,0.012 0.042,0.016 0.079,0.033 0.113,0.05 0.033,0.034 0.062,0.079 0.087,0.138 0.016,0.034 0.029,0.066 0.037,0.1 0.008,0.066 0,0.129 -0.025,0.188 l -0.461,1.063 0.824,0.351 c 0.301,-0.7 0.629,-1.234 0.988,-1.601 0.091,-0.083 0.183,-0.163 0.274,-0.238 0.017,-0.008 0.038,-0.021 0.063,-0.037 0.108,-0.083 0.237,-0.15 0.388,-0.2 0.184,-0.075 0.396,-0.133 0.638,-0.175 0.367,-0.108 0.964,-0.117 1.788,-0.025 0.725,-0.033 1.246,-0.425 1.563,-1.175 l 1.102,-2.576 C 69.804,12.573 69.93,12.178 70.022,11.778 70.331,10.444 70.213,9.106 69.671,7.763 69.445,7.214 69.171,6.708 68.846,6.25 68.248,5.424 67.472,4.77 66.521,4.286 Z m -0.211,6.802 c 0.342,0.141 0.6,0.371 0.775,0.688 0.033,0.066 0.062,0.133 0.087,0.199 0.175,0.416 0.175,0.829 0,1.237 -0.175,0.417 -0.472,0.709 -0.888,0.876 -0.417,0.167 -0.83,0.163 -1.238,-0.013 -0.416,-0.175 -0.703,-0.471 -0.862,-0.888 -0.176,-0.409 -0.171,-0.82 0.013,-1.238 0.016,-0.058 0.042,-0.116 0.075,-0.174 0.183,-0.317 0.45,-0.551 0.8,-0.701 0.408,-0.174 0.821,-0.169 1.238,0.014 z m -0.976,11.904 c -0.024,0.091 -0.041,0.591 -0.05,1.5 -0.025,0.908 0.62,1.696 1.938,2.363 0.117,0.041 0.238,0.079 0.363,0.112 0.399,0.116 0.821,0.221 1.263,0.312 0.976,0.167 2.066,0.258 3.275,0.275 -0.033,0.075 -0.362,0.416 -0.988,1.026 -0.508,0.5 -0.761,0.958 -0.761,1.375 0,0.924 0.324,1.705 0.975,2.338 0.216,0.208 0.47,0.4 0.763,0.576 0.976,0.583 2.304,0.958 3.988,1.125 -0.309,0.267 -0.521,0.455 -0.638,0.563 -0.2,0.167 -0.3,0.35 -0.3,0.549 0,0.367 0.508,0.697 1.525,0.988 0.816,0.233 1.458,0.35 1.925,0.35 0.284,0 0.925,-0.05 1.926,-0.15 0.977,-0.092 1.525,-0.158 1.65,-0.2 l 0.7,0 c -0.15,0.175 -0.287,0.338 -0.412,0.488 -0.584,0.675 -0.909,1.054 -0.976,1.138 -0.483,0.683 -0.729,1.429 -0.737,2.238 -0.008,0.8 0.604,1.655 1.838,2.563 1.242,0.901 2.692,1.739 4.351,2.514 0.009,0.008 0.021,0.016 0.038,0.024 -0.275,0.192 -0.559,0.417 -0.851,0.676 -0.85,0.767 -0.646,1.483 0.613,2.15 0.441,0.309 0.996,0.608 1.662,0.901 0.359,0.15 0.751,0.301 1.176,0.45 1.425,0.509 3.088,1.004 4.989,1.486 -0.675,0.367 -1.222,0.688 -1.639,0.964 -0.774,0.5 -1.162,1.037 -1.162,1.612 0,0.867 0.403,1.876 1.212,3.025 0.816,1.167 1.622,1.872 2.414,2.114 -0.65,0 -1.229,-0.075 -1.738,-0.226 -0.517,-0.158 -0.971,-0.239 -1.363,-0.239 -1.075,0 -1.875,0.118 -2.4,0.351 -0.858,0.393 -1.288,1.14 -1.288,2.239 0,0.434 0.063,0.847 0.188,1.238 0.092,0.258 0.205,0.508 0.338,0.75 0.018,0.025 0.371,0.501 1.063,1.425 -0.534,-0.6 -1.326,-1.216 -2.376,-1.85 -1.367,-0.809 -2.45,-1.213 -3.251,-1.213 -0.625,0 -1.109,0.321 -1.45,0.962 -0.125,0.251 -0.321,0.863 -0.588,1.838 -0.008,-0.375 -0.192,-1.012 -0.551,-1.912 -0.391,-0.959 -0.857,-1.901 -1.399,-2.827 -1.435,-2.458 -2.734,-3.688 -3.901,-3.688 -0.134,0 -0.313,0.074 -0.538,0.225 -0.175,0.124 -0.308,0.246 -0.4,0.363 0.334,-0.458 0.209,-1.367 -0.375,-2.727 -0.608,-1.384 -1.245,-2.075 -1.913,-2.075 -0.1,0 -0.273,0.087 -0.524,0.263 -0.2,0.125 -0.334,0.254 -0.4,0.387 0.3,-1.491 -0.07,-2.967 -1.113,-4.425 -0.292,-0.409 -0.6,-0.763 -0.925,-1.063 -0.991,-0.908 -2.171,-1.362 -3.538,-1.362 -0.067,0 -0.139,0.004 -0.213,0.012 -0.534,0.017 -1.071,0.122 -1.613,0.313 -0.1,0.092 -0.187,0.196 -0.262,0.313 -0.084,0.125 -0.167,0.263 -0.251,0.413 -0.308,0.625 -0.463,1.288 -0.463,1.987 0,0.809 0.385,1.871 1.151,3.188 0.425,0.709 0.975,1.598 1.65,2.664 -0.26,-0.209 -0.659,-0.441 -1.201,-0.7 -0.666,-0.309 -1.184,-0.463 -1.551,-0.463 -0.566,0 -0.934,0.233 -1.1,0.7 -0.083,0.2 -0.125,0.57 -0.125,1.112 0,0.908 0.408,2.109 1.225,3.602 0.834,1.509 1.677,2.555 2.526,3.138 l 0,0.112 c -0.016,-0.008 -0.034,-0.016 -0.05,-0.023 -0.393,-0.233 -0.838,-0.459 -1.339,-0.676 -0.732,-0.316 -1.304,-0.476 -1.712,-0.476 -0.417,0 -0.788,0.159 -1.113,0.476 -0.316,0.292 -0.476,0.604 -0.476,0.938 0,0.634 0.093,1.201 0.275,1.7 0.177,0.501 0.476,1.025 0.901,1.576 l 0,0.112 c -0.018,-0.009 -0.03,-0.013 -0.038,-0.013 -0.659,-0.2 -1.109,-0.337 -1.351,-0.412 -0.733,-0.184 -1.325,-0.275 -1.775,-0.275 -1.066,0 -2.042,0.233 -2.926,0.7 -1.009,0.542 -1.513,1.242 -1.513,2.102 0,1.366 0.799,2.638 2.4,3.813 -1.184,-0.251 -2.722,0.058 -4.613,0.925 -1.409,0.65 -2.326,1.325 -2.752,2.025 l 0,2.376 c 0.208,0.434 0.533,0.804 0.976,1.112 0.642,0.45 1.776,0.896 3.4,1.338 -0.416,-0.075 -1.045,0.192 -1.888,0.801 -0.925,0.675 -1.388,1.341 -1.388,2 0,0.375 0.167,0.791 0.501,1.25 0.35,0.484 0.729,0.771 1.137,0.863 -0.658,0.184 -1.146,0.441 -1.462,0.775 -0.342,0.349 -0.518,0.791 -0.525,1.324 0,0.025 0,0.048 0,0.063 0,0.767 0.325,1.525 0.976,2.275 0.607,0.718 1.216,1.108 1.824,1.175 -0.749,-0.066 -1.434,0.13 -2.05,0.59 -0.658,0.457 -0.988,1.02 -0.988,1.688 0,0.508 0.317,1.046 0.95,1.611 0.525,0.467 1.067,0.81 1.626,1.025 l 0,0.113 c -0.017,-0.008 -0.03,-0.016 -0.038,-0.025 -0.333,-0.149 -0.652,-0.25 -0.962,-0.3 -0.142,-0.017 -0.413,-0.024 -0.813,-0.024 -1.301,0 -2.233,0.416 -2.802,1.249 -0.374,0.566 -0.67,1.556 -0.888,2.964 -0.733,-1.959 -1.484,-3.396 -2.25,-4.313 -1,-1.184 -2.218,-1.774 -3.652,-1.774 -0.616,0 -1.174,0.11 -1.674,0.336 -1.001,0.442 -1.555,0.685 -1.664,0.726 0.009,-0.059 0.092,-0.25 0.25,-0.575 0.142,-0.324 0.212,-0.563 0.212,-0.712 0,-0.658 -0.475,-1.264 -1.425,-1.813 -0.809,-0.476 -1.659,-0.771 -2.551,-0.889 0.242,-0.074 0.559,-0.471 0.951,-1.188 0.383,-0.7 0.575,-1.217 0.575,-1.55 0,-0.242 -0.226,-0.634 -0.675,-1.176 -0.175,-0.2 -0.317,-0.362 -0.425,-0.487 l -0.011,0 c -0.158,-0.175 -0.254,-0.267 -0.288,-0.275 0.066,0 0.138,0.021 0.212,0.063 0.067,0.041 0.15,0.063 0.25,0.063 0.608,0 1.117,-0.509 1.525,-1.526 0.308,-0.767 0.463,-1.408 0.463,-1.926 0,-0.85 -0.258,-1.533 -0.775,-2.05 -1,-0.967 -1.667,-1.696 -2,-2.189 0.675,0.109 1.271,-0.058 1.788,-0.499 0.508,-0.441 0.763,-0.988 0.763,-1.639 0,-0.607 -0.1,-1.112 -0.3,-1.512 -0.184,-0.392 -0.592,-0.942 -1.226,-1.651 0.875,0.134 1.546,-0.084 2.013,-0.65 0.375,-0.45 0.563,-0.996 0.563,-1.637 0,-0.376 -0.163,-0.81 -0.487,-1.302 -0.217,-0.341 -0.417,-0.583 -0.6,-0.725 0.441,0 0.908,-0.417 1.399,-1.251 0.492,-0.825 0.738,-1.525 0.738,-2.1 0,-0.692 -0.233,-1.176 -0.7,-1.45 -0.4,-0.242 -1.046,-0.363 -1.938,-0.363 -1.792,0 -3.242,0.449 -4.351,1.35 -1.2,0.968 -1.834,2.352 -1.901,4.152 -0.174,-0.342 -0.496,-0.639 -0.962,-0.889 -0.342,-0.191 -0.567,-0.287 -0.676,-0.287 -0.958,0 -1.78,0.705 -2.463,2.113 -0.542,1.117 -0.813,2.108 -0.813,2.976 0,0.658 0.092,1.288 0.275,1.889 0.225,0.741 0.563,1.304 1.013,1.688 l 0,0.113 c -0.008,0 -0.016,-0.005 -0.025,-0.014 l -0.012,0 c -0.175,-0.058 -0.509,-0.158 -1,-0.3 -0.667,-0.184 -1.143,-0.275 -1.426,-0.275 -1.025,0 -1.842,0.626 -2.451,1.877 -0.467,0.975 -0.7,1.986 -0.7,3.037 0,0.459 0.004,0.755 0.013,0.888 0.008,0.108 0.021,0.204 0.038,0.288 -0.034,-0.051 -0.079,-0.092 -0.138,-0.125 -0.192,-0.159 -0.483,-0.296 -0.875,-0.413 -0.609,-0.192 -1.246,-0.287 -1.913,-0.287 -0.758,0 -2.096,0.383 -4.014,1.15 -0.933,0.367 -1.692,0.692 -2.276,0.976 -0.017,0.008 -0.029,0.012 -0.037,0.012 l 0,-0.025 c 0.008,-0.009 0.012,-0.017 0.012,-0.024 0.042,-0.125 0.063,-0.487 0.063,-1.087 0,-1.744 -1.508,-3.047 -4.526,-3.915 0.333,0.085 0.746,-0.195 1.237,-0.837 0.476,-0.642 0.713,-1.184 0.713,-1.626 0,-0.642 -0.238,-1.232 -0.713,-1.775 -0.6,-0.566 -1.025,-0.988 -1.275,-1.263 l 0,-0.125 C 8.2,71.188 8.284,71.176 8.367,71.168 9,71.018 9.822,70.592 10.83,69.892 c 1.233,-0.85 1.85,-1.699 1.85,-2.55 0,-0.292 -0.004,-0.467 -0.013,-0.525 -0.05,-0.208 -0.163,-0.341 -0.337,-0.4 0.625,-0.133 1.242,-0.491 1.851,-1.074 0.316,-0.301 0.558,-0.604 0.725,-0.913 0.15,-0.292 0.225,-0.589 0.225,-0.889 0,-0.351 -0.171,-0.771 -0.512,-1.263 -0.492,-0.708 -0.751,-1.084 -0.776,-1.126 0.159,0.15 0.375,0.226 0.65,0.226 0.742,0 1.346,-0.313 1.813,-0.938 0.392,-0.509 0.588,-1.038 0.588,-1.589 0,-0.207 -0.188,-0.653 -0.563,-1.337 -0.358,-0.658 -0.642,-1.088 -0.851,-1.288 -0.075,0 -0.112,-0.041 -0.112,-0.125 0.049,0.017 0.1,0.034 0.149,0.05 0.392,0.125 0.692,0.188 0.9,0.188 1.059,0 1.997,-0.351 2.813,-1.05 0.425,-0.376 0.746,-0.787 0.962,-1.237 0.217,-0.468 0.325,-0.972 0.325,-1.514 0,-0.566 -0.208,-1.446 -0.625,-2.639 -0.417,-1.101 -0.638,-1.684 -0.663,-1.75 l 0,-0.113 c 0.017,0.018 0.033,0.038 0.05,0.063 0.425,0.466 0.954,0.816 1.588,1.05 0.525,0.191 1.088,0.289 1.688,0.289 0.609,0 1.104,-0.089 1.488,-0.264 0.342,-0.158 0.592,-0.396 0.75,-0.713 0.225,-0.467 0.242,-1.117 0.05,-1.951 l 0,-0.112 c 0.017,0.009 0.034,0.017 0.05,0.025 1.101,0.525 1.826,0.788 2.176,0.788 0.75,0 1.396,-0.313 1.938,-0.938 0.383,-0.441 0.7,-1.029 0.95,-1.763 0.275,0.067 0.858,0.292 1.75,0.676 0.125,0.058 0.259,0.107 0.4,0.15 0.175,0.058 0.366,0.109 0.575,0.15 0.375,0.059 0.784,0.087 1.226,0.087 0.792,0 1.363,-0.1 1.713,-0.3 0.458,-0.275 0.579,-0.742 0.363,-1.4 -0.009,-0.008 -0.017,-0.025 -0.025,-0.05 l 0.238,0 c 0.059,0 0.321,0.038 0.788,0.112 0.476,0.083 0.833,0.125 1.076,0.125 1.333,0 2.346,-0.159 3.038,-0.475 0.108,-0.05 0.205,-0.097 0.288,-0.138 0.667,-0.392 1,-0.988 1,-1.788 0,-0.6 -0.392,-1.179 -1.175,-1.738 -0.308,-0.217 -0.662,-0.421 -1.062,-0.613 -0.158,-0.084 -0.321,-0.159 -0.488,-0.225 0.176,0.033 0.347,0.054 0.514,0.063 0.016,0 0.033,0 0.049,0 0.825,0 1.546,-0.275 2.163,-0.826 0.625,-0.549 0.938,-1.212 0.938,-1.988 0,-0.35 -0.275,-0.771 -0.825,-1.263 -0.692,-0.558 -1.188,-0.988 -1.488,-1.288 0.583,0.05 1.142,-0.234 1.675,-0.851 0.509,-0.583 0.763,-1.125 0.763,-1.625 0,-0.734 -0.472,-1.28 -1.414,-1.639 -0.808,-0.316 -1.917,-0.475 -3.325,-0.475 -1.309,0 -2.334,0.092 -3.076,0.275 -0.217,0.042 -1.004,0.3 -2.363,0.775 l -0.125,0 c 0.017,-0.008 0.038,-0.025 0.063,-0.05 l 0.012,0 c 0.334,-0.333 0.755,-0.654 1.263,-0.962 0.359,-0.292 0.538,-0.692 0.538,-1.201 0,-1.001 -1.159,-1.696 -3.476,-2.088 -1.742,-0.291 -3.042,-0.375 -3.901,-0.25 0.033,-0.033 0.337,-0.246 0.913,-0.638 0.567,-0.433 0.85,-0.788 0.85,-1.063 0,-0.567 -1.417,-1.021 -4.251,-1.364 -1.643,-0.191 -2.984,-0.299 -4.026,-0.324 -0.017,0 -0.029,0 -0.037,0 0,-0.009 0.008,-0.017 0.025,-0.025 0,-0.009 0.008,-0.017 0.025,-0.025 0.1,-0.067 0.217,-0.133 0.351,-0.2 0.208,-0.158 0.312,-0.372 0.312,-0.638 0,-0.4 -0.191,-0.796 -0.576,-1.188 -0.391,-0.409 -0.979,-0.813 -1.763,-1.213 -0.225,-0.116 -0.454,-0.229 -0.687,-0.337 -0.726,-0.333 -1.467,-0.604 -2.226,-0.813 0.725,0.008 1.201,-0.038 1.426,-0.138 0.367,-0.15 0.55,-0.559 0.55,-1.226 0,-0.634 -0.571,-1.45 -1.713,-2.451 -0.1,-0.092 -0.2,-0.179 -0.3,-0.263 -0.875,-0.734 -1.85,-1.388 -2.926,-1.963 0.851,0.425 1.563,0.743 2.139,0.951 0.35,0.133 0.683,0.246 1,0.338 0.092,0.016 0.18,0.033 0.263,0.049 0.4,0.084 0.775,0.125 1.126,0.125 1.016,0 1.854,-0.313 2.513,-0.938 0.55,-0.517 0.825,-1.025 0.825,-1.525 0,-0.274 -0.083,-0.608 -0.25,-1 C 21.135,9.621 21.04,9.412 20.923,9.195 20.589,8.57 20.339,8.216 20.173,8.133 l 0,-0.109 c 0.5,0.5 1.105,0.992 1.813,1.475 1.167,0.809 2.142,1.213 2.925,1.213 0.642,0 1.205,-0.35 1.688,-1.051 C 26.99,9.087 27.186,8.6 27.186,8.2 27.186,8.1 27.165,7.967 27.123,7.8 27.115,7.767 27.107,7.734 27.099,7.7 c 0.392,0.591 1.163,1.259 2.313,2 1.608,1.042 3.101,1.501 4.477,1.376 0.008,0.016 0.021,0.029 0.038,0.038 0.183,0.208 0.396,0.417 0.638,0.625 0.766,0.642 1.504,0.962 2.212,0.962 0.333,0 0.601,-0.159 0.8,-0.476 0.175,-0.275 0.263,-0.583 0.263,-0.925 0.333,0.717 1.012,1.447 2.038,2.188 1.117,0.801 2.209,1.146 3.276,1.038 1.059,-0.108 2.005,-0.667 2.837,-1.675 -0.034,-0.017 -0.062,-0.029 -0.086,-0.038 l 0.111,0 c 0.383,1.508 0.992,2.622 1.825,3.338 1.301,1.134 2.547,1.701 3.739,1.701 0.774,-0.234 1.226,-0.472 1.352,-0.713 0.148,0.892 0.8,1.925 1.949,3.102 0.116,0.124 0.955,0.699 2.514,1.725 1.549,1.026 4.159,1.368 7.826,1.026 l 0.113,0 z m 21.23,25.494 0,-0.013 c -0.017,-0.017 -0.033,-0.024 -0.05,-0.024 l 0.05,0.037 z M 66.571,32.231 c -0.016,0.009 -0.037,0.025 -0.063,0.051 -0.273,0.275 -0.413,0.608 -0.413,1 -0.008,0.1 0,0.191 0.026,0.275 -0.093,-0.017 -0.188,-0.025 -0.288,-0.025 -0.383,0.008 -0.713,0.15 -0.988,0.424 -0.283,0.275 -0.424,0.609 -0.424,1.001 0,0.391 0.137,0.725 0.412,1 0.283,0.284 0.617,0.42 1,0.413 0.384,0.008 0.712,-0.125 0.987,-0.4 l 12.366,12.366 c -0.267,0.283 -0.399,0.612 -0.399,0.987 0.008,0.4 0.15,0.739 0.425,1.013 0.274,0.275 0.604,0.41 0.988,0.4 0.399,0.01 0.741,-0.125 1.023,-0.4 0.276,-0.273 0.41,-0.612 0.401,-1.013 0,-0.1 -0.004,-0.19 -0.013,-0.274 0.075,0.017 0.163,0.021 0.263,0.012 0.4,0.009 0.738,-0.123 1.013,-0.398 0.275,-0.275 0.413,-0.609 0.413,-1.001 0,-0.401 -0.138,-0.738 -0.413,-1.014 -0.274,-0.274 -0.612,-0.413 -1.013,-0.413 -0.384,0 -0.709,0.134 -0.976,0.4 L 68.535,34.27 c 0.142,-0.141 0.246,-0.304 0.313,-0.487 0.059,-0.159 0.088,-0.321 0.088,-0.488 0,-0.175 -0.029,-0.342 -0.088,-0.5 -0.066,-0.191 -0.18,-0.367 -0.338,-0.525 -0.275,-0.267 -0.608,-0.4 -1,-0.4 -0.36,-0.001 -0.671,0.119 -0.939,0.361 z m -0.374,-2.675 c -0.268,-0.275 -0.601,-0.413 -1.001,-0.413 -0.384,-0.016 -0.717,0.104 -1,0.362 l -0.4,-0.425 c 0.084,0.116 0.226,0.279 0.425,0.488 L 58.02,23.704 C 58.011,23.696 58.002,23.691 57.995,23.691 57.936,23.642 57.879,23.6 57.82,23.566 57.795,23.549 57.77,23.537 57.745,23.528 57.728,23.511 57.712,23.503 57.695,23.503 57.628,23.478 57.558,23.457 57.482,23.44 l -7.54,-1.95 c 0.017,0 0.033,0 0.05,0 0.109,-0.375 0.067,-0.73 -0.125,-1.063 -0.199,-0.35 -0.487,-0.588 -0.862,-0.714 -0.35,-0.107 -0.701,-0.062 -1.051,0.138 -0.358,0.183 -0.596,0.454 -0.712,0.813 -0.109,0.375 -0.059,0.746 0.15,1.113 0.05,0.075 0.092,0.15 0.126,0.225 -0.068,0.025 -0.147,0.058 -0.239,0.1 -0.359,0.2 -0.592,0.476 -0.7,0.826 -0.117,0.383 -0.075,0.75 0.125,1.1 0.184,0.341 0.458,0.566 0.825,0.675 0.367,0.117 0.726,0.08 1.076,-0.113 0.342,-0.183 0.575,-0.454 0.699,-0.812 l 0.55,0.175 c 0.068,0.025 0.138,0.049 0.213,0.075 l 5.602,1.575 -1.976,8.94 c -1.542,-0.092 -2.539,-0.317 -2.989,-0.674 0.009,-0.134 0.347,-0.521 1.013,-1.163 0.259,-0.251 0.393,-0.551 0.4,-0.901 0.009,-0.358 -0.107,-0.667 -0.35,-0.926 -0.25,-0.257 -0.551,-0.391 -0.9,-0.399 -0.359,-0.008 -0.667,0.113 -0.925,0.363 -2.125,2.026 -2.497,3.626 -1.113,4.801 0.026,0.034 0.058,0.067 0.1,0.1 0.659,0.717 2.093,1.167 4.301,1.351 l -0.374,2.051 c -0.092,-0.009 -0.188,-0.009 -0.287,0 -1.851,0.025 -3.106,-0.146 -3.764,-0.513 -0.008,-0.008 -0.016,-0.008 -0.026,0 0.034,-0.15 0.121,-0.342 0.263,-0.576 0.2,-0.324 0.253,-0.671 0.163,-1.038 -0.084,-0.375 -0.292,-0.663 -0.626,-0.863 -0.324,-0.2 -0.67,-0.254 -1.038,-0.163 -0.374,0.083 -0.662,0.288 -0.862,0.613 -0.4,0.65 -0.621,1.238 -0.663,1.764 -0.025,0.166 -0.025,0.332 0,0.5 0.025,0.841 0.442,1.534 1.251,2.075 0.308,0.234 0.729,0.425 1.262,0.575 l 0.013,0 0.013,0.013 c 0,-0.008 0.003,-0.008 0.012,0 0.934,0.258 2.196,0.383 3.788,0.375 l -0.424,2.301 c -0.109,-0.017 -0.218,-0.021 -0.325,-0.013 -1.167,0.05 -1.976,-0.046 -2.426,-0.288 0,-0.1 0.046,-0.262 0.138,-0.487 0.133,-0.35 0.125,-0.701 -0.025,-1.051 -0.15,-0.358 -0.405,-0.604 -0.764,-0.737 l -0.012,-0.013 -0.012,0 c -0.35,-0.133 -0.697,-0.121 -1.039,0.038 -0.35,0.142 -0.591,0.396 -0.725,0.762 -0.684,1.726 -0.413,2.972 0.813,3.738 0.717,0.601 2.005,0.873 3.863,0.813 l -0.438,2.375 c -0.058,0.351 0.013,0.676 0.213,0.975 0.191,0.292 0.467,0.468 0.825,0.525 0.351,0.067 0.672,0 0.963,-0.2 0.291,-0.2 0.467,-0.476 0.525,-0.824 l 0.412,-2.201 c 1.084,0.601 1.984,0.879 2.7,0.838 1.593,0.092 2.531,-0.83 2.813,-2.763 0.042,-0.358 -0.041,-0.675 -0.249,-0.95 -0.209,-0.292 -0.488,-0.462 -0.839,-0.513 -0.35,-0.05 -0.666,0.029 -0.949,0.238 -0.293,0.208 -0.463,0.492 -0.513,0.85 -0.05,0.3 -0.137,0.488 -0.264,0.562 -0.541,-0.041 -1.278,-0.362 -2.213,-0.962 l 0.464,-2.487 c 1.383,0.833 2.554,1.37 3.513,1.612 0.501,0.125 0.942,0.17 1.325,0.138 1.909,0.033 2.839,-1.121 2.79,-3.464 -0.019,-0.384 -0.164,-0.705 -0.438,-0.963 -0.275,-0.274 -0.604,-0.404 -0.988,-0.387 -0.133,0 -0.262,0.02 -0.387,0.063 -0.218,0.066 -0.41,0.191 -0.576,0.375 -0.275,0.275 -0.404,0.601 -0.388,0.976 0,0.342 -0.037,0.55 -0.112,0.625 -0.809,-0.033 -2.055,-0.571 -3.738,-1.613 -0.159,-0.092 -0.321,-0.154 -0.487,-0.188 l 0.387,-2.162 c 2.134,1.116 3.734,1.608 4.802,1.475 0.149,-0.017 0.292,-0.05 0.425,-0.1 1.001,-0.233 1.608,-0.884 1.826,-1.951 0.158,-0.675 0.069,-1.604 -0.264,-2.788 -0.075,-0.225 -0.188,-0.412 -0.337,-0.563 -0.083,-0.076 -0.18,-0.142 -0.287,-0.2 -0.31,-0.175 -0.634,-0.212 -0.976,-0.112 -0.342,0.091 -0.597,0.295 -0.764,0.612 -0.175,0.31 -0.212,0.634 -0.111,0.976 0.19,0.649 0.262,1.163 0.212,1.538 -0.65,0.042 -1.726,-0.33 -3.226,-1.113 -0.218,-0.116 -0.404,-0.262 -0.563,-0.437 -0.159,-0.183 -0.21,-0.292 -0.15,-0.325 l 1.663,-7.489 4.313,4.364 c -0.184,0.241 -0.274,0.512 -0.274,0.813 0.016,0.408 0.157,0.758 0.424,1.05 0.241,0.258 0.566,0.392 0.976,0.4 0.399,0.008 0.742,-0.117 1.025,-0.375 0.275,-0.275 0.408,-0.617 0.4,-1.025 0,-0.092 0,-0.18 0,-0.263 0.067,0.017 0.158,0.025 0.275,0.025 0.4,0.008 0.729,-0.116 0.986,-0.375 0.293,-0.283 0.438,-0.625 0.438,-1.025 0.013,-0.394 -0.118,-0.727 -0.384,-1.002 z M 60.971,8.812 c 0.417,0.184 0.704,0.48 0.862,0.888 0.166,0.417 0.166,0.834 0,1.25 -0.167,0.367 -0.425,0.642 -0.775,0.826 -0.042,0.016 -0.079,0.033 -0.112,0.049 -0.408,0.167 -0.82,0.163 -1.238,-0.013 -0.024,-0.008 -0.05,-0.021 -0.075,-0.036 -0.366,-0.176 -0.629,-0.455 -0.787,-0.838 -0.184,-0.425 -0.184,-0.842 0,-1.25 0.175,-0.417 0.472,-0.709 0.888,-0.876 0.414,-0.166 0.829,-0.166 1.237,0 z M 43.965,19.065 c -0.333,0.175 -0.554,0.451 -0.663,0.826 L 26.423,15.365 c 0.091,-0.375 0.042,-0.726 -0.151,-1.051 -0.2,-0.341 -0.491,-0.563 -0.875,-0.663 -0.367,-0.1 -0.717,-0.05 -1.051,0.15 -0.342,0.192 -0.575,0.475 -0.7,0.851 -0.092,0.375 -0.03,0.733 0.187,1.075 0.042,0.093 0.087,0.172 0.138,0.238 -0.083,0.026 -0.163,0.063 -0.238,0.112 -0.35,0.2 -0.575,0.488 -0.675,0.863 -0.108,0.375 -0.059,0.734 0.15,1.076 0.191,0.341 0.475,0.563 0.85,0.663 0.375,0.1 0.734,0.049 1.076,-0.151 0.333,-0.191 0.554,-0.471 0.663,-0.837 l 16.892,4.539 c -0.091,0.366 -0.041,0.716 0.15,1.05 0.193,0.342 0.48,0.563 0.863,0.663 0.375,0.091 0.725,0.041 1.051,-0.15 0.35,-0.192 0.579,-0.479 0.688,-0.862 0.091,-0.367 0.042,-0.717 -0.151,-1.051 -0.041,-0.108 -0.099,-0.188 -0.174,-0.238 0.099,-0.033 0.188,-0.075 0.263,-0.125 0.333,-0.2 0.55,-0.492 0.649,-0.875 0.117,-0.375 0.075,-0.729 -0.124,-1.063 -0.201,-0.342 -0.484,-0.563 -0.851,-0.663 -0.391,-0.101 -0.755,-0.051 -1.088,0.149 z m 18.543,-6.652 c 0.025,0 0.034,0.021 0.025,0.063 l 0.038,3.126 c -0.025,0.041 -0.059,0.054 -0.101,0.038 l -2.276,-0.963 c -0.024,-0.016 -0.042,-0.038 -0.05,-0.062 -0.008,-0.025 0.004,-0.046 0.038,-0.063 l 2.225,-2.139 c 0.033,-0.016 0.068,-0.016 0.101,0 z M 45.379,48.336 c -0.635,0.441 -1.014,1.041 -1.138,1.8 -0.134,0.751 0.024,1.438 0.474,2.063 2.86,4.043 6.394,5.484 10.604,4.326 0.275,-0.074 0.559,-0.166 0.851,-0.273 0.725,-0.252 1.264,-0.714 1.612,-1.39 0.325,-0.675 0.367,-1.375 0.125,-2.1 -0.241,-0.726 -0.704,-1.264 -1.387,-1.613 -0.684,-0.343 -1.39,-0.388 -2.114,-0.138 -0.884,0.267 -1.703,0.296 -2.462,0.087 -1.01,-0.283 -1.906,-0.986 -2.688,-2.113 -0.458,-0.616 -1.059,-0.987 -1.801,-1.112 -0.759,-0.133 -1.452,0.021 -2.076,0.463 z M 16.433,72.855 c -0.342,-0.168 -0.696,-0.191 -1.063,-0.074 -0.375,0.124 -0.651,0.37 -0.826,0.736 -0.183,0.334 -0.208,0.685 -0.075,1.051 0.125,0.376 0.362,0.65 0.712,0.825 0.342,0.176 0.696,0.204 1.063,0.088 0.1,-0.025 0.188,-0.067 0.262,-0.125 0.017,0.107 0.038,0.204 0.063,0.287 0.125,0.367 0.362,0.634 0.712,0.801 0.358,0.191 0.721,0.224 1.088,0.099 0.375,-0.125 0.65,-0.357 0.825,-0.699 0.175,-0.35 0.2,-0.713 0.075,-1.088 -0.117,-0.358 -0.346,-0.629 -0.688,-0.812 l 7.877,-15.619 c 0.351,0.177 0.705,0.205 1.063,0.089 0.375,-0.142 0.651,-0.384 0.826,-0.726 0.167,-0.35 0.188,-0.708 0.063,-1.075 -0.117,-0.375 -0.351,-0.655 -0.701,-0.837 -0.333,-0.177 -0.692,-0.196 -1.075,-0.063 -0.091,0.033 -0.179,0.066 -0.262,0.101 0,-0.083 -0.021,-0.172 -0.063,-0.263 -0.117,-0.383 -0.35,-0.663 -0.701,-0.838 -0.342,-0.184 -0.7,-0.209 -1.075,-0.076 -0.383,0.126 -0.663,0.359 -0.838,0.701 -0.166,0.351 -0.187,0.714 -0.063,1.088 0.117,0.366 0.342,0.638 0.675,0.813 L 16.433,72.855 Z M 54.594,52.424 c 0.351,-0.166 0.709,-0.179 1.075,-0.037 0.367,0.134 0.638,0.376 0.813,0.727 0.166,0.357 0.184,0.72 0.05,1.088 -0.142,0.366 -0.387,0.628 -0.737,0.786 -0.358,0.175 -0.722,0.197 -1.088,0.063 -0.367,-0.142 -0.634,-0.392 -0.801,-0.75 -0.166,-0.351 -0.184,-0.71 -0.05,-1.076 0.134,-0.366 0.379,-0.633 0.738,-0.801 z m 1.887,5.064 c -0.117,-0.042 -0.237,-0.065 -0.362,-0.075 -0.184,-0.017 -0.363,0.01 -0.538,0.075 -0.066,0.018 -0.126,0.037 -0.176,0.063 -0.341,0.175 -0.578,0.454 -0.711,0.839 -0.126,0.366 -0.108,0.711 0.05,1.037 l -5.539,2.863 c -0.184,-0.343 -0.46,-0.57 -0.826,-0.688 -0.375,-0.134 -0.738,-0.112 -1.088,0.062 -0.35,0.167 -0.584,0.442 -0.7,0.826 -0.125,0.358 -0.1,0.717 0.075,1.074 0.166,0.334 0.433,0.564 0.799,0.689 0.092,0.058 0.184,0.087 0.276,0.087 -0.059,0.083 -0.092,0.171 -0.1,0.262 -0.124,0.358 -0.101,0.717 0.075,1.075 0.166,0.351 0.434,0.597 0.8,0.738 0.375,0.108 0.733,0.079 1.076,-0.088 0.358,-0.175 0.6,-0.45 0.725,-0.824 0.125,-0.351 0.105,-0.705 -0.063,-1.063 l 5.276,-2.676 -0.012,-0.025 0.313,-0.15 c 0.167,0.351 0.434,0.581 0.801,0.688 0.383,0.126 0.75,0.101 1.101,-0.074 0.324,-0.167 0.55,-0.434 0.675,-0.801 0.133,-0.375 0.125,-0.738 -0.025,-1.087 -0.166,-0.351 -0.454,-0.589 -0.862,-0.714 -0.084,-0.025 -0.167,-0.05 -0.25,-0.075 0.042,-0.067 0.079,-0.146 0.112,-0.237 0.126,-0.383 0.104,-0.741 -0.063,-1.075 -0.167,-0.359 -0.446,-0.601 -0.839,-0.726 z m -7.702,-7.189 c 0.168,0.358 0.184,0.721 0.05,1.089 -0.14,0.366 -0.387,0.632 -0.736,0.8 -0.358,0.167 -0.722,0.183 -1.088,0.05 -0.367,-0.134 -0.634,-0.38 -0.8,-0.738 -0.167,-0.35 -0.179,-0.708 -0.038,-1.074 0.133,-0.368 0.38,-0.639 0.737,-0.813 0.351,-0.166 0.708,-0.184 1.076,-0.05 0.366,0.14 0.632,0.386 0.799,0.736 z m -8.577,0.599 c -0.384,0.034 -0.696,0.21 -0.938,0.525 -0.25,0.292 -0.358,0.625 -0.325,1 l -6.214,0.601 c -0.066,-0.333 -0.238,-0.601 -0.512,-0.801 -0.3,-0.258 -0.651,-0.37 -1.051,-0.337 -0.391,0.034 -0.704,0.209 -0.937,0.525 -0.25,0.301 -0.354,0.646 -0.313,1.038 0.042,0.383 0.213,0.695 0.513,0.937 0.083,0.067 0.162,0.122 0.237,0.164 -0.075,0.059 -0.142,0.128 -0.199,0.212 -0.242,0.292 -0.342,0.63 -0.3,1.014 0.024,0.391 0.191,0.717 0.499,0.975 0.3,0.25 0.642,0.354 1.025,0.313 0.4,-0.05 0.721,-0.226 0.963,-0.525 0.242,-0.292 0.347,-0.629 0.313,-1.012 l 6.227,-0.625 c 0.059,0.341 0.221,0.619 0.488,0.837 0.333,0.258 0.688,0.366 1.063,0.325 0.375,-0.034 0.688,-0.204 0.937,-0.513 0.25,-0.309 0.362,-0.658 0.338,-1.05 -0.033,-0.375 -0.212,-0.692 -0.538,-0.951 -0.067,-0.05 -0.137,-0.104 -0.212,-0.163 0.058,-0.041 0.125,-0.104 0.2,-0.187 0.242,-0.317 0.346,-0.663 0.313,-1.038 -0.042,-0.399 -0.212,-0.717 -0.512,-0.95 -0.319,-0.25 -0.673,-0.355 -1.065,-0.314 z m 4.401,15.193 c -0.042,-0.058 -0.104,-0.121 -0.188,-0.188 -0.268,-0.282 -0.596,-0.426 -0.988,-0.426 -0.392,-0.008 -0.729,0.13 -1.014,0.413 -0.274,0.284 -0.407,0.617 -0.399,1 0,0.393 0.138,0.726 0.413,1 0.275,0.275 0.6,0.413 0.975,0.413 l 0.013,17.492 c -0.382,0.01 -0.712,0.15 -0.987,0.426 -0.275,0.276 -0.413,0.608 -0.413,1.001 0,0.392 0.138,0.721 0.413,0.986 0.283,0.275 0.616,0.418 1,0.426 0.392,0 0.72,-0.133 0.988,-0.4 0.092,-0.074 0.15,-0.15 0.175,-0.224 0.067,0.073 0.129,0.145 0.188,0.212 0.292,0.267 0.625,0.404 1,0.412 0.4,0 0.738,-0.137 1.013,-0.412 0.283,-0.283 0.421,-0.617 0.413,-1 0.009,-0.4 -0.133,-0.734 -0.425,-1.001 -0.259,-0.275 -0.578,-0.412 -0.963,-0.412 l 0,-17.48 c 0.385,-0.017 0.708,-0.158 0.976,-0.426 0.283,-0.291 0.421,-0.628 0.413,-1.013 0,-0.266 -0.066,-0.499 -0.2,-0.699 -0.059,-0.101 -0.134,-0.196 -0.226,-0.288 -0.267,-0.282 -0.596,-0.426 -0.988,-0.426 -0.383,-0.008 -0.72,0.134 -1.012,0.426 -0.069,0.076 -0.127,0.138 -0.177,0.188 z"
       inkscape:connector-curvature="0"
       style="clip-rule:evenodd;fill-rule:evenodd;fill:#454545;fill-opacity:1" />
  </g>
  <g
     id="g3427"
     transform="matrix(0.67140612,0,0,0.67140612,-611.73507,-695.12971)">
    <g
       style="fill:#454545;fill-opacity:1"
       transform="matrix(48.494348,0,0,48.494348,1969.249,325.21078)"
       id="g3270" />
  </g>
  <g
     id="g3483"
     transform="matrix(0.56411062,0,0,0.56411062,443.81616,441.50341)">
    <g
       style="fill:#454545;fill-opacity:1"
       transform="matrix(2.6776787,0,0,2.6776787,807.24797,-494.44816)"
       id="g3259">
      <path
         style="fill:#454545;fill-opacity:1"
         inkscape:connector-curvature="0"
         d="M 86.185,5 13.815,5 C 11.783,5 10.13,6.653 10.13,8.685 l 0,82.631 c 0,2.031 1.652,3.685 3.685,3.685 l 72.369,0 c 2.032,0 3.685,-1.653 3.685,-3.685 l 0,-82.631 C 89.869,6.653 88.217,5 86.185,5 Z m -22.499,6.65 5.01,0 1.853,3.23 1.815,-3.23 4.981,0 -4.27,7.259 4.668,7.65 -5.114,0 -2.122,-3.604 -2.13,3.604 -5.086,0 4.657,-7.742 -4.262,-7.167 z m -4.733,-0.334 c 1.629,0 2.854,0.364 3.456,0.704 l 0.48,0.271 -0.909,3.866 -0.815,-0.372 c -0.642,-0.292 -1.341,-0.44 -2.082,-0.44 -2.079,0 -3.271,1.381 -3.271,3.79 0,2.37 1.199,3.729 3.291,3.729 0.78,0 1.634,-0.194 2.074,-0.385 l 0.854,-0.372 0.685,3.854 -0.466,0.253 c -0.602,0.328 -1.857,0.678 -3.576,0.678 -4.444,0 -7.316,-2.974 -7.316,-7.575 -10e-4,-4.785 3.052,-8.001 7.595,-8.001 z m -21.898,4.106 c 0.317,-0.772 0.754,-1.473 1.3,-2.086 0.562,-0.628 1.19,-1.103 1.871,-1.412 0.873,-0.402 1.885,-0.607 3.007,-0.607 2.06,0 3.738,0.715 4.989,2.122 1.228,1.381 1.849,3.294 1.849,5.686 0,2.372 -0.617,4.273 -1.834,5.65 -1.244,1.406 -2.916,2.119 -4.97,2.119 -2.075,0 -3.759,-0.71 -5.001,-2.108 -1.219,-1.371 -1.836,-3.254 -1.836,-5.597 0,-1.475 0.211,-2.742 0.625,-3.767 z m -14.798,-3.698 0.615,-0.108 c 1.101,-0.192 2.613,-0.299 4.101,-0.299 2.539,0 4.291,0.509 5.679,1.648 1.583,1.28 2.422,3.284 2.422,5.791 0,3.295 -1.279,5.166 -2.353,6.154 -1.456,1.317 -3.598,1.983 -6.37,1.983 -1.249,0 -2.47,-0.071 -3.456,-0.213 l -0.638,-0.091 0,-14.865 z m 62.477,78.142 -69.465,0 -0.012,-57.521 69.479,0 -0.002,57.521 z"
         id="path3233" />
      <path
         style="fill:#454545;fill-opacity:1"
         inkscape:connector-curvature="0"
         d="m 27.023,22.962 c 1.104,0 1.96,-0.32 2.544,-0.953 0.639,-0.689 0.962,-1.75 0.962,-3.149 0.008,-1.254 -0.3,-2.2 -0.914,-2.819 -0.549,-0.552 -1.337,-0.832 -2.341,-0.832 -0.219,0 -0.403,0.008 -0.558,0.02 l 0,7.733 c 0.091,0.001 0.18,0.001 0.256,0.001 l 0.051,0 z"
         id="path3235" />
      <path
         style="fill:#454545;fill-opacity:1"
         inkscape:connector-curvature="0"
         d="m 43.259,22.956 c 0.763,0 1.346,-0.28 1.836,-0.881 0.518,-0.632 0.779,-1.647 0.779,-3.016 0,-1.352 -0.253,-2.346 -0.753,-2.956 -0.474,-0.578 -1.065,-0.849 -1.862,-0.849 -0.798,0 -1.394,0.274 -1.876,0.862 -0.508,0.62 -0.766,1.622 -0.766,2.979 0,1.332 0.266,2.331 0.79,2.969 0.5,0.61 1.088,0.892 1.852,0.892 z"
         id="path3237" />
      <rect
         style="fill:#454545;fill-opacity:1"
         x="54.896"
         y="50.249001"
         width="21.349001"
         height="3.5910001"
         id="rect3239" />
      <rect
         style="fill:#454545;fill-opacity:1"
         x="54.896"
         y="59.304001"
         width="21.349001"
         height="3.5910001"
         id="rect3241" />
      <rect
         style="fill:#454545;fill-opacity:1"
         x="23.916"
         y="68.358002"
         width="52.327999"
         height="3.5899999"
         id="rect3243" />
      <rect
         style="fill:#454545;fill-opacity:1"
         x="23.916"
         y="77.412003"
         width="52.327999"
         height="3.5910001"
         id="rect3245" />
      <path
         style="fill:#2179c5;fill-opacity:1"
         inkscape:connector-curvature="0"
         d="m 25.283,44.228 c 0.179,0.454 0.401,1.185 0.666,2.195 l 4.369,16.457 3.631,0 3.938,-13.948 3.38,13.948 3.596,0 4.835,-14.944 c 0.421,-1.283 0.742,-2.214 0.964,-2.789 0.225,-0.578 0.417,-1.018 0.594,-1.319 0.173,-0.302 0.358,-0.541 0.556,-0.714 0.198,-0.174 0.477,-0.325 0.837,-0.454 l 0,-1.45 -6.777,0 0,1.428 c 0.53,0.1 0.934,0.349 1.222,0.746 0.287,0.396 0.431,0.896 0.431,1.503 0,0.402 -0.044,0.873 -0.134,1.405 -0.092,0.535 -0.255,1.189 -0.495,1.968 l -2.354,7.81 -3.49,-14.86 -3.343,0 -4.137,14.859 -2.248,-8.979 c -0.119,-0.488 -0.228,-0.952 -0.323,-1.393 -0.097,-0.441 -0.144,-0.839 -0.144,-1.199 0,-0.535 0.142,-0.95 0.423,-1.246 0.281,-0.296 0.704,-0.499 1.268,-0.615 l 0,-1.427 -8.792,0 0,1.428 c 0.384,0.1 0.688,0.276 0.915,0.529 0.226,0.253 0.433,0.607 0.612,1.061 z"
         id="path3247" />
    </g>
    <g
       id="g3224"
       transform="matrix(15.515812,0,0,15.515812,-137.26902,70.181167)"
       style="fill:#454545;fill-opacity:1">
      <g
         id="g3208"
         style="fill:#454545;fill-opacity:1;fill-rule:evenodd;stroke:none;stroke-width:1"
         transform="matrix(0.22572648,0,0,0.22572648,70.74216,-21.495086)">
        <g
           id="g3210"
           style="fill:#454545;fill-opacity:1"
           transform="translate(44.865853,-70.261618)">
          <path
             id="path5001"
             style="fill:#454545;fill-opacity:1"
             d="m 55,65 c 0,-6.627417 5.372583,-12 12,-12 6.627417,0 12,5.372583 12,12 0,6.627417 -5.372583,12 -12,12 -6.627417,0 -12,-5.372583 -12,-12 l 0,0 0,0 0,0 z m 28,0 c 0,-8.836556 -7.163444,-16 -16,-16 -8.836556,0 -16,7.163444 -16,16 0,8.836556 7.163444,16 16,16 8.836556,0 16,-7.163444 16,-16 l 0,0 0,0 0,0 z M 26,38.787559 40.699224,52.480746 c 0.787472,0.733576 2.131477,0.73456 2.908096,0.01118 0.156468,-0.148164 0.156468,-0.148164 0.860547,-0.814858 0.938785,-0.888922 0.938785,-0.888922 2.26878,-2.148224 2.347082,-2.222303 4.694359,-4.444607 6.890097,-6.523181 1.638692,-1.551252 3.10456,-2.938752 4.376408,-4.142421 C 58.00106,38.825764 58,38.788006 58,38.75 L 58,9.9994088 C 58,8.8908698 57.109138,8 56.005156,8 L 27.994844,8 C 26.890673,8 26,8.8945289 26,10.007488 l 0,28.780071 0,0 0,0 0,0 0,0 z m -4,-3.726234 -1.636752,-1.524731 c -0.808217,-0.7529 -2.073753,-0.708058 -2.826654,0.100158 -0.7529,0.808217 -0.708058,2.073752 0.100158,2.826653 l 12.18089,11.347212 c -0.263991,0.255011 -0.540395,0.521987 -0.8274,0.799171 -1.590416,1.535996 -3.181723,3.071981 -4.668132,4.505494 -3.700685,3.56896 -6.135912,5.909472 -6.685358,6.421312 -0.808216,0.752901 -0.853058,2.018437 -0.100158,2.826654 0.752901,0.808216 2.018437,0.853058 2.826654,0.100157 0.576107,-0.536677 2.997963,-2.864338 6.713818,-6.447928 1.508946,-1.455248 3.100905,-2.991862 4.69195,-4.528465 0.342628,-0.330906 0.670157,-0.647269 0.979508,-0.946108 l 5.224205,4.866653 c 2.322585,2.163624 6.047483,2.166352 8.372996,0 0.168347,-0.159322 0.168347,-0.159322 0.872392,-0.825983 0.938746,-0.888885 0.938746,-0.888885 2.268694,-2.148143 0.63284,-0.599196 1.265694,-1.198392 1.895495,-1.794683 l 0.656418,0.619386 c 0.803381,0.758059 2.069178,0.721317 2.827236,-0.08206 0.758059,-0.803381 0.721318,-2.069178 -0.08206,-2.827236 l -0.492267,-0.464497 0,0 c 0.705368,-0.66778 1.400365,-1.32572 2.080317,-1.969389 5.961232,-5.643143 9.686523,-9.167624 9.991302,-9.451543 0.808216,-0.752901 0.853058,-2.018436 0.100157,-2.826653 -0.752905,-0.80822 -2.01844,-0.853062 -2.826657,-0.100162 C 63.520944,33.644477 62.958545,34.17549 62,35.081842 l 0,-10.520592 5.630461,4.504369 C 68.881242,30.066243 70,32.391978 70,33.994844 L 70,44 c 0,1.104569 0.895431,2 2,2 1.104569,0 2,-0.895431 2,-2 l 0,-10.005156 c 0,-2.818491 -1.671498,-6.293293 -3.870758,-8.0527 L 62.511907,19.848276 C 62.352738,19.720941 62.180082,19.621866 62,19.550379 l 0,0 0,-9.5509702 C 62,6.6817389 59.318285,4 56.005156,4 L 27.994844,4 C 24.677657,4 22,6.6892484 22,10.007488 l 0,9.609111 c -0.233388,0.07192 -0.457435,0.188099 -0.659701,0.349912 L 13.87059,25.942278 C 11.679483,27.695164 10,31.184721 10,33.994844 l 0,30.010312 C 10,67.322238 12.688728,70 16.006556,70 L 46,69.999998 c 1.10457,0 2,-0.89543 2,-2 0,-1.104569 -0.895431,-2 -2,-2 L 16.006555,66 C 14.894216,66 14,65.109431 14,64.005156 l 0,-30.010312 c 0,-1.594194 1.126505,-3.934799 2.36937,-4.92909 L 22,24.56125 l 0,10.500075 0,0 0,0 0,0 0,0 z" />
          <path
             id="path3212"
             style="fill:#2179c5;fill-opacity:1"
             d="M 69,60.497627 C 69,60.218698 69.218324,60 69.5,60 c 0.272134,0 0.5,0.228245 0.5,0.497627 l 0,8.495868 C 70,70.104435 69.104854,71 67.990237,71 l -1.980474,0 C 64.899511,71 64,70.101194 64,68.993495 l 0,-5.986991 c 0,-1.104569 -0.895431,-2 -2,-2 -1.104569,0 -2,0.895431 -2,2 l 0,5.986991 C 60,72.311034 62.691073,75 66.009763,75 l 1.980474,0 C 71.314413,75 74,72.313155 74,68.993495 l 0,-8.495868 C 74,58.020595 71.982764,56 69.5,56 67.007649,56 65,58.011092 65,60.497627 l 0,8.503416 C 65,69.55734 65.45191,70 66.009369,70 l 1.981262,0 C 68.556647,70 69,69.552752 69,69.001043 l 0,-8.503416 0,0 z M 39,16 c 1.104569,0 2,-0.89543 2,-2 0,-1.104569 -0.895431,-2 -2,-2 l -7,0 c -1.10457,0 -2,0.895431 -2,2 0,1.10457 0.89543,2 2,2 l 7,0 0,0 z m 11,8 c 1.104569,0 2,-0.895431 2,-2 0,-1.10457 -0.895431,-2 -2,-2 l -18,0 c -1.10457,0 -2,0.89543 -2,2 0,1.104569 0.89543,2 2,2 l 18,0 0,0 0,0 0,0 z m -6,8 c 1.104569,0 2,-0.895431 2,-2 0,-1.10457 -0.895431,-2 -2,-2 l -12,0 c -1.10457,0 -2,0.89543 -2,2 0,1.104569 0.89543,2 2,2 l 12,0 0,0 0,0 0,0 z m 8,8 c 1.104569,0 2,-0.895431 2,-2 0,-1.104569 -0.895431,-2 -2,-2 l -20,0 c -1.10457,0 -2,0.895431 -2,2 0,1.104569 0.89543,2 2,2 l 20,0 0,0 0,0 0,0 z" />
        </g>
      </g>
    </g>
    <g
       style="stroke:#454545;stroke-opacity:1"
       transform="matrix(15.67574,0,0,15.67574,1643.2106,-336.80351)"
       id="g3474">
      <g
         style="fill:none;fill-opacity:1;stroke:#454545;stroke-width:0.66720462;stroke-miterlimit:4;stroke-dasharray:none;stroke-opacity:1"
         transform="matrix(1.9122422,0,0,1.9122422,-698.9431,-520.0822)"
         id="g3454">
        <g
           style="fill:none;fill-opacity:1;stroke:#454545;stroke-width:0.66720462;stroke-miterlimit:4;stroke-dasharray:none;stroke-opacity:1"
           id="g3456">
          <path
             style="fill:none;fill-opacity:1;stroke:#454545;stroke-width:0.72161704;stroke-miterlimit:4;stroke-dasharray:none;stroke-opacity:1"
             inkscape:connector-curvature="0"
             d="m 360.19156,268.09607 c 0.0915,-0.35117 0.14891,-0.71131 0.14891,-1.08542 0,-2.75547 -2.6253,-4.98818 -5.86266,-4.98818 -0.9005,0 -1.74238,0.18457 -2.50569,0.49483 -1.27689,-1.50842 -3.35227,-2.49009 -5.70202,-2.49009 -3.07789,0 -5.68677,1.68101 -6.64121,4.02346 -0.1325,-0.008 -0.25913,-0.0329 -0.39397,-0.0329 -3.23736,0 -5.86265,2.23271 -5.86265,4.98817 0,0.32124 0.0434,0.6355 0.11256,0.94077 -1.48325,0.90386 -2.45762,2.37537 -2.45762,4.04541 0,2.75746 2.62412,4.99017 5.86265,4.99017 1.3273,0 2.53735,-0.39008 3.51993,-1.02258 1.06935,1.22011 2.76131,2.02021 4.68778,2.02021 0.94858,0 1.83267,-0.2105 2.62412,-0.55169 0.73166,2.04615 2.94071,3.54459 5.58359,3.54459 3.23853,0 5.86266,-2.2327 5.86266,-4.98817 l 0,0 0,0 c 3.23853,0 5.86265,-2.2327 5.86265,-4.99016 0,-2.45518 -2.09062,-4.48537 -4.83903,-4.89839 z"
             id="path3458" />
          <circle
             style="fill:none;fill-opacity:1;stroke:#454545;stroke-width:0.66720462;stroke-miterlimit:4;stroke-dasharray:none;stroke-opacity:1"
             cx="338.4563"
             cy="283.5"
             r="2.5"
             id="circle3460" />
          <circle
             style="fill:none;fill-opacity:1;stroke:#454545;stroke-width:0.66720462;stroke-miterlimit:4;stroke-dasharray:none;stroke-opacity:1"
             cx="331.87405"
             cy="285.64294"
             r="1.5"
             id="circle3462" />
        </g>
      </g>
    </g>
  </g>
</svg>
