<?xml version="1.0" encoding="UTF-8" standalone="no"?>
<!-- Created with Inkscape (http://www.inkscape.org/) -->

<svg
   xmlns:dc="http://purl.org/dc/elements/1.1/"
   xmlns:cc="http://creativecommons.org/ns#"
   xmlns:rdf="http://www.w3.org/1999/02/22-rdf-syntax-ns#"
   xmlns:svg="http://www.w3.org/2000/svg"
   xmlns="http://www.w3.org/2000/svg"
   xmlns:sodipodi="http://sodipodi.sourceforge.net/DTD/sodipodi-0.dtd"
   xmlns:inkscape="http://www.inkscape.org/namespaces/inkscape"
   height="1080"
   width="1440"
   viewBox="0 0 1440 1080"
   id="svg2"
   version="1.1"
   inkscape:version="0.91 r13725"
   sodipodi:docname="dangers-safe.svg"
   inkscape:export-filename="/home/hsablonniere/dev/presentation-documentation-as-code/src/images/word-document.png"
   inkscape:export-xdpi="90"
   inkscape:export-ydpi="90">
  <defs
     id="defs8" />
  <sodipodi:namedview
     pagecolor="#ffffff"
     bordercolor="#666666"
     borderopacity="1"
     objecttolerance="10"
     gridtolerance="10"
     guidetolerance="10"
     inkscape:pageopacity="0"
     inkscape:pageshadow="2"
     inkscape:window-width="2560"
     inkscape:window-height="1406"
     id="namedview6"
     showgrid="false"
     inkscape:zoom="0.63429568"
     inkscape:cx="-45.196303"
     inkscape:cy="406.09516"
     inkscape:window-x="0"
     inkscape:window-y="0"
     inkscape:window-maximized="1"
     inkscape:current-layer="svg2"
     units="px" />
  <metadata
     id="metadata4">
    <rdf:RDF>
      <cc:Work
         rdf:about="">
        <dc:format>image/svg+xml</dc:format>
        <dc:type
           rdf:resource="http://purl.org/dc/dcmitype/StillImage" />
        <dc:title />
      </cc:Work>
    </rdf:RDF>
  </metadata>
  <path
     style="clip-rule:evenodd;fill:#454545;fill-opacity:1;fill-rule:evenodd"
     d="m 715.12866,440.51768 c -0.31528,2.59835 -0.75454,5.19125 -1.30603,7.76093 -3.74684,18.3947 -12.60818,33.74314 -26.56399,46.03815 -0.72821,0.70742 -1.51798,1.36901 -2.40709,1.9802 -0.62368,0.55711 -1.23934,1.04808 -1.85527,1.46231 -0.26373,0.19811 -0.43899,0.37818 -0.54351,0.52849 -2.11901,1.66042 -4.2526,3.20401 -6.42798,4.61789 -8.6723,5.57279 -17.80651,9.42128 -27.42038,11.53372 -9.17778,1.91608 -18.80775,2.18575 -28.871,0.81128 -9.07005,-0.94714 -17.47396,-3.11738 -25.21774,-6.5402 -0.82083,-0.42558 -1.6663,-0.80621 -2.4986,-1.1373 -8.98087,-4.36871 -17.07163,-10.38395 -24.30064,-18.04916 -1.69825,-1.80721 -3.3438,-3.73265 -4.93895,-5.75745 -0.14113,-0.18011 -0.26823,-0.39688 -0.39189,-0.64199 -1.19752,-1.43005 -2.29711,-2.87698 -3.31538,-4.36198 -5.37678,-7.68016 -9.32532,-15.7527 -11.80784,-24.21302 -1.35545,-4.63232 -2.25564,-9.38197 -2.7017,-14.23951 -0.63424,-6.62533 -0.4971,-13.44469 0.43862,-20.44519 0.75533,-6.9361 2.24847,-13.55258 4.44879,-19.83396 1.58423,-4.6016 3.60365,-8.99699 6.02762,-13.17072 5.33391,-9.11303 12.52251,-17.234 21.5469,-24.3652 0.97332,-0.83108 1.94806,-1.59487 2.89359,-2.27592 17.78346,-12.86604 37.91008,-17.94062 60.35983,-15.21661 20.57925,2.25737 37.84724,10.78596 51.80397,25.58577 1.14114,1.18352 2.22215,2.38851 3.26908,3.6373 0.77411,0.8897 1.54735,1.86559 2.28422,2.90418 14.82837,18.83652 20.65386,39.96508 17.49537,63.38799 z"
     id="path3457" />
  <g
     id="g3427"
     transform="matrix(0.67140612,0,0,0.67140612,-611.73507,-695.12971)">
    <g
       style="fill:#454545;fill-opacity:1"
       transform="matrix(48.494348,0,0,48.494348,1969.249,325.21078)"
       id="g3270" />
  </g>
  <g
     id="g3483"
     transform="matrix(0.56411062,0,0,0.56411062,443.81616,441.50341)" />
  <path
     style="clip-rule:evenodd;fill:#454545;fill-opacity:1;fill-rule:evenodd"
     d="m 644.93659,592.21877 c 55.16694,57.3178 157.7935,148.76847 215.0582,263.61153 1.87149,43.3852 -33.7116,93.94081 -81.79937,76.52429 -51.0753,-15.58703 -90.61732,-64.99774 -93.88067,-118.45363 -21.19037,-37.76984 -81.05971,-51.84998 -85.64462,5.39283 -15.39573,45.31683 -19.65072,104.24256 -65.72638,130.20406 -37.0064,-0.005 -61.68178,23.29644 -68.57003,60.61615 -18.70991,57.6921 -14.65442,121.5795 -41.38787,176.7063 -28.2132,45.176 -78.39816,1.9405 -106.56201,-20.166 -38.22487,-34.3534 -21.0712,-91.5947 -10.64296,-134.5721 7.92714,-38.15073 28.98367,-77.59914 17.24937,-116.82198 -27.1294,-30.75305 -69.80224,-10.74214 -74.05166,26.79808 -32.69207,48.36359 -90.56622,82.4629 -149.596883,81.4927 C 39.326243,1019.9429 57.312388,946.52403 79.730031,913.13235 121.22319,812.58275 210.16434,730.19055 318.63101,709.71213 c 41.35858,0.0164 79.0313,-25.23094 93.31617,-64.61071 9.00568,-44.46447 -38.97712,-69.07029 -70.04028,-89.38602 -47.67707,-29.33249 -102.50771,-54.26563 -132.51661,-103.96059 -41.60337,-32.39343 -12.7986,-84.43192 36.51048,-73.18294 66.18242,2.96525 133.66557,19.09302 190.73894,53.48723 52.43271,24.62412 88.6844,72.69707 138.83905,100.88637 18.78929,10.0013 14.29089,1.9555 69.45783,59.2733 z"
     id="path3396"
     inkscape:connector-curvature="0"
     sodipodi:nodetypes="zccccccccccccccccccccz" />
</svg>
