<?xml version="1.0" encoding="UTF-8" standalone="no"?>
<!-- Created with Inkscape (http://www.inkscape.org/) -->

<svg
   xmlns:dc="http://purl.org/dc/elements/1.1/"
   xmlns:cc="http://creativecommons.org/ns#"
   xmlns:rdf="http://www.w3.org/1999/02/22-rdf-syntax-ns#"
   xmlns:svg="http://www.w3.org/2000/svg"
   xmlns="http://www.w3.org/2000/svg"
   xmlns:sodipodi="http://sodipodi.sourceforge.net/DTD/sodipodi-0.dtd"
   xmlns:inkscape="http://www.inkscape.org/namespaces/inkscape"
   height="1080"
   width="1440"
   viewBox="0 0 1440 1080"
   id="svg2"
   version="1.1"
   inkscape:version="0.91 r13725"
   sodipodi:docname="dangers.svg"
   inkscape:export-filename="/home/hsablonniere/dev/presentation-documentation-as-code/src/images/word-document.png"
   inkscape:export-xdpi="90"
   inkscape:export-ydpi="90">
  <defs
     id="defs8" />
  <sodipodi:namedview
     pagecolor="#ffffff"
     bordercolor="#666666"
     borderopacity="1"
     objecttolerance="10"
     gridtolerance="10"
     guidetolerance="10"
     inkscape:pageopacity="0"
     inkscape:pageshadow="2"
     inkscape:window-width="2560"
     inkscape:window-height="1406"
     id="namedview6"
     showgrid="false"
     inkscape:zoom="0.63429568"
     inkscape:cx="437.22855"
     inkscape:cy="600.24314"
     inkscape:window-x="0"
     inkscape:window-y="0"
     inkscape:window-maximized="1"
     inkscape:current-layer="svg2"
     units="px" />
  <metadata
     id="metadata4">
    <rdf:RDF>
      <cc:Work
         rdf:about="">
        <dc:format>image/svg+xml</dc:format>
        <dc:type
           rdf:resource="http://purl.org/dc/dcmitype/StillImage" />
        <dc:title />
      </cc:Work>
    </rdf:RDF>
  </metadata>
  <path
     style="clip-rule:evenodd;fill:#454545;fill-opacity:1;fill-rule:evenodd"
     d="m 637.05383,546.49877 c -0.33109,0.8323 -1.06496,5.53708 -2.19214,14.11549 -1.27721,8.55062 3.91369,16.73555 15.60217,24.54878 1.05848,0.52153 2.15818,1.01929 3.30142,1.4744 3.63698,1.55348 7.50389,3.02939 11.57581,4.39595 9.03032,2.69686 19.22491,4.80633 30.62871,6.35304 -0.39779,0.67081 -3.8973,3.51557 -10.51144,8.5615 -5.3731,4.14186 -8.28867,8.17924 -8.76675,12.11928 -1.05934,8.73046 1.1066,16.48123 6.53188,23.20851 1.80242,2.21294 3.98223,4.31826 6.54888,6.31712 8.55338,6.62746 20.67113,11.69318 36.39102,15.20175 -3.22571,2.1685 -5.44434,3.70178 -6.67364,4.58808 -2.08117,1.34861 -3.23583,2.96305 -3.46398,4.84331 -0.42075,3.46762 4.00077,7.16805 13.27632,11.08353 7.44289,3.13704 13.37472,4.97855 17.78719,5.51396 2.68338,0.32559 8.79722,0.58805 18.36987,0.79082 9.3367,0.25084 14.59017,0.2555 15.81939,0.002 l 6.61398,0.80253 c -1.61791,1.48152 -3.09924,2.86457 -4.45228,4.13854 -6.29182,5.70823 -9.79711,8.91663 -10.52646,9.63349 -5.34669,5.89961 -8.5263,12.6662 -9.52939,20.3009 -0.99276,7.54966 3.80951,16.32981 14.42802,26.32384 10.70213,9.93706 23.44177,19.51732 38.22839,28.74194 0.0759,0.0859 0.18008,0.17526 0.33153,0.27033 -2.81847,1.49884 -5.75981,3.29917 -8.81572,5.41157 -8.91061,6.27254 -7.80398,13.27158 3.32704,21.01716 3.81255,3.4252 8.7137,6.88661 14.67051,10.41858 3.22006,1.82887 6.75077,3.70501 10.59558,5.6001 12.88062,6.44303 28.02605,13.02665 45.43514,19.76029 -6.79853,2.69375 -12.3349,5.09961 -16.59137,7.22933 -7.88641,3.8369 -12.1681,8.46594 -12.82732,13.89885 -0.994,8.19189 1.65698,18.1875 7.98355,29.97138 6.37208,11.96197 13.17935,19.54726 20.38515,22.74181 -6.14155,-0.74521 -11.52628,-2.11766 -16.16247,-4.12794 -4.70375,-2.0856 -8.90053,-3.37143 -12.60436,-3.82085 -10.15719,-1.23245 -17.85131,-1.0347 -23.07892,0.56491 -8.55742,2.72961 -13.47671,9.29469 -14.73668,19.67864 -0.49757,4.10067 -0.3758,8.07514 0.35699,11.91284 0.57348,2.5432 1.35455,5.03488 2.33376,7.47391 0.14141,0.25685 2.93103,5.15907 8.41008,14.68288 -4.35764,-6.28134 -11.13466,-13.00965 -20.32877,-20.20383 -11.98867,-9.2111 -21.75827,-14.26994 -29.32655,-15.18827 -5.90535,-0.71654 -10.84646,1.76155 -14.8033,7.42712 -1.46884,2.22828 -4.02239,7.78608 -7.66296,16.6923 0.35434,-3.55237 -0.65389,-9.78205 -3.0141,-18.69732 -2.59491,-9.50943 -5.91796,-18.94422 -9.97744,-28.31496 -10.74063,-24.86971 -21.60413,-37.98069 -32.63058,-39.31862 -1.26611,-0.15363 -3.04224,0.34034 -5.34128,1.50912 -1.79565,0.97098 -3.19218,1.97122 -4.19558,2.97123 3.68089,-3.94451 3.54197,-12.67655 -0.41678,-26.19611 -4.158,-13.77385 -9.38451,-21.03309 -15.69614,-21.79894 -0.94485,-0.11464 -2.67919,0.50904 -5.25256,1.88422 -2.03302,0.95177 -3.44702,2.01701 -4.2231,3.198 4.54395,-13.74384 2.74018,-28.11409 -5.44309,-43.08584 -2.29007,-4.19923 -4.79437,-7.89713 -7.52121,-11.10429 -8.32251,-9.71544 -18.95129,-15.35791 -31.86746,-16.92514 -0.63305,-0.0768 -1.31793,-0.12157 -2.02629,-0.13082 -5.06502,-0.45159 -10.25927,-0.0752 -15.59935,1.10814 -1.05033,0.75462 -1.99159,1.63752 -2.83437,2.65702 -0.93699,1.08476 -1.87943,2.2935 -2.84508,3.61448 -3.6267,5.55223 -5.85133,11.63891 -6.65272,18.24344 -0.92749,7.64388 1.49265,18.11963 7.22033,31.44156 3.20278,7.18627 7.38027,16.21659 12.5359,27.0626 -2.21701,-2.27282 -5.721,-4.92233 -10.54518,-7.99089 -5.93847,-3.68315 -10.65626,-5.7321 -14.12388,-6.15286 -5.34787,-0.6489 -9.09207,1.13071 -11.19593,5.35287 -1.01352,1.79455 -1.83455,5.24236 -2.45594,10.36347 -1.041,8.57928 1.43709,20.39474 7.44487,35.43809 6.15006,15.21401 12.91598,26.06367 20.2694,32.54553 l -0.12841,1.05823 c -0.142,-0.0939 -0.3029,-0.19015 -0.44605,-0.27464 -3.44615,-2.65207 -7.39165,-5.29762 -11.87659,-7.92234 -6.55405,-3.82496 -11.77518,-5.99251 -15.63019,-6.46027 -3.94004,-0.47808 -7.62774,0.5989 -11.06195,3.22149 -3.32051,2.39669 -5.18998,5.1612 -5.5729,8.31701 -0.72687,5.99038 -0.4982,11.45433 0.64934,16.37781 1.09801,4.93665 3.32238,10.23048 6.7063,15.92388 l -0.1284,1.05824 c -0.15976,-0.10568 -0.26855,-0.15723 -0.34414,-0.1664 -5.9973,-2.64524 -10.09208,-4.4556 -12.29264,-5.44169 -6.71483,-2.57889 -12.20404,-4.11742 -16.45589,-4.63333 -10.07215,-1.22214 -19.56106,-0.13959 -28.44898,3.2594 -10.15497,3.96432 -15.71956,10.00048 -16.70553,18.12623 -1.56608,12.90671 4.52499,25.8413 18.30501,38.77884 -10.89931,-3.72901 -25.78544,-2.57268 -44.64663,3.45123 -14.05821,4.52617 -23.49639,9.85259 -28.324,15.97819 l -2.72402,22.4497 c 1.46773,4.3392 4.11431,8.2077 7.9469,11.6258 5.55006,4.9879 15.75338,10.502 30.59108,16.5401 -3.84461,-1.1855 -10.09386,0.6161 -18.75718,5.4038 -9.51378,5.3173 -14.652,11.0792 -15.40753,17.3058 -0.42993,3.5432 0.67105,7.6652 3.30063,12.385 2.7521,4.9744 6.00406,8.1206 9.75359,9.4577 -6.42809,0.9841 -11.33362,2.8529 -14.70229,5.6464 -3.63152,2.9055 -5.8012,6.88 -6.47841,11.908 -0.0287,0.2362 -0.055,0.4536 -0.0722,0.5953 -0.87934,7.247 1.32241,14.7816 6.61356,22.6144 4.9121,7.4799 10.21914,11.8631 15.88704,13.1932 -7.0013,-1.4823 -13.69826,-0.4157 -20.04594,3.2244 -6.74108,3.5636 -10.50456,8.5048 -11.27041,14.8164 -0.58241,4.7999 1.79598,10.2466 7.12915,16.3108 4.42509,5.0143 9.15296,8.8766 14.1882,11.5489 l -0.12955,1.0677 c -0.15145,-0.095 -0.26511,-0.1856 -0.33038,-0.2798 -2.97554,-1.7896 -5.87383,-3.1097 -8.74556,-3.9375 -1.3222,-0.3234 -3.87473,-0.7002 -7.65415,-1.1588 -12.29256,-1.4916 -21.57554,1.3705 -27.90677,8.5888 -4.18266,4.9191 -8.11444,13.9338 -11.78845,26.9874 -4.67985,-19.3501 -10.12823,-33.7886 -16.3145,-43.3311 -8.09112,-12.3336 -18.92303,-19.3046 -32.47224,-20.9487 -5.82031,-0.7062 -11.21871,-0.3066 -16.20209,1.2555 -9.96473,3.0287 -15.47782,4.6895 -16.55471,4.952 0.15267,-0.5472 1.15588,-2.2567 3.02135,-5.1463 1.71315,-2.8986 2.64856,-5.0765 2.81938,-6.4844 0.75438,-6.2171 -3.03891,-12.4875 -11.38562,-18.7639 -7.09815,-5.425 -14.79121,-9.1868 -23.08403,-11.3244 2.37139,-0.4217 5.82173,-3.8094 10.34758,-10.1346 4.42132,-6.1749 6.82817,-10.8396 7.20995,-13.986 0.27744,-2.2865 -1.40851,-6.2495 -5.02952,-11.8854 -1.4242,-2.0903 -2.58017,-3.7838 -3.4573,-5.0887 l -0.10393,-0.013 c -1.29224,-1.8346 -2.09383,-2.8139 -2.40591,-2.9285 0.62361,0.076 1.27983,0.3566 1.93087,0.8383 0.58605,0.4642 1.34505,0.7672 2.28991,0.8819 5.74471,0.697 11.13758,-3.5287 16.15855,-12.6701 3.78949,-6.8939 5.98891,-12.7728 6.58278,-17.6671 0.9745,-8.0313 -0.68018,-14.7804 -4.97236,-20.258 -8.3399,-10.2833 -13.8063,-17.9359 -16.38746,-22.9758 6.2528,1.8037 12.0756,0.9091 17.46609,-2.665 5.30546,-3.5844 8.34196,-8.4604 9.08831,-14.6114 0.69591,-5.73523 0.33002,-10.62139 -1.1011,-14.6301 -1.28911,-3.91478 -4.51356,-9.57924 -9.69109,-17.00513 8.11385,2.26927 14.70376,0.97877 19.76513,-3.8337 4.05912,-3.82192 6.46142,-8.76529 7.19631,-14.82181 0.43107,-3.55265 -0.61147,-7.8402 -3.10874,-12.86034 -1.65939,-3.47074 -3.27165,-5.98658 -4.83793,-7.53808 4.16681,0.5056 9.05736,-2.89904 14.65275,-10.21621 5.59452,-7.23099 8.7214,-13.56294 9.38062,-18.99585 0.79336,-6.5384 -0.85326,-11.37862 -4.9516,-14.50292 -3.50197,-2.74514 -9.46701,-4.62904 -17.89511,-5.65169 -16.9318,-2.05448 -31.14695,0.52553 -42.65836,7.76724 -12.44804,7.77042 -20.02514,20.12035 -22.72184,37.05091 -1.25195,-3.43088 -3.95388,-6.60627 -8.07029,-9.50266 -3.01243,-2.19677 -5.02829,-3.36178 -6.05818,-3.48675 -9.0517,-1.09832 -17.62667,4.62051 -25.69426,17.14102 -6.40172,9.93264 -10.09843,18.98545 -11.09357,27.18679 -0.75438,6.21714 -0.60739,12.2752 0.43266,18.16358 1.27639,7.25933 3.82453,12.96637 7.63613,17.11052 l -0.12955,1.06769 c -0.0756,-0.009 -0.14544,-0.0656 -0.22016,-0.16094 l -0.11338,-0.0138 c -1.587,-0.74865 -4.62817,-2.07642 -9.10461,-3.98104 -6.09123,-2.50323 -10.48441,-3.90876 -13.15834,-4.23322 -9.68476,-1.17513 -18.12192,3.80299 -25.31032,14.92489 -5.53028,8.677 -8.89088,17.9623 -10.09582,27.8927 -0.52623,4.3369 -0.82779,7.1383 -0.89523,8.4053 -0.0482,1.0296 -0.0355,1.9515 0.0289,2.7647 -0.26278,-0.5209 -0.64096,-0.9598 -1.16059,-1.3393 -1.63184,-1.7224 -4.2243,-3.3505 -7.79399,-4.9054 -5.53404,-2.5123 -11.44385,-4.1402 -17.74603,-4.9049 -7.162,-0.869 -20.24325,1.2158 -39.244906,6.2639 -9.236249,2.3979 -16.780299,4.5985 -22.623848,6.6124 -0.169797,0.056 -0.287765,0.08 -0.363353,0.071 l 0.02866,-0.2362 c 0.08591,-0.076 0.132873,-0.1468 0.140898,-0.213 0.540148,-1.1329 1.153591,-4.5292 1.841474,-10.1983 1.999448,-16.4783 -10.755106,-30.5186 -38.275679,-42.18003 3.048915,1.1849 7.272177,-0.9872 12.647449,-6.49024 5.233543,-5.52025 8.094236,-10.36965 8.600977,-14.5459 0.736035,-6.06597 -0.8363,-11.91347 -4.701825,-17.58861 -5.020224,-6.03576 -8.552045,-10.5103 -10.598901,-13.39526 l 0.143309,-1.18107 c 0.803719,-0.0655 1.611155,-0.0825 2.404556,-0.063 6.1529,-0.69157 14.408002,-3.77425 24.734667,-9.23258 12.624559,-6.61767 19.427667,-13.93211 20.403315,-21.97282 0.33477,-2.75898 0.497608,-4.41706 0.479067,-4.97539 -0.233961,-2.02262 -1.149166,-3.40883 -2.725571,-4.16578 6.057822,-0.54011 12.298012,-3.21532 18.720571,-8.02562 3.33083,-2.48173 5.96476,-5.06719 7.89692,-7.79533 1.75206,-2.587 2.8012,-5.30724 3.14514,-8.1418 0.40241,-3.31644 -0.73177,-7.48088 -3.38966,-12.52051 -3.83698,-7.25363 -5.85308,-11.10322 -6.04114,-11.52872 1.33034,1.59957 3.2841,2.56529 5.88245,2.88057 7.01082,0.85069 13.07659,-1.41424 18.2056,-6.78418 4.28739,-4.35989 6.74579,-9.13346 7.37749,-14.33961 0.23732,-1.95585 -1.02768,-6.38544 -3.78669,-13.27817 -2.62821,-6.62758 -4.81861,-11.01605 -6.56406,-13.14538 -0.70864,-0.086 -1.01123,-0.51579 -0.91493,-1.30947 0.44349,0.2168 0.90588,0.4359 1.35051,0.64325 3.56052,1.63049 6.32286,2.56969 8.28816,2.80815 10.00601,1.21412 19.27115,-1.02693 27.78255,-6.69594 4.44671,-3.0654 7.95089,-6.58074 10.50769,-10.58495 2.58688,-4.17313 4.18515,-8.81138 4.80654,-13.93249 0.6489,-5.34788 -0.3075,-13.90106 -2.87981,-25.65126 -2.67777,-10.88093 -4.09751,-16.6428 -4.25805,-17.29507 l 0.12955,-1.06768 c 0.13999,0.18956 0.26823,0.39688 0.4002,0.65258 3.48137,4.89027 8.07839,8.80375 13.80049,11.74157 4.74151,2.40657 9.94869,3.97799 15.61782,4.66588 5.75416,0.6982 10.53323,0.42478 14.3621,-0.78847 3.41255,-1.10077 6.04754,-3.06291 7.90385,-5.87696 2.66132,-4.15451 3.56715,-10.27658 2.70919,-18.37679 l 0.12841,-1.05823 c 0.1503,0.10452 0.30176,0.1996 0.44376,0.29353 9.80095,6.22276 16.34963,9.53892 19.65662,9.94018 7.08641,0.85986 13.54901,-1.35692 19.38667,-6.64087 4.12439,-3.72771 7.7937,-8.92002 10.99735,-15.56864 2.52154,0.94833 7.77208,3.74265 15.75994,8.39355 1.11457,0.69132 2.3245,1.30793 3.60745,1.87587 1.587,0.74864 3.3332,1.4495 5.26094,2.0765 3.47556,0.98739 7.30792,1.72086 11.48417,2.2276 7.48325,0.908 12.99302,0.61779 16.5293,-0.87066 4.64272,-2.07326 6.3214,-6.34701 5.03489,-12.81179 -0.0759,-0.0859 -0.13197,-0.25571 -0.17889,-0.50109 l 2.24875,0.27286 c 0.55747,0.0676 2.98942,0.72706 7.31705,1.96166 4.40235,1.32995 7.72733,2.13608 10.02333,2.41467 12.59491,1.52825 22.34858,1.1873 29.24925,-1.00508 1.07777,-0.34861 2.04816,-0.68148 2.8794,-0.97371 6.7516,-2.93914 10.58126,-8.18869 11.49844,-15.74753 0.68788,-5.66913 -2.35214,-11.58925 -9.10948,-17.76868 -2.66136,-2.40345 -5.77227,-4.7368 -9.33156,-7.00951 -1.39657,-0.97482 -2.8507,-1.87034 -4.35294,-2.6854 1.62511,0.51358 3.21674,0.90805 4.78433,1.18454 0.15117,0.0184 0.3118,0.0378 0.46298,0.0562 7.79505,0.94584 14.92273,-0.8259 21.38419,-5.32468 6.53475,-4.47071 10.25226,-10.37625 11.14192,-17.70832 0.40127,-3.30699 -1.71442,-7.60011 -6.34706,-12.87935 -5.89866,-6.06565 -10.09215,-10.69717 -12.58278,-13.87568 5.45118,1.14082 11.05852,-0.90169 16.80197,-6.12037 5.4777,-4.92495 8.49902,-9.75486 9.07226,-14.47913 0.84151,-6.93523 -2.99223,-12.63527 -11.48118,-17.10728 -7.27214,-3.91209 -17.56829,-6.68584 -30.87184,-8.30008 -12.36815,-1.50073 -22.15838,-1.8066 -29.37901,-0.9282 -2.09848,0.14806 -9.83028,1.68351 -23.21543,4.61351 l -1.18107,-0.14331 c 0.1698,-0.0561 0.38771,-0.19264 0.65259,-0.4002 l 0.11338,0.0138 c 3.53759,-2.76344 7.88344,-5.31376 13.03642,-7.6415 3.7268,-2.3474 5.87667,-5.9216 6.46023,-10.73091 1.14762,-9.45799 -9.00645,-17.35349 -30.44931,-23.7137 -16.12575,-4.74668 -28.31255,-7.03077 -36.57216,-6.83452 0.34963,-0.27397 3.46619,-1.93798 9.35797,-4.98145 5.85375,-3.44117 8.93468,-6.47095 9.24996,-9.0693 0.65005,-5.35732 -12.21804,-11.27152 -38.60198,-17.76147 -15.30498,-3.68833 -27.85166,-6.24619 -37.66838,-7.67703 -0.16063,-0.0195 -0.27401,-0.0332 -0.3496,-0.0424 0.0103,-0.085 0.0951,-0.15145 0.26487,-0.20755 0.0103,-0.085 0.0951,-0.15145 0.26488,-0.20755 1.02167,-0.51841 2.20282,-1.00787 3.54573,-1.4873 2.14644,-1.2544 3.37444,-3.15716 3.6794,-5.67047 0.45859,-3.77942 -0.89208,-7.74002 -4.08035,-11.88524 -3.22548,-4.31273 -8.31805,-8.80406 -15.26712,-13.48232 -1.99293,-1.35399 -4.0271,-2.68421 -6.10479,-3.97178 -6.47787,-3.97871 -13.16855,-7.3888 -20.10038,-10.23372 6.84102,0.90678 11.39127,1.01787 13.63184,0.33097 3.63959,-0.99653 5.83758,-4.65118 6.60228,-10.95336 0.72686,-5.99037 -3.73274,-14.35502 -13.37536,-25.12229 -0.83938,-0.98391 -1.68449,-1.92058 -2.53304,-2.82891 -7.42597,-7.9384 -15.88851,-15.23555 -25.39592,-21.90207 7.55346,4.99128 13.91625,8.8122 19.12014,11.43787 3.15451,1.65792 6.17133,3.10738 9.06104,4.34008 0.85092,0.25665 1.66291,0.51817 2.42879,0.7645 3.68312,1.25227 7.17932,2.06958 10.49576,2.472 9.59972,1.16481 17.87645,-0.83184 24.81958,-5.98165 5.78943,-4.25434 8.97019,-8.73892 9.54342,-13.4632 0.31414,-2.5889 -0.0872,-5.83987 -1.21566,-9.73516 -0.47935,-1.9757 -1.13735,-4.05936 -1.99404,-6.24383 -2.43927,-6.28826 -4.39556,-9.91966 -5.86886,-10.89421 l 0.12497,-1.02989 c 4.15103,5.29751 9.30334,10.63981 15.43916,16.01516 10.09896,8.98181 18.84812,13.91683 26.24633,14.81452 6.06597,0.73603 11.78676,-1.92549 17.15409,-7.99518 4.35246,-4.97519 6.7627,-9.35193 7.22129,-13.13134 0.11465,-0.94486 0.0687,-2.22559 -0.13667,-3.85165 -0.0378,-0.32097 -0.0755,-0.64195 -0.11212,-0.97237 3.02627,6.03351 9.54525,13.22907 19.56155,21.54888 13.99863,11.68891 27.57908,17.73748 40.72359,18.13396 0.0572,0.16035 0.16517,0.29808 0.31548,0.40261 1.49062,2.1751 3.26354,4.39404 5.31163,6.63679 6.50155,6.94416 13.1077,10.81379 19.79727,11.6255 3.14637,0.38177 5.86087,-0.81329 8.10456,-3.58033 1.96878,-2.39772 3.15336,-5.20698 3.54545,-8.43839 2.32435,7.15639 7.90299,14.83228 16.74766,23.00993 9.6357,8.8489 19.55798,13.36059 29.7634,13.56344 10.12983,0.19367 19.70903,-4.00351 28.72586,-12.57377 -0.30176,-0.19961 -0.55256,-0.34509 -0.76901,-0.45765 l 1.04879,0.12726 c 1.88992,14.68751 6.36691,25.91139 13.41667,33.63156 10.99246,12.20621 22.1153,18.99204 33.37797,20.35864 7.58145,-1.32359 12.12505,-3.05414 13.59187,-5.18678 0.37573,8.59778 5.35187,19.10562 14.85886,31.54386 0.95386,1.30461 8.22197,7.69941 21.77598,19.18097 13.45951,11.4701 37.72812,17.69379 72.76803,18.6665 l 1.06769,0.12956 z"
     id="path3410" />
  <path
     style="clip-rule:evenodd;fill:#454545;fill-opacity:1;fill-rule:evenodd"
     d="m 715.12866,440.51768 c -0.31528,2.59835 -0.75454,5.19125 -1.30603,7.76093 -3.74684,18.3947 -12.60818,33.74314 -26.56399,46.03815 -0.72821,0.70742 -1.51798,1.36901 -2.40709,1.9802 -0.62368,0.55711 -1.23934,1.04808 -1.85527,1.46231 -0.26373,0.19811 -0.43899,0.37818 -0.54351,0.52849 -2.11901,1.66042 -4.2526,3.20401 -6.42798,4.61789 -8.6723,5.57279 -17.80651,9.42128 -27.42038,11.53372 -9.17778,1.91608 -18.80775,2.18575 -28.871,0.81128 -9.07005,-0.94714 -17.47396,-3.11738 -25.21774,-6.5402 -0.82083,-0.42558 -1.6663,-0.80621 -2.4986,-1.1373 -8.98087,-4.36871 -17.07163,-10.38395 -24.30064,-18.04916 -1.69825,-1.80721 -3.3438,-3.73265 -4.93895,-5.75745 -0.14113,-0.18011 -0.26823,-0.39688 -0.39189,-0.64199 -1.19752,-1.43005 -2.29711,-2.87698 -3.31538,-4.36198 -5.37678,-7.68016 -9.32532,-15.7527 -11.80784,-24.21302 -1.35545,-4.63232 -2.25564,-9.38197 -2.7017,-14.23951 -0.63424,-6.62533 -0.4971,-13.44469 0.43862,-20.44519 0.75533,-6.9361 2.24847,-13.55258 4.44879,-19.83396 1.58423,-4.6016 3.60365,-8.99699 6.02762,-13.17072 5.33391,-9.11303 12.52251,-17.234 21.5469,-24.3652 0.97332,-0.83108 1.94806,-1.59487 2.89359,-2.27592 17.78346,-12.86604 37.91008,-17.94062 60.35983,-15.21661 20.57925,2.25737 37.84724,10.78596 51.80397,25.58577 1.14114,1.18352 2.22215,2.38851 3.26908,3.6373 0.77411,0.8897 1.54735,1.86559 2.28422,2.90418 14.82837,18.83652 20.65386,39.96508 17.49537,63.38799 z"
     id="path3457" />
  <path
     id="path3395"
     style="clip-rule:evenodd;fill:#ffffff;fill-opacity:1;fill-rule:evenodd"
     d="m 391.76421,929.95413 c -0.33034,-0.59617 -0.84392,-1.26251 -1.56079,-1.99187 -2.2089,-2.97174 -5.14293,-4.70838 -8.84676,-5.15779 -3.69466,-0.52501 -7.03704,0.39253 -10.05432,2.73972 -2.9145,2.36926 -4.55293,5.36314 -4.91645,8.99111 -0.45056,3.71328 0.47156,7.01785 2.75578,9.92204 2.28307,2.91363 5.19564,4.59013 8.73884,5.02006 l -19.93126,165.2889 c -3.62081,-0.3435 -6.89934,0.601 -9.81412,2.8935 -2.91477,2.2925 -4.5993,5.2712 -5.04986,8.9845 -0.44942,3.7038 0.47729,6.9706 2.77182,9.7897 2.35866,2.9228 5.34108,4.6558 8.96015,5.1716 3.70383,0.4494 6.95544,-0.4312 9.79375,-2.6467 0.95411,-0.5937 1.58926,-1.2453 1.91031,-1.9159 0.54936,0.7666 1.05262,1.518 1.53327,2.2187 2.45287,2.8575 5.44217,4.5337 8.9762,5.0392 3.77942,0.4586 7.1301,-0.4483 10.04373,-2.7314 2.99839,-2.3495 4.68521,-5.3471 5.04872,-8.975 0.54363,-3.7691 -0.41515,-7.0877 -2.86801,-9.9453 -2.1319,-2.8953 -4.98892,-4.5554 -8.62661,-4.9968 l 20.04034,-165.16061 c 3.65718,0.28077 6.87071,-0.68117 9.71018,-2.90612 3.00756,-2.42508 4.69782,-5.45103 5.06362,-9.09789 0.30497,-2.51331 -0.0515,-4.79049 -1.08832,-6.83383 -0.44167,-1.02194 -1.0414,-2.00554 -1.80519,-2.98028 -2.19945,-2.9706 -5.14293,-4.70838 -8.84676,-5.1578 -3.60962,-0.51468 -6.95658,0.44065 -10.05033,2.86485 -0.73908,0.63899 -1.35818,1.1583 -1.88793,1.57341 z M 367.59952,781.35674 c -3.66723,-0.11899 -6.81695,1.18625 -9.46464,3.8851 -2.6969,2.47236 -4.09912,5.4949 -4.21725,9.07594 l -59.40229,-1.4456 c -0.24183,-3.22204 -1.55973,-5.95144 -3.91933,-8.15528 -2.53878,-2.78167 -5.72681,-4.24232 -9.54406,-4.3891 -3.73337,-0.12702 -6.89139,1.16763 -9.45519,3.88624 -2.70722,2.55739 -4.08541,5.69791 -4.14743,9.44874 -0.0423,3.66695 1.21574,6.81094 3.77286,9.44143 0.70741,0.72821 1.39079,1.33845 2.05128,1.82128 -0.77628,0.47147 -1.48844,1.04661 -2.12331,1.77494 -2.62132,2.48153 -3.95368,5.56049 -3.99709,9.23688 -0.2215,3.7219 0.98265,6.99359 3.59702,9.78443 2.54794,2.70607 5.66011,4.08082 9.32591,4.13252 3.83674,-0.0138 7.0715,-1.30876 9.70085,-3.85643 2.62131,-2.48153 3.99977,-5.54531 4.11762,-9.20308 l 59.55264,1.23374 c 0.16652,3.2896 1.37846,6.10202 3.6513,8.46791 2.85057,2.8195 6.08099,4.24694 9.6712,4.28948 3.58218,0.10868 6.73448,-1.13873 9.44142,-3.77286 2.7164,-2.63298 4.17476,-5.80212 4.39741,-9.53347 0.11812,-3.58103 -1.20973,-6.78144 -3.99302,-9.60236 -0.57573,-0.54925 -1.17522,-1.13972 -1.81622,-1.78317 0.59502,-0.32089 1.3003,-0.83934 2.1041,-1.53758 2.64998,-2.71775 4.02931,-5.86771 4.14743,-9.44875 0.0606,-3.81812 -1.18107,-7.01766 -3.7485,-9.56311 -2.72747,-2.72786 -5.95188,-4.12581 -9.70271,-4.18784 z m 81.72691,4.17362 c 1.17692,3.57518 0.91193,7.02335 -0.77608,10.34679 -1.74241,3.29766 -4.38116,5.52779 -7.87131,6.71503 -3.57404,1.16747 -7.03165,0.90133 -10.33734,-0.77493 -3.31399,-1.68686 -5.55472,-4.31732 -6.71274,-7.89021 -1.17664,-3.49845 -0.87959,-6.89479 0.87227,-10.1913 1.67856,-3.32459 4.32304,-5.60196 7.89566,-6.83672 3.50675,-1.16605 6.90052,-0.92683 10.22396,0.76118 3.29766,1.7424 5.52894,4.37171 6.70558,7.87016 z m 64.53071,76.75572 c -1.05733,-0.53097 -2.16478,-0.88587 -3.33439,-1.12366 -1.71904,-0.37158 -3.44128,-0.32168 -5.1693,0.0918 -0.64424,0.0944 -1.23294,0.20514 -1.73517,0.39348 -3.42259,1.26255 -5.98176,3.62698 -7.67981,7.11219 -1.61012,3.31371 -1.83558,6.59409 -0.71646,9.85546 l -55.61785,20.70088 c -1.34529,-3.4518 -3.69284,-5.91305 -7.01572,-7.44759 -3.38958,-1.69603 -6.84463,-1.90433 -10.3511,-0.66155 -3.49846,1.17664 -6.0247,3.50672 -7.56097,7.00197 -1.59151,3.23927 -1.76688,6.65996 -0.52267,10.23372 1.18553,3.34613 3.44461,5.82541 6.75947,7.42608 0.80277,0.65349 1.63879,1.03298 2.50805,1.13845 -0.65262,0.71659 -1.06531,1.51023 -1.24523,2.36087 -1.58206,3.24042 -1.77632,6.65882 -0.52382,10.24318 1.16605,3.50675 3.41623,6.13835 6.71274,7.8902 3.41939,1.45037 6.83522,1.5868 10.26753,0.40213 3.58321,-1.24306 6.18504,-3.56396 7.79489,-6.95441 1.58348,-3.17313 1.80036,-6.54084 0.62344,-10.11603 l 52.91849,-19.23552 -0.0847,-0.24997 3.12936,-1.05844 c 1.1755,3.5079 3.43457,5.98718 6.77952,7.41893 3.47433,1.62961 6.97061,1.81416 10.48768,0.56307 3.25279,-1.20645 5.69427,-3.47011 7.2961,-6.79441 1.68658,-3.39073 2.02716,-6.82972 1.01,-10.29924 -1.16605,-3.50675 -3.61437,-6.08569 -7.32607,-7.73452 -0.76501,-0.33251 -1.52058,-0.66389 -2.27615,-0.99526 0.47365,-0.5849 0.91382,-1.28891 1.32995,-2.1109 1.62962,-3.47433 1.83219,-6.88214 0.6372,-10.22941 -1.16632,-3.58349 -3.52502,-6.1899 -7.09499,-7.82154 z m -12.02367,-50.01083 c 3.50676,-1.16604 6.90424,-0.87844 10.19961,0.88287 3.31399,1.68686 5.5971,4.2841 6.84818,7.80117 1.15917,3.56345 0.91307,7.0139 -0.77493,10.33734 -1.76131,3.29537 -4.37658,5.49 -7.86471,6.58161 -3.58321,1.24306 -7.04771,1.03361 -10.35225,-0.6521 -3.30481,-1.76245 -5.54096,-4.4307 -6.70843,-8.00474 -1.16604,-3.50675 -0.92453,-6.91942 0.76118,-10.22396 1.68571,-3.30454 4.30672,-5.54641 7.89135,-6.72219 z M 117.84393,961.56796 c -3.03879,-1.97945 -6.35721,-2.60261 -9.95896,-1.91789 -3.68537,0.74169 -6.5752,2.74961 -8.648304,6.00714 -2.112006,2.94601 -2.750631,6.23379 -1.913583,9.84444 0.749994,3.69596 2.675166,6.55658 5.781527,8.61134 3.02962,2.05504 6.34231,2.72545 9.94291,2.05017 0.97352,-0.12157 1.85314,-0.41752 2.61883,-0.88069 0.038,1.03048 0.12516,1.97107 0.26622,2.78396 0.76031,3.61092 2.69351,6.4054 5.80904,8.38457 3.1636,2.21511 6.55559,2.94308 10.16652,2.18277 3.68651,-0.75114 6.55084,-2.62792 8.59643,-5.65869 2.05476,-3.10636 2.70715,-6.50752 1.95601,-10.19404 -0.69505,-3.51671 -2.54807,-6.33981 -5.56967,-8.46099 l 92.33295,-138.54607 c 3.11351,2.0748 6.4262,2.74521 9.94177,2.05962 3.706,-0.91177 6.59125,-2.88189 8.63684,-5.91266 1.97917,-3.11553 2.58803,-6.47403 1.82771,-10.08496 -0.67555,-3.67734 -2.5655,-6.59121 -5.66383,-8.71211 -2.94344,-2.05417 -6.31369,-2.64527 -10.08496,-1.82772 -0.89765,0.20748 -1.76696,0.41839 -2.59131,0.65393 0.0952,-0.78423 -10e-4,-1.64922 -0.29374,-2.55719 -0.66638,-3.75293 -2.54688,-6.66566 -5.66269,-8.72156 -3.02045,-2.13063 -6.37436,-2.77728 -10.07005,-1.95055 -3.76325,0.75142 -6.67597,2.63192 -8.72156,5.66269 -1.97087,3.12612 -2.58546,6.53187 -1.84262,10.20779 0.68587,3.5923 2.49995,6.42026 5.44569,8.45553 L 117.84393,961.56796 Z M 419.4519,763.08486 c -6.50542,3.43879 -10.7743,8.67341 -12.8161,15.70269 -2.1271,6.94223 -1.42186,13.61453 2.11344,20.03578 22.38766,41.47938 54.12675,59.14637 95.23274,53.0316 2.68319,-0.38391 5.47206,-0.92758 8.3537,-1.6038 7.13911,-1.54984 12.76155,-5.29712 16.82466,-11.28537 3.84464,-6.00516 5.04401,-12.57099 3.58866,-19.69863 -1.44476,-7.13595 -5.20264,-12.75008 -11.25588,-16.83067 -6.06956,-4.02503 -12.68864,-5.25963 -19.81601,-3.72754 -8.65862,1.50928 -16.43023,0.84433 -23.36206,-2.00059 -9.21858,-3.83187 -16.87851,-11.50144 -22.9752,-23.04649 -3.6212,-6.34539 -8.87444,-10.53983 -15.74195,-12.57158 -7.01897,-2.12683 -13.74337,-1.46626 -20.146,1.9946 z m 20.19815,-278.1895 c -3.347,1.27172 -5.75155,3.62615 -7.21137,7.04438 L 278.14561,429.82432 c 1.28974,-3.43888 1.22917,-6.81149 -0.22179,-10.10354 -1.49876,-3.45125 -3.99377,-5.88245 -7.50737,-7.26755 -3.35297,-1.36561 -6.71728,-1.29445 -10.10239,0.21234 -3.45153,1.42203 -5.97749,3.82884 -7.58963,7.23818 -1.29919,3.43773 -1.12382,6.89139 0.53442,10.37158 0.29022,0.92686 0.62483,1.72489 1.03104,2.40697 -0.81404,0.1505 -1.61234,0.40838 -2.37716,0.78537 -3.53629,1.48845 -5.99239,3.95167 -7.36718,7.38023 -1.45037,3.41938 -1.39897,6.86759 0.18368,10.3386 1.41373,3.44093 3.8426,5.86411 7.27116,7.23889 3.42855,1.37478 6.87905,1.30449 10.33975,-0.19312 3.36534,-1.4229 5.77448,-3.81512 7.22398,-7.14833 l 154.401,62.25317 c -1.27943,3.35383 -1.20826,6.71815 0.21349,10.09294 1.43147,3.45267 3.88983,5.86984 7.39398,7.25379 3.43888,1.28975 6.80319,1.21858 10.10239,-0.21234 3.52712,-1.41285 6.01987,-3.86204 7.48886,-7.35587 1.28057,-3.36329 1.21886,-6.72646 -0.22179,-10.10354 -0.26357,-1.06745 -0.71987,-1.88983 -1.37118,-2.44824 0.97324,-0.1983 1.86231,-0.4931 2.62827,-0.87955 3.37566,-1.50793 5.76077,-4.01812 7.13527,-7.52341 1.53541,-3.40907 1.54442,-6.80201 0.0471,-10.18597 -1.50706,-3.46184 -3.92763,-5.87442 -7.2806,-7.24003 -3.57859,-1.40258 -7.07518,-1.34747 -10.45084,0.16047 z m 198.03243,124.61307 c -2.21693,-2.90561 -5.20508,-4.59128 -8.9845,-5.04987 -3.6099,-0.59142 -6.89384,0.16063 -9.86357,2.2739 l -3.29217,-4.47422 c 0.66069,1.19233 1.81551,2.89525 3.45616,5.09814 l -51.86752,-62.51555 c -0.0759,-0.0859 -0.15517,-0.14347 -0.22131,-0.15149 -0.50129,-0.53062 -0.9917,-0.99281 -1.51019,-1.3817 -0.21672,-0.18929 -0.43918,-0.33133 -0.66507,-0.44503 -0.14114,-0.18012 -0.28314,-0.27405 -0.44377,-0.29354 -0.60439,-0.31303 -1.24171,-0.5917 -1.94031,-0.83946 l -69.00642,-27.06906 c 0.16063,0.0195 0.31181,0.0378 0.47243,0.0573 1.45982,-3.41824 1.46998,-6.82063 0.0376,-10.18711 -1.47899,-3.53514 -3.92731,-6.11408 -7.32606,-7.73452 -3.18432,-1.41226 -6.55235,-1.38949 -10.08864,0.099 -3.59238,1.31865 -6.15183,3.60634 -7.65944,6.86538 -1.45982,3.41824 -1.41274,6.98097 0.14125,10.6882 0.38645,0.76597 0.6973,1.52276 0.93256,2.27038 -0.67116,0.15826 -1.45543,0.37949 -2.37285,0.67085 -3.62132,1.47813 -6.13926,3.8188 -7.56096,7.00197 -1.54458,3.48465 -1.5685,7.00042 -0.0801,10.53671 1.34759,3.4329 3.67854,5.87296 7.02119,7.32361 3.33348,1.52623 6.76792,1.58822 10.29618,0.16591 3.44121,-1.33699 5.95342,-3.63041 7.53547,-6.87083 l 4.99607,2.28405 c 0.61384,0.31418 1.24772,0.6212 1.92655,0.95284 l 51.12506,21.304 -28.91979,82.20457 c -14.46418,-2.63712 -23.62642,-5.90608 -27.46898,-9.79512 0.23867,-1.25579 3.87596,-4.52487 10.90473,-9.82728 2.73494,-2.07465 4.34498,-4.75559 4.81239,-8.05456 0.49547,-3.37226 -0.2463,-6.42485 -2.24536,-9.15061 -2.06749,-2.7149 -4.75788,-4.32609 -8.04625,-4.8018 -3.38285,-0.48717 -6.43173,0.30299 -9.15607,2.36934 -22.40092,16.7065 -27.75013,31.39768 -16.02045,44.08644 0.20668,0.35106 0.4712,0.69955 0.83021,1.0595 5.40457,7.53014 18.43787,13.42602 39.08931,17.69597 l -5.88517,18.95018 c -0.85895,-0.19051 -1.76601,-0.30057 -2.71173,-0.32903 -17.51792,-1.88591 -29.1798,-4.94044 -34.97619,-9.16243 -0.0664,-0.0848 -0.142,-0.0939 -0.24566,-0.0298 0.49322,-1.3783 1.53537,-3.09268 3.14533,-5.14084 2.26117,-2.83203 3.15977,-6.04992 2.73016,-9.62071 -0.36376,-3.63951 -1.99887,-6.59916 -4.92539,-8.87179 -2.83203,-2.26117 -6.03932,-3.16807 -9.62071,-2.73015 -3.62892,0.35545 -6.58513,1.96221 -8.84744,4.8037 -4.52462,5.68296 -7.28688,10.98534 -8.28676,15.90712 -0.42653,1.5398 -0.61684,3.10826 -0.57324,4.72427 -0.72797,7.97489 2.41757,15.00081 9.4412,21.03997 2.64188,2.56408 6.40074,4.85141 11.26485,6.87976 l 0.12283,0.0149 0.10792,0.13773 c 0.009,-0.0756 0.0375,-0.0721 0.11339,0.0138 8.52915,3.50853 20.3099,6.13645 35.36116,7.88604 l -6.64422,21.255 c -1.0104,-0.28559 -2.0357,-0.44835 -3.05587,-0.49543 -11.08378,-0.86551 -18.61759,-2.70006 -22.59199,-5.50252 0.11465,-0.94486 0.73501,-2.42279 1.86223,-4.44323 1.65793,-3.15451 1.98475,-6.48012 0.96873,-9.95909 -1.00684,-3.55455 -3.13419,-6.17124 -6.37374,-7.83948 l -0.0985,-0.13659 -0.11339,-0.0138 c -3.15451,-1.65792 -6.44691,-1.94236 -9.8606,-0.83214 -3.46979,0.94043 -6.0381,3.06406 -7.72381,6.3686 -8.44162,15.52401 -7.30956,27.60759 3.39615,36.25075 6.08558,6.5006 17.94347,10.54726 35.56766,12.11049 l -6.86134,21.93814 c -0.95043,3.24995 -0.65218,6.40212 0.89473,9.45653 1.4699,2.97795 3.87592,4.95733 7.19315,5.90633 3.23963,1.03546 6.34943,0.77043 9.32825,-0.78566 2.97882,-1.55608 4.95819,-3.9621 5.90518,-7.1837 l 6.41618,-20.3239 c 9.5532,6.92135 17.73817,10.57987 24.55033,11.01335 14.94606,2.6956 24.86584,-4.94057 29.74647,-22.8813 0.80727,-3.33443 0.38647,-6.42478 -1.26354,-9.26159 -1.63998,-2.99859 -4.08122,-4.92471 -7.33919,-5.809 -3.24967,-0.87369 -6.32598,-0.48954 -9.23953,1.16076 -3.00689,1.62938 -4.93874,4.11786 -5.82161,7.44312 -0.81637,2.77724 -1.85393,4.45382 -3.13873,5.00741 -5.06466,-1.00763 -11.66022,-4.88556 -19.80673,-11.62664 l 7.2354,-22.96657 c 12.11233,9.45621 22.56092,15.8726 31.34463,19.25861 4.59041,1.75545 8.70563,2.68623 12.36111,2.82298 17.99944,2.50041 28.10962,-7.33699 30.33283,-29.53111 0.26072,-3.65002 -0.7413,-6.84924 -3.03441,-9.6011 -2.28422,-2.90418 -5.24375,-4.50968 -8.89148,-4.7893 -1.25666,-0.15249 -2.49845,-0.11141 -3.72882,0.15157 -2.13545,0.37367 -4.09288,1.33462 -5.87229,2.88284 -2.91363,2.28307 -4.50624,5.2154 -4.78499,8.77694 -0.39209,3.23141 -0.98016,5.15429 -1.77478,5.77694 -7.60604,-1.2393 -18.76213,-7.75112 -33.46941,-19.52602 -1.39684,-1.05155 -2.85642,-1.82309 -4.3859,-2.33466 l 6.13526,-19.98407 c 18.88373,12.99115 33.43734,19.47419 43.68087,19.44197 1.42732,0.0102 2.8163,-0.13766 4.13028,-0.45761 9.72512,-1.05389 16.20674,-6.50898 19.48981,-16.34065 2.26674,-6.19663 2.49089,-15.07636 0.70195,-26.64521 -0.45069,-2.21191 -1.30398,-4.10834 -2.5387,-5.7059 -0.69709,-0.81324 -1.53794,-1.54806 -2.48243,-2.21874 -2.72842,-2.00891 -5.74733,-2.72996 -9.09338,-2.1772 -3.33573,0.46773 -5.97899,2.10288 -7.92033,4.90661 -2.0089,2.72841 -2.72996,5.74732 -2.16775,9.09452 1.05117,6.34994 1.14218,11.28903 0.23982,14.77492 -6.18971,-0.34837 -15.92985,-5.09684 -29.20498,-14.21476 -1.9268,-1.34596 -3.51684,-2.93869 -4.81853,-4.77447 -1.29251,-1.91138 -1.64942,-2.99974 -1.04468,-3.24275 l 24.29887,-68.85358 35.74837,46.17819 c -2.01483,2.06615 -3.17589,4.52352 -3.52098,7.36753 -0.31659,3.87335 0.61439,7.342 2.80238,10.40708 1.98131,2.71403 4.89846,4.35274 8.7632,4.89838 3.76079,0.53303 7.14495,-0.2548 10.11468,-2.36807 2.91363,-2.28307 4.56238,-5.362 4.95456,-9.22617 0.10547,-0.86927 0.20636,-1.70074 0.30152,-2.48497 0.61356,0.23744 1.46421,0.41735 2.56969,0.55149 3.77024,0.53418 7.02098,-0.26025 9.74619,-2.41278 3.09288,-2.33802 4.85501,-5.40319 5.3136,-9.18261 0.57454,-3.70782 -0.28145,-7.00437 -2.47948,-9.90768 z m 0.46694,25.70364 c -0.16149,0.0667 -0.37825,0.19379 -0.65373,0.40965 -2.89473,2.28536 -4.5993,5.27122 -5.04872,8.97505 -0.19023,0.93568 -0.21897,1.80467 -0.0696,2.62816 -0.85923,-0.26725 -1.74767,-0.45175 -2.69252,-0.5664 -3.62797,-0.36351 -6.90879,0.59985 -9.82127,2.87347 -2.98922,2.2739 -4.70439,5.26806 -5.1538,8.97189 -0.44827,3.69438 0.46325,7.00726 2.74632,9.92089 2.34834,3.00784 5.34824,4.67576 8.97506,5.04872 3.61907,0.51584 6.87067,-0.36478 9.7843,-2.64785 l 102.66344,131.018 c -2.84721,2.36783 -4.47161,5.32507 -4.90154,8.86827 -0.383,3.78859 0.57004,7.15445 2.85426,10.05863 2.27362,2.91248 5.23687,4.56637 8.87657,4.91213 3.75851,0.55193 7.14469,-0.33153 10.12445,-2.60658 2.92079,-2.26302 4.57555,-5.31245 4.95025,-9.11164 0.11465,-0.94485 0.18003,-1.79981 0.1913,-2.6038 0.68915,0.24661 1.51604,0.38529 2.47121,0.4149 3.7691,0.54363 7.11404,-0.31607 10.02767,-2.59914 2.91363,-2.28307 4.60045,-5.28067 5.04987,-8.9845 0.45974,-3.78887 -0.4578,-7.13124 -2.73972,-10.05432 -2.27477,-2.90304 -5.30902,-4.60389 -9.09789,-5.06363 -3.62824,-0.44024 -6.85264,0.45326 -9.68037,2.66046 L 654.36871,656.72932 c 1.50335,-1.16944 2.67287,-2.59032 3.51573,-4.24259 0.73975,-1.43468 1.19949,-2.9321 1.39095,-4.51 0.20063,-1.6535 0.11808,-3.26465 -0.25824,-4.82517 -0.40463,-1.88033 -1.27998,-3.67398 -2.59171,-5.34799 -2.29224,-2.83804 -5.28613,-4.47647 -8.98996,-4.92589 -3.40033,-0.42218 -6.4764,0.35509 -9.28606,2.33439 z m 170.26887,176.50753 0.0149,-0.12283 c -0.14114,-0.18011 -0.28429,-0.2646 -0.44492,-0.28409 l 0.43001,0.40692 z" />
  <path
     id="path3385"
     style="clip-rule:evenodd;fill:#ffffff;fill-opacity:1;fill-rule:evenodd"
     d="m 622.48077,443.30267 c 0.23621,0.0287 0.29718,0.2374 0.16399,0.62392 l -3.22483,29.57972 c -0.28322,0.35873 -0.61937,0.44258 -0.99787,0.24325 l -20.40084,-11.70832 c -0.20842,-0.17869 -0.35327,-0.4072 -0.40134,-0.64314 -0.0469,-0.24538 0.0905,-0.43004 0.43127,-0.55169 l 23.47532,-17.65954 c 0.33014,-0.11334 0.66084,-0.0732 0.9543,0.1158 z M 612.0868,407.51633 c 3.7291,2.21661 6.10147,5.34241 7.12658,9.37856 1.09038,4.13036 0.6123,8.0704 -1.43309,11.81069 -1.99866,3.27615 -4.75167,5.57871 -8.26961,6.91598 -0.41518,0.10302 -0.78427,0.22123 -1.11441,0.33457 -4.04647,1.11015 -7.93468,0.60001 -11.6824,-1.54216 -0.21759,-0.10311 -0.44835,-0.25574 -0.66737,-0.42613 -3.25638,-2.08256 -5.42149,-5.02022 -6.47526,-8.82016 -1.25128,-4.22658 -0.7732,-8.16663 1.43309,-11.81068 2.13158,-3.73941 5.27257,-6.15789 9.39462,-7.25886 4.10201,-1.09382 8.02316,-0.61803 11.68785,1.41819 z m 47.83642,27.6259 c 3.06975,1.72434 5.24378,4.1933 6.53385,7.38912 0.23613,0.66144 0.43333,1.32774 0.59387,1.98 1.17657,4.13123 0.70307,8.03348 -1.41818,11.68785 -2.13158,3.73941 -5.27256,6.15789 -9.39462,7.25886 -4.13151,1.09983 -8.02917,0.58854 -11.6824,-1.54216 -3.72996,-2.13043 -6.10234,-5.25624 -7.12658,-9.37857 -1.19403,-4.06624 -0.67559,-7.94386 1.54217,-11.6824 0.21767,-0.52967 0.52983,-1.04788 0.90813,-1.55806 2.09251,-2.78538 4.88355,-4.69023 8.36251,-5.70625 4.05449,-1.17629 7.95101,-0.65555 11.68125,1.55161 z m 9.79195,-64.0271 c -1.40689,-0.88979 -2.85157,-1.78415 -4.34349,-2.68426 -15.46668,-8.91404 -31.82266,-11.05205 -49.09401,-6.43637 -2.0616,0.55521 -4.09343,1.18115 -6.09779,1.89671 -14.21951,5.30237 -25.24702,14.79837 -33.06251,28.48081 l -13.34125,22.95436 c -3.77946,6.73215 -3.74044,12.96886 0.12651,18.71128 0.55596,0.63313 2.41594,2.76676 5.56706,6.42809 1.53675,1.8739 2.73051,3.57195 3.57898,5.11305 0.48065,0.70069 0.78779,1.4091 0.94747,2.14755 1.85606,3.66718 2.9056,6.94887 3.10968,9.84992 0.18023,5.78406 -2.072,12.73028 -6.73293,20.87991 l 8.97505,5.04872 5.47055,-9.52789 c 0.49172,-0.81281 1.20158,-1.36905 2.10955,-1.66156 0.91655,-0.20518 1.80958,-0.0585 2.71458,0.46361 0.81281,0.49172 1.36075,1.19099 1.65211,2.10841 0.20633,0.9071 0.0963,1.81416 -0.33018,2.72118 l -5.58393,9.51413 7.16188,4.10964 5.48,-9.52674 c 0.50231,-0.82112 1.19786,-1.41744 2.1339,-1.78325 0.9071,-0.20633 1.80013,-0.0596 2.69683,0.45187 0.82112,0.50231 1.34071,1.19815 1.54703,2.10525 0.24531,0.58585 0.29591,1.19601 0.13406,1.81874 -0.0378,0.3118 -0.1524,0.62388 -0.34141,0.91734 l -5.4611,9.52904 5.81683,3.34241 5.59338,-9.51299 c 0.30385,-0.5288 0.58221,-0.92647 0.86685,-1.21791 0.33932,-0.18893 0.71299,-0.34493 1.12932,-0.45741 0.98383,-0.2066 1.88516,-0.0493 2.69797,0.44242 0.3785,0.19933 0.70861,0.40238 1.01037,0.60198 0.27282,0.35909 0.49524,0.81752 0.66381,1.40365 0.11219,0.33959 0.19834,0.65685 0.23495,0.98727 -8e-5,0.63277 -0.1479,1.21886 -0.45175,1.74766 l -5.57448,9.51528 7.38319,4.26114 c 3.64654,-6.2689 7.35788,-10.93838 11.17066,-13.99441 0.95498,-0.6799 1.91596,-1.33031 2.86176,-1.93462 0.1698,-0.0561 0.38312,-0.15485 0.63768,-0.27737 1.1156,-0.66041 2.41128,-1.14557 3.89533,-1.44488 1.82452,-0.49769 3.89411,-0.80265 6.22881,-0.92204 3.59143,-0.59969 9.24253,-2.8e-4 16.92266,1.81368 6.88803,0.51939 12.26014,-2.58713 16.11518,-9.31011 l 13.36561,-23.07604 c 1.93399,-3.53328 3.57736,-7.121 4.90522,-10.79495 4.44899,-12.2501 4.86804,-25.02753 1.28664,-38.33832 -1.50596,-5.44635 -3.51474,-10.54145 -6.06044,-15.24149 -4.70324,-8.49009 -11.28552,-15.5591 -19.71619,-21.22249 z" />
  <g
     id="g3427"
     transform="matrix(0.67140612,0,0,0.67140612,-611.73507,-695.12971)">
    <g
       style="fill:#454545;fill-opacity:1"
       transform="matrix(48.494348,0,0,48.494348,1969.249,325.21078)"
       id="g3270" />
  </g>
  <g
     id="g3483"
     transform="matrix(0.56411062,0,0,0.56411062,443.81616,441.50341)" />
</svg>
