<?xml version="1.0" encoding="UTF-8" standalone="no"?>
<!-- Created with Inkscape (http://www.inkscape.org/) -->

<svg
   xmlns:dc="http://purl.org/dc/elements/1.1/"
   xmlns:cc="http://creativecommons.org/ns#"
   xmlns:rdf="http://www.w3.org/1999/02/22-rdf-syntax-ns#"
   xmlns:svg="http://www.w3.org/2000/svg"
   xmlns="http://www.w3.org/2000/svg"
   xmlns:sodipodi="http://sodipodi.sourceforge.net/DTD/sodipodi-0.dtd"
   xmlns:inkscape="http://www.inkscape.org/namespaces/inkscape"
   height="1080"
   width="1440"
   viewBox="0 0 1440 1080"
   id="svg2"
   version="1.1"
   inkscape:version="0.91 r13725"
   sodipodi:docname="email-attachement.svg"
   inkscape:export-filename="/home/hsablonniere/dev/presentation-documentation-as-code/src/images/email-attachement.png"
   inkscape:export-xdpi="200"
   inkscape:export-ydpi="200">
  <defs
     id="defs8" />
  <sodipodi:namedview
     pagecolor="#ffffff"
     bordercolor="#666666"
     borderopacity="1"
     objecttolerance="10"
     gridtolerance="10"
     guidetolerance="10"
     inkscape:pageopacity="0"
     inkscape:pageshadow="2"
     inkscape:window-width="2560"
     inkscape:window-height="1406"
     id="namedview6"
     showgrid="false"
     inkscape:zoom="0.89702956"
     inkscape:cx="637.94692"
     inkscape:cy="632.1457"
     inkscape:window-x="0"
     inkscape:window-y="0"
     inkscape:window-maximized="1"
     inkscape:current-layer="svg2"
     units="px" />
  <metadata
     id="metadata4">
    <rdf:RDF>
      <cc:Work
         rdf:about="">
        <dc:format>image/svg+xml</dc:format>
        <dc:type
           rdf:resource="http://purl.org/dc/dcmitype/StillImage" />
        <dc:title />
      </cc:Work>
    </rdf:RDF>
  </metadata>
  <path
     id="path5027"
     style="fill:#454545;fill-opacity:1;fill-rule:evenodd;stroke:none;stroke-width:1"
     d="m 766.67798,663.55945 c 0,-36.39467 29.50371,-65.89837 65.89837,-65.89837 36.39467,0 65.89838,29.5037 65.89838,65.89837 0,36.39467 -29.50371,65.89837 -65.89838,65.89837 -36.39466,0 -65.89837,-29.5037 -65.89837,-65.89837 l 0,0 0,0 0,0 z m 153.76287,0 c 0,-48.52622 -39.33827,-87.8645 -87.8645,-87.8645 -48.52622,0 -87.86449,39.33828 -87.86449,87.8645 0,48.52622 39.33827,87.8645 87.86449,87.8645 48.52623,0 87.8645,-39.33828 87.8645,-87.8645 l 0,0 0,0 0,0 z m -313.01727,-143.94643 80.72124,75.19656 c 4.32443,4.02845 11.70508,4.03386 15.9699,0.0614 0.85925,-0.81364 0.85925,-0.81364 4.72572,-4.47481 5.15537,-4.88155 5.15537,-4.88155 12.45908,-11.79704 12.88907,-12.20385 25.77922,-24.4077 37.83718,-35.82225 8.99893,-8.51875 17.04879,-16.13825 24.03318,-22.74824 -0.0115,-0.20581 -0.0173,-0.41316 -0.0173,-0.62187 l 0,-157.88477 c 0,-6.08757 -4.89219,-10.97981 -10.95474,-10.97981 l -153.8195,0 c -6.06359,0 -10.95475,4.91233 -10.95475,11.02418 l 0,158.04666 0,0 0,0 0,0 0,0 z m -21.96613,-20.46273 -8.98827,-8.37311 c -4.43835,-4.13457 -11.38808,-3.88832 -15.52266,0.55002 -4.13457,4.43835 -3.88832,11.38807 0.55002,15.52265 l 66.89174,62.31357 c -1.44972,1.4004 -2.9676,2.86651 -4.54369,4.38867 -8.73382,8.43497 -17.47254,16.86988 -25.6352,24.74206 -20.32242,19.59906 -33.69555,32.45205 -36.71285,35.26284 -4.43834,4.13458 -4.68459,11.08431 -0.55002,15.52266 4.13458,4.43834 11.08431,4.68459 15.52266,0.55001 3.16371,-2.94718 16.46341,-15.7296 36.86914,-35.409 8.28642,-7.99154 17.02872,-16.4299 25.76599,-24.8682 1.88155,-1.81718 3.68019,-3.5545 5.379,-5.19558 l 28.68888,26.72537 c 12.75455,11.88161 33.20994,11.89659 45.98057,0 0.92448,-0.87492 0.92448,-0.87492 4.79077,-4.53591 5.15515,-4.88134 5.15515,-4.88134 12.4586,-11.79659 3.47526,-3.29051 6.9506,-6.58101 10.40917,-9.85556 l 3.60474,3.40138 c 4.41179,4.1629 11.36296,3.96113 15.52586,-0.45064 4.1629,-4.41179 3.96114,-11.36295 -0.45064,-15.52585 l -2.7033,-2.5508 0,0 c 3.87355,-3.66714 7.69015,-7.28023 11.42413,-10.81496 32.73629,-30.9895 53.19384,-50.3443 54.86754,-51.90345 4.43835,-4.13457 4.6846,-11.0843 0.55002,-15.52265 -4.1346,-4.43836 -11.08433,-4.68461 -15.52268,-0.55004 -0.63596,0.59244 -3.72439,3.50852 -8.98827,8.48578 l 0,-57.77416 30.91985,24.73588 c 6.8687,5.49496 13.0124,18.2668 13.0124,27.06899 l 0,54.94363 c 0,6.06577 4.91728,10.98306 10.98306,10.98306 6.06577,0 10.98306,-4.91729 10.98306,-10.98306 l 0,-54.94363 c 0,-15.47783 -9.17908,-34.55981 -21.25639,-44.22165 l -41.83083,-33.46467 c -0.87408,-0.69926 -1.82223,-1.24333 -2.81115,-1.63591 l 0,0 0,-52.44945 c 0,-18.21908 -14.72672,-32.94594 -32.92087,-32.94594 l -153.8195,0 c -18.21644,0 -32.92088,14.7681 -32.92088,32.99031 l 0,52.76873 c -1.28165,0.39495 -2.51201,1.03295 -3.62276,1.92156 l -41.02014,32.81611 c -12.03254,9.62602 -21.25547,28.78904 -21.25547,44.22091 l 0,164.80256 c 0,18.21586 14.76523,32.92088 32.98519,32.92088 l 164.70993,-10e-6 c 6.06578,0 10.98306,-4.91729 10.98306,-10.98307 0,-6.06577 -4.91728,-10.98306 -10.98306,-10.98306 l -164.70994,10e-6 c -6.10844,0 -11.01905,-4.89058 -11.01905,-10.95475 l 0,-164.80256 c 0,-8.75456 6.18623,-21.60807 13.01146,-27.06825 l 30.92078,-24.73662 0,57.66149 0,0 0,0 0,0 0,0 z" />
  <path
     id="path3212"
     style="fill:#2179c5;fill-opacity:1;fill-rule:evenodd;stroke:none;stroke-width:1"
     d="m 843.55942,638.83453 c 0,-1.53175 1.19893,-2.73273 2.74576,-2.73273 1.49443,0 2.74577,1.25341 2.74577,2.73273 l 0,46.65532 c 0,6.10077 -4.91573,11.01879 -11.03668,11.01879 l -10.87583,0 c -6.09699,0 -11.03668,-4.93582 -11.03668,-11.01879 l 0,-32.87774 c 0,-6.06578 -4.91729,-10.98307 -10.98306,-10.98307 -6.06578,0 -10.98306,4.91729 -10.98306,10.98307 l 0,32.87774 c 0,18.21837 14.77811,32.98491 33.0028,32.98491 l 10.87583,0 c 18.25482,0 33.0028,-14.75489 33.0028,-32.98491 l 0,-46.65532 c 0,-13.6027 -11.07771,-24.69886 -24.71189,-24.69886 -13.68682,0 -24.71189,11.04398 -24.71189,24.69886 l 0,46.69677 c 0,3.05493 2.48168,5.48581 5.54298,5.48581 l 10.88016,0 c 3.1083,0 5.54299,-2.45608 5.54299,-5.48581 l 0,-46.69677 0,0 z M 678.81348,394.47443 c 6.06578,0 10.98307,-4.91728 10.98307,-10.98306 0,-6.06578 -4.91729,-10.98307 -10.98307,-10.98307 l -38.44071,0 c -6.06579,0 -10.98307,4.91729 -10.98307,10.98307 0,6.06578 4.91728,10.98306 10.98307,10.98306 l 38.44071,0 0,0 z m 60.40684,43.93225 c 6.06578,0 10.98307,-4.91729 10.98307,-10.98307 0,-6.06578 -4.91729,-10.98306 -10.98307,-10.98306 l -98.84755,0 c -6.06579,0 -10.98307,4.91728 -10.98307,10.98306 0,6.06578 4.91728,10.98307 10.98307,10.98307 l 98.84755,0 0,0 0,0 0,0 z m -32.94918,43.93225 c 6.06577,0 10.98306,-4.91729 10.98306,-10.98307 0,-6.06578 -4.91729,-10.98306 -10.98306,-10.98306 l -65.89837,0 c -6.06579,0 -10.98307,4.91728 -10.98307,10.98306 0,6.06578 4.91728,10.98307 10.98307,10.98307 l 65.89837,0 0,0 0,0 0,0 z m 43.93225,43.93224 c 6.06577,0 10.98306,-4.91728 10.98306,-10.98306 0,-6.06577 -4.91729,-10.98306 -10.98306,-10.98306 l -109.83062,0 c -6.06579,0 -10.98307,4.91729 -10.98307,10.98306 0,6.06578 4.91728,10.98306 10.98307,10.98306 l 109.83062,0 0,0 0,0 0,0 z" />
</svg>
