<?xml version="1.0" encoding="UTF-8" standalone="no"?>
<svg
   xmlns:dc="http://purl.org/dc/elements/1.1/"
   xmlns:cc="http://creativecommons.org/ns#"
   xmlns:rdf="http://www.w3.org/1999/02/22-rdf-syntax-ns#"
   xmlns:svg="http://www.w3.org/2000/svg"
   xmlns="http://www.w3.org/2000/svg"
   xmlns:sodipodi="http://sodipodi.sourceforge.net/DTD/sodipodi-0.dtd"
   xmlns:inkscape="http://www.inkscape.org/namespaces/inkscape"
   version="1.1"
   x="0px"
   y="0px"
   viewBox="21.368 -0.08 1080 1080"
   enable-background="new 21.368 -0.08 57.157 100"
   xml:space="preserve"
   id="svg2"
   inkscape:version="0.91 r13725"
   sodipodi:docname="inner-force.svg"
   width="1080"
   height="1080"><metadata
     id="metadata16"><rdf:RDF><cc:Work
         rdf:about=""><dc:format>image/svg+xml</dc:format><dc:type
           rdf:resource="http://purl.org/dc/dcmitype/StillImage" /><dc:title /></cc:Work></rdf:RDF></metadata><defs
     id="defs14" /><sodipodi:namedview
     pagecolor="#ffffff"
     bordercolor="#666666"
     borderopacity="1"
     objecttolerance="10"
     gridtolerance="10"
     guidetolerance="10"
     inkscape:pageopacity="0"
     inkscape:pageshadow="2"
     inkscape:window-width="2560"
     inkscape:window-height="1406"
     id="namedview12"
     showgrid="false"
     inkscape:zoom="0.944"
     inkscape:cx="758.49917"
     inkscape:cy="550.62136"
     inkscape:window-x="0"
     inkscape:window-y="0"
     inkscape:window-maximized="1"
     inkscape:current-layer="g3160" /><g
     id="g3160"
     transform="matrix(5.9100461,0,0,5.9100461,266.17947,-2.860571)"
     style="fill:#454545;fill-opacity:1"><path
       inkscape:connector-curvature="0"
       id="path4"
       d="M 49.307,56.211 C 32.512,75.236 21.368,86.895 21.368,86.895 l 14.4,2.397 13.539,-33.081 z"
       style="fill:#2179c5;fill-opacity:1" /><path
       inkscape:connector-curvature="0"
       id="path6"
       d="M 77.764,67.634 C 76.7,66.495 74.909,66.433 73.767,67.502 l -6.39,5.967 0.447,-9.618 c 0.07,-1.561 -1.137,-2.885 -2.695,-2.957 -0.266,-0.011 -0.526,0.019 -0.771,0.075 l -7.983,-2.99 1.585,-4.32 c 0.58,1.847 1.902,3.457 3.795,4.341 3.58,1.684 7.849,0.139 9.53,-3.442 1.681,-3.581 0.14,-7.848 -3.444,-9.53 -2.297,-1.076 -4.871,-0.829 -6.868,0.429 L 67.11,28.723 c 0.542,-1.466 -0.214,-3.092 -1.679,-3.629 -1.468,-0.538 -3.094,0.213 -3.63,1.679 L 50.25,58.256 c -0.018,0.05 -0.035,0.102 -0.048,0.152 l -9.979,23.854 0.036,0.021 c -0.113,0.205 -0.216,0.414 -0.298,0.641 l -13.066,36.315 c -0.792,2.208 0.353,4.639 2.559,5.427 0.473,0.174 0.958,0.254 1.435,0.254 1.739,0 3.369,-1.078 3.993,-2.809 l 12.941,-35.976 2.965,1.509 -6.642,11.377 c -1.184,2.021 -0.5,4.622 1.522,5.805 0.673,0.393 1.409,0.578 2.133,0.578 1.461,0 2.88,-0.754 3.669,-2.103 l 9.634,-16.496 c 1.183,-2.022 0.498,-4.622 -1.523,-5.803 -0.316,-0.187 -0.649,-0.318 -0.987,-0.414 l 3.098,-6.596 -0.284,6.157 c -0.054,1.149 0.598,2.216 1.638,2.698 0.38,0.174 0.787,0.261 1.186,0.261 0.703,0 1.397,-0.261 1.933,-0.762 L 77.63,71.63 c 1.141,-1.065 1.199,-2.854 0.134,-3.996 z"
       style="fill:#454545;fill-opacity:1" /></g><text
     xml:space="preserve"
     style="font-style:normal;font-weight:normal;font-size:56.56916809px;line-height:125%;font-family:sans-serif;letter-spacing:0px;word-spacing:0px;fill:#454545;fill-opacity:1;stroke:none;stroke-width:1px;stroke-linecap:butt;stroke-linejoin:miter;stroke-opacity:1"
     x="193.19907"
     y="1005.1735"
     id="text3194"
     sodipodi:linespacing="125%"><tspan
       sodipodi:role="line"
       id="tspan3196"
       x="193.19907"
       y="1005.1735"
       style="font-style:normal;font-variant:normal;font-weight:normal;font-stretch:normal;font-family:'Futura PT';-inkscape-font-specification:'Futura PT';fill:#454545;fill-opacity:1">l'homme qui te fait changer d'outil</tspan></text>
<text
     sodipodi:linespacing="125%"
     id="text3198"
     y="904.75073"
     x="561.95312"
     style="font-style:normal;font-weight:normal;font-size:88.63375854px;line-height:125%;font-family:sans-serif;text-align:center;letter-spacing:0px;word-spacing:0px;text-anchor:middle;fill:#2179c5;fill-opacity:1;stroke:none;stroke-width:1px;stroke-linecap:butt;stroke-linejoin:miter;stroke-opacity:1;"
     xml:space="preserve"><tspan
       style="font-style:normal;font-variant:normal;font-weight:500;font-stretch:normal;font-family:'Futura PT';-inkscape-font-specification:'Futura PT Medium';text-align:center;text-anchor:middle;fill:#2179c5;fill-opacity:1;"
       y="904.75073"
       x="561.95312"
       id="tspan3200"
       sodipodi:role="line">NewTool-Man</tspan></text>
</svg>