<?xml version="1.0" encoding="UTF-8" standalone="no"?>
<svg
   xmlns:dc="http://purl.org/dc/elements/1.1/"
   xmlns:cc="http://creativecommons.org/ns#"
   xmlns:rdf="http://www.w3.org/1999/02/22-rdf-syntax-ns#"
   xmlns:svg="http://www.w3.org/2000/svg"
   xmlns="http://www.w3.org/2000/svg"
   xmlns:sodipodi="http://sodipodi.sourceforge.net/DTD/sodipodi-0.dtd"
   xmlns:inkscape="http://www.inkscape.org/namespaces/inkscape"
   version="1.1"
   x="0px"
   y="0px"
   viewBox="21.368 -0.08 1440 1080"
   enable-background="new 21.368 -0.08 57.157 100"
   xml:space="preserve"
   id="svg2"
   inkscape:version="0.91 r13725"
   sodipodi:docname="languages.svg"
   width="1440"
   height="1080"><metadata
     id="metadata16"><rdf:RDF><cc:Work
         rdf:about=""><dc:format>image/svg+xml</dc:format><dc:type
           rdf:resource="http://purl.org/dc/dcmitype/StillImage" /><dc:title></dc:title></cc:Work></rdf:RDF></metadata><defs
     id="defs14"><linearGradient
       id="linearGradient-1"
       y2="182.4254"
       x2="170.09978"
       y1="277.39444"
       x1="223.84882"
       gradientTransform="scale(1.0003805,0.9996196)"
       gradientUnits="userSpaceOnUse"><stop
         id="stop3258"
         offset="0%"
         stop-color="#FB7655" /><stop
         id="stop3260"
         offset="0%"
         stop-color="#FB7655" /><stop
         id="stop3262"
         offset="41%"
         stop-color="#E42B1E" /><stop
         id="stop3264"
         offset="99%"
         stop-color="#990000" /><stop
         id="stop3266"
         offset="100%"
         stop-color="#990000" /></linearGradient><linearGradient
       id="linearGradient-2"
       y2="110.94259"
       x2="246.99156"
       y1="145.0999"
       x1="341.33331"
       gradientTransform="scale(0.73452893,1.3614168)"
       gradientUnits="userSpaceOnUse"><stop
         id="stop3269"
         offset="0%"
         stop-color="#871101" /><stop
         id="stop3271"
         offset="0%"
         stop-color="#871101" /><stop
         id="stop3273"
         offset="99%"
         stop-color="#911209" /><stop
         id="stop3275"
         offset="100%"
         stop-color="#911209" /></linearGradient><linearGradient
       id="linearGradient-3"
       y2="683.8551"
       x2="43.045803"
       y1="819.94696"
       x1="66.722908"
       gradientTransform="scale(2.9266481,0.34168782)"
       gradientUnits="userSpaceOnUse"><stop
         id="stop3278"
         offset="0%"
         stop-color="#871101" /><stop
         id="stop3280"
         offset="0%"
         stop-color="#871101" /><stop
         id="stop3282"
         offset="99%"
         stop-color="#911209" /><stop
         id="stop3284"
         offset="100%"
         stop-color="#911209" /></linearGradient><linearGradient
       id="linearGradient-4"
       y2="191.53035"
       x2="73.846497"
       y1="134.31122"
       x1="60.739094"
       gradientTransform="scale(0.81957374,1.2201465)"
       gradientUnits="userSpaceOnUse"><stop
         id="stop3287"
         offset="0%"
         stop-color="#FFFFFF" /><stop
         id="stop3289"
         offset="0%"
         stop-color="#FFFFFF" /><stop
         id="stop3291"
         offset="23%"
         stop-color="#E57252" /><stop
         id="stop3293"
         offset="46%"
         stop-color="#DE3B20" /><stop
         id="stop3295"
         offset="99%"
         stop-color="#A60003" /><stop
         id="stop3297"
         offset="100%"
         stop-color="#A60003" /></linearGradient><linearGradient
       id="linearGradient-5"
       y2="168.73894"
       x2="128.53514"
       y1="97.991325"
       x1="124.54885"
       gradientTransform="scale(0.99293023,1.0071201)"
       gradientUnits="userSpaceOnUse"><stop
         id="stop3300"
         offset="0%"
         stop-color="#FFFFFF" /><stop
         id="stop3302"
         offset="0%"
         stop-color="#FFFFFF" /><stop
         id="stop3304"
         offset="23%"
         stop-color="#E4714E" /><stop
         id="stop3306"
         offset="56%"
         stop-color="#BE1A0D" /><stop
         id="stop3308"
         offset="99%"
         stop-color="#A80D00" /><stop
         id="stop3310"
         offset="100%"
         stop-color="#A80D00" /></linearGradient><linearGradient
       id="linearGradient-6"
       y2="99.977562"
       x2="168.74266"
       y1="39.124134"
       x1="158.79918"
       gradientTransform="scale(1.1916814,0.83915048)"
       gradientUnits="userSpaceOnUse"><stop
         id="stop3313"
         offset="0%"
         stop-color="#FFFFFF" /><stop
         id="stop3315"
         offset="0%"
         stop-color="#FFFFFF" /><stop
         id="stop3317"
         offset="18%"
         stop-color="#E46342" /><stop
         id="stop3319"
         offset="40%"
         stop-color="#C82410" /><stop
         id="stop3321"
         offset="99%"
         stop-color="#A80D00" /><stop
         id="stop3323"
         offset="100%"
         stop-color="#A80D00" /></linearGradient><linearGradient
       id="linearGradient-7"
       y2="-18.231438"
       x2="119.61152"
       y1="25.336927"
       x1="89.689537"
       gradientTransform="scale(1.7064943,0.58599669)"
       gradientUnits="userSpaceOnUse"><stop
         id="stop3326"
         offset="0%"
         stop-color="#FFFFFF" /><stop
         id="stop3328"
         offset="0%"
         stop-color="#FFFFFF" /><stop
         id="stop3330"
         offset="54%"
         stop-color="#C81F11" /><stop
         id="stop3332"
         offset="99%"
         stop-color="#BF0905" /><stop
         id="stop3334"
         offset="100%"
         stop-color="#BF0905" /></linearGradient><linearGradient
       id="linearGradient-8"
       y2="94.120224"
       x2="18.439789"
       y1="73.07254"
       x1="10.038218"
       gradientTransform="scale(0.50022132,1.9991151)"
       gradientUnits="userSpaceOnUse"><stop
         id="stop3337"
         offset="0%"
         stop-color="#FFFFFF" /><stop
         id="stop3339"
         offset="0%"
         stop-color="#FFFFFF" /><stop
         id="stop3341"
         offset="31%"
         stop-color="#DE4024" /><stop
         id="stop3343"
         offset="99%"
         stop-color="#BF190B" /><stop
         id="stop3345"
         offset="100%"
         stop-color="#BF190B" /></linearGradient><linearGradient
       id="linearGradient-9"
       y2="-3.6165473"
       x2="173.5643"
       y1="199.67352"
       x1="-23.853662"
       gradientTransform="scale(1.0007121,0.99928836)"
       gradientUnits="userSpaceOnUse"><stop
         id="stop3348"
         offset="0%"
         stop-color="#BD0012" /><stop
         id="stop3350"
         offset="0%"
         stop-color="#BD0012" /><stop
         id="stop3352"
         offset="7%"
         stop-color="#FFFFFF" /><stop
         id="stop3354"
         offset="17%"
         stop-color="#FFFFFF" /><stop
         id="stop3356"
         offset="27%"
         stop-color="#C82F1C" /><stop
         id="stop3358"
         offset="33%"
         stop-color="#820C01" /><stop
         id="stop3360"
         offset="46%"
         stop-color="#A31601" /><stop
         id="stop3362"
         offset="72%"
         stop-color="#B31301" /><stop
         id="stop3364"
         offset="99%"
         stop-color="#E82609" /><stop
         id="stop3366"
         offset="100%"
         stop-color="#E82609" /></linearGradient><linearGradient
       id="linearGradient-10"
       y2="234.52769"
       x2="59.489067"
       y1="251.30234"
       x1="111.58875"
       gradientTransform="scale(1.142166,0.87552949)"
       gradientUnits="userSpaceOnUse"><stop
         id="stop3369"
         offset="0%"
         stop-color="#8C0C01" /><stop
         id="stop3371"
         offset="0%"
         stop-color="#8C0C01" /><stop
         id="stop3373"
         offset="54%"
         stop-color="#990C00" /><stop
         id="stop3375"
         offset="99%"
         stop-color="#A80D0E" /><stop
         id="stop3377"
         offset="100%"
         stop-color="#A80D0E" /></linearGradient><linearGradient
       id="linearGradient-11"
       y2="95.504646"
       x2="187.38107"
       y1="140.20869"
       x1="243.40916"
       gradientTransform="scale(0.94352017,1.0598608)"
       gradientUnits="userSpaceOnUse"><stop
         id="stop3380"
         offset="0%"
         stop-color="#7E110B" /><stop
         id="stop3382"
         offset="0%"
         stop-color="#7E110B" /><stop
         id="stop3384"
         offset="99%"
         stop-color="#9E0C00" /><stop
         id="stop3386"
         offset="100%"
         stop-color="#9E0C00" /></linearGradient><linearGradient
       id="linearGradient-12"
       y2="33.085556"
       x2="225.65215"
       y1="60.874901"
       x1="252.32742"
       gradientTransform="scale(0.98714396,1.0130235)"
       gradientUnits="userSpaceOnUse"><stop
         id="stop3389"
         offset="0%"
         stop-color="#79130D" /><stop
         id="stop3391"
         offset="0%"
         stop-color="#79130D" /><stop
         id="stop3393"
         offset="99%"
         stop-color="#9E120B" /><stop
         id="stop3395"
         offset="100%"
         stop-color="#9E120B" /></linearGradient><radialGradient
       id="radialGradient-13"
       r="46.828606"
       fy="141.28091"
       fx="133.75198"
       cy="141.28091"
       cx="133.75198"
       gradientTransform="scale(1.3833774,0.72286854)"
       gradientUnits="userSpaceOnUse"><stop
         id="stop3398"
         offset="0%"
         stop-color="#A80D00" /><stop
         id="stop3400"
         offset="0%"
         stop-color="#A80D00" /><stop
         id="stop3402"
         offset="99%"
         stop-color="#7E0E08" /><stop
         id="stop3404"
         offset="100%"
         stop-color="#7E0E08" /></radialGradient><radialGradient
       id="radialGradient-14"
       r="75.982346"
       fy="212.51147"
       fx="84.096138"
       cy="212.51147"
       cx="84.096138"
       gradientTransform="scale(1.1334019,0.88229959)"
       gradientUnits="userSpaceOnUse"><stop
         id="stop3407"
         offset="0%"
         stop-color="#A30C00" /><stop
         id="stop3409"
         offset="0%"
         stop-color="#A30C00" /><stop
         id="stop3411"
         offset="99%"
         stop-color="#800E08" /><stop
         id="stop3413"
         offset="100%"
         stop-color="#800E08" /></radialGradient><linearGradient
       id="linearGradient-15"
       y2="127.33734"
       x2="18.270512"
       y1="178.54108"
       x1="48.782398"
       gradientTransform="scale(0.70330734,1.4218535)"
       gradientUnits="userSpaceOnUse"><stop
         id="stop3416"
         offset="0%"
         stop-color="#8B2114" /><stop
         id="stop3418"
         offset="0%"
         stop-color="#8B2114" /><stop
         id="stop3420"
         offset="43%"
         stop-color="#9E100A" /><stop
         id="stop3422"
         offset="99%"
         stop-color="#B3100C" /><stop
         id="stop3424"
         offset="100%"
         stop-color="#B3100C" /></linearGradient><linearGradient
       id="linearGradient-16"
       y2="52.359512"
       x2="159.66908"
       y1="19.501831"
       x1="128.57494"
       gradientTransform="scale(1.5472322,0.64631539)"
       gradientUnits="userSpaceOnUse"><stop
         id="stop3427"
         offset="0%"
         stop-color="#B31000" /><stop
         id="stop3429"
         offset="0%"
         stop-color="#B31000" /><stop
         id="stop3431"
         offset="44%"
         stop-color="#910F08" /><stop
         id="stop3433"
         offset="99%"
         stop-color="#791C12" /><stop
         id="stop3435"
         offset="100%"
         stop-color="#791C12" /></linearGradient></defs><sodipodi:namedview
     pagecolor="#ffffff"
     bordercolor="#666666"
     borderopacity="1"
     objecttolerance="10"
     gridtolerance="10"
     guidetolerance="10"
     inkscape:pageopacity="0"
     inkscape:pageshadow="2"
     inkscape:window-width="2560"
     inkscape:window-height="1406"
     id="namedview12"
     showgrid="false"
     inkscape:zoom="0.472"
     inkscape:cx="326.12679"
     inkscape:cy="148.03431"
     inkscape:window-x="0"
     inkscape:window-y="0"
     inkscape:window-maximized="1"
     inkscape:current-layer="svg2" /><text
     sodipodi:linespacing="125%"
     id="text3198"
     y="884.07269"
     x="748.49329"
     style="font-style:normal;font-weight:normal;font-size:88.63375854px;line-height:125%;font-family:sans-serif;text-align:center;letter-spacing:0px;word-spacing:0px;text-anchor:middle;fill:#1185e9;fill-opacity:1;stroke:none;stroke-width:1px;stroke-linecap:butt;stroke-linejoin:miter;stroke-opacity:1"
     xml:space="preserve"><tspan
       style="font-style:normal;font-variant:normal;font-weight:normal;font-stretch:normal;font-family:'Operator Mono';-inkscape-font-specification:'Operator Mono';text-align:center;text-anchor:middle;fill:#1185e9;fill-opacity:1"
       y="884.07269"
       x="748.49329"
       id="tspan3200"
       sodipodi:role="line"><tspan
   style="fill:#454545;fill-opacity:1"
   id="tspan3666">asciidoctor </tspan>everywhere!</tspan></text>
<g
     id="g3200"
     transform="matrix(0.95092602,0,0,0.95092602,1046.5015,255.35154)"><path
       id="path3202"
       d="m 82.553949,267.47252 c 0,0 -13.198429,7.67535 9.392873,10.27259 27.368728,3.12226 41.356568,2.6745 71.517088,-3.03384 0,0 7.92949,4.97199 19.00358,9.27837 -67.61193,28.97734 -153.019112,-1.67843 -99.913541,-16.51712"
       inkscape:connector-curvature="0"
       style="fill:#5382a1" /><path
       id="path3204"
       d="m 74.292131,229.659 c 0,0 -14.803317,10.95773 7.804742,13.29617 29.236127,3.01615 52.324537,3.26284 92.276367,-4.4302 0,0 5.52587,5.60221 14.21498,8.66584 C 106.84137,271.09469 15.79008,249.0759 74.292131,229.659"
       inkscape:connector-curvature="0"
       style="fill:#5382a1" /><path
       id="path3206"
       d="m 143.94182,165.5147 c 16.65955,19.18046 -4.37714,36.44044 -4.37714,36.44044 0,0 42.30144,-21.83726 22.8743,-49.18272 -18.14435,-25.50132 -32.05865,-38.17193 43.26772,-81.858558 0,0 -118.237551,29.530298 -61.76488,94.600838"
       inkscape:connector-curvature="0"
       style="fill:#e76f00" /><path
       id="path3208"
       d="m 233.36401,295.44169 c 0,0 9.7671,8.04771 -10.75665,14.27363 -39.0265,11.82254 -162.432466,15.39258 -196.714124,0.47104 -12.323374,-5.36111 10.786444,-12.80094 18.055913,-14.36207 7.581324,-1.64399 11.913775,-1.33771 11.913775,-1.33771 -13.704844,-9.65446 -88.582517,18.95703 -38.034153,27.15089 137.852739,22.35578 251.292389,-10.06685 215.535239,-26.19578"
       inkscape:connector-curvature="0"
       style="fill:#5382a1" /><path
       id="path3210"
       d="m 88.900887,190.47982 c 0,0 -62.772131,14.90944 -22.229178,20.32361 17.118487,2.2919 51.243751,1.77338 83.030571,-0.88995 25.97795,-2.19136 52.06296,-6.85056 52.06296,-6.85056 0,0 -9.16015,3.92285 -15.78729,8.448 -63.744,16.76474 -186.88558636,8.96559 -151.434706,-8.18269 29.980858,-14.49239 54.357643,-12.84841 54.357643,-12.84841"
       inkscape:connector-curvature="0"
       style="fill:#5382a1" /><path
       id="path3212"
       d="m 201.50644,253.42231 c 64.79872,-33.67191 34.83834,-66.03031 13.9264,-61.67086 -5.12558,1.06682 -7.41096,1.99121 -7.41096,1.99121 0,0 1.90277,-2.98077 5.53704,-4.27101 41.37053,-14.54452 73.18714,42.89722 -13.35482,65.64771 0,9.3e-4 1.00259,-0.89554 1.30234,-1.69705"
       inkscape:connector-curvature="0"
       style="fill:#5382a1" /><path
       id="path3214"
       d="m 162.43898,0.37143273 c 0,0 35.88655,35.89864727 -34.03683,91.10062527 -56.071445,44.281482 -12.78603,69.529602 -0.0233,98.376612 C 95.649047,160.31837 71.629731,134.32273 87.743767,110.12841 111.39538,74.613294 176.91834,57.394269 162.43898,0.37143273"
       inkscape:connector-curvature="0"
       style="fill:#e76f00" /><path
       id="path3216"
       d="m 95.268305,344.66537 c 62.198695,3.98149 157.711825,-2.20905 159.973935,-31.63974 0,0 -4.34828,11.15694 -51.40387,20.01734 -53.08788,9.99051 -118.564304,8.82408 -157.399039,2.42129 9.31e-4,-9.3e-4 7.949963,6.57967 48.828974,9.20111"
       inkscape:connector-curvature="0"
       style="fill:#5382a1" /></g><g
     id="g3235"
     transform="matrix(0.95092602,0,0,0.95092602,192.91222,298.20147)"><path
       id="path3237"
       d="M 0,0 256,0 256,256 0,256 0,0 Z"
       inkscape:connector-curvature="0"
       style="fill:#f7df1e" /><path
       id="path3239"
       d="m 67.311746,213.93229 19.590908,-11.85605 c 3.779454,6.70111 7.217575,12.3709 15.464436,12.3709 7.90511,0 12.88899,-3.09232 12.88899,-15.12026 l 0,-81.79809 24.05749,0 0,82.13821 c 0,24.91733 -14.60581,36.25894 -35.91517,36.25894 -19.245105,0 -30.416457,-9.96734 -36.08706,-21.99568"
       inkscape:connector-curvature="0"
       style="fill:#000000" /><path
       id="path3241"
       d="m 152.38095,211.35441 19.58847,-11.34161 c 5.15657,8.42118 11.85849,14.60703 23.71495,14.60703 9.96815,0 16.32467,-4.98387 16.32467,-11.85767 0,-8.24848 -6.52962,-11.17014 -17.52787,-15.98009 l -6.01275,-2.57951 c -17.35721,-7.38783 -28.87111,-16.66722 -28.87111,-36.25772 0,-18.04353 13.7472,-31.79154 35.22844,-31.79154 15.29417,0 26.29201,5.32764 34.19591,19.24713 l -18.73107,12.02834 c -4.12444,-7.38864 -8.59103,-10.30948 -15.46443,-10.30948 -7.04569,0 -11.51391,4.46781 -11.51391,10.30948 0,7.21758 4.46822,10.13964 14.77771,14.60785 l 6.01396,2.57747 c 20.44953,8.76455 31.96343,17.69936 31.96343,37.8043 0,21.65353 -17.01221,33.50958 -39.86692,33.50958 -22.33945,0 -36.7746,-10.65366 -43.81907,-24.57356"
       inkscape:connector-curvature="0"
       style="fill:#000000" /></g><g
     id="g3437"
     transform="matrix(0.95092602,0,0,0.95092602,620.18172,299.07001)"><path
       id="path3439"
       d="M 197.46734,167.76362 51.946131,254.17327 240.36856,241.38742 254.8808,51.392965 197.46734,167.76362 Z"
       inkscape:connector-curvature="0"
       style="fill:url(#linearGradient-1)" /><path
       id="path3441"
       d="m 240.67731,241.25749 -16.1949,-111.77809 -44.11304,58.24965 60.30794,53.52844 z"
       inkscape:connector-curvature="0"
       style="fill:url(#linearGradient-2)" /><path
       id="path3443"
       d="M 240.896,241.25749 122.24965,231.94372 52.576482,253.93013 240.896,241.25749 Z"
       inkscape:connector-curvature="0"
       style="fill:url(#linearGradient-3)" /><path
       id="path3445"
       d="m 52.743719,253.95457 29.639397,-97.0999 -65.222111,13.94621 35.582714,83.15369 z"
       inkscape:connector-curvature="0"
       style="fill:url(#linearGradient-4)" /><path
       id="path3447"
       d="M 180.35779,188.05065 153.08543,81.225327 75.037588,154.38472 180.35779,188.05065 Z"
       inkscape:connector-curvature="0"
       style="fill:url(#linearGradient-5)" /><path
       id="path3449"
       d="m 248.69306,82.730452 -73.77688,-60.256482 -20.54432,66.418492 94.3212,-6.16201 z"
       inkscape:connector-curvature="0"
       style="fill:url(#linearGradient-6)" /><path
       id="path3451"
       d="M 214.19095,0.99055276 170.7996,24.969648 143.42432,0.66894472 214.19095,0.99055276 Z"
       inkscape:connector-curvature="0"
       style="fill:url(#linearGradient-7)" /><path
       id="path3453"
       d="M 0,203.37206 18.177286,170.2207 3.4733668,130.72724 0,203.37206 Z"
       inkscape:connector-curvature="0"
       style="fill:url(#linearGradient-8)" /><path
       id="path3455"
       d="M 2.4956784,129.4794 17.289648,171.44281 81.572663,157.02062 154.96362,88.81399 175.67518,23.027136 143.06283,0 87.617608,20.750151 C 70.149146,36.997789 36.251658,69.145729 35.029548,69.750352 33.820301,70.367839 12.645628,110.38874 2.4956784,129.4794 l 0,0 z"
       inkscape:connector-curvature="0"
       style="fill:#ffffff" /><path
       id="path3457"
       d="M 54.441809,54.094472 C 92.301507,16.556382 141.10874,-5.6217085 159.8392,13.27598 178.55807,32.173668 158.70714,78.099296 120.84744,115.62452 82.987739,153.14975 34.785126,176.54995 16.067538,157.65226 -2.6629146,138.76744 16.582111,91.619698 54.441809,54.094472 l 0,0 z"
       inkscape:connector-curvature="0"
       style="fill:url(#linearGradient-9)" /><path
       id="path3459"
       d="m 52.743719,253.91598 29.407839,-97.40864 97.665932,31.37608 c -35.31257,33.11276 -74.58734,61.10552 -127.073771,66.03256 l 0,0 z"
       inkscape:connector-curvature="0"
       style="fill:url(#linearGradient-10)" /><path
       id="path3461"
       d="m 155.09226,88.622312 25.07256,99.312558 c 29.49789,-31.01588 55.97267,-64.3602 68.93862,-105.603212 l -94.01118,6.290654 0,0 z"
       inkscape:connector-curvature="0"
       style="fill:url(#linearGradient-11)" /><path
       id="path3463"
       d="M 248.84744,82.833367 C 258.88161,52.550754 261.19719,9.1079397 213.88092,1.04201 l -38.82452,21.444824 73.79104,60.346533 0,0 z"
       inkscape:connector-curvature="0"
       style="fill:url(#linearGradient-12)" /><path
       id="path3465"
       d="m 0,202.93467 c 1.3893467,49.97918 37.44804,50.72402 52.80804,51.1627 L 17.328241,171.23698 0,202.93467 l 0,0 z"
       inkscape:connector-curvature="0"
       style="fill:#9e1209" /><path
       id="path3467"
       d="m 155.23248,88.776683 c 22.66694,13.932057 68.34943,41.911957 69.27566,42.426537 1.43952,0.81045 19.69528,-30.78433 23.83759,-48.640004 l -93.11325,6.213467 0,0 z"
       inkscape:connector-curvature="0"
       style="fill:url(#radialGradient-13)" /><path
       id="path3469"
       d="m 82.112965,156.50734 39.313365,75.84804 c 23.24583,-12.60704 41.44885,-27.96704 58.12101,-44.42051 l -97.434375,-31.42753 0,0 z"
       inkscape:connector-curvature="0"
       style="fill:url(#radialGradient-14)" /><path
       id="path3471"
       d="m 17.173869,171.3399 -5.570251,66.32844 c 10.510151,14.35658 24.969648,15.60442 40.136683,14.48523 -10.973266,-27.31096 -32.89407,-81.92 -34.566432,-80.81367 l 0,0 z"
       inkscape:connector-curvature="0"
       style="fill:url(#linearGradient-15)" /><path
       id="path3473"
       d="m 174.82613,22.65407 78.0993,10.960402 C 248.75739,15.951759 235.95739,4.5539698 214.1395,0.99055276 L 174.82613,22.65407 l 0,0 z"
       inkscape:connector-curvature="0"
       style="fill:url(#linearGradient-16)" /></g></svg>