<svg xmlns="http://www.w3.org/2000/svg" xmlns:xlink="http://www.w3.org/1999/xlink" version="1.1" x="0px" y="0px" viewBox="0 0 100 125" enable-background="new 0 0 100 100" xml:space="preserve"><path d="M37.543,56.746c-1.345,0-2.436-1.09-2.436-2.436c0-0.689,0.288-1.311,0.749-1.754c-1.792,0.394-3.183,1.444-3.406,2.712  c-0.044,0.248-0.26,0.422-0.503,0.422c-0.03,0-0.059-0.002-0.089-0.008c-0.149-0.026-1.001-0.711-1.231-0.876  s-1.742-1.265-1.742-1.265s4.982-2.458,8.208-2.267c1.622,0.096,2.557,0.338,3,0.542c1.504,0.534,2.667,1.502,3.116,2.709  c0.099,0.264-0.037,0.559-0.301,0.657s-0.559-0.037-0.657-0.301c-0.379-1.02-1.507-1.842-2.935-2.238  c0.409,0.436,0.662,1.02,0.662,1.665C39.978,55.656,38.888,56.746,37.543,56.746z M47.883,64.038c1.476-0.106,2.301,0.068,2.6,0.546  c0.211,0.338,0.238,1.752-0.13,2.728c-0.158,0.42-0.317,0.549-0.366,0.564c-0.288,0.086-0.451,0.39-0.364,0.677  c0.071,0.235,0.287,0.387,0.521,0.387c0.052,0,0.105-0.008,0.157-0.023c0.456-0.137,0.816-0.549,1.07-1.222  c0.415-1.102,0.518-2.913,0.034-3.688c-0.692-1.105-2.208-1.153-3.599-1.054c-0.3,0.022-0.525,0.282-0.504,0.581  C47.323,63.834,47.581,64.058,47.883,64.038z M62.393,51.276c-1.622,0.096-2.557,0.338-3,0.542  c-1.504,0.534-2.667,1.502-3.116,2.709c-0.099,0.264,0.037,0.559,0.301,0.657c0.265,0.099,0.559-0.037,0.657-0.301  c0.397-1.07,1.618-1.922,3.145-2.293c-0.44,0.441-0.712,1.049-0.712,1.72c0,1.346,1.091,2.436,2.436,2.436  c1.345,0,2.435-1.09,2.435-2.436c0-0.665-0.267-1.268-0.7-1.707c1.692,0.427,2.984,1.446,3.198,2.665  c0.044,0.248,0.26,0.422,0.503,0.422c0.03,0,0.059-0.002,0.089-0.008c0.149-0.026,1.001-0.711,1.231-0.876s1.742-1.265,1.742-1.265  S65.619,51.085,62.393,51.276z M86.596,60.551c-0.316,5.185,1.053,15.02-4.051,22.615c-5.105,7.594-16.948,10.093-18.301,10.208  c4.096-2.867,3.457-4.396,2.112-5.106c-1.086,0.974-2.225,1.86-3.413,2.636C58.836,93.583,54.192,95,49.512,95  c-4.701,0-9.364-1.428-13.485-4.132c-1.166-0.765-2.285-1.638-3.353-2.595c0.444,1.532,1.426,3.331,1.939,3.731  c-4.358-0.814-17.43-4.482-20.044-18.052c-2.614-13.57-1.164-25.466,1.659-36.387S23.74,14.748,34.966,8.807  s23.119-3.377,25.329-2.494c1.476,0.591,2.03,1.836,2.235,2.6c2.563-0.755,6.773-1.087,12.051,3.586s8.117,13.091,10.349,22.118  C87.161,43.644,86.912,55.366,86.596,60.551z M72.453,42.1c-0.734-3.58-2.536-12.612-6.21-16.192  C65.31,25,63.98,24.128,62.371,23.356c-1.564,3.39-5.946,11.754-13.312,17.347c-3.633,2.758-7.5,4.544-10.995,6.228  c1.836,0.316,3.462,0.986,4.579,1.926c0.216,0.182,0.244,0.505,0.062,0.72c-0.182,0.216-0.504,0.244-0.72,0.062  c-1.279-1.076-3.351-1.755-5.635-1.87c-4.788,2.39-8.605,4.865-9.661,9.958c-0.335-1.713-2.022-3.67-2.243-5.206  c-0.288,4.253-0.44,10.206,0.457,14.583c1.077,5.256,2.114,9.118,4.411,13.189c2.239,3.436,5.013,6.293,8.165,8.361  c3.603,2.363,7.695,3.698,12.034,3.698c4.319,0,8.393-1.323,11.984-3.666c2.973-1.94,5.609-4.583,7.782-7.751  c1.191-2.124,2.151-4.495,2.778-7.171c1.401-5.976,0.988-14.281,1.164-17.292C73.397,53.462,73.187,45.68,72.453,42.1z   M63.361,46.816c-2.784,0-5.392,0.796-6.978,2.13c-0.216,0.182-0.244,0.505-0.062,0.72c0.182,0.216,0.505,0.244,0.721,0.062  c1.407-1.183,3.769-1.89,6.319-1.89c4.07,0,7.507,1.853,7.507,4.046c0,0.282,0.229,0.511,0.511,0.511  c0.283,0,0.511-0.229,0.511-0.511C71.891,49.042,68.144,46.816,63.361,46.816z M60.433,74.579c0.19,0.289,0.232,0.651,0.113,0.975  c-0.027,0.072-2.758,7.238-10.996,7.238c-8.218,0-10.949-6.629-11.061-6.911c-0.128-0.322-0.095-0.685,0.089-0.979  s0.496-0.482,0.841-0.508l10.544-0.785c0.045-0.004,0.09-0.004,0.136-0.002l9.482,0.486C59.926,74.111,60.243,74.291,60.433,74.579z   M57.775,76.179l-7.719-0.395l-8.776,0.653c1.134,1.643,3.636,4.179,8.27,4.179C54.181,80.616,56.667,77.897,57.775,76.179z"/><text x="0" y="115" fill="#000000" font-size="5px" font-weight="bold" font-family="'Helvetica Neue', Helvetica, Arial-Unicode, Arial, Sans-serif">Created by Lil Squid</text><text x="0" y="120" fill="#000000" font-size="5px" font-weight="bold" font-family="'Helvetica Neue', Helvetica, Arial-Unicode, Arial, Sans-serif">from the Noun Project</text></svg>