<svg xmlns="http://www.w3.org/2000/svg" xmlns:xlink="http://www.w3.org/1999/xlink" version="1.1" x="0px" y="0px" viewBox="0 0 100 125" enable-background="new 0 0 100 100" xml:space="preserve"><path d="M83.401,63.508c-0.626,2.761-2.264,5.747-5.077,6.302c-0.358,1.328-0.777,2.63-1.246,3.879  c-0.034,0.089-0.151,0.381-0.151,0.381c-2.753,7.104-7.361,13.034-12.976,16.698C59.706,93.536,54.906,95,50.07,95  c-4.859,0-9.678-1.477-13.938-4.271c-5.581-3.66-10.165-9.569-12.91-16.638l-0.043-0.108c-0.033-0.081-0.065-0.161-0.096-0.243  c-0.476-1.26-0.898-2.569-1.259-3.904c-2.903-0.478-4.587-3.52-5.224-6.329c-0.632-1.118-1.947-3.871-1.645-6.997  c0.366-3.796,1.867-5.663,3.605-6.516c-0.872-2.549-1.636-5.528-1.884-7.4c-0.4-3.021,0.926-17.2,4.987-22.981  c4.061-5.781,5.303-7.964,10.583-11.993C37.524,3.593,48.898,4.767,52.507,7.4c0.956,0.698,1.458,1.687,1.678,2.788  c1.53-1.069,2.77-2.598,6.195-2.739c3.946-0.163,16.397,5.382,19.379,12.668c2.983,7.286,4.709,20.503,2.891,26.405  c-0.356,1.156-0.795,2.32-1.269,3.444c1.763,0.839,3.295,2.706,3.665,6.545C85.348,59.636,84.033,62.39,83.401,63.508z   M80.244,52.467c-1.189,2.449-2.382,4.475-2.977,5.446c0.262-3.955,0.318-6.324,0.468-7.157c0.267-1.485-2.169-4.992-3.15-7.669  c-0.98-2.678,1.504-7.044-0.699-7.913c-2.203-0.869-3.836-1.894-5.651-6.491c-1.815-4.598-6.328-7.84-11.487-6.056  c-5.158,1.785-7.776,1.644-8.897,1.583c-3.962-0.213-5.498-2.358-12.132-1.028c-1.477,0.296-2.828,0.842-4.04,1.547  c-1.343,1.118-2.477,2.422-2.868,3.727c-0.93,3.112,0.183,5.514,0.183,5.514s-1.48-1.586-2.235-3.764  c-0.563,2.992,0.982,7.414,0.982,7.414s-1.814-1.932-2.926-4.382c-0.092,0.344-0.157,0.67-0.19,0.971  c-0.368,3.354-1.487,17.17-0.94,20.95c0.089,0.616,0.237,1.362,0.42,2.186c-0.961-0.544-2.903-1.793-3.913-3.5  c-0.206-0.349-0.421-0.786-0.638-1.274c-1.152,0.698-1.679,2.137-1.878,4.201c-0.29,2.999,1.507,5.727,1.507,5.727  s0.859,4.665,3.443,4.665c0.477,0,0.899-0.073,1.272-0.205c0.139,0.553,0.278,1.106,0.429,1.648  c0.367,1.431,0.805,2.821,1.312,4.162c0.042,0.112,0.088,0.22,0.132,0.33c2.555,6.579,6.725,11.972,11.861,15.341  c3.724,2.443,7.954,3.822,12.437,3.822c4.464,0,8.675-1.368,12.386-3.789c5.166-3.37,9.359-8.786,11.921-15.397  c0.046-0.119,0.095-0.234,0.14-0.354c0.497-1.321,0.927-2.689,1.289-4.095c0.15-0.536,0.287-1.084,0.426-1.631  c0.341,0.105,0.718,0.167,1.141,0.167c2.584,0,3.443-4.665,3.443-4.665s1.797-2.729,1.507-5.727  C82.112,54.595,81.534,53.116,80.244,52.467z M60.174,77.771c0.576-0.277,0.819-0.969,0.542-1.546  c-0.277-0.576-0.969-0.819-1.546-0.542c-3.5,1.682-7.398,2.328-11.276,1.868c-2.474-0.294-4.841-1.021-7.033-2.161  c-0.569-0.296-1.267-0.074-1.562,0.493c-0.295,0.567-0.074,1.267,0.493,1.561c2.441,1.269,5.075,2.079,7.828,2.405  c0.904,0.107,1.808,0.161,2.71,0.161C53.734,80.011,57.093,79.252,60.174,77.771z M37.916,50.19c-1.619,0-2.931,1.312-2.931,2.93  c0,1.619,1.312,2.931,2.931,2.931c1.618,0,2.931-1.312,2.931-2.931S39.534,50.19,37.916,50.19z M62.153,50.19  c-1.619,0-2.931,1.312-2.931,2.93c0,1.619,1.312,2.931,2.931,2.931c1.619,0,2.93-1.312,2.93-2.931S63.772,50.19,62.153,50.19z   M28.19,50.043c0.677-3.032,4.254-5.385,8.503-5.595c2.436-0.12,4.745,0.465,6.508,1.645c0.425,0.285,1.001,0.171,1.286-0.255  c0.284-0.425,0.171-1.001-0.255-1.286c-2.092-1.4-4.803-2.096-7.631-1.956c-5.067,0.25-9.366,3.212-10.221,7.043  c-0.112,0.5,0.203,0.995,0.703,1.107c0.068,0.015,0.136,0.023,0.203,0.023C27.711,50.768,28.093,50.475,28.19,50.043z   M72.961,51.229c0.493-0.136,0.784-0.646,0.648-1.14c-1.042-3.784-5.481-6.531-10.555-6.531c-2.832,0-5.505,0.827-7.526,2.329  c-0.411,0.305-0.496,0.886-0.191,1.297c0.306,0.411,0.886,0.496,1.297,0.191c1.703-1.266,3.983-1.963,6.42-1.963  c4.255,0,7.942,2.174,8.767,5.169c0.113,0.411,0.486,0.681,0.893,0.681C72.796,51.262,72.878,51.251,72.961,51.229z M54.697,66.164  c0.875-1.643,0.753-3.741-0.304-5.22c-0.31-0.434-0.912-0.534-1.346-0.224s-0.534,0.913-0.224,1.346  c0.516,0.723,0.79,2.029,0.171,3.191c-0.444,0.833-2.312,2.949-5.029,1.9c-1.114-0.696-1.554-1.021-1.557-1.024  c-0.427-0.32-1.031-0.234-1.351,0.192c-0.32,0.426-0.234,1.031,0.192,1.351c0.02,0.015,0.513,0.383,1.77,1.165  c0.047,0.029,0.096,0.054,0.147,0.075c0.793,0.322,1.552,0.459,2.264,0.459C51.98,69.375,53.928,67.607,54.697,66.164z"/><text x="0" y="115" fill="#000000" font-size="5px" font-weight="bold" font-family="'Helvetica Neue', Helvetica, Arial-Unicode, Arial, Sans-serif">Created by Lil Squid</text><text x="0" y="120" fill="#000000" font-size="5px" font-weight="bold" font-family="'Helvetica Neue', Helvetica, Arial-Unicode, Arial, Sans-serif">from the Noun Project</text></svg>