<?xml version="1.0" encoding="UTF-8" standalone="no"?>
<!-- Created with Inkscape (http://www.inkscape.org/) -->

<svg
   xmlns:dc="http://purl.org/dc/elements/1.1/"
   xmlns:cc="http://creativecommons.org/ns#"
   xmlns:rdf="http://www.w3.org/1999/02/22-rdf-syntax-ns#"
   xmlns:svg="http://www.w3.org/2000/svg"
   xmlns="http://www.w3.org/2000/svg"
   xmlns:sodipodi="http://sodipodi.sourceforge.net/DTD/sodipodi-0.dtd"
   xmlns:inkscape="http://www.inkscape.org/namespaces/inkscape"
   id="svg2"
   version="1.1"
   inkscape:version="0.91 r13725"
   xml:space="preserve"
   width="1920"
   height="1080"
   viewBox="0 0 1920 1080"
   sodipodi:docname="poster.svg"><metadata
     id="metadata8"><rdf:RDF><cc:Work
         rdf:about=""><dc:format>image/svg+xml</dc:format><dc:type
           rdf:resource="http://purl.org/dc/dcmitype/StillImage" /><dc:title></dc:title></cc:Work></rdf:RDF></metadata><defs
     id="defs6"><clipPath
       clipPathUnits="userSpaceOnUse"
       id="clipPath22"><path
         d="m 0,799.92 799.92,0 L 799.92,0 0,0 0,799.92 Z"
         id="path24"
         inkscape:connector-curvature="0" /></clipPath><clipPath
       clipPathUnits="userSpaceOnUse"
       id="clipPath542"><path
         d="m 0,799.92 799.92,0 L 799.92,0 0,0 0,799.92 Z"
         id="path544"
         inkscape:connector-curvature="0" /></clipPath></defs><sodipodi:namedview
     pagecolor="#ffffff"
     bordercolor="#666666"
     borderopacity="1"
     objecttolerance="10"
     gridtolerance="10"
     guidetolerance="10"
     inkscape:pageopacity="0"
     inkscape:pageshadow="2"
     inkscape:window-width="2560"
     inkscape:window-height="1406"
     id="namedview4"
     showgrid="false"
     inkscape:zoom="3.7763776"
     inkscape:cx="963.89989"
     inkscape:cy="504.09877"
     inkscape:window-x="0"
     inkscape:window-y="0"
     inkscape:window-maximized="1"
     inkscape:current-layer="g10" /><g
     id="g10"
     inkscape:groupmode="layer"
     inkscape:label="social2_07"
     transform="matrix(1.25,0,0,-1.25,0,1080)"><path
       d="m 0,0 1536,0 0,864 L 0,864 0,0 Z"
       style="fill:#ffc170;fill-opacity:1;fill-rule:nonzero;stroke:none"
       id="path12"
       inkscape:connector-curvature="0" /><g
       id="g18"
       transform="translate(368.0393,19.329605)"><g
         id="g20"
         clip-path="url(#clipPath22)"><g
           id="g130"
           transform="translate(206.4307,496.8252)"><path
             d="m 0,0 31.155,0 c 8.227,0 12.175,-1.132 14.993,-14.978 13.176,-64.739 73.807,-114.037 147.382,-114.037 73.784,0 135.164,49.465 147.489,114.602 C 343.132,-3.243 350.037,0 354.704,0 l 32.356,0 c 8.988,0 16.337,-7.351 16.337,-16.339 l 0,-151.224 c 0,-8.988 -7.349,-16.339 -16.337,-16.339 l -387.06,0 c -8.988,0 -16.339,7.351 -16.339,16.339 l 0,151.224 C -16.339,-7.351 -8.988,0 0,0"
             style="fill:#33b59b;fill-opacity:1;fill-rule:evenodd;stroke:none"
             id="path132"
             inkscape:connector-curvature="0" /></g><g
           id="g134"
           transform="translate(231.252,592.0166)"><path
             d="m 0,0 337.417,0 c 7.835,0 14.242,-6.409 14.242,-14.243 l 0,-131.829 c 0,-7.835 -6.407,-14.243 -14.242,-14.243 l -337.417,0 c -7.835,0 -14.243,6.408 -14.243,14.243 l 0,131.829 C -14.243,-6.409 -7.835,0 0,0"
             style="fill:#33b59b;fill-opacity:1;fill-rule:evenodd;stroke:none"
             id="path136"
             inkscape:connector-curvature="0" /></g><g
           id="g138"
           transform="translate(238.6421,582.1172)"><path
             d="m 0,0 322.637,0 c 7.319,0 13.302,-5.986 13.302,-13.303 l 0,-123.128 c 0,-7.317 -5.985,-13.303 -13.302,-13.303 l -322.637,0 c -7.316,0 -13.303,5.985 -13.303,13.303 l 0,123.128 C -13.303,-5.984 -7.318,0 0,0"
             style="fill:#115447;fill-opacity:1;fill-rule:evenodd;stroke:none"
             id="path140"
             inkscape:connector-curvature="0" /></g><path
           d="m 171.625,480.996 456.669,0 0,41.727 -456.669,0 0,-41.727 z"
           style="fill:#454545;fill-opacity:1;fill-rule:evenodd;stroke:none"
           id="path142"
           inkscape:connector-curvature="0" /><path
           d="m 233.973,446.038 331.975,0 0,222.28719 -331.975,0 0,-222.28719 z"
           style="fill:#ffffff;fill-opacity:1;fill-rule:evenodd;stroke:none"
           id="path144"
           inkscape:connector-curvature="0" /><g
           id="g146"
           transform="translate(609.8281,480.9961)"><path
             d="m 0,0 0,-151.734 -7.69,-37.342 -202.178,-60.878 -201.44,60.242 -8.429,37.978 0,151.734 L 0,0 Z"
             style="fill:#115447;fill-opacity:1;fill-rule:evenodd;stroke:none"
             id="path148"
             inkscape:connector-curvature="0" /></g><g
           id="g150"
           transform="translate(365.895,480.9951)"><path
             d="m 0,0 64.653,0 94.382,-33.745 c -20.658,-40.881 -68.808,-69.547 -124.916,-69.547 -57.952,0 -107.409,30.584 -126.856,73.618 L 0,0 Z"
             style="fill:#a6b3b0;fill-opacity:1;fill-rule:evenodd;stroke:none"
             id="path152"
             inkscape:connector-curvature="0" /></g><g
           id="g154"
           transform="translate(601.1582,286.9336)"><path
             d="m 0,0 -25.823,-84.538 c -11.804,-38.645 -37.301,-45.38 -51.05,-45.38 l -247.56,0 c -18.04,0 -40.801,11.818 -51.052,45.38 L -402.637,4.35 c -2.618,8.576 1.137,13.783 12.383,13.783 l 379.636,0 C -1.139,18.133 3.186,10.432 0,0"
             style="fill:#33b59b;fill-opacity:1;fill-rule:evenodd;stroke:none"
             id="path156"
             inkscape:connector-curvature="0" /></g><g
           id="g158"
           transform="translate(280.6523,175.3477)"><path
             d="m 0,0 c -20.668,0 -25.885,2.842 -34.19,27.532 l -24.717,73.486 c -2.121,6.309 0.763,10.37 8.323,10.37 l 339.782,0 c 7.56,0 10.445,-4.061 8.323,-10.37 L 272.805,27.532 C 264.5,2.842 256.349,0 238.614,0 L 0,0 Z"
             style="fill:#1e806c;fill-opacity:1;fill-rule:evenodd;stroke:none"
             id="path160"
             inkscape:connector-curvature="0" /></g><g
           id="g162"
           transform="translate(284.3755,175.3477)"><path
             d="M 0,0 C -10.074,0 -27.954,1.497 -31.75,21.406 L -42.646,78.54 c -0.969,5.087 0.606,8.063 6.605,8.063 l 303.249,0 c 6,0 7.576,-2.976 6.606,-8.063 L 262.918,21.406 C 259.123,1.497 241.11,0 231.167,0 L 0,0 Z"
             style="fill:#454545;fill-opacity:1;fill-rule:evenodd;stroke:none"
             id="path164"
             inkscape:connector-curvature="0" /></g><g
           id="g166"
           transform="translate(206.4307,492.2666)"><path
             d="m 0,0 31.155,0 c 8.227,0 12.177,-1.132 14.993,-14.978 13.176,-64.737 73.807,-109.478 147.382,-109.478 73.784,0 135.164,44.908 147.489,110.043 C 343.132,-3.241 350.037,0 354.704,0 l 32.356,0 c 8.988,0 16.337,-7.351 16.337,-16.338 l 0,-146.667 c 0,-8.986 -7.349,-16.339 -16.337,-16.339 l -387.06,0 c -8.988,0 -16.339,7.352 -16.339,16.339 l 0,146.667 C -16.339,-7.35 -8.988,0 0,0"
             style="fill:#33b59b;fill-opacity:1;fill-rule:evenodd;stroke:none"
             id="path168"
             inkscape:connector-curvature="0" /></g><g
           id="g170"
           transform="translate(238.2964,492.2637)"><path
             d="m 0,0 c 7.747,-0.073 11.547,-1.534 14.283,-14.975 13.175,-64.737 73.806,-109.478 147.382,-109.478 73.784,0 135.164,44.908 147.488,110.044 2.113,11.17 9.018,14.413 13.685,14.413 l 0.489,0 C 318.158,-79.435 247.76,-137.807 161.664,-137.807 75.567,-137.807 5.171,-79.438 0,0"
             style="fill:#1e806c;fill-opacity:1;fill-rule:evenodd;stroke:none"
             id="path172"
             inkscape:connector-curvature="0" /></g><g
           id="g174"
           transform="translate(158.6548,480.9961)"><path
             d="M 0,0 C 3.777,0 6.858,9.372 6.858,20.863 6.858,32.354 3.777,41.727 0,41.727 -3.777,41.727 -6.858,32.354 -6.858,20.863 -6.858,9.372 -3.777,0 0,0"
             style="fill:#115447;fill-opacity:1;fill-rule:evenodd;stroke:none"
             id="path176"
             inkscape:connector-curvature="0" /></g><path
           d="m 158.654,468.583 12.972,0 0,66.551 -12.972,0 0,-66.551 z"
           style="fill:#33b59b;fill-opacity:1;fill-rule:evenodd;stroke:none"
           id="path178"
           inkscape:connector-curvature="0" /><g
           id="g180"
           transform="translate(641.2666,480.9961)"><path
             d="M 0,0 C 3.777,0 6.858,9.372 6.858,20.863 6.858,32.354 3.777,41.727 0,41.727 -3.777,41.727 -6.858,32.354 -6.858,20.863 -6.858,9.372 -3.777,0 0,0"
             style="fill:#115447;fill-opacity:1;fill-rule:evenodd;stroke:none"
             id="path182"
             inkscape:connector-curvature="0" /></g><path
           d="m 628.295,468.583 12.971,0 0,66.551 -12.971,0 0,-66.551 z"
           style="fill:#33b59b;fill-opacity:1;fill-rule:evenodd;stroke:none"
           id="path184"
           inkscape:connector-curvature="0" /><g
           id="g186"
           transform="translate(171.625,501.8594)"><path
             d="M 0,0 456.67,0"
             style="fill:none;stroke:#808f8c;stroke-width:4.80000019;stroke-linecap:butt;stroke-linejoin:miter;stroke-miterlimit:22.9260006;stroke-dasharray:none;stroke-opacity:1"
             id="path188"
             inkscape:connector-curvature="0" /></g><g
           id="g190"
           transform="translate(268.1895,515.2021)"><path
             d="M 0,0 0,-26.686"
             style="fill:none;stroke:#808f8c;stroke-width:4.80000019;stroke-linecap:butt;stroke-linejoin:miter;stroke-miterlimit:22.9260006;stroke-dasharray:none;stroke-opacity:1"
             id="path192"
             inkscape:connector-curvature="0" /></g><g
           id="g194"
           transform="translate(531.7295,515.2021)"><path
             d="M 0,0 0,-26.686"
             style="fill:none;stroke:#808f8c;stroke-width:4.80000019;stroke-linecap:butt;stroke-linejoin:miter;stroke-miterlimit:22.9260006;stroke-dasharray:none;stroke-opacity:1"
             id="path196"
             inkscape:connector-curvature="0" /></g><g
           id="g198"
           transform="translate(270.3496,257.207)"><path
             d="m 0,0 10.639,0 c 1.904,0 3.462,-1.559 3.462,-3.463 l 0,-8.85 c 0,-1.904 -1.558,-3.462 -3.462,-3.462 l -10.639,0 c -1.904,0 -3.462,1.558 -3.462,3.462 l 0,8.85 C -3.462,-1.559 -1.904,0 0,0"
             style="fill:#d8e6e3;fill-opacity:1;fill-rule:evenodd;stroke:none"
             id="path200"
             inkscape:connector-curvature="0" /></g><g
           id="g202"
           transform="translate(258.937,236.7598)"><path
             d="m 0,0 10.638,0 c 1.905,0 3.463,-1.558 3.463,-3.462 l 0,-8.851 c 0,-1.904 -1.558,-3.462 -3.463,-3.462 l -10.638,0 c -1.904,0 -3.462,1.558 -3.462,3.462 l 0,8.851 C -3.462,-1.558 -1.904,0 0,0"
             style="fill:#d8e6e3;fill-opacity:1;fill-rule:evenodd;stroke:none"
             id="path204"
             inkscape:connector-curvature="0" /></g><g
           id="g206"
           transform="translate(270.3496,216.3135)"><path
             d="m 0,0 10.639,0 c 1.904,0 3.462,-1.558 3.462,-3.463 l 0,-8.85 c 0,-1.905 -1.558,-3.462 -3.462,-3.462 l -10.639,0 c -1.904,0 -3.462,1.557 -3.462,3.462 l 0,8.85 C -3.462,-1.558 -1.904,0 0,0"
             style="fill:#d8e6e3;fill-opacity:1;fill-rule:evenodd;stroke:none"
             id="path208"
             inkscape:connector-curvature="0" /></g><g
           id="g210"
           transform="translate(292.9673,257.207)"><path
             d="m 0,0 10.638,0 c 1.904,0 3.463,-1.559 3.463,-3.463 l 0,-8.85 c 0,-1.904 -1.559,-3.462 -3.463,-3.462 l -10.638,0 c -1.905,0 -3.463,1.558 -3.463,3.462 l 0,8.85 C -3.463,-1.559 -1.905,0 0,0"
             style="fill:#d8e6e3;fill-opacity:1;fill-rule:evenodd;stroke:none"
             id="path212"
             inkscape:connector-curvature="0" /></g><g
           id="g214"
           transform="translate(281.5547,236.7598)"><path
             d="m 0,0 10.638,0 c 1.904,0 3.463,-1.558 3.463,-3.462 l 0,-8.851 c 0,-1.904 -1.559,-3.462 -3.463,-3.462 l -10.638,0 c -1.905,0 -3.463,1.558 -3.463,3.462 l 0,8.851 C -3.463,-1.558 -1.905,0 0,0"
             style="fill:#d8e6e3;fill-opacity:1;fill-rule:evenodd;stroke:none"
             id="path216"
             inkscape:connector-curvature="0" /></g><g
           id="g218"
           transform="translate(292.9673,216.3135)"><path
             d="m 0,0 10.638,0 c 1.904,0 3.463,-1.558 3.463,-3.463 l 0,-8.85 c 0,-1.905 -1.559,-3.462 -3.463,-3.462 l -10.638,0 c -1.905,0 -3.463,1.557 -3.463,3.462 l 0,8.85 C -3.463,-1.558 -1.905,0 0,0"
             style="fill:#d8e6e3;fill-opacity:1;fill-rule:evenodd;stroke:none"
             id="path220"
             inkscape:connector-curvature="0" /></g><g
           id="g222"
           transform="translate(281.5547,195.8672)"><path
             d="m 0,0 10.638,0 c 1.904,0 3.463,-1.559 3.463,-3.463 l 0,-8.85 c 0,-1.905 -1.559,-3.462 -3.463,-3.462 l -10.638,0 c -1.905,0 -3.463,1.557 -3.463,3.462 l 0,8.85 C -3.463,-1.559 -1.905,0 0,0"
             style="fill:#d8e6e3;fill-opacity:1;fill-rule:evenodd;stroke:none"
             id="path224"
             inkscape:connector-curvature="0" /></g><g
           id="g226"
           transform="translate(315.5845,257.207)"><path
             d="m 0,0 10.638,0 c 1.904,0 3.463,-1.559 3.463,-3.463 l 0,-8.85 c 0,-1.904 -1.559,-3.462 -3.463,-3.462 l -10.638,0 c -1.905,0 -3.463,1.558 -3.463,3.462 l 0,8.85 C -3.463,-1.559 -1.905,0 0,0"
             style="fill:#d8e6e3;fill-opacity:1;fill-rule:evenodd;stroke:none"
             id="path228"
             inkscape:connector-curvature="0" /></g><g
           id="g230"
           transform="translate(304.1719,236.7598)"><path
             d="m 0,0 10.638,0 c 1.904,0 3.463,-1.558 3.463,-3.462 l 0,-8.851 c 0,-1.904 -1.559,-3.462 -3.463,-3.462 l -10.638,0 c -1.905,0 -3.463,1.558 -3.463,3.462 l 0,8.851 C -3.463,-1.558 -1.905,0 0,0"
             style="fill:#d8e6e3;fill-opacity:1;fill-rule:evenodd;stroke:none"
             id="path232"
             inkscape:connector-curvature="0" /></g><g
           id="g234"
           transform="translate(315.5845,216.3135)"><path
             d="m 0,0 10.638,0 c 1.904,0 3.463,-1.558 3.463,-3.463 l 0,-8.85 c 0,-1.905 -1.559,-3.462 -3.463,-3.462 l -10.638,0 c -1.905,0 -3.463,1.557 -3.463,3.462 l 0,8.85 C -3.463,-1.558 -1.905,0 0,0"
             style="fill:#d8e6e3;fill-opacity:1;fill-rule:evenodd;stroke:none"
             id="path236"
             inkscape:connector-curvature="0" /></g><g
           id="g238"
           transform="translate(338.2017,257.207)"><path
             d="m 0,0 10.638,0 c 1.904,0 3.463,-1.559 3.463,-3.463 l 0,-8.85 c 0,-1.904 -1.559,-3.462 -3.463,-3.462 l -10.638,0 c -1.904,0 -3.462,1.558 -3.462,3.462 l 0,8.85 C -3.462,-1.559 -1.904,0 0,0"
             style="fill:#d8e6e3;fill-opacity:1;fill-rule:evenodd;stroke:none"
             id="path240"
             inkscape:connector-curvature="0" /></g><g
           id="g242"
           transform="translate(326.7891,236.7598)"><path
             d="m 0,0 10.638,0 c 1.904,0 3.463,-1.558 3.463,-3.462 l 0,-8.851 c 0,-1.904 -1.559,-3.462 -3.463,-3.462 l -10.638,0 c -1.904,0 -3.463,1.558 -3.463,3.462 l 0,8.851 C -3.463,-1.558 -1.904,0 0,0"
             style="fill:#d8e6e3;fill-opacity:1;fill-rule:evenodd;stroke:none"
             id="path244"
             inkscape:connector-curvature="0" /></g><g
           id="g246"
           transform="translate(338.2017,216.3135)"><path
             d="m 0,0 10.638,0 c 1.904,0 3.463,-1.558 3.463,-3.463 l 0,-8.85 c 0,-1.905 -1.559,-3.462 -3.463,-3.462 l -10.638,0 c -1.904,0 -3.462,1.557 -3.462,3.462 l 0,8.85 C -3.462,-1.558 -1.904,0 0,0"
             style="fill:#d8e6e3;fill-opacity:1;fill-rule:evenodd;stroke:none"
             id="path248"
             inkscape:connector-curvature="0" /></g><g
           id="g250"
           transform="translate(360.8188,257.207)"><path
             d="m 0,0 10.639,0 c 1.904,0 3.462,-1.559 3.462,-3.463 l 0,-8.85 c 0,-1.904 -1.558,-3.462 -3.462,-3.462 l -10.639,0 c -1.904,0 -3.462,1.558 -3.462,3.462 l 0,8.85 C -3.462,-1.559 -1.904,0 0,0"
             style="fill:#d8e6e3;fill-opacity:1;fill-rule:evenodd;stroke:none"
             id="path252"
             inkscape:connector-curvature="0" /></g><g
           id="g254"
           transform="translate(349.4063,236.7598)"><path
             d="m 0,0 10.638,0 c 1.905,0 3.463,-1.558 3.463,-3.462 l 0,-8.851 c 0,-1.904 -1.558,-3.462 -3.463,-3.462 l -10.638,0 c -1.904,0 -3.463,1.558 -3.463,3.462 l 0,8.851 C -3.463,-1.558 -1.904,0 0,0"
             style="fill:#d8e6e3;fill-opacity:1;fill-rule:evenodd;stroke:none"
             id="path256"
             inkscape:connector-curvature="0" /></g><g
           id="g258"
           transform="translate(360.8188,216.3135)"><path
             d="m 0,0 10.639,0 c 1.904,0 3.462,-1.558 3.462,-3.463 l 0,-8.85 c 0,-1.905 -1.558,-3.462 -3.462,-3.462 l -10.639,0 c -1.904,0 -3.462,1.557 -3.462,3.462 l 0,8.85 C -3.462,-1.558 -1.904,0 0,0"
             style="fill:#d8e6e3;fill-opacity:1;fill-rule:evenodd;stroke:none"
             id="path260"
             inkscape:connector-curvature="0" /></g><g
           id="g262"
           transform="translate(383.4365,257.207)"><path
             d="m 0,0 10.638,0 c 1.904,0 3.463,-1.559 3.463,-3.463 l 0,-8.85 c 0,-1.904 -1.559,-3.462 -3.463,-3.462 l -10.638,0 c -1.905,0 -3.463,1.558 -3.463,3.462 l 0,8.85 C -3.463,-1.559 -1.905,0 0,0"
             style="fill:#d8e6e3;fill-opacity:1;fill-rule:evenodd;stroke:none"
             id="path264"
             inkscape:connector-curvature="0" /></g><g
           id="g266"
           transform="translate(372.0234,236.7598)"><path
             d="m 0,0 10.639,0 c 1.904,0 3.462,-1.558 3.462,-3.462 l 0,-8.851 c 0,-1.904 -1.558,-3.462 -3.462,-3.462 l -10.639,0 c -1.904,0 -3.462,1.558 -3.462,3.462 l 0,8.851 C -3.462,-1.558 -1.904,0 0,0"
             style="fill:#d8e6e3;fill-opacity:1;fill-rule:evenodd;stroke:none"
             id="path268"
             inkscape:connector-curvature="0" /></g><g
           id="g270"
           transform="translate(383.4365,216.3135)"><path
             d="m 0,0 10.638,0 c 1.904,0 3.463,-1.558 3.463,-3.463 l 0,-8.85 c 0,-1.905 -1.559,-3.462 -3.463,-3.462 l -10.638,0 c -1.905,0 -3.463,1.557 -3.463,3.462 l 0,8.85 C -3.463,-1.558 -1.905,0 0,0"
             style="fill:#d8e6e3;fill-opacity:1;fill-rule:evenodd;stroke:none"
             id="path272"
             inkscape:connector-curvature="0" /></g><g
           id="g274"
           transform="translate(406.0537,257.207)"><path
             d="m 0,0 10.638,0 c 1.905,0 3.463,-1.559 3.463,-3.463 l 0,-8.85 c 0,-1.904 -1.558,-3.462 -3.463,-3.462 l -10.638,0 c -1.904,0 -3.463,1.558 -3.463,3.462 l 0,8.85 C -3.463,-1.559 -1.904,0 0,0"
             style="fill:#d8e6e3;fill-opacity:1;fill-rule:evenodd;stroke:none"
             id="path276"
             inkscape:connector-curvature="0" /></g><g
           id="g278"
           transform="translate(394.6406,236.7598)"><path
             d="m 0,0 10.639,0 c 1.904,0 3.463,-1.558 3.463,-3.462 l 0,-8.851 c 0,-1.904 -1.559,-3.462 -3.463,-3.462 l -10.639,0 c -1.904,0 -3.462,1.558 -3.462,3.462 l 0,8.851 C -3.462,-1.558 -1.904,0 0,0"
             style="fill:#d8e6e3;fill-opacity:1;fill-rule:evenodd;stroke:none"
             id="path280"
             inkscape:connector-curvature="0" /></g><g
           id="g282"
           transform="translate(406.0537,216.3135)"><path
             d="m 0,0 10.638,0 c 1.905,0 3.463,-1.558 3.463,-3.463 l 0,-8.85 c 0,-1.905 -1.558,-3.462 -3.463,-3.462 l -10.638,0 c -1.904,0 -3.463,1.557 -3.463,3.462 l 0,8.85 C -3.463,-1.558 -1.904,0 0,0"
             style="fill:#d8e6e3;fill-opacity:1;fill-rule:evenodd;stroke:none"
             id="path284"
             inkscape:connector-curvature="0" /></g><g
           id="g286"
           transform="translate(428.6709,257.207)"><path
             d="m 0,0 10.638,0 c 1.904,0 3.463,-1.559 3.463,-3.463 l 0,-8.85 c 0,-1.904 -1.559,-3.462 -3.463,-3.462 l -10.638,0 c -1.904,0 -3.463,1.558 -3.463,3.462 l 0,8.85 C -3.463,-1.559 -1.904,0 0,0"
             style="fill:#d8e6e3;fill-opacity:1;fill-rule:evenodd;stroke:none"
             id="path288"
             inkscape:connector-curvature="0" /></g><g
           id="g290"
           transform="translate(417.2578,236.7598)"><path
             d="m 0,0 10.639,0 c 1.904,0 3.463,-1.558 3.463,-3.462 l 0,-8.851 c 0,-1.904 -1.559,-3.462 -3.463,-3.462 l -10.639,0 c -1.904,0 -3.463,1.558 -3.463,3.462 l 0,8.851 C -3.463,-1.558 -1.904,0 0,0"
             style="fill:#d8e6e3;fill-opacity:1;fill-rule:evenodd;stroke:none"
             id="path292"
             inkscape:connector-curvature="0" /></g><g
           id="g294"
           transform="translate(428.6709,216.3135)"><path
             d="m 0,0 10.638,0 c 1.904,0 3.463,-1.558 3.463,-3.463 l 0,-8.85 c 0,-1.905 -1.559,-3.462 -3.463,-3.462 l -10.638,0 c -1.904,0 -3.463,1.557 -3.463,3.462 l 0,8.85 C -3.463,-1.558 -1.904,0 0,0"
             style="fill:#d8e6e3;fill-opacity:1;fill-rule:evenodd;stroke:none"
             id="path296"
             inkscape:connector-curvature="0" /></g><g
           id="g298"
           transform="translate(451.2881,257.207)"><path
             d="m 0,0 10.639,0 c 1.904,0 3.462,-1.559 3.462,-3.463 l 0,-8.85 c 0,-1.904 -1.558,-3.462 -3.462,-3.462 l -10.639,0 c -1.904,0 -3.463,1.558 -3.463,3.462 l 0,8.85 C -3.463,-1.559 -1.904,0 0,0"
             style="fill:#d8e6e3;fill-opacity:1;fill-rule:evenodd;stroke:none"
             id="path300"
             inkscape:connector-curvature="0" /></g><g
           id="g302"
           transform="translate(439.875,236.7598)"><path
             d="m 0,0 10.639,0 c 1.904,0 3.463,-1.558 3.463,-3.462 l 0,-8.851 c 0,-1.904 -1.559,-3.462 -3.463,-3.462 l -10.639,0 c -1.904,0 -3.462,1.558 -3.462,3.462 l 0,8.851 C -3.462,-1.558 -1.904,0 0,0"
             style="fill:#d8e6e3;fill-opacity:1;fill-rule:evenodd;stroke:none"
             id="path304"
             inkscape:connector-curvature="0" /></g><g
           id="g306"
           transform="translate(451.2881,216.3135)"><path
             d="m 0,0 10.639,0 c 1.904,0 3.462,-1.558 3.462,-3.463 l 0,-8.85 c 0,-1.905 -1.558,-3.462 -3.462,-3.462 l -10.639,0 c -1.904,0 -3.463,1.557 -3.463,3.462 l 0,8.85 C -3.463,-1.558 -1.904,0 0,0"
             style="fill:#d8e6e3;fill-opacity:1;fill-rule:evenodd;stroke:none"
             id="path308"
             inkscape:connector-curvature="0" /></g><g
           id="g310"
           transform="translate(473.9053,257.207)"><path
             d="m 0,0 10.639,0 c 1.904,0 3.463,-1.559 3.463,-3.463 l 0,-8.85 c 0,-1.904 -1.559,-3.462 -3.463,-3.462 l -10.639,0 c -1.904,0 -3.463,1.558 -3.463,3.462 l 0,8.85 C -3.463,-1.559 -1.904,0 0,0"
             style="fill:#d8e6e3;fill-opacity:1;fill-rule:evenodd;stroke:none"
             id="path312"
             inkscape:connector-curvature="0" /></g><g
           id="g314"
           transform="translate(462.4932,236.7598)"><path
             d="m 0,0 10.638,0 c 1.904,0 3.463,-1.558 3.463,-3.462 l 0,-8.851 c 0,-1.904 -1.559,-3.462 -3.463,-3.462 l -10.638,0 c -1.905,0 -3.463,1.558 -3.463,3.462 l 0,8.851 C -3.463,-1.558 -1.905,0 0,0"
             style="fill:#d8e6e3;fill-opacity:1;fill-rule:evenodd;stroke:none"
             id="path316"
             inkscape:connector-curvature="0" /></g><g
           id="g318"
           transform="translate(473.9053,216.3135)"><path
             d="m 0,0 10.639,0 c 1.904,0 3.463,-1.558 3.463,-3.463 l 0,-8.85 c 0,-1.905 -1.559,-3.462 -3.463,-3.462 l -10.639,0 c -1.904,0 -3.463,1.557 -3.463,3.462 l 0,8.85 C -3.463,-1.558 -1.904,0 0,0"
             style="fill:#d8e6e3;fill-opacity:1;fill-rule:evenodd;stroke:none"
             id="path320"
             inkscape:connector-curvature="0" /></g><g
           id="g322"
           transform="translate(496.5225,257.207)"><path
             d="m 0,0 10.639,0 c 1.904,0 3.463,-1.559 3.463,-3.463 l 0,-8.85 c 0,-1.904 -1.559,-3.462 -3.463,-3.462 l -10.639,0 c -1.904,0 -3.463,1.558 -3.463,3.462 l 0,8.85 C -3.463,-1.559 -1.904,0 0,0"
             style="fill:#d8e6e3;fill-opacity:1;fill-rule:evenodd;stroke:none"
             id="path324"
             inkscape:connector-curvature="0" /></g><g
           id="g326"
           transform="translate(485.1104,236.7598)"><path
             d="m 0,0 10.638,0 c 1.904,0 3.463,-1.558 3.463,-3.462 l 0,-8.851 c 0,-1.904 -1.559,-3.462 -3.463,-3.462 l -10.638,0 c -1.904,0 -3.463,1.558 -3.463,3.462 l 0,8.851 C -3.463,-1.558 -1.904,0 0,0"
             style="fill:#d8e6e3;fill-opacity:1;fill-rule:evenodd;stroke:none"
             id="path328"
             inkscape:connector-curvature="0" /></g><g
           id="g330"
           transform="translate(496.5225,216.3135)"><path
             d="m 0,0 10.639,0 c 1.904,0 3.463,-1.558 3.463,-3.463 l 0,-8.85 c 0,-1.905 -1.559,-3.462 -3.463,-3.462 l -10.639,0 c -1.904,0 -3.463,1.557 -3.463,3.462 l 0,8.85 C -3.463,-1.558 -1.904,0 0,0"
             style="fill:#d8e6e3;fill-opacity:1;fill-rule:evenodd;stroke:none"
             id="path332"
             inkscape:connector-curvature="0" /></g><g
           id="g334"
           transform="translate(304.1724,195.8672)"><path
             d="m 0,0 191.576,0 c 1.905,0 3.463,-1.559 3.463,-3.463 l 0,-8.85 c 0,-1.905 -1.558,-3.462 -3.463,-3.462 L 0,-15.775 c -1.905,0 -3.463,1.557 -3.463,3.462 l 0,8.85 C -3.463,-1.559 -1.905,0 0,0"
             style="fill:#d8e6e3;fill-opacity:1;fill-rule:evenodd;stroke:none"
             id="path336"
             inkscape:connector-curvature="0" /></g><g
           id="g338"
           transform="translate(519.1396,257.207)"><path
             d="m 0,0 10.639,0 c 1.904,0 3.463,-1.559 3.463,-3.463 l 0,-8.85 c 0,-1.904 -1.559,-3.462 -3.463,-3.462 l -10.639,0 c -1.904,0 -3.462,1.558 -3.462,3.462 l 0,8.85 C -3.462,-1.559 -1.904,0 0,0"
             style="fill:#d8e6e3;fill-opacity:1;fill-rule:evenodd;stroke:none"
             id="path340"
             inkscape:connector-curvature="0" /></g><g
           id="g342"
           transform="translate(507.7275,236.7598)"><path
             d="m 0,0 10.638,0 c 1.904,0 3.463,-1.558 3.463,-3.462 l 0,-8.851 c 0,-1.904 -1.559,-3.462 -3.463,-3.462 l -10.638,0 c -1.904,0 -3.463,1.558 -3.463,3.462 l 0,8.851 C -3.463,-1.558 -1.904,0 0,0"
             style="fill:#d8e6e3;fill-opacity:1;fill-rule:evenodd;stroke:none"
             id="path344"
             inkscape:connector-curvature="0" /></g><g
           id="g346"
           transform="translate(519.1396,216.3135)"><path
             d="m 0,0 10.639,0 c 1.904,0 3.463,-1.558 3.463,-3.463 l 0,-8.85 c 0,-1.905 -1.559,-3.462 -3.463,-3.462 l -10.639,0 c -1.904,0 -3.462,1.557 -3.462,3.462 l 0,8.85 C -3.462,-1.558 -1.904,0 0,0"
             style="fill:#d8e6e3;fill-opacity:1;fill-rule:evenodd;stroke:none"
             id="path348"
             inkscape:connector-curvature="0" /></g><g
           id="g350"
           transform="translate(507.7275,195.8672)"><path
             d="m 0,0 10.638,0 c 1.904,0 3.463,-1.559 3.463,-3.463 l 0,-8.85 c 0,-1.905 -1.559,-3.462 -3.463,-3.462 l -10.638,0 c -1.904,0 -3.463,1.557 -3.463,3.462 l 0,8.85 C -3.463,-1.559 -1.904,0 0,0"
             style="fill:#d8e6e3;fill-opacity:1;fill-rule:evenodd;stroke:none"
             id="path352"
             inkscape:connector-curvature="0" /></g><g
           id="g354"
           transform="translate(530.3447,236.7598)"><path
             d="m 0,0 10.638,0 c 1.905,0 3.463,-1.558 3.463,-3.462 l 0,-8.851 c 0,-1.904 -1.558,-3.462 -3.463,-3.462 l -10.638,0 c -1.904,0 -3.463,1.558 -3.463,3.462 l 0,8.851 C -3.463,-1.558 -1.904,0 0,0"
             style="fill:#d8e6e3;fill-opacity:1;fill-rule:evenodd;stroke:none"
             id="path356"
             inkscape:connector-curvature="0" /></g><g
           id="g358"
           transform="translate(506.5166,453.833)"><path
             d="m 0,0 c -17.612,-34.854 -58.665,-59.295 -106.503,-59.295 -49.409,0 -91.576,26.075 -108.157,62.767 l 74.038,23.69 64.653,0 L 0,0 Z"
             style="fill:#808f8c;fill-opacity:1;fill-rule:evenodd;stroke:none"
             id="path360"
             inkscape:connector-curvature="0" /></g><g
           id="g362"
           transform="translate(449.3408,474.2764)"><path
             d="m 0,0 c -8.157,-16.143 -27.171,-27.462 -49.327,-27.462 -22.884,0 -42.413,12.076 -50.092,29.069 l 0,5.112 99.331,0 L 0,0 Z"
             style="fill:#115447;fill-opacity:1;fill-rule:evenodd;stroke:none"
             id="path364"
             inkscape:connector-curvature="0" /></g><g
           id="g366"
           transform="translate(449.3408,474.2764)"><path
             d="m 0,0 c -8.157,-16.143 -27.171,-27.462 -49.327,-27.462 -22.884,0 -42.413,12.076 -50.092,29.069 l 8.885,2.844 c 6.317,-13.979 22.383,-23.913 41.207,-23.913 18.225,0 33.866,9.311 40.576,22.59 L 0,0 Z"
             style="fill:#a6b3b0;fill-opacity:1;fill-rule:evenodd;stroke:none"
             id="path368"
             inkscape:connector-curvature="0" /></g><g
           id="g370"
           transform="translate(360.4854,475.4902)"><path
             d="m 0,0 -82.987,-32.693 c -0.2,0.35 -0.396,0.702 -0.592,1.054 L -0.593,1.054 C -0.401,0.7 -0.205,0.348 0,0"
             style="fill:#d8e6e3;fill-opacity:1;fill-rule:nonzero;stroke:none"
             id="path372"
             inkscape:connector-curvature="0" /></g><g
           id="g374"
           transform="translate(362.0137,473.1113)"><path
             d="m 0,0 -79.927,-37.703 c -0.227,0.334 -0.45,0.67 -0.673,1.006 L -0.677,1.005 C -0.457,0.667 -0.232,0.332 0,0"
             style="fill:#d8e6e3;fill-opacity:1;fill-rule:nonzero;stroke:none"
             id="path376"
             inkscape:connector-curvature="0" /></g><g
           id="g378"
           transform="translate(363.709,470.877)"><path
             d="m 0,0 -76.513,-42.423 c -0.252,0.317 -0.497,0.636 -0.745,0.954 L -0.753,0.95 C -0.508,0.631 -0.257,0.313 0,0"
             style="fill:#d8e6e3;fill-opacity:1;fill-rule:nonzero;stroke:none"
             id="path380"
             inkscape:connector-curvature="0" /></g><g
           id="g382"
           transform="translate(365.5479,468.793)"><path
             d="m 0,0 -72.785,-46.832 c -0.275,0.298 -0.547,0.599 -0.818,0.898 L -0.823,0.895 C -0.555,0.592 -0.279,0.295 0,0"
             style="fill:#d8e6e3;fill-opacity:1;fill-rule:nonzero;stroke:none"
             id="path384"
             inkscape:connector-curvature="0" /></g><g
           id="g386"
           transform="translate(367.5078,466.8633)"><path
             d="m 0,0 -68.792,-50.922 c -0.294,0.278 -0.591,0.555 -0.882,0.836 L -0.882,0.836 C -0.593,0.554 -0.299,0.275 0,0"
             style="fill:#d8e6e3;fill-opacity:1;fill-rule:nonzero;stroke:none"
             id="path388"
             inkscape:connector-curvature="0" /></g><g
           id="g390"
           transform="translate(369.5698,465.0898)"><path
             d="m 0,0 -64.579,-54.693 c -0.312,0.257 -0.621,0.519 -0.93,0.78 L -0.936,0.775 C -0.628,0.514 -0.317,0.255 0,0"
             style="fill:#d8e6e3;fill-opacity:1;fill-rule:nonzero;stroke:none"
             id="path392"
             inkscape:connector-curvature="0" /></g><g
           id="g394"
           transform="translate(371.7168,463.4727)"><path
             d="m 0,0 -60.177,-58.142 c -0.328,0.239 -0.656,0.476 -0.981,0.716 L -0.983,0.714 C -0.66,0.472 -0.332,0.234 0,0"
             style="fill:#d8e6e3;fill-opacity:1;fill-rule:nonzero;stroke:none"
             id="path396"
             inkscape:connector-curvature="0" /></g><g
           id="g398"
           transform="translate(373.9321,462.0068)"><path
             d="m 0,0 -55.626,-61.274 c -0.342,0.216 -0.681,0.438 -1.02,0.658 L -1.024,0.653 C -0.687,0.432 -0.345,0.214 0,0"
             style="fill:#d8e6e3;fill-opacity:1;fill-rule:nonzero;stroke:none"
             id="path400"
             inkscape:connector-curvature="0" /></g><g
           id="g402"
           transform="translate(376.2021,460.6914)"><path
             d="m 0,0 -50.949,-64.094 c -0.353,0.198 -0.709,0.392 -1.06,0.592 L -1.059,0.592 C -0.709,0.391 -0.357,0.192 0,0"
             style="fill:#d8e6e3;fill-opacity:1;fill-rule:nonzero;stroke:none"
             id="path404"
             inkscape:connector-curvature="0" /></g><g
           id="g406"
           transform="translate(378.5156,459.5215)"><path
             d="m 0,0 -46.177,-66.613 c -0.363,0.175 -0.725,0.353 -1.086,0.533 L -1.089,0.529 C -0.729,0.349 -0.366,0.173 0,0"
             style="fill:#d8e6e3;fill-opacity:1;fill-rule:nonzero;stroke:none"
             id="path408"
             inkscape:connector-curvature="0" /></g><g
           id="g410"
           transform="translate(380.8623,458.4922)"><path
             d="m 0,0 -41.328,-68.842 c -0.372,0.156 -0.739,0.319 -1.109,0.477 L -1.114,0.469 C -0.746,0.309 -0.374,0.152 0,0"
             style="fill:#d8e6e3;fill-opacity:1;fill-rule:nonzero;stroke:none"
             id="path412"
             inkscape:connector-curvature="0" /></g><g
           id="g414"
           transform="translate(383.2349,457.5986)"><path
             d="m 0,0 -36.416,-70.78 c -0.379,0.136 -0.756,0.275 -1.133,0.415 L -1.135,0.41 C -0.76,0.27 -0.381,0.132 0,0"
             style="fill:#d8e6e3;fill-opacity:1;fill-rule:nonzero;stroke:none"
             id="path416"
             inkscape:connector-curvature="0" /></g><g
           id="g418"
           transform="translate(385.625,456.8379)"><path
             d="m 0,0 -31.46,-72.444 c -0.385,0.115 -0.768,0.233 -1.15,0.352 L -1.15,0.35 C -0.77,0.229 -0.386,0.111 0,0"
             style="fill:#d8e6e3;fill-opacity:1;fill-rule:nonzero;stroke:none"
             id="path420"
             inkscape:connector-curvature="0" /></g><g
           id="g422"
           transform="translate(388.0293,456.2031)"><path
             d="m 0,0 -26.471,-73.844 c -0.389,0.098 -0.777,0.196 -1.164,0.294 L -1.165,0.292 C -0.779,0.19 -0.391,0.093 0,0"
             style="fill:#d8e6e3;fill-opacity:1;fill-rule:nonzero;stroke:none"
             id="path424"
             inkscape:connector-curvature="0" /></g><g
           id="g426"
           transform="translate(390.4453,455.6914)"><path
             d="m 0,0 -21.459,-74.984 c -0.394,0.078 -0.787,0.157 -1.179,0.237 L -1.18,0.236 C -0.789,0.153 -0.396,0.074 0,0"
             style="fill:#d8e6e3;fill-opacity:1;fill-rule:nonzero;stroke:none"
             id="path428"
             inkscape:connector-curvature="0" /></g><g
           id="g430"
           transform="translate(392.8647,455.3008)"><path
             d="m 0,0 -16.43,-75.877 c -0.397,0.059 -0.792,0.121 -1.187,0.183 L -1.188,0.178 C -0.794,0.114 -0.398,0.055 0,0"
             style="fill:#d8e6e3;fill-opacity:1;fill-rule:nonzero;stroke:none"
             id="path432"
             inkscape:connector-curvature="0" /></g><g
           id="g434"
           transform="translate(395.2871,455.0273)"><path
             d="m 0,0 -11.39,-76.525 c -0.399,0.039 -0.796,0.085 -1.193,0.127 L -1.194,0.12 C -0.798,0.075 -0.399,0.035 0,0"
             style="fill:#d8e6e3;fill-opacity:1;fill-rule:nonzero;stroke:none"
             id="path436"
             inkscape:connector-curvature="0" /></g><g
           id="g438"
           transform="translate(397.7109,454.8662)"><path
             d="m 0,0 -6.344,-76.931 c -0.4,0.022 -0.799,0.045 -1.197,0.069 L -1.198,0.063 C -0.8,0.037 -0.401,0.017 0,0"
             style="fill:#d8e6e3;fill-opacity:1;fill-rule:nonzero;stroke:none"
             id="path440"
             inkscape:connector-curvature="0" /></g><g
           id="g442"
           transform="translate(400.1313,454.8154)"><path
             d="m 0,0 -1.294,-77.103 c -0.399,0.003 -0.797,0.004 -1.195,0.01 l 1.294,77.104 c 0.359,-0.007 0.717,-0.012 1.077,-0.012 L 0,0 Z"
             style="fill:#d8e6e3;fill-opacity:1;fill-rule:nonzero;stroke:none"
             id="path444"
             inkscape:connector-curvature="0" /></g><g
           id="g446"
           transform="translate(402.5547,454.875)"><path
             d="m 0,0 3.755,-77.046 c -0.399,-0.015 -0.797,-0.032 -1.196,-0.046 l -3.755,77.05 C -0.797,-0.031 -0.397,-0.02 0,0"
             style="fill:#d8e6e3;fill-opacity:1;fill-rule:nonzero;stroke:none"
             id="path448"
             inkscape:connector-curvature="0" /></g><g
           id="g450"
           transform="translate(404.9746,455.0469)"><path
             d="M 0,0 8.803,-76.759 C 8.405,-76.793 8.008,-76.826 7.608,-76.857 L -1.194,-0.098 C -0.795,-0.068 -0.396,-0.037 0,0"
             style="fill:#d8e6e3;fill-opacity:1;fill-rule:nonzero;stroke:none"
             id="path452"
             inkscape:connector-curvature="0" /></g><g
           id="g454"
           transform="translate(407.3887,455.332)"><path
             d="m 0,0 13.847,-76.236 c -0.395,-0.053 -0.79,-0.103 -1.187,-0.153 L -1.187,-0.153 C -0.789,-0.106 -0.394,-0.056 0,0"
             style="fill:#d8e6e3;fill-opacity:1;fill-rule:nonzero;stroke:none"
             id="path456"
             inkscape:connector-curvature="0" /></g><g
           id="g458"
           transform="translate(409.8008,455.7334)"><path
             d="m 0,0 18.883,-75.472 c -0.394,-0.072 -0.788,-0.14 -1.184,-0.209 L -1.182,-0.211 C -0.786,-0.145 -0.392,-0.075 0,0"
             style="fill:#d8e6e3;fill-opacity:1;fill-rule:nonzero;stroke:none"
             id="path460"
             inkscape:connector-curvature="0" /></g><g
           id="g462"
           transform="translate(412.2021,456.252)"><path
             d="m 0,0 23.904,-74.459 c -0.389,-0.091 -0.779,-0.18 -1.171,-0.268 L -1.17,-0.268 C -0.777,-0.183 -0.388,-0.094 0,0"
             style="fill:#d8e6e3;fill-opacity:1;fill-rule:nonzero;stroke:none"
             id="path464"
             inkscape:connector-curvature="0" /></g><g
           id="g466"
           transform="translate(414.5957,456.8936)"><path
             d="m 0,0 28.905,-73.193 c -0.386,-0.111 -0.772,-0.22 -1.16,-0.328 L -1.161,-0.326 C -0.772,-0.222 -0.385,-0.114 0,0"
             style="fill:#d8e6e3;fill-opacity:1;fill-rule:nonzero;stroke:none"
             id="path468"
             inkscape:connector-curvature="0" /></g><g
           id="g470"
           transform="translate(416.9697,457.6602)"><path
             d="m 0,0 33.88,-71.665 c -0.381,-0.13 -0.76,-0.262 -1.142,-0.389 L -1.143,-0.385 C -0.759,-0.261 -0.378,-0.133 0,0"
             style="fill:#d8e6e3;fill-opacity:1;fill-rule:nonzero;stroke:none"
             id="path472"
             inkscape:connector-curvature="0" /></g><g
           id="g474"
           transform="translate(419.3242,458.5566)"><path
             d="m 0,0 38.814,-69.868 c -0.373,-0.149 -0.746,-0.297 -1.121,-0.444 L -1.121,-0.445 C -0.744,-0.301 -0.371,-0.152 0,0"
             style="fill:#d8e6e3;fill-opacity:1;fill-rule:nonzero;stroke:none"
             id="path476"
             inkscape:connector-curvature="0" /></g><g
           id="g478"
           transform="translate(421.6533,459.5879)"><path
             d="m 0,0 43.7,-67.793 c -0.366,-0.17 -0.735,-0.334 -1.102,-0.501 L -1.099,-0.507 C -0.729,-0.343 -0.363,-0.173 0,0"
             style="fill:#d8e6e3;fill-opacity:1;fill-rule:nonzero;stroke:none"
             id="path480"
             inkscape:connector-curvature="0" /></g><g
           id="g482"
           transform="translate(423.9473,460.7549)"><path
             d="m 0,0 48.512,-65.421 c -0.356,-0.189 -0.711,-0.38 -1.07,-0.566 L -1.071,-0.563 C -0.711,-0.38 -0.354,-0.192 0,0"
             style="fill:#d8e6e3;fill-opacity:1;fill-rule:nonzero;stroke:none"
             id="path484"
             inkscape:connector-curvature="0" /></g><g
           id="g486"
           transform="translate(426.1953,462.0684)"><path
             d="m 0,0 53.243,-62.76 c -0.345,-0.209 -0.692,-0.417 -1.04,-0.625 L -1.037,-0.627 C -0.688,-0.423 -0.342,-0.213 0,0"
             style="fill:#d8e6e3;fill-opacity:1;fill-rule:nonzero;stroke:none"
             id="path488"
             inkscape:connector-curvature="0" /></g><g
           id="g490"
           transform="translate(428.3906,463.5254)"><path
             d="m 0,0 57.859,-59.785 c -0.332,-0.231 -0.664,-0.461 -0.999,-0.689 L -1.001,-0.687 C -0.663,-0.461 -0.329,-0.232 0,0"
             style="fill:#d8e6e3;fill-opacity:1;fill-rule:nonzero;stroke:none"
             id="path492"
             inkscape:connector-curvature="0" /></g><g
           id="g494"
           transform="translate(430.5146,465.1348)"><path
             d="M 0,0 62.346,-56.504 C 62.029,-56.754 61.708,-57 61.389,-57.248 L -0.953,-0.749 C -0.631,-0.503 -0.313,-0.253 0,0"
             style="fill:#d8e6e3;fill-opacity:1;fill-rule:nonzero;stroke:none"
             id="path496"
             inkscape:connector-curvature="0" /></g><g
           id="g498"
           transform="translate(432.5586,466.8965)"><path
             d="m 0,0 66.657,-52.896 c -0.301,-0.271 -0.601,-0.542 -0.905,-0.811 L -0.906,-0.81 C -0.6,-0.543 -0.297,-0.273 0,0"
             style="fill:#d8e6e3;fill-opacity:1;fill-rule:nonzero;stroke:none"
             id="path500"
             inkscape:connector-curvature="0" /></g><g
           id="g502"
           transform="translate(434.501,468.8105)"><path
             d="m 0,0 70.767,-48.969 c -0.281,-0.29 -0.561,-0.581 -0.845,-0.869 L -0.849,-0.867 C -0.562,-0.582 -0.277,-0.293 0,0"
             style="fill:#d8e6e3;fill-opacity:1;fill-rule:nonzero;stroke:none"
             id="path504"
             inkscape:connector-curvature="0" /></g><g
           id="g506"
           transform="translate(436.3223,470.8779)"><path
             d="m 0,0 74.637,-44.722 c -0.26,-0.309 -0.521,-0.618 -0.783,-0.925 L -0.783,-0.925 C -0.517,-0.62 -0.256,-0.312 0,0"
             style="fill:#d8e6e3;fill-opacity:1;fill-rule:nonzero;stroke:none"
             id="path508"
             inkscape:connector-curvature="0" /></g><g
           id="g510"
           transform="translate(438.0029,473.0938)"><path
             d="m 0,0 78.22,-40.161 c -0.236,-0.327 -0.473,-0.652 -0.712,-0.978 L -0.71,-0.979 C -0.467,-0.655 -0.23,-0.329 0,0"
             style="fill:#d8e6e3;fill-opacity:1;fill-rule:nonzero;stroke:none"
             id="path512"
             inkscape:connector-curvature="0" /></g><g
           id="g514"
           transform="translate(439.5225,475.4531)"><path
             d="m 0,0 81.469,-35.299 c -0.208,-0.344 -0.419,-0.686 -0.632,-1.028 L -0.631,-1.029 C -0.414,-0.689 -0.204,-0.347 0,0"
             style="fill:#d8e6e3;fill-opacity:1;fill-rule:nonzero;stroke:none"
             id="path516"
             inkscape:connector-curvature="0" /></g><g
           id="g518"
           transform="translate(440.873,477.9355)"><path
             d="m 0,0 84.34,-30.155 c -0.185,-0.357 -0.373,-0.712 -0.562,-1.068 L -0.562,-1.068 C -0.368,-0.715 -0.181,-0.358 0,0"
             style="fill:#d8e6e3;fill-opacity:1;fill-rule:nonzero;stroke:none"
             id="path520"
             inkscape:connector-curvature="0" /></g><g
           id="g522"
           transform="translate(359.146,478.0029)"><path
             d="m 0,0 -85.653,-27.413 c -0.176,0.363 -0.35,0.726 -0.521,1.091 L -0.523,1.091 C -0.354,0.725 -0.182,0.36 0,0"
             style="fill:#d8e6e3;fill-opacity:1;fill-rule:nonzero;stroke:none"
             id="path524"
             inkscape:connector-curvature="0" /></g><g
           id="g526"
           transform="translate(288.5146,430.5537)"><path
             d="M 0,0 0,-1.368 -1.319,-2.1 c -0.251,0.317 -0.497,0.636 -0.745,0.954 L 0,0 Z M 0,9.21 0,7.887 -6.428,4.854 c -0.227,0.334 -0.45,0.67 -0.673,1.006 L 0,9.21 Z m 0,16.892 0,-1.258 -15.022,-4.808 c -0.176,0.363 -0.35,0.727 -0.521,1.091 L 0,26.102 Z m 0,-9.519 -11.017,-4.34 c -0.199,0.351 -0.396,0.702 -0.591,1.055 L 0,17.87 0,16.583 Z m 0,8.261 0,1.258 3.19,1.021 0.152,-0.372 C 3.453,26.507 3.569,26.265 3.681,26.022 L 0,24.844 Z m 9.408,-38.555 0,-0.151 -0.089,0.086 0.089,0.065 z m 0,9.862 0,-1.423 -5.159,-3.321 c -0.275,0.298 -0.547,0.599 -0.818,0.899 l 5.977,3.845 z m 0,9.065 0,-1.367 L 0,-1.368 0,0 9.408,5.216 Z m 0,8.432 0,-1.324 L 0,7.887 0,9.21 9.408,13.648 Z M 7.101,19.381 0,16.583 0,17.87 6.51,20.435 c 0.194,-0.353 0.392,-0.704 0.591,-1.054 m 2.307,-7.057 0,1.324 0.94,0.444 c 0.222,-0.337 0.446,-0.673 0.673,-1.006 L 9.408,12.324 Z m 0,-8.475 0,1.367 5.231,2.9 C 14.886,7.798 15.133,7.479 15.385,7.162 L 9.408,3.849 Z m 8.434,-21.282 0,-1.568 -1.365,-1.156 c -0.313,0.258 -0.622,0.519 -0.931,0.78 l 2.296,1.944 z m 0,9.965 0,-1.488 -7.64,-5.656 c -0.264,0.25 -0.531,0.498 -0.794,0.75 l 0,0.151 8.434,6.243 z m 0,9.046 0,-1.425 -8.434,-5.425 0,1.423 8.434,5.427 z m 0,-1.425 0,1.425 1.478,0.951 c 0.271,-0.3 0.542,-0.6 0.818,-0.898 L 17.842,0.153 Z m 5.79,-23.126 0,-1.663 -0.607,-0.587 c -0.328,0.239 -0.656,0.476 -0.981,0.716 l 1.588,1.534 z m 0,10.445 0,-1.57 -5.79,-4.903 0,1.568 5.79,4.905 z m 0,9.345 0,-1.488 -5.79,-4.285 0,1.488 5.79,4.285 z m 0,-1.488 0,1.488 0.705,0.524 c 0.292,-0.281 0.588,-0.559 0.883,-0.836 l -1.588,-1.176 z m 6.041,-23.498 0,-1.577 c -0.301,0.193 -0.601,0.389 -0.902,0.583 l 0.902,0.994 z m 0,11.034 0,-1.664 -6.041,-5.837 0,1.663 6.041,5.838 z m 0,9.673 0,-1.518 -6.041,-5.118 0,1.57 6.012,5.09 0.029,-0.024 z m 0,-1.518 0,1.518 c 0.3,-0.253 0.6,-0.505 0.902,-0.755 L 29.673,-8.98 Z m 6.247,-24.081 0,-0.44 -0.241,0.137 0.241,0.303 z m 0,11.773 0,-1.782 -6.128,-6.751 -0.119,0.075 0,1.577 6.247,6.881 z m 0,8.934 0,-0.409 -6.247,-6.036 0,1.664 5.508,5.321 c 0.245,-0.181 0.492,-0.361 0.739,-0.54 m 0,-0.409 0,0.409 0.242,-0.176 -0.242,-0.233 z m 0,-10.307 6.016,6.626 c -0.342,0.217 -0.682,0.437 -1.021,0.658 l -4.995,-5.502 0,-1.782 z m 9.38,-10.347 -2.562,-3.695 c 0.361,-0.18 0.723,-0.358 1.086,-0.534 l 1.476,2.129 0,2.1 z m 0,12.156 0,-1.926 -8.561,-10.769 c -0.273,0.152 -0.547,0.303 -0.819,0.455 l 0,0.44 9.38,11.8 z m 0,-1.926 0,1.926 1.502,1.889 c 0.351,-0.199 0.706,-0.395 1.06,-0.592 L 45.3,-23.187 Z m 6.608,-13.914 0,-2.324 -0.888,-1.478 c -0.372,0.156 -0.74,0.318 -1.109,0.476 l 1.997,3.326 z m 0,13.216 0,-2.099 -6.608,-9.533 0,2.1 6.608,9.532 z m 0,-2.099 1.996,2.88 c -0.363,0.176 -0.724,0.354 -1.085,0.534 l -0.911,-1.315 0,-2.099 z m 6.699,-14.546 0,-2.617 -0.303,-0.588 c -0.379,0.136 -0.756,0.275 -1.133,0.415 l 1.436,2.79 z m 0,14.589 0,-2.325 -6.699,-11.159 0,2.324 6.699,11.16 z m 0,-2.325 1.435,2.392 c -0.372,0.156 -0.74,0.316 -1.109,0.476 l -0.326,-0.543 0,-2.325 z m 6.77,-15.522 0,-2.289 -0.877,0.269 0.877,2.02 z m 0,15.825 0,-2.024 -6.77,-13.16 0,2.617 6.514,12.661 0.256,-0.094 z m 0,-2.024 0,2.024 c 0.292,-0.107 0.584,-0.215 0.877,-0.319 l -0.877,-1.705 z m 6.822,-17.022 0,-0.972 -0.32,0.081 0.32,0.891 z m 0,16.761 0,-0.832 -6.549,-15.08 -0.273,0.083 0,2.289 5.992,13.796 c 0.276,-0.087 0.553,-0.172 0.83,-0.256 m 63.847,-3.567 4.123,-16.477 c -0.394,-0.072 -0.788,-0.141 -1.184,-0.209 l -4.122,16.476 c 0.396,0.068 0.79,0.138 1.183,0.21 m -6.348,-0.998 3.023,-16.645 c -0.395,-0.053 -0.79,-0.103 -1.187,-0.152 l -3.022,16.643 c 0.395,0.05 0.792,0.101 1.186,0.154 m -6.357,-0.695 1.922,-16.758 c -0.398,-0.034 -0.795,-0.067 -1.195,-0.098 l -1.922,16.758 c 0.399,0.031 0.797,0.064 1.195,0.098 m -6.366,-0.396 0.82,-16.821 c -0.399,-0.014 -0.797,-0.032 -1.196,-0.046 l -0.82,16.822 c 0.4,0.012 0.797,0.029 1.196,0.045 m -6.37,-0.105 -0.282,-16.832 c -0.399,0.003 -0.798,0.004 -1.196,0.01 l 0.283,16.833 c 0.398,-0.006 0.797,-0.008 1.195,-0.011 m -6.368,0.185 -1.384,-16.794 c -0.4,0.021 -0.799,0.045 -1.198,0.068 l 1.385,16.795 c 0.398,-0.024 0.797,-0.049 1.197,-0.069 m -6.368,0.478 -2.487,-16.706 c -0.399,0.039 -0.795,0.085 -1.193,0.127 l 2.487,16.706 c 0.397,-0.043 0.794,-0.088 1.193,-0.127 m -6.362,0.783 -3.587,-16.567 c -0.397,0.059 -0.792,0.121 -1.187,0.183 l 3.586,16.564 c 0.396,-0.061 0.791,-0.123 1.188,-0.18 m -6.35,1.087 -4.685,-16.371 c -0.394,0.078 -0.787,0.158 -1.18,0.238 l 4.686,16.37 c 0.392,-0.08 0.785,-0.159 1.179,-0.237 m -12.958,2.396 0,0.832 0.319,-0.097 -0.319,-0.735 z m 0,-16.901 0,0.972 5.459,15.231 c 0.387,-0.1 0.776,-0.198 1.165,-0.294 l -5.78,-16.122 -0.844,0.213 z m 75.355,-0.661 0,-0.129 c -0.377,-0.086 -0.754,-0.172 -1.133,-0.257 l -5.219,16.256 c 0.392,0.086 0.781,0.175 1.171,0.266 l 5.181,-16.136 z m 0,17.452 0,-0.108 -0.039,0.097 0.039,0.011 z m 0,-17.581 0,0.129 0.038,-0.119 -0.038,-0.01 z m 6.838,3.423 0,-1.674 -0.566,-0.159 -6.272,15.883 0,0.108 c 0.375,0.103 0.748,0.21 1.122,0.316 l 5.716,-14.474 z m 0,16.247 0,-1.458 -0.595,1.258 c 0.199,0.066 0.397,0.133 0.595,0.2 m 0,-17.921 0,1.674 0.594,-1.506 -0.594,-0.168 z m 6.79,4.902 -6.244,13.207 -0.546,-0.188 0,-1.458 6.79,-14.363 0,2.802 z m 0,15.453 0,-2.464 -1.153,2.075 c 0.375,0.146 0.749,0.294 1.122,0.444 l 0.031,-0.055 z m 0,-18.255 0,2.802 1.153,-2.439 c -0.381,-0.129 -0.76,-0.261 -1.142,-0.388 l -0.011,0.025 z m 6.728,6.143 -6.728,12.112 0,-2.464 6.728,-12.111 0,2.463 z m 0,13.87 0,-2.211 -1.714,2.659 c 0.367,0.167 0.737,0.333 1.102,0.502 l 0.612,-0.95 z m 0,-16.333 0,2.463 1.714,-3.086 c -0.373,-0.149 -0.746,-0.297 -1.121,-0.444 l -0.593,1.067 z m 6.652,6.016 0,-2.211 -6.652,10.317 0,2.211 6.652,-10.317 z m 0,12.661 0,-2.01 -2.279,3.071 c 0.359,0.187 0.715,0.376 1.071,0.566 l 1.208,-1.627 z m 0,-14.872 0,2.211 2.277,-3.533 c -0.366,-0.17 -0.735,-0.334 -1.103,-0.501 l -1.174,1.823 z m 6.541,6.049 0,-2.008 -6.541,8.821 0,2.01 6.541,-8.823 z m 0,11.72 0,-1.851 -2.841,3.35 c 0.347,0.206 0.694,0.414 1.039,0.625 l 1.802,-2.124 z m 0,-13.728 0,2.008 2.841,-3.832 c -0.355,-0.189 -0.711,-0.38 -1.069,-0.566 l -1.772,2.39 z m 6.412,6.17 0,-1.85 -6.412,7.557 0,1.851 6.412,-7.558 z m 0,10.974 0,-1.721 -3.411,3.523 c 0.335,0.228 0.667,0.458 1,0.689 l 2.411,-2.491 z m 2.837,-14.317 0,-1.022 -0.468,-0.279 -2.369,2.794 0,1.85 2.837,-3.343 z m 0,11.386 0,-1.721 -2.837,2.931 0,1.721 2.837,-2.931 z m 0,9.294 0,-0.963 -0.574,0.52 0.574,0.443 z m 0,-21.702 0,1.022 0.572,-0.676 -0.572,-0.346 z m 6.138,6.065 0,-1.721 -6.138,6.343 0,1.721 6.138,-6.343 z m 0,10.723 0,-1.612 -6.138,5.563 0,0.963 0.383,0.301 5.755,-5.215 z m 0,9.528 0,-1.53 -1.246,0.989 c 0.305,0.268 0.606,0.54 0.905,0.811 l 0.341,-0.27 z m 0,-21.972 0,1.721 1.245,-1.287 c -0.332,-0.231 -0.664,-0.461 -0.999,-0.689 l -0.246,0.255 z m 5.911,7.086 0,-1.611 -5.911,5.357 0,1.612 5.911,-5.358 z m 0,10.194 0,-1.529 -5.911,4.691 0,1.53 5.911,-4.692 z m 0,9.186 0,-1.454 -1.943,1.345 c 0.284,0.287 0.565,0.578 0.846,0.869 l 1.097,-0.76 z m 0,-20.991 0,1.611 1.945,-1.762 c -0.317,-0.25 -0.638,-0.496 -0.957,-0.744 l -0.988,0.895 z m 5.633,7.335 0,-1.529 -5.633,4.47 0,1.529 5.633,-4.47 z m 0,9.759 0,-1.455 -5.633,3.898 0,1.454 5.633,-3.897 z m 0,8.915 0,-1.394 -2.668,1.597 c 0.264,0.308 0.525,0.616 0.783,0.926 l 1.885,-1.129 z m 0,-20.203 0,1.529 2.667,-2.116 c -0.301,-0.271 -0.601,-0.542 -0.905,-0.811 l -1.762,1.398 z m 8.149,5.65 0,-0.986 -0.275,-0.279 -7.874,5.448 0,1.455 8.149,-5.638 z m 0,9.67 0,-1.394 -8.149,4.883 0,1.394 8.149,-4.883 z m 0,8.943 0,-1.343 -6.263,3.215 c 0.239,0.324 0.476,0.65 0.712,0.978 l 5.551,-2.85 z m 0,8.363 0,-1.302 -2.123,0.92 c 0.212,0.342 0.422,0.684 0.63,1.029 l 1.493,-0.647 z m 0,-18.7 0,1.394 6.261,-3.751 c -0.259,-0.31 -0.52,-0.619 -0.783,-0.926 l -5.478,3.283 z m 0,-9.262 0,0.986 0.57,-0.396 -0.57,-0.59 z m 8.918,15.02 0,-1.343 -8.918,4.579 0,1.343 8.918,-4.579 z m 0,9.078 0,-1.302 -8.918,3.864 0,1.302 8.918,-3.864 z m 0,8.578 0,-1.27 -7.377,2.638 c 0.092,0.179 0.187,0.358 0.278,0.537 l 0.243,0.546 6.856,-2.451 z m 0,-1.27 0,1.27 11.597,-4.147 c -0.184,-0.357 -0.373,-0.712 -0.561,-1.068 l -11.036,3.945 z m 0,-8.61 0,1.302 7.376,-3.195 c -0.208,-0.344 -0.419,-0.687 -0.632,-1.029 l -6.744,2.922 z m 0,-9.119 0,1.343 2.607,-1.339 c -0.235,-0.327 -0.473,-0.652 -0.712,-0.978 l -1.895,0.974 z"
             style="fill:#d8e6e3;fill-opacity:1;fill-rule:nonzero;stroke:none"
             id="path528"
             inkscape:connector-curvature="0" /></g><g
           id="g530"
           transform="translate(292.1958,456.5762)"><path
             d="m 0,0 -18.703,-5.986 c -0.176,0.363 -0.35,0.726 -0.521,1.09 L -0.491,1.101 -0.339,0.729 C -0.229,0.484 -0.112,0.242 0,0 Z m 214.564,-2.197 18.453,-6.599 c -0.184,-0.356 -0.373,-0.712 -0.561,-1.067 l -18.414,6.583 c 0.093,0.178 0.188,0.357 0.279,0.537 l 0.243,0.546 z m -3.555,-6.519 17.786,-7.706 c -0.208,-0.344 -0.419,-0.686 -0.631,-1.028 l -17.786,7.706 c 0.213,0.342 0.423,0.683 0.631,1.028 z m -4.058,-6.159 17.076,-8.769 c -0.235,-0.327 -0.473,-0.652 -0.712,-0.977 l -17.076,8.767 c 0.239,0.325 0.476,0.651 0.712,0.979 z m -4.483,-5.781 16.295,-9.764 c -0.26,-0.309 -0.52,-0.618 -0.783,-0.926 l -16.295,9.764 c 0.264,0.308 0.524,0.615 0.783,0.926 z m -4.845,-5.388 15.449,-10.69 c -0.28,-0.29 -0.561,-0.581 -0.845,-0.87 l -15.45,10.692 c 0.284,0.287 0.565,0.578 0.846,0.868 z m -5.155,-4.983 14.552,-11.548 c -0.301,-0.272 -0.602,-0.542 -0.905,-0.812 l -14.552,11.548 c 0.305,0.269 0.605,0.54 0.905,0.812 z m -5.414,-4.583 13.611,-12.335 c -0.317,-0.25 -0.638,-0.496 -0.957,-0.744 l -13.611,12.335 c 0.32,0.247 0.641,0.494 0.957,0.744 z m -5.632,-4.173 12.632,-13.053 c -0.332,-0.23 -0.664,-0.461 -0.999,-0.688 l -12.632,13.051 c 0.335,0.229 0.667,0.458 0.999,0.69 z m -5.802,-3.783 11.623,-13.702 c -0.345,-0.209 -0.693,-0.417 -1.04,-0.625 l -11.622,13.702 c 0.347,0.206 0.694,0.414 1.039,0.625 z m -5.948,-3.394 10.591,-14.282 c -0.355,-0.19 -0.711,-0.38 -1.069,-0.567 l -10.592,14.283 c 0.358,0.186 0.715,0.376 1.07,0.566 z m -6.055,-3.021 9.541,-14.8 c -0.366,-0.17 -0.736,-0.334 -1.103,-0.501 l -9.54,14.799 c 0.367,0.167 0.736,0.333 1.102,0.502 z m -6.147,-2.654 8.473,-15.253 c -0.373,-0.148 -0.746,-0.297 -1.121,-0.443 l -8.474,15.253 c 0.375,0.145 0.749,0.294 1.122,0.443 z m -6.213,-2.301 7.397,-15.645 c -0.381,-0.13 -0.76,-0.262 -1.142,-0.389 l -7.396,15.647 c 0.382,0.126 0.76,0.258 1.141,0.387 z m -6.262,-1.96 6.31,-15.98 c -0.387,-0.11 -0.772,-0.22 -1.16,-0.327 l -6.312,15.979 c 0.389,0.107 0.776,0.217 1.162,0.328 z m -6.303,-1.632 5.219,-16.255 c -0.39,-0.091 -0.78,-0.18 -1.171,-0.268 l -5.219,16.256 c 0.392,0.087 0.781,0.176 1.171,0.267 z m -6.327,-1.31 4.123,-16.476 c -0.394,-0.073 -0.788,-0.141 -1.184,-0.209 l -4.122,16.475 c 0.396,0.069 0.79,0.139 1.183,0.21 z m -6.348,-0.998 3.023,-16.644 c -0.395,-0.053 -0.79,-0.103 -1.187,-0.153 l -3.022,16.644 c 0.395,0.05 0.792,0.1 1.186,0.153 z m -6.357,-0.694 1.922,-16.758 c -0.398,-0.034 -0.795,-0.067 -1.195,-0.099 l -1.922,16.758 c 0.399,0.031 0.797,0.065 1.195,0.099 z m -6.367,-0.397 0.821,-16.82 c -0.399,-0.015 -0.797,-0.032 -1.197,-0.046 l -0.819,16.821 c 0.4,0.013 0.797,0.03 1.195,0.045 z m -6.369,-0.104 -0.282,-16.832 c -0.399,0.003 -0.798,0.004 -1.196,0.009 l 0.283,16.833 c 0.397,-0.005 0.796,-0.007 1.195,-0.01 z m -6.368,0.184 -1.385,-16.794 c -0.4,0.022 -0.798,0.045 -1.197,0.069 l 1.384,16.795 c 0.399,-0.025 0.798,-0.049 1.198,-0.07 z m -6.368,0.479 -2.487,-16.706 c -0.399,0.039 -0.795,0.085 -1.193,0.127 l 2.487,16.706 c 0.397,-0.043 0.794,-0.088 1.193,-0.127 z m -6.362,0.782 -3.587,-16.566 c -0.397,0.058 -0.792,0.121 -1.187,0.182 l 3.586,16.565 c 0.396,-0.062 0.791,-0.123 1.188,-0.181 z m -6.35,1.088 -4.685,-16.371 c -0.394,0.078 -0.787,0.157 -1.18,0.237 l 4.685,16.37 c 0.392,-0.08 0.786,-0.159 1.18,-0.236 z m -6.334,1.403 -5.78,-16.122 c -0.388,0.098 -0.777,0.196 -1.164,0.294 l 5.779,16.122 c 0.387,-0.099 0.776,-0.197 1.165,-0.294 z m -6.305,1.728 -6.868,-15.816 c -0.385,0.116 -0.767,0.234 -1.15,0.353 l 6.869,15.815 c 0.382,-0.119 0.765,-0.237 1.149,-0.352 z m -6.264,2.062 -7.95,-15.453 c -0.379,0.137 -0.756,0.276 -1.133,0.415 l 7.949,15.451 c 0.378,-0.138 0.755,-0.277 1.134,-0.413 z m -6.212,2.409 -9.023,-15.03 c -0.371,0.156 -0.739,0.319 -1.109,0.477 l 9.022,15.028 c 0.37,-0.159 0.738,-0.319 1.11,-0.475 z m -6.138,2.77 -10.08,-14.542 c -0.363,0.176 -0.725,0.354 -1.086,0.533 l 10.081,14.542 c 0.361,-0.179 0.722,-0.357 1.085,-0.533 z m -6.042,3.14 -11.123,-13.993 c -0.354,0.198 -0.709,0.392 -1.06,0.592 l 11.123,13.992 c 0.351,-0.199 0.706,-0.394 1.06,-0.591 z m -5.926,3.519 -12.145,-13.377 c -0.341,0.217 -0.68,0.439 -1.02,0.658 l 12.144,13.377 c 0.339,-0.22 0.679,-0.44 1.021,-0.658 z m -5.774,3.914 -13.137,-12.692 c -0.328,0.238 -0.656,0.475 -0.981,0.716 L 31.5,-37.837 c 0.325,-0.24 0.653,-0.477 0.981,-0.716 z m -5.587,4.314 -14.099,-11.941 c -0.312,0.258 -0.621,0.52 -0.93,0.781 l 14.097,11.939 c 0.31,-0.261 0.62,-0.52 0.932,-0.779 z m -5.355,4.721 -15.018,-11.117 c -0.295,0.279 -0.592,0.555 -0.883,0.836 l 15.018,11.117 c 0.292,-0.281 0.588,-0.558 0.883,-0.836 z m -5.082,5.126 -15.89,-10.223 c -0.275,0.298 -0.546,0.598 -0.817,0.898 l 15.889,10.224 c 0.271,-0.301 0.542,-0.601 0.818,-0.899 z M 11.704,-18.86 -5,-28.122 c -0.251,0.316 -0.497,0.636 -0.745,0.954 l 16.703,9.262 c 0.247,-0.319 0.494,-0.638 0.746,-0.954 z m -4.364,5.923 -17.449,-8.231 c -0.227,0.334 -0.45,0.67 -0.673,1.006 l 17.449,8.231 c 0.222,-0.337 0.446,-0.673 0.673,-1.006 z m -3.92,6.295 -18.118,-7.137 c -0.199,0.35 -0.396,0.702 -0.591,1.054 L 2.829,-5.588 C 3.023,-5.94 3.221,-6.291 3.42,-6.642 Z"
             style="fill:none;stroke:#d8e6e3;stroke-width:1.20000005;stroke-linecap:butt;stroke-linejoin:miter;stroke-miterlimit:22.9260006;stroke-dasharray:none;stroke-opacity:1"
             id="path532"
             inkscape:connector-curvature="0" /></g></g></g><g
       id="g538"
       transform="translate(368.3695,18.508529)"><g
         id="g540"
         clip-path="url(#clipPath542)"><path
           d="m 396.271,471.758 -4.8,0 0,24.002 4.8,0 0,-24.002 z"
           style="fill:#808f8c;fill-opacity:1;fill-rule:nonzero;stroke:none"
           id="path546"
           inkscape:connector-curvature="0" /><path
           d="m 407.79,471.758 -4.8,0 0,24.002 4.8,0 0,-24.002 z"
           style="fill:#808f8c;fill-opacity:1;fill-rule:nonzero;stroke:none"
           id="path548"
           inkscape:connector-curvature="0" /><path
           d="m 407.79,457.294 -16.319,0 0,16.31 16.319,0 0,-16.31 z"
           style="fill:#808f8c;fill-opacity:1;fill-rule:nonzero;stroke:none"
           id="path550"
           inkscape:connector-curvature="0" /></g></g><text
       xml:space="preserve"
       style="font-style:normal;font-weight:normal;font-size:32px;line-height:125%;font-family:sans-serif;letter-spacing:0px;word-spacing:0px;fill:#000000;fill-opacity:1;stroke:none;stroke-width:1px;stroke-linecap:butt;stroke-linejoin:miter;stroke-opacity:1"
       x="20.372227"
       y="-896.37793"
       id="text3406"
       sodipodi:linespacing="125%"
       transform="scale(1,-1)"><tspan
         sodipodi:role="line"
         id="tspan3408"
         x="20.372227"
         y="-896.37793"
         style="-inkscape-font-specification:'Underwood Champion';font-family:'Underwood Champion';font-weight:normal;font-style:normal;font-stretch:normal;font-variant:normal">Documentation as Code</tspan><tspan
         sodipodi:role="line"
         x="20.372227"
         y="-856.37793"
         id="tspan3410"
         style="-inkscape-font-specification:'Underwood Champion';font-family:'Underwood Champion';font-weight:normal;font-style:normal;font-stretch:normal;font-variant:normal">(expliqu  mon pre)</tspan></text>
<text
       transform="scale(1,-1)"
       sodipodi:linespacing="125%"
       id="text3412"
       y="-774.14459"
       x="20.372227"
       style="font-style:normal;font-weight:normal;font-size:32px;line-height:125%;font-family:sans-serif;letter-spacing:0px;word-spacing:0px;fill:#000000;fill-opacity:1;stroke:none;stroke-width:1px;stroke-linecap:butt;stroke-linejoin:miter;stroke-opacity:1"
       xml:space="preserve"><tspan
         style="font-style:normal;font-variant:normal;font-weight:normal;font-stretch:normal;font-family:'Underwood Champion';-inkscape-font-specification:'Underwood Champion'"
         id="tspan3416"
         y="-774.14459"
         x="20.372227"
         sodipodi:role="line">(expliqu  mon pre)</tspan></text>
</g></svg>