<?xml version="1.0" encoding="UTF-8" standalone="no"?>
<!-- Created with Inkscape (http://www.inkscape.org/) -->

<svg
   xmlns:dc="http://purl.org/dc/elements/1.1/"
   xmlns:cc="http://creativecommons.org/ns#"
   xmlns:rdf="http://www.w3.org/1999/02/22-rdf-syntax-ns#"
   xmlns:svg="http://www.w3.org/2000/svg"
   xmlns="http://www.w3.org/2000/svg"
   xmlns:sodipodi="http://sodipodi.sourceforge.net/DTD/sodipodi-0.dtd"
   xmlns:inkscape="http://www.inkscape.org/namespaces/inkscape"
   height="1080mm"
   width="1440mm"
   viewBox="0 0 5102.3623 3826.7716"
   id="svg2"
   version="1.1"
   inkscape:version="0.91 r13725"
   sodipodi:docname="tracked-changes.svg">
  <sodipodi:namedview
     pagecolor="#ffffff"
     bordercolor="#666666"
     borderopacity="1"
     objecttolerance="10"
     gridtolerance="10"
     guidetolerance="10"
     inkscape:pageopacity="0"
     inkscape:pageshadow="2"
     inkscape:window-width="2560"
     inkscape:window-height="1406"
     id="namedview6"
     showgrid="false"
     inkscape:zoom="0.22425739"
     inkscape:cx="2390.0484"
     inkscape:cy="1968.5639"
     inkscape:window-x="0"
     inkscape:window-y="0"
     inkscape:window-maximized="1"
     inkscape:current-layer="g3259" />
  <defs
     id="defs8" />
  <metadata
     id="metadata4">
    <rdf:RDF>
      <cc:Work
         rdf:about="">
        <dc:format>image/svg+xml</dc:format>
        <dc:type
           rdf:resource="http://purl.org/dc/dcmitype/StillImage" />
        <dc:title />
      </cc:Work>
    </rdf:RDF>
  </metadata>
  <path
     d="m 852.6387,1583.4643 q 0,14.0318 -6.31429,21.0477 -5.96349,6.665 -15.43491,9.4714 -9.47143,2.8063 -20.69683,3.5079 -10.8746,0.3508 -20.69682,1.754 l -18.94285,2.1048 q 8.06825,62.0904 9.82222,124.1809 2.10476,61.7396 2.10476,124.8825 0,19.6444 -1.05238,41.7444 -1.05238,21.7492 -4.91111,43.4984 -3.85873,21.3984 -11.22539,41.0429 -7.36667,19.6444 -19.99524,34.7285 -12.62856,14.7334 -31.22062,23.854 -18.59206,8.7698 -44.55079,8.7698 -29.81745,0 -53.32062,-12.6285 -23.15238,-12.9794 -39.28888,-33.6762 -16.1365,-20.6968 -24.55555,-47.0064 -8.41905,-26.6603 -8.41905,-54.0222 0,-5.6127 0.3508,-18.2412 0.70159,-12.6286 2.80635,-25.608 2.45555,-13.3301 7.01587,-23.1523 4.91111,-10.173 12.97936,-10.173 4.56032,0 11.22539,2.4555 7.01588,2.1048 12.97937,5.9635 6.31428,3.8587 10.5238,9.1206 4.56032,4.9111 4.56032,10.5238 0,13.3302 -3.15714,25.9588 -3.15714,12.6285 -3.15714,25.9587 0,14.3825 4.20952,31.9222 4.20952,17.5397 12.62857,33.3254 8.41904,15.4349 21.04761,25.9587 12.97936,10.5238 30.16825,10.5238 12.62857,0 21.39841,-4.5603 9.12063,-4.9111 15.08412,-12.6286 6.31428,-8.0682 9.82222,-18.2412 3.85873,-10.173 6.31428,-20.6968 8.06826,-35.4302 9.12064,-71.5619 1.40317,-36.4826 1.40317,-73.6667 0,-48.0587 -2.45555,-96.1174 -2.10477,-48.0587 -8.06826,-96.1175 -23.85396,2.8064 -47.00633,5.9635 -23.15238,3.1572 -47.00634,3.1572 -5.96349,0 -9.47143,-2.4556 -3.15714,-2.4555 -3.15714,-8.7698 0,-12.2778 7.36666,-18.5921 7.36667,-6.6651 18.59206,-9.4714 18.59206,-5.2619 37.88571,-7.3667 19.64444,-2.4555 38.58729,-5.2619 l 0,-5.6127 q 0,-5.9635 4.20952,-7.3666 4.20953,-1.754 9.12064,-1.754 7.36666,0 14.38253,2.1048 7.01587,2.1047 12.97937,7.0158 19.64444,-3.1571 38.93808,-7.3666 19.64444,-4.5604 40.34126,-4.5604 7.36667,0 11.57619,4.5604 4.56032,4.2095 4.56032,11.5761 z"
     style="font-style:normal;font-variant:normal;font-weight:normal;font-stretch:normal;font-size:medium;line-height:125%;font-family:'Just Another Hand';-inkscape-font-specification:'Just Another Hand';text-align:center;letter-spacing:0px;word-spacing:0px;text-anchor:middle;fill:#454545;fill-opacity:1;stroke:none;stroke-width:1px;stroke-linecap:butt;stroke-linejoin:miter;stroke-opacity:1"
     id="path3234"
     inkscape:connector-curvature="0" />
  <path
     d="m 905.25772,1622.7532 q 0,24.2048 -0.70158,48.4095 -0.70159,24.2048 -0.70159,48.4096 0,3.8587 -0.35079,7.3666 0,3.508 -1.05238,6.6651 -1.05239,2.8063 -3.50794,4.5603 -2.45556,1.754 -7.01587,1.754 -11.57619,0 -20.69682,-5.9635 -9.12064,-5.9635 -10.8746,-18.5921 -1.05238,-9.1206 -1.40318,-17.5396 0,-8.4191 -0.70158,-17.5397 -1.75397,-16.8381 -3.50794,-33.6762 -1.40317,-16.8381 -1.40317,-33.6762 0,-7.0159 2.80634,-10.8746 3.15715,-3.8587 10.52381,-3.8587 5.96349,0 12.62857,1.0524 7.01587,1.0523 12.62857,3.8587 5.96349,2.4555 9.47142,7.3667 3.85873,4.5603 3.85873,12.2777 z"
     style="font-style:normal;font-variant:normal;font-weight:normal;font-stretch:normal;font-size:medium;line-height:125%;font-family:'Just Another Hand';-inkscape-font-specification:'Just Another Hand';text-align:center;letter-spacing:0px;word-spacing:0px;text-anchor:middle;fill:#454545;fill-opacity:1;stroke:none;stroke-width:1px;stroke-linecap:butt;stroke-linejoin:miter;stroke-opacity:1"
     id="path3236"
     inkscape:connector-curvature="0" />
  <path
     d="m 1039.6117,2057.3865 q 0,7.0158 -3.508,9.4714 -3.5079,2.8063 -9.8222,2.8063 -16.4873,0 -23.854,-8.7698 -7.01582,-8.7698 -10.52376,-23.1524 -1.05238,-4.9111 -2.10476,-9.8222 -1.05238,-5.2619 -1.75397,-10.173 -0.70159,-4.5603 -1.40317,-6.3143 -0.70159,-1.754 -1.40318,-6.6651 -4.20952,10.173 -10.52381,21.3984 -5.96349,10.8746 -14.03174,20.3461 -8.06825,9.1206 -18.24126,15.0841 -9.82222,5.9635 -21.7492,5.9635 -12.62857,0 -21.04762,-5.9635 -8.41904,-6.3143 -13.33015,-15.4349 -4.56032,-9.4715 -6.66508,-20.6969 -1.75397,-11.2253 -1.75397,-21.3984 0,-23.8539 4.56032,-51.5666 4.91111,-28.0635 13.33015,-55.7762 8.41905,-28.0635 19.64444,-53.6714 11.2254,-25.9587 24.55555,-45.2524 l 0,0.3508 2.10476,-3.1571 q 3.85873,-5.2619 8.76984,-11.2254 5.26191,-6.3143 12.27778,-6.3143 6.66507,0 11.57618,5.9635 4.91111,5.6127 7.01588,11.927 9.12063,1.7539 14.73333,4.5603 5.61274,2.4555 8.76984,6.3143 3.1571,3.8587 4.2095,9.1206 1.0524,4.9111 1.0524,10.8746 0,2.4556 0,5.2619 0,2.8064 -0.3508,5.6127 -0.3508,2.8063 -0.3508,6.6651 0,3.8587 0,7.0158 0,3.508 1.0524,9.1207 1.4032,5.6127 2.8063,11.5762 l 2.4556,12.9793 q 1.754,10.173 2.8063,23.1524 1.4032,12.9794 3.1572,25.9587 1.4032,13.3302 2.8063,25.9588 1.4032,12.2777 2.8064,22.8015 l 8.419,51.9175 1.0524,5.9635 q 0.7016,4.5603 1.4032,8.419 1.0524,3.8588 1.0524,8.7699 z m -80.33176,-201.7063 q 0,-0.7016 -0.3508,-2.1048 -0.35079,-1.754 -0.70158,-3.5079 -8.06826,17.1888 -14.38254,37.5349 -5.96349,19.9952 -10.17301,41.0428 -3.85873,20.6968 -5.96349,41.7445 -1.75397,20.6968 -1.75397,39.2888 0,1.754 0,3.1572 0,1.4032 0.35079,2.8063 l 0,0.3508 q 8.41905,-12.9793 14.38254,-34.027 6.31428,-21.3984 10.52381,-44.5507 4.20952,-23.5032 5.96349,-45.2524 2.10476,-22.1 2.10476,-36.4825 z"
     style="font-style:normal;font-variant:normal;font-weight:normal;font-stretch:normal;font-size:medium;line-height:125%;font-family:'Just Another Hand';-inkscape-font-specification:'Just Another Hand';text-align:center;letter-spacing:0px;word-spacing:0px;text-anchor:middle;fill:#454545;fill-opacity:1;stroke:none;stroke-width:1px;stroke-linecap:butt;stroke-linejoin:miter;stroke-opacity:1"
     id="path3238"
     inkscape:connector-curvature="0" />
  <path
     d="m 1218.5164,2051.0722 q 0,3.8587 -1.754,6.6651 -1.754,2.4555 -4.5603,4.2095 -2.4556,1.4032 -5.6127,2.1047 -2.8064,0.7016 -5.6127,0.7016 -4.2095,0 -9.1206,-1.0524 -4.9111,-1.0523 -9.8223,-2.8063 -4.9111,-2.1048 -9.1206,-4.9111 -3.8587,-3.1572 -5.9635,-7.0159 -2.1047,-3.8587 -3.1571,-9.4714 -0.7016,-5.9635 -1.4032,-11.927 -3.5079,8.4191 -8.419,16.4873 -4.5604,8.0683 -11.2254,14.3825 -6.6651,5.9635 -15.0842,9.4715 -8.0682,3.8587 -18.2412,3.8587 -17.8905,0 -29.1159,-8.419 -10.8746,-8.4191 -17.1889,-21.0477 -5.9635,-12.9793 -8.0682,-28.0634 -1.754,-15.435 -1.754,-29.4667 0,-11.5762 1.0524,-26.3095 1.0524,-14.7334 2.8063,-30.1683 1.754,-15.4349 4.2096,-29.8174 2.4555,-14.7334 5.2619,-25.9588 3.5079,-12.9793 8.419,-28.4142 5.2619,-15.7857 12.9794,-29.1159 8.0682,-13.6809 19.6444,-23.1524 11.5762,-9.4714 27.7127,-10.5238 -1.0524,-28.4143 -3.1571,-52.2682 -1.754,-24.2048 -3.8588,-49.4619 l -3.5079,-38.9381 -1.4032,-14.0317 q -0.7016,-5.6127 -1.0524,-11.2254 -0.3508,-5.9635 -0.3508,-11.5762 0,-8.0683 4.2096,-11.2254 4.5603,-3.1572 11.5762,-3.1572 15.4349,0 23.5031,4.5604 8.0683,4.5603 11.2254,12.2777 3.508,7.7175 3.8588,18.2413 0.3507,10.173 0.3507,22.1 0,7.7174 1.754,17.5397 l 1.754,12.9793 2.8063,35.781 q 0.7016,8.419 1.4032,16.8381 0.7016,8.419 1.4032,16.8381 l 7.3666,75.4206 14.0318,141.019 1.0524,12.9794 q 1.4031,14.3825 2.4555,29.8174 1.4032,15.4349 4.9111,30.519 1.0524,3.8588 1.754,7.3667 1.0524,3.5079 1.0524,7.3667 z m -81.7349,-205.2143 q 0,-3.8587 -0.3508,-8.419 0,-4.9111 0,-9.1206 l 0,-9.4715 q -2.4556,3.508 -6.3143,9.8223 -3.8587,5.9634 -5.9635,10.8746 -5.6127,12.2777 -10.173,31.5714 -4.5603,18.9428 -8.0683,39.9904 -3.1571,20.6969 -4.9111,40.6921 -1.7539,19.6444 -1.7539,32.9746 0,4.9111 0,11.2254 0.3508,6.3143 1.4031,12.9793 1.0524,6.3143 3.1572,12.2778 2.1047,5.9635 5.6127,9.8222 5.2619,-6.665 9.4714,-20.346 4.2095,-14.0317 7.0159,-31.5714 3.1571,-17.8905 5.2619,-37.5349 2.1047,-19.6445 3.1571,-37.8857 1.4032,-18.5921 1.754,-33.6762 0.7016,-15.4349 0.7016,-24.2048 z"
     style="font-style:normal;font-variant:normal;font-weight:normal;font-stretch:normal;font-size:medium;line-height:125%;font-family:'Just Another Hand';-inkscape-font-specification:'Just Another Hand';text-align:center;letter-spacing:0px;word-spacing:0px;text-anchor:middle;fill:#454545;fill-opacity:1;stroke:none;stroke-width:1px;stroke-linecap:butt;stroke-linejoin:miter;stroke-opacity:1"
     id="path3240"
     inkscape:connector-curvature="0" />
  <path
     d="m 1396.7195,1918.1214 q 0,30.5191 -5.2619,61.0381 -4.9111,30.1682 -20.6968,57.1793 -4.9111,8.0683 -11.2254,15.7858 -6.3143,7.3666 -14.0318,13.3301 -7.3666,6.3143 -16.4873,9.8222 -8.7698,3.8588 -18.592,3.8588 -15.435,0 -27.0111,-7.3667 -11.2254,-7.0159 -19.6445,-18.5921 -8.0682,-11.9269 -13.6809,-26.6603 -5.2619,-15.0841 -8.4191,-30.519 -2.8063,-15.7857 -4.2095,-30.5191 -1.0524,-14.7333 -1.0524,-25.9587 0,-12.6285 1.0524,-27.7127 1.0524,-15.0841 3.5079,-30.8698 2.8064,-15.7857 7.0159,-31.2206 4.5603,-15.4349 11.5762,-28.7651 7.0159,-13.681 16.8381,-24.2048 9.8222,-10.8746 22.8016,-17.1888 l 0,0.3507 q 11.2254,-5.9634 22.4508,-5.9634 7.0158,0 10.8746,3.1571 3.8587,2.8063 3.5079,9.8222 19.2936,3.508 31.2206,18.5921 11.927,15.0841 18.2413,35.0793 6.6651,19.9953 8.7698,41.0429 2.4556,21.0476 2.4556,36.4825 z m -79.2794,-87.6984 q -5.9635,0 -11.2254,-4.5603 -6.665,10.173 -11.2254,23.5032 -4.5603,12.9793 -7.3666,27.0111 -2.4556,13.6809 -3.508,27.7127 -1.0523,14.0317 -1.0523,26.3095 0,10.173 1.0523,26.3095 1.0524,15.7857 3.8588,31.9222 3.1571,16.1365 8.419,30.1683 5.6127,14.0317 14.3826,20.6968 10.8746,-6.3143 17.8904,-19.9952 7.3667,-14.0318 11.5762,-30.5191 4.2095,-16.4873 5.6127,-33.3254 1.754,-16.8381 1.754,-28.765 0,-8.7699 -1.0524,-22.8016 -1.0524,-14.0318 -3.5079,-28.4143 -2.4556,-14.7333 -7.0159,-27.3619 -4.2095,-12.6286 -10.8746,-18.9429 -3.1571,1.0524 -7.7175,1.0524 z"
     style="font-style:normal;font-variant:normal;font-weight:normal;font-stretch:normal;font-size:medium;line-height:125%;font-family:'Just Another Hand';-inkscape-font-specification:'Just Another Hand';text-align:center;letter-spacing:0px;word-spacing:0px;text-anchor:middle;fill:#454545;fill-opacity:1;stroke:none;stroke-width:1px;stroke-linecap:butt;stroke-linejoin:miter;stroke-opacity:1"
     id="path3242"
     inkscape:connector-curvature="0" />
  <path
     d="m 1454.9513,2067.5595 q -5.2619,0 -11.5762,-1.4032 -5.9635,-1.4032 -11.5762,-4.5603 -5.2619,-3.1572 -9.1206,-7.7175 -3.508,-4.9111 -3.508,-11.5762 0,-9.8222 0.7016,-19.2936 1.0524,-9.8222 2.1048,-19.2937 l 0,0.3508 2.1047,-23.5031 q 1.0524,-12.6286 1.754,-27.7127 0.7016,-15.0841 1.0524,-30.5191 0.7016,-15.7857 1.0524,-30.8698 0.3508,-15.0841 0.3508,-27.7127 0,-7.3667 -0.3508,-14.7333 0,-7.7175 0,-15.4349 -0.3508,-6.6651 -0.3508,-14.7334 0,-8.419 0,-15.4349 0,-7.3666 1.7539,-11.927 2.1048,-4.9111 11.2254,-4.9111 8.0683,0 16.8381,4.2095 9.1207,4.2096 12.6286,11.927 l -0.3508,0 q 1.754,3.8588 2.4556,12.6286 1.0523,8.419 1.4031,15.0841 5.9635,-9.1206 13.3302,-19.2936 7.7174,-10.173 16.4873,-18.5921 8.7698,-8.7698 18.592,-14.3825 9.8223,-5.6127 21.0477,-5.6127 14.7333,0 22.4507,7.3666 7.7175,7.3667 11.2254,18.5921 3.508,10.8746 3.8588,23.5032 0.3508,12.2778 0.3508,22.4508 l 0,2.8063 q 0,4.2095 -0.3508,8.4191 0,3.8587 -1.4032,7.3666 -1.0524,3.1572 -4.2095,5.2619 -2.8064,2.1048 -8.0683,2.1048 -5.6127,0 -11.927,-1.4032 -6.3142,-1.754 -11.9269,-4.9111 -5.2619,-3.1571 -9.1207,-7.7175 -3.8587,-4.9111 -4.2095,-11.2253 0,-2.8064 0,-5.6127 0,-2.8064 0.3508,-5.6127 0,-1.754 0,-4.2096 0.3508,-2.8063 0.3508,-5.2619 -11.2254,11.2254 -19.9952,27.7127 -8.4191,16.4873 -15.435,35.0794 -6.665,18.592 -11.5762,37.5349 -4.9111,18.5921 -8.419,33.6762 l 0,1.0524 q -1.0524,10.8746 -1.4032,21.3984 -0.3508,10.5238 -0.7016,21.7492 -0.3508,12.6285 -1.0523,25.6079 -0.3508,12.9794 -1.754,25.2571 -0.7016,6.6651 -4.2095,10.173 -3.1572,3.8588 -10.8746,3.8588 z"
     style="font-style:normal;font-variant:normal;font-weight:normal;font-stretch:normal;font-size:medium;line-height:125%;font-family:'Just Another Hand';-inkscape-font-specification:'Just Another Hand';text-align:center;letter-spacing:0px;word-spacing:0px;text-anchor:middle;fill:#454545;fill-opacity:1;stroke:none;stroke-width:1px;stroke-linecap:butt;stroke-linejoin:miter;stroke-opacity:1"
     id="path3244"
     inkscape:connector-curvature="0" />
  <path
     d="m 1730.675,1997.7516 q 0,10.5238 -5.9635,21.7492 -5.6127,11.2253 -14.7333,20.6968 -9.1206,9.1206 -21.0476,15.0841 -11.5762,5.9635 -23.1524,5.9635 -16.4873,0 -28.4143,-6.3143 -11.9269,-6.6651 -20.6968,-17.5397 -8.7698,-11.2254 -14.3825,-25.2571 -5.2619,-14.0318 -8.4191,-28.7651 -3.1571,-15.0841 -4.5603,-29.8174 -1.0524,-15.0842 -1.0524,-27.3619 0,-10.5238 1.0524,-24.9064 1.4032,-14.3825 4.2095,-29.8174 3.1572,-15.4349 8.4191,-30.5191 5.2619,-15.0841 12.9794,-27.0111 8.0682,-11.927 18.9428,-19.2936 11.2254,-7.3667 25.6079,-7.3667 11.2254,0 19.9953,4.5603 9.1206,4.5603 15.0841,12.2778 6.3143,7.3667 9.4714,17.1889 3.508,9.8222 3.508,20.346 0,13.681 -6.3143,29.8175 -6.3143,16.1365 -16.4873,31.2206 -9.8222,15.0841 -22.4508,27.3619 -12.2778,11.927 -24.5556,18.2413 0.7016,6.3142 2.8064,18.592 2.1047,11.927 5.6127,23.854 3.8587,11.927 8.7698,20.6968 5.2619,8.7698 12.2778,8.7698 3.5079,0 5.9635,-2.1047 2.8063,-2.1048 4.9111,-5.6127 2.1048,-3.508 3.5079,-7.7175 1.754,-4.2095 3.1572,-8.0682 l 2.1047,-4.9111 q 0.7016,-1.0524 0.7016,-1.4032 0.3508,-0.3508 0.7016,-1.0524 2.4556,-4.5603 4.5603,-8.419 2.4556,-3.8588 6.6651,-6.6651 l -0.3508,0 q 1.4032,-1.4032 2.8064,-1.4032 1.7539,-0.3508 3.1571,-0.3508 3.8587,0 8.419,2.4556 4.5604,2.4555 8.4191,6.3143 3.8587,3.5079 6.3143,8.0682 2.4555,4.2095 2.4555,8.4191 z m -69.4571,-154.7 q 0,-3.5079 -0.3508,-7.3667 -0.3508,-3.8587 -1.754,-6.6651 -4.9111,5.9635 -8.7698,14.3826 -3.5079,8.0682 -5.9635,17.1889 -2.4555,8.7698 -4.2095,17.8904 -1.4032,9.1207 -2.1048,16.8381 9.1207,-10.8746 16.1365,-24.5555 7.0159,-14.0318 7.0159,-27.7127 z"
     style="font-style:normal;font-variant:normal;font-weight:normal;font-stretch:normal;font-size:medium;line-height:125%;font-family:'Just Another Hand';-inkscape-font-specification:'Just Another Hand';text-align:center;letter-spacing:0px;word-spacing:0px;text-anchor:middle;fill:#454545;fill-opacity:1;stroke:none;stroke-width:1px;stroke-linecap:butt;stroke-linejoin:miter;stroke-opacity:1"
     id="path3246"
     inkscape:connector-curvature="0" />
  <path
     d="m 1940.8004,2072.1198 q 0,4.9111 -2.4556,8.0682 -2.4555,3.1572 -6.3143,4.9112 -3.5079,2.1047 -8.0682,2.8063 -4.2095,1.0524 -7.7175,1.0524 -12.2778,0 -21.3984,-7.0159 -9.1206,-7.0159 -15.7857,-18.2413 -6.6651,-10.8746 -10.8746,-24.9063 -4.2095,-14.3825 -7.0159,-28.4143 -2.8063,-14.3825 -4.2095,-27.3619 -1.4032,-13.3301 -2.1048,-22.8016 -3.1571,-32.6238 -4.5603,-66.2999 -1.0523,-33.6762 -1.0523,-66.6508 0,-90.154 6.3142,-178.5539 0,-1.4032 0,-3.1572 0.3508,-1.754 0.3508,-3.5079 0.3508,-7.3667 0.7016,-16.8381 0.3508,-9.8222 1.0524,-19.2937 0.7016,-9.4714 1.4032,-17.1888 1.0524,-8.0683 2.4555,-11.2254 l 0,0.3508 q 1.4032,-4.9112 3.8588,-7.3667 2.4555,-2.4556 8.419,-2.4556 12.6286,0 21.3984,8.4191 8.7698,8.419 8.7698,21.0476 0,2.8063 -0.3507,5.6127 0,2.4555 -0.3508,4.9111 -0.3508,2.4556 -0.7016,4.9111 0,2.1048 0,3.8587 -1.0524,13.681 -1.754,27.3619 -0.3508,13.3302 -1.0524,27.0111 -1.7539,30.1683 -2.8063,60.3365 -0.7016,29.8175 -0.7016,60.3365 0,12.9794 0.3508,34.027 0.3508,21.0476 1.4032,45.954 1.0523,24.5555 2.8063,50.865 2.1048,26.3095 5.2619,50.1635 3.1572,23.854 7.3667,43.1476 4.5603,19.2937 10.5238,29.8175 3.1571,1.4031 5.9635,4.5603 3.1571,2.8063 5.2619,6.6651 2.4555,3.5079 3.8587,7.3666 1.754,4.2096 1.754,7.7175 z"
     style="font-style:normal;font-variant:normal;font-weight:normal;font-stretch:normal;font-size:medium;line-height:125%;font-family:'Just Another Hand';-inkscape-font-specification:'Just Another Hand';text-align:center;letter-spacing:0px;word-spacing:0px;text-anchor:middle;fill:#454545;fill-opacity:1;stroke:none;stroke-width:1px;stroke-linecap:butt;stroke-linejoin:miter;stroke-opacity:1"
     id="path3248"
     inkscape:connector-curvature="0" />
  <path
     d="m 2081.4686,1997.7516 q 0,10.5238 -5.9635,21.7492 -5.6127,11.2253 -14.7333,20.6968 -9.1206,9.1206 -21.0476,15.0841 -11.5762,5.9635 -23.1524,5.9635 -16.4873,0 -28.4143,-6.3143 -11.927,-6.6651 -20.6968,-17.5397 -8.7698,-11.2254 -14.3825,-25.2571 -5.2619,-14.0318 -8.4191,-28.7651 -3.1571,-15.0841 -4.5603,-29.8174 -1.0524,-15.0842 -1.0524,-27.3619 0,-10.5238 1.0524,-24.9064 1.4032,-14.3825 4.2095,-29.8174 3.1572,-15.4349 8.4191,-30.5191 5.2619,-15.0841 12.9793,-27.0111 8.0683,-11.927 18.9429,-19.2936 11.2254,-7.3667 25.6079,-7.3667 11.2254,0 19.9953,4.5603 9.1206,4.5603 15.0841,12.2778 6.3143,7.3667 9.4714,17.1889 3.5079,9.8222 3.5079,20.346 0,13.681 -6.3142,29.8175 -6.3143,16.1365 -16.4873,31.2206 -9.8223,15.0841 -22.4508,27.3619 -12.2778,11.927 -24.5556,18.2413 0.7016,6.3142 2.8064,18.592 2.1047,11.927 5.6127,23.854 3.8587,11.927 8.7698,20.6968 5.2619,8.7698 12.2778,8.7698 3.5079,0 5.9635,-2.1047 2.8063,-2.1048 4.9111,-5.6127 2.1047,-3.508 3.5079,-7.7175 1.754,-4.2095 3.1572,-8.0682 l 2.1047,-4.9111 q 0.7016,-1.0524 0.7016,-1.4032 0.3508,-0.3508 0.7016,-1.0524 2.4555,-4.5603 4.5603,-8.419 2.4556,-3.8588 6.6651,-6.6651 l -0.3508,0 q 1.4032,-1.4032 2.8063,-1.4032 1.754,-0.3508 3.1572,-0.3508 3.8587,0 8.419,2.4556 4.5603,2.4555 8.4191,6.3143 3.8587,3.5079 6.3143,8.0682 2.4555,4.2095 2.4555,8.4191 z m -69.4571,-154.7 q 0,-3.5079 -0.3508,-7.3667 -0.3508,-3.8587 -1.754,-6.6651 -4.9111,5.9635 -8.7698,14.3826 -3.508,8.0682 -5.9635,17.1889 -2.4556,8.7698 -4.2095,17.8904 -1.4032,9.1207 -2.1048,16.8381 9.1206,-10.8746 16.1365,-24.5555 7.0159,-14.0318 7.0159,-27.7127 z"
     style="font-style:normal;font-variant:normal;font-weight:normal;font-stretch:normal;font-size:medium;line-height:125%;font-family:'Just Another Hand';-inkscape-font-specification:'Just Another Hand';text-align:center;letter-spacing:0px;word-spacing:0px;text-anchor:middle;fill:#454545;fill-opacity:1;stroke:none;stroke-width:1px;stroke-linecap:butt;stroke-linejoin:miter;stroke-opacity:1"
     id="path3250"
     inkscape:connector-curvature="0" />
  <g
     id="g3297"
     style="fill:#ff0000;fill-opacity:1">
    <path
       inkscape:connector-curvature="0"
       id="path3252"
       style="font-style:normal;font-variant:normal;font-weight:normal;font-stretch:normal;font-size:medium;line-height:125%;font-family:'Just Another Hand';-inkscape-font-specification:'Just Another Hand';text-align:center;letter-spacing:0px;word-spacing:0px;text-anchor:middle;fill:#ff0000;fill-opacity:1;stroke:none;stroke-width:1px;stroke-linecap:butt;stroke-linejoin:miter;stroke-opacity:1"
       d="m 2473.305,1958.1119 q 0,5.2619 -1.7539,10.5238 -1.4032,4.9111 -3.1572,9.8222 -7.7174,19.9952 -18.9428,37.1841 -11.2254,16.8381 -25.9588,29.1159 -14.7333,12.2778 -33.3254,19.2936 -18.592,7.0159 -41.0428,7.0159 -29.8175,0 -51.2159,-12.6286 -21.3984,-12.6285 -36.4825,-32.6238 -15.0841,-20.346 -24.9063,-45.2523 -9.4715,-24.9064 -15.0842,-49.8127 -8.419,-36.1318 -12.9793,-72.2635 -4.5603,-36.4825 -4.5603,-72.9651 0,-21.3984 1.7539,-44.1999 2.1048,-22.8016 7.0159,-44.9016 4.9111,-22.4508 13.3302,-43.1476 8.419,-21.0476 21.0476,-38.5873 12.6285,-17.8905 29.8174,-31.5714 17.5397,-13.681 40.6921,-21.3985 8.419,-3.1571 17.5397,-4.2095 9.1206,-1.4032 18.2412,-1.4032 18.2413,0 34.7286,5.9635 16.4873,5.9635 28.7651,16.8381 12.6285,10.8746 19.6444,26.3095 7.3667,15.435 7.3667,34.3778 0,6.3143 -2.8064,9.4714 -2.8063,3.1572 -9.8222,3.1572 -12.9794,0 -20.346,-4.2095 -7.0159,-4.2096 -11.5762,-10.5238 -4.5603,-6.3143 -7.7175,-13.681 -2.8063,-7.3667 -7.0159,-13.6809 -4.2095,-6.3143 -11.2253,-10.5238 -7.0159,-4.2096 -19.2937,-4.2096 -12.2778,0 -23.1524,4.9111 -10.5238,4.5604 -19.6444,12.2778 -8.7698,7.7175 -16.1365,17.5397 -7.0159,9.4714 -12.6286,19.2936 -14.7333,27.3619 -20.6968,58.5826 -5.9635,30.8698 -5.9635,62.0904 0,10.5238 0.7016,27.3619 1.0524,16.4873 2.8063,36.4826 2.1048,19.9952 5.6127,42.446 3.508,22.1 8.4191,43.4984 5.2619,21.3984 12.2778,41.0428 7.3666,19.6445 16.4873,34.3778 9.4714,14.7333 21.0476,23.5032 11.927,8.7698 26.6603,8.7698 15.0841,0 26.6603,-7.7175 11.5762,-8.0682 19.6444,-19.9952 8.4191,-12.2778 13.681,-26.3095 5.6127,-14.3825 8.7698,-26.6603 1.0524,-3.5079 1.754,-6.3143 1.0524,-2.8063 2.4555,-4.9111 1.754,-2.1048 4.2096,-3.1572 2.4555,-1.0523 7.0158,-1.0523 4.9112,0 11.5762,2.1047 7.0159,1.754 12.9794,5.2619 6.3143,3.508 10.5238,8.4191 4.2095,4.9111 4.2095,10.8746 z" />
    <path
       inkscape:connector-curvature="0"
       id="path3254"
       style="font-style:normal;font-variant:normal;font-weight:normal;font-stretch:normal;font-size:medium;line-height:125%;font-family:'Just Another Hand';-inkscape-font-specification:'Just Another Hand';text-align:center;letter-spacing:0px;word-spacing:0px;text-anchor:middle;fill:#ff0000;fill-opacity:1;stroke:none;stroke-width:1px;stroke-linecap:butt;stroke-linejoin:miter;stroke-opacity:1"
       d="m 2650.1049,2043.0039 q 0,7.0159 -4.5603,10.173 -4.5603,3.1572 -11.2254,3.1572 -4.2095,0 -8.7699,-0.7016 -4.5603,-1.0524 -8.7698,-2.1048 -7.3667,-2.1047 -11.5762,-5.2619 -3.8587,-3.1571 -5.9635,-7.0158 -2.1047,-4.2096 -2.8063,-9.1207 -0.3508,-4.9111 -0.7016,-10.8746 0,-1.7539 -0.3508,-3.1571 0,-1.4032 0,-2.8064 -1.0524,-19.9952 -2.1048,-41.0428 -0.7016,-21.0476 -0.7016,-41.0429 0,-10.173 0,-20.346 0.3508,-10.173 0.7016,-20.346 0.3508,-10.173 0.3508,-19.9953 0.3508,-10.173 0.3508,-20.346 0,-2.1047 -0.3508,-3.8587 0,-2.1048 -0.3508,-4.2095 -9.1206,13.3301 -16.1365,29.8174 -6.6651,16.1365 -11.927,33.6762 -5.2619,17.1889 -9.1206,34.7286 -3.5079,17.1889 -5.9635,32.9746 l -1.0524,7.3666 q -1.7539,12.2778 -3.5079,25.2572 -1.754,12.6285 -1.754,25.2571 0,5.2619 1.754,11.5762 0.7016,2.8063 1.0524,5.6127 0.7016,2.4555 0.7016,6.3143 0,8.419 -4.2095,11.2254 -4.2096,3.1571 -11.2254,3.1571 -4.2096,0 -9.4715,-0.7016 -4.9111,-0.7016 -9.8222,-2.4555 -4.5603,-1.4032 -8.7698,-3.8588 -4.2096,-2.4555 -6.6651,-6.3142 -2.1048,-4.5604 -4.2095,-24.2048 -1.754,-19.6444 -3.508,-48.7603 -1.4031,-29.1159 -2.8063,-65.2476 -1.4032,-36.4825 -2.8064,-74.719 -1.0523,-38.2365 -2.1047,-75.7715 -0.7016,-37.5349 -1.4032,-69.1063 -0.3508,-31.5714 -0.7016,-54.7238 -0.3508,-23.5032 -0.3508,-32.9746 0,-7.0159 1.754,-12.6285 2.1048,-5.9635 11.2254,-5.9635 9.4714,0 17.8905,4.5603 8.419,4.2095 12.2777,13.3301 0.7016,1.4032 1.4032,11.5762 0.7016,9.8222 1.4032,25.608 0.7016,15.4349 1.4032,35.7809 0.7015,19.9952 1.4031,41.7444 0.7016,21.3984 1.4032,43.1476 0.7016,21.7492 1.4032,40.6921 l 1.7539,51.9174 q 4.2096,-10.8746 10.5239,-22.8015 6.3142,-11.927 14.3825,-21.7492 8.419,-9.8223 18.592,-16.1365 10.5239,-6.3143 23.1524,-6.3143 15.4349,0 24.2048,8.0682 8.7698,8.0683 12.9793,19.9953 4.5604,11.9269 5.6127,25.6079 1.0524,13.6809 1.0524,24.9063 0,7.0159 -0.3508,13.681 0,6.6651 -0.3508,13.3301 -0.3508,7.0159 -0.7016,14.0318 0,6.6651 0,13.6809 0,24.2048 1.0524,49.8127 1.0524,25.2572 5.2619,49.8127 l 0.7016,4.9111 q 0.7016,2.1048 1.0524,4.9111 0.3508,2.8064 0.3508,5.2619 z" />
    <path
       inkscape:connector-curvature="0"
       id="path3256"
       style="font-style:normal;font-variant:normal;font-weight:normal;font-stretch:normal;font-size:medium;line-height:125%;font-family:'Just Another Hand';-inkscape-font-specification:'Just Another Hand';text-align:center;letter-spacing:0px;word-spacing:0px;text-anchor:middle;fill:#ff0000;fill-opacity:1;stroke:none;stroke-width:1px;stroke-linecap:butt;stroke-linejoin:miter;stroke-opacity:1"
       d="m 2690.0953,1622.7532 q 0,24.2048 -0.7016,48.4095 -0.7016,24.2048 -0.7016,48.4096 0,3.8587 -0.3508,7.3666 0,3.508 -1.0524,6.6651 -1.0524,2.8063 -3.5079,4.5603 -2.4556,1.754 -7.0159,1.754 -11.5762,0 -20.6968,-5.9635 -9.1206,-5.9635 -10.8746,-18.5921 -1.0524,-9.1206 -1.4032,-17.5396 0,-8.4191 -0.7016,-17.5397 -1.7539,-16.8381 -3.5079,-33.6762 -1.4032,-16.8381 -1.4032,-33.6762 0,-7.0159 2.8064,-10.8746 3.1571,-3.8587 10.5238,-3.8587 5.9635,0 12.6286,1.0524 7.0158,1.0523 12.6285,3.8587 5.9635,2.4555 9.4714,7.3667 3.8588,4.5603 3.8588,12.2777 z" />
    <path
       inkscape:connector-curvature="0"
       id="path3258"
       style="font-style:normal;font-variant:normal;font-weight:normal;font-stretch:normal;font-size:medium;line-height:125%;font-family:'Just Another Hand';-inkscape-font-specification:'Just Another Hand';text-align:center;letter-spacing:0px;word-spacing:0px;text-anchor:middle;fill:#ff0000;fill-opacity:1;stroke:none;stroke-width:1px;stroke-linecap:butt;stroke-linejoin:miter;stroke-opacity:1"
       d="m 2785.1605,2053.1769 q 0,3.8588 -1.754,6.6651 -1.754,2.4556 -4.5603,3.8587 -2.4556,1.4032 -5.6127,1.754 -2.8064,0.7016 -5.6127,0.7016 -3.8587,0 -9.1206,-1.0524 -4.9112,-0.7016 -9.8223,-2.4555 -4.9111,-1.754 -9.1206,-4.2096 -3.8587,-2.8063 -5.9635,-6.665 -2.1048,-3.508 -3.8587,-12.9794 -1.4032,-9.8222 -2.4556,-22.4508 -1.0524,-12.9793 -1.7539,-27.3619 -0.7016,-14.7333 -1.4032,-28.0635 -0.3508,-13.3301 -0.7016,-23.8539 0,-10.8746 0,-16.1365 0,-24.5556 0.7016,-47.3572 1.0524,-23.1523 2.1047,-47.3571 -1.7539,0 -3.5079,0.3508 -1.754,0.3508 -3.5079,0.3508 -4.5603,0.7016 -9.4715,1.0524 -4.5603,0.3508 -9.4714,0.3508 -5.9635,0 -10.5238,-2.1048 -4.5603,-2.1048 -4.5603,-9.4714 0,-8.7699 3.8587,-14.0318 3.8588,-5.2619 9.8222,-8.0682 5.9635,-3.1572 12.9794,-4.2095 7.0159,-1.4032 13.681,-2.1048 1.0523,0 1.4031,0 0.3508,-0.3508 1.4032,-0.3508 0.3508,-4.2095 0.7016,-10.173 0.3508,-6.3143 0.7016,-13.681 0.3508,-11.5762 1.0524,-24.5555 0.7015,-13.3302 1.4031,-25.2572 0.7016,-12.2777 1.754,-21.3984 1.0524,-9.4714 2.1048,-13.3301 1.7539,-4.5603 3.8587,-7.3667 2.4555,-2.8063 8.7698,-2.8063 14.0318,0 21.7492,9.1206 7.7175,9.1206 7.7175,22.4508 0,15.4349 -1.0524,30.8698 -0.7016,15.4349 -1.4032,31.2207 l -1.0523,17.8904 q 8.7698,-1.0524 17.5396,-3.1571 8.4191,-1.754 16.8381,-3.1572 8.7699,-1.4031 16.8381,-1.4031 7.0159,0 10.8746,3.8587 3.8587,3.5079 3.8587,10.5238 0,7.7175 -2.8063,15.0841 -2.8063,7.3667 -9.8222,11.2254 l 0.3508,0 q -1.4032,0.7016 -8.4191,2.1048 -7.0158,1.0524 -16.1365,2.1047 -8.7698,1.0524 -17.5397,2.1048 -8.419,1.0524 -12.6285,1.4032 l -0.3508,0 q -0.7016,19.6444 -1.0524,38.9381 -0.3508,18.9428 -0.3508,38.5873 0,27.0111 1.4032,57.5301 1.754,30.1683 5.6127,57.5302 l 2.8063,15.7857 q 1.4032,5.9635 2.4556,11.9269 1.0524,5.6127 1.0524,11.2254 z" />
    <path
       inkscape:connector-curvature="0"
       id="path3260"
       style="font-style:normal;font-variant:normal;font-weight:normal;font-stretch:normal;font-size:medium;line-height:125%;font-family:'Just Another Hand';-inkscape-font-specification:'Just Another Hand';text-align:center;letter-spacing:0px;word-spacing:0px;text-anchor:middle;fill:#ff0000;fill-opacity:1;stroke:none;stroke-width:1px;stroke-linecap:butt;stroke-linejoin:miter;stroke-opacity:1"
       d="m 2888.2938,1766.9294 q 0,5.9635 -2.8064,8.7698 -2.4555,2.4556 -9.4714,2.4556 -3.1571,0 -9.8222,-0.7016 -6.6651,-1.0524 -13.681,-2.8064 -6.665,-1.7539 -11.9269,-4.9111 -4.9112,-3.1571 -4.9112,-7.7174 0,-1.4032 1.0524,-7.7175 1.0524,-6.6651 2.4556,-14.0317 1.7539,-7.3667 2.8063,-13.3302 1.4032,-5.9635 2.1048,-6.6651 l 0,0.3508 q 1.754,-2.8063 4.2095,-3.5079 2.4556,-0.7016 4.9111,-0.7016 3.1572,0 8.0683,1.0524 5.2619,0.7016 10.173,2.4555 5.2619,1.4032 9.4714,3.8588 4.2095,2.4555 5.2619,5.2619 1.0524,2.8063 1.0524,7.7174 0.3508,4.5604 0,8.4191 0,1.4032 -0.3508,3.5079 0,1.754 0,2.8064 0,1.7539 0,3.5079 0.3508,1.754 0.7016,3.5079 0.3508,1.754 0.3508,3.8588 0.3508,2.1047 0.3508,4.5603 z m 12.9793,279.5825 q 0,8.0682 -3.8587,11.5761 -3.5079,3.1572 -11.5762,3.1572 -4.2095,0 -9.4714,-1.0524 -4.9111,-1.0524 -9.8222,-2.8063 -4.9111,-2.1048 -9.1207,-4.9111 -4.2095,-2.8064 -6.3142,-6.3143 -1.4032,-2.1048 -2.4556,-12.9794 -1.0524,-10.8746 -1.754,-27.0111 -0.3508,-16.1365 -1.0523,-36.1317 -0.3508,-19.9953 -0.7016,-40.3413 0,-20.346 0,-39.6397 0,-19.2936 0,-33.6762 l 0,-27.0111 q 0,-3.5079 0,-7.0158 0.3508,-3.508 1.4031,-5.9635 1.4032,-2.8064 3.8588,-4.5603 2.8063,-1.754 7.7174,-1.754 15.4349,0 22.4508,8.7698 7.3667,8.4191 9.1207,22.8016 1.7539,21.3984 2.4555,42.7968 1.0524,21.0476 1.754,42.7968 0.7016,19.6445 1.0524,38.9381 0.7015,18.9429 2.4555,37.8857 0.3508,3.8588 0.7016,7.3667 0.3508,3.5079 1.0524,7.0159 0.7016,7.0158 1.4032,14.0317 0.7015,6.6651 0.7015,14.0318 z" />
  </g>
  <g
     id="g3304"
     style="fill:#5c7f5c;fill-opacity:1">
    <path
       inkscape:connector-curvature="0"
       id="path3262"
       style="font-style:normal;font-variant:normal;font-weight:normal;font-stretch:normal;font-size:medium;line-height:125%;font-family:'Just Another Hand';-inkscape-font-specification:'Just Another Hand';text-align:center;letter-spacing:0px;word-spacing:0px;text-anchor:middle;fill:#5c7f5c;fill-opacity:1;stroke:none;stroke-width:1px;stroke-linecap:butt;stroke-linejoin:miter;stroke-opacity:1"
       d="m 3137.708,2010.7309 q 0,8.0683 -8.7698,15.4349 -8.4191,7.3667 -22.1,13.681 -13.3302,5.9635 -29.8175,11.2254 -16.1365,4.9111 -31.9222,8.419 -15.4349,3.508 -28.4143,5.2619 -12.9793,2.1048 -19.2936,2.1048 -11.927,0 -22.1,-2.8064 -9.8222,-2.8063 -17.1889,-8.419 -7.3666,-5.9635 -11.5762,-15.0841 -3.8587,-9.1207 -3.8587,-22.1 0,-93.6619 0.7016,-186.6222 0.7016,-92.9603 0.7016,-187.3238 0,-14.7333 -0.7016,-29.1158 -0.7016,-14.3826 -0.7016,-29.1159 0,-3.5079 0.3508,-8.0683 0.3508,-4.9111 1.754,-8.7698 1.4031,-4.2095 4.2095,-7.0159 2.8063,-2.8063 7.7174,-2.8063 4.9112,0 10.1731,1.4032 5.6127,1.4031 10.173,4.2095 4.9111,2.8063 8.419,7.0159 3.8588,3.8587 5.6127,9.1206 1.754,6.3143 1.4032,13.6809 0,7.0159 0,14.3826 1.754,93.3111 2.4555,185.219 1.0524,91.9079 1.0524,185.219 0,10.5238 0,21.0476 0.3508,10.5238 1.4032,21.0476 9.4714,-0.3508 23.1524,-3.1571 13.6809,-2.8064 27.3619,-7.0159 14.0317,-4.5603 26.3095,-10.173 12.2778,-5.6127 19.2936,-11.927 3.1572,-3.1571 6.6651,-6.3143 3.508,-3.5079 8.7699,-3.5079 4.5603,0 9.4714,3.1571 5.2619,3.1572 9.4714,8.0683 4.2095,4.5603 7.0159,9.8222 2.8063,5.2619 2.8063,9.8222 z" />
    <path
       inkscape:connector-curvature="0"
       id="path3264"
       style="font-style:normal;font-variant:normal;font-weight:normal;font-stretch:normal;font-size:medium;line-height:125%;font-family:'Just Another Hand';-inkscape-font-specification:'Just Another Hand';text-align:center;letter-spacing:0px;word-spacing:0px;text-anchor:middle;fill:#5c7f5c;fill-opacity:1;stroke:none;stroke-width:1px;stroke-linecap:butt;stroke-linejoin:miter;stroke-opacity:1"
       d="m 3279.0779,2085.8007 q 0,14.3826 -1.0524,30.1683 -1.0523,15.7857 -3.5079,31.5714 -2.4556,16.1365 -6.6651,31.5714 -4.2095,15.4349 -10.5238,28.7651 -10.5238,19.6444 -26.6603,34.3778 -15.7857,15.0841 -34.7286,25.2571 -18.9428,10.173 -40.3412,15.4349 -21.3984,5.2619 -43.1476,5.2619 -3.1572,0 -7.3667,-0.3508 -4.5603,-0.3508 -8.7698,-1.7539 -4.2096,-1.0524 -7.0159,-3.8588 -2.8064,-2.8063 -2.8064,-7.7174 0,-2.1048 1.0524,-4.2095 0,-0.7016 0.3508,-1.4032 0,-0.3508 0,-0.7016 2.4556,-7.0159 5.6127,-11.2254 3.1572,-4.2095 7.3667,-6.6651 3.8587,-2.1047 9.4714,-3.1571 5.2619,-0.7016 12.2778,-1.4032 22.4508,-1.0524 42.446,-10.5238 l 0,0.3508 q 22.8016,-11.2254 35.7809,-28.0635 13.3302,-16.4873 19.9953,-36.8333 7.0159,-19.9952 8.7698,-42.446 1.754,-22.4508 1.754,-45.2524 0,-5.2619 0,-7.7175 0,-2.4555 0,-4.5603 0,-1.754 0,-4.2095 0,-2.4556 -0.3508,-7.7175 -12.2778,9.4715 -25.6079,9.4715 -15.435,0 -26.3096,-8.4191 -10.5238,-8.7698 -17.8904,-22.4508 -7.0159,-14.0317 -11.2254,-31.5714 -3.8587,-17.8905 -5.9635,-36.1317 -1.754,-18.5921 -2.4556,-36.1318 -0.3508,-17.5396 -0.3508,-31.2206 l 0,-14.7333 q 0,-18.5921 0,-36.4826 0.3508,-17.8904 1.4032,-35.7809 l 0,-5.2619 q 0,-4.2095 0,-8.4191 0,-4.2095 0.7016,-8.0682 1.4032,-5.6127 3.8587,-8.0683 2.8064,-2.4555 8.7699,-2.4555 2.8063,0 5.2619,0.3508 2.8063,0.3508 5.6127,1.0524 6.6651,2.8063 10.5238,5.9635 3.8587,2.8063 5.6127,7.0158 2.1047,3.8588 2.4555,9.1207 0.7016,5.2619 0.7016,12.2777 l 0,47.0064 q 0,8.419 0,21.0476 0.3508,12.2778 1.0524,27.0111 0.7016,14.7333 1.754,30.519 1.0523,15.7857 3.1571,30.5191 2.1048,14.7333 4.9111,27.0111 2.8064,12.2778 7.0159,20.346 6.3143,-13.6809 10.8746,-31.9222 4.5603,-18.5921 7.3667,-39.6397 3.1571,-21.3984 4.5603,-43.8492 1.7539,-22.4508 2.4555,-43.8492 1.0524,-21.3984 1.0524,-40.3412 0.3508,-19.2937 0.3508,-33.6762 0,-3.508 0,-7.3667 0.3508,-4.2095 1.754,-7.3667 1.4031,-3.5079 3.8587,-5.6126 2.8063,-2.1048 8.0683,-2.1048 2.4555,0 5.2619,0.7016 3.1571,0.7016 5.2619,1.4032 0.7015,0 1.4031,0.3507 1.0524,0 1.754,0 4.9111,1.754 9.4714,3.508 4.5603,1.7539 7.7175,4.5603 3.5079,2.4556 5.2619,6.6651 2.1048,4.2095 2.1048,10.8746 0,8.0682 -0.3508,18.592 0,10.173 -0.7016,21.3984 -0.3508,11.2254 -1.0524,22.1 -0.7016,10.5238 -1.4032,18.9429 l -1.4032,12.2778 q -0.7015,4.9111 -1.0523,9.8222 -0.3508,4.9111 -0.3508,9.1206 0,22.4508 0.3508,44.9016 0.3508,22.1 1.0523,44.5508 0.7016,22.4508 1.0524,44.9016 0.3508,22.1 0.3508,44.5507 z" />
    <path
       inkscape:connector-curvature="0"
       id="path3266"
       style="font-style:normal;font-variant:normal;font-weight:normal;font-stretch:normal;font-size:medium;line-height:125%;font-family:'Just Another Hand';-inkscape-font-specification:'Just Another Hand';text-align:center;letter-spacing:0px;word-spacing:0px;text-anchor:middle;fill:#5c7f5c;fill-opacity:1;stroke:none;stroke-width:1px;stroke-linecap:butt;stroke-linejoin:miter;stroke-opacity:1"
       d="m 3467.8048,1918.1214 q 0,30.5191 -5.262,61.0381 -4.9111,30.1682 -20.6968,57.1793 -4.9111,8.0683 -11.2254,15.7858 -6.3143,7.3666 -14.0317,13.3301 -7.3667,6.3143 -16.4873,9.8222 -8.7698,3.8588 -18.5921,3.8588 -15.4349,0 -27.0111,-7.3667 -11.2254,-7.0159 -19.6444,-18.5921 -8.0683,-11.9269 -13.681,-26.6603 -5.2619,-15.0841 -8.419,-30.519 -2.8064,-15.7857 -4.2095,-30.5191 -1.0524,-14.7333 -1.0524,-25.9587 0,-12.6285 1.0524,-27.7127 1.0524,-15.0841 3.5079,-30.8698 2.8064,-15.7857 7.0159,-31.2206 4.5603,-15.4349 11.5762,-28.7651 7.0158,-13.681 16.8381,-24.2048 9.8222,-10.8746 22.8015,-17.1888 l 0,0.3507 q 11.2254,-5.9634 22.4508,-5.9634 7.0159,0 10.8746,3.1571 3.8588,2.8063 3.508,9.8222 19.2936,3.508 31.2206,18.5921 11.927,15.0841 18.2413,35.0793 6.665,19.9953 8.7698,41.0429 2.4556,21.0476 2.4556,36.4825 z m -79.2794,-87.6984 q -5.9635,0 -11.2254,-4.5603 -6.6651,10.173 -11.2254,23.5032 -4.5603,12.9793 -7.3666,27.0111 -2.4556,13.6809 -3.508,27.7127 -1.0524,14.0317 -1.0524,26.3095 0,10.173 1.0524,26.3095 1.0524,15.7857 3.8587,31.9222 3.1572,16.1365 8.4191,30.1683 5.6127,14.0317 14.3825,20.6968 10.8746,-6.3143 17.8905,-19.9952 7.3667,-14.0318 11.5762,-30.5191 4.2095,-16.4873 5.6127,-33.3254 1.754,-16.8381 1.754,-28.765 0,-8.7699 -1.0524,-22.8016 -1.0524,-14.0318 -3.508,-28.4143 -2.4555,-14.7333 -7.0158,-27.3619 -4.2096,-12.6286 -10.8746,-18.9429 -3.1572,1.0524 -7.7175,1.0524 z" />
    <path
       inkscape:connector-curvature="0"
       id="path3268"
       style="font-style:normal;font-variant:normal;font-weight:normal;font-stretch:normal;font-size:medium;line-height:125%;font-family:'Just Another Hand';-inkscape-font-specification:'Just Another Hand';text-align:center;letter-spacing:0px;word-spacing:0px;text-anchor:middle;fill:#5c7f5c;fill-opacity:1;stroke:none;stroke-width:1px;stroke-linecap:butt;stroke-linejoin:miter;stroke-opacity:1"
       d="m 3551.2936,2060.1928 q 0,8.0683 -4.9111,10.5238 -4.5603,2.4556 -11.2254,2.4556 -5.9635,0 -11.927,-1.0524 -5.6127,-0.7016 -10.8746,-3.1572 -4.9111,-2.4555 -8.7698,-6.665 -3.5079,-4.2096 -4.9111,-10.8746 -4.9111,-21.0476 -5.6127,-41.0429 -0.7016,-20.346 -0.7016,-41.7444 l 0,-43.1476 q 0,-29.4667 2.4555,-61.0381 2.4556,-31.9222 5.262,-61.3889 0,-1.0524 0.3507,-2.4555 0.3508,-1.4032 0.3508,-2.1048 0.3508,-3.8587 1.0524,-8.419 0.7016,-4.5604 2.1048,-8.0683 1.7539,-3.8587 4.5603,-6.3143 3.1571,-2.4555 8.0682,-2.4555 5.6127,0 10.5239,2.4555 5.2619,2.1048 9.1206,5.9635 3.8587,3.508 5.9635,8.7699 2.4555,5.2619 2.4555,10.8746 0,5.9634 -0.3508,13.3301 -0.3508,7.0159 -1.0523,13.3302 0,1.7539 -0.3508,3.8587 0,2.1048 -0.3508,3.8587 4.9111,-9.8222 11.2254,-20.346 6.3143,-10.8746 14.3825,-19.6444 8.419,-9.1207 18.2413,-14.7334 10.173,-5.6127 22.4508,-5.6127 10.173,0 16.838,3.1572 6.6651,3.1571 10.5239,9.1206 4.2095,5.6127 5.6127,13.3302 1.7539,7.7174 1.7539,16.4873 0,11.9269 -0.7016,24.2047 -0.7016,11.927 -1.4031,23.854 -1.0524,12.2778 -1.754,24.2047 -0.7016,11.927 -0.7016,24.2048 0,14.7333 0.7016,30.519 0.7016,15.4349 2.1048,29.8175 1.4031,14.0317 3.1571,25.6079 1.754,11.2254 3.5079,17.5397 1.4032,5.2619 2.8064,12.2778 1.7539,6.665 3.1571,14.0317 1.754,7.0159 2.8064,13.681 1.0524,6.665 1.0524,11.9269 0,7.7175 -6.3143,9.8223 -5.9635,2.1047 -11.927,2.1047 -5.9635,0 -13.681,-1.0524 -7.3666,-0.7015 -13.3301,-3.8587 -7.3667,-5.2619 -9.8222,-14.7333 -2.1048,-9.4714 -2.8064,-18.5921 l -1.0524,-9.4714 q -1.0523,-8.419 -2.8063,-22.1 -1.754,-13.6809 -3.508,-30.1682 -1.4031,-16.4873 -2.4555,-34.027 -1.0524,-17.8905 -1.0524,-34.7286 0,-15.0841 1.0524,-29.1158 1.4032,-14.0318 2.8063,-28.4143 0.7016,-7.3667 1.0524,-11.927 0.3508,-4.5603 1.0524,-11.927 -7.0159,11.2254 -14.0317,26.3095 -7.0159,15.0841 -13.3302,31.5714 -6.3143,16.1366 -11.5762,31.5715 -4.9111,15.4349 -7.7174,27.0111 l -2.1048,7.7174 q -1.754,5.6127 -3.1571,11.2254 -1.0524,5.6127 -1.0524,10.5238 0,6.3143 0.7016,14.7334 0.7015,8.0682 1.7539,15.4349 1.0524,8.7698 2.4556,17.8905 0,0.7015 0.7016,4.5603 0.7016,3.8587 1.4031,9.1206 0.7016,5.2619 1.0524,11.2254 0.7016,5.6127 0.7016,10.173 z" />
  </g>
  <path
     d="m 3976.1045,1583.4643 q 0,14.0318 -6.3143,21.0477 -5.9635,6.665 -15.4349,9.4714 -9.4714,2.8063 -20.6968,3.5079 -10.8746,0.3508 -20.6968,1.754 l -18.9429,2.1048 q 8.0683,62.0904 9.8222,124.1809 2.1048,61.7396 2.1048,124.8825 0,19.6444 -1.0524,41.7444 -1.0524,21.7492 -4.9111,43.4984 -3.8587,21.3984 -11.2254,41.0429 -7.3666,19.6444 -19.9952,34.7285 -12.6286,14.7334 -31.2206,23.854 -18.5921,8.7698 -44.5508,8.7698 -29.8175,0 -53.3206,-12.6285 -23.1524,-12.9794 -39.2889,-33.6762 -16.1365,-20.6968 -24.5556,-47.0064 -8.419,-26.6603 -8.419,-54.0222 0,-5.6127 0.3508,-18.2412 0.7016,-12.6286 2.8063,-25.608 2.4556,-13.3301 7.0159,-23.1523 4.9111,-10.173 12.9794,-10.173 4.5603,0 11.2253,2.4555 7.0159,2.1048 12.9794,5.9635 6.3143,3.8587 10.5238,9.1206 4.5603,4.9111 4.5603,10.5238 0,13.3302 -3.1571,25.9588 -3.1572,12.6285 -3.1572,25.9587 0,14.3825 4.2096,31.9222 4.2095,17.5397 12.6285,33.3254 8.4191,15.4349 21.0477,25.9587 12.9793,10.5238 30.1682,10.5238 12.6286,0 21.3984,-4.5603 9.1206,-4.9111 15.0841,-12.6286 6.3143,-8.0682 9.8223,-18.2412 3.8587,-10.173 6.3142,-20.6968 8.0683,-35.4302 9.1207,-71.5619 1.4031,-36.4826 1.4031,-73.6667 0,-48.0587 -2.4555,-96.1174 -2.1048,-48.0587 -8.0683,-96.1175 -23.8539,2.8064 -47.0063,5.9635 -23.1524,3.1572 -47.0063,3.1572 -5.9635,0 -9.4715,-2.4556 -3.1571,-2.4555 -3.1571,-8.7698 0,-12.2778 7.3667,-18.5921 7.3666,-6.6651 18.592,-9.4714 18.5921,-5.2619 37.8857,-7.3667 19.6445,-2.4555 38.5873,-5.2619 l 0,-5.6127 q 0,-5.9635 4.2095,-7.3666 4.2096,-1.754 9.1207,-1.754 7.3666,0 14.3825,2.1048 7.0159,2.1047 12.9794,7.0158 19.6444,-3.1571 38.9381,-7.3666 19.6444,-4.5604 40.3412,-4.5604 7.3667,0 11.5762,4.5604 4.5603,4.2095 4.5603,11.5761 z"
     style="font-style:normal;font-variant:normal;font-weight:normal;font-stretch:normal;font-size:medium;line-height:125%;font-family:'Just Another Hand';-inkscape-font-specification:'Just Another Hand';text-align:center;letter-spacing:0px;word-spacing:0px;text-anchor:middle;fill:#454545;fill-opacity:1;stroke:none;stroke-width:1px;stroke-linecap:butt;stroke-linejoin:miter;stroke-opacity:1"
     id="path3270"
     inkscape:connector-curvature="0" />
  <path
     d="m 4241.3046,1846.5595 q 0,18.9429 -1.4032,42.446 -1.0524,23.5032 -4.9111,48.0588 -3.8587,24.5555 -11.2254,48.0587 -7.3666,23.1524 -19.9952,41.3936 -12.6286,18.2413 -31.2206,29.4667 -18.2413,10.8746 -44.2,10.8746 -14.3826,0 -28.0635,-4.2095 -13.681,-4.2096 -25.2572,-12.6286 -18.2412,-13.3302 -30.8698,-38.2365 -12.2778,-25.2571 -20.346,-56.4778 -8.0683,-31.5714 -12.2778,-66.6507 -4.2095,-35.4302 -6.3143,-69.4572 -1.7539,-34.0269 -2.1047,-64.1952 -0.3508,-30.1682 -0.3508,-51.5667 0,-5.6126 0,-16.1365 0,-10.5238 0,-23.1523 0.3508,-12.9794 0.7016,-26.6603 0.3508,-13.681 1.0523,-25.9588 0.7016,-12.6285 1.754,-22.1 1.0524,-9.4714 2.8064,-13.6809 1.7539,-4.2095 3.8587,-5.9635 2.4555,-1.754 7.3667,-1.754 15.7857,0 24.9063,9.8223 9.4714,9.4714 9.4714,25.2571 0,23.1524 -1.0524,46.3047 -1.0523,23.1524 -1.0523,46.3048 0,10.173 0,29.8174 0.3508,19.6445 1.4031,44.9016 1.0524,24.9064 3.1572,53.6714 2.1047,28.7651 5.6127,57.1794 3.8587,28.0635 9.4714,54.373 5.6127,25.9587 13.3302,45.9539 8.0682,19.9953 18.592,31.9223 10.5238,11.9269 24.2048,11.9269 12.9793,0 22.4508,-10.173 9.8222,-10.173 16.1365,-25.9587 6.665,-16.1365 10.5238,-35.7809 4.2095,-19.6445 6.3143,-38.5873 2.1047,-19.2937 2.8063,-35.4302 0.7016,-16.4873 0.7016,-25.9587 0,-19.2936 -1.0524,-42.7968 -0.7016,-23.854 -2.4555,-49.4619 -1.4032,-25.6079 -4.2096,-52.2683 -2.8063,-26.6603 -6.665,-51.5666 -3.8588,-25.2571 -9.1207,-48.0587 -4.9111,-22.8016 -11.5762,-40.6921 -1.0523,-3.1571 -3.5079,-8.0682 -2.1048,-4.9111 -2.1048,-8.0683 0,-5.6127 2.4556,-8.419 2.8063,-2.8064 6.6651,-3.8588 3.8587,-1.4031 8.419,-1.4031 4.5603,-0.3508 8.4191,-0.3508 8.419,0 13.6809,0.7016 5.6127,0.7015 12.9794,4.9111 4.9111,2.8063 9.1206,15.4349 4.5603,12.6286 8.4191,31.9222 3.8587,19.2936 7.0158,43.8492 3.508,24.2048 6.3143,50.1635 2.8064,25.6079 4.9111,51.2158 2.1048,25.608 3.508,47.3572 1.4031,21.7492 2.1047,38.2365 0.7016,16.4873 0.7016,24.2047 z"
     style="font-style:normal;font-variant:normal;font-weight:normal;font-stretch:normal;font-size:medium;line-height:125%;font-family:'Just Another Hand';-inkscape-font-specification:'Just Another Hand';text-align:center;letter-spacing:0px;word-spacing:0px;text-anchor:middle;fill:#454545;fill-opacity:1;stroke:none;stroke-width:1px;stroke-linecap:butt;stroke-linejoin:miter;stroke-opacity:1"
     id="path3272"
     inkscape:connector-curvature="0" />
  <path
     d="m 4558.4218,1810.077 q 0,11.2254 -4.2095,17.5397 -3.8587,5.9635 -10.5238,9.1206 -6.6651,3.1571 -15.0841,3.8587 -8.0683,0.7016 -16.4873,1.0524 18.9428,19.6445 30.1682,45.2524 11.2254,25.6079 11.2254,52.9698 0,27.0111 -9.1206,52.9698 -9.1206,25.608 -25.9587,45.6032 -16.8381,19.9952 -40.3413,32.273 -23.5032,12.2778 -52.2682,12.2778 -22.8016,0 -41.0429,-8.7698 -18.2412,-8.7699 -32.6238,-23.854 -14.3825,-15.4349 -25.2571,-35.4302 -10.8746,-20.346 -18.5921,-43.1476 -7.7174,-23.1523 -12.9793,-47.7079 -4.9111,-24.5555 -8.0683,-48.0587 -2.8063,-23.5032 -4.2095,-44.5508 -1.0524,-21.3984 -1.0524,-38.2365 0,-19.6444 1.754,-42.0952 2.1047,-22.4508 6.6651,-45.2524 4.5603,-22.8016 12.2777,-44.5508 7.7175,-21.7492 19.6445,-39.9904 11.927,-18.5921 28.0635,-32.2731 16.4873,-14.0317 38.2365,-21.0476 8.0682,-2.8063 16.1365,-4.2095 8.0682,-1.4032 16.1365,-1.4032 35.0793,0 58.2317,18.9429 23.5032,18.9428 35.0794,51.2158 2.1047,4.9112 3.5079,10.1731 1.4032,4.9111 1.4032,10.173 0,6.3143 -4.5604,8.0682 -4.5603,1.754 -9.4714,1.754 -12.6285,0 -20.346,-4.5603 -7.7175,-4.5603 -12.9794,-11.2254 -5.2619,-6.6651 -9.4714,-14.7333 -3.8587,-8.0683 -8.7698,-14.7334 -4.9111,-6.6651 -12.2778,-11.2254 -7.3667,-4.5603 -19.6444,-4.5603 -17.5397,0 -30.8699,9.8222 -13.3301,9.8223 -23.1524,25.9588 -9.8222,15.7857 -16.4873,36.1317 -6.665,19.9952 -10.5238,40.3413 -3.8587,19.9952 -5.6127,38.5872 -1.7539,18.5921 -1.7539,31.5715 0,13.6809 1.7539,37.8857 1.754,24.2047 5.6127,52.619 4.2096,28.4143 10.8746,57.8809 7.0159,29.1159 17.1889,52.9699 10.5238,23.8539 24.5556,38.9381 14.3825,15.0841 33.3254,15.0841 16.4873,0 29.8174,-9.4714 13.3302,-9.8223 22.4508,-24.2048 9.4714,-14.7333 14.3825,-31.2206 4.9112,-16.8381 4.9112,-31.2206 0,-13.681 -3.8588,-27.0112 -3.8587,-13.6809 -10.8746,-25.6079 -7.0159,-12.2778 -16.8381,-22.4508 -9.8222,-10.5238 -21.7492,-17.5397 -4.2095,-2.8063 -9.4714,-4.9111 -4.9111,-2.4555 -10.173,-4.2095 -2.8064,-0.3508 -10.8746,-0.7016 -8.0683,-0.7016 -16.4873,-1.7539 -8.4191,-1.0524 -15.0841,-3.1572 -6.6651,-2.4555 -6.6651,-7.0159 0,-6.3142 2.1047,-12.9793 2.1048,-6.6651 5.9635,-11.927 4.2096,-5.2619 9.4715,-8.7698 5.6127,-3.508 12.6285,-3.508 10.173,0 21.7492,3.1572 11.927,2.8063 21.0477,6.665 17.5396,-1.0523 34.7285,-2.1047 17.1889,-1.4032 34.027,-3.5079 5.9635,-0.7016 11.5762,-1.754 5.9635,-1.0524 12.2778,-1.0524 8.419,0 12.6285,3.8587 4.2095,3.8588 4.2095,12.9794 z"
     style="font-style:normal;font-variant:normal;font-weight:normal;font-stretch:normal;font-size:medium;line-height:125%;font-family:'Just Another Hand';-inkscape-font-specification:'Just Another Hand';text-align:center;letter-spacing:0px;word-spacing:0px;text-anchor:middle;fill:#454545;fill-opacity:1;stroke:none;stroke-width:1px;stroke-linecap:butt;stroke-linejoin:miter;stroke-opacity:1"
     id="path3274"
     inkscape:connector-curvature="0" />
  <g
     id="g3259"
     transform="matrix(8.1689667,0,0,8.1689667,4168.2254,2850.7115)"
     style="fill:#454545;fill-opacity:1">
    <path
       id="path3233"
       d="M 86.185,5 13.815,5 C 11.783,5 10.13,6.653 10.13,8.685 l 0,82.631 c 0,2.031 1.652,3.685 3.685,3.685 l 72.369,0 c 2.032,0 3.685,-1.653 3.685,-3.685 l 0,-82.631 C 89.869,6.653 88.217,5 86.185,5 Z m -22.499,6.65 5.01,0 1.853,3.23 1.815,-3.23 4.981,0 -4.27,7.259 4.668,7.65 -5.114,0 -2.122,-3.604 -2.13,3.604 -5.086,0 4.657,-7.742 -4.262,-7.167 z m -4.733,-0.334 c 1.629,0 2.854,0.364 3.456,0.704 l 0.48,0.271 -0.909,3.866 -0.815,-0.372 c -0.642,-0.292 -1.341,-0.44 -2.082,-0.44 -2.079,0 -3.271,1.381 -3.271,3.79 0,2.37 1.199,3.729 3.291,3.729 0.78,0 1.634,-0.194 2.074,-0.385 l 0.854,-0.372 0.685,3.854 -0.466,0.253 c -0.602,0.328 -1.857,0.678 -3.576,0.678 -4.444,0 -7.316,-2.974 -7.316,-7.575 -10e-4,-4.785 3.052,-8.001 7.595,-8.001 z m -21.898,4.106 c 0.317,-0.772 0.754,-1.473 1.3,-2.086 0.562,-0.628 1.19,-1.103 1.871,-1.412 0.873,-0.402 1.885,-0.607 3.007,-0.607 2.06,0 3.738,0.715 4.989,2.122 1.228,1.381 1.849,3.294 1.849,5.686 0,2.372 -0.617,4.273 -1.834,5.65 -1.244,1.406 -2.916,2.119 -4.97,2.119 -2.075,0 -3.759,-0.71 -5.001,-2.108 -1.219,-1.371 -1.836,-3.254 -1.836,-5.597 0,-1.475 0.211,-2.742 0.625,-3.767 z m -14.798,-3.698 0.615,-0.108 c 1.101,-0.192 2.613,-0.299 4.101,-0.299 2.539,0 4.291,0.509 5.679,1.648 1.583,1.28 2.422,3.284 2.422,5.791 0,3.295 -1.279,5.166 -2.353,6.154 -1.456,1.317 -3.598,1.983 -6.37,1.983 -1.249,0 -2.47,-0.071 -3.456,-0.213 l -0.638,-0.091 0,-14.865 z m 62.477,78.142 -69.465,0 -0.012,-57.521 69.479,0 -0.002,57.521 z"
       inkscape:connector-curvature="0"
       style="fill:#454545;fill-opacity:1" />
    <path
       id="path3235"
       d="m 27.023,22.962 c 1.104,0 1.96,-0.32 2.544,-0.953 0.639,-0.689 0.962,-1.75 0.962,-3.149 0.008,-1.254 -0.3,-2.2 -0.914,-2.819 -0.549,-0.552 -1.337,-0.832 -2.341,-0.832 -0.219,0 -0.403,0.008 -0.558,0.02 l 0,7.733 c 0.091,0.001 0.18,0.001 0.256,0.001 l 0.051,0 z"
       inkscape:connector-curvature="0"
       style="fill:#454545;fill-opacity:1" />
    <path
       id="path3237"
       d="m 43.259,22.956 c 0.763,0 1.346,-0.28 1.836,-0.881 0.518,-0.632 0.779,-1.647 0.779,-3.016 0,-1.352 -0.253,-2.346 -0.753,-2.956 -0.474,-0.578 -1.065,-0.849 -1.862,-0.849 -0.798,0 -1.394,0.274 -1.876,0.862 -0.508,0.62 -0.766,1.622 -0.766,2.979 0,1.332 0.266,2.331 0.79,2.969 0.5,0.61 1.088,0.892 1.852,0.892 z"
       inkscape:connector-curvature="0"
       style="fill:#454545;fill-opacity:1" />
    <rect
       id="rect3239"
       height="3.5910001"
       width="21.349001"
       y="50.249001"
       x="54.896"
       style="fill:#454545;fill-opacity:1" />
    <rect
       id="rect3241"
       height="3.5910001"
       width="21.349001"
       y="59.304001"
       x="54.896"
       style="fill:#454545;fill-opacity:1" />
    <rect
       id="rect3243"
       height="3.5899999"
       width="52.327999"
       y="68.358002"
       x="23.916"
       style="fill:#454545;fill-opacity:1" />
    <rect
       id="rect3245"
       height="3.5910001"
       width="52.327999"
       y="77.412003"
       x="23.916"
       style="fill:#454545;fill-opacity:1" />
    <path
       id="path3247"
       d="m 25.283,44.228 c 0.179,0.454 0.401,1.185 0.666,2.195 l 4.369,16.457 3.631,0 3.938,-13.948 3.38,13.948 3.596,0 4.835,-14.944 c 0.421,-1.283 0.742,-2.214 0.964,-2.789 0.225,-0.578 0.417,-1.018 0.594,-1.319 0.173,-0.302 0.358,-0.541 0.556,-0.714 0.198,-0.174 0.477,-0.325 0.837,-0.454 l 0,-1.45 -6.777,0 0,1.428 c 0.53,0.1 0.934,0.349 1.222,0.746 0.287,0.396 0.431,0.896 0.431,1.503 0,0.402 -0.044,0.873 -0.134,1.405 -0.092,0.535 -0.255,1.189 -0.495,1.968 l -2.354,7.81 -3.49,-14.86 -3.343,0 -4.137,14.859 -2.248,-8.979 c -0.119,-0.488 -0.228,-0.952 -0.323,-1.393 -0.097,-0.441 -0.144,-0.839 -0.144,-1.199 0,-0.535 0.142,-0.95 0.423,-1.246 0.281,-0.296 0.704,-0.499 1.268,-0.615 l 0,-1.427 -8.792,0 0,1.428 c 0.384,0.1 0.688,0.276 0.915,0.529 0.226,0.253 0.433,0.607 0.612,1.061 z"
       inkscape:connector-curvature="0"
       style="fill:#1185e9;fill-opacity:1" />
  </g>
  <circle
     r="1.5"
     cy="1197.0831"
     cx="2062.1296"
     style="fill:#000000;stroke:none"
     id="path3310" />
  <path
     sodipodi:nodetypes="czzzc"
     inkscape:connector-curvature="0"
     id="path3312"
     d="m 2151.1134,1883.7978 c 0,0 141.3357,-3.9713 206.2988,-7.1351 64.9631,-3.1638 119.4448,-11.3442 183.4567,-11.5279 64.0119,-0.1836 134.6057,9.9583 199.9289,11.4114 65.3232,1.4532 191.7667,-2.4033 191.7667,-2.4033"
     style="fill:none;fill-rule:evenodd;stroke:#ff0000;stroke-width:29.52823067;stroke-linecap:round;stroke-linejoin:round;stroke-miterlimit:4;stroke-dasharray:none;stroke-opacity:1" />
  <path
     style="fill:none;fill-rule:evenodd;stroke:#5c7f5c;stroke-width:29.52823067;stroke-linecap:round;stroke-linejoin:round;stroke-miterlimit:4;stroke-dasharray:none;stroke-opacity:1"
     d="m 2926.7769,2140.7757 c 0,0 141.3357,-3.9713 206.2988,-7.1351 64.9631,-3.1638 119.4448,-11.3442 183.4567,-11.5279 64.0119,-0.1836 134.6057,9.9583 199.9289,11.4114 65.3232,1.4532 191.7667,-2.4033 191.7667,-2.4033"
     id="path3388"
     inkscape:connector-curvature="0"
     sodipodi:nodetypes="czzzc" />
</svg>
