<?xml version="1.0" encoding="UTF-8" standalone="no"?>
<!-- Created with Inkscape (http://www.inkscape.org/) -->

<svg
   xmlns:dc="http://purl.org/dc/elements/1.1/"
   xmlns:cc="http://creativecommons.org/ns#"
   xmlns:rdf="http://www.w3.org/1999/02/22-rdf-syntax-ns#"
   xmlns:svg="http://www.w3.org/2000/svg"
   xmlns="http://www.w3.org/2000/svg"
   xmlns:sodipodi="http://sodipodi.sourceforge.net/DTD/sodipodi-0.dtd"
   xmlns:inkscape="http://www.inkscape.org/namespaces/inkscape"
   height="1080mm"
   width="1440mm"
   viewBox="0 0 5102.3623 3826.7716"
   id="svg2"
   version="1.1"
   inkscape:version="0.91 r13725"
   sodipodi:docname="tracked-changes-gdg-lille.svg">
  <sodipodi:namedview
     pagecolor="#ffffff"
     bordercolor="#666666"
     borderopacity="1"
     objecttolerance="10"
     gridtolerance="10"
     guidetolerance="10"
     inkscape:pageopacity="0"
     inkscape:pageshadow="2"
     inkscape:window-width="2560"
     inkscape:window-height="1406"
     id="namedview6"
     showgrid="false"
     inkscape:zoom="0.31714784"
     inkscape:cx="2906.3782"
     inkscape:cy="1805.4045"
     inkscape:window-x="0"
     inkscape:window-y="0"
     inkscape:window-maximized="1"
     inkscape:current-layer="svg2" />
  <defs
     id="defs8" />
  <metadata
     id="metadata4">
    <rdf:RDF>
      <cc:Work
         rdf:about="">
        <dc:format>image/svg+xml</dc:format>
        <dc:type
           rdf:resource="http://purl.org/dc/dcmitype/StillImage" />
        <dc:title></dc:title>
      </cc:Work>
    </rdf:RDF>
  </metadata>
  <g
     id="g3259"
     transform="matrix(8.1689667,0,0,8.1689667,4168.2254,2850.7115)"
     style="fill:#454545;fill-opacity:1">
    <path
       id="path3233"
       d="M 86.185,5 13.815,5 C 11.783,5 10.13,6.653 10.13,8.685 l 0,82.631 c 0,2.031 1.652,3.685 3.685,3.685 l 72.369,0 c 2.032,0 3.685,-1.653 3.685,-3.685 l 0,-82.631 C 89.869,6.653 88.217,5 86.185,5 Z m -22.499,6.65 5.01,0 1.853,3.23 1.815,-3.23 4.981,0 -4.27,7.259 4.668,7.65 -5.114,0 -2.122,-3.604 -2.13,3.604 -5.086,0 4.657,-7.742 -4.262,-7.167 z m -4.733,-0.334 c 1.629,0 2.854,0.364 3.456,0.704 l 0.48,0.271 -0.909,3.866 -0.815,-0.372 c -0.642,-0.292 -1.341,-0.44 -2.082,-0.44 -2.079,0 -3.271,1.381 -3.271,3.79 0,2.37 1.199,3.729 3.291,3.729 0.78,0 1.634,-0.194 2.074,-0.385 l 0.854,-0.372 0.685,3.854 -0.466,0.253 c -0.602,0.328 -1.857,0.678 -3.576,0.678 -4.444,0 -7.316,-2.974 -7.316,-7.575 -10e-4,-4.785 3.052,-8.001 7.595,-8.001 z m -21.898,4.106 c 0.317,-0.772 0.754,-1.473 1.3,-2.086 0.562,-0.628 1.19,-1.103 1.871,-1.412 0.873,-0.402 1.885,-0.607 3.007,-0.607 2.06,0 3.738,0.715 4.989,2.122 1.228,1.381 1.849,3.294 1.849,5.686 0,2.372 -0.617,4.273 -1.834,5.65 -1.244,1.406 -2.916,2.119 -4.97,2.119 -2.075,0 -3.759,-0.71 -5.001,-2.108 -1.219,-1.371 -1.836,-3.254 -1.836,-5.597 0,-1.475 0.211,-2.742 0.625,-3.767 z m -14.798,-3.698 0.615,-0.108 c 1.101,-0.192 2.613,-0.299 4.101,-0.299 2.539,0 4.291,0.509 5.679,1.648 1.583,1.28 2.422,3.284 2.422,5.791 0,3.295 -1.279,5.166 -2.353,6.154 -1.456,1.317 -3.598,1.983 -6.37,1.983 -1.249,0 -2.47,-0.071 -3.456,-0.213 l -0.638,-0.091 0,-14.865 z m 62.477,78.142 -69.465,0 -0.012,-57.521 69.479,0 -0.002,57.521 z"
       inkscape:connector-curvature="0"
       style="fill:#454545;fill-opacity:1" />
    <path
       id="path3235"
       d="m 27.023,22.962 c 1.104,0 1.96,-0.32 2.544,-0.953 0.639,-0.689 0.962,-1.75 0.962,-3.149 0.008,-1.254 -0.3,-2.2 -0.914,-2.819 -0.549,-0.552 -1.337,-0.832 -2.341,-0.832 -0.219,0 -0.403,0.008 -0.558,0.02 l 0,7.733 c 0.091,0.001 0.18,0.001 0.256,0.001 l 0.051,0 z"
       inkscape:connector-curvature="0"
       style="fill:#454545;fill-opacity:1" />
    <path
       id="path3237"
       d="m 43.259,22.956 c 0.763,0 1.346,-0.28 1.836,-0.881 0.518,-0.632 0.779,-1.647 0.779,-3.016 0,-1.352 -0.253,-2.346 -0.753,-2.956 -0.474,-0.578 -1.065,-0.849 -1.862,-0.849 -0.798,0 -1.394,0.274 -1.876,0.862 -0.508,0.62 -0.766,1.622 -0.766,2.979 0,1.332 0.266,2.331 0.79,2.969 0.5,0.61 1.088,0.892 1.852,0.892 z"
       inkscape:connector-curvature="0"
       style="fill:#454545;fill-opacity:1" />
    <rect
       id="rect3239"
       height="3.5910001"
       width="21.349001"
       y="50.249001"
       x="54.896"
       style="fill:#454545;fill-opacity:1" />
    <rect
       id="rect3241"
       height="3.5910001"
       width="21.349001"
       y="59.304001"
       x="54.896"
       style="fill:#454545;fill-opacity:1" />
    <rect
       id="rect3243"
       height="3.5899999"
       width="52.327999"
       y="68.358002"
       x="23.916"
       style="fill:#454545;fill-opacity:1" />
    <rect
       id="rect3245"
       height="3.5910001"
       width="52.327999"
       y="77.412003"
       x="23.916"
       style="fill:#454545;fill-opacity:1" />
    <path
       id="path3247"
       d="m 25.283,44.228 c 0.179,0.454 0.401,1.185 0.666,2.195 l 4.369,16.457 3.631,0 3.938,-13.948 3.38,13.948 3.596,0 4.835,-14.944 c 0.421,-1.283 0.742,-2.214 0.964,-2.789 0.225,-0.578 0.417,-1.018 0.594,-1.319 0.173,-0.302 0.358,-0.541 0.556,-0.714 0.198,-0.174 0.477,-0.325 0.837,-0.454 l 0,-1.45 -6.777,0 0,1.428 c 0.53,0.1 0.934,0.349 1.222,0.746 0.287,0.396 0.431,0.896 0.431,1.503 0,0.402 -0.044,0.873 -0.134,1.405 -0.092,0.535 -0.255,1.189 -0.495,1.968 l -2.354,7.81 -3.49,-14.86 -3.343,0 -4.137,14.859 -2.248,-8.979 c -0.119,-0.488 -0.228,-0.952 -0.323,-1.393 -0.097,-0.441 -0.144,-0.839 -0.144,-1.199 0,-0.535 0.142,-0.95 0.423,-1.246 0.281,-0.296 0.704,-0.499 1.268,-0.615 l 0,-1.427 -8.792,0 0,1.428 c 0.384,0.1 0.688,0.276 0.915,0.529 0.226,0.253 0.433,0.607 0.612,1.061 z"
       inkscape:connector-curvature="0"
       style="fill:#1185e9;fill-opacity:1" />
  </g>
  <circle
     r="1.5"
     cy="1197.0831"
     cx="2062.1296"
     style="fill:#000000;stroke:none"
     id="path3310" />
  <text
     xml:space="preserve"
     style="font-style:normal;font-weight:normal;font-size:674.4050293px;line-height:125%;font-family:sans-serif;letter-spacing:0px;word-spacing:0px;fill:#454545;fill-opacity:1;stroke:none;stroke-width:1px;stroke-linecap:butt;stroke-linejoin:miter;stroke-opacity:1"
     x="265.02045"
     y="1988.1925"
     id="text3226"
     sodipodi:linespacing="125%"><tspan
       sodipodi:role="line"
       id="tspan3228"
       x="265.02045"
       y="1988.1925"
       style="font-style:normal;font-variant:normal;font-weight:normal;font-stretch:normal;font-family:'Just Another Hand';-inkscape-font-specification:'Just Another Hand';fill:#454545;fill-opacity:1">J'adore le DevFest <tspan
   style="fill:#5c7f5c;fill-opacity:1"
   id="tspan3213"><tspan
   style="fill:#ff0000"
   id="tspan3286">Lille</tspan>Nantes</tspan> !</tspan></text>
  <path
     sodipodi:nodetypes="czzzc"
     inkscape:connector-curvature="0"
     id="path3312"
     d="m 3038.8222,1858.3778 c 0,0 109.6841,-4.2182 160.099,-7.5787 50.4148,-3.3605 92.6956,-12.0495 142.3723,-12.2446 49.6766,-0.1951 104.4612,10.5774 155.1555,12.1209 50.6943,1.5435 148.8213,-2.5528 148.8213,-2.5528"
     style="fill:none;fill-rule:evenodd;stroke:#ff0000;stroke-width:35;stroke-linecap:round;stroke-linejoin:round;stroke-miterlimit:4;stroke-dasharray:none;stroke-opacity:1" />
  <path
     style="fill:none;fill-rule:evenodd;stroke:#5c7f5c;stroke-width:35;stroke-linecap:round;stroke-linejoin:round;stroke-miterlimit:4;stroke-dasharray:none;stroke-opacity:1"
     d="m 3682.4722,2067.7912 c 0,0 172.1763,-2.5053 251.3147,-4.5013 79.1386,-1.9959 145.5087,-7.1567 223.4883,-7.2726 77.9799,-0.1158 163.978,6.2824 243.5552,7.1991 79.5773,0.9168 233.6116,-1.5161 233.6116,-1.5161"
     id="path3388"
     inkscape:connector-curvature="0"
     sodipodi:nodetypes="czzzc" />
  <flowRoot
     xml:space="preserve"
     id="flowRoot3230"
     style="fill:black;stroke:none;stroke-opacity:1;stroke-width:1px;stroke-linejoin:miter;stroke-linecap:butt;fill-opacity:1;font-family:sans-serif;font-style:normal;font-weight:normal;font-size:40px;line-height:125%;letter-spacing:0px;word-spacing:0px"><flowRegion
       id="flowRegion3232"><rect
         id="rect3234"
         width="519.49237"
         height="62.428265"
         x="1819.338"
         y="1744.343" /></flowRegion><flowPara
       id="flowPara3236" /></flowRoot></svg>
