<?xml version="1.0" encoding="UTF-8" standalone="no"?>
<svg
   xmlns:dc="http://purl.org/dc/elements/1.1/"
   xmlns:cc="http://creativecommons.org/ns#"
   xmlns:rdf="http://www.w3.org/1999/02/22-rdf-syntax-ns#"
   xmlns:svg="http://www.w3.org/2000/svg"
   xmlns="http://www.w3.org/2000/svg"
   xmlns:sodipodi="http://sodipodi.sourceforge.net/DTD/sodipodi-0.dtd"
   xmlns:inkscape="http://www.inkscape.org/namespaces/inkscape"
   version="1.1"
   x="0px"
   y="0px"
   viewBox="21.368 -0.08 1440 1080"
   enable-background="new 21.368 -0.08 57.157 100"
   xml:space="preserve"
   id="svg2"
   inkscape:version="0.91 r13725"
   sodipodi:docname="whos-using-asciidoc.svg"
   width="1440"
   height="1080"><metadata
     id="metadata16"><rdf:RDF><cc:Work
         rdf:about=""><dc:format>image/svg+xml</dc:format><dc:type
           rdf:resource="http://purl.org/dc/dcmitype/StillImage" /><dc:title /></cc:Work></rdf:RDF></metadata><defs
     id="defs14"><linearGradient
       id="linearGradient-1"
       y2="182.4254"
       x2="170.09978"
       y1="277.39444"
       x1="223.84882"
       gradientTransform="scale(1.0003805,0.9996196)"
       gradientUnits="userSpaceOnUse"><stop
         id="stop3258"
         offset="0%"
         stop-color="#FB7655" /><stop
         id="stop3260"
         offset="0%"
         stop-color="#FB7655" /><stop
         id="stop3262"
         offset="41%"
         stop-color="#E42B1E" /><stop
         id="stop3264"
         offset="99%"
         stop-color="#990000" /><stop
         id="stop3266"
         offset="100%"
         stop-color="#990000" /></linearGradient><linearGradient
       id="linearGradient-2"
       y2="110.94259"
       x2="246.99156"
       y1="145.0999"
       x1="341.33331"
       gradientTransform="scale(0.73452893,1.3614168)"
       gradientUnits="userSpaceOnUse"><stop
         id="stop3269"
         offset="0%"
         stop-color="#871101" /><stop
         id="stop3271"
         offset="0%"
         stop-color="#871101" /><stop
         id="stop3273"
         offset="99%"
         stop-color="#911209" /><stop
         id="stop3275"
         offset="100%"
         stop-color="#911209" /></linearGradient><linearGradient
       id="linearGradient-3"
       y2="683.8551"
       x2="43.045803"
       y1="819.94696"
       x1="66.722908"
       gradientTransform="scale(2.9266481,0.34168782)"
       gradientUnits="userSpaceOnUse"><stop
         id="stop3278"
         offset="0%"
         stop-color="#871101" /><stop
         id="stop3280"
         offset="0%"
         stop-color="#871101" /><stop
         id="stop3282"
         offset="99%"
         stop-color="#911209" /><stop
         id="stop3284"
         offset="100%"
         stop-color="#911209" /></linearGradient><linearGradient
       id="linearGradient-4"
       y2="191.53035"
       x2="73.846497"
       y1="134.31122"
       x1="60.739094"
       gradientTransform="scale(0.81957374,1.2201465)"
       gradientUnits="userSpaceOnUse"><stop
         id="stop3287"
         offset="0%"
         stop-color="#FFFFFF" /><stop
         id="stop3289"
         offset="0%"
         stop-color="#FFFFFF" /><stop
         id="stop3291"
         offset="23%"
         stop-color="#E57252" /><stop
         id="stop3293"
         offset="46%"
         stop-color="#DE3B20" /><stop
         id="stop3295"
         offset="99%"
         stop-color="#A60003" /><stop
         id="stop3297"
         offset="100%"
         stop-color="#A60003" /></linearGradient><linearGradient
       id="linearGradient-5"
       y2="168.73894"
       x2="128.53514"
       y1="97.991325"
       x1="124.54885"
       gradientTransform="scale(0.99293023,1.0071201)"
       gradientUnits="userSpaceOnUse"><stop
         id="stop3300"
         offset="0%"
         stop-color="#FFFFFF" /><stop
         id="stop3302"
         offset="0%"
         stop-color="#FFFFFF" /><stop
         id="stop3304"
         offset="23%"
         stop-color="#E4714E" /><stop
         id="stop3306"
         offset="56%"
         stop-color="#BE1A0D" /><stop
         id="stop3308"
         offset="99%"
         stop-color="#A80D00" /><stop
         id="stop3310"
         offset="100%"
         stop-color="#A80D00" /></linearGradient><linearGradient
       id="linearGradient-6"
       y2="99.977562"
       x2="168.74266"
       y1="39.124134"
       x1="158.79918"
       gradientTransform="scale(1.1916814,0.83915048)"
       gradientUnits="userSpaceOnUse"><stop
         id="stop3313"
         offset="0%"
         stop-color="#FFFFFF" /><stop
         id="stop3315"
         offset="0%"
         stop-color="#FFFFFF" /><stop
         id="stop3317"
         offset="18%"
         stop-color="#E46342" /><stop
         id="stop3319"
         offset="40%"
         stop-color="#C82410" /><stop
         id="stop3321"
         offset="99%"
         stop-color="#A80D00" /><stop
         id="stop3323"
         offset="100%"
         stop-color="#A80D00" /></linearGradient><linearGradient
       id="linearGradient-7"
       y2="-18.231438"
       x2="119.61152"
       y1="25.336927"
       x1="89.689537"
       gradientTransform="scale(1.7064943,0.58599669)"
       gradientUnits="userSpaceOnUse"><stop
         id="stop3326"
         offset="0%"
         stop-color="#FFFFFF" /><stop
         id="stop3328"
         offset="0%"
         stop-color="#FFFFFF" /><stop
         id="stop3330"
         offset="54%"
         stop-color="#C81F11" /><stop
         id="stop3332"
         offset="99%"
         stop-color="#BF0905" /><stop
         id="stop3334"
         offset="100%"
         stop-color="#BF0905" /></linearGradient><linearGradient
       id="linearGradient-8"
       y2="94.120224"
       x2="18.439789"
       y1="73.07254"
       x1="10.038218"
       gradientTransform="scale(0.50022132,1.9991151)"
       gradientUnits="userSpaceOnUse"><stop
         id="stop3337"
         offset="0%"
         stop-color="#FFFFFF" /><stop
         id="stop3339"
         offset="0%"
         stop-color="#FFFFFF" /><stop
         id="stop3341"
         offset="31%"
         stop-color="#DE4024" /><stop
         id="stop3343"
         offset="99%"
         stop-color="#BF190B" /><stop
         id="stop3345"
         offset="100%"
         stop-color="#BF190B" /></linearGradient><linearGradient
       id="linearGradient-9"
       y2="-3.6165473"
       x2="173.5643"
       y1="199.67352"
       x1="-23.853662"
       gradientTransform="scale(1.0007121,0.99928836)"
       gradientUnits="userSpaceOnUse"><stop
         id="stop3348"
         offset="0%"
         stop-color="#BD0012" /><stop
         id="stop3350"
         offset="0%"
         stop-color="#BD0012" /><stop
         id="stop3352"
         offset="7%"
         stop-color="#FFFFFF" /><stop
         id="stop3354"
         offset="17%"
         stop-color="#FFFFFF" /><stop
         id="stop3356"
         offset="27%"
         stop-color="#C82F1C" /><stop
         id="stop3358"
         offset="33%"
         stop-color="#820C01" /><stop
         id="stop3360"
         offset="46%"
         stop-color="#A31601" /><stop
         id="stop3362"
         offset="72%"
         stop-color="#B31301" /><stop
         id="stop3364"
         offset="99%"
         stop-color="#E82609" /><stop
         id="stop3366"
         offset="100%"
         stop-color="#E82609" /></linearGradient><linearGradient
       id="linearGradient-10"
       y2="234.52769"
       x2="59.489067"
       y1="251.30234"
       x1="111.58875"
       gradientTransform="scale(1.142166,0.87552949)"
       gradientUnits="userSpaceOnUse"><stop
         id="stop3369"
         offset="0%"
         stop-color="#8C0C01" /><stop
         id="stop3371"
         offset="0%"
         stop-color="#8C0C01" /><stop
         id="stop3373"
         offset="54%"
         stop-color="#990C00" /><stop
         id="stop3375"
         offset="99%"
         stop-color="#A80D0E" /><stop
         id="stop3377"
         offset="100%"
         stop-color="#A80D0E" /></linearGradient><linearGradient
       id="linearGradient-11"
       y2="95.504646"
       x2="187.38107"
       y1="140.20869"
       x1="243.40916"
       gradientTransform="scale(0.94352017,1.0598608)"
       gradientUnits="userSpaceOnUse"><stop
         id="stop3380"
         offset="0%"
         stop-color="#7E110B" /><stop
         id="stop3382"
         offset="0%"
         stop-color="#7E110B" /><stop
         id="stop3384"
         offset="99%"
         stop-color="#9E0C00" /><stop
         id="stop3386"
         offset="100%"
         stop-color="#9E0C00" /></linearGradient><linearGradient
       id="linearGradient-12"
       y2="33.085556"
       x2="225.65215"
       y1="60.874901"
       x1="252.32742"
       gradientTransform="scale(0.98714396,1.0130235)"
       gradientUnits="userSpaceOnUse"><stop
         id="stop3389"
         offset="0%"
         stop-color="#79130D" /><stop
         id="stop3391"
         offset="0%"
         stop-color="#79130D" /><stop
         id="stop3393"
         offset="99%"
         stop-color="#9E120B" /><stop
         id="stop3395"
         offset="100%"
         stop-color="#9E120B" /></linearGradient><radialGradient
       id="radialGradient-13"
       r="46.828606"
       fy="141.28091"
       fx="133.75198"
       cy="141.28091"
       cx="133.75198"
       gradientTransform="scale(1.3833774,0.72286854)"
       gradientUnits="userSpaceOnUse"><stop
         id="stop3398"
         offset="0%"
         stop-color="#A80D00" /><stop
         id="stop3400"
         offset="0%"
         stop-color="#A80D00" /><stop
         id="stop3402"
         offset="99%"
         stop-color="#7E0E08" /><stop
         id="stop3404"
         offset="100%"
         stop-color="#7E0E08" /></radialGradient><radialGradient
       id="radialGradient-14"
       r="75.982346"
       fy="212.51147"
       fx="84.096138"
       cy="212.51147"
       cx="84.096138"
       gradientTransform="scale(1.1334019,0.88229959)"
       gradientUnits="userSpaceOnUse"><stop
         id="stop3407"
         offset="0%"
         stop-color="#A30C00" /><stop
         id="stop3409"
         offset="0%"
         stop-color="#A30C00" /><stop
         id="stop3411"
         offset="99%"
         stop-color="#800E08" /><stop
         id="stop3413"
         offset="100%"
         stop-color="#800E08" /></radialGradient><linearGradient
       id="linearGradient-15"
       y2="127.33734"
       x2="18.270512"
       y1="178.54108"
       x1="48.782398"
       gradientTransform="scale(0.70330734,1.4218535)"
       gradientUnits="userSpaceOnUse"><stop
         id="stop3416"
         offset="0%"
         stop-color="#8B2114" /><stop
         id="stop3418"
         offset="0%"
         stop-color="#8B2114" /><stop
         id="stop3420"
         offset="43%"
         stop-color="#9E100A" /><stop
         id="stop3422"
         offset="99%"
         stop-color="#B3100C" /><stop
         id="stop3424"
         offset="100%"
         stop-color="#B3100C" /></linearGradient><linearGradient
       id="linearGradient-16"
       y2="52.359512"
       x2="159.66908"
       y1="19.501831"
       x1="128.57494"
       gradientTransform="scale(1.5472322,0.64631539)"
       gradientUnits="userSpaceOnUse"><stop
         id="stop3427"
         offset="0%"
         stop-color="#B31000" /><stop
         id="stop3429"
         offset="0%"
         stop-color="#B31000" /><stop
         id="stop3431"
         offset="44%"
         stop-color="#910F08" /><stop
         id="stop3433"
         offset="99%"
         stop-color="#791C12" /><stop
         id="stop3435"
         offset="100%"
         stop-color="#791C12" /></linearGradient></defs><sodipodi:namedview
     pagecolor="#ffffff"
     bordercolor="#666666"
     borderopacity="1"
     objecttolerance="10"
     gridtolerance="10"
     guidetolerance="10"
     inkscape:pageopacity="0"
     inkscape:pageshadow="2"
     inkscape:window-width="2560"
     inkscape:window-height="1406"
     id="namedview12"
     showgrid="false"
     inkscape:zoom="0.472"
     inkscape:cx="744.54753"
     inkscape:cy="160.24885"
     inkscape:window-x="0"
     inkscape:window-y="0"
     inkscape:window-maximized="1"
     inkscape:current-layer="svg2" /><text
     sodipodi:linespacing="125%"
     id="text3198"
     y="964.07269"
     x="746.10022"
     style="font-style:normal;font-weight:normal;font-size:88.63375854px;line-height:125%;font-family:sans-serif;text-align:center;letter-spacing:0px;word-spacing:0px;text-anchor:middle;fill:#1185e9;fill-opacity:1;stroke:none;stroke-width:1px;stroke-linecap:butt;stroke-linejoin:miter;stroke-opacity:1"
     xml:space="preserve"><tspan
       style="font-style:normal;font-variant:normal;font-weight:normal;font-stretch:normal;font-family:'Operator Mono';-inkscape-font-specification:'Operator Mono';text-align:center;text-anchor:middle;fill:#1185e9;fill-opacity:1"
       y="964.07269"
       x="746.10028"
       id="tspan3200"
       sodipodi:role="line"><tspan
   style="fill:#454545;fill-opacity:1"
   id="tspan3666">Ils utilisent </tspan>AsciiDoc<tspan
   style="fill:#454545;fill-opacity:1"
   id="tspan3328"> !</tspan></tspan></text>
<g
     transform="matrix(0.77668999,0,0,0.77668999,198.20497,285.74239)"
     id="layer1"
     inkscape:label="Ebene 1"><path
       style="fill:#333333;fill-opacity:1"
       d="m 154.97687,332.69162 c 0,-0.80587 10.83123,-18.62172 24.0694,-39.59076 13.23819,-20.96905 22.66057,-38.62066 20.93867,-39.22577 -1.72191,-0.6051 -7.67992,0.48567 -13.24002,2.42393 -16.74524,5.83743 -20.18605,4.29016 -32.69308,-14.70155 -13.53265,-20.54906 -14.01724,-22.66983 -6.96158,-30.46624 4.60876,-5.09256 4.33159,-6.27967 -3.2319,-13.84316 -4.55009,-4.5501 -8.27289,-9.64309 -8.27289,-11.31776 0,-2.81679 -30.99145,-15.58933 -79.989496,-32.96615 -11.10966,-3.93997 -20.199375,-7.82928 -20.199375,-8.64291 0,-0.81366 23.470738,-1.00476 52.157191,-0.42469 l 52.15721,1.05466 5.09127,-8.03001 c 21.51644,-33.93592 54.00952,-64.588212 68.46705,-64.588212 3.0106,0 9.12141,2.86918 13.57953,6.375945 7.25946,5.710283 8.2565,9.248632 9.54994,33.891967 0.7943,15.13382 2.42422,28.49601 3.62198,29.69379 1.19775,1.19776 4.99769,-0.37425 8.44431,-3.49339 4.4014,-3.98323 9.03484,-5.06313 15.56761,-3.6283 6.76756,1.48641 10.6271,0.46895 14.16938,-3.73543 5.3136,-6.30666 31.90596,-48.937201 31.90596,-51.148744 0,-0.751588 5.26509,-9.757306 11.70023,-20.012703 6.43509,-10.255397 13.84664,-22.080631 16.47007,-26.278283 4.66558,-7.465201 5.3966,-6.581735 33.42692,40.398736 28.94121,48.507164 44.51767,66.406554 52.3157,60.117634 5.442,-4.38889 34.00055,-4.63794 41.98246,-0.36614 4.53665,2.42793 7.41916,2.3961 9.92484,-0.10962 5.20007,-5.20006 17.64982,-4.29437 20.90412,1.52078 2.56393,4.58146 3.21784,4.58146 7.02014,0 2.30606,-2.77867 9.13619,-5.05208 15.17803,-5.05208 8.53884,0 11.79336,1.77367 14.61403,7.96437 l 3.62881,7.96436 56.09203,-1.9858 c 30.85062,-1.09222 56.09204,-1.28688 56.09204,-0.43255 0,0.85427 -22.90608,10.07195 -50.90241,20.48371 -27.99632,10.41172 -51.367,19.24305 -51.93484,19.62512 -0.56785,0.38207 0.69847,9.49273 2.81405,20.24588 5.50457,27.97917 1.91458,46.62589 -11.92629,61.94604 -6.209,6.87263 -16.28338,14.14395 -22.38753,16.15849 -6.10415,2.01454 -11.09844,4.38614 -11.09844,5.27019 0,0.88406 6.51525,11.67893 14.47835,23.98859 7.96309,12.30969 13.2828,22.38125 11.82152,22.38125 -2.38504,0 -60.46987,-22.44238 -150.78898,-58.2607 -17.809,-7.06258 -34.02683,-12.84109 -36.03961,-12.84109 -3.75363,0 -36.1669,12.28662 -131.22423,49.74206 -55.12525,21.72103 -57.29217,22.47348 -57.29217,19.89451 z m 113.11648,-51.25265 c 29.32949,-11.39506 58.41657,-22.5308 64.63798,-24.74607 10.70068,-3.81019 14.27918,-2.85493 66.25394,17.68634 30.21825,11.94274 60.03252,23.57587 66.25392,25.85134 6.22141,2.27552 19.04317,7.22059 28.49275,10.98908 10.77503,4.29704 16.28251,5.33166 14.77108,2.77484 -16.8837,-28.56113 -17.3998,-29.03716 -29.10083,-26.84205 -14.11361,2.64772 -22.87897,-0.0685 -27.38369,-8.48554 -2.92112,-5.45816 -2.02944,-8.12759 5.25442,-15.73031 10.84887,-11.32377 9.14457,-21.74144 -4.84429,-29.61099 -5.36764,-3.01959 -12.14059,-10.48372 -15.05102,-16.58697 l -5.29169,-11.09682 -11.34551,7.69928 c -13.94458,9.46304 -30.95062,9.95063 -45.14764,1.29448 l -10.46488,-6.38065 -12.15841,8.26284 c -12.17462,8.27386 -26.19108,9.3428 -40.43752,3.08392 -3.92498,-1.72439 -5.65583,-1.05415 -5.65583,2.19008 0,2.57118 -3.70429,6.36265 -8.23181,8.42553 -13.5742,6.18479 -26.82107,4.54247 -35.80229,-4.43875 l -8.18944,-8.18944 -6.60982,8.40303 c -3.63539,4.62166 -12.04952,11.83698 -18.69805,16.03398 -8.22965,5.19518 -18.41741,17.87182 -31.9164,39.71361 -10.90549,17.64546 -19.82816,32.98042 -19.82816,34.07776 0,1.0973 8.36255,-1.52736 18.58342,-5.83259 10.22089,-4.30521 42.58028,-17.15087 71.90977,-28.54593 z m 248.76729,-12.25846 c 22.25557,-12.50833 27.41424,-35.64808 17.57685,-78.84318 -8.2214,-36.09961 -12.3255,-47.91327 -17.19494,-49.49597 -3.36902,-1.09503 -3.88674,0.10699 -1.98858,4.61635 12.31516,29.25771 12.99963,43.94662 2.24022,48.07541 -7.39151,2.83642 -15.23239,-7.79075 -21.39902,-29.00326 -4.77512,-16.42587 -9.76861,-23.82837 -13.53387,-20.06311 -0.90157,0.9016 0.67848,6.12117 3.51124,11.59913 2.83273,5.4779 6.71721,21.97455 8.63217,36.6592 1.91497,14.68462 5.61385,30.06073 8.21973,34.16912 6.77198,10.67661 17.55128,8.1036 24.52382,-5.85384 6.89373,-13.79975 7.67284,-4.60781 0.9693,11.43602 -6.96074,16.65937 -27.63442,21.65481 -51.58418,12.46442 -3.8333,-1.47096 -5.13039,0.0515 -5.13039,6.02097 0,4.39431 -2.93618,11.72245 -6.52488,16.2847 l -6.52488,8.29506 8.94881,1.51123 c 15.44945,2.60909 36.63328,-0.77642 49.2586,-7.87225 z m -320.3665,-27.53733 c 46.45965,-13.3545 54.76188,-28.93093 39.32885,-73.78782 -3.58185,-10.41079 -6.51243,-21.60971 -6.51243,-24.88654 0,-11.15712 -5.61152,-6.00161 -9.81713,9.01943 -5.56203,19.86561 -22.29115,36.75053 -36.34516,36.68364 -12.20547,-0.0582 -16.18251,-2.28008 -21.22378,-11.85768 -9.04748,-17.18882 0.81469,-43.56797 25.96954,-69.46272 18.42431,-18.966304 28.48893,-20.683965 28.48893,-4.86205 0,24.6732 -17.01134,60.9947 -25.97309,55.45604 -4.38205,-2.70826 -3.67138,-14.66752 1.41722,-23.85009 4.32735,-7.80882 3.44814,-19.70771 -1.4562,-19.70771 -5.68689,0 -16.94547,20.71196 -18.43318,33.91074 -1.31515,11.66826 -0.49286,14.50545 5.06652,17.48072 19.48244,10.4267 45.00531,-21.39545 46.29083,-57.71584 0.67504,-19.073181 -3.01676,-24.441105 -14.77906,-21.488951 -17.11879,4.296543 -63.23483,63.786641 -63.23483,81.573461 0,13.9128 6.98737,23.69728 19.28827,27.0096 20.91419,5.63162 41.13539,-4.37389 55.4633,-27.44338 l 6.02175,-9.69571 0.0132,13.17223 c 0.0162,19.0738 -12.42619,29.1274 -51.69817,41.76793 -9.77649,3.1468 -18.18332,6.05441 -18.6818,6.46137 -1.82056,1.48632 16.68739,27.47571 19.56644,27.47571 1.63262,0 11.19115,-2.36359 21.24123,-5.25238 z M 476.411,217.96301 c 4.66347,-5.1531 5.48551,-10.75103 4.48579,-30.54823 -1.08739,-21.53331 -2.27746,-25.33851 -10.66143,-34.08949 -15.14882,-15.81194 -33.86123,-11.77828 -22.90819,4.93814 5.82256,8.88637 12.9254,7.36864 10.41641,-2.22581 -1.99864,-7.64276 1.72998,-7.84358 8.22839,-0.44322 12.19301,13.88537 9.11534,33.12698 -5.2986,33.12698 -9.86716,0 -12.94195,-4.23176 -19.37353,-26.66318 -2.93059,-10.22087 -6.49964,-18.58343 -7.93127,-18.58343 -4.76899,0 -6.89287,4.20878 -3.92721,7.7824 1.61088,1.9411 6.07218,15.89127 9.91404,31.00041 9.66903,38.02596 23.17666,51.04145 37.0556,35.70543 z m -183.77125,0.60395 c 1.98978,-1.335 2.89975,-7.64893 2.07865,-14.423 -1.32449,-10.92702 -2.06662,-11.7241 -7.9727,-8.56327 -8.48733,4.54227 -17.60839,-4.06351 -20.70222,-19.5326 -2.34707,-11.73538 -3.06526,-11.50489 14.02576,-4.50149 2.14288,0.87808 7.59671,-2.10402 12.11963,-6.62694 8.27408,-8.27408 10.99802,-18.21299 4.99156,-18.21299 -1.77754,0 -3.2319,1.45436 -3.2319,3.2319 0,4.64923 -8.84231,3.98982 -10.83465,-0.80797 -1.16224,-2.79879 -3.63807,-1.80591 -8.05915,3.2319 -3.50985,3.99948 -7.79673,7.27178 -9.52641,7.27178 -1.72969,0 -4.0656,-3.2723 -5.19088,-7.27178 -1.97195,-7.00856 -2.21366,-7.05277 -6.67737,-1.22169 -3.9106,5.10854 -3.94557,6.73583 -0.22461,10.45661 3.94062,3.94064 11.42615,30.87102 11.42615,41.10744 0,12.72867 17.52933,22.73832 27.7783,15.8621 z m 58.94309,-16.87531 c 12.14567,-12.14567 15.74452,-30.35143 9.12943,-46.18357 -5.17016,-12.37397 -14.14466,-17.00516 -26.79878,-13.82918 -9.40263,2.35991 -23.72311,29.77659 -23.77387,45.51536 -0.0792,24.52902 23.25053,32.69005 41.44322,14.49739 z m -22.08341,-19.43407 c -3.5551,-3.5551 -6.41755,-10.46328 -6.36102,-15.35153 0.0934,-8.07965 0.49315,-8.3735 4.39619,-3.2319 4.82464,6.35569 13.39797,7.45666 16.68241,2.14232 1.19432,-1.93241 0.55295,-5.13202 -1.4252,-7.11017 -5.08132,-5.08132 -4.46561,-11.99963 1.06792,-11.99963 6.15137,0 14.72679,12.51477 14.72679,21.49191 0,6.60674 -13.4444,20.5228 -19.82724,20.5228 -1.53785,0 -5.70476,-2.90872 -9.25985,-6.4638 z m 86.34897,18.58341 c 13.41074,-14.60263 12.10376,-37.098 -3.09825,-53.32634 -7.85057,-8.3806 -25.29298,-9.82552 -32.43185,-2.68664 -6.58761,6.58761 -13.16465,32.49303 -10.72122,42.22841 5.21122,20.76318 32.40041,28.86652 46.25132,13.78457 z m -27.45565,-23.61452 c -5.30623,-3.71664 -7.12941,-8.14974 -6.97806,-16.96747 0.16935,-9.86033 0.6843,-10.74981 2.96145,-5.11415 3.34573,8.28032 10.36292,11.40734 16.51814,7.3609 3.81753,-2.50963 3.63929,-3.69597 -1.10104,-7.32907 -6.32189,-4.84523 -7.55508,-11.70191 -2.10465,-11.70191 4.87364,0 22.30402,19.06666 22.30402,24.39778 0,5.20316 -12.37739,14.38503 -19.39139,14.38503 -2.76405,0 -8.2579,-2.26402 -12.20847,-5.03111 z m 189.96292,-14.28887 33.93495,-12.73682 -36.35888,-0.13125 c -32.5392,-0.11736 -36.35424,0.46307 -36.31475,5.52475 0.0401,5.12757 3.33073,20.28395 4.3727,20.13967 0.23722,-0.0329 15.70177,-5.79124 34.36598,-12.79648 z m -443.49343,-2.2793 3.46825,-10.28761 -30.46686,-1.02404 c -16.756744,-0.56322 -30.463584,-0.13213 -30.45958,0.95804 0.0058,1.59513 52.50657,22.10707 53.66174,20.96552 0.18035,-0.1784 1.88892,-4.95372 3.79645,-10.61191 z m 208.9092,-31.88695 c 7.16667,1.146 15.24981,4.07924 17.96256,6.51835 4.21279,3.78783 6.04528,3.52966 12.56207,-1.76985 4.19643,-3.4125 9.65026,-6.20457 12.11963,-6.20457 2.46939,0 4.48982,-0.71308 4.48982,-1.58467 0,-3.00918 -46.53954,-79.21252 -48.31447,-79.10961 -2.085,0.120872 -49.78603,80.08798 -51.25464,85.92437 -0.61634,2.44952 1.31804,3.35371 5.07364,2.3716 3.33836,-0.873 7.95416,0.68326 10.25727,3.45836 3.7354,4.50087 5.26108,4.14229 14.13068,-3.32097 8.42647,-7.09041 11.9308,-8.0488 22.97344,-6.28301 z"
       id="path4019"
       inkscape:connector-curvature="0" /><path
       inkscape:connector-curvature="0"
       id="path4567"
       d="m 309.54579,140.87922 c -0.50075,-0.23311 -1.11804,-0.76799 -2.5278,-2.19035 -1.91188,-1.92897 -2.67188,-2.49013 -4.26108,-3.14628 -2.08791,-0.86204 -4.3549,-1.09423 -6.48231,-0.66391 -1.89808,0.38393 -2.42435,0.42527 -3.28242,0.2578 -1.43224,-0.27953 -1.94157,-1.14929 -1.53583,-2.62272 0.50573,-1.83657 4.33693,-8.94255 12.00899,-22.27387 15.5837,-27.078988 36.53624,-61.220968 38.85056,-63.306662 0.25631,-0.230994 0.265,-0.230994 0.52248,0 1.37768,1.235976 9.4762,13.725889 20.54036,31.678298 14.96696,24.285004 27.41102,45.643714 27.41102,47.047704 0,0.85729 -1.31608,1.37215 -4.08591,1.59845 -3.44226,0.28124 -7.42478,2.30188 -12.86887,6.52936 -2.58712,2.00898 -3.69126,2.75933 -4.95062,3.36438 -1.04928,0.50411 -1.13692,0.52437 -2.26854,0.52437 -1.11368,0 -1.22661,-0.0249 -2.09623,-0.46128 -0.51213,-0.25702 -1.50469,-0.9493 -2.24155,-1.56342 -2.17848,-1.81561 -4.79918,-3.13614 -9.07197,-4.57124 -5.42997,-1.82376 -11.24454,-2.9184 -16.19551,-3.04896 -3.90934,-0.10308 -5.71201,0.24798 -8.67602,1.68963 -2.41988,1.17698 -3.58621,2.01311 -9.12475,6.54145 -5.63376,4.60617 -7.63442,5.56205 -9.664,4.61725 z"
       style="fill:#6398aa;fill-opacity:1;stroke:none" /><path
       inkscape:connector-curvature="0"
       id="path4571"
       d="m 128.63786,170.739 c -10.159,-2.9607 -45.503171,-16.91962 -50.450924,-19.92523 -0.682916,-0.41484 -0.738098,-0.47787 -0.543207,-0.62038 1.131563,-0.82741 12.337983,-1.23901 25.004031,-0.91836 5.05131,0.12788 35.50132,1.13323 35.5509,1.17377 0.0997,0.0815 -6.52164,19.2888 -7.03051,20.39433 -0.21251,0.4617 -0.65063,0.44367 -2.53029,-0.10413 z"
       style="fill:#6398aa;fill-opacity:1;stroke:none" /><path
       inkscape:connector-curvature="0"
       id="path4573"
       d="m 543.69413,175.31055 c -1.3862,-2.71287 -3.88769,-14.97067 -3.96078,-19.40858 -0.0284,-1.72424 0.18667,-2.42741 0.9606,-3.1408 1.77378,-1.63501 5.37938,-2.2232 15.29017,-2.49434 5.00347,-0.13689 28.1019,-0.15796 44.41127,-0.0405 l 11.42859,0.0823 -27.5177,10.31427 c -25.09292,9.4054 -39.68473,14.84126 -40.22491,14.9849 -0.13517,0.036 -0.26981,-0.0674 -0.38724,-0.29723 l 0,0 z"
       style="fill:#6398aa;fill-opacity:1;stroke:none" /><path
       inkscape:connector-curvature="0"
       id="path4575"
       d="m 178.08835,315.51433 c 0,-0.77078 3.2689,-6.5331 11.55395,-20.36698 19.85118,-33.14631 28.92715,-45.16012 40.07292,-53.04429 9.97127,-7.05337 15.30279,-11.9294 21.24539,-19.43033 l 3.66409,-4.62492 4.9399,4.85652 c 8.64784,8.50189 13.8613,10.96668 23.29717,11.01432 11.54058,0.0583 24.17849,-6.3881 24.17849,-12.33299 0,-1.3398 0.95404,-2.72236 1.87857,-2.72236 0.39132,0 2.61686,0.68365 4.94565,1.51923 6.06992,2.1779 9.63028,2.96548 14.60912,3.23165 4.93998,0.26409 8.54848,-0.1704 13.35817,-1.60841 4.72561,-1.41288 7.44709,-2.85905 15.59833,-8.28882 4.1076,-2.73618 7.59954,-4.97487 7.75988,-4.97487 0.16033,0 3.12534,1.71896 6.5889,3.81991 3.46356,2.10095 7.62542,4.38133 9.24859,5.06751 11.06862,4.67918 23.02445,4.3739 33.97126,-0.86741 1.95795,-0.93747 6.56793,-3.73074 10.2444,-6.20727 3.67648,-2.47653 6.73613,-4.44576 6.79923,-4.37606 0.0631,0.0697 1.45605,2.9208 3.09544,6.33578 1.6394,3.41498 3.69895,7.2667 4.57679,8.55937 3.80001,5.59578 8.17588,9.75141 14.08343,13.37464 6.08122,3.72975 9.83206,8.6868 10.21882,13.50507 0.38367,4.77968 -1.70329,9.01939 -7.72189,15.68721 -4.69747,5.20419 -5.8733,7.2354 -5.86113,10.12491 0.0122,2.89262 1.70103,6.22854 4.66964,9.22379 4.80533,4.84844 12.34605,6.28777 23.43534,4.47319 2.47408,-0.40484 5.59479,-0.73757 6.93491,-0.73938 4.28551,-0.006 6.90319,2.09595 11.89251,9.54859 3.44351,5.14365 10.97396,17.75508 10.97396,18.37836 0,0.32407 -0.35145,0.55208 -0.85097,0.55208 -1.05109,0 -5.62314,-1.2438 -8.93214,-2.42994 -4.3485,-1.55875 -57.27238,-22.00526 -74.74786,-28.87795 -46.6635,-18.35162 -62.02805,-24.21246 -69.53657,-26.52489 -8.11417,-2.49895 -13.64029,-3.08522 -18.12661,-1.92306 -5.57996,1.44546 -81.72067,30.86888 -126.13245,48.74195 -21.93119,8.826 -24.67749,9.87577 -28.78116,11.00159 -3.26303,0.89521 -3.14407,0.88294 -3.14407,0.32426 z"
       style="fill:#6398aa;fill-opacity:1;stroke:none" /></g><g
     id="g3348"
     transform="translate(809.85951,438.06915)"><path
       id="path3350"
       d="m 271.9268,16.3417 0,-14.87 -62.047,0 0,89.255 62.047,0 0,-14.875 -47.17,0 0,-22.311 44.898,0 0,-14.876 -44.898,0 0,-22.323 47.17,0 z m 46.0385,74.3853 0,-89.249 14.882,0 0,74.373 42.909,0 0,14.876 -57.791,0 z m 69.9159,0 0,-89.249 14.882,0 0,74.373 42.922,0 0,14.876 -57.804,0 z M 287.539,1.478 l 14.876,0 0,89.249 -14.876,0 0,-89.249 z M 0,46.509 C 0,20.83 20.812,0.03 46.491,0.024 72.17,0.03 92.97,20.83 92.976,46.509 92.97,72.181 72.17,92.994 46.491,93 20.812,92.994 0,72.181 0,46.509 Z M 24.13,24.148 c -5.722,5.76 -9.248,13.61 -9.26,22.361 0.012,8.757 3.538,16.601 9.26,22.348 5.748,5.735 13.604,9.267 22.361,9.267 8.757,0 16.601,-3.532 22.343,-9.267 C 74.575,63.11 78.1,55.266 78.1,46.509 78.1,37.758 74.575,29.908 68.834,24.148 63.092,18.432 55.248,14.906 46.491,14.9 37.734,14.906 29.878,18.432 24.13,24.148 Z m 152.2589,28.2847 c 10.734,-3.223 18.565,-13.144 18.565,-24.93 0,-14.372 -11.653,-26.024 -26.037,-26.024 l -44.836,0 0,89.248 14.87,0 0,-37.179 20.724,0 22.436,37.179 17.357,0 -23.079,-38.294 z m -37.438,-13.768 0,-22.323 29.966,0 c 6.163,0.006 11.155,5.005 11.168,11.161 -0.013,6.157 -5.005,11.149 -11.168,11.162 l -29.966,0 z M 512,1.4782 l -18.08,0 -22.897,33.138 -22.895,-33.138 -18.081,0 33.517,48.531 0,40.718 14.882,0 0,-40.687 L 512,1.4782 Z"
       inkscape:connector-curvature="0"
       style="fill:#221f20" /><path
       id="path3352"
       d="m 113.5305,10.9718 c 0,6.05 -4.898,10.954 -10.942,10.954 -6.056,0 -10.953,-4.904 -10.953,-10.954 0,-6.044 4.897,-10.948 10.953,-10.948 6.044,0 10.942,4.904 10.942,10.948"
       inkscape:connector-curvature="0"
       style="fill:#d31242" /></g><g
     id="g3365"
     transform="matrix(1.079484,0,0,1.079484,440.79284,99.765732)"><path
       id="path3367"
       d="m 152.98396,37.213516 c -5.59693,0 -9.7654,2.748201 -9.7654,9.362119 0,4.983233 2.74703,8.443324 9.46381,8.443324 5.69279,0 9.55968,-3.354886 9.55968,-8.649059 0,-6.00022 -3.4601,-9.156384 -9.25809,-9.156384 l 0,0 0,0 z m -11.19035,46.701881 c -1.32442,1.62484 -2.64417,3.352548 -2.64417,5.390028 0,4.066776 5.18546,5.290666 12.30904,5.290666 5.90086,0 13.93856,-0.413808 13.93856,-5.899689 0,-3.26137 -3.86689,-3.462429 -8.7531,-3.768694 l -14.85033,-1.012311 0,0 z M 171.90692,37.52095 c 1.82824,2.340237 3.76402,5.596931 3.76402,10.276237 0,11.292055 -8.85129,17.903635 -21.66648,17.903635 -3.25904,0 -6.20947,-0.405626 -8.03887,-0.914119 l -3.35839,5.391196 9.9688,0.609023 c 17.60205,1.122192 27.97531,1.631854 27.97531,15.156603 0,11.702356 -10.27274,18.311595 -27.97531,18.311595 -18.4133,0 -25.43284,-4.679303 -25.43284,-12.715832 0,-4.578777 2.03514,-7.014868 5.59576,-10.377936 -3.35839,-1.419105 -4.47591,-3.961571 -4.47591,-6.709772 0,-2.239708 1.11752,-4.273681 2.9516,-6.208292 1.83058,-1.929936 3.86455,-3.865717 6.30649,-6.103087 -4.98441,-2.441936 -8.74959,-7.732603 -8.74959,-15.261808 0,-11.697681 7.7326,-19.731873 23.29483,-19.731873 4.37538,0 7.02188,0.402119 9.36212,1.016987 l 19.83941,0 0,8.644383 -9.36095,0.71306 0,0 z"
       inkscape:connector-curvature="0"
       style="fill:#2f2707" /><path
       id="path3369"
       d="m 199.16566,19.034009 c -5.80033,0 -9.15638,-3.359562 -9.15638,-9.1610592 0,-5.7933151 3.35605,-8.94947948 9.15638,-8.94947948 5.90086,0 9.25808,3.15616438 9.25808,8.94947948 0,5.8014972 -3.35722,9.1610592 -9.25808,9.1610592 l 0,0 0,0 z m -13.12614,61.137242 0,-8.033023 5.19014,-0.709552 c 1.42495,-0.205735 1.62718,-0.509662 1.62718,-2.038649 l 0,-29.909917 c 0,-1.116347 -0.30393,-1.831745 -1.32442,-2.134503 l -5.4929,-1.934612 1.11869,-8.237589 21.06097,0 0,42.216621 c 0,1.630685 0.0982,1.832914 1.62834,2.038649 l 5.18897,0.709552 0,8.033023 -28.99697,0 0,0 z"
       inkscape:connector-curvature="0"
       style="fill:#2f2707" /><path
       id="path3371"
       d="m 255.26707,76.227215 c -4.37655,2.134502 -10.78473,4.067945 -16.58623,4.067945 -12.10564,0 -16.68208,-4.878028 -16.68208,-16.379324 l 0,-26.653224 c 0,-0.609023 0,-1.016986 -0.8171,-1.016986 l -7.12007,0 0,-9.054685 c 8.95532,-1.019325 12.51361,-5.496402 13.63229,-16.58506 l 9.66605,0 0,14.450557 c 0,0.709553 0,1.016987 0.81475,1.016987 l 14.34302,0 0,10.172201 -15.15777,0 0,24.312986 c 0,6.002557 1.42612,8.340456 6.91667,8.340456 2.85224,0 5.79916,-0.710721 8.2411,-1.626009 l 2.74937,8.954156"
       inkscape:connector-curvature="0"
       style="fill:#2f2707" /><path
       id="path3373"
       d="M 104.52866,49.529571 58.012639,3.0170594 c -2.676895,-2.67923292 -7.021881,-2.67923292 -9.702283,0 l -9.659032,9.6590316 12.252932,12.252932 c 2.847561,-0.962046 6.112438,-0.316786 8.382538,1.953315 2.280622,2.284128 2.921206,5.577059 1.935781,8.433972 l 11.808731,11.808731 c 2.856913,-0.984256 6.153351,-0.347178 8.435141,1.938119 3.188896,3.187726 3.188896,8.354484 0,11.544548 -3.190063,3.190064 -8.356821,3.190064 -11.548054,0 C 67.519708,58.206685 66.92705,54.68347 68.141589,51.728365 L 57.128913,40.71569 l -0.0012,28.980602 c 0.777352,0.385754 1.511452,0.898923 2.15905,1.544183 3.188896,3.187726 3.188896,8.354484 0,11.546886 -3.190063,3.188895 -8.359159,3.188895 -11.544547,0 -3.188895,-3.192402 -3.188895,-8.35916 0,-11.546886 0.787872,-0.786703 1.699652,-1.381699 2.672219,-1.78148 l 0,-29.25063 c -0.972567,-0.397443 -1.883178,-0.988931 -2.672219,-1.781479 -2.41622,-2.412713 -2.997188,-5.958137 -1.75927,-8.924932 L 33.905388,17.422027 2.0105936,49.314484 c -2.68040182,2.681571 -2.68040182,7.026557 0,9.70579 L 48.526612,105.53395 c 2.678064,2.67924 7.021881,2.67924 9.703452,0 L 104.52866,59.23653 c 2.67923,-2.680402 2.67923,-7.027726 0,-9.706959"
       inkscape:connector-curvature="0"
       style="fill:#de4c36" /></g><g
     id="g3388"
     transform="translate(1145.817,68.518866)"><path
       id="path3390"
       d="m 243.2893,131.52645 c 0,67.1871 -54.45755,121.64465 -121.64465,121.64465 C 54.45755,253.1711 0,198.71355 0,131.52645 0,64.339349 54.45755,9.8817985 121.64465,9.8817985 188.83175,9.8232558 243.2893,64.339349 243.2893,131.52645"
       inkscape:connector-curvature="0"
       style="fill:#008cc1" /><path
       id="path3392"
       d="m 53.926698,91.62617 c 0,5.364094 -4.360931,9.72502 -9.724031,9.72502 -5.364093,0 -9.725024,-4.360926 -9.725024,-9.72502 0,-5.3631 4.360931,-9.72403 9.725024,-9.72403 5.421643,0 9.724031,4.36093 9.724031,9.72403"
       inkscape:connector-curvature="0"
       style="fill:#ffffff" /><path
       id="path3394"
       d="m 55.576806,118.32459 c 0,5.3631 -4.36093,9.72502 -9.724031,9.72502 -5.363101,0 -9.725023,-4.36192 -9.725023,-9.72502 0,-5.3631 4.361922,-9.72403 9.725023,-9.72403 5.363101,0 9.724031,4.30239 9.724031,9.72403"
       inkscape:connector-curvature="0"
       style="fill:#ffffff" /><path
       id="path3396"
       d="m 61.529302,146.61457 c 0,5.3631 -4.36093,9.72403 -9.724031,9.72403 -5.3631,0 -9.725023,-4.36093 -9.725023,-9.72403 0,-5.36409 4.361923,-9.72502 9.725023,-9.72502 5.363101,-0.0585 9.724031,4.30239 9.724031,9.72502"
       inkscape:connector-curvature="0"
       style="fill:#ffffff" /><path
       id="path3398"
       d="m 74.84924,171.95659 c 0,5.3631 -4.361922,9.72502 -9.725023,9.72502 -5.363101,0 -9.724031,-4.36192 -9.724031,-9.72502 0,-5.3631 4.36093,-9.72403 9.724031,-9.72403 5.363101,-0.0595 9.725023,4.30239 9.725023,9.72403"
       inkscape:connector-curvature="0"
       style="fill:#ffffff" /><path
       id="path3400"
       d="m 178.98964,207.37786 c 0,5.3631 -4.36093,9.72403 -9.72502,9.72403 -5.3631,0 -9.72403,-4.36093 -9.72403,-9.72403 0,-5.3631 4.36093,-9.72502 9.72403,-9.72502 5.36409,0 9.72502,4.36192 9.72502,9.72502"
       inkscape:connector-curvature="0"
       style="fill:#ffffff" /><path
       id="path3402"
       d="m 196.67051,186.45532 c 0,5.3631 -4.36093,9.72403 -9.72502,9.72403 -5.3631,0 -9.72403,-4.36093 -9.72403,-9.72403 0,-5.3631 4.36093,-9.72503 9.72403,-9.72503 5.36409,0 9.72502,4.36193 9.72502,9.72503"
       inkscape:connector-curvature="0"
       style="fill:#ffffff" /><path
       id="path3404"
       d="m 145.39609,38.525023 c 0,5.363101 -4.36192,9.724031 -9.72502,9.724031 -5.3631,0 -9.72403,-4.36093 -9.72403,-9.724031 0,-5.3631 4.36093,-9.724031 9.72403,-9.724031 5.3631,0 9.72502,4.360931 9.72502,9.724031"
       inkscape:connector-curvature="0"
       style="fill:#ffffff" /><path
       id="path3406"
       d="m 119.81792,29.567008 c 0,5.363101 -4.36192,9.724031 -9.72502,9.724031 -5.3631,0 -9.72403,-4.36093 -9.72403,-9.724031 0,-5.363101 4.36093,-9.725024 9.72403,-9.725024 5.3631,0 9.72502,4.361923 9.72502,9.725024"
       inkscape:connector-curvature="0"
       style="fill:#ffffff" /><path
       id="path3408"
       d="m 188.77321,37.699473 c 35.80428,0 64.82952,29.026232 64.82952,64.830507 0,35.80428 -29.02524,64.82952 -64.82952,64.82952 -35.80527,0 -64.83051,-29.02524 -64.83051,-64.82952 0,-35.804275 29.02524,-64.830507 64.83051,-64.830507"
       inkscape:connector-curvature="0"
       style="fill:#66b245" /><path
       id="path3410"
       d="m 188.77321,169.09594 c -36.70524,0 -66.56695,-29.86171 -66.56695,-66.56596 0,-36.705236 29.86171,-66.565949 66.56695,-66.565949 36.70425,0 66.56595,29.860713 66.56595,66.565949 0,36.70425 -29.8617,66.56596 -66.56595,66.56596 l 0,0 z m 0,-129.659041 c -34.7902,0 -63.09408,28.303876 -63.09408,63.093081 0,34.79021 28.30388,63.09309 63.09408,63.09309 34.7902,0 63.09308,-28.30288 63.09308,-63.09309 0,-34.789205 -28.30288,-63.093081 -63.09308,-63.093081 l 0,0 z"
       inkscape:connector-curvature="0"
       style="fill:#ffffff" /><path
       id="path3412"
       d="m 99.956093,181.68161 c 29.294137,0 53.042607,23.74747 53.042607,53.04261 0,29.29414 -23.74847,53.0426 -53.042607,53.0426 -29.295132,0 -53.042605,-23.74846 -53.042605,-53.0426 0,-29.29514 23.747473,-53.04261 53.042605,-53.04261"
       inkscape:connector-curvature="0"
       style="fill:#66b245" /><path
       id="path3414"
       d="m 99.956093,289.50326 c -30.206015,0 -54.779039,-24.57402 -54.779039,-54.77904 0,-30.20602 24.573024,-54.77904 54.779039,-54.77904 30.206017,0 54.779037,24.57302 54.779037,54.77904 0,30.20502 -24.57302,54.77904 -54.779037,54.77904 l 0,0 z m 0,-106.08521 c -28.289984,0 -51.30617,23.01519 -51.30617,51.30617 0,28.28998 23.016186,51.30617 51.30617,51.30617 28.289987,0 51.306167,-23.01619 51.306167,-51.30617 0,-28.29098 -23.01618,-51.30617 -51.306167,-51.30617 l 0,0 z"
       inkscape:connector-curvature="0"
       style="fill:#ffffff" /><path
       id="path3416"
       d="m 56.284279,1.9844961 c 19.529426,0 35.361737,15.8323099 35.361737,35.3617369 0,19.529426 -15.832311,35.361736 -35.361737,35.361736 -19.529426,0 -35.361736,-15.83231 -35.361736,-35.361736 0,-19.529427 15.83231,-35.3617369 35.361736,-35.3617369"
       inkscape:connector-curvature="0"
       style="fill:#66b245" /><path
       id="path3418"
       d="m 56.284279,74.444403 c -20.456186,0 -37.098171,-16.641984 -37.098171,-37.09817 0,-20.456187 16.641985,-37.09817098 37.098171,-37.09817098 20.456186,0 37.098171,16.64198398 37.098171,37.09817098 0,20.456186 -16.641985,37.09817 -37.098171,37.09817 l 0,0 z m 0,-70.7234728 c -18.541147,0 -33.625302,15.0841548 -33.625302,33.6253028 0,18.541147 15.084155,33.625302 33.625302,33.625302 18.541147,0 33.625302,-15.084155 33.625302,-33.625302 0,-18.541148 -15.084155,-33.6253028 -33.625302,-33.6253028 l 0,0 z"
       inkscape:connector-curvature="0"
       style="fill:#ffffff" /></g><g
     id="g3444"
     transform="matrix(0.71696649,0,0,0.71696649,96.831454,581.60137)"><path
       id="path3446"
       d="m 74.839268,106.89293 -40.867853,14.87038 c 0.524419,6.55207 1.651983,13.02413 3.240477,19.36541 l 38.81716,-14.13645 c -1.244384,-6.55207 -1.688807,-13.31999 -1.180895,-20.10061"
       inkscape:connector-curvature="0"
       style="fill:#da2430" /><path
       id="path3448"
       d="m 255.44407,61.702362 c -2.85065,-5.879079 -6.147,-11.561343 -9.9665,-16.916003 l -40.85642,14.870388 c 4.75532,4.863256 8.74243,10.329656 12.00703,16.175721 l 38.81716,-14.132646 -10e-4,0.0025 0,0 z"
       inkscape:connector-curvature="0"
       style="fill:#da2430" /><g
       id="g3450"><path
         id="path3452"
         d="m 182.95027,61.461441 c -5.14058,-4.460862 -10.94624,-8.310375 -17.40862,-11.324866 l -0.003,0 C 127.5981,32.448547 82.330459,48.904889 64.642431,86.858598 c -0.996941,2.141553 -1.87987,4.306117 -2.65383,6.487617 -2.207685,6.423051 -3.497307,12.989875 -3.990748,19.546195 l -0.143924,0.0532 c -0.0038,0.048 -0.0075,0.0961 -0.01117,0.1441 l -24.59554,8.94981 -15.826485,5.849 c -0.0023,-0.0292 -0.0045,-0.0584 -0.0068,-0.0876 l -0.433958,0.15791 c -1.536433,-19.43524 1.739598,-39.511727 10.553138,-58.411126 1.153888,-2.475209 2.384067,-4.891073 3.686444,-7.246102 29.054247,-54.1159304 95.164002,-76.735753 150.918752,-50.329058 11.53972,5.467948 21.77273,12.636902 30.55622,21.072977 5.90947,5.46661 11.18386,11.487986 15.78119,17.940547 l -40.85896,14.872927 c -0.21026,-0.214902 -0.42185,-0.428731 -0.63475,-0.641468 l -0.11311,0.04182 c -1.25848,-1.306975 -2.56475,-2.574358 -3.91864,-3.797894 z"
         inkscape:connector-curvature="0"
         style="fill:#da2430" /><path
         id="path3454"
         d="m 19.261322,193.89648 -0.06443,0.0234 C 10.695721,181.94972 4.5080859,168.50148 0.93873571,154.34725 l 38.82477829,-14.14026 0.0025,0.003 c 0.008,0.0418 0.01603,0.0836 0.0241,0.12531 l 0.252109,-0.0932 0.0058,0.0156 c 1.994163,10.56064 6.145261,20.63521 12.197721,29.49351 2.307709,3.29322 4.886317,6.41496 7.722422,9.32679 l -0.154193,0.0561 c 0.09761,0.10299 0.195537,0.20572 0.293771,0.30819 l -40.487529,14.97079 c -0.120124,-0.17174 -0.239782,-0.34378 -0.358973,-0.51611 z"
         inkscape:connector-curvature="0"
         style="fill:#e82429" /><path
         id="path3456"
         d="m 173.46549,183.44686 c -21.05156,13.01743 -48.0531,15.53239 -72.11361,4.3121 -8.511329,-3.96933 -15.926841,-9.33796 -22.118286,-15.69447 l -40.77135,14.84372 c 0.103747,0.14591 0.207841,0.29159 0.31228,0.43706 l -0.02018,0.007 c 11.210073,16.01662 26.502203,29.40405 45.266807,38.29849 40.469299,19.16316 86.386779,12.50108 119.634329,-13.28442 14.88801,-11.15151 27.31651,-26.01544 35.71255,-44.01896 8.81862,-18.89559 12.0756,-38.96445 10.51504,-58.38446 l -1.13561,0.41321 c -0.0153,-0.20802 -0.0312,-0.41595 -0.0477,-0.62382 l -40.48947,14.95715 0.002,0.004 c -0.64463,8.92365 -2.86289,17.87652 -6.80667,26.45936 -6.31438,13.75336 -16.16357,24.70895 -27.94009,32.27368 z"
         inkscape:connector-curvature="0"
         style="fill:#da2430" /><path
         id="path3458"
         d="m 218.55238,75.129191 0.60711,-0.220995 0,-0.0013 c 6.38699,13.142218 10.28521,27.427234 11.45341,42.055094 l -40.77262,14.83357 c 0.008,-0.10116 0.0149,-0.20232 0.022,-0.30347 l -0.77102,0.28486 c 1.1101,-15.08763 -2.27473,-30.09348 -9.43391,-43.122557 l 38.54777,-14.250192 0.002,-0.0039 c 0.11593,0.242561 0.23104,0.485515 0.34532,0.728855 z"
         inkscape:connector-curvature="0"
         style="fill:#e82429" /></g><path
       id="path3460"
       d="m 74.890671,106.65403 -40.581012,14.9961 c 0.519995,6.60997 1.639833,13.1362 3.219293,19.53194 l 38.545827,-14.25798 c -1.24643,-6.62166 -1.694365,-13.43807 -1.168528,-20.27395"
       inkscape:connector-curvature="0"
       style="fill:#c22035" /><path
       id="path3462"
       d="m 254.22692,61.082823 c -2.82978,-5.92833 -6.10556,-11.658009 -9.89743,-17.058554 l -40.57127,14.996103 c 4.72085,4.905868 8.68021,10.417422 11.92093,16.314591 l 38.54193,-14.256035 0.006,0.0039 0,0 z"
       inkscape:connector-curvature="0"
       style="fill:#c22035" /><path
       id="path3464"
       d="m 34.30849,121.65267 40.481687,-14.82862 -0.165541,8.13295 -39.056083,14.74877 -1.265905,-8.06284 0.0058,0.01 0,0 z"
       inkscape:connector-curvature="0"
       style="fill:#ac223b" /><path
       id="path3466"
       d="m 203.76601,58.897482 41.11269,-14.108022 4.27291,6.448324 -39.94611,14.121655 -5.43365,-6.465852 -0.006,0.0039 0,0 z"
       inkscape:connector-curvature="0"
       style="fill:#ac223b" /><path
       id="path3468"
       d="m 38.763891,187.20102 40.530376,-14.74876 12.257853,11.56452 -42.50324,15.95624 -10.283042,-12.7759 -0.0019,0.004 0,0 z"
       inkscape:connector-curvature="0"
       style="fill:#b92135" /><path
       id="path3470"
       d="m 249.38065,109.86164 -41.16528,14.84419 -3.03233,16.47819 43.89184,-15.64269 0.31161,-15.67774 -0.006,-0.002 0,0 z"
       inkscape:connector-curvature="0"
       style="fill:#b92135" /></g><g
     id="g3494"
     transform="translate(77.01209,59.970841)"><path
       id="path3496"
       d="m 235.463,197.578 c -4.935,-1.135 -10.169,-1.842 -15.465,-1.842 -9.051,0 -17.286,1.566 -23.366,4.092 -0.671,0.334 -1.146,1.034 -1.146,1.829 0,0.287 0.074,0.586 0.186,0.829 0.717,2.085 -0.465,4.345 -6.343,5.639 -8.718,1.913 -14.222,10.907 -17.375,13.898 -3.698,3.51 -14.14,5.669 -12.57,3.577 1.229,-1.637 5.931,-6.744 8.791,-12.264 2.557,-4.932 4.834,-6.333 7.97,-11.039 0.923,-1.381 4.49,-6.228 5.527,-10.065 1.166,-3.745 0.772,-8.441 1.22,-10.374 0.64,-2.789 3.274,-8.846 3.473,-12.261 0.114,-1.937 -8.071,2.755 -11.955,2.755 -3.884,0 -7.67,-2.321 -11.139,-2.493 -4.295,-0.202 -7.054,3.312 -10.941,2.698 -2.22,-0.35 -4.086,-2.304 -7.966,-2.452 -5.521,-0.202 -12.268,3.066 -24.937,2.661 -12.466,-0.404 -23.979,-15.75 -25.553,-18.189 -1.839,-2.867 -4.089,-2.867 -6.541,-0.62 -2.452,2.247 -5.474,0.485 -6.336,-1.021 -1.634,-2.863 -6.006,-11.227 -12.776,-12.978 -9.361,-2.425 -14.104,5.184 -13.488,11.24 0.624,6.148 4.598,7.869 6.441,11.136 1.836,3.271 2.779,5.383 6.238,6.831 2.456,1.018 3.369,2.534 2.638,4.548 -0.64,1.755 -3.194,2.156 -4.871,2.236 -3.567,0.169 -6.067,-0.798 -7.892,-1.963 -2.119,-1.348 -3.844,-3.227 -5.696,-6.417 -2.143,-3.517 -5.514,-5.049 -9.445,-5.049 -1.873,0 -3.625,0.495 -5.181,1.296 -6.157,3.2 -13.49,5.1 -21.383,5.1 L 6.683,168.92 C 2.348,156.072 0,142.312 0,128.003 0,57.307 57.31,0 128.003,0 198.696,0 256,57.307 256,128.003 c 0,25.651 -7.545,49.543 -20.537,69.575"
       inkscape:connector-curvature="0"
       style="fill:#000000" /><path
       id="path3498"
       d="m 235.463,197.575 c -4.935,-1.135 -10.169,-1.85 -15.465,-1.85 -9.051,0 -17.286,1.57 -23.366,4.1 -0.671,0.33 -1.146,1.034 -1.146,1.829 0,0.29 0.074,0.586 0.186,0.832 0.717,2.082 -0.465,4.338 -6.343,5.632 -8.718,1.917 -14.222,10.91 -17.375,13.895 -3.698,3.516 -14.14,5.675 -12.57,3.58 1.229,-1.633 5.931,-6.74 8.791,-12.257 2.557,-4.932 4.834,-6.34 7.97,-11.042 0.923,-1.378 4.49,-6.228 5.527,-10.065 1.166,-3.742 0.772,-8.441 1.22,-10.375 0.64,-2.792 3.274,-8.845 3.473,-12.267 0.114,-1.931 -8.071,2.762 -11.955,2.762 -3.884,0 -7.67,-2.325 -11.139,-2.493 -4.295,-0.202 -7.054,3.311 -10.941,2.701 -2.22,-0.357 -4.086,-2.314 -7.966,-2.458 -5.521,-0.199 -12.268,3.068 -24.937,2.661 -12.466,-0.405 -23.979,-15.751 -25.553,-18.193 -1.839,-2.86 -4.089,-2.86 -6.541,-0.613 -2.452,2.246 -5.474,0.481 -6.336,-1.028 -1.634,-2.856 -6.006,-11.22 -12.776,-12.975 -9.361,-2.425 -14.104,5.187 -13.488,11.244 0.624,6.147 4.598,7.869 6.441,11.136 1.836,3.271 2.779,5.379 6.238,6.824 2.456,1.024 3.369,2.537 2.638,4.555 -0.64,1.751 -3.194,2.152 -4.871,2.233 -3.567,0.172 -6.067,-0.799 -7.892,-1.957 -2.119,-1.358 -3.844,-3.231 -5.696,-6.424 -2.143,-3.517 -5.514,-5.056 -9.445,-5.056 -1.873,0 -3.625,0.502 -5.181,1.3 -6.157,3.21 -13.49,5.107 -21.383,5.107 l -8.899,0.003 C 23.747,219.544 71.619,256 128.003,256 c 45.039,0 84.645,-23.259 107.46,-58.425"
       inkscape:connector-curvature="0"
       style="fill:#ffffff" /><path
       id="path3500"
       d="m 156.194,185.839 c 0.656,0.643 1.792,2.803 0.404,5.545 -0.778,1.451 -1.614,2.475 -3.112,3.671 -1.799,1.442 -5.319,3.109 -10.146,0.047 -2.597,-1.647 -2.752,-2.199 -6.336,-1.734 -2.56,0.333 -3.578,-2.251 -2.658,-4.4 0.92,-2.142 4.702,-3.877 9.405,-1.121 2.112,1.243 5.413,3.863 8.3,1.542 1.195,-0.96 1.913,-1.6 3.573,-3.52 0.075,-0.08 0.179,-0.127 0.297,-0.127 0.104,0 0.202,0.036 0.273,0.097"
       inkscape:connector-curvature="0"
       style="fill:#000000" /><path
       id="path3502"
       d="m 200.232,93.945 c -1.263,4.251 -3.061,9.691 -11.065,13.801 -1.165,0.593 -1.61,-0.384 -1.071,-1.304 3.021,-5.144 3.56,-6.43 4.44,-8.461 1.229,-2.965 1.872,-7.185 -0.573,-15.99 -4.813,-17.324 -14.858,-40.479 -22.154,-47.99 -7.047,-7.249 -19.81,-9.29 -31.347,-6.329 -4.247,1.091 -12.561,5.413 -27.978,1.94 -26.678,-6.01 -30.632,7.35 -32.161,13.17 -1.533,5.821 -5.208,22.363 -5.208,22.363 -1.226,6.734 -2.83,18.449 38.595,26.338 19.298,3.678 20.282,8.663 21.134,12.254 1.532,6.431 3.981,10.109 6.737,11.945 2.758,1.839 0,3.361 -3.059,3.675 -8.219,0.852 -38.595,-7.859 -56.566,-18.069 C 65.253,92.301 65.004,84.21 68.369,77.346 46.161,74.944 29.494,79.431 26.472,89.944 c -5.187,18.044 39.674,48.865 90.752,64.33 53.605,16.232 108.736,4.901 114.864,-28.79 2.785,-15.31 -10.109,-26.634 -31.856,-31.539 M 118.043,60.952 c -14.787,1.071 -16.323,2.667 -19.092,5.615 -3.904,4.16 -9.048,-5.396 -9.048,-5.396 -3.089,-0.651 -6.831,-5.626 -4.81,-10.274 1.987,-4.598 5.662,-3.217 6.814,-1.785 1.402,1.741 4.389,4.591 8.27,4.49 3.88,-0.105 8.357,-0.92 14.602,-0.92 6.326,0 10.58,2.361 10.819,4.392 0.206,1.732 -0.512,3.369 -7.555,3.878 M 133.575,36.52 c -0.024,0.004 -0.047,0.007 -0.068,0.007 -0.229,0 -0.414,-0.178 -0.414,-0.391 0,-0.154 0.094,-0.289 0.233,-0.35 2.866,-1.516 7.144,-2.718 12.038,-3.217 1.469,-0.151 2.904,-0.229 4.285,-0.242 0.242,0 0.485,0.003 0.731,0.006 8.205,0.186 14.774,3.446 14.676,7.283 -0.098,3.837 -6.824,6.797 -15.03,6.612 -2.658,-0.06 -5.15,-0.444 -7.296,-1.064 -0.253,-0.064 -0.438,-0.283 -0.438,-0.539 0,-0.256 0.185,-0.475 0.445,-0.536 5.12,-1.185 8.572,-3.122 8.33,-4.951 -0.323,-2.422 -7.02,-3.743 -14.956,-2.944 -0.869,0.087 -1.718,0.198 -2.536,0.326"
       inkscape:connector-curvature="0"
       style="fill:#cc0000" /></g><g
     id="g3517"
     transform="matrix(0.76827267,0,0,0.76827267,1143.3683,599.24092)"><path
       id="path3519"
       d="m 153.6714,178.9332 -0.932,2.757 49.137,83.342 2.781,1.968 51.342,-88.78 -51.342,-89.137 -50.986,89.85 z"
       inkscape:connector-curvature="0"
       style="fill:#59666c" /><path
       id="path3521"
       d="m 50.2731,0.3039 -50.273,88.78 52.234,89.849 49.738,-89.849 -0.134,-3.631 -49.273,-83.343 -2.292,-1.806 z"
       inkscape:connector-curvature="0"
       style="fill:#59666c" /><path
       id="path3523"
       d="m 50.2731,0.3039 51.699,88.78 102.685,0 -52.056,-88.78 -102.328,0 z"
       inkscape:connector-curvature="0"
       style="fill:#bcae79" /><path
       id="path3525"
       d="m 52.2342,178.9332 50.63,88.067 101.793,0 -50.986,-88.067 -101.437,0 z"
       inkscape:connector-curvature="0"
       style="fill:#bcae79" /></g><g
     id="g3540"
     transform="translate(819.23588,135.90823)"><path
       id="path3542"
       d="m 255.95919,134.39327 c 0,-21.52147 -13.37256,-40.117689 -33.22246,-47.430809 0.83579,-4.596818 1.25368,-8.98469 1.25368,-13.790454 0,-39.908739 -32.38667,-72.29541207 -72.29541,-72.29541207 -23.19304,0 -44.92345,11.07415307 -58.50496,30.08826407 C 86.503759,25.741202 78.354854,23.0249 69.788057,23.0249 c -21.103574,0 -38.446115,17.133595 -38.446115,38.446115 0,4.596819 0.835785,9.193637 2.298409,13.372562 C 13.581508,81.738804 0,100.96186 0,122.27438 c 0,21.52147 13.372562,40.32663 33.431404,47.63975 -0.835785,4.38787 -1.253677,8.98469 -1.253677,13.79046 0,39.69979 32.386673,72.08646 72.086463,72.08646 23.40199,0 44.92345,-11.2831 58.50496,-30.08826 6.68628,5.22366 15.04413,8.1489 23.61093,8.1489 21.10357,0 38.44612,-17.13359 38.44612,-38.44611 0,-4.59682 -0.83579,-9.19364 -2.29841,-13.37256 19.64095,-7.10418 33.4314,-26.32723 33.4314,-47.63975 l 0,0 z"
       inkscape:connector-curvature="0"
       style="fill:#ffffff" /><path
       id="path3544"
       d="m 100.08527,110.36444 57.04233,26.11829 57.66917,-50.565 c 0.83579,-4.178926 1.25368,-8.357851 1.25368,-12.745723 0,-35.520867 -28.83459,-64.3554535 -64.35545,-64.3554535 -21.31252,0 -41.16242,10.4473135 -53.072357,27.9988015 l -9.611529,49.729214 11.074156,23.819871 0,0 z"
       inkscape:connector-curvature="0"
       style="fill:#f4bd19" /><path
       id="path3546"
       d="m 40.95347,170.74992 c -0.835785,4.17892 -1.253677,8.5668 -1.253677,12.95467 0,35.52086 29.043532,64.5644 64.564397,64.5644 21.52147,0 41.37137,-10.65626 53.49025,-28.20775 l 9.40258,-49.72921 -12.74572,-24.23777 -57.251281,-26.11829 -56.206549,50.77395 0,0 z"
       inkscape:connector-curvature="0"
       style="fill:#3cbeb1" /><path
       id="path3548"
       d="m 40.535578,71.918329 39.072954,9.193637 8.775743,-44.505558 C 82.951672,32.427483 76.474338,30.33802 69.57911,30.33802 c -16.924648,0 -30.924049,13.790454 -30.924049,30.924049 0,3.552087 0.626839,7.31312 1.880517,10.65626 l 0,0 z"
       inkscape:connector-curvature="0"
       style="fill:#e9478c" /><path
       id="path3550"
       d="M 37.192437,81.320912 C 19.64095,86.962461 7.522066,103.88711 7.522066,122.27438 c 0,17.96938 11.074153,34.05825 27.789855,40.32663 L 90.264792,112.8718 80.235371,91.350333 37.192437,81.320912 l 0,0 z"
       inkscape:connector-curvature="0"
       style="fill:#2c458f" /><path
       id="path3552"
       d="m 167.78386,219.85229 c 5.4326,4.17893 11.90994,6.47734 18.59622,6.47734 16.92465,0 30.92405,-13.79046 30.92405,-30.92405 0,-3.76103 -0.62684,-7.31312 -1.88052,-10.65626 l -39.07295,-9.19364 -8.5668,44.29661 0,0 z"
       inkscape:connector-curvature="0"
       style="fill:#95c63d" /><path
       id="path3554"
       d="m 175.72382,165.31731 43.04293,10.02943 c 17.55149,-5.8505 29.67037,-22.5662 29.67037,-40.95347 0,-17.96938 -11.07415,-33.8493 -27.78985,-40.326635 l -56.4155,49.311325 11.49205,21.93935 0,0 z"
       inkscape:connector-curvature="0"
       style="fill:#176655" /></g><g
     id="g3572"
     transform="translate(787.43583,611.18067)"><path
       id="path3574"
       d="m 137.78774,173.90589 c 6.0265,-0.86087 12.91387,-2.58263 16.35774,-4.30438 3.44351,-1.72211 6.02614,-4.30474 6.02614,-6.0265 0,0 -0.86088,-1.72175 -1.72176,-3.44386 -1.72175,-2.58263 -3.4435,-6.0265 -7.74825,-15.49651 -1.72175,-4.30474 -5.61724,-15.58158 -6.88737,-20.66212 -1.31573,-7.59173 -1.43599,-15.676 0,-23.24475 1.24931,-4.427162 2.9664,-8.706417 6.02649,-12.052995 3.43346,-4.542041 7.46142,-9.021617 12.91388,-11.191759 16.97485,-6.757417 37.0195,-21.522999 47.35074,-37.880737 3.4435,-6.026497 5.08664,-8.609128 6.34169,-12.052815 3.1057,-8.51963 5.84736,-17.5703966 5.71094,-26.68854403 L 222.15798,0 127.45686,0 31.894498,0 l 0,1.7218292 c -0.141446,22.5596418 13.194248,42.8934958 29.27125,57.6816958 8.609487,7.748251 18.940368,13.774748 30.993363,18.079491 4.304384,1.721754 6.026497,2.582631 9.470009,6.026138 4.30474,5.165621 7.74825,11.192118 9.47036,18.079496 1.04253,9.95034 0.26243,20.46575 -2.58299,30.13212 l -1.72175,5.16562 c -0.86088,3.44351 -3.44387,8.60913 -7.748255,17.21826 -4.304743,8.60949 -4.304743,9.47036 -4.304743,10.33124 1.721753,5.16562 12.052998,8.60913 27.549498,10.33088 3.44387,0 8.60913,0 15.4965,-0.86088 l 0,0 z M 65.470491,144.63464 c 6.026498,-0.86087 11.192118,-2.58263 12.913872,-5.16562 l 0,-0.86087 -0.860877,-2.58263 c -6.026497,-11.19212 -9.470364,-20.66213 -9.470364,-30.13213 0,-5.16562 0.861236,-7.748251 2.58299,-12.052995 2.58263,-4.304743 3.443507,-5.694065 7.748251,-7.415819 1.721753,-0.880622 3.776298,-1.213054 4.637175,-1.741499 2.250199,-0.665223 4.832829,-2.034799 4.832829,-2.034799 0,0 -1.545485,-0.332432 -3.287343,-1.193309 C 79.401763,79.733215 77.523486,78.343893 73.218742,75.760903 59.443994,68.012653 50.834866,60.264401 42.225738,49.072643 39.642749,44.767899 38.306559,42.866288 37.060118,41.131251 l -0.860877,-1.528972 c -0.860877,-0.860877 -35.29774738,-0.860877 -36.15862427,0 -0.58373053,12.052995 5.19290417,22.671792 12.91351227,31.85424 9.019821,10.726497 16.357738,13.774748 23.245112,15.496502 6.026497,1.721754 6.887374,2.582631 9.470005,6.026497 1.722113,4.304385 2.58299,6.887374 2.58299,12.052632 0.860876,7.74861 -1.722113,15.49687 -6.887375,26.68862 -1.722112,3.44387 -3.443866,6.88738 -3.443866,6.88738 0,0.86087 1.721754,2.58299 3.443866,3.44386 4.304385,2.58263 16.357379,4.30439 24.10563,2.58263 l 0,0 z m 140.330109,0 c 6.88738,-0.86087 11.19212,-2.58263 12.053,-5.16562 0,-0.86087 0,-1.72175 -2.58299,-6.88737 -5.4162,-10.69203 -9.15373,-23.39984 -6.0265,-35.297747 1.78745,-4.816316 4.08576,-9.835106 9.47037,-10.671571 8.60912,-2.582631 15.4965,-6.546685 24.10563,-15.155813 5.16562,-5.16562 9.97116,-13.880294 11.32063,-18.940368 1.08166,-4.056317 2.44227,-8.906738 1.59324,-12.913872 -0.86088,-0.860877 -36.15863,-0.860877 -37.0195,0 0,0 -0.86088,0.860877 -1.72176,1.721754 -0.86123,2.58299 -4.30474,7.74861 -6.88737,10.331241 -3.44387,4.304743 -13.77475,14.635625 -17.21862,17.218255 -6.34959,6.504683 -18.53506,10.887688 -24.9665,13.774749 0.86087,0.860876 5.16526,3.443866 8.60912,4.304743 6.88738,2.582631 6.88738,2.582631 9.47001,6.887374 1.72175,4.304744 2.58299,6.887375 2.58299,12.052995 0.47603,11.94889 -5.61652,23.01535 -10.33124,32.71476 6.11948,6.89096 18.97232,6.71541 27.54949,6.02649 l 0,0 z"
       inkscape:connector-curvature="0"
       style="fill:#7ab852" /></g><g
     id="g3586"
     transform="translate(381.77481,633.08185)"><g
       id="g3588"
       transform="translate(15,129)"
       style="fill:#373535"><path
         id="path3590"
         d="m 15.9,13.2 c 2.2,0 4.2,0.5 5.3,1.5 0.2,1.6 -1.3,4.2 -2.2,4.2 -1.1,-0.4 -2.1,-0.6 -3.4,-0.6 -5.2,0 -7.8,5.4 -7.8,10.7 0,3.3 1.1,5.3 3.8,5.3 2.8,0 5.6,-1.9 7.2,-3.3 0.4,0.3 0.9,1.2 0.9,2.2 0,1.1 -0.3,2.2 -1.4,3.3 -1.8,1.8 -4.9,3.4 -9.4,3.4 -5.1,0 -8.7,-2.9 -8.7,-9.7 0.2,-9 6,-17 15.7,-17 l 0,0 0,0 z"
         inkscape:connector-curvature="0" /><path
         id="path3592"
         d="m 32.7,34 c 2.8,0 7.9,-4.9 9.3,-14.3 0.1,-0.6 0.1,-0.7 0.2,-1.3 -0.6,-0.2 -1.5,-0.4 -2.3,-0.4 -2.1,0 -4.3,0.6 -6.2,3.3 -2,2.8 -2.9,6.3 -2.9,9.1 0,2.3 0.7,3.6 1.9,3.6 l 0,0 0,0 z m -9.2,-2.6 c 0,-3.4 1.1,-9.2 5.4,-13.5 3.7,-3.8 8.1,-4.7 12.2,-4.7 2.7,0 6.3,0.9 8.6,1.3 -0.6,2.5 -1.9,12 -2.6,17.5 -0.3,2.3 -0.4,5.6 -0.3,6.8 -1.9,0.8 -5.4,1 -6.4,1 -0.5,0 -0.6,-2.3 -0.5,-4.6 0.1,-0.7 0.2,-1.8 0.2,-2.3 -2.2,3.7 -6.6,6.8 -11.2,6.8 -3.3,0.1 -5.4,-2.7 -5.4,-8.3 l 0,0 0,0 z"
         inkscape:connector-curvature="0" /><path
         id="path3594"
         d="m 63.9,13.2 c 2.3,0 4.6,0.9 5.6,1.9 -0.1,1.6 -1.3,4.3 -3.3,3.5 -0.9,-0.3 -1.7,-0.5 -2.9,-0.5 -1.5,0 -2.9,0.7 -2.9,2.1 0,1.1 0.8,1.9 4.6,4.6 2.7,2 3.8,3.8 3.8,6.3 0,4.2 -3.9,8.7 -10.8,8.7 -2.8,0 -5.3,-1.1 -6,-2.2 -1,-1.7 -0.2,-5.1 0.9,-4.5 1.5,0.7 3.9,1.5 5.9,1.5 1.9,0 3.1,-0.9 3.1,-2 0,-1 -0.9,-1.8 -4.3,-4.3 -2.9,-2.2 -3.8,-4.2 -3.8,-6.4 0,-4.8 4.1,-8.7 10.1,-8.7 l 0,0 0,0 z"
         inkscape:connector-curvature="0" /><path
         id="path3596"
         d="m 83.6,13.2 c 2.3,0 4.6,0.9 5.6,1.9 -0.1,1.6 -1.3,4.3 -3.3,3.5 -0.9,-0.3 -1.7,-0.5 -2.9,-0.5 -1.5,0 -2.9,0.7 -2.9,2.1 0,1.1 0.8,1.9 4.6,4.6 2.7,2 3.8,3.8 3.8,6.3 0,4.2 -3.9,8.7 -10.8,8.7 -2.8,0 -5.2,-1.1 -6,-2.2 -1,-1.7 -0.2,-5.1 0.9,-4.5 1.5,0.7 3.9,1.5 5.9,1.5 1.9,0 3.1,-0.9 3.1,-2 0,-1 -0.9,-1.8 -4.3,-4.3 -2.9,-2.2 -3.8,-4.2 -3.8,-6.4 0,-4.8 4.1,-8.7 10.1,-8.7 l 0,0 0,0 z"
         inkscape:connector-curvature="0" /><path
         id="path3598"
         d="m 101.5,34 c 2.8,0 7.9,-4.9 9.3,-14.3 0.1,-0.6 0.1,-0.7 0.2,-1.3 -0.6,-0.2 -1.5,-0.4 -2.3,-0.4 -2.1,0 -4.3,0.6 -6.2,3.3 -2,2.8 -2.9,6.3 -2.9,9.1 0.1,2.3 0.7,3.6 1.9,3.6 l 0,0 0,0 z m -9.2,-2.6 c 0,-3.4 1.1,-9.2 5.4,-13.5 3.7,-3.8 8.1,-4.7 12.2,-4.7 2.7,0 6.3,0.9 8.6,1.3 -0.6,2.5 -1.9,12 -2.6,17.5 -0.3,2.3 -0.4,5.6 -0.3,6.8 -1.9,0.8 -5.4,1 -6.4,1 -0.5,0 -0.6,-2.3 -0.5,-4.6 0.1,-0.7 0.2,-1.8 0.2,-2.3 -2.2,3.7 -6.6,6.8 -11.2,6.8 -3.2,0.1 -5.4,-2.7 -5.4,-8.3 l 0,0 0,0 z"
         inkscape:connector-curvature="0" /><path
         id="path3600"
         d="m 131.4,20.6 c 2.6,-4.2 6,-7.4 10.8,-7.4 4.1,0 5.4,3.8 4.6,9.1 -0.4,2.5 -1.1,6.1 -1.5,9.4 -0.4,2.8 -0.7,5.3 -0.6,7 -1.5,0.7 -5.8,1 -6.8,1 -0.4,0 -0.5,-3.1 0.1,-6.4 0.5,-2.7 1.4,-7.7 1.9,-10.6 0.3,-1.7 0.2,-3.7 -1.4,-3.7 -2.1,0 -7.1,3.4 -9.6,17.2 -0.2,1.1 -0.6,1.8 -1.3,2.2 -0.9,0.5 -2.7,1 -6.4,1 0.7,-3.5 1.8,-10.6 2.6,-15.9 0.7,-4.8 1,-7.9 0.9,-9.1 1,-0.3 6.1,-1.4 6.6,-1.4 0.6,0 0.7,1.8 0.2,6 -0.1,0.4 -0.1,1 -0.2,1.4 l 0.1,0 0,0.2 0,0 z"
         inkscape:connector-curvature="0" /><path
         id="path3602"
         d="m 160.4,33.9 c 2.5,0 7.6,-4.7 9,-13 0.1,-0.5 0.2,-1.3 0.3,-1.8 C 169,18.4 168,18 166.4,18 c -5.8,0 -8.3,6.9 -8.3,11.9 0.1,2.6 1,4 2.3,4 l 0,0 0,0 z m -3.7,5.9 c -3.7,0 -5.9,-3.3 -5.9,-8.8 0,-9.2 5.8,-17.7 15.5,-17.7 1.7,0 3.3,0.5 4.2,1 0.5,-2.6 1.7,-10.7 1.8,-13.1 1.6,-0.3 5,-0.8 6.6,-0.8 0.6,0 0.8,0.6 0.6,2.1 -1.4,8.6 -3.8,25 -4.3,28.6 -0.3,3.1 -0.4,6.1 -0.3,7.8 -1.8,0.8 -5.5,1 -6.5,1 -0.4,0 -0.6,-2.6 -0.5,-5 0.1,-0.7 0.2,-1.8 0.2,-2 -3.1,4.6 -7,6.9 -11.4,6.9 l 0,0 0,0 z"
         inkscape:connector-curvature="0" /><path
         id="path3604"
         d="m 190.1,21.4 c 3,-6.7 6.6,-8.2 9,-8.2 0.7,0 1.9,0.5 2.4,1 0.2,1.9 -1.3,5.6 -2.6,7.1 -0.7,-0.3 -1.5,-0.7 -2.5,-0.7 -1.9,0 -5.8,3 -8.2,16 -0.2,1.1 -0.5,1.5 -1.1,1.8 -1,0.6 -4.8,1 -6.6,1.1 0.9,-4.7 2.3,-14.2 2.9,-19.8 0.2,-1.4 0.2,-4.1 0.1,-5.1 1.1,-0.5 5.4,-1.5 6.3,-1.5 0.5,0 0.9,3.1 0.1,8.2 l 0.2,0 0,0.1 0,0 z"
         inkscape:connector-curvature="0" /><path
         id="path3606"
         d="m 210.2,34 c 2.8,0 7.9,-4.9 9.3,-14.3 0.1,-0.6 0.1,-0.7 0.2,-1.3 -0.6,-0.2 -1.5,-0.4 -2.3,-0.4 -2.1,0 -4.3,0.6 -6.2,3.3 -2,2.8 -2.9,6.3 -2.9,9.1 0.1,2.3 0.7,3.6 1.9,3.6 l 0,0 0,0 z M 201,31.4 c 0,-3.4 1.1,-9.2 5.4,-13.5 3.7,-3.8 8.1,-4.7 12.2,-4.7 2.7,0 6.3,0.9 8.6,1.3 -0.6,2.5 -1.9,12 -2.6,17.5 -0.3,2.3 -0.4,5.6 -0.3,6.8 -1.9,0.8 -5.4,1 -6.4,1 -0.5,0 -0.6,-2.3 -0.5,-4.6 0.1,-0.7 0.2,-1.8 0.2,-2.3 -2.2,3.7 -6.6,6.8 -11.2,6.8 -3.2,0.1 -5.4,-2.7 -5.4,-8.3 l 0,0 0,0 z"
         inkscape:connector-curvature="0" /></g><g
       id="g3608"><path
         id="path3610"
         d="M 205.5,45.5 C 207.4,67.4 172.9,88.3 128.4,92.1 83.9,95.9 46.4,81.2 44.5,59.3 42.6,37.4 77.1,16.5 121.6,12.7 166,8.9 203.6,23.5 205.5,45.5"
         inkscape:connector-curvature="0"
         style="fill:#bbe6fb" /><path
         id="path3612"
         d="M 122.8,15.2 C 105.8,14.9 86,21.7 71.2,28 c -1.5,4.4 -2.4,9.1 -2.4,14 0,26 23.5,47.1 52.5,47.1 29,0 52.6,-21 52.6,-47.1 0,-8.2 -2.4,-16 -6.5,-22.7 -11.8,-1.8 -28.1,-3.8 -44.6,-4.1"
         inkscape:connector-curvature="0"
         style="fill:#ffffff" /><path
         id="path3614"
         d="m 121.4,15.2 c -9.4,-0.6 -25.6,4.3 -39.1,9.2 -2.1,4.8 -3.2,10.1 -3.2,15.7 0,22.8 20.7,41.3 42.5,41.3 21.7,0 40.9,-18.5 42.5,-41.3 0.5,-7.4 -2,-14.4 -5.6,-20.4 -13.9,-2.4 -28.7,-3.9 -37.1,-4.5"
         inkscape:connector-curvature="0"
         style="fill:#ffffff" /><path
         id="path3616"
         d="m 97.3,37.2 c 1.2,-2.6 2.9,-3.8 4.6,-5.9 -0.2,-0.5 -0.6,-2.2 -0.6,-2.7 0,-2.6 2.1,-4.6 4.6,-4.6 0.6,0 1.2,0.1 1.7,0.3 7.7,-5.9 17.8,-8.4 28,-6.1 0.9,0.2 1.8,0.5 2.7,0.7 -10,-1.4 -21.4,2.2 -29.1,8.4 0.2,0.6 0.9,2.1 0.9,2.8 0,2.6 -1.7,3.2 -4.2,3.2 -0.6,0 -1.1,-0.1 -1.7,-0.3 -1.7,2.3 -3.9,6.8 -4.9,9.6 4.3,3.8 8.1,5.2 13.1,7.1 0,-0.2 0.2,-0.5 0.2,-0.7 0,-7.7 6.8,-14 14.5,-14 6.9,0 12.7,5 13.8,11.6 3.5,-2.2 6.8,-3.9 9.3,-7.1 -0.6,-0.7 -1.2,-2.8 -1.2,-3.8 0,-2.3 1.9,-4.2 4.2,-4.2 0.3,0 0.6,0 1,0.1 1.3,-2.7 2.3,-5.5 2.9,-8.4 -12.1,-9 -35.5,-7.7 -35.5,-7.7 0,0 -18.6,-1 -31.2,5.2 0.9,5.8 3.3,11.6 6.9,16.5"
         inkscape:connector-curvature="0"
         style="fill:#373535" /><path
         id="path3618"
         d="m 155.1,33.7 c 0.9,0.8 1.3,1.4 1.7,2.1 1.1,2 -1.1,3.9 -3.5,3.9 -0.2,0 -0.5,0 -0.7,-0.1 -2.6,4.1 -7.2,9.3 -11.3,12 6.3,1 12.2,3.5 16.8,7.4 3.4,-6.1 6,-15 6,-22.5 0,-5.7 -2.5,-9.9 -6.3,-13 -0.1,3.1 -1.8,7.4 -2.7,10.2"
         inkscape:connector-curvature="0"
         style="fill:#373535" /><path
         id="path3620"
         d="m 104.3,72.5 c 2.1,-5.8 7.2,-10.2 12.1,-14.1 -0.7,-1 -1.8,-3.4 -2.2,-4.5 -5.9,-1.8 -11.1,-5.2 -15.2,-9.6 0,0.1 -0.1,0.3 -0.1,0.4 -0.8,3.4 -0.9,6.9 -0.5,10.2 2.8,0.5 5,3 5,6 0,1.8 -1.6,4.3 -2.8,5.5 1.2,2.6 2.1,4 3.7,6.1"
         inkscape:connector-curvature="0"
         style="fill:#373535" /><path
         id="path3622"
         d="m 103.9,77.3 c -2.5,-2.5 -4.2,-7.4 -5.8,-10.5 -0.3,0 -0.6,0.1 -0.9,0.1 -3.4,0 -6.9,-2.8 -6.1,-6.1 0.4,-1.8 1.7,-3 3.7,-4 -0.5,-3.8 -0.6,-9.1 0.3,-13 0.2,-1.1 0.8,-1.6 1.1,-2.7 -3.7,-5.4 -6.1,-12.6 -6.1,-19.7 l 0,-0.8 c -6.3,3.2 -11,8.1 -11,15.9 0,17.3 10,34.3 24.8,40.9 l 0,-0.1"
         inkscape:connector-curvature="0"
         style="fill:#373535" /><path
         id="path3624"
         d="m 140.4,53.4 c -1.9,5.4 -7.1,9.4 -13.2,9.4 -3.3,0 -6.3,-1.1 -8.6,-3 -4.9,3.8 -9.4,10.5 -11.6,16.4 1,1.1 1.7,2 2.9,3 3.4,0.9 8.2,0 11.9,0 14.9,0 28.2,-6.6 35.8,-18.3 -5.2,-3.6 -11.2,-7 -17.2,-7.5"
         inkscape:connector-curvature="0"
         style="fill:#373535" /><path
         id="path3626"
         d="m 96.9,39.2 c 1.2,-2.6 2.6,-4.9 4.3,-7.1 -0.2,-0.5 -0.3,-1.1 -0.3,-1.6 0,-2.6 2.1,-4.6 4.6,-4.6 0.6,0 1.2,0.1 1.7,0.3 7.7,-5.9 17.8,-8.4 28,-6.1 0.9,0.2 1.8,0.5 2.7,0.7 -10,-1.4 -20.4,1.7 -28.1,7.9 0.2,0.6 0.4,1.2 0.4,1.8 0,2.6 -2.1,4.6 -4.6,4.6 -0.6,0 -1.1,-0.1 -1.7,-0.3 -1.7,2.3 -3.2,4.9 -4.2,7.7 3.7,3.9 8.2,7.1 13.2,8.9 l 0,-0.7 c 0,-7.7 6.3,-14 14,-14 6.9,0 12.7,5 13.8,11.6 3.5,-2.2 6.5,-5 9.1,-8.3 -0.6,-0.7 -1,-1.6 -1,-2.6 0,-2.3 1.9,-4.2 4.2,-4.2 0.3,0 0.6,0 1,0.1 1.3,-2.7 2.3,-5.5 2.9,-8.4 -12.1,-9 -35.5,-7.7 -35.5,-7.7 0,0 -18.6,-1 -31.2,5.2 0.7,6.1 3.1,11.9 6.7,16.8"
         inkscape:connector-curvature="0"
         style="fill:#1287b1" /><path
         id="path3628"
         d="m 155.7,34.4 c 0.9,0.8 1.4,1.9 1.4,3.1 0,2.3 -1.9,4.2 -4.2,4.2 -0.2,0 -0.5,0 -0.7,-0.1 -2.6,4.1 -6.1,7.6 -10.2,10.2 6,0.9 11.7,3.5 16.4,7.4 3.4,-6.1 5.4,-13.2 5.4,-20.7 0,-5.7 -2.5,-9.9 -6.3,-13 -0.2,3.1 -0.8,6.1 -1.8,8.9"
         inkscape:connector-curvature="0"
         style="fill:#1287b1" /><path
         id="path3630"
         d="M 104.9,73.8 C 107,68 110.6,62.9 115.5,59 c -0.7,-1 -1.3,-2 -1.7,-3.2 -5.9,-1.8 -11.1,-5.2 -15.2,-9.6 0,0.1 -0.1,0.3 -0.1,0.4 -0.8,3.4 -0.9,6.9 -0.5,10.2 2.8,0.5 5,3 5,6 0,1.8 -0.8,3.4 -2,4.5 1,2.3 2.4,4.5 3.9,6.5"
         inkscape:connector-curvature="0"
         style="fill:#1287b1" /><path
         id="path3632"
         d="m 103.9,77.2 c -2.5,-2.5 -4.6,-5.3 -6.2,-8.4 -0.3,0 -0.6,0.1 -0.9,0.1 -3.4,0 -6.1,-2.7 -6.1,-6.1 0,-2.4 1.4,-4.5 3.4,-5.5 -0.5,-3.8 -0.3,-7.6 0.6,-11.5 0.2,-1.1 0.6,-2.2 0.9,-3.3 -3.7,-5.4 -5.9,-12 -5.9,-19.1 l 0,-0.8 c -6.3,3.2 -11,8.1 -11,15.9 0,17.3 10.3,32.2 25.1,38.8 0.1,0 0.1,0 0.1,-0.1"
         inkscape:connector-curvature="0"
         style="fill:#1287b1" /><path
         id="path3634"
         d="m 140,55.4 c -1.9,5.4 -7.1,9.4 -13.2,9.4 -3.3,0 -6.3,-1.1 -8.6,-3 -4.9,3.8 -8.6,9 -10.9,14.9 1,1.1 2.1,2.1 3.2,3.1 3.4,0.9 7,1.4 10.7,1.4 14.9,0 28.1,-7.7 35.7,-19.4 -5,-3.6 -10.9,-5.9 -16.9,-6.4"
         inkscape:connector-curvature="0"
         style="fill:#1287b1" /><path
         id="path3636"
         d="m 140.5,51.8 12.9,-3.1 -13,-0.7 10.6,-8 -12,4.3 8.1,-11.3 -11.3,7.5 3.9,-13.2 -7.7,10.9 -0.2,-13.8 -5.1,12.3 -4.2,-12.4 0.2,14.6 -7.3,-13.1 4,13.9 -11.9,-8.6 9.3,11.7 -14.8,-5.4 11.6,8.6 -14.9,0.5 15.3,3.9 -15.3,3.3 15.1,1.1 -12.7,8.1 13.1,-4.7 -9.1,11.5 11.5,-9.3 -4.1,15.4 8.9,-12.6 -1.2,14.8 5,-13.5 4.3,14.1 1,-14.2 6.4,12.1 -3.8,-13.8 11.6,9 -7.5,-11.5 12.8,5 -9.8,-9.6 13.1,1 -12.8,-4.8 0,0 z"
         inkscape:connector-curvature="0"
         style="fill:#ffffff" /><path
         id="path3638"
         d="M 2.8,76.5 C 42.9,36.4 74.9,24 104,18.4 c 3.8,-0.7 4.6,-9.2 4.6,-9.2 0,0 0.5,6.2 3.2,7 2.7,0.8 6.2,-9.7 6.2,-9.7 0,0 -3.2,9.4 0,10 3.2,0.5 9.2,-9.2 9.2,-9.2 0,0 -2.4,8.3 -0.8,8.9 1.6,0.5 9.7,-12.1 9.7,-12.1 0,0 -4.8,8.3 -0.3,9.2 4.6,0.8 11.3,-5.7 11.3,-5.7 0,0 -5.2,5.9 -2.9,6.8 10,3.5 18,-9.4 18,-9.4 0,0 -1.9,5.7 -6.7,11.9 C 166,19.6 173.8,3.8 173.8,3.8 L 166,19.6 c 4,2 20.1,-16.6 20.1,-16.6 0,0 -8.3,14.5 -13.2,17.5 2.7,2.2 12.4,-6.5 12.4,-6.5 0,0 -7.8,9.7 -4.8,10.2 4.3,3.5 20.2,-18 20.2,-18 0,0 -6.2,12.7 -15.3,22.6 C 193,32.7 212,8.2 212,8.2 c 0,0 -0.5,7.8 -14.3,20.2 10.2,-1.3 23.4,-20.7 23.4,-20.7 0,0 -4.8,14.5 -16.4,24.8 10,-1 26.1,-25.8 26.1,-25.8 0,0 -6.2,17.2 -18.8,27.2 14,3.1 34.2,-17.8 34.2,-17.8 0,0 -7.9,14.8 -18.3,20.9 11.6,4.4 27.5,-13.9 27.5,-13.9 0,0 -15.9,24.5 -41.2,23.4 C 205.9,46.1 180.8,21.3 127,23.3 55.8,25.9 40.8,56.1 2.8,76.5"
         inkscape:connector-curvature="0"
         style="fill:#373535;fill-opacity:0.35" /><path
         id="path3640"
         d="M 4.4,73.5 C 44.5,33.4 76.5,21 105.6,15.4 c 3.8,-0.7 4.6,-9.2 4.6,-9.2 0,0 0.5,6.2 3.2,7 2.7,0.8 6.2,-9.7 6.2,-9.7 0,0 -3.2,9.4 0,10 3.2,0.5 9.2,-9.2 9.2,-9.2 0,0 -2.4,8.3 -0.8,8.9 1.6,0.5 9.7,-12.1 9.7,-12.1 0,0 -4.8,8.3 -0.3,9.2 4.6,0.8 11.3,-5.7 11.3,-5.7 0,0 -5.2,5.9 -2.9,6.8 10,3.5 18,-9.4 18,-9.4 0,0 -1.9,5.7 -6.7,11.9 10.5,2.7 18.3,-13.1 18.3,-13.1 l -7.8,15.8 c 4,2.2 20.2,-16.4 20.2,-16.4 0,0 -8.3,14.5 -13.2,17.5 2.7,1.9 12.4,-6.7 12.4,-6.7 0,0 -7.8,9.7 -4.8,10.2 4.3,3.5 20.2,-18 20.2,-18 0,0 -6.3,12.7 -15.4,22.6 7.6,3.8 26.7,-20.7 26.7,-20.7 0,0 -0.5,7.8 -14.3,20.2 10.2,-1.3 23.4,-20.7 23.4,-20.7 0,0 -4.8,14.5 -16.4,24.8 10,-1 26.1,-25.8 26.1,-25.8 0,0 -6.2,17.2 -18.8,27.2 14,3.1 34.2,-17.8 34.2,-17.8 0,0 -7.9,14.8 -18.3,20.9 11.6,4.4 27.5,-13.9 27.5,-13.9 0,0 -15.9,24.5 -41.2,23.4 C 207.6,43 182.5,18.2 128.7,20.2 57.5,22.9 42.4,53 4.4,73.5"
         inkscape:connector-curvature="0"
         style="fill:#373535" /><path
         id="path3642"
         d="m 1.8,80.9 c 21.2,10.6 40.6,-1.6 65,5.3 18.6,5.2 41.2,11.7 71.9,7.2 30.7,-4.4 56.9,-17.8 69.5,-41.6 3.9,-10.6 19.8,2.4 19.8,2.4 0,0 -11.6,-4.8 -11.3,-2.6 0.3,2.3 17.4,10.2 17.4,10.2 0,0 -15.5,-4.8 -14.5,-1.2 0.9,3.6 19.4,18.2 19.4,18.2 0,0 -21.1,-15.8 -22.8,-13.6 -1.8,2.2 8.9,10.9 8.9,10.9 0,0 -17.6,-10.9 -23.8,-7.7 -4.5,2.3 18.3,17.2 18.3,17.2 0,0 -14.8,-11.3 -18.3,-8.3 -3.5,3 16.7,27.2 16.7,27.2 0,0 -23,-24.8 -25.3,-23.6 -2.3,1.2 6.3,13.1 6.3,13.1 0,0 -11.2,-12.4 -14.3,-10.3 -3.1,2.2 16.2,34.3 16.2,34.3 0,0 -20.9,-32.9 -29.6,-27.4 13.5,29.7 8.5,33.9 8.5,33.9 0,0 -1.7,-30.3 -18.6,-29.5 -8.5,0.4 4,22.6 4,22.6 0,0 -11.5,-20.3 -19.2,-19.9 14.1,26.8 9.1,37.6 9.1,37.6 0,0 2.3,-22.9 -16.8,-35.6 7.3,6.5 -4.6,35.6 -4.6,35.6 0,0 10.4,-42.9 -7.7,-34.7 -2.9,1.3 -0.2,21.4 -0.2,21.4 0,0 -3.6,-23 -9.1,-21.8 -3.2,0.7 -20.2,31.9 -20.2,31.9 0,0 13.9,-33.7 9.7,-32.3 -3.1,1 -8.9,14.9 -8.9,14.9 0,0 2.8,-13.7 0,-14.5 -2.8,-0.8 -18.6,14.5 -18.6,14.5 0,0 11.7,-13.7 9.7,-16.6 C 85.3,93.8 81.8,93.6 77.5,95.3 71.3,97.7 63,109 63,109 c 0,0 8.3,-11.5 6.9,-15.7 -2.3,-6.9 -26.2,13.3 -26.2,13.3 0,0 14.1,-13.3 10.9,-16.2 -3.2,-2.8 -20.8,-2 -26.2,-2 C 12.3,88.6 6.7,84.8 1.8,80.9"
         inkscape:connector-curvature="0"
         style="fill:#373535;fill-opacity:0.35" /><path
         id="path3644"
         d="m 0.9,78.5 c 21.2,10.6 40.6,-1.6 65,5.3 18.6,5.2 41.2,11.7 71.9,7.2 30.7,-4.4 56.9,-17.8 69.5,-41.6 3.9,-10.6 19.8,2.4 19.8,2.4 0,0 -11.6,-4.8 -11.3,-2.6 0.3,2.3 17.4,10.2 17.4,10.2 0,0 -15.5,-4.8 -14.5,-1.2 0.9,3.6 19.4,18.2 19.4,18.2 0,0 -20.9,-15.9 -22.6,-13.7 -1.7,2.2 8.9,10.9 8.9,10.9 0,0 -17.6,-10.9 -23.8,-7.7 -4.5,2.3 18.3,17.2 18.3,17.2 0,0 -14.8,-11.3 -18.3,-8.3 -3.5,3 16.7,27.2 16.7,27.2 0,0 -22.9,-24.8 -25.2,-23.6 -2.3,1.2 6.3,13.1 6.3,13.1 0,0 -11.4,-12.3 -14.5,-10.2 -3.1,2.2 16.1,34.3 16.1,34.3 0,0 -20.9,-33 -29.5,-27.5 13.6,29.8 8.5,34 8.5,34 0,0 -1.7,-30.3 -18.6,-29.5 -8.5,0.4 4,22.6 4,22.6 0,0 -11.4,-20.2 -19.1,-19.8 14.1,26.8 9.1,37.6 9.1,37.6 0,0 2.3,-22.9 -16.8,-35.6 7.3,6.5 -4.6,35.6 -4.6,35.6 0,0 10.4,-42.9 -7.7,-34.7 -2.9,1.3 -0.2,21.4 -0.2,21.4 0,0 -3.6,-23 -9.1,-21.8 -3.2,0.7 -20.2,31.9 -20.2,31.9 0,0 13.9,-33.7 9.7,-32.3 -3.1,1 -8.9,14.9 -8.9,14.9 0,0 2.8,-13.7 0,-14.5 -2.8,-0.8 -18.6,14.5 -18.6,14.5 0,0 11.7,-13.7 9.7,-16.6 -3.1,-4.3 -6.6,-4.5 -10.9,-2.8 -6.2,2.4 -14.5,13.7 -14.5,13.7 0,0 8.3,-11.5 6.9,-15.7 C 66.9,84.1 43,104.3 43,104.3 43,104.3 57.1,91 53.9,88.1 50.7,85.3 33.1,86.1 27.7,86.1 11.4,86.2 5.8,82.4 0.9,78.5"
         inkscape:connector-curvature="0"
         style="fill:#373535" /></g></g></svg>